<?xml version="1.0" encoding="UTF-8"?>
<!-- Generator: Adobe Illustrator 25.2.1, SVG Export Plug-In . SVG Version: 6.00 Build 0)  -->
<svg xmlns="http://www.w3.org/2000/svg" xmlns:xlink="http://www.w3.org/1999/xlink" version="1.1" id="Capa_1" x="0px" y="0px" viewBox="0 0 512 512" style="enable-background:new 0 0 512 512;" xml:space="preserve" width="512" height="512">
<g>
	<path style="fill:#B4D5C9;" d="M425.696,390.737c0,0,11.828-30.779-15.207-44.165C410.489,346.572,393.513,373.897,425.696,390.737   z"/>
	<path style="fill:#2B2330;" d="M425.695,391.906c-0.644,0-1.169-0.523-1.169-1.167c-0.016-11.749-11.192-27.046-11.304-27.199   c-0.384-0.521-0.272-1.252,0.247-1.635c0.523-0.386,1.252-0.274,1.635,0.247c0.48,0.651,11.745,16.075,11.761,28.583   c0,0.646-0.523,1.172-1.167,1.172C425.695,391.906,425.695,391.906,425.695,391.906z"/>
	<path style="fill:#B4D5C9;" d="M418.373,413.043c0,0,14.947-29.391,42.989-18.267C461.363,394.775,452.427,425.678,418.373,413.043   z"/>
	<path style="fill:#2B2330;" d="M418.372,414.212c-0.32,0-0.64-0.13-0.87-0.388c-0.432-0.48-0.393-1.22,0.089-1.651   c9.303-8.36,28.304-10.319,29.108-10.399c0.649-0.025,1.213,0.407,1.277,1.051c0.064,0.642-0.404,1.215-1.048,1.279   c-0.19,0.018-19.045,1.964-27.774,9.81C418.93,414.114,418.651,414.212,418.372,414.212z"/>
	<path style="fill:#2B2330;" d="M416.136,465.953c-0.553,0-1.044-0.393-1.147-0.957c-11.667-62.992,33.462-113.381,33.921-113.884   c0.434-0.477,1.176-0.514,1.651-0.075c0.477,0.434,0.512,1.174,0.075,1.651c-0.448,0.493-44.798,50.053-33.35,111.883   c0.119,0.635-0.302,1.245-0.936,1.361C416.28,465.947,416.207,465.953,416.136,465.953z"/>
	<path style="fill:#2B2330;" d="M51.246,251.342c-0.032-0.002-0.066,0-0.096-0.002c-0.694-0.037-1.553-0.082-5.523-9.118   c-2.435-0.866-7.129-2.606-8.106-3.481c-0.306-0.274-0.516-0.877-0.439-1.281c0.217-1.108,1.528-1.722,6.256-3.417   c0.939-0.338,2.076-0.745,2.544-0.962c0.13-0.434,0.466-1.8,0.742-2.921c0.825-3.358,1.368-5.454,1.962-6.254   c0.222-0.295,0.74-0.566,1.11-0.566c0.697,0,1.852,0,5.217,8.775c9.39,3.782,9.728,4.979,9.874,5.495   c0.098,0.349,0.005,0.895-0.212,1.188c-0.238,0.317-0.948,1.27-9.187,2.853C52.987,251.237,52.13,251.342,51.246,251.342z    M40.379,237.669c1.555,0.69,4.182,1.697,6.505,2.515c0.306,0.107,0.553,0.338,0.683,0.635c1.158,2.652,2.588,5.655,3.499,7.268   c0.635-1.734,1.544-4.927,2.234-7.727c0.11-0.445,0.471-0.783,0.92-0.868c2.666-0.498,5.719-1.195,7.4-1.724   c-1.697-0.966-5.075-2.483-8.051-3.671c-0.304-0.123-0.544-0.365-0.66-0.674c-0.927-2.449-2.124-5.217-2.953-6.756   c-0.365,1.222-0.788,2.944-1.06,4.05c-0.683,2.782-0.875,3.474-1.176,3.876c-0.34,0.459-0.857,0.669-3.593,1.651   C43.103,236.612,41.495,237.187,40.379,237.669z"/>
	<path style="fill:#2B2330;" d="M356.718,52.264c-0.032,0-0.066,0-0.096-0.002c-0.694-0.037-1.553-0.082-5.523-9.118   c-2.435-0.866-7.129-2.606-8.106-3.481c-0.306-0.274-0.516-0.877-0.439-1.281c0.217-1.105,1.528-1.72,6.251-3.415   c0.941-0.336,2.081-0.745,2.549-0.962c0.13-0.432,0.466-1.8,0.74-2.921c0.827-3.36,1.37-5.457,1.964-6.256   c0.222-0.295,0.74-0.566,1.11-0.566c0.697,0,1.852,0,5.217,8.775c9.39,3.782,9.728,4.979,9.874,5.495   c0.098,0.349,0.005,0.895-0.212,1.188c-0.238,0.317-0.948,1.27-9.187,2.853C358.459,52.159,357.602,52.264,356.718,52.264z    M345.853,38.592c1.558,0.692,4.182,1.699,6.503,2.515c0.306,0.107,0.553,0.338,0.683,0.635c1.158,2.652,2.588,5.655,3.499,7.268   c0.635-1.734,1.544-4.927,2.234-7.727c0.11-0.445,0.471-0.783,0.921-0.868c2.665-0.498,5.719-1.195,7.4-1.724   c-1.697-0.966-5.075-2.483-8.051-3.671c-0.304-0.123-0.544-0.365-0.66-0.674c-0.927-2.449-2.124-5.217-2.953-6.756   c-0.365,1.222-0.788,2.946-1.06,4.052c-0.672,2.736-0.875,3.474-1.174,3.876c-0.343,0.459-0.859,0.669-3.597,1.651   C348.573,37.536,346.968,38.112,345.853,38.592z"/>
	<path style="fill:#2B2330;" d="M490.793,273.68c-0.002,0-0.005,0-0.005,0c-0.021,0-0.046,0-0.066-0.002   c-0.697-0.037-1.555-0.082-5.527-9.118c-2.435-0.866-7.131-2.606-8.106-3.483c-0.306-0.274-0.516-0.877-0.436-1.281   c0.215-1.105,1.526-1.72,6.249-3.415c0.941-0.336,2.081-0.745,2.549-0.962c0.13-0.432,0.466-1.798,0.74-2.917   c0.827-3.36,1.373-5.459,1.969-6.258c0.219-0.297,0.738-0.566,1.108-0.566c0.74,0,1.852,0,5.217,8.775   c9.388,3.782,9.726,4.979,9.872,5.495c0.098,0.349,0.005,0.895-0.212,1.188c-0.238,0.317-0.946,1.27-9.184,2.853   C492.534,273.66,491.687,273.68,490.793,273.68z M479.949,260.008c1.555,0.69,4.182,1.699,6.503,2.515   c0.306,0.107,0.553,0.338,0.683,0.635c1.158,2.652,2.59,5.655,3.501,7.268c0.635-1.734,1.544-4.927,2.234-7.727   c0.11-0.445,0.471-0.783,0.92-0.868c2.666-0.498,5.719-1.195,7.398-1.724c-1.695-0.966-5.073-2.483-8.049-3.671   c-0.304-0.123-0.544-0.365-0.66-0.674c-0.927-2.449-2.126-5.217-2.953-6.756c-0.368,1.222-0.79,2.949-1.064,4.057   c-0.681,2.777-0.873,3.467-1.174,3.869c-0.34,0.459-0.857,0.669-3.595,1.651C482.669,258.95,481.063,259.526,479.949,260.008z"/>
	<path style="fill:#2B2330;" d="M394.09,194.797c-0.002,0-0.037,0-0.039,0c-4.799-0.021-8.684-3.94-8.663-8.737   c0.021-4.776,3.924-8.661,8.698-8.661c4.835,0.021,8.721,3.94,8.702,8.737C402.768,190.912,398.864,194.797,394.09,194.797z    M394.115,179.738c-3.52,0-6.373,2.841-6.389,6.331c-0.007,1.699,0.646,3.3,1.843,4.506c1.197,1.206,2.791,1.875,4.491,1.882   l0.03,1.169v-1.169c3.49,0,6.343-2.841,6.359-6.331C400.463,182.619,397.622,179.754,394.115,179.738z"/>
	<path style="fill:#2B2330;" d="M375.678,505.324c-0.002,0-0.037,0-0.039,0c-4.799-0.021-8.684-3.94-8.663-8.737   c0.021-4.776,3.924-8.661,8.698-8.661c4.835,0.021,8.721,3.94,8.702,8.737C384.356,501.439,380.452,505.324,375.678,505.324z    M375.704,490.265c-3.52,0-6.373,2.841-6.389,6.331c-0.016,3.508,2.825,6.373,6.334,6.389l0.03,1.169v-1.169   c3.49,0,6.343-2.841,6.359-6.331C382.051,493.145,379.21,490.281,375.704,490.265z"/>
	<path style="fill:#2B2330;" d="M167.997,500.413c-0.002,0-0.037,0-0.039,0c-4.797-0.021-8.682-3.94-8.661-8.737   c0.021-4.776,3.924-8.661,8.698-8.661c2.362,0.009,4.543,0.923,6.178,2.574c1.635,1.649,2.531,3.837,2.522,6.16   C176.674,496.528,172.77,500.413,167.997,500.413z M168.024,485.354c-3.52,0-6.373,2.841-6.389,6.331   c-0.016,3.508,2.825,6.373,6.331,6.389l0.03,1.169v-1.169c3.49,0,6.343-2.841,6.359-6.334c0.007-1.699-0.646-3.298-1.843-4.504   C171.315,486.028,169.721,485.361,168.024,485.354z"/>
	<path style="fill:#2B2330;" d="M76.234,107.18c-0.002,0-0.037,0-0.039,0c-4.797-0.021-8.682-3.94-8.661-8.737   c0.021-4.776,3.924-8.661,8.698-8.661c4.835,0.021,8.721,3.94,8.7,8.737C84.911,103.295,81.008,107.18,76.234,107.18z    M76.261,92.121c-3.52,0-6.373,2.841-6.389,6.331c-0.016,3.508,2.825,6.373,6.331,6.389l0.03,1.169v-1.169   c3.49,0,6.343-2.841,6.359-6.331C82.609,95.002,79.767,92.137,76.261,92.121z"/>
	<path style="fill:#2B2330;" d="M248.951,17.4c-0.002,0-0.032,0-0.034,0c-4.797-0.021-8.682-3.94-8.663-8.737   C240.274,3.885,244.177,0,248.956,0c4.831,0.021,8.716,3.94,8.698,8.737C257.633,13.515,253.729,17.4,248.951,17.4z M248.981,2.339   c-3.517,0-6.373,2.841-6.389,6.334c-0.014,3.508,2.828,6.373,6.334,6.389l0.025,1.169v-1.169c3.492,0,6.347-2.841,6.363-6.334   C255.328,5.219,252.487,2.355,248.981,2.339z"/>
	<g>
		<path style="fill:#ECD673;" d="M487.881,348.741c0,0-12.035,18.379-38.108,3.159c-26.363-15.39-0.917-57.78,3.902-57.912    s4.342,14.986,4.342,14.986s14.966-15.553,15.306-6.592c0.34,8.961-1.051,15.052-1.051,15.052s12.84-10.187,14.248-4.535    s-1.638,14.223-1.638,14.223s14.872-9.953,14.691-2.425C499.392,332.225,487.881,348.741,487.881,348.741z"/>
		<path style="fill:#2B2330;" d="M483.747,349.283c-1.051,0-2.037-0.409-2.883-1.201c-0.621-0.582-1.09-1.279-1.428-2.044    c-0.359,0.103-0.726,0.167-1.103,0.18c-1.3,0.059-3.195-0.443-4.769-3.127c-0.799-1.359-1.375-2.775-1.768-4.152    c-1.553,1.656-3.513,2.999-5.448,3.492c-3.038,0.779-5.454-0.624-6.612-3.849c-0.459-1.279-0.733-2.592-0.866-3.89    c-1.09,0.786-2.2,1.368-3.225,1.645c-2.41,0.64-4.299-0.304-5.185-2.602c-0.363-0.941-0.578-1.916-0.681-2.894    c-2.316,0.681-4.803,0.381-7.026-0.886c-6.656-3.798-2.065-13.3-1.866-13.704c0.286-0.576,0.987-0.813,1.565-0.53    c0.578,0.285,0.818,0.984,0.532,1.565c-0.039,0.08-3.819,7.928,0.93,10.637c1.852,1.055,3.951,1.201,5.838,0.457    c0.254-3.332,1.603-6.318,2.743-7.503c0.925-0.964,1.759-0.875,2.172-0.735c0.79,0.27,1.263,1.046,1.402,2.311    c0.299,2.684-1.185,5.521-3.78,7.227c-0.078,0.05-0.155,0.1-0.235,0.148c0.032,1.032,0.208,2.076,0.589,3.068    c0.445,1.156,1.158,1.521,2.396,1.181c1.181-0.315,2.528-1.215,3.769-2.364c0.224-4.013,1.617-7.462,2.809-8.7    c0.866-0.902,1.663-0.834,2.067-0.703c0.763,0.24,1.243,0.957,1.428,2.129c0.388,2.476-1.51,5.802-4.015,8.337    c0.002,1.617,0.235,3.335,0.841,5.018c0.751,2.092,1.96,2.851,3.833,2.373c2.04-0.521,4.127-2.33,5.436-4.189    c-0.306-2.67,0.055-4.865,0.688-5.712c0.379-0.507,0.939-0.731,1.503-0.589c0.98,0.244,1.275,1.327,1.437,2.357    c0.208,1.325-0.274,2.917-1.188,4.461c0.27,1.661,0.845,3.561,1.935,5.416c0.793,1.35,1.69,2.074,2.656,1.973    c0.194-0.007,0.388-0.041,0.582-0.098c-0.208-1.553-0.041-3.175,0.372-4.557c0.592-1.976,1.601-3.227,2.771-3.428    c0.487-0.08,1.393-0.057,2.172,1.005c0.877,1.199,0.843,3.008-0.098,4.961c-0.555,1.153-1.439,2.325-2.528,3.179    c0.233,0.569,0.553,1.055,0.955,1.43c0.489,0.459,0.984,0.637,1.546,0.55c1.891-0.272,4.303-3.264,5.379-5.087    c0.327-0.557,1.046-0.74,1.601-0.413c0.555,0.329,0.742,1.044,0.413,1.601c-0.34,0.58-3.447,5.694-7.058,6.215    C484.145,349.267,483.946,349.283,483.747,349.283z M482.265,338.21c-0.313,0.336-0.857,1.309-1.094,2.857    c-0.053,0.352-0.087,0.697-0.1,1.035c0.343-0.427,0.637-0.893,0.859-1.354C482.516,339.532,482.514,338.589,482.265,338.21z     M462.825,325.277c-0.381,0.662-0.809,1.699-1.144,2.978C462.35,327.171,462.779,326.118,462.825,325.277z M453.769,323.009    c-0.473,0.738-1.016,2.001-1.364,3.497C453.31,325.467,453.81,324.218,453.769,323.009z"/>
	</g>
	<g>
		<path style="fill:#FFFFFF;" d="M469.524,59.723c0,0,4.564-19.094-14.722-14.769s-15.058,22.682-7.323,17.356    s-3.454-27.285-18.667-19.608c-15.212,7.677-13.872,25.784-3.894,28.147c9.978,2.364-3.97-21.333-18.126-9.067    s11.086,39.94,23.411,32.013c12.325-7.927,4.951-23.558,1.289-14.88c-3.661,8.678,2.784,18.232,22.998,19.983    c20.214,1.752,14.259-30.248,6.266-21.945s2.655,19.72,17.997,10.555S480.147,54.646,469.524,59.723z"/>
		<path style="fill:#2B2330;" d="M456.057,100.136c-0.534,0-1.09-0.023-1.665-0.073c-9.42-0.815-16.587-3.369-20.842-7.405    c-0.811,0.772-1.72,1.482-2.713,2.122c-1.64,1.055-3.533,1.59-5.626,1.59c-8.264,0-18.766-8.723-22.475-18.668    c-2.535-6.8-1.366-12.766,3.294-16.804c3.241-2.809,6.747-4.098,10.383-3.785c0.934-6.423,5.297-12.135,11.873-15.454    c6.891-3.481,14.335-1.434,19.099,4.856c2.053-1.188,4.456-2.094,7.163-2.702c6.647-1.489,11.43-0.457,14.161,3.001    c2.736,3.467,2.62,8.449,2.289,11.192c5.891-1.169,12.832,4.819,15.038,12.811c2.031,7.366-0.466,13.981-6.681,17.695    c-3.801,2.268-7.659,3.495-11.181,3.554C466.148,97.281,461.877,100.136,456.057,100.136z M435.124,90.929    c2.851,2.72,8.472,5.852,19.469,6.804c6.491,0.557,9.646-2.636,11.107-5.827c-3.906-0.587-6.996-2.755-8.257-5.879    c-1.302-3.232-0.377-6.925,2.471-9.885c1.11-1.153,2.282-1.736,3.488-1.736c0.943,0,2.337,0.372,3.62,2.145    c2.211,3.056,2.935,8.465,1.873,13.145c2.91-0.206,6.089-1.297,9.257-3.193c7.581-4.527,6.459-12.042,5.628-15.061    c-1.713-6.206-6.722-11.254-11.169-11.254c-0.895,0-1.763,0.196-2.583,0.589c-0.409,0.19-0.888,0.137-1.238-0.146    c-0.352-0.283-0.509-0.742-0.404-1.179c0.016-0.073,1.654-7.186-1.519-11.194c-2.133-2.7-6.156-3.435-11.809-2.161    c-2.417,0.541-4.554,1.336-6.373,2.366c3.061,5.224,3.693,11.893-0.544,14.81c-3.296,2.27-6.889,0.914-7.987-2.757    c-1.053-3.513,0.201-8.849,5.274-12.704c-4.095-5.32-10.242-7.024-16.089-4.066c-5.913,2.985-9.822,8.081-10.623,13.778    c6.457,1.763,11.069,8.207,10.733,11.852c-0.201,2.174-2.058,3.262-4.801,2.611c-5.144-1.217-8.501-6.297-8.421-12.544    c-2.997-0.235-5.909,0.831-8.668,3.223c-4.956,4.296-4.166,10.102-2.631,14.218c3.346,8.974,13.015,17.147,20.283,17.147    c1.635,0,3.104-0.411,4.36-1.22c0.884-0.569,1.69-1.199,2.403-1.882c-2.857-3.675-3.417-8.063-1.558-12.469    c1.137-2.697,2.595-3.262,3.616-3.262c1.354,0,2.576,1.003,3.353,2.75C438.806,81.146,438.639,86.445,435.124,90.929z     M463.403,76.745c-0.678,0-1.354,0.553-1.802,1.019c-2.225,2.311-2.949,5.002-1.987,7.389c0.991,2.458,3.586,4.134,6.884,4.502    c1.174-4.488,0.263-9.474-1.37-11.731C464.739,77.384,464.125,76.745,463.403,76.745z M434.032,77.537    c-0.256,0-0.85,0.386-1.46,1.832c-1.448,3.433-1.094,6.852,0.98,9.76c2.828-3.876,2.622-8.145,1.695-10.23    C434.831,77.962,434.327,77.537,434.032,77.537z M418.566,59.92c0.089,4.929,2.688,8.86,6.622,9.792    c0.379,0.089,0.719,0.135,1.007,0.135c0.797,0,0.888-0.297,0.925-0.685C427.34,66.793,423.678,61.572,418.566,59.92z     M446.736,49.756c-4.098,3.173-5.157,7.364-4.34,10.089c0.667,2.232,2.435,2.873,4.422,1.501    C449.548,59.466,449.454,54.427,446.736,49.756z"/>
	</g>
	<g>
		<path style="fill:#D17D92;" d="M147.89,46.048c0,0,8-14.833,16.617-7.612c8.617,7.221-8.674,16.306-8.674,16.306    s8.176,2.549,7.473,8.451C162.604,69.095,142.416,68.991,147.89,46.048z"/>
		<path style="fill:#D17D92;" d="M145.489,45.543c0,0-6.697-15.465-15.903-9.01c-9.205,6.455,7.243,16.99,7.243,16.99    s-8.364,1.838-8.171,7.778C128.851,67.242,148.973,68.871,145.489,45.543z"/>
		<path style="fill:#2B2330;" d="M147.691,41.451c-0.564,0-1.06-0.409-1.153-0.984c-1.27-7.917,6.13-11.601,10.224-12.444    c0.637-0.146,1.249,0.276,1.38,0.907c0.13,0.633-0.274,1.249-0.907,1.382c-0.393,0.082-9.618,2.104-8.385,9.785    c0.1,0.637-0.333,1.238-0.971,1.341C147.817,41.447,147.753,41.451,147.691,41.451z"/>
		<path style="fill:#2B2330;" d="M144.987,41.129c-0.601,0-1.112-0.461-1.163-1.074c-0.359-4.317-1.597-7.41-3.575-8.942    c-1.713-1.325-3.454-1.08-3.469-1.071c-0.644,0.103-1.243-0.32-1.352-0.955c-0.11-0.637,0.32-1.243,0.955-1.352    c0.105-0.016,2.748-0.448,5.299,1.528c2.547,1.973,4.052,5.539,4.472,10.6c0.055,0.642-0.425,1.208-1.069,1.261    C145.053,41.127,145.021,41.129,144.987,41.129z"/>
	</g>
	<g>
		<path style="fill:#DF9C49;" d="M423.8,263.835c0,0-14.357,8.826-18.195-1.742c-3.837-10.568,15.679-9.762,15.679-9.762    s-5.797-6.304-2.231-11.059C422.619,236.517,440.036,246.726,423.8,263.835z"/>
		<path style="fill:#DF9C49;" d="M425.624,265.475c0,0-1.956,16.739,9.245,15.767c11.201-0.972,2.249-18.332,2.249-18.332    s8.159,2.602,10.969-2.635C450.897,255.038,434.301,243.542,425.624,265.475z"/>
		<path style="fill:#2B2330;" d="M412.089,275.775c-1.903,0-3.687-0.352-5-0.788c-0.612-0.206-0.943-0.866-0.74-1.478    c0.206-0.612,0.866-0.95,1.478-0.742c0.381,0.128,9.385,3.001,12.16-4.262c0.231-0.603,0.911-0.902,1.51-0.674    c0.603,0.231,0.905,0.907,0.674,1.51C420.254,274.347,415.931,275.775,412.089,275.775z"/>
		<path style="fill:#2B2330;" d="M424.982,285.521c-0.135,0-0.27-0.023-0.404-0.073c-0.105-0.039-2.602-0.994-3.819-3.977    c-1.215-2.985-0.731-6.825,1.441-11.416c0.279-0.585,0.978-0.827,1.558-0.557c0.585,0.276,0.834,0.973,0.557,1.558    c-1.841,3.887-2.327,7.165-1.412,9.481c0.809,2.04,2.428,2.695,2.496,2.723c0.598,0.233,0.9,0.907,0.672,1.508    C425.894,285.233,425.453,285.521,424.982,285.521z"/>
	</g>
	<g>
		<g>
			<path style="fill:#FFFFFF;" d="M353.36,323.748c0,0,20.554-21.557,28.799-5.391c8.245,16.165-6.457,25.231-8.456,19.878     c-1.999-5.353,13.597-1.607,18.415,7.635s1.18,22.59-9.777,16.06c-10.956-6.53-2.964-16.666,1.034-5.96     c3.998,10.706-5.815,27.515-21.91,18.488c-16.096-9.027-9.888-29.013-4.213-21.983c5.675,7.03-1.747,20.948-11.883,12.955     c-10.136-7.993,3.816-32.868,3.816-32.868"/>
			<path style="fill:#2B2330;" d="M370.272,378.222c-2.663,0-5.795-0.735-9.378-2.743c-3.353-1.882-5.795-4.226-7.505-6.722     c-2.711,0.729-5.779-0.073-8.741-2.407c-10.797-8.515,2.928-33.306,3.517-34.357c0.315-0.566,1.032-0.765,1.592-0.45     c0.564,0.317,0.765,1.03,0.45,1.592c-0.135,0.242-13.348,24.092-4.111,31.379c2.083,1.642,4.141,2.359,6.014,2.095     c-1.839-3.581-2.339-7.282-2.001-10.237c0.388-3.38,1.855-5.836,3.828-6.407c0.845-0.244,2.519-0.34,4.226,1.777     c3.652,4.525,2.433,11.276-0.996,14.744c-0.507,0.512-1.039,0.946-1.599,1.302c1.51,2.09,3.62,4.054,6.469,5.651     c5.982,3.355,11.601,3.211,15.815-0.397c2.695-2.309,4.477-5.84,5.043-9.474c-0.372-0.185-0.756-0.395-1.151-0.63     c-5.393-3.214-6.58-7.323-5.959-9.867c0.413-1.695,1.651-2.848,3.152-2.937c1.055-0.073,3.639,0.352,5.537,5.432     c0.765,2.049,1.062,4.285,0.943,6.53c1.807,0.605,3.764,0.662,5.306-0.79c2.949-2.787,3.115-9.607,0.361-14.89     c-1.976-3.792-5.932-6.564-9.502-8.102c-1.907,1.841-4.187,2.853-6.092,2.599c-1.359-0.176-2.41-1-2.882-2.266     c-0.601-1.61-0.08-3.01,1.357-3.65c1.542-0.685,4.136-0.445,6.973,0.541c0.112-0.142,0.219-0.288,0.327-0.439     c1.416-2.012,4.237-7.615-0.146-16.208c-1.608-3.152-3.732-4.879-6.498-5.283c-8.652-1.293-20.296,10.824-20.41,10.948     c-0.448,0.471-1.185,0.484-1.654,0.041c-0.468-0.448-0.487-1.188-0.041-1.654c0.512-0.537,12.608-13.083,22.443-11.649     c3.52,0.514,6.295,2.711,8.243,6.532c4.961,9.728,1.635,16.26-0.025,18.617c0,0.002,0,0.002-0.002,0.005     c3.935,1.836,7.933,4.947,9.984,8.883c3.253,6.24,2.88,14.168-0.829,17.672c-1.183,1.119-3.511,2.522-7.193,1.455     c-0.731,3.977-2.741,7.77-5.76,10.361C377.586,376.347,374.527,378.222,370.272,378.222z M354.813,352.177     c-0.075,0-0.151,0.011-0.226,0.032c-0.845,0.247-1.857,1.846-2.154,4.429c-0.304,2.634,0.171,5.955,1.889,9.159     c0.413-0.26,0.806-0.578,1.181-0.957c2.663-2.693,3.664-8.131,0.841-11.628C356.015,352.805,355.412,352.177,354.813,352.177z      M379.127,352.462c-0.018,0-0.037,0-0.053,0.002c-0.553,0.032-0.888,0.619-1.021,1.158c-0.464,1.907,0.866,4.906,4.886,7.302     c0.05,0.03,0.098,0.059,0.148,0.089c-0.007-1.61-0.267-3.186-0.809-4.634C381.265,353.662,379.977,352.462,379.127,352.462z      M376.147,336.926c-0.507,0-0.925,0.069-1.231,0.203c-0.201,0.091-0.324,0.144-0.116,0.697c0.171,0.461,0.477,0.699,0.987,0.763     c0.811,0.107,2.031-0.288,3.25-1.188C377.928,337.088,376.932,336.926,376.147,336.926z"/>
		</g>
		<path style="fill:#9D7F95;" d="M246.881,43.401c0,0-72.786,45.588-64.171,89.988c5.431,27.988,40.361,71.642,102.717,80.848    c71.426,10.545,91.97-72.244,85.866-86.055S279.141,28.409,246.881,43.401z"/>
		<path style="fill:#9D7F95;" d="M280.966,373.953c0,0,30.695,85.29,44.885,84.153c14.19-1.137,39.211-7.15,35.122-22.531    c-4.089-15.382-20.729-93.37-32.279-86.018S280.966,373.953,280.966,373.953z"/>
		<path style="fill:#9D7F95;" d="M165.48,342.135c0,0,0.812,108.422,13.916,113.982c13.105,5.56,48.194,11.551,51.69-3.976    c3.496-15.527,10.328-88.646-3.313-87.475C214.132,365.837,165.48,342.135,165.48,342.135z"/>
		<path style="fill:#9D7F95;" d="M295.41,183.914c0,0-57.459-35.539-110.752,30.79S134.304,420.747,287.613,395.36    C388.326,378.682,409.222,254.671,295.41,183.914z"/>
		<path style="fill:#FFFFFF;" d="M294.733,395.698c0,0,60.191-144.359-26.245-174.757s-101.682,153.666-42.202,176.761    C226.285,397.702,253.444,411.011,294.733,395.698z"/>
		<path style="opacity:0.2;fill:#ECD673;" d="M294.733,395.698c0,0,60.191-144.359-26.245-174.757s-101.682,153.666-42.202,176.761    C226.285,397.702,253.444,411.011,294.733,395.698z"/>
		<path style="fill:#9D7F95;" d="M198.147,199.571c0,0-60.845,15.886-66.374,37.406c-5.53,21.52,19.811,57.276,35.334,46.747    C182.629,273.195,218.74,224.586,198.147,199.571z"/>
		<path style="fill:#9D7F95;" d="M254.34,35.679c0,0-118.451,73.332-21.68,146.256c77.986,58.769,177.156-60.314,166.54-95.185    c-10.616-34.872-51.9,7.352-51.9,7.352L300.06,55.036c0,0,30.146-31.707,11.951-44.845C298.096,0.142,254.34,35.679,254.34,35.679    z"/>
		<path style="fill:#2B2330;" d="M267.208,140.777c-0.587,0-1.108-0.222-1.478-0.628c-3.424-3.764-17.396-16.587-17.537-16.717    c-0.379-0.347-0.487-0.902-0.263-1.368c0.672-1.398,16.669-34.407,34.956-49.082c0.503-0.404,1.238-0.322,1.642,0.18    c0.404,0.503,0.324,1.238-0.18,1.642c-16.349,13.122-31.367,42.363-33.928,47.497c2.798,2.576,13.631,12.578,16.909,16.13    c3.449-0.395,20.586-19.965,35.389-38.941c0.397-0.509,1.128-0.601,1.642-0.203c0.509,0.397,0.601,1.133,0.203,1.642    c-5.16,6.612-31.205,39.617-37.265,39.846C267.269,140.774,267.237,140.777,267.208,140.777z"/>
		<path style="fill:#2B2330;" d="M308.933,132.522c-0.797,0-1.505-0.185-2.081-0.605c-2.682-1.953-1.745-7.528,3.038-18.074    c0.267-0.589,0.966-0.845,1.546-0.582c0.589,0.265,0.85,0.959,0.582,1.546c-5.831,12.866-4.18,14.933-3.792,15.219    c1.843,1.334,9.824-3.885,16.128-9.611c0.477-0.432,1.22-0.402,1.651,0.08c0.434,0.477,0.4,1.217-0.08,1.651    C322.994,124.813,314.066,132.522,308.933,132.522z"/>
		<path style="fill:#FFFFFF;" d="M312.807,184.337c0,0,31.637-56.003-52.873-49.993c0,0-1.496-32.774-27.565-28.503    c-46.369,7.598-28.827,64.93,5.279,82.954S301.968,201.659,312.807,184.337z"/>
		<path style="opacity:0.2;fill:#ECD673;" d="M312.807,184.337c0,0,31.637-56.003-52.873-49.993c0,0-1.496-32.774-27.565-28.503    c-46.369,7.598-28.827,64.93,5.279,82.954S301.968,201.659,312.807,184.337z"/>
		<path style="fill:#2B2330;" d="M257.172,169.129c-0.057,0-0.116,0-0.174-0.005c-5.964-0.281-6.334-16.19-6.306-21.059    c0.005-0.644,0.528-1.163,1.169-1.163c0.002,0,0.005,0,0.007,0c0.646,0.005,1.167,0.53,1.163,1.176    c-0.05,8.94,1.576,18.592,4.077,18.711c0.027,0,0.053,0,0.08,0c3.113,0,8.282-8.549,10.982-14.68    c0.263-0.592,0.952-0.857,1.542-0.601c0.592,0.26,0.861,0.952,0.601,1.542C269.12,155.758,262.939,169.129,257.172,169.129z"/>
		<path style="fill:#2B2330;" d="M282.805,125.404c0,0-25.416-19.237-33.044-13.125c-7.628,6.112-1.986,32.71,8.719,34.513    C269.185,148.596,287.195,132.951,282.805,125.404z"/>
		<path style="fill:#2B2330;" d="M329.739,109.234c-1.38,0-2.791-0.231-4.203-0.738c-3.556-1.279-6.329-2.878-8.175-4.669    c-2.19,0.92-4.908,1.27-8.113,0.585c-6.727-1.441-10.991-6.649-12.019-11.662c-2.497-0.434-5.294-1.569-8.291-3.691    c-5.34-3.782-7.789-7.866-7.275-12.144c0.135-1.119,0.473-2.188,0.959-3.195c-0.315-0.317-0.594-0.681-0.834-1.092    c-2.264-3.892-0.557-12.154,6.215-19.243c2.714-2.839,5.847-4.317,9.314-4.39c6.665-0.1,12.268,5.091,12.498,5.313    c0.466,0.448,0.48,1.185,0.032,1.651c-0.443,0.468-1.188,0.475-1.651,0.037c-0.027-0.025-2.665-2.524-6.297-3.851    c-4.66-1.699-8.769-0.742-12.206,2.857c-5.932,6.21-7.672,13.373-5.884,16.45c0.032,0.053,0.064,0.105,0.098,0.158    c2.35-3.179,6.016-5.532,8.698-6.594c2.179-0.866,3.371-0.402,3.99,0.135c0.726,0.63,0.987,1.651,0.71,2.805    c-0.589,2.469-3.565,5.715-8.711,7.003c-1.475,0.365-2.825,0.356-3.967-0.016c-0.324,0.724-0.55,1.476-0.642,2.252    c-0.404,3.36,1.718,6.708,6.304,9.956c2.435,1.724,4.689,2.716,6.699,3.17c0.002-0.247,0.014-0.491,0.034-0.733    c0.324-3.894,2.851-6.418,6.59-6.583c3.497-0.158,4.5,1.619,4.778,2.391c0.637,1.759-0.311,3.988-2.359,5.548    c-1.555,1.185-3.734,2.005-6.366,2.017c1.071,3.986,4.621,7.999,10.07,9.164c2.353,0.507,4.376,0.345,6.051-0.215    c-0.694-1.11-1.058-2.27-1.06-3.454c-0.009-2.563,1.754-4.742,4.717-5.831c2.186-0.802,3.3,0.192,3.68,0.653    c1.108,1.348,0.895,3.741-0.539,6.098c-0.717,1.176-1.74,2.318-3.054,3.248c1.471,1.268,3.675,2.549,6.795,3.671    c5.966,2.152,12.361-1.992,14.584-7.202c2.021-4.735,0.299-9.018-4.607-11.461c-0.578-0.288-0.813-0.989-0.525-1.567    c0.286-0.578,0.991-0.815,1.567-0.525c7.234,3.6,7.697,9.835,5.717,14.472C340.931,105.006,335.634,109.234,329.739,109.234z     M320.995,94.659c-0.194,0-0.452,0.055-0.745,0.162c-2.028,0.745-3.191,2.067-3.184,3.625c0.002,0.719,0.267,1.551,0.866,2.428    c1.158-0.758,2.049-1.72,2.654-2.716c1.06-1.74,0.998-3.072,0.731-3.396C321.26,94.693,321.148,94.659,320.995,94.659z     M299.326,90.621c2.298,0.05,4.027-0.578,5.29-1.539c1.334-1.016,1.809-2.248,1.576-2.889c-0.217-0.592-1.14-0.946-2.474-0.852    c-3.618,0.16-4.258,3.159-4.365,4.443C299.331,90.056,299.322,90.337,299.326,90.621z M285.889,72.853    c0.619,0.096,1.334,0.039,2.138-0.167c3.693-0.923,6.098-3.079,6.845-4.808c0.263-0.605,0.21-0.923,0.18-0.975l0,0    c-0.018-0.002-0.42-0.178-1.583,0.286C291.204,68.086,287.949,70.144,285.889,72.853z"/>
		<path style="fill:#2B2330;" d="M244.431,95.266c-0.322,0-0.63-0.053-0.923-0.167c-2.311-0.895-4.146-4.363-0.224-23.307    c0.13-0.635,0.763-1.046,1.382-0.907c0.633,0.13,1.039,0.749,0.907,1.382c-3.933,19.008-1.51,20.538-1.222,20.65    c1.791,0.697,8.115-6.733,13.533-15.888c0.331-0.555,1.046-0.735,1.603-0.411c0.555,0.329,0.74,1.046,0.411,1.603    C257.434,82.384,249.403,95.266,244.431,95.266z"/>
		<path style="fill:#2B2330;" d="M375.994,119.957c-0.24,0-0.482-0.073-0.69-0.224c-0.521-0.381-0.635-1.112-0.256-1.635    c0.132-0.18,13.09-18.161,7.875-29.113c-0.715-1.501-1.77-2.355-3.227-2.615c-6.58-1.172-19.298,9.605-23.647,13.855    c-0.464,0.455-1.201,0.441-1.654-0.018c-0.452-0.464-0.443-1.204,0.018-1.654c0.676-0.658,16.582-16.096,25.694-14.486    c2.222,0.395,3.881,1.713,4.927,3.913c5.813,12.208-7.526,30.716-8.095,31.497C376.709,119.791,376.355,119.957,375.994,119.957z"/>
		<path style="fill:#2B2330;" d="M293.093,46.623c-0.276,0-0.555-0.098-0.777-0.295c-0.484-0.429-0.525-1.169-0.098-1.651    c5.297-5.955,13.296-16.703,12.213-20.207c-0.098-0.32-0.301-0.669-1.06-0.859c-6.199-1.56-19.474,6.462-24.063,9.68    c-0.525,0.37-1.259,0.244-1.629-0.286c-0.372-0.528-0.244-1.259,0.286-1.629c0.71-0.498,17.455-12.151,25.972-10.036    c1.77,0.443,2.46,1.571,2.727,2.439c1.784,5.781-10.265,19.716-12.697,22.45C293.735,46.49,293.415,46.623,293.093,46.623z"/>
		<g>
			<path style="fill:#FFFFFF;" d="M226.714,211.645l-62.796-20.237c0,0-39.608,106.422-23.613,109.116     c15.995,2.694,70.324,22.683,75.379,13.253C220.739,304.347,231.035,217.653,226.714,211.645z"/>
			<path style="fill:#2B2330;" d="M208.162,317.457L208.162,317.457c-10.804-0.002-30.57-5.635-46.454-10.162     c-9.109-2.597-16.975-4.838-21.598-5.617c-1.398-0.235-2.51-1.053-3.303-2.428c-8.581-14.856,24.597-104.444,26.013-108.251     c0.219-0.585,0.859-0.898,1.455-0.703l62.796,20.237c0.238,0.075,0.445,0.226,0.592,0.429c3.15,4.379-0.571,39.834-1.786,50.597     c-2.46,21.77-6.375,47.57-9.164,52.771C215.588,316.433,212.79,317.457,208.162,317.457z M164.625,192.865     c-9.771,26.424-32.372,93.825-25.794,105.216c0.441,0.763,0.971,1.174,1.667,1.291c4.751,0.799,12.674,3.058,21.852,5.674     c15.742,4.488,35.335,10.07,45.812,10.073l0,0c3.584,0,5.827-0.656,6.491-1.893c5.26-9.817,14.504-93.167,11.27-100.604     L164.625,192.865z"/>
		</g>
		<g>
			<path style="fill:#ECD673;" d="M184.757,241.382c0,0,9.147-13.393,16.669-5.616c7.522,7.777-9.94,14.735-9.94,14.735     s7.569,3.261,6.304,8.839C196.524,264.918,177.213,262.791,184.757,241.382z"/>
			<path style="fill:#ECD673;" d="M182.51,240.658c0,0-4.856-15.474-14.315-10.221c-9.459,5.253,5.225,16.989,5.225,16.989     s-8.19,0.919-8.602,6.624C164.406,259.754,183.501,263.335,182.51,240.658z"/>
			<path style="fill:#2B2330;" d="M185.148,237.014c-0.617,0-1.133-0.482-1.167-1.105c-0.425-7.738,7.058-10.534,11.075-10.932     c0.617-0.039,1.213,0.404,1.277,1.048c0.064,0.642-0.404,1.215-1.046,1.279c-0.384,0.041-9.378,1.044-8.972,8.476     c0.037,0.644-0.459,1.197-1.103,1.231C185.189,237.014,185.168,237.014,185.148,237.014z"/>
			<path style="fill:#2B2330;" d="M182.592,236.434c-0.009,0-0.016,0-0.025,0c-0.646-0.014-1.158-0.548-1.144-1.195     c0.091-4.157-0.777-7.229-2.51-8.885c-1.492-1.428-3.173-1.366-3.177-1.364c-0.715,0.039-1.204-0.448-1.245-1.09     c-0.041-0.646,0.445-1.201,1.089-1.245c0.119-0.002,2.697-0.148,4.95,2.008c2.25,2.152,3.337,5.728,3.232,10.626     C183.748,235.927,183.227,236.434,182.592,236.434z"/>
		</g>
		<path style="fill:#9D7F95;" d="M329.086,241.848c-3.037-2.24-58.347,10.747-91.787,3.149    c-13.839-3.145-19.627,30.372-13.628,49.677c7.818,25.159,85.154,57.377,112.379,6.093    C346.249,281.554,340.352,250.158,329.086,241.848z"/>
		<path style="fill:#DF9C49;" d="M230.621,197.579c0,0-69.038-19.477-70.608-13.721s-8.77,20.961-3.63,21.853    c5.14,0.892,69.192,16.245,74.517,13.259S238.932,199.917,230.621,197.579z"/>
		<path style="fill:#2B2330;" d="M145.738,257.228c-7.505,0-14.917-12.613-15.137-20.216c-0.137-4.794,1.112-8.581,3.714-11.258    c3.702-3.81,9.097-4.221,11.247-4.221c0.66,0,1.051,0.037,1.051,0.037c1.425,0.126,14.049,1.37,16.872,6.421    c0.786,1.405,0.777,2.994-0.025,4.598c-0.669,1.338-2.117,2.935-5.208,2.935c-1.213,0-2.517-0.249-3.803-0.63    c2.885,2.807,5.247,5.808,4.648,7.693c-0.244,0.761-0.973,1.683-3.074,1.759l-0.45,0.007c-3.951,0-8.547-1.798-11.804-3.138    c0.651,0.566,1.359,1.144,2.088,1.738c3.33,2.72,6.775,5.532,6.606,8.723c-0.087,1.654-1.147,3.157-3.15,4.468    C148.21,256.86,147.006,257.228,145.738,257.228z M145.562,223.871c-1.852,0-6.489,0.343-9.568,3.511    c-2.145,2.206-3.173,5.425-3.054,9.561c0.199,6.923,7.222,17.946,12.798,17.946c0.818,0,1.569-0.233,2.296-0.708    c1.343-0.877,2.047-1.763,2.092-2.631c0.107-2.005-3.004-4.548-5.749-6.788c-1.496-1.22-3.042-2.483-4.171-3.725    c-0.884-0.971-1.528-1.784-1.133-2.677c0.219-0.496,0.701-0.79,1.291-0.79c0.683,0,1.617,0.375,3.671,1.222    c3.102,1.284,7.791,3.221,11.539,3.221l0.368-0.007c0.77-0.027,0.962-0.19,0.964-0.192c0.206-1.229-4.774-6.338-10.696-10.865    c-0.5-0.384-0.608-1.094-0.242-1.606c0.363-0.516,1.071-0.649,1.597-0.299c0.062,0.041,6.334,4.141,10.689,4.141    c2.056,0,2.764-0.936,3.115-1.642c0.603-1.204,0.331-1.953,0.075-2.41c-1.884-3.371-11.496-4.92-15.041-5.233    C146.373,223.896,146.067,223.871,145.562,223.871z"/>
		<path style="fill:#2B2330;" d="M227.321,283.228c-0.048,0-0.098-0.002-0.146-0.009c-0.882-0.11-21.612-2.839-22.366-16.005    c-0.064-1.126,0.354-2.058,1.208-2.7c2.197-1.642,7.382-0.859,11.747,0.238c-2.423-2.095-4.742-4.689-4.972-7.092    c-0.123-1.3,0.343-2.471,1.352-3.39c1.441-1.311,3.428-1.549,5.578-1.188c-2.065-2.097-3.586-4.31-3.714-6.347    c-0.071-1.101,0.222-2.691,2.01-4.018c1.56-1.158,3.326-1.546,5.263-1.156c6.925,1.407,13.732,12.862,14.017,13.348    c0.329,0.557,0.142,1.275-0.413,1.601c-0.557,0.324-1.275,0.144-1.601-0.413c-0.066-0.112-6.562-11.046-12.469-12.243    c-1.272-0.258-2.385-0.014-3.403,0.74c-1.023,0.761-1.101,1.501-1.069,1.992c0.153,2.423,3.753,5.863,7.814,8.883    c3.627,1.9,6.692,4.262,7.35,4.781c0.48,0.377,0.587,1.06,0.249,1.569c-0.343,0.505-1.014,0.665-1.544,0.37    c-0.722-0.407-3.947-2.25-7.334-4.739c-3.739-1.925-7.442-3.013-9.161-1.448c-0.466,0.425-0.649,0.868-0.596,1.437    c0.272,2.816,5.989,7.286,9.529,9.442c0.514,0.311,0.706,0.959,0.448,1.501c-0.256,0.544-0.884,0.802-1.448,0.598    c-5.537-1.978-14.225-4.089-16.231-2.592c-0.144,0.11-0.299,0.263-0.274,0.694c0.644,11.224,20.123,13.791,20.319,13.816    c0.642,0.08,1.096,0.665,1.016,1.304C228.406,282.794,227.901,283.228,227.321,283.228z"/>
		<path style="fill:#2B2330;" d="M270.097,249.065c-8.403,0-18.168-0.706-29.503-2.396c-0.637-0.094-1.078-0.69-0.982-1.329    c0.094-0.637,0.685-1.076,1.329-0.982c33.923,5.055,53.109,0.946,63.232-3.392c10.865-4.66,13.837-10.555,13.867-10.614    c0.279-0.576,0.978-0.822,1.558-0.544c0.58,0.279,0.827,0.971,0.553,1.551C319.741,232.22,311.185,249.065,270.097,249.065z"/>
		<path style="fill:#2B2330;" d="M285.396,327.223c-21.74,0-44.729-7.583-62.666-31.854c-0.384-0.518-0.274-1.252,0.247-1.635    c0.516-0.377,1.249-0.274,1.635,0.247c46.291,62.636,127.707,10.71,128.527,10.18c0.544-0.356,1.265-0.199,1.617,0.343    c0.352,0.541,0.199,1.265-0.343,1.617C353.895,306.459,321.359,327.223,285.396,327.223z"/>
		<path style="fill:#2B2330;" d="M253.156,402.406c-12.944,0-27.477-1.93-38.466-8.739c-9.287-5.756-15.082-14.323-17.224-25.465    c-0.121-0.635,0.295-1.247,0.927-1.37c0.64-0.116,1.249,0.292,1.37,0.927c2.015,10.475,7.448,18.522,16.155,23.917    c27.215,16.87,77.992,3.038,78.501,2.896c0.626-0.18,1.265,0.19,1.439,0.813c0.174,0.621-0.19,1.268-0.813,1.439    c-0.13,0.037-13.154,3.625-29.435,5.027C261.778,402.182,257.56,402.406,253.156,402.406z"/>
		<path style="fill:#2B2330;" d="M182.073,297.508c-1.254,0-2.62-0.073-4.059-0.219c-0.644-0.064-1.112-0.637-1.046-1.279    c0.064-0.644,0.674-1.112,1.279-1.046c1.364,0.137,2.65,0.206,3.826,0.206l0.694-0.009c0.674,0.005,1.185,0.491,1.204,1.135    c0.018,0.646-0.491,1.185-1.135,1.204L182.073,297.508z M187.411,296.831c-0.498,0-0.959-0.32-1.115-0.818    c-0.194-0.617,0.148-1.275,0.763-1.466c1.453-0.457,2.474-1.16,3.125-2.149c0.356-0.541,1.08-0.688,1.622-0.333    c0.539,0.356,0.688,1.08,0.333,1.622c-0.946,1.434-2.419,2.476-4.376,3.09C187.647,296.813,187.528,296.831,187.411,296.831z     M173.513,296.605c-0.082,0-0.162-0.009-0.244-0.025c-1.631-0.345-3.195-0.795-4.655-1.338c-0.605-0.226-0.914-0.9-0.688-1.505    c0.226-0.608,0.9-0.914,1.505-0.688c1.35,0.505,2.803,0.923,4.321,1.243c0.633,0.135,1.035,0.754,0.902,1.386    C174.538,296.228,174.052,296.605,173.513,296.605z M164.801,293.319c-0.203,0-0.407-0.053-0.594-0.162    c-1.437-0.847-2.766-1.825-3.954-2.903c-0.48-0.434-0.514-1.174-0.08-1.651c0.436-0.48,1.176-0.512,1.651-0.08    c1.071,0.973,2.27,1.852,3.57,2.62c0.557,0.329,0.742,1.046,0.413,1.601C165.589,293.113,165.201,293.319,164.801,293.319z     M192.363,289.755c-0.014,0-0.027,0-0.041,0c-0.646-0.023-1.151-0.566-1.128-1.211c0.009-0.242,0.014-0.486,0.014-0.733    c0-0.53-0.021-1.074-0.05-1.622c-0.384-0.08-0.774-0.178-1.172-0.292c-0.619-0.178-0.978-0.827-0.799-1.448    c0.18-0.621,0.818-0.987,1.448-0.799c0.128,0.037,0.254,0.071,0.381,0.105c0.071-0.537,0.512-0.968,1.074-1.01    c0.63-0.057,1.204,0.436,1.252,1.083l0.023,0.311c0.176,0.009,0.338,0.018,0.516,0.014c0.322,0,0.628-0.018,0.92-0.05    c0.619-0.075,1.22,0.391,1.291,1.035c0.071,0.642-0.393,1.22-1.035,1.291c-0.381,0.041-0.804,0.018-1.197,0.064    c-0.114,0-0.228-0.002-0.345-0.005c0.021,0.448,0.032,0.889,0.032,1.325c0,0.274-0.005,0.546-0.014,0.815    C193.51,289.26,192.991,289.755,192.363,289.755z M157.954,287.06c-0.368,0-0.731-0.174-0.959-0.5    c-0.948-1.357-1.734-2.821-2.337-4.349c-0.238-0.601,0.057-1.279,0.658-1.517c0.598-0.242,1.281,0.057,1.517,0.658    c0.537,1.359,1.238,2.661,2.081,3.869c0.37,0.53,0.24,1.259-0.29,1.629C158.42,286.992,158.187,287.06,157.954,287.06z     M199.108,284.536c-0.306,0-0.612-0.119-0.843-0.359c-0.448-0.464-0.434-1.204,0.032-1.654c1.153-1.11,1.631-2.496,1.832-3.46    c0.128-0.635,0.758-1.053,1.38-0.909c0.633,0.13,1.042,0.747,0.909,1.38c-0.379,1.85-1.245,3.465-2.499,4.675    C199.693,284.427,199.4,284.536,199.108,284.536z M186.002,284.148c-0.194,0-0.391-0.048-0.569-0.148    c-1.601-0.893-2.935-1.953-3.963-3.147c-0.423-0.491-0.365-1.229,0.123-1.649c0.493-0.418,1.231-0.365,1.649,0.123    c0.85,0.987,1.969,1.873,3.328,2.631c0.564,0.315,0.767,1.028,0.452,1.59C186.808,283.931,186.411,284.148,186.002,284.148z     M192.071,280.411c-0.032,0-0.062,0-0.091-0.005c-0.644-0.048-1.126-0.61-1.076-1.254c0.158-2.065,0.699-3.698,1.654-4.993    c0.381-0.518,1.115-0.63,1.635-0.247c0.518,0.384,0.63,1.115,0.247,1.635c-0.697,0.943-1.078,2.147-1.204,3.782    C193.188,279.945,192.676,280.411,192.071,280.411z M154.557,278.433c-0.576,0-1.078-0.427-1.156-1.014    c-0.119-0.873-0.178-1.75-0.178-2.606c0-0.809,0.053-1.606,0.155-2.371c0.085-0.642,0.688-1.119,1.313-1.003    c0.64,0.085,1.089,0.674,1.003,1.313c-0.089,0.667-0.132,1.354-0.132,2.06c0,0.751,0.053,1.523,0.155,2.296    c0.087,0.64-0.361,1.229-1.003,1.313C154.662,278.431,154.61,278.433,154.557,278.433z M180.244,277.14    c-0.532,0-1.012-0.363-1.137-0.902c-0.21-0.893-0.317-1.836-0.317-2.807c0-0.733,0.062-1.503,0.18-2.286    c0.096-0.642,0.71-1.069,1.332-0.98c0.64,0.096,1.078,0.694,0.98,1.332c-0.1,0.669-0.153,1.32-0.153,1.935    c0,0.79,0.085,1.553,0.254,2.273c0.148,0.628-0.242,1.259-0.87,1.405C180.422,277.131,180.331,277.14,180.244,277.14z     M200.951,275.866c-0.459,0-0.898-0.274-1.083-0.726c-0.338-0.829-1.042-1.825-2.346-1.615c-0.626,0.094-1.238-0.336-1.338-0.973    c-0.1-0.637,0.336-1.236,0.973-1.338c2.181-0.34,3.965,0.818,4.877,3.04c0.244,0.598-0.041,1.281-0.64,1.526    C201.251,275.839,201.1,275.866,200.951,275.866z M155.905,269.322c-0.185,0-0.372-0.043-0.546-0.135    c-0.571-0.302-0.79-1.01-0.489-1.581c0.904-1.711,2.156-3.042,3.618-3.846c0.56-0.315,1.275-0.107,1.587,0.459    c0.313,0.566,0.107,1.277-0.459,1.587c-1.062,0.585-1.987,1.585-2.677,2.892C156.729,269.096,156.323,269.322,155.905,269.322z     M181.404,268c-0.144,0-0.292-0.027-0.434-0.085c-0.601-0.24-0.891-0.92-0.651-1.519c0.493-1.236,1.014-2.289,1.396-3.061    c0.226-0.457,0.402-0.793,0.461-0.982c0-0.646,0.512-1.064,1.158-1.064c0.644,0,1.156,0.628,1.156,1.275    c0,0.439-0.199,0.841-0.678,1.809c-0.361,0.729-0.854,1.724-1.322,2.892C182.306,267.721,181.868,268,181.404,268z"/>
		<g>
			<path style="fill:#2B2330;" d="M311.756,303.892c-0.936,0-1.82-0.192-2.558-0.683c-0.537-0.356-0.683-1.083-0.324-1.622     c0.356-0.539,1.08-0.678,1.622-0.324c1.555,1.039,5.701-0.813,7.46-1.878c0.553-0.336,1.27-0.155,1.606,0.395     c0.333,0.553,0.158,1.272-0.395,1.606C318.641,301.703,314.911,303.892,311.756,303.892z"/>
			<path style="fill:#2B2330;" d="M323.882,306.431c-0.936,0-1.823-0.192-2.56-0.683c-0.537-0.356-0.683-1.083-0.324-1.622     c0.356-0.539,1.083-0.678,1.622-0.324c1.565,1.037,5.706-0.815,7.462-1.875c0.553-0.336,1.272-0.158,1.606,0.395     c0.333,0.553,0.158,1.272-0.395,1.606C330.767,304.246,327.039,306.431,323.882,306.431z"/>
			<path style="fill:#2B2330;" d="M297.456,311.909c-0.936,0-1.82-0.192-2.558-0.683c-0.537-0.356-0.683-1.083-0.324-1.622     c0.356-0.539,1.08-0.678,1.622-0.324c1.567,1.039,5.701-0.811,7.46-1.875c0.55-0.331,1.272-0.158,1.606,0.395     s0.158,1.272-0.395,1.606C304.34,309.723,300.612,311.909,297.456,311.909z"/>
			<path style="fill:#2B2330;" d="M289.882,301.11c-0.936,0-1.82-0.192-2.558-0.683c-0.537-0.356-0.683-1.083-0.324-1.622     c0.356-0.539,1.083-0.681,1.622-0.324c1.562,1.037,5.701-0.811,7.46-1.875c0.55-0.329,1.272-0.158,1.606,0.395     c0.333,0.553,0.158,1.272-0.395,1.606C296.766,298.924,293.038,301.11,289.882,301.11z"/>
			<path style="fill:#2B2330;" d="M281.858,311.76c-0.936,0-1.82-0.192-2.556-0.683c-0.539-0.356-0.685-1.083-0.327-1.619     c0.356-0.544,1.085-0.683,1.619-0.327c1.578,1.039,5.706-0.813,7.464-1.878c0.553-0.329,1.272-0.158,1.606,0.395     c0.333,0.553,0.158,1.272-0.395,1.606C288.744,309.572,285.014,311.76,281.858,311.76z"/>
			<path style="fill:#2B2330;" d="M306.583,296.953c-0.936,0-1.823-0.192-2.558-0.683c-0.539-0.356-0.685-1.083-0.327-1.619     c0.359-0.541,1.087-0.681,1.619-0.327c1.576,1.035,5.708-0.813,7.464-1.875c0.553-0.331,1.272-0.158,1.606,0.395     c0.333,0.553,0.158,1.272-0.395,1.606C313.467,294.767,309.739,296.953,306.583,296.953z"/>
			<path style="fill:#2B2330;" d="M325.289,296.665c-0.936,0-1.82-0.192-2.556-0.683c-0.539-0.356-0.685-1.083-0.327-1.619     c0.356-0.541,1.085-0.681,1.619-0.327c1.578,1.035,5.706-0.813,7.464-1.878c0.553-0.329,1.272-0.158,1.606,0.395     c0.333,0.553,0.158,1.272-0.395,1.606C332.176,294.477,328.446,296.665,325.289,296.665z"/>
		</g>
		<path style="fill:#2B2330;" d="M191.989,460.6c-0.372,0-0.738-0.178-0.966-0.509c-9.029-13.197-2.823-20.363-2.556-20.659    c0.432-0.482,1.179-0.518,1.651-0.089c0.48,0.432,0.521,1.167,0.094,1.647c-0.238,0.274-5.169,6.22,2.743,17.781    c0.363,0.532,0.228,1.261-0.306,1.626C192.448,460.533,192.217,460.6,191.989,460.6z"/>
		<path style="fill:#2B2330;" d="M211.207,460.6c-0.372,0-0.738-0.178-0.966-0.509c-9.029-13.197-2.823-20.363-2.556-20.659    c0.432-0.482,1.179-0.518,1.651-0.089c0.48,0.432,0.521,1.167,0.094,1.647c-0.238,0.274-5.169,6.22,2.743,17.781    c0.363,0.532,0.228,1.261-0.306,1.626C211.666,460.533,211.435,460.6,211.207,460.6z"/>
		<path style="fill:#2B2330;" d="M352.365,451.641c-0.053,0-0.107-0.002-0.16-0.011c-0.64-0.087-1.087-0.676-1-1.316    c1.891-13.915-5.219-17-5.523-17.126c-0.596-0.242-0.886-0.923-0.646-1.519c0.238-0.598,0.911-0.891,1.507-0.656    c0.372,0.146,9.134,3.769,6.978,19.616C353.441,451.217,352.94,451.641,352.365,451.641z"/>
		<path style="fill:#2B2330;" d="M335.186,457.916c-0.053,0-0.107-0.002-0.16-0.011c-0.64-0.087-1.087-0.676-1-1.316    c1.891-13.912-5.219-16.998-5.523-17.124c-0.596-0.242-0.886-0.923-0.646-1.519c0.238-0.596,0.909-0.891,1.508-0.656    c0.372,0.146,9.134,3.769,6.978,19.613C336.262,457.491,335.762,457.916,335.186,457.916z"/>
		<g>
			<path style="fill:#2B2330;" d="M216.816,371.831c-0.349,0-0.697-0.158-0.927-0.457c-0.484-0.63-4.687-6.265-2.912-9.705     c0.297-0.573,1.005-0.802,1.576-0.503c0.573,0.297,0.799,1,0.502,1.576c-0.863,1.674,1.439,5.578,2.688,7.206     c0.393,0.512,0.297,1.247-0.215,1.64C217.317,371.751,217.065,371.831,216.816,371.831z"/>
			<path style="fill:#2B2330;" d="M215.631,384.163c-0.349,0-0.697-0.158-0.927-0.457c-0.484-0.63-4.687-6.265-2.912-9.705     c0.297-0.573,1.003-0.799,1.576-0.502c0.573,0.297,0.799,1,0.503,1.576c-0.863,1.674,1.439,5.578,2.688,7.206     c0.393,0.512,0.297,1.247-0.215,1.64C216.131,384.083,215.88,384.163,215.631,384.163z"/>
			<path style="fill:#2B2330;" d="M207.267,358.506c-0.349,0-0.697-0.158-0.927-0.457c-0.484-0.633-4.689-6.267-2.914-9.707     c0.297-0.573,1.005-0.802,1.576-0.503c0.573,0.297,0.799,1,0.502,1.576c-0.861,1.67,1.441,5.578,2.691,7.209     c0.393,0.514,0.297,1.247-0.215,1.64C207.767,358.426,207.516,358.506,207.267,358.506z"/>
			<path style="fill:#2B2330;" d="M217.161,349.783c-0.349,0-0.697-0.158-0.927-0.457c-0.484-0.63-4.689-6.265-2.914-9.705     c0.295-0.573,1.003-0.802,1.576-0.503c0.573,0.297,0.799,1,0.503,1.576c-0.861,1.67,1.441,5.575,2.691,7.206     c0.393,0.514,0.297,1.247-0.215,1.64C217.662,349.703,217.41,349.783,217.161,349.783z"/>
			<path style="fill:#2B2330;" d="M205.688,342.988c-0.349,0-0.697-0.158-0.927-0.457c-0.484-0.63-4.687-6.265-2.914-9.703     c0.297-0.578,1.003-0.802,1.574-0.505c0.576,0.295,0.802,1,0.505,1.574c-0.861,1.672,1.441,5.578,2.691,7.209     c0.393,0.514,0.297,1.247-0.215,1.64C206.189,342.908,205.937,342.988,205.688,342.988z"/>
			<path style="fill:#2B2330;" d="M223.139,365.92c-0.349,0-0.697-0.158-0.927-0.457c-0.484-0.63-4.687-6.265-2.912-9.705     c0.297-0.573,1.003-0.799,1.576-0.503s0.799,1,0.503,1.576c-0.863,1.674,1.439,5.578,2.688,7.206     c0.393,0.512,0.297,1.247-0.215,1.64C223.639,365.84,223.388,365.92,223.139,365.92z"/>
			<path style="fill:#2B2330;" d="M225.496,384.483c-0.349,0-0.697-0.158-0.927-0.457c-0.484-0.63-4.687-6.265-2.914-9.703     c0.295-0.576,1.003-0.804,1.574-0.505c0.576,0.295,0.802,1,0.505,1.574c-0.861,1.672,1.441,5.578,2.691,7.209     c0.393,0.514,0.297,1.247-0.215,1.64C225.996,384.403,225.745,384.483,225.496,384.483z"/>
		</g>
	</g>
	<g>
		<path style="fill:#86B98A;" d="M469.334,470.74c0,0-103.741,2.827-107.667-2.729c-3.927-5.556,6.466-39.816,14.165-34.363    c7.699,5.453,11.882,20.44,11.882,20.44s16.205-28.755,20.131-23.2s13.717,18.502,13.717,18.502s3.156-22.737,10.906-15.398    c7.75,7.339,13.615,14.73,13.615,14.73s8.814-22.891,12.792-15.449C462.853,440.715,469.334,470.74,469.334,470.74z"/>
		<path style="fill:#2B2330;" d="M376.64,468.518c-0.347,0-0.694-0.155-0.923-0.452c-3.161-4.07-2.887-17.537-2.846-19.058    c0.018-0.644,0.468-1.108,1.201-1.137c0.646,0.018,1.153,0.555,1.137,1.201c-0.107,3.904,0.11,14.668,2.353,17.56    c0.397,0.509,0.304,1.245-0.206,1.64C377.145,468.439,376.891,468.518,376.64,468.518z"/>
		<path style="fill:#2B2330;" d="M404.99,468.272c-0.224,0-0.45-0.064-0.649-0.196c-4.865-3.243-3.798-21.507-3.536-25.134    c0.048-0.644,0.624-1.147,1.252-1.083c0.644,0.048,1.128,0.608,1.083,1.252c-0.614,8.458-0.244,21.192,2.499,23.019    c0.537,0.359,0.683,1.085,0.324,1.622C405.737,468.089,405.367,468.272,404.99,468.272z"/>
		<path style="fill:#2B2330;" d="M434.368,467.207c-0.553,0-1.046-0.395-1.149-0.959c-0.101-0.562-2.492-13.794-2.12-19.657    c0.041-0.644,0.562-1.156,1.24-1.094c0.646,0.041,1.135,0.596,1.094,1.24c-0.354,5.582,2.063,18.958,2.088,19.09    c0.114,0.637-0.306,1.245-0.941,1.361C434.509,467.201,434.439,467.207,434.368,467.207z"/>
		<path style="fill:#2B2330;" d="M455.091,466.381c-0.148,0-0.302-0.027-0.448-0.089c-0.596-0.247-0.879-0.932-0.633-1.528    c0.05-0.121,5-12.222,3.063-19.83c-0.16-0.626,0.219-1.261,0.845-1.421c0.63-0.164,1.261,0.219,1.421,0.845    c2.129,8.364-2.951,20.776-3.168,21.301C455.984,466.109,455.55,466.381,455.091,466.381z"/>
	</g>
	<g>
		<path style="fill:#86B98A;" d="M320.425,511.281c0,0-103.741,2.827-107.667-2.729c-3.927-5.556,6.466-39.816,14.165-34.363    c7.699,5.453,11.882,20.44,11.882,20.44s16.205-28.755,20.131-23.2c3.927,5.556,13.717,18.502,13.717,18.502    s3.156-22.737,10.906-15.398c7.75,7.339,13.615,14.73,13.615,14.73s8.814-22.891,12.792-15.449S320.425,511.281,320.425,511.281z"/>
		<path style="fill:#2B2330;" d="M227.73,509.059c-0.347,0-0.694-0.155-0.923-0.452c-3.159-4.068-2.887-17.535-2.846-19.058    c0.018-0.635,0.537-1.137,1.169-1.137c0.009,0,0.021,0,0.032,0c0.646,0.018,1.153,0.555,1.137,1.201    c-0.105,3.904,0.112,14.671,2.353,17.56c0.397,0.509,0.304,1.245-0.206,1.64C228.235,508.979,227.981,509.059,227.73,509.059z"/>
		<path style="fill:#2B2330;" d="M256.082,508.812c-0.224,0-0.448-0.064-0.649-0.196c-4.867-3.239-3.801-21.505-3.538-25.132    c0.048-0.644,0.608-1.124,1.252-1.083c0.644,0.048,1.128,0.608,1.083,1.252c-0.614,8.458-0.242,21.189,2.501,23.017    c0.537,0.356,0.683,1.083,0.324,1.622C256.831,508.629,256.459,508.812,256.082,508.812z"/>
		<path style="fill:#2B2330;" d="M285.457,507.747c-0.553,0-1.046-0.395-1.149-0.959c-0.1-0.562-2.49-13.796-2.117-19.654    c0.041-0.646,0.603-1.151,1.24-1.094c0.646,0.041,1.135,0.596,1.094,1.24c-0.354,5.578,2.06,18.956,2.085,19.088    c0.114,0.637-0.306,1.245-0.941,1.361C285.599,507.741,285.528,507.747,285.457,507.747z"/>
		<path style="fill:#2B2330;" d="M306.181,506.921c-0.148,0-0.301-0.027-0.448-0.089c-0.596-0.247-0.879-0.932-0.633-1.528    c0.05-0.121,5-12.22,3.063-19.83c-0.16-0.626,0.219-1.261,0.845-1.421c0.63-0.167,1.261,0.219,1.421,0.845    c2.129,8.367-2.951,20.778-3.168,21.301C307.074,506.649,306.64,506.921,306.181,506.921z"/>
	</g>
	<g>
		<path style="fill:#B4D5C9;" d="M69.428,426.221c0,0-21.684-24.84-46.152-7.193C23.276,419.027,39.501,446.805,69.428,426.221z"/>
		<path style="fill:#2B2330;" d="M69.427,427.389c-0.185,0-0.37-0.043-0.546-0.135c-10.39-5.475-29.14-2.741-29.328-2.716    c-0.624,0.105-1.233-0.34-1.329-0.982c-0.096-0.64,0.343-1.233,0.982-1.329c0.799-0.121,19.7-2.871,30.766,2.958    c0.571,0.302,0.79,1.007,0.489,1.581C70.252,427.163,69.848,427.389,69.427,427.389z"/>
		<path style="fill:#2B2330;" d="M74.66,458.158c-0.626,0-1.144-0.493-1.169-1.124c-2.289-57.216-34.017-79.134-34.336-79.349    c-0.537-0.359-0.681-1.085-0.32-1.622c0.363-0.537,1.094-0.676,1.622-0.32c0.331,0.222,33.037,22.806,35.373,81.199    c0.025,0.644-0.477,1.188-1.124,1.215C74.692,458.158,74.676,458.158,74.66,458.158z"/>
		<g>
			<path style="fill:#ECD673;" d="M72.352,354.389c0,0,9.018,20.032-17.837,33.823c-27.155,13.945-49.201-30.31-46.719-34.443     s14.969,4.401,14.969,4.401s-5.06-20.982,2.677-16.449s12.123,8.983,12.123,8.983s-1.68-16.304,3.842-14.45     c5.522,1.854,11.108,9.032,11.108,9.032s-0.39-17.891,5.858-13.689C64.621,335.801,72.352,354.389,72.352,354.389z"/>
			<path style="fill:#2B2330;" d="M28.999,383.158c-5.228,0-9.12-6.311-9.314-6.633c-0.333-0.553-0.158-1.27,0.393-1.603     c0.557-0.34,1.272-0.158,1.608,0.391c0.046,0.075,4.628,7.48,9.465,4.94c1.887-0.994,3.143-2.686,3.524-4.678     c-2.672-2.005-4.461-4.751-4.849-6.347c-0.315-1.302,0.21-1.955,0.55-2.227c0.651-0.523,1.56-0.503,2.7,0.062     c2.426,1.192,4.02,3.97,4.061,7.076c0,0.091,0,0.185,0,0.276c0.886,0.528,1.862,0.943,2.901,1.153     c1.22,0.251,1.9-0.169,2.286-1.386c0.368-1.165,0.336-2.784,0.032-4.449c-3.262-2.346-5.42-5.379-5.824-7.049     c-0.295-1.217,0.199-1.85,0.521-2.12c0.612-0.514,1.476-0.534,2.56-0.057c2.295,1.005,4.079,4.395,4.87,7.869     c1.364,0.868,2.937,1.594,4.682,1.992c2.165,0.484,3.46-0.126,4.063-1.951c0.658-2.001,0.256-4.735-0.608-6.841     c-2.414-1.176-4.07-2.661-4.445-3.652c-0.224-0.592-0.107-1.185,0.311-1.583c0.731-0.697,1.804-0.363,2.759,0.055     c1.229,0.537,2.314,1.802,3.125,3.403c1.544,0.665,3.456,1.204,5.603,1.281c1.578,0.08,2.604-0.338,3.093-1.176     c0.098-0.167,0.174-0.349,0.231-0.544c-1.423-0.662-2.702-1.677-3.645-2.773c-1.345-1.56-1.855-3.081-1.396-4.173     c0.187-0.445,0.697-1.204,2.017-1.288c1.466-0.105,2.985,0.905,4.127,2.748c0.674,1.09,1.188,2.467,1.32,3.844     c0.612,0.11,1.188,0.1,1.72-0.034c0.649-0.167,1.06-0.487,1.297-1.01c0.886-1.957-0.751-6.005-1.393-7.27     c-0.295-0.576-0.064-1.279,0.512-1.571c0.569-0.29,1.279-0.066,1.571,0.512c0.306,0.601,2.946,5.968,1.441,9.294     c-0.53,1.172-1.514,1.971-2.848,2.311c-0.822,0.208-1.663,0.235-2.492,0.103c-0.105,0.356-0.251,0.701-0.439,1.028     c-0.656,1.131-2.06,2.455-5.203,2.339c-1.576-0.059-3.079-0.336-4.449-0.747c0.56,2.202,0.637,4.58,0.011,6.475     c-0.98,2.983-3.454,4.258-6.802,3.499c-1.325-0.302-2.579-0.774-3.744-1.364c0.078,1.343-0.03,2.592-0.349,3.604     c-0.751,2.378-2.567,3.465-4.982,2.974c-0.989-0.201-1.928-0.544-2.805-0.982c-0.678,2.311-2.266,4.253-4.529,5.443     C31.119,382.911,30.034,383.158,28.999,383.158z M32.309,369.303c0.37,0.795,1.14,1.932,2.216,3.031     C34.134,371.011,33.348,369.917,32.309,369.303z M39.095,362.891c0.352,0.676,0.996,1.592,1.891,2.558     C40.431,364.308,39.778,363.38,39.095,362.891z M60.451,353.458c0.116,0.445,0.646,1.428,1.825,2.46     c0.267,0.233,0.539,0.448,0.813,0.64c-0.174-0.518-0.409-1.016-0.678-1.453c-0.706-1.14-1.494-1.647-1.951-1.647     C60.458,353.458,60.456,353.458,60.451,353.458z"/>
		</g>
	</g>
	<g>
		<path style="fill:#B4D5C9;" d="M101.087,403.117c0,0-5.341-32.538-35.435-30.433C65.653,372.684,64.805,404.842,101.087,403.117z"/>
		<path style="fill:#2B2330;" d="M101.087,404.286c-0.4,0-0.79-0.206-1.01-0.578c-5.941-10.118-23.32-17.688-23.494-17.763    c-0.594-0.254-0.868-0.943-0.612-1.535c0.254-0.596,0.946-0.873,1.535-0.612c0.742,0.317,18.257,7.942,24.59,18.727    c0.327,0.557,0.139,1.272-0.418,1.601C101.494,404.233,101.29,404.286,101.087,404.286z"/>
		<path style="fill:#B4D5C9;" d="M99.504,363.926c0,0,14.947-29.391,42.989-18.267C142.494,345.659,133.558,376.562,99.504,363.926z    "/>
		<path style="fill:#2B2330;" d="M99.504,365.096c-0.32,0-0.64-0.13-0.87-0.388c-0.432-0.48-0.393-1.22,0.089-1.651    c9.303-8.36,28.304-10.319,29.108-10.399c0.642-0.034,1.215,0.407,1.277,1.051c0.064,0.642-0.404,1.215-1.048,1.279    c-0.19,0.018-19.045,1.964-27.774,9.81C100.061,364.997,99.783,365.096,99.504,365.096z"/>
		<path style="fill:#2B2330;" d="M101.948,452.701c-0.016,0-0.034,0-0.05,0c-0.646-0.03-1.147-0.576-1.119-1.22    c0.046-1.055,4.369-105.935-12.834-150.594c-0.231-0.603,0.069-1.279,0.672-1.512c0.601-0.228,1.277,0.071,1.512,0.672    c17.377,45.11,13.035,150.477,12.99,151.535C103.09,452.21,102.572,452.701,101.948,452.701z"/>
		<g>
			<path style="fill:#D17D92;" d="M116.908,292.352c0,0,1.661,21.906-28.285,25.732c-30.28,3.869-35.945-45.248-32.205-48.289     c3.74-3.041,12.577,9.234,12.577,9.234s2.385-21.452,8.116-14.555c5.731,6.896,8.341,12.573,8.341,12.573     s3.97-15.902,8.531-12.279c4.561,3.623,7.37,12.274,7.37,12.274s5.723-16.955,10.168-10.877     C115.966,272.242,116.908,292.352,116.908,292.352z"/>
			<path style="fill:#2B2330;" d="M68.623,305.038c-6.736,0-8.689-9.381-8.773-9.801c-0.126-0.633,0.283-1.247,0.916-1.375     c0.637-0.132,1.249,0.285,1.377,0.916c0.016,0.087,1.852,8.595,7.218,7.869c2.115-0.292,3.872-1.455,4.908-3.2     c-1.83-2.796-2.579-5.984-2.398-7.617c0.146-1.332,0.861-1.768,1.275-1.907c0.783-0.272,1.635,0.055,2.519,0.975     c1.873,1.948,2.426,5.103,1.409,8.038c-0.032,0.087-0.062,0.174-0.096,0.258c0.653,0.799,1.43,1.521,2.337,2.074     c1.058,0.644,1.841,0.493,2.622-0.528c0.742-0.968,1.263-2.503,1.544-4.168c-2.268-3.319-3.266-6.905-3.077-8.611     c0.137-1.245,0.818-1.672,1.211-1.816c0.747-0.274,1.569,0,2.428,0.818c1.816,1.724,2.339,5.518,1.9,9.056     c0.987,1.279,2.218,2.499,3.725,3.465c1.873,1.199,3.298,1.058,4.484-0.452c1.3-1.656,1.852-4.365,1.756-6.638     c-1.871-1.93-2.921-3.89-2.937-4.947c-0.009-0.633,0.304-1.151,0.834-1.382c0.916-0.409,1.818,0.274,2.574,0.991     c0.971,0.923,1.56,2.48,1.779,4.262c1.224,1.151,2.839,2.307,4.833,3.113c1.448,0.587,2.565,0.569,3.31-0.053     c0.148-0.126,0.283-0.272,0.4-0.436c-1.11-1.103-1.967-2.492-2.483-3.842c-0.735-1.925-0.694-3.531,0.11-4.404     c0.329-0.354,1.071-0.891,2.334-0.525c1.428,0.416,2.499,1.871,2.944,3.99c0.263,1.254,0.279,2.723-0.064,4.063     c0.53,0.308,1.08,0.498,1.629,0.55c0.649,0.062,1.158-0.094,1.562-0.507c1.496-1.537,1.334-5.9,1.16-7.307     c-0.08-0.64,0.375-1.224,1.016-1.304c0.626-0.087,1.224,0.375,1.304,1.016c0.085,0.669,0.74,6.612-1.807,9.228     c-0.9,0.92-2.085,1.334-3.465,1.204c-0.845-0.082-1.642-0.352-2.375-0.751c-0.222,0.302-0.475,0.576-0.765,0.818     c-1,0.838-2.798,1.597-5.687,0.429c-1.462-0.592-2.782-1.364-3.931-2.218c-0.222,2.261-0.959,4.52-2.19,6.092     c-1.941,2.471-4.705,2.828-7.59,0.978c-1.144-0.735-2.161-1.608-3.056-2.558c-0.384,1.288-0.909,2.428-1.553,3.269     c-1.519,1.978-3.595,2.382-5.696,1.101c-0.863-0.525-1.629-1.167-2.305-1.88c-1.425,1.944-3.579,3.23-6.112,3.579     C69.316,305.013,68.964,305.038,68.623,305.038z M74.181,292.743c0.075,0.872,0.413,2.206,1.051,3.604     C75.313,294.972,74.948,293.675,74.181,292.743z M82.744,289.027c0.1,0.756,0.395,1.836,0.907,3.049     C83.518,290.813,83.219,289.719,82.744,289.027z M106.037,287.426c-0.043,0.459,0.121,1.562,0.877,2.933     c0.171,0.311,0.354,0.605,0.548,0.879c0.011-0.546-0.039-1.094-0.144-1.594C107.042,288.321,106.466,287.574,106.037,287.426z"/>
		</g>
	</g>
	<g>
		<path style="fill:#86B98A;" d="M151.31,472.105c0,0-103.502,7.588-107.679,2.218c-4.178-5.37,4.63-40.071,12.571-34.977    c7.941,5.094,12.809,19.873,12.809,19.873s14.867-29.469,19.045-24.1c4.178,5.37,14.553,17.853,14.553,17.853    s2.108-22.858,10.187-15.883c8.079,6.976,14.277,14.089,14.277,14.089s7.754-23.272,12.069-16.021    C143.457,442.41,151.31,472.105,151.31,472.105z"/>
		<path style="fill:#2B2330;" d="M58.558,474.144c-0.331,0-0.658-0.139-0.891-0.411c-3.342-3.922-3.686-17.386-3.716-18.908    c-0.011-0.646,0.502-1.181,1.147-1.192c0.009,0,0.016,0,0.023,0c0.635,0,1.158,0.509,1.169,1.147    c0.073,3.906,0.783,14.65,3.159,17.437c0.418,0.491,0.359,1.229-0.132,1.649C59.097,474.053,58.827,474.144,58.558,474.144z"/>
		<path style="fill:#2B2330;" d="M86.866,472.596c-0.206,0-0.413-0.055-0.603-0.167c-5.011-3.015-4.783-21.308-4.687-24.947    c0.018-0.644,0.455-1.185,1.201-1.137c0.644,0.018,1.153,0.555,1.137,1.201c-0.224,8.476,0.731,21.178,3.554,22.877    c0.553,0.333,0.731,1.053,0.4,1.606C87.65,472.395,87.261,472.596,86.866,472.596z"/>
		<path style="fill:#2B2330;" d="M116.166,470.184c-0.534,0-1.016-0.365-1.14-0.907c-0.128-0.555-3.125-13.666-3.02-19.54    c0.011-0.646,0.564-1.115,1.19-1.149c0.646,0.011,1.16,0.544,1.149,1.19c-0.098,5.589,2.93,18.841,2.96,18.974    c0.144,0.63-0.249,1.259-0.877,1.402C116.34,470.174,116.253,470.184,116.166,470.184z"/>
		<path style="fill:#2B2330;" d="M136.828,468.407c-0.132,0-0.267-0.023-0.397-0.071c-0.608-0.219-0.923-0.888-0.703-1.496    c0.046-0.123,4.436-12.439,2.149-19.949c-0.187-0.619,0.16-1.272,0.779-1.46c0.63-0.187,1.272,0.162,1.46,0.779    c2.512,8.257-1.994,20.89-2.188,21.425C137.756,468.112,137.308,468.407,136.828,468.407z"/>
	</g>
	<path style="fill:#2B2330;" d="M441.946,243.233c-0.363,0-0.719-0.167-0.948-0.482c-0.379-0.523-0.263-1.254,0.258-1.633   c0.016-0.011,1.492-1.092,3.364-2.985c0.452-0.459,1.192-0.464,1.654-0.009c0.459,0.455,0.464,1.195,0.009,1.654   c-2.017,2.042-3.588,3.186-3.655,3.234C442.424,243.16,442.184,243.233,441.946,243.233z M448.529,236.596   c-0.247,0-0.496-0.078-0.708-0.24c-0.514-0.391-0.614-1.124-0.222-1.638c0.941-1.238,1.768-2.506,2.46-3.769   c0.308-0.571,1.026-0.779,1.585-0.466c0.569,0.308,0.777,1.019,0.466,1.585c-0.745,1.368-1.638,2.734-2.652,4.066   C449.23,236.436,448.881,236.596,448.529,236.596z M452.944,228.394c-0.119,0-0.24-0.018-0.361-0.057   c-0.614-0.199-0.95-0.859-0.751-1.473c0.461-1.428,0.761-2.878,0.888-4.312c0.057-0.649,0.656-1.103,1.268-1.062   c0.644,0.057,1.119,0.626,1.062,1.268c-0.142,1.608-0.477,3.234-0.994,4.829C453.897,228.079,453.437,228.394,452.944,228.394z    M453.73,219.162c-0.566,0-1.064-0.413-1.153-0.991c-0.219-1.416-0.614-2.846-1.172-4.246c-0.238-0.598,0.055-1.279,0.656-1.519   c0.596-0.235,1.279,0.053,1.519,0.656c0.621,1.562,1.062,3.161,1.309,4.753c0.098,0.637-0.338,1.236-0.978,1.334   C453.851,219.157,453.789,219.162,453.73,219.162z M441.949,214.166c-1.032,0-1.98-0.171-2.814-0.507   c-0.416-0.169-0.811-0.356-1.195-0.566c-0.566-0.308-0.774-1.019-0.464-1.587c0.308-0.564,1.019-0.777,1.587-0.464   c0.304,0.164,0.619,0.315,0.948,0.448c0.777,0.313,1.763,0.407,2.857,0.283c0.633-0.094,1.224,0.379,1.3,1.021   c0.078,0.642-0.379,1.224-1.021,1.3C442.737,214.143,442.337,214.166,441.949,214.166z M447.487,212.812   c-0.452,0-0.884-0.265-1.074-0.706c-0.256-0.594,0.018-1.281,0.61-1.537c0.672-0.29,1.366-0.626,2.076-1.01   c-0.674-1.021-1.45-2.051-2.311-3.063c-0.418-0.493-0.42-1.302,0.071-1.72c0.489-0.416,1.165-0.436,1.585,0.057   c1.069,1.259,1.939,2.414,2.682,3.554c0.525-0.251,1.169-0.069,1.485,0.441c0.343,0.548,0.176,1.27-0.372,1.61   c-1.48,0.923-2.924,1.69-4.287,2.277C447.8,212.782,447.643,212.812,447.487,212.812z M435.016,210.176   c-0.356,0-0.708-0.162-0.939-0.471c-1.016-1.366-1.775-2.96-2.193-4.609c-0.16-0.626,0.219-1.263,0.845-1.421   c0.633-0.171,1.263,0.219,1.421,0.845c0.345,1.354,0.966,2.666,1.804,3.787c0.386,0.518,0.279,1.252-0.24,1.638   C435.505,210.101,435.261,210.176,435.016,210.176z M455.461,207.942c-0.349,0-0.697-0.158-0.927-0.457   c-0.393-0.512-0.297-1.245,0.215-1.64c1.172-0.902,2.353-1.893,3.508-2.949c0.477-0.436,1.217-0.402,1.651,0.075   c0.436,0.477,0.402,1.217-0.075,1.651c-1.204,1.099-2.435,2.133-3.659,3.077C455.961,207.862,455.71,207.942,455.461,207.942z    M444.363,203.349c-0.292,0-0.585-0.107-0.811-0.327c-1.211-1.165-2.371-2.115-3.447-2.821c-0.539-0.354-0.69-1.08-0.336-1.619   c0.354-0.546,1.078-0.692,1.619-0.336c1.197,0.786,2.469,1.825,3.785,3.09c0.466,0.448,0.48,1.188,0.032,1.654   C444.975,203.228,444.669,203.349,444.363,203.349z M462.38,201.643c-0.288,0-0.576-0.105-0.799-0.317   c-0.473-0.441-0.496-1.181-0.053-1.651c1.069-1.14,2.076-2.307,2.994-3.469c0.402-0.505,1.14-0.589,1.645-0.192   c0.505,0.402,0.592,1.137,0.192,1.645c-0.962,1.213-2.012,2.43-3.127,3.616C463.003,201.519,462.69,201.643,462.38,201.643z    M432.99,201.357c-0.116,0-0.235-0.018-0.354-0.055c-0.617-0.196-0.957-0.854-0.761-1.469c0.692-2.177,2.314-3.426,4.449-3.426   c0.646,0,1.222,0.525,1.222,1.172c0,0.644-0.471,1.169-1.117,1.169c-0.027,0-0.16-0.002-0.187-0.005   c-1.012,0.002-1.759,0.605-2.138,1.798C433.947,201.04,433.486,201.357,432.99,201.357z M468.163,194.29   c-0.215,0-0.432-0.059-0.628-0.183c-0.544-0.347-0.706-1.069-0.359-1.615c0.868-1.366,1.587-2.695,2.138-3.956   c0.087-0.196,0.219-0.359,0.381-0.477c-1.606-0.37-3.138-0.975-4.557-1.795c-0.56-0.322-0.751-1.037-0.427-1.597   s1.048-0.749,1.597-0.427c1.247,0.719,2.597,1.247,4.013,1.562c0.63,0.142,1.026,0.767,0.886,1.398   c-0.066,0.29-0.235,0.532-0.459,0.692c0.037,0.011,0.071,0.025,0.105,0.041c0.592,0.258,0.861,0.948,0.603,1.539   c-0.598,1.37-1.375,2.807-2.307,4.276C468.928,194.098,468.549,194.29,468.163,194.29z M474.709,188.441   c-0.605,0-1.119-0.468-1.165-1.083c-0.046-0.644,0.436-1.206,1.08-1.254c1.402-0.103,2.841-0.404,4.278-0.895   c0.596-0.203,1.275,0.119,1.485,0.731c0.208,0.61-0.119,1.275-0.731,1.485c-1.624,0.553-3.257,0.895-4.858,1.014   C474.768,188.441,474.739,188.441,474.709,188.441z M471.717,185.704c-0.053,0-0.105-0.002-0.158-0.011   c-0.64-0.085-1.09-0.674-1.003-1.313c0.053-0.404,0.082-0.797,0.08-1.176c0-1.028-0.199-1.93-0.594-2.691   c-0.297-0.573-0.073-1.279,0.503-1.576c0.566-0.295,1.279-0.073,1.576,0.503c0.566,1.094,0.854,2.359,0.854,3.757   c0.002,0.477-0.032,0.98-0.103,1.494C472.795,185.277,472.292,185.704,471.717,185.704z M483.434,185.387   c-0.361,0-0.717-0.167-0.946-0.482c-0.379-0.523-0.265-1.254,0.258-1.633c1.124-0.818,2.165-1.839,3.09-3.036   c0.397-0.509,1.131-0.598,1.642-0.208c0.509,0.395,0.603,1.131,0.208,1.642c-1.062,1.37-2.261,2.547-3.565,3.492   C483.914,185.314,483.674,185.387,483.434,185.387z M462.117,183.471c-0.327,0-0.653-0.137-0.884-0.404   c-1.389-1.601-2.213-3.31-2.321-4.81c-0.046-0.644,0.439-1.204,1.083-1.252c0.637-0.048,1.204,0.439,1.252,1.083   c0.069,0.973,0.724,2.261,1.754,3.449c0.423,0.487,0.37,1.227-0.119,1.649C462.663,183.377,462.389,183.471,462.117,183.471z    M489.19,178.137c-0.169,0-0.34-0.037-0.503-0.114c-0.582-0.276-0.831-0.975-0.553-1.558c0.619-1.302,1.144-2.713,1.558-4.191   c0.174-0.619,0.818-0.982,1.441-0.811c0.621,0.174,0.984,0.82,0.811,1.441c-0.45,1.606-1.021,3.143-1.699,4.566   C490.047,177.891,489.626,178.137,489.19,178.137z M467.647,178.105c-0.137,0-0.274-0.025-0.407-0.075   c-0.03-0.009-0.059-0.021-0.089-0.034c-1.592-0.701-2.992-1.11-4.052-1.181c-0.644-0.043-1.133-0.601-1.09-1.245   c0.043-0.644,0.608-1.144,1.245-1.089c1.338,0.089,2.956,0.546,4.808,1.361c0.037,0.014,0.075,0.03,0.11,0.048   c0.578,0.288,0.811,0.991,0.523,1.569C468.49,177.868,468.076,178.105,467.647,178.105z M491.753,169.177   c-0.053,0-0.103-0.002-0.155-0.009c-0.64-0.085-1.089-0.672-1.007-1.313c0.185-1.405,0.279-2.83,0.279-4.239v-0.274   c0-0.646,0.523-1.169,1.169-1.169s1.169,0.523,1.169,1.169v0.274c0,1.51-0.1,3.04-0.297,4.545   C492.833,168.747,492.331,169.177,491.753,169.177z M491.655,159.851c-0.564,0-1.06-0.409-1.153-0.984   c-0.244-1.542-0.61-2.997-1.083-4.324c-0.217-0.608,0.1-1.277,0.708-1.494c0.612-0.21,1.277,0.098,1.494,0.708   c0.523,1.462,0.923,3.058,1.192,4.739c0.1,0.64-0.333,1.238-0.971,1.341C491.778,159.846,491.716,159.851,491.655,159.851z    M488.423,151.155c-0.368,0-0.731-0.174-0.959-0.5c-0.866-1.243-1.871-2.22-2.983-2.905c-0.55-0.338-0.722-1.058-0.384-1.608   c0.34-0.55,1.067-0.722,1.608-0.384c1.389,0.854,2.627,2.051,3.677,3.559c0.37,0.53,0.24,1.259-0.29,1.629   C488.889,151.087,488.656,151.155,488.423,151.155z M471.495,149.342c-0.393,0-0.777-0.199-0.998-0.56   c-0.336-0.55-0.164-1.27,0.388-1.608l0.365-0.217c0.555-0.315,1.272-0.128,1.597,0.436c0.32,0.56,0.126,1.275-0.436,1.597   l-0.306,0.18C471.916,149.287,471.705,149.342,471.495,149.342z M476.075,147.199c-0.496,0-0.955-0.315-1.115-0.813   c-0.196-0.614,0.142-1.272,0.758-1.471c1.756-0.562,3.492-0.799,5.027-0.706c0.646,0.037,1.137,0.589,1.101,1.233   c-0.034,0.644-0.516,1.183-1.233,1.101c-1.279-0.069-2.7,0.126-4.182,0.601C476.312,147.181,476.194,147.199,476.075,147.199z"/>
	<path style="fill:#2B2330;" d="M72.605,212.595c-0.331,0-0.66-0.139-0.891-0.411c-0.411-0.484-0.423-1.272,0.05-1.695   c0.471-0.423,1.131-0.461,1.569,0c0.014,0.016,0.148,0.162,0.162,0.178c0.418,0.493,0.359,1.231-0.132,1.649   C73.141,212.503,72.872,212.595,72.605,212.595z M69.53,208.84c-0.361,0-0.715-0.167-0.943-0.48   c-1.007-1.377-1.873-2.757-2.581-4.104c-0.299-0.573-0.078-1.279,0.493-1.581c0.566-0.292,1.279-0.08,1.581,0.493   c0.651,1.247,1.457,2.528,2.394,3.812c0.381,0.521,0.267,1.254-0.254,1.635C70.012,208.767,69.77,208.84,69.53,208.84z    M65.291,200.555c-0.512,0-0.982-0.338-1.126-0.854c-0.461-1.651-0.697-3.307-0.697-4.92c0-0.646,0.523-1.176,1.169-1.176   c0.646,0,1.169,0.516,1.169,1.163v0.014c0,1.4,0.206,2.844,0.61,4.29c0.174,0.621-0.19,1.268-0.811,1.441   C65.501,200.542,65.394,200.555,65.291,200.555z M65.325,191.341c-0.112,0-0.224-0.016-0.336-0.05   c-0.619-0.185-0.971-0.836-0.783-1.455c0.452-1.512,1.128-3.031,2.005-4.518c0.331-0.555,1.048-0.735,1.603-0.411   c0.555,0.329,0.74,1.046,0.411,1.603c-0.783,1.322-1.382,2.668-1.782,3.997C66.294,191.015,65.828,191.341,65.325,191.341z    M69.946,183.295c-0.267,0-0.537-0.091-0.756-0.279c-0.493-0.418-0.553-1.156-0.135-1.647c0.966-1.142,2.088-2.309,3.33-3.47   c0.475-0.441,1.213-0.411,1.654,0.055c0.441,0.473,0.416,1.213-0.055,1.654c-1.179,1.101-2.236,2.202-3.147,3.273   C70.606,183.155,70.277,183.295,69.946,183.295z M76.739,176.876c-0.345,0-0.685-0.151-0.916-0.443   c-0.402-0.505-0.317-1.24,0.19-1.642c1.208-0.959,2.476-1.905,3.796-2.841c0.525-0.368,1.256-0.251,1.631,0.279   c0.372,0.528,0.249,1.256-0.279,1.631c-1.284,0.909-2.519,1.832-3.696,2.764C77.25,176.794,76.995,176.876,76.739,176.876z    M84.354,171.445c-0.381,0-0.754-0.187-0.978-0.53c-0.354-0.539-0.203-1.265,0.338-1.617c1.295-0.85,2.624-1.69,3.977-2.526   c0.544-0.34,1.268-0.174,1.608,0.379c0.34,0.548,0.171,1.268-0.379,1.608c-1.334,0.827-2.645,1.658-3.926,2.494   C84.797,171.383,84.575,171.445,84.354,171.445z M92.305,166.509c-0.397,0-0.786-0.203-1.005-0.571   c-0.331-0.553-0.148-1.272,0.407-1.603c1.332-0.795,2.679-1.592,4.031-2.387c0.555-0.327,1.272-0.146,1.601,0.413   c0.329,0.557,0.142,1.275-0.413,1.601c-1.348,0.795-2.691,1.587-4.022,2.382C92.716,166.456,92.51,166.509,92.305,166.509z    M100.368,161.749c-0.4,0-0.79-0.206-1.007-0.578c-0.329-0.555-0.142-1.272,0.416-1.599c1.037-0.612,2.076-1.227,3.109-1.843   c0.311-0.183,0.601-0.359,0.886-0.537c0.546-0.336,1.27-0.171,1.61,0.377c0.34,0.548,0.171,1.27-0.377,1.61   c-0.304,0.187-0.612,0.377-0.927,0.562c-1.028,0.614-2.072,1.233-3.118,1.846C100.774,161.696,100.571,161.749,100.368,161.749z    M108.291,156.779c-0.363,0-0.724-0.169-0.952-0.489c-0.375-0.525-0.254-1.256,0.272-1.633c1.316-0.939,2.524-1.884,3.593-2.814   c0.486-0.423,1.224-0.368,1.651,0.116c0.423,0.489,0.37,1.227-0.116,1.651c-1.126,0.975-2.394,1.969-3.766,2.951   C108.764,156.708,108.526,156.779,108.291,156.779z M115.28,150.6c-0.27,0-0.541-0.094-0.761-0.281   c-0.491-0.423-0.548-1.16-0.128-1.649c1.046-1.217,1.88-2.435,2.478-3.618c0.295-0.578,0.991-0.799,1.574-0.514   c0.576,0.292,0.806,0.996,0.514,1.574c-0.685,1.35-1.624,2.723-2.789,4.079C115.936,150.461,115.609,150.6,115.28,150.6z    M119.232,142.298c-0.032,0-0.062,0-0.094-0.005c-0.644-0.048-1.124-0.612-1.074-1.256c0.018-0.233,0.027-0.466,0.027-0.697   c0-0.505-0.046-1.01-0.135-1.512c-0.64,0.11-1.268,0.192-1.884,0.251c-0.589,0.043-1.213-0.411-1.275-1.055   c-0.059-0.642,0.411-1.213,1.055-1.275c0.484-0.046,0.982-0.11,1.487-0.19c-0.005-0.466,0.272-0.909,0.731-1.094   c0.596-0.235,1.272,0.046,1.519,0.635c0.219-0.053,0.441-0.11,0.662-0.169c0.619-0.169,1.265,0.199,1.432,0.825   c0.169,0.624-0.201,1.265-0.825,1.432c-0.203,0.057-0.409,0.11-0.612,0.16c0.121,0.658,0.183,1.325,0.183,1.992   c0,0.29-0.011,0.582-0.037,0.879C120.349,141.832,119.835,142.298,119.232,142.298z M111.301,139.002   c-0.057,0-0.114-0.005-0.171-0.011c-1.754-0.256-3.374-0.761-4.81-1.501c-0.573-0.295-0.799-1-0.502-1.576s1.003-0.799,1.576-0.502   c1.204,0.621,2.574,1.046,4.075,1.263c0.637,0.094,1.08,0.688,0.989,1.327C112.373,138.582,111.872,139.002,111.301,139.002z    M124.962,136.679c-0.443,0-0.868-0.254-1.064-0.683c-0.267-0.589-0.009-1.281,0.578-1.551c1.38-0.628,2.668-1.38,3.826-2.229   c0.516-0.381,1.252-0.272,1.635,0.251c0.381,0.521,0.27,1.254-0.251,1.635c-1.288,0.943-2.713,1.775-4.237,2.471   C125.291,136.645,125.125,136.679,124.962,136.679z M103.264,134.687c-0.349,0-0.694-0.155-0.925-0.455   c-1.199-1.549-1.882-3.316-1.919-4.975c-0.014-0.644,0.498-1.181,1.144-1.195c0.007,0,0.016,0,0.025,0   c0.635,0,1.156,0.507,1.169,1.144c0.025,1.142,0.546,2.453,1.43,3.595c0.395,0.509,0.301,1.245-0.21,1.64   C103.766,134.607,103.515,134.687,103.264,134.687z M116.007,133.797c-0.322,0-0.644-0.132-0.875-0.393   c-0.904-1.021-2.012-2.012-3.294-2.951c-0.521-0.381-0.633-1.112-0.251-1.635c0.381-0.518,1.115-0.63,1.635-0.251   c1.414,1.037,2.645,2.142,3.659,3.285c0.429,0.484,0.384,1.224-0.098,1.651C116.559,133.701,116.283,133.797,116.007,133.797z    M132.418,131.158c-0.27,0-0.541-0.094-0.763-0.283c-0.489-0.42-0.546-1.158-0.123-1.649c0.943-1.099,1.775-2.323,2.467-3.643   c0.299-0.573,1.01-0.788,1.578-0.491c0.571,0.299,0.793,1.005,0.491,1.578c-0.772,1.476-1.704,2.848-2.764,4.082   C133.073,131.021,132.747,131.158,132.418,131.158z M108.56,128.21c-0.185,0-0.372-0.043-0.548-0.137l-0.557-0.288   c-1.236-0.63-2.346-0.902-3.173-0.786c-0.637,0.066-1.231-0.356-1.32-0.996c-0.089-0.637,0.356-1.229,0.994-1.32   c1.268-0.176,2.864,0.151,4.564,1.019l0.589,0.306c0.571,0.301,0.788,1.01,0.484,1.581   C109.383,127.984,108.978,128.21,108.56,128.21z M136.755,122.952c-0.105,0-0.212-0.014-0.32-0.046   c-0.621-0.176-0.982-0.822-0.804-1.444c0.395-1.393,0.667-2.864,0.804-4.376c0.059-0.644,0.685-1.094,1.27-1.06   c0.644,0.059,1.119,0.628,1.06,1.27c-0.151,1.658-0.448,3.275-0.886,4.806C137.733,122.616,137.264,122.952,136.755,122.952z    M137.621,113.688c-0.601,0-1.112-0.461-1.163-1.071c-0.073-0.873-0.187-1.734-0.343-2.57c-0.948,0.224-1.859,0.386-2.727,0.487   c-0.598,0.062-1.222-0.388-1.295-1.03s0.388-1.22,1.03-1.295c0.806-0.091,1.661-0.247,2.554-0.461   c0.064-0.45,0.391-0.838,0.857-0.964c0.471-0.13,0.95,0.055,1.229,0.416c0.532,0,1.012,0.304,1.172,0.822   c0.169,0.544-0.078,1.117-0.56,1.375c0.19,0.984,0.329,1.996,0.413,3.024c0.055,0.644-0.425,1.211-1.067,1.263   C137.687,113.685,137.655,113.688,137.621,113.688z M128.608,110.339c-0.094,0-0.19-0.011-0.286-0.034   c-2.003-0.505-3.561-1.549-4.504-3.022c-0.349-0.544-0.19-1.265,0.354-1.615c0.534-0.349,1.263-0.194,1.615,0.354   c0.617,0.962,1.69,1.658,3.106,2.012c0.626,0.158,1.007,0.795,0.85,1.421C129.608,109.985,129.133,110.339,128.608,110.339z    M142.098,107.69c-0.397,0-0.783-0.203-1.003-0.569c-0.333-0.553-0.153-1.272,0.402-1.603c1.259-0.756,2.371-1.677,3.303-2.741   c0.425-0.489,1.165-0.532,1.649-0.11c0.486,0.425,0.534,1.165,0.11,1.649c-1.092,1.249-2.391,2.327-3.86,3.207   C142.511,107.637,142.303,107.69,142.098,107.69z M135.145,104.727c-0.416,0-0.82-0.224-1.03-0.617   c-0.763-1.418-1.658-2.522-2.59-3.189c-0.525-0.375-0.646-1.105-0.27-1.631c0.375-0.53,1.11-0.646,1.631-0.27   c1.238,0.884,2.343,2.225,3.289,3.983c0.306,0.569,0.091,1.277-0.477,1.583C135.522,104.681,135.332,104.727,135.145,104.727z    M124.382,103.341c-0.144,0-0.288-0.025-0.429-0.082c-0.601-0.235-0.895-0.916-0.658-1.517c0.724-1.841,2.245-3.182,4.173-3.682   c0.635-0.158,1.263,0.215,1.425,0.841c0.162,0.624-0.215,1.263-0.841,1.425c-1.192,0.308-2.136,1.137-2.583,2.275   C125.289,103.06,124.848,103.341,124.382,103.341z M148.173,100.78c-0.16,0-0.322-0.032-0.475-0.101   c-0.592-0.263-0.857-0.955-0.594-1.544c0.564-1.268,0.998-2.682,1.286-4.203c0.121-0.637,0.745-1.048,1.366-0.932   c0.635,0.121,1.053,0.733,0.932,1.366c-0.322,1.702-0.809,3.289-1.446,4.719C149.048,100.522,148.621,100.78,148.173,100.78z    M149.998,91.669c-0.005,0-0.009,0-0.014,0c-0.644-0.007-1.163-0.537-1.156-1.183l0.005-0.61c0-1.249-0.073-2.57-0.217-3.926   c-0.069-0.642,0.397-1.217,1.039-1.286c0.635-0.08,1.217,0.395,1.286,1.039c0.153,1.437,0.231,2.841,0.231,4.173l-0.005,0.637   C151.161,91.153,150.638,91.669,149.998,91.669z M149.041,82.375c-0.541,0-1.026-0.377-1.142-0.93   c-0.55-2.622-1.151-4.363-1.158-4.381c-0.21-0.61,0.112-1.277,0.722-1.489c0.61-0.21,1.275,0.11,1.489,0.722   c0.025,0.075,0.651,1.889,1.236,4.669c0.132,0.63-0.272,1.252-0.904,1.384C149.203,82.368,149.121,82.375,149.041,82.375z"/>
</g>















</svg>
