<?xml version="1.0" encoding="UTF-8"?>
<!-- Generator: Adobe Illustrator 25.2.1, SVG Export Plug-In . SVG Version: 6.00 Build 0)  -->
<svg xmlns="http://www.w3.org/2000/svg" xmlns:xlink="http://www.w3.org/1999/xlink" version="1.1" id="Capa_1" x="0px" y="0px" viewBox="0 0 512 512" style="enable-background:new 0 0 512 512;" xml:space="preserve" width="512" height="512">
<g>
	<path style="fill:#2B2330;" d="M127.566,82.686c-0.962,0-1.873,0-4.453-10.285c-8.732-1.678-9.49-2.693-9.744-3.032   c-0.239-0.319-0.342-0.913-0.234-1.294c0.157-0.554,0.521-1.835,10.482-5.847c3.573-9.32,4.767-9.32,5.563-9.32   c0.404,0,0.965,0.292,1.207,0.616c0.633,0.853,1.212,3.079,2.089,6.645c0.279,1.137,0.616,2.511,0.808,3.099   c0.519,0.232,1.691,0.653,2.663,1.002c5.102,1.828,6.416,2.449,6.652,3.645c0.085,0.441-0.142,1.095-0.476,1.394   c-1.04,0.93-6.009,2.773-8.597,3.695c-4.216,9.592-5.102,9.64-5.884,9.679C127.619,82.686,127.589,82.686,127.566,82.686z    M116.578,68.266c1.728,0.509,4.977,1.249,7.812,1.778c0.491,0.09,0.885,0.461,1.005,0.948c0.723,2.93,1.671,6.268,2.341,8.121   c0.965-1.723,2.461-4.865,3.673-7.64c0.142-0.324,0.411-0.576,0.746-0.693c2.421-0.853,5.159-1.9,6.82-2.633   c-1.177-0.504-2.828-1.095-3.89-1.476c-2.917-1.045-3.466-1.272-3.835-1.768c-0.322-0.431-0.526-1.167-1.254-4.127   c-0.282-1.144-0.718-2.92-1.1-4.209c-0.875,1.646-2.122,4.536-3.089,7.089c-0.127,0.337-0.389,0.601-0.721,0.736   C121.946,65.643,118.383,67.241,116.578,68.266z"/>
	<path style="fill:#2B2330;" d="M114.069,430.636c-0.962,0-1.873,0-4.453-10.285c-8.734-1.681-9.492-2.698-9.747-3.037   c-0.237-0.319-0.339-0.91-0.232-1.292c0.157-0.551,0.519-1.833,10.482-5.847c3.573-9.318,4.767-9.318,5.563-9.318   c0.404,0,0.965,0.292,1.207,0.616c0.633,0.853,1.212,3.079,2.09,6.645c0.279,1.137,0.616,2.511,0.808,3.099   c0.519,0.232,1.691,0.653,2.663,1.002c5.102,1.828,6.416,2.449,6.652,3.645c0.085,0.441-0.142,1.095-0.476,1.394   c-1.04,0.93-6.009,2.773-8.597,3.695c-4.216,9.592-5.102,9.64-5.884,9.68C114.122,430.636,114.092,430.636,114.069,430.636z    M103.083,416.214c1.728,0.509,4.977,1.252,7.809,1.78c0.491,0.092,0.885,0.461,1.005,0.948c0.723,2.93,1.671,6.268,2.341,8.121   c0.965-1.723,2.461-4.865,3.673-7.64c0.142-0.324,0.411-0.576,0.746-0.693c2.421-0.853,5.159-1.9,6.82-2.633   c-1.177-0.504-2.828-1.095-3.89-1.476c-2.917-1.045-3.466-1.272-3.835-1.768c-0.322-0.431-0.526-1.167-1.254-4.127   c-0.282-1.144-0.718-2.92-1.1-4.209c-0.875,1.646-2.122,4.533-3.089,7.086c-0.127,0.337-0.389,0.601-0.721,0.736   C108.452,413.591,104.888,415.189,103.083,416.214z"/>
	<path style="fill:#2B2330;" d="M496.861,119.902c-0.962,0-1.873,0-4.456-10.285c-8.732-1.681-9.49-2.698-9.744-3.037   c-0.237-0.319-0.339-0.91-0.232-1.292c0.157-0.551,0.519-1.833,10.482-5.847c3.573-9.318,4.767-9.318,5.563-9.318   c0.404,0,0.965,0.292,1.207,0.616c0.633,0.85,1.212,3.079,2.09,6.645c0.279,1.137,0.616,2.511,0.808,3.099   c0.519,0.232,1.691,0.653,2.66,1c5.104,1.83,6.418,2.451,6.652,3.65c0.085,0.441-0.142,1.092-0.479,1.394   c-1.035,0.928-6.002,2.77-8.592,3.693c-4.216,9.592-5.102,9.64-5.884,9.679C496.913,119.902,496.883,119.902,496.861,119.902z    M485.875,105.48c1.725,0.511,4.974,1.252,7.807,1.78c0.491,0.092,0.885,0.461,1.005,0.948c0.723,2.93,1.671,6.268,2.344,8.121   c0.965-1.723,2.461-4.865,3.673-7.64c0.142-0.324,0.411-0.576,0.746-0.693c2.421-0.853,5.159-1.9,6.817-2.633   c-1.174-0.504-2.828-1.095-3.887-1.476c-2.917-1.045-3.466-1.272-3.835-1.768c-0.322-0.431-0.526-1.167-1.252-4.124   c-0.282-1.147-0.721-2.922-1.102-4.211c-0.875,1.646-2.122,4.533-3.089,7.086c-0.127,0.337-0.389,0.601-0.721,0.736   C491.243,102.857,487.68,104.456,485.875,105.48z"/>
	<path style="fill:#2B2330;" d="M240.543,433.187c-0.002,0-0.042,0-0.042,0c-2.473-0.01-4.797-0.982-6.54-2.74   c-1.74-1.758-2.693-4.089-2.683-6.563c0.02-5.087,4.174-9.226,9.261-9.226c5.149,0.022,9.288,4.196,9.268,9.303   C249.784,429.048,245.628,433.187,240.543,433.187z M240.571,417.212c-3.715,0-6.725,2.997-6.74,6.682   c-0.007,1.793,0.683,3.481,1.945,4.755c1.262,1.272,2.942,1.977,4.735,1.985l0.032,1.277v-1.277c3.683,0,6.692-2.997,6.71-6.682   C247.268,420.251,244.269,417.229,240.571,417.212z"/>
	<path style="fill:#2B2330;" d="M332.499,56.038c-0.002,0-0.042,0-0.042,0c-2.473-0.01-4.797-0.982-6.54-2.74   s-2.695-4.089-2.685-6.563c0.022-5.087,4.179-9.226,9.266-9.226c5.149,0.022,9.286,4.199,9.263,9.305   C341.739,51.902,337.585,56.038,332.499,56.038z M332.524,40.063c-3.713,0-6.722,2.997-6.74,6.682   c-0.008,1.793,0.683,3.481,1.945,4.755c1.264,1.272,2.945,1.977,4.738,1.985l0.032,1.277v-1.277c3.683,0,6.692-2.997,6.707-6.68   C339.223,43.105,336.224,40.08,332.524,40.063z"/>
	<path style="fill:#2B2330;" d="M497.541,270.593c-0.002,0-0.042,0-0.042,0c-5.107-0.022-9.246-4.196-9.226-9.303   c0.022-5.087,4.179-9.226,9.263-9.226c2.516,0.01,4.84,0.982,6.583,2.74c1.74,1.758,2.693,4.089,2.683,6.563   C506.782,266.454,502.628,270.593,497.541,270.593z M497.569,254.617c-3.715,0-6.725,2.997-6.742,6.682   c-0.015,3.7,2.985,6.722,6.682,6.74l0.032,1.277v-1.277c3.683,0,6.692-2.997,6.707-6.682c0.007-1.793-0.683-3.481-1.945-4.755   C501.042,255.331,499.361,254.625,497.569,254.617z"/>
	<g>
		<path style="fill:#FFFFFF;" d="M18.361,192.36c0,0-3.741-19.648,15.681-14.333s14.251,23.796,6.631,18.009    c-7.62-5.787,4.807-27.604,19.925-19.072c15.118,8.533,12.897,26.896,2.631,28.83s5.05-21.522,18.875-8.369    s-13.172,40.122-25.34,31.471s-3.924-24.209-0.608-15.205c3.316,9.005-3.696,18.423-24.351,19.249s-13.08-31.458-5.338-22.63    s-3.636,19.943-18.815,9.89S7.791,186.691,18.361,192.36z"/>
		<path style="fill:#2B2330;" d="M31.031,234.231c-8.388,0-11.637-5.161-12.889-8.809c-3.586-0.239-7.435-1.666-11.195-4.157    C0.92,217.271-1.374,210.556,0.81,203.3c2.468-8.196,9.974-14.297,16.04-12.866c-0.192-2.798-0.045-7.69,2.743-11.058    c2.94-3.551,7.944-4.456,14.786-2.581c2.705,0.741,5.097,1.768,7.121,3.059c5.161-6.139,12.876-7.862,19.726-4.002    c6.535,3.688,10.712,9.699,11.387,16.277c3.75-0.155,7.204,1.359,10.373,4.371c4.446,4.229,5.436,10.206,2.79,16.826    c-3.945,9.867-14.906,18.524-23.461,18.524c-2.386,0-4.503-0.643-6.291-1.915c-0.96-0.683-1.835-1.431-2.613-2.237    c-4.546,3.887-11.954,6.134-21.556,6.518c-0.277,0.01-0.554,0.015-0.823,0.015H31.031z M20.847,225.37    c1.307,3.157,4.127,6.308,10.183,6.308c0.002,0,0.002,0,0.002,0c0.237,0,0.479-0.005,0.721-0.015    c11.143-0.444,16.993-3.321,20.027-5.932c-3.261-4.643-3.236-9.984-1.733-13.168c0.86-1.82,2.162-2.862,3.576-2.862    c1.105,0,2.651,0.616,3.73,3.551c1.661,4.508,0.875,9.051-2.139,12.639c0.676,0.703,1.444,1.361,2.291,1.965    c1.346,0.957,2.965,1.441,4.81,1.441c7.5,0,17.551-8.064,21.089-16.918c1.578-3.952,2.483-9.592-2.179-14.028    c-2.656-2.526-5.528-3.797-8.528-3.668c-0.244,6.363-3.92,11.365-9.231,12.365c-0.499,0.095-0.948,0.137-1.349,0.137    c-2.037,0-3.381-1.152-3.508-3.002c-0.254-3.68,4.805-10.176,11.472-11.722c-0.569-5.777-4.284-11.096-10.113-14.385    c-5.745-3.241-12.018-1.828-16.402,3.291c4.885,4.112,5.962,9.418,4.782,13.043c-1.252,3.85-5.107,5.181-8.45,2.643    c-4.194-3.187-3.264-9.944,0.082-15.14c-1.78-1.11-3.885-2.002-6.276-2.656c-5.74-1.573-9.876-0.99-12.141,1.738    c-3.256,3.927-1.962,11.053-1.95,11.126c0.092,0.484-0.102,0.975-0.499,1.267c-0.401,0.287-0.928,0.327-1.359,0.095    c-0.89-0.476-1.853-0.718-2.855-0.718c-4.551,0-9.777,5.054-11.647,11.27c-0.885,2.937-2.159,10.29,5.102,15.1    c3.092,2.05,6.214,3.296,9.121,3.658c-0.803-4.7,0.152-10.068,2.446-13.091c1.381-1.818,2.83-2.199,3.8-2.199    c1.314,0,2.558,0.661,3.703,1.965c2.77,3.162,3.548,6.987,2.075,10.236C28.083,222.839,24.847,224.923,20.847,225.37z     M53.624,212.254c-0.244,0-0.78,0.372-1.267,1.399c-1.147,2.431-1.164,6.495,1.229,10.191c2.167-2.82,2.658-6.216,1.374-9.709    C54.451,212.755,53.883,212.254,53.624,212.254z M23.725,210.057c-0.713,0-1.354,0.648-1.765,1.192    c-1.725,2.272-2.813,7.099-1.873,11.619c3.369-0.254,6.004-1.823,7.091-4.219c1.06-2.344,0.451-5.077-1.671-7.495    C25.069,210.653,24.406,210.057,23.725,210.057z M70.118,195.089c-5.184,1.481-9.121,6.595-8.961,8.917    c0.02,0.294,0.042,0.626,0.962,0.626c0.259,0,0.551-0.032,0.875-0.092C66.968,203.791,69.758,200.001,70.118,195.089z     M42.042,183.425c-2.915,4.565-3.236,9.59-0.596,11.594c1.937,1.471,3.743,0.86,4.478-1.396    C46.794,190.948,45.894,186.754,42.042,183.425z"/>
	</g>
	<g>
		<path style="fill:#FFFFFF;" d="M384.085,52.629c0,0-3.741-19.648,15.681-14.333c19.423,5.315,14.251,23.796,6.631,18.009    s4.807-27.604,19.925-19.072s12.897,26.896,2.631,28.83c-10.267,1.933,5.05-21.522,18.875-8.369    c13.825,13.153-13.172,40.122-25.34,31.471s-3.924-24.209-0.608-15.205c3.316,9.005-3.696,18.423-24.351,19.249    c-20.655,0.826-13.08-31.458-5.338-22.63s-3.635,19.943-18.815,9.89C358.198,70.416,373.514,46.96,384.085,52.629z"/>
		<path style="fill:#2B2330;" d="M396.759,94.502c-8.39,0-11.642-5.164-12.891-8.812c-3.586-0.239-7.435-1.666-11.198-4.157    c-6.029-3.994-8.323-10.709-6.136-17.968c2.466-8.191,9.979-14.272,16.04-12.864c-0.194-2.795-0.047-7.687,2.743-11.058    c2.94-3.551,7.944-4.446,14.786-2.581c2.705,0.741,5.097,1.768,7.121,3.059c5.161-6.139,12.879-7.864,19.726-4.002    c6.535,3.688,10.712,9.699,11.387,16.277c3.63-0.152,7.201,1.356,10.37,4.371c4.446,4.229,5.436,10.203,2.793,16.823    c-3.945,9.869-14.906,18.526-23.461,18.529h-0.003c-2.386,0-4.501-0.643-6.288-1.915c-0.96-0.683-1.838-1.434-2.616-2.239    c-4.543,3.887-11.951,6.134-21.551,6.52C397.303,94.497,397.029,94.502,396.759,94.502z M386.574,85.638    c1.354,3.279,4.421,6.575,10.906,6.296c11.141-0.446,16.988-3.321,20.025-5.932c-3.261-4.645-3.236-9.986-1.733-13.17    c0.86-1.818,2.164-2.862,3.576-2.862c1.105,0,2.651,0.616,3.73,3.551c1.661,4.508,0.875,9.051-2.142,12.639    c0.678,0.706,1.446,1.364,2.294,1.967c1.344,0.955,2.962,1.441,4.807,1.441c0,0,0,0,0.003,0    c7.498-0.002,17.551-8.069,21.089-16.923c1.578-3.95,2.481-9.59-2.182-14.026c-2.653-2.526-5.5-3.805-8.525-3.668    c-0.244,6.363-3.922,11.368-9.233,12.367c-0.499,0.095-0.947,0.137-1.349,0.137c-2.035,0-3.381-1.152-3.508-3.005    c-0.254-3.68,4.807-10.176,11.475-11.722c-0.569-5.777-4.284-11.096-10.113-14.385c-5.747-3.241-12.018-1.828-16.402,3.291    c4.885,4.112,5.962,9.418,4.782,13.046c-1.252,3.845-5.104,5.176-8.45,2.641c-4.194-3.187-3.264-9.944,0.08-15.14    c-1.778-1.11-3.882-2.002-6.273-2.656c-5.742-1.576-9.884-0.987-12.146,1.745c-3.264,3.945-1.957,11.048-1.945,11.118    c0.092,0.484-0.102,0.977-0.499,1.269c-0.399,0.292-0.928,0.327-1.359,0.095c-0.89-0.479-1.853-0.721-2.857-0.721    c-4.551,0-9.774,5.057-11.647,11.27c-0.885,2.937-2.159,10.29,5.104,15.1c3.094,2.05,6.214,3.296,9.123,3.658    c-0.803-4.703,0.152-10.071,2.446-13.091c1.379-1.818,2.828-2.199,3.797-2.199c1.314,0,2.558,0.661,3.703,1.965    c2.77,3.162,3.548,6.987,2.075,10.236C393.807,83.104,390.571,85.191,386.574,85.638z M419.347,72.522    c-0.244,0-0.78,0.374-1.267,1.399c-1.147,2.429-1.164,6.495,1.227,10.191c2.169-2.82,2.66-6.216,1.376-9.709    C420.175,73.023,419.607,72.522,419.347,72.522z M389.449,70.326c-0.711,0-1.354,0.648-1.765,1.189    c-1.725,2.272-2.813,7.101-1.87,11.622c3.366-0.254,6.002-1.823,7.089-4.219c1.06-2.344,0.451-5.077-1.671-7.495    C390.793,70.922,390.129,70.326,389.449,70.326z M435.841,55.358c-5.184,1.481-9.123,6.595-8.961,8.919    c0.02,0.294,0.042,0.626,0.96,0.626c0.262,0,0.554-0.032,0.875-0.092C432.69,64.06,435.482,60.272,435.841,55.358z     M407.765,43.693c-2.915,4.565-3.236,9.59-0.596,11.594c1.935,1.474,3.743,0.86,4.476-1.396    C412.515,51.216,411.618,47.022,407.765,43.693z"/>
	</g>
	<g>
		<path style="fill:#FFFFFF;" d="M271.671,457.358c0,0-3.741-19.648,15.681-14.333c19.423,5.315,14.251,23.796,6.631,18.009    c-7.62-5.787,4.807-27.604,19.925-19.072c15.118,8.533,12.897,26.896,2.631,28.83c-10.267,1.934,5.05-21.522,18.875-8.369    c13.825,13.153-13.172,40.122-25.34,31.471c-12.168-8.651-3.924-24.209-0.608-15.205c3.316,9.005-3.696,18.423-24.351,19.249    c-20.655,0.826-13.08-31.458-5.338-22.63s-3.635,19.943-18.815,9.89C245.784,475.145,261.1,451.689,271.671,457.358z"/>
		<path style="fill:#2B2330;" d="M284.346,499.23c-8.39,0-11.642-5.164-12.891-8.812c-3.586-0.239-7.435-1.666-11.198-4.157    c-6.029-3.994-8.323-10.709-6.136-17.968c2.209-7.338,8.398-13.086,14.09-13.086c0.663,0,1.317,0.075,1.95,0.222    c-0.194-2.795-0.045-7.687,2.743-11.058c2.94-3.556,7.952-4.451,14.786-2.578c2.705,0.741,5.094,1.768,7.121,3.059    c5.159-6.144,12.876-7.864,19.726-4.002c6.533,3.688,10.712,9.699,11.387,16.275c3.605-0.147,7.201,1.356,10.37,4.371    c4.446,4.229,5.436,10.203,2.793,16.823c-3.945,9.869-14.906,18.526-23.461,18.529h-0.003c-2.386,0-4.501-0.643-6.288-1.915    c-0.96-0.683-1.838-1.431-2.616-2.237c-4.543,3.887-11.953,6.134-21.553,6.518C284.889,499.225,284.615,499.23,284.346,499.23z     M274.16,490.366c1.354,3.279,4.391,6.57,10.906,6.296c11.141-0.444,16.988-3.321,20.025-5.932    c-3.261-4.643-3.236-9.984-1.733-13.168c0.86-1.82,2.162-2.865,3.576-2.865c1.105,0,2.651,0.616,3.73,3.551    c1.661,4.508,0.875,9.051-2.142,12.639c0.678,0.706,1.446,1.364,2.294,1.967c1.344,0.955,2.962,1.441,4.807,1.441c0,0,0,0,0.003,0    c7.498-0.002,17.551-8.069,21.089-16.923c1.578-3.95,2.481-9.59-2.182-14.026c-2.653-2.526-5.503-3.78-8.525-3.668    c-0.244,6.363-3.922,11.368-9.233,12.367c-0.499,0.095-0.947,0.137-1.349,0.137c-2.035,0-3.381-1.152-3.508-3.005    c-0.254-3.68,4.807-10.176,11.472-11.722c-0.569-5.777-4.281-11.093-10.111-14.382c-5.747-3.251-12.018-1.828-16.404,3.289    c4.887,4.112,5.964,9.418,4.787,13.043c-1.254,3.85-5.109,5.176-8.453,2.643c-4.194-3.187-3.264-9.944,0.08-15.138    c-1.778-1.112-3.882-2.002-6.273-2.656c-5.735-1.571-9.879-0.995-12.141,1.738c-3.256,3.927-1.962,11.053-1.95,11.126    c0.092,0.484-0.102,0.975-0.501,1.267c-0.396,0.287-0.925,0.327-1.356,0.095c-0.89-0.479-1.853-0.721-2.857-0.721    c-4.551,0-9.774,5.057-11.647,11.27c-0.885,2.937-2.159,10.29,5.104,15.1c3.094,2.05,6.214,3.296,9.123,3.658    c-0.803-4.703,0.152-10.071,2.446-13.091c1.379-1.818,2.828-2.199,3.8-2.199c1.312,0,2.556,0.663,3.7,1.965    c2.77,3.162,3.548,6.987,2.075,10.236C281.393,487.833,278.157,489.92,274.16,490.366z M306.934,477.251    c-0.244,0-0.78,0.374-1.267,1.401c-1.147,2.429-1.167,6.495,1.227,10.191c2.169-2.823,2.66-6.219,1.376-9.712    C307.761,477.752,307.193,477.251,306.934,477.251z M277.037,475.054c-0.713,0-1.354,0.648-1.768,1.192    c-1.723,2.269-2.813,7.099-1.87,11.619c3.366-0.254,6.002-1.823,7.089-4.219c1.06-2.344,0.451-5.077-1.671-7.495    C278.379,475.65,277.716,475.054,277.037,475.054z M323.428,460.086c-5.184,1.481-9.123,6.595-8.961,8.919    c0.02,0.294,0.042,0.626,0.96,0.626c0.262,0,0.554-0.032,0.875-0.092C320.278,468.788,323.069,465.001,323.428,460.086z     M295.352,448.422c-2.915,4.565-3.236,9.59-0.596,11.594c1.935,1.471,3.74,0.86,4.478-1.399    C300.102,455.944,299.204,451.751,295.352,448.422z"/>
	</g>
	<g>
		<path style="fill:#2B2330;" d="M190.677,417.025c-0.364,0-0.723-0.155-0.977-0.454c-0.454-0.539-0.384-1.344,0.155-1.8    c12.564-10.58,18.771-21.611,18.441-32.779c-0.489-16.669-15.537-28.091-15.689-28.206c-0.566-0.421-0.681-1.222-0.259-1.785    c0.421-0.566,1.224-0.681,1.785-0.259c0.661,0.494,16.19,12.285,16.716,30.175c0.352,11.988-6.159,23.698-19.349,34.808    C191.261,416.925,190.969,417.025,190.677,417.025z"/>
		<path style="fill:#2B2330;" d="M227.283,396.568c-0.394,0-0.785-0.185-1.035-0.529c-0.414-0.571-0.284-1.369,0.287-1.783    c11.816-8.535,18.257-18.142,19.147-28.56c1.339-15.701-10.577-28.066-10.697-28.188c-0.494-0.504-0.486-1.312,0.017-1.805    c0.504-0.494,1.314-0.484,1.803,0.015c0.526,0.536,12.851,13.29,11.422,30.173c-0.948,11.198-7.742,21.439-20.197,30.435    C227.805,396.491,227.543,396.568,227.283,396.568z"/>
		<path style="fill:#2B2330;" d="M232.475,231.75c-0.292,0-0.586-0.1-0.825-0.302c-0.539-0.456-0.603-1.262-0.15-1.8    c8.385-9.904,30.447-36.753,31.839-41.984c-1.94-2.05-23.341,1.902-42.012,6.795c-0.693,0.187-1.379-0.227-1.558-0.91    c-0.18-0.683,0.229-1.381,0.91-1.558c9.398-2.464,40.379-10.173,44.53-6.014c0.621,0.623,0.833,1.456,0.598,2.344    c-1.793,6.74-29.235,39.289-32.357,42.979C233.198,231.596,232.836,231.75,232.475,231.75z"/>
		<path style="fill:#D5DE8C;" d="M26.23,295.986c0,0,34.555,100.109,153.957,80.209c106.586-17.764,83.649-198.536,12.92-203.482    C98.55,166.1,195.799,310.521,26.23,295.986z"/>
		<path style="fill:#2B2330;" d="M206.76,215.381c-0.067,0-0.14-0.002-0.212-0.007c-4.526-0.319-14.821-13.522-16.838-16.165    c-0.429-0.561-0.319-1.361,0.239-1.79c0.559-0.426,1.361-0.324,1.79,0.239c6.353,8.323,13.115,15.175,14.946,15.175    c0.032,0,0.065-0.002,0.092-0.005c0.987-1.237-2.733-10.502-8.074-19.763c-0.354-0.611-0.145-1.391,0.466-1.743    c0.611-0.357,1.391-0.142,1.743,0.466c3.359,5.82,10.814,19.698,7.545,22.92C208.139,215.022,207.59,215.381,206.76,215.381z"/>
		<path style="fill:#D27D93;" d="M69.771,229.487c0,0-3.131,95.056,51.495,101.398s69.403-75.286,69.403-75.286    S80.52,239.726,69.771,229.487z"/>
		<path style="fill:#2B2330;" d="M146.997,304.017c-1.688,0-3.222-0.189-4.486-0.638c-1.698-0.603-2.089-1.793-2.172-2.449    c-0.469-3.728,7.323-10.308,13.422-14.841c-5.688,1.135-13.567,1.905-18.117-1.157c-1.571-1.057-1.788-2.341-1.693-3.231    c0.396-3.728,8.178-8.241,14.706-11.395c-6.052,0.534-13.552,0.591-17.182-1.79c-1.446-0.947-1.538-2.149-1.464-2.783    c0.576-4.954,17.457-11.457,22.615-13.332c0.666-0.242,1.396,0.1,1.636,0.763c0.242,0.663-0.1,1.396-0.763,1.636    c-9.906,3.6-20.69,8.974-20.952,11.23c-0.015,0.117,0.247,0.299,0.329,0.352c4.678,3.067,19.127,1.184,24.296,0.199    c0.656-0.127,1.282,0.267,1.464,0.895c0.185,0.631-0.14,1.299-0.751,1.543c-8.682,3.473-21.06,9.789-21.396,12.953    c-0.012,0.135-0.045,0.421,0.581,0.84c5.391,3.635,18.2,0.583,22.68-0.893c0.608-0.209,1.267,0.077,1.548,0.651    c0.279,0.571,0.095,1.264-0.434,1.621c-8.894,5.982-18.302,13.958-17.993,16.419c0.015,0.13,0.182,0.252,0.496,0.364    c5.585,1.987,19.359-2.471,24.194-4.361c0.656-0.254,1.396,0.07,1.653,0.726c0.257,0.656-0.067,1.396-0.726,1.653    C167.87,299.235,155.505,304.017,146.997,304.017z"/>
		<path style="fill:#2B2330;" d="M136.744,325.715c-5.633,0-21.154-0.688-24.418-8.131c-0.76-1.735-0.688-3.431,0.212-4.905    c1.364-2.229,4.521-3.698,7.852-4.658c-6.296-0.813-13.462-2.446-15.898-5.712c-0.793-1.062-0.992-2.252-0.578-3.438    c1.304-3.733,9.074-6.832,14.282-8.528c-6.321-1.922-17.663-6.037-20.987-11.579c-1.057-1.763-0.688-3.072-0.189-3.857    c2.06-3.269,11.268-3.491,17.544-3.239c-5.299-3.294-12.771-8.59-12.889-12.328c-0.027-0.89,0.327-1.703,1.025-2.346    c3.448-3.179,16.22-1.925,18.741-1.643c0.701,0.08,1.204,0.711,1.127,1.411c-0.082,0.701-0.736,1.194-1.411,1.127    c-5.802-0.651-14.821-0.775-16.723,0.98c-0.212,0.194-0.207,0.317-0.204,0.391c0.085,2.778,9.555,9.228,16.252,12.921    c0.531,0.292,0.783,0.915,0.603,1.494c-0.18,0.578-0.701,0.945-1.341,0.895c-8.834-0.848-19.219-0.434-20.563,1.698    c-0.07,0.11-0.252,0.396,0.219,1.184c3.354,5.595,18.259,10.283,23.718,11.617c0.569,0.137,0.97,0.643,0.975,1.227    s-0.386,1.097-0.95,1.247c-5.947,1.571-15.773,5.179-16.816,8.171c-0.097,0.277-0.14,0.598,0.212,1.07    c3.102,4.157,18.733,5.368,24.493,5.486c0.686,0.015,1.237,0.566,1.252,1.252c0.012,0.683-0.516,1.257-1.199,1.299    c-3.812,0.232-14.183,1.618-16.364,5.191c-0.464,0.76-0.481,1.571-0.052,2.546c2.678,6.104,18.237,6.827,23.994,6.573    c0.698-0.03,1.297,0.519,1.329,1.224c0.027,0.703-0.519,1.299-1.224,1.329C138.612,325.688,137.879,325.715,136.744,325.715z"/>
		<path style="fill:#2B2330;" d="M149.503,378.548c-0.102,0-0.207-0.012-0.312-0.037c-0.683-0.172-1.097-0.868-0.928-1.551    c0.272-1.082,28.101-108.138,104.876-90.831c0.686,0.155,1.12,0.838,0.962,1.526c-0.152,0.686-0.825,1.13-1.526,0.962    c-74.347-16.758-101.57,87.906-101.834,88.966C150.595,378.162,150.077,378.548,149.503,378.548z"/>
		<path style="fill:#2B2330;" d="M232.368,321.638c-0.14,0-0.282-0.022-0.421-0.072c-0.666-0.232-1.017-0.96-0.783-1.626    c1.945-5.56,7.288-7.393,7.515-7.468c0.656-0.219,1.386,0.137,1.608,0.805c0.224,0.666-0.135,1.389-0.8,1.616    c-0.042,0.015-4.391,1.538-5.914,5.889C233.387,321.309,232.896,321.638,232.368,321.638z"/>
		<path style="fill:#2B2330;" d="M219.195,318.138c-0.14,0-0.282-0.022-0.421-0.072c-0.666-0.232-1.017-0.96-0.783-1.626    c1.945-5.563,7.288-7.396,7.515-7.47c0.656-0.219,1.386,0.137,1.608,0.805c0.224,0.666-0.135,1.389-0.8,1.616    c-0.042,0.015-4.391,1.538-5.914,5.892C220.217,317.808,219.723,318.138,219.195,318.138z"/>
		<path style="fill:#2B2330;" d="M232.742,305.376c-0.14,0-0.282-0.022-0.421-0.072c-0.666-0.232-1.017-0.96-0.783-1.626    c1.945-5.56,7.288-7.393,7.515-7.468c0.661-0.219,1.386,0.137,1.608,0.805c0.224,0.666-0.135,1.389-0.8,1.616    c-0.042,0.015-4.391,1.538-5.914,5.889C233.761,305.047,233.27,305.376,232.742,305.376z"/>
		<path style="fill:#2B2330;" d="M220.344,338.753c-0.14,0-0.282-0.022-0.421-0.072c-0.666-0.232-1.017-0.96-0.783-1.626    c1.945-5.56,7.286-7.396,7.513-7.47c0.668-0.219,1.386,0.137,1.611,0.805c0.224,0.666-0.135,1.389-0.8,1.616    c-0.042,0.015-4.391,1.541-5.914,5.892C221.364,338.424,220.873,338.753,220.344,338.753z"/>
		<path style="fill:#2B2330;" d="M208.241,334.407c-0.14,0-0.282-0.022-0.421-0.072c-0.666-0.232-1.017-0.96-0.783-1.626    c1.945-5.56,7.286-7.393,7.51-7.468c0.671-0.224,1.386,0.137,1.611,0.805c0.224,0.666-0.135,1.389-0.8,1.616    c-0.042,0.015-4.388,1.538-5.912,5.889C209.261,334.078,208.77,334.407,208.241,334.407z"/>
		<path style="fill:#2B2330;" d="M202.601,322.189c-0.14,0-0.282-0.022-0.421-0.072c-0.666-0.232-1.017-0.96-0.783-1.626    c1.947-5.56,7.286-7.396,7.513-7.47c0.666-0.219,1.386,0.137,1.611,0.805c0.224,0.666-0.135,1.389-0.8,1.616    c-0.042,0.015-4.388,1.541-5.914,5.892C203.621,321.86,203.127,322.189,202.601,322.189z"/>
		<path style="fill:#2B2330;" d="M188.261,341.651c-0.14,0-0.282-0.022-0.421-0.072c-0.666-0.232-1.017-0.96-0.783-1.626    c1.945-5.563,7.288-7.396,7.515-7.47c0.658-0.219,1.386,0.137,1.608,0.805c0.224,0.666-0.135,1.389-0.8,1.616    c-0.042,0.015-4.391,1.538-5.914,5.892C189.284,341.322,188.79,341.651,188.261,341.651z"/>
		<path style="fill:#2B2330;" d="M200.93,350.236c-0.14,0-0.282-0.022-0.421-0.072c-0.666-0.232-1.017-0.96-0.783-1.626    c1.945-5.56,7.288-7.393,7.515-7.468c0.656-0.219,1.386,0.14,1.608,0.805c0.224,0.666-0.135,1.389-0.8,1.616    c-0.042,0.015-4.391,1.538-5.914,5.889C201.95,349.906,201.459,350.236,200.93,350.236z"/>
		<path style="fill:#2B2330;" d="M191.099,364.408c-0.14,0-0.282-0.022-0.421-0.072c-0.666-0.232-1.017-0.96-0.783-1.626    c1.945-5.563,7.286-7.396,7.51-7.47c0.666-0.219,1.386,0.137,1.611,0.805c0.224,0.666-0.135,1.389-0.8,1.616    c-0.042,0.015-4.388,1.538-5.912,5.892C192.121,364.079,191.627,364.408,191.099,364.408z"/>
		<path style="fill:#2B2330;" d="M177.482,357.262c-0.14,0-0.282-0.022-0.421-0.072c-0.666-0.232-1.017-0.96-0.783-1.626    c1.945-5.56,7.286-7.396,7.513-7.47c0.663-0.222,1.386,0.137,1.611,0.805c0.224,0.666-0.135,1.389-0.8,1.616    c-0.042,0.015-4.391,1.541-5.914,5.892C178.502,356.933,178.011,357.262,177.482,357.262z"/>
		<path style="fill:#2B2330;" d="M170.573,370.517c-0.14,0-0.282-0.022-0.421-0.072c-0.666-0.232-1.017-0.96-0.783-1.626    c1.945-5.56,7.288-7.393,7.515-7.468c0.658-0.219,1.386,0.137,1.608,0.805c0.224,0.666-0.135,1.389-0.8,1.616    c-0.042,0.015-4.391,1.538-5.914,5.889C171.593,370.188,171.101,370.517,170.573,370.517z"/>
	</g>
	<g>
		<path style="fill:#2B2330;" d="M389.444,335.517c-0.17,0-0.339-0.032-0.504-0.102c-15.848-6.797-25.48-16.11-28.625-27.682    c-4.698-17.272,6.737-33.068,7.226-33.734c0.419-0.569,1.222-0.688,1.783-0.269c0.569,0.416,0.691,1.217,0.272,1.783    c-0.112,0.155-11.193,15.499-6.812,31.567c2.937,10.774,12.076,19.519,27.163,25.987c0.648,0.279,0.948,1.03,0.671,1.678    C390.409,335.228,389.937,335.517,389.444,335.517z"/>
		<path style="fill:#2B2330;" d="M348.474,326.578c-0.137,0-0.277-0.022-0.414-0.07c-14.532-4.987-24.009-12.811-28.168-23.251    c-6.273-15.739,1.813-31.524,2.159-32.188c0.332-0.623,1.102-0.863,1.723-0.541c0.623,0.327,0.865,1.097,0.541,1.723    c-0.08,0.152-7.889,15.447-2.045,30.081c3.877,9.709,12.834,17.03,26.617,21.763c0.668,0.229,1.022,0.955,0.793,1.621    C349.499,326.246,349.005,326.578,348.474,326.578z"/>
		<path style="fill:#2B2330;" d="M295.618,170.382c-0.239,0-0.479-0.065-0.693-0.204c-4.059-2.623-39.775-25.797-43.448-31.724    c-0.484-0.78-0.524-1.641-0.11-2.419c2.76-5.189,34.649-6.81,44.356-7.184c0.017,0,0.035,0,0.05,0    c0.683,0,1.249,0.539,1.277,1.227c0.025,0.706-0.524,1.299-1.227,1.327c-19.289,0.741-40.907,3.182-42.201,5.832    c2.877,4.473,31.789,23.755,42.69,30.796c0.591,0.382,0.763,1.172,0.379,1.765C296.446,170.175,296.037,170.382,295.618,170.382z"/>
		<path style="fill:#EDD674;" d="M512,171.864c0,0-3.977,105.83-124.01,121.482c-107.149,13.971-137.726-165.666-71.485-190.95    C405.061,68.595,353.97,235.041,512,171.864z"/>
		<path style="fill:#2B2330;" d="M315.092,147.305c-0.449,0-0.813-0.127-1.077-0.267c-4.059-2.132-0.96-17.579,0.561-24.121    c0.16-0.683,0.843-1.11,1.533-0.955c0.686,0.16,1.115,0.848,0.955,1.533c-2.421,10.413-3.291,20.359-1.86,21.284    c1.561-0.279,6.131-8.926,9.857-18.91c0.247-0.661,0.985-0.995,1.643-0.751c0.661,0.247,0.997,0.982,0.751,1.643    c-1.164,3.114-7.179,18.738-11.417,20.361C315.693,147.255,315.376,147.305,315.092,147.305z"/>
		<path style="fill:#AF7996;" d="M451.016,120.885c0,0,30.615,90.045-19.812,111.986s-88.283-51.873-88.283-51.873    S443.706,133.805,451.016,120.885z"/>
		<path style="fill:#2B2330;" d="M383.691,216.311c-3.79,0-6.643-0.212-6.944-0.237c-0.703-0.052-1.227-0.668-1.172-1.371    c0.052-0.703,0.686-1.279,1.371-1.172c5.169,0.396,19.648,0.668,24.418-2.86c0.267-0.197,0.389-0.362,0.367-0.491    c-0.419-2.444-11.737-7.343-21.985-10.48c-0.611-0.187-0.987-0.795-0.885-1.426c0.102-0.628,0.573-1.05,1.289-1.072    c0.172,0.007,17.018,0.339,21.965-5.735c0.476-0.583,0.364-0.848,0.309-0.975c-1.239-2.93-14.918-5.376-24.236-6.179    c-0.656-0.057-1.159-0.601-1.167-1.259c-0.008-0.656,0.486-1.212,1.142-1.282c5.234-0.561,19.606-2.955,23.189-7.248    c0.062-0.075,0.259-0.324,0.212-0.434c-0.905-2.082-12.784-4.087-23.311-4.655c-0.703-0.037-1.242-0.638-1.204-1.344    c0.037-0.703,0.569-1.284,1.344-1.204c5.481,0.294,23.523,1.613,25.513,6.186c0.254,0.583,0.516,1.76-0.593,3.087    c-2.783,3.334-9.974,5.461-15.918,6.702c7.164,1.125,15.921,3.182,17.382,6.635c0.349,0.823,0.514,2.114-0.681,3.581    c-3.463,4.251-11.228,5.81-16.998,6.373c7.151,2.566,16.516,6.598,17.152,10.298c0.112,0.651,0.082,1.905-1.369,2.977    C398.821,215.727,389.97,216.311,383.691,216.311z"/>
		<path style="fill:#2B2330;" d="M412.628,233.019c-0.569,0-1.087-0.382-1.237-0.957c-0.175-0.683,0.234-1.379,0.918-1.556    c5.588-1.446,20.262-6.647,21.05-13.26c0.125-1.06-0.127-1.83-0.793-2.424c-3.117-2.783-13.45-1.097-17.162-0.212    c-0.681,0.165-1.339-0.237-1.526-0.895c-0.185-0.661,0.182-1.349,0.833-1.561c5.478-1.785,20.082-7.488,21.84-12.367    c0.199-0.554,0.067-0.848-0.105-1.085c-1.868-2.556-12.337-3.177-18.464-2.932c-0.716-0.01-1.107-0.357-1.272-0.918    c-0.165-0.561,0.072-1.159,0.573-1.459c4.837-2.862,17.736-11.677,19.319-18.003c0.224-0.89-0.035-1.115-0.132-1.197    c-1.912-1.653-11.956,0.97-20.169,4.349c-0.564,0.234-1.207,0.035-1.543-0.466c-0.339-0.501-0.279-1.172,0.142-1.606    c5.336-5.478,12.524-14.402,11.799-17.087c-0.02-0.07-0.052-0.187-0.309-0.312c-2.334-1.132-10.926,1.613-16.287,3.92    c-0.643,0.284-1.401-0.017-1.678-0.666c-0.279-0.648,0.02-1.399,0.666-1.678c2.334-1.005,14.19-5.922,18.409-3.875    c0.855,0.411,1.431,1.085,1.663,1.945c0.977,3.615-4.635,10.851-8.749,15.542c5.927-2.06,14.808-4.521,17.728-1.997    c0.703,0.608,1.439,1.753,0.94,3.748c-1.571,6.268-11.228,13.499-16.718,17.177c5.476,0.107,13.814,0.815,16.145,4.009    c0.741,1.015,0.895,2.212,0.446,3.458c-1.384,3.832-7.767,7.478-13.554,10.086c3.533-0.047,6.914,0.439,8.864,2.174    c1.289,1.149,1.853,2.75,1.628,4.633c-1.152,9.689-22.054,15.202-22.945,15.432C412.839,233.007,412.732,233.019,412.628,233.019z    "/>
		<path style="fill:#2B2330;" d="M417.662,286.738c-0.431,0-0.855-0.219-1.095-0.618c-0.561-0.938-57.045-93.167-123.29-55.539    c-0.613,0.352-1.394,0.135-1.74-0.479c-0.349-0.613-0.135-1.394,0.479-1.74c68.422-38.86,126.168,55.486,126.741,56.441    c0.362,0.606,0.167,1.389-0.436,1.753C418.113,286.678,417.886,286.738,417.662,286.738z"/>
		<path style="fill:#2B2330;" d="M321.837,256.36c-0.391,0-0.78-0.182-1.03-0.524c-2.745-3.753-7.321-3.917-7.366-3.917    c-0.706-0.02-1.262-0.606-1.244-1.309c0.02-0.706,0.633-1.257,1.309-1.244c0.239,0.007,5.884,0.209,9.36,4.964    c0.416,0.568,0.292,1.366-0.277,1.783C322.363,256.281,322.099,256.36,321.837,256.36z"/>
		<path style="fill:#2B2330;" d="M333.426,249.182c-0.391,0-0.78-0.182-1.03-0.524c-2.745-3.753-7.321-3.917-7.366-3.917    c-0.706-0.02-1.262-0.606-1.244-1.309c0.017-0.706,0.603-1.259,1.309-1.244c0.239,0.007,5.884,0.209,9.36,4.964    c0.416,0.568,0.292,1.366-0.277,1.783C333.952,249.102,333.688,249.182,333.426,249.182z"/>
		<path style="fill:#2B2330;" d="M316.755,240.909c-0.391,0-0.78-0.182-1.03-0.524c-2.745-3.753-7.321-3.917-7.366-3.917    c-0.706-0.02-1.262-0.606-1.244-1.309c0.02-0.706,0.636-1.219,1.309-1.244c0.239,0.007,5.885,0.209,9.36,4.964    c0.416,0.568,0.292,1.366-0.277,1.783C317.281,240.829,317.017,240.909,316.755,240.909z"/>
		<path style="fill:#2B2330;" d="M338.316,269.241c-0.391,0-0.78-0.182-1.03-0.524c-2.72-3.72-7.323-3.915-7.371-3.915    c-0.703-0.022-1.257-0.611-1.237-1.314c0.02-0.701,0.583-1.199,1.307-1.239c0.239,0.007,5.884,0.207,9.36,4.962    c0.416,0.569,0.292,1.366-0.277,1.783C338.842,269.162,338.578,269.241,338.316,269.241z"/>
		<path style="fill:#2B2330;" d="M348.636,261.567c-0.391,0-0.78-0.182-1.03-0.524c-2.723-3.72-7.323-3.915-7.371-3.915    c-0.703-0.022-1.257-0.611-1.237-1.314c0.02-0.701,0.561-1.204,1.307-1.239c0.239,0.007,5.882,0.207,9.36,4.962    c0.416,0.569,0.294,1.366-0.277,1.783C349.162,261.487,348.898,261.567,348.636,261.567z"/>
		<path style="fill:#2B2330;" d="M350.479,248.239c-0.391,0-0.78-0.182-1.03-0.524c-2.745-3.755-7.321-3.917-7.366-3.917    c-0.706-0.017-1.262-0.606-1.244-1.309c0.017-0.703,0.541-1.192,1.309-1.244c0.239,0.007,5.884,0.207,9.36,4.964    c0.416,0.569,0.292,1.369-0.277,1.783C351.005,248.16,350.741,248.239,350.479,248.239z"/>
		<path style="fill:#2B2330;" d="M369.858,262.694c-0.391,0-0.78-0.182-1.03-0.524c-2.748-3.755-7.321-3.917-7.366-3.917    c-0.706-0.017-1.262-0.606-1.244-1.309c0.017-0.703,0.606-1.284,1.309-1.244c0.239,0.007,5.882,0.207,9.36,4.964    c0.416,0.569,0.292,1.366-0.277,1.783C370.384,262.614,370.12,262.694,369.858,262.694z"/>
		<path style="fill:#2B2330;" d="M360.228,274.59c-0.391,0-0.78-0.182-1.03-0.524c-2.745-3.753-7.321-3.917-7.366-3.917    c-0.706-0.02-1.262-0.606-1.244-1.309c0.017-0.706,0.601-1.269,1.309-1.244c0.239,0.008,5.884,0.209,9.36,4.964    c0.416,0.568,0.292,1.366-0.277,1.783C360.754,274.51,360.49,274.59,360.228,274.59z"/>
		<path style="fill:#2B2330;" d="M373.755,285.292c-0.391,0-0.78-0.182-1.03-0.524c-2.745-3.753-7.321-3.917-7.366-3.917    c-0.706-0.02-1.262-0.606-1.244-1.309c0.017-0.706,0.564-1.284,1.309-1.244c0.239,0.007,5.884,0.209,9.36,4.964    c0.416,0.569,0.292,1.366-0.277,1.783C374.281,285.212,374.017,285.292,373.755,285.292z"/>
		<path style="fill:#2B2330;" d="M384.706,274.5c-0.391,0-0.78-0.182-1.03-0.524c-2.745-3.755-7.321-3.917-7.366-3.917    c-0.706-0.017-1.262-0.606-1.244-1.309c0.02-0.703,0.646-1.179,1.309-1.244c0.239,0.007,5.884,0.207,9.36,4.964    c0.416,0.569,0.292,1.369-0.277,1.783C385.232,274.42,384.968,274.5,384.706,274.5z"/>
		<path style="fill:#2B2330;" d="M395.169,285.174c-0.391,0-0.78-0.182-1.03-0.524c-2.72-3.72-7.323-3.915-7.371-3.915    c-0.703-0.022-1.257-0.611-1.237-1.314c0.02-0.701,0.631-1.249,1.307-1.239c0.239,0.007,5.884,0.207,9.36,4.962    c0.416,0.569,0.292,1.366-0.277,1.783C395.695,285.095,395.43,285.174,395.169,285.174z"/>
	</g>
	<g>
		<path style="fill:#AF7996;" d="M295.588,355.965c0,0-6.568-16.629-16.551-10.102s7.093,18.264,7.093,18.264    s-8.932,1.661-8.932,7.966S298.478,380.82,295.588,355.965z"/>
		<path style="fill:#AF7996;" d="M298.181,355.734c0,0,8.994-15.452,17.882-7.498c8.888,7.954-9.76,16.99-9.76,16.99    s8.581,2.985,7.632,9.219C312.987,380.678,291.585,379.872,298.181,355.734z"/>
		<path style="fill:#2B2330;" d="M296.518,351.193c-0.115,0-0.232-0.015-0.349-0.05c-0.678-0.192-1.072-0.898-0.878-1.576    c2.262-7.937-7.181-11.181-7.585-11.315c-0.668-0.224-1.03-0.948-0.808-1.616c0.224-0.668,0.952-1.025,1.616-0.808    c4.216,1.406,11.572,6.231,9.231,14.437C297.586,350.826,297.075,351.193,296.518,351.193z"/>
		<path style="fill:#2B2330;" d="M299.411,351.193c-0.085,0-0.172-0.007-0.257-0.025c-0.691-0.142-1.137-0.815-0.997-1.506    c1.08-5.289,3.117-8.867,6.059-10.629c2.947-1.773,5.685-0.98,5.802-0.95c0.676,0.202,1.06,0.913,0.86,1.588    c-0.199,0.671-0.895,1.065-1.578,0.863c-0.097-0.03-1.87-0.481-3.822,0.718c-2.244,1.376-3.91,4.461-4.817,8.919    C300.535,350.777,300.004,351.193,299.411,351.193z"/>
	</g>
	<g>
		<path style="fill:#AF7996;" d="M275.27,33.042c0,0,11.084-14.028,0.427-19.385s-12.235,15.304-12.235,15.304    s-5.92-6.891-11.373-3.726S255.226,48.019,275.27,33.042z"/>
		<path style="fill:#AF7996;" d="M276.772,35.168c0,0,17.879,0.021,15.462,11.701s-19.593,0.089-19.593,0.089    s1.726,8.92-4.141,11.229C262.632,60.496,252.585,41.582,276.772,35.168z"/>
		<path style="fill:#2B2330;" d="M280.967,32.086c-0.571,0-1.092-0.384-1.237-0.962c-0.175-0.683,0.239-1.379,0.923-1.551    c7.999-2.03,6.064-11.824,5.979-12.24c-0.145-0.691,0.299-1.366,0.99-1.509c0.683-0.152,1.366,0.297,1.509,0.99    c0.903,4.351,0.424,13.135-7.849,15.232C281.176,32.074,281.069,32.086,280.967,32.086z"/>
		<path style="fill:#2B2330;" d="M296.738,38.118c-0.573,0-1.092-0.386-1.239-0.965c-0.022-0.087-0.514-1.853-2.541-2.945    c-2.311-1.247-5.82-1.137-10.133,0.309c-0.666,0.224-1.389-0.135-1.616-0.803c-0.224-0.668,0.135-1.391,0.803-1.616    c5.114-1.723,9.233-1.753,12.233-0.097c3.007,1.661,3.705,4.423,3.735,4.541c0.165,0.686-0.257,1.374-0.943,1.541    C296.937,38.105,296.835,38.118,296.738,38.118z"/>
	</g>
	<path style="fill:#2B2330;" d="M384.035,425.208c-0.688-0.003-1.381-0.015-2.082-0.042c-0.706-0.03-1.254-0.623-1.227-1.327   c0.03-0.706,0.643-1.197,1.327-1.227c1.708,0.067,3.359,0.045,4.969-0.047c0.768-0.07,1.309,0.496,1.351,1.197   c0.042,0.706-0.494,1.309-1.197,1.351C386.15,425.176,385.1,425.208,384.035,425.208z M327.118,425.126   c-0.691,0-1.259-0.551-1.277-1.244c-0.017-0.706,0.539-1.292,1.244-1.309c1.723-0.042,3.399-0.155,4.982-0.332   c0.678-0.077,1.332,0.426,1.411,1.127c0.077,0.701-0.426,1.332-1.127,1.411c-1.658,0.185-3.406,0.302-5.201,0.347   C327.138,425.126,327.128,425.126,327.118,425.126z M322.014,425.071c-0.017,0-0.037,0-0.057-0.003   c-1.169-0.052-2.369-0.13-3.603-0.237c-0.531-0.042-1.057-0.097-1.576-0.155c-0.701-0.08-1.204-0.713-1.125-1.414   c0.08-0.701,0.726-1.187,1.414-1.125c0.489,0.057,0.99,0.107,1.499,0.15c1.207,0.102,2.371,0.18,3.506,0.232   c0.706,0.03,1.249,0.628,1.217,1.331C323.258,424.537,322.692,425.071,322.014,425.071z M376.907,424.869   c-0.032,0-0.065,0-0.097-0.003c-1.8-0.135-3.508-0.289-5.129-0.469c-0.701-0.077-1.207-0.708-1.13-1.409   c0.077-0.703,0.713-1.207,1.409-1.13c1.591,0.175,3.269,0.329,5.039,0.459c0.703,0.052,1.229,0.666,1.179,1.369   C378.128,424.358,377.567,424.869,376.907,424.869z M392.161,424.52c-0.608,0-1.147-0.439-1.254-1.06   c-0.122-0.693,0.344-1.354,1.04-1.474c1.633-0.284,3.254-0.663,4.815-1.127c0.683-0.197,1.389,0.185,1.588,0.86   c0.199,0.676-0.185,1.386-0.86,1.588c-1.658,0.491-3.376,0.893-5.109,1.192C392.309,424.515,392.234,424.52,392.161,424.52z    M337.244,423.984c-0.588,0-1.117-0.409-1.247-1.01c-0.147-0.688,0.292-1.366,0.982-1.516c1.671-0.357,3.271-0.803,4.757-1.327   c0.666-0.237,1.396,0.12,1.628,0.78c0.234,0.666-0.115,1.394-0.78,1.628c-1.588,0.559-3.296,1.035-5.072,1.416   C337.423,423.974,337.333,423.984,337.244,423.984z M311.888,423.864c-0.09,0-0.18-0.01-0.272-0.03   c-1.783-0.389-3.488-0.875-5.067-1.449c-0.661-0.239-1.005-0.972-0.763-1.636c0.239-0.661,0.972-1.005,1.636-0.763   c1.471,0.534,3.064,0.99,4.738,1.354c0.688,0.15,1.125,0.83,0.975,1.518C313.005,423.458,312.476,423.864,311.888,423.864z    M366.763,423.737c-0.067,0-0.132-0.005-0.199-0.015c-1.83-0.287-3.526-0.603-5.094-0.948c-0.688-0.152-1.125-0.833-0.972-1.521   c0.15-0.686,0.83-1.117,1.521-0.972c1.519,0.334,3.164,0.641,4.939,0.918c0.696,0.11,1.174,0.763,1.065,1.459   C367.923,423.288,367.382,423.737,366.763,423.737z M401.921,421.622c-0.494,0-0.965-0.289-1.172-0.77   c-0.279-0.648,0.02-1.399,0.666-1.678c1.499-0.646,2.985-1.396,4.413-2.229c0.603-0.362,1.389-0.152,1.745,0.459   c0.357,0.611,0.15,1.391-0.459,1.745c-1.519,0.885-3.097,1.683-4.688,2.369C402.262,421.59,402.09,421.622,401.921,421.622z    M356.815,421.503c-0.127,0-0.257-0.02-0.387-0.06c-1.83-0.581-3.486-1.229-4.922-1.93c-0.469-0.229-0.736-0.711-0.716-1.202   c-1.037,0.76-2.162,1.466-3.354,2.109c-0.626,0.332-1.394,0.1-1.73-0.519c-0.334-0.623-0.102-1.396,0.519-1.73   c1.484-0.795,2.842-1.698,4.039-2.683c0.541-0.446,1.349-0.367,1.798,0.177c0.342,0.416,0.377,0.985,0.13,1.429   c0.147,0.015,0.294,0.055,0.436,0.125c1.322,0.646,2.86,1.247,4.573,1.79c0.671,0.212,1.045,0.93,0.83,1.603   C357.859,421.156,357.356,421.503,356.815,421.503z M302.363,420.326c-0.217,0-0.439-0.055-0.638-0.172   c-1.598-0.923-3.057-1.99-4.336-3.174c-0.519-0.479-0.551-1.287-0.072-1.803c0.481-0.521,1.287-0.551,1.803-0.072   c1.145,1.055,2.449,2.01,3.882,2.84c0.611,0.352,0.82,1.132,0.466,1.743C303.231,420.096,302.802,420.326,302.363,420.326z    M347.818,416.852c-0.309,0-0.618-0.112-0.865-0.337c-1.626-1.499-2.633-3.169-2.995-4.967c-0.14-0.691,0.309-1.364,1-1.504   c0.676-0.135,1.364,0.307,1.504,1c0.252,1.259,1,2.468,2.222,3.591c0.519,0.479,0.551,1.287,0.075,1.805   C348.507,416.713,348.162,416.852,347.818,416.852z M410.725,416.503c-0.389,0-0.77-0.177-1.022-0.511   c-0.421-0.566-0.307-1.366,0.257-1.788c1.309-0.977,2.588-2.05,3.802-3.187c0.516-0.481,1.324-0.456,1.805,0.06   s0.454,1.324-0.06,1.805c-1.284,1.199-2.636,2.331-4.017,3.366C411.261,416.421,410.992,416.503,410.725,416.503z M354.613,414.095   c-0.267,0-0.536-0.082-0.765-0.254c-0.564-0.424-0.678-1.224-0.257-1.788c1.002-1.334,1.75-2.72,2.224-4.119   c0.224-0.668,0.95-1.022,1.618-0.8c0.668,0.227,1.027,0.952,0.8,1.618c-0.561,1.658-1.436,3.284-2.598,4.832   C355.383,413.918,354.999,414.095,354.613,414.095z M294.975,413.427c-0.416,0-0.828-0.204-1.072-0.581   c-0.96-1.484-1.755-3.112-2.364-4.845c-0.234-0.666,0.117-1.394,0.78-1.628c0.668-0.239,1.396,0.117,1.628,0.78   c0.541,1.543,1.247,2.99,2.099,4.301c0.382,0.593,0.214,1.384-0.376,1.768C295.454,413.359,295.214,413.427,294.975,413.427z    M418.18,409.554c-0.297,0-0.596-0.102-0.838-0.314c-0.531-0.464-0.588-1.269-0.125-1.8c1.08-1.242,2.117-2.556,3.084-3.912   c0.409-0.573,1.209-0.706,1.78-0.299c0.576,0.409,0.708,1.207,0.299,1.78c-1.015,1.424-2.104,2.805-3.239,4.107   C418.891,409.405,418.537,409.554,418.18,409.554z M346.1,407.659c-0.209,0-0.421-0.052-0.618-0.16   c-0.616-0.342-0.84-1.12-0.499-1.735c0.848-1.533,2.132-2.982,3.713-4.189c0.561-0.426,1.359-0.322,1.79,0.239   c0.429,0.561,0.322,1.361-0.239,1.79c-1.304,0.995-2.351,2.169-3.03,3.396C346.983,407.422,346.549,407.659,346.1,407.659z    M357.515,404.592c-0.591,0-1.122-0.414-1.247-1.015c-0.165-0.788-0.698-2.112-2.104-1.955c-0.658,0.095-1.336-0.414-1.419-1.115   c-0.085-0.698,0.414-1.334,1.115-1.419c2.481-0.304,4.351,1.287,4.907,3.965c0.145,0.691-0.299,1.366-0.987,1.511   C357.69,404.585,357.603,404.592,357.515,404.592z M291.557,403.897c-0.626,0-1.172-0.461-1.262-1.1   c-0.209-1.494-0.314-3.067-0.314-4.68l0.002-0.606c0.008-0.706,0.509-1.204,1.292-1.262c0.706,0.01,1.272,0.588,1.262,1.292   l-0.003,0.561c0,1.509,0.097,2.965,0.289,4.341c0.097,0.698-0.389,1.344-1.087,1.441   C291.676,403.892,291.616,403.897,291.557,403.897z M424.12,401.259c-0.219,0-0.441-0.057-0.646-0.175   c-0.608-0.357-0.813-1.14-0.456-1.748c0.843-1.436,1.626-2.925,2.331-4.418c0.299-0.638,1.062-0.905,1.701-0.608   c0.636,0.302,0.91,1.062,0.608,1.701c-0.738,1.561-1.556,3.114-2.436,4.618C424.985,401.032,424.556,401.259,424.12,401.259z    M291.664,393.716c-0.06,0-0.12-0.005-0.18-0.012c-0.698-0.097-1.184-0.743-1.087-1.441c0.234-1.681,0.564-3.411,0.977-5.139   c0.162-0.686,0.848-1.122,1.538-0.945c0.686,0.165,1.11,0.853,0.945,1.538c-0.394,1.651-0.708,3.299-0.933,4.9   C292.836,393.255,292.29,393.716,291.664,393.716z M428.488,392.038c-0.147,0-0.297-0.025-0.444-0.08   c-0.661-0.244-0.997-0.98-0.753-1.641c0.524-1.411,0.99-2.845,1.389-4.269c-0.583-0.17-1.152-0.352-1.703-0.546   c-0.663-0.237-1.012-0.965-0.778-1.631c0.239-0.663,0.965-1.007,1.631-0.778c1.461,0.519,3.054,0.935,4.738,1.242   c0.693,0.127,1.152,0.793,1.027,1.486c-0.127,0.696-0.813,1.137-1.486,1.027c-0.319-0.06-0.636-0.12-0.948-0.187   c-0.424,1.516-0.92,3.042-1.476,4.543C429.496,391.719,429.007,392.038,428.488,392.038z M440.452,387.56   c-1.085,0-2.127-0.03-3.132-0.092c-0.703-0.042-1.239-0.648-1.197-1.351s0.633-1.262,1.351-1.197   c1.561,0.092,3.217,0.115,4.984,0.05c0.711-0.02,1.297,0.524,1.322,1.232c0.025,0.703-0.526,1.297-1.232,1.322   C441.833,387.547,441.135,387.56,440.452,387.56z M447.59,387.136c-0.638,0-1.192-0.481-1.267-1.132   c-0.08-0.701,0.424-1.334,1.125-1.414c1.159-0.132,2.356-0.299,3.586-0.499c0.451-0.072,0.898-0.157,1.344-0.249   c0.693-0.152,1.369,0.297,1.511,0.987c0.145,0.691-0.299,1.366-0.987,1.511c-0.486,0.102-0.972,0.192-1.459,0.272   c-1.269,0.207-2.506,0.379-3.705,0.516C447.688,387.133,447.64,387.136,447.59,387.136z M457.552,384.986   c-0.526,0-1.02-0.327-1.204-0.853c-0.234-0.663,0.115-1.394,0.78-1.628c1.494-0.526,3.032-1.172,4.573-1.92   c0.633-0.304,1.396-0.042,1.706,0.593c0.307,0.633,0.042,1.396-0.593,1.706c-1.623,0.788-3.251,1.471-4.837,2.03   C457.836,384.964,457.694,384.986,457.552,384.986z M294.02,383.782c-0.135,0-0.269-0.02-0.404-0.065   c-0.668-0.222-1.03-0.945-0.808-1.616c0.99-2.972,1.858-4.832,1.893-4.91c0.299-0.641,1.065-0.908,1.698-0.616   c0.638,0.299,0.913,1.06,0.616,1.698c-0.01,0.017-0.845,1.815-1.783,4.635C295.052,383.443,294.556,383.782,294.02,383.782z    M422.798,383.393c-0.232,0-0.464-0.062-0.676-0.192c-1.653-1.032-3.059-2.224-4.179-3.543c-0.454-0.539-0.389-1.344,0.15-1.8   c0.539-0.451,1.341-0.389,1.8,0.15c0.945,1.117,2.152,2.134,3.581,3.025c0.598,0.374,0.78,1.162,0.409,1.76   C423.641,383.179,423.222,383.393,422.798,383.393z M431.134,382.181c-0.07,0-0.137-0.005-0.207-0.017   c-0.696-0.112-1.169-0.768-1.055-1.464c0.277-1.715,0.441-3.371,0.484-4.915c0.02-0.706,0.556-1.272,1.312-1.242   c0.706,0.02,1.262,0.608,1.242,1.312c-0.047,1.658-0.222,3.426-0.519,5.254C432.291,381.735,431.747,382.181,431.134,382.181z    M466.735,380.558c-0.429,0-0.85-0.217-1.09-0.611c-0.367-0.603-0.177-1.389,0.424-1.755c1.389-0.848,2.785-1.785,4.149-2.788   c0.564-0.414,1.364-0.297,1.785,0.274c0.416,0.569,0.294,1.366-0.274,1.785c-1.421,1.042-2.877,2.022-4.329,2.907   C467.191,380.498,466.962,380.558,466.735,380.558z M416.547,375.641c-0.574,0-1.095-0.389-1.239-0.97   c-0.194-0.785-0.294-1.581-0.294-2.361c0.003-1.209,0.234-2.369,0.688-3.446c0.272-0.651,1.025-0.955,1.671-0.683   c0.651,0.274,0.957,1.022,0.683,1.671c-0.322,0.768-0.486,1.596-0.489,2.461c0,0.571,0.075,1.159,0.219,1.745   c0.17,0.683-0.247,1.376-0.933,1.546C416.752,375.629,416.647,375.641,416.547,375.641z M474.973,374.529   c-0.359,0-0.716-0.152-0.97-0.446c-0.459-0.534-0.396-1.339,0.14-1.8c1.254-1.077,2.496-2.222,3.688-3.401   c0.504-0.496,1.312-0.491,1.805,0.01c0.496,0.501,0.491,1.309-0.01,1.805c-1.234,1.222-2.521,2.409-3.822,3.526   C475.564,374.427,475.267,374.529,474.973,374.529z M431.306,372.011c-0.606,0-1.145-0.434-1.254-1.052   c-0.314-1.76-0.868-3.199-1.601-4.167c-0.426-0.561-0.317-1.361,0.247-1.788c0.556-0.424,1.359-0.317,1.788,0.247   c0.987,1.304,1.688,3.072,2.08,5.259c0.125,0.693-0.337,1.356-1.032,1.481C431.458,372.003,431.381,372.011,431.306,372.011z    M482.234,367.355c-0.302,0-0.601-0.105-0.845-0.319c-0.529-0.466-0.578-1.274-0.112-1.803c1.102-1.247,2.177-2.551,3.194-3.875   c0.431-0.559,1.232-0.661,1.79-0.234c0.559,0.429,0.663,1.232,0.234,1.79c-1.055,1.371-2.164,2.72-3.304,4.009   C482.94,367.208,482.588,367.355,482.234,367.355z M420.21,366.887c-0.431,0-0.853-0.219-1.092-0.616   c-0.364-0.603-0.172-1.386,0.431-1.753c1.446-0.875,3.159-1.454,5.097-1.715l0.382,1.239l-0.03,1.289   c-1.596,0.217-2.982,0.678-4.127,1.371C420.664,366.827,420.437,366.887,420.21,366.887z M488.455,359.257   c-0.244,0-0.489-0.07-0.706-0.212c-0.588-0.391-0.748-1.182-0.359-1.77c0.943-1.419,1.823-2.857,2.621-4.276   c0.344-0.613,1.117-0.838,1.738-0.486c0.613,0.344,0.833,1.122,0.486,1.738c-0.825,1.471-1.74,2.965-2.715,4.436   C489.273,359.057,488.867,359.257,488.455,359.257z M493.457,350.358c-0.18,0-0.364-0.037-0.539-0.12   c-0.638-0.297-0.915-1.055-0.618-1.696c0.713-1.536,1.351-3.089,1.9-4.613c0.239-0.663,0.98-0.997,1.633-0.77   c0.663,0.239,1.007,0.97,0.77,1.633c-0.573,1.596-1.244,3.222-1.99,4.827C494.4,350.083,493.938,350.358,493.457,350.358z    M496.895,340.755c-0.102,0-0.207-0.012-0.312-0.037c-0.683-0.172-1.097-0.865-0.928-1.551c0.414-1.643,0.726-3.279,0.928-4.865   c0.09-0.701,0.738-1.199,1.429-1.105c0.698,0.09,1.194,0.728,1.105,1.429c-0.214,1.683-0.546,3.421-0.982,5.164   C497.988,340.369,497.469,340.755,496.895,340.755z M498.152,330.65c-0.698,0-1.267-0.561-1.277-1.259   c-0.022-1.666-0.175-3.304-0.451-4.872c-0.125-0.693,0.339-1.356,1.035-1.479c0.683-0.115,1.356,0.337,1.479,1.035   c0.302,1.703,0.469,3.478,0.491,5.281c0.01,0.706-0.556,1.284-1.259,1.294C498.162,330.65,498.157,330.65,498.152,330.65z    M496.324,320.658c-0.514,0-0.997-0.312-1.192-0.82c-0.578-1.513-1.307-2.97-2.164-4.331c-0.376-0.596-0.197-1.384,0.399-1.76   c0.591-0.379,1.384-0.204,1.76,0.399c0.948,1.501,1.75,3.109,2.389,4.78c0.252,0.658-0.077,1.396-0.736,1.648   C496.631,320.631,496.477,320.658,496.324,320.658z M490.921,312.081c-0.339,0-0.678-0.135-0.93-0.401   c-1.08-1.147-2.304-2.239-3.643-3.246c-0.564-0.424-0.676-1.224-0.252-1.788c0.426-0.566,1.229-0.671,1.788-0.252   c1.454,1.095,2.788,2.284,3.967,3.536c0.484,0.514,0.459,1.322-0.055,1.805C491.55,311.966,491.235,312.081,490.921,312.081z    M482.823,305.94c-0.209,0-0.419-0.05-0.613-0.157c-1.394-0.763-2.9-1.471-4.478-2.107c-0.656-0.264-0.972-1.007-0.708-1.661   c0.262-0.656,1.017-0.972,1.661-0.708c1.671,0.673,3.271,1.426,4.752,2.237c0.618,0.339,0.845,1.115,0.506,1.733   C483.71,305.7,483.274,305.94,482.823,305.94z M473.39,302.097c-0.12,0-0.242-0.017-0.364-0.052   c-1.546-0.459-3.177-0.873-4.847-1.227c-0.691-0.147-1.132-0.825-0.985-1.514c0.147-0.691,0.858-1.117,1.514-0.985   c1.738,0.369,3.436,0.8,5.047,1.277c0.676,0.202,1.06,0.913,0.86,1.588C474.45,301.738,473.941,302.097,473.39,302.097z    M463.419,299.951c-0.062,0-0.125-0.005-0.19-0.015c-0.698-0.102-1.409-0.197-2.127-0.287c-0.701-0.085-1.199-0.723-1.112-1.421   c0.087-0.701,0.736-1.199,1.421-1.112c0.743,0.09,1.474,0.19,2.192,0.297c0.698,0.102,1.179,0.751,1.075,1.449   C464.586,299.494,464.04,299.951,463.419,299.951z"/>
	<path style="fill:#2B2330;" d="M101.325,196.226c-0.676-0.145-0.858-0.185-2.626-4.89c-0.249-0.661,0.085-1.396,0.746-1.643   c0.653-0.254,1.396,0.085,1.643,0.746c0.955,2.538,1.636,3.947,1.643,3.96l-1.137,0.581L101.325,196.226z M98.248,187.325   c-0.546,0-1.052-0.354-1.222-0.903c-0.464-1.523-0.933-3.202-1.369-5.004c-0.165-0.686,0.257-1.374,0.943-1.541   c0.693-0.155,1.376,0.259,1.541,0.943c0.421,1.748,0.875,3.376,1.329,4.855c0.204,0.676-0.175,1.389-0.848,1.596   C98.498,187.307,98.371,187.325,98.248,187.325z M95.857,177.393c-0.608,0-1.147-0.439-1.254-1.06   c-0.302-1.73-0.541-3.461-0.711-5.146c-0.072-0.703,0.439-1.329,1.14-1.399c0.693-0.09,1.329,0.436,1.399,1.14   c0.167,1.626,0.396,3.299,0.686,4.972c0.122,0.693-0.344,1.354-1.04,1.474C96.004,177.388,95.93,177.393,95.857,177.393z    M94.84,167.238c-0.693,0-1.262-0.554-1.277-1.249c-0.01-0.461-0.015-0.928-0.015-1.396c0.002-1.264,0.04-2.538,0.125-3.82   c0.045-0.701,0.581-1.244,1.359-1.189c0.703,0.047,1.234,0.653,1.189,1.359c-0.08,1.227-0.117,2.446-0.12,3.653   c0,0.446,0.005,0.893,0.015,1.339c0.015,0.703-0.544,1.289-1.249,1.304C94.857,167.238,94.85,167.238,94.84,167.238z    M95.533,157.057c-0.072,0-0.142-0.005-0.214-0.017c-0.696-0.117-1.164-0.775-1.047-1.471c0.297-1.753,0.681-3.476,1.144-5.114   c0.192-0.681,0.898-1.075,1.576-0.883c0.681,0.192,1.075,0.898,0.883,1.576c-0.441,1.553-0.805,3.182-1.085,4.845   C96.685,156.616,96.144,157.057,95.533,157.057z M98.328,147.258c-0.165,0-0.332-0.032-0.494-0.1   c-0.651-0.272-0.957-1.02-0.683-1.671c0.683-1.628,1.469-3.217,2.339-4.718c0.354-0.611,1.139-0.818,1.745-0.464   c0.608,0.354,0.818,1.135,0.464,1.745c-0.815,1.406-1.553,2.895-2.194,4.423C99.301,146.964,98.827,147.258,98.328,147.258z    M175.976,146.183c-0.706,0-1.277-0.571-1.277-1.277c0-0.648,0.486-1.187,1.112-1.267c0.06-0.007,0.122-0.012,0.182-0.012   c0.339,0,1.371,0,2.112-1.932l0.142-0.399c0.219-0.668,0.94-1.035,1.613-0.815c0.668,0.222,1.035,0.943,0.815,1.613   c-0.06,0.175-0.122,0.349-0.192,0.524c-1.164,3.039-3.241,3.543-4.423,3.563C176.033,146.183,176.004,146.183,175.976,146.183z    M171.498,143.972c-0.302,0-0.606-0.107-0.85-0.324c-1.212-1.082-2.399-2.461-3.523-4.097c-0.399-0.581-0.252-1.376,0.329-1.775   c0.586-0.396,1.379-0.249,1.775,0.329c1.007,1.469,2.057,2.693,3.119,3.638c0.526,0.469,0.571,1.277,0.102,1.803   C172.199,143.827,171.849,143.972,171.498,143.972z M103.425,138.444c-0.272,0-0.544-0.085-0.775-0.262   c-0.561-0.429-0.668-1.229-0.239-1.79c0.813-1.062,1.686-2.097,2.598-3.079c0.282-0.304,0.568-0.603,0.863-0.898   c0.499-0.499,1.307-0.499,1.805,0s0.499,1.307,0,1.805c-0.269,0.269-0.536,0.544-0.795,0.825c-0.858,0.925-1.681,1.9-2.441,2.897   C104.188,138.272,103.809,138.444,103.425,138.444z M179.799,137.942c-0.588,0-1.117-0.409-1.247-1.01   c-0.292-1.361-0.962-2.7-1.997-3.982c-0.444-0.549-0.359-1.354,0.19-1.795c0.549-0.444,1.354-0.359,1.795,0.189   c1.289,1.598,2.134,3.296,2.511,5.054c0.147,0.688-0.292,1.366-0.982,1.516C179.978,137.932,179.888,137.942,179.799,137.942z    M165.643,135.673c-0.476,0-0.935-0.269-1.154-0.731c-0.748-1.581-1.396-3.236-1.922-4.92c-0.209-0.673,0.165-1.389,0.838-1.601   c0.688-0.212,1.389,0.167,1.601,0.838c0.491,1.571,1.092,3.117,1.793,4.59c0.302,0.636,0.03,1.399-0.608,1.701   C166.012,135.633,165.828,135.673,165.643,135.673z M110.653,131.275c-0.391,0-0.78-0.182-1.03-0.521   c-0.416-0.571-0.294-1.369,0.274-1.785c1.386-1.015,2.885-1.965,4.453-2.82c0.613-0.342,1.391-0.112,1.73,0.509   c0.339,0.618,0.112,1.394-0.509,1.73c-1.469,0.803-2.87,1.691-4.164,2.641C111.179,131.195,110.915,131.275,110.653,131.275z    M173.797,129.986c-0.257,0-0.514-0.077-0.738-0.234c-1.229-0.873-2.65-1.701-4.226-2.461c-0.633-0.307-0.9-1.07-0.593-1.706   s1.07-0.9,1.706-0.593c1.703,0.823,3.246,1.723,4.59,2.675c0.576,0.409,0.711,1.207,0.304,1.78   C174.59,129.799,174.196,129.986,173.797,129.986z M119.575,126.365c-0.504,0-0.982-0.302-1.184-0.798   c-0.264-0.653,0.052-1.396,0.706-1.663c1.576-0.638,3.236-1.217,4.937-1.718c0.668-0.197,1.386,0.185,1.586,0.863   c0.199,0.676-0.187,1.386-0.863,1.586c-1.621,0.479-3.204,1.03-4.703,1.638C119.896,126.336,119.734,126.365,119.575,126.365z    M162.606,125.952c-0.613,0-1.157-0.446-1.257-1.072c-0.022-0.125-0.04-0.252-0.06-0.377c-0.603-0.167-1.214-0.327-1.83-0.476   c-0.686-0.167-1.105-0.858-0.94-1.543c0.167-0.683,0.855-1.09,1.543-0.94c0.309,0.077,0.616,0.155,0.92,0.232   c-0.052-0.731-0.082-1.456-0.087-2.174c-0.005-0.706,0.564-1.282,1.267-1.287c0.005,0,0.007,0,0.01,0   c0.701,0,1.272,0.566,1.277,1.267c0.007,0.97,0.062,1.955,0.162,2.945c0.496,0.155,0.987,0.314,1.469,0.481   c0.666,0.229,1.02,0.955,0.79,1.623c-0.229,0.666-0.94,1.022-1.623,0.79c-0.165-0.057-0.332-0.112-0.499-0.17   c-0.18,0.352-0.516,0.616-0.935,0.683C162.743,125.947,162.676,125.952,162.606,125.952z M129.349,123.461   c-0.593,0-1.127-0.419-1.249-1.022c-0.14-0.693,0.307-1.366,0.997-1.506c1.666-0.337,3.394-0.616,5.141-0.828   c0.686-0.1,1.336,0.409,1.421,1.112c0.085,0.701-0.411,1.336-1.112,1.421c-1.681,0.207-3.344,0.474-4.942,0.798   C129.519,123.453,129.434,123.461,129.349,123.461z M154.755,123.054c-0.067,0-0.137-0.005-0.207-0.017   c-1.623-0.262-3.299-0.471-4.979-0.621c-0.701-0.062-1.219-0.683-1.157-1.386c0.062-0.706,0.676-1.209,1.386-1.157   c1.74,0.157,3.476,0.374,5.159,0.646c0.696,0.112,1.169,0.765,1.055,1.464C155.911,122.608,155.368,123.054,154.755,123.054z    M139.482,122.214c-0.678,0-1.242-0.531-1.274-1.217c-0.035-0.703,0.509-1.302,1.214-1.334c1.73-0.085,3.468-0.11,5.189-0.075   c0.706,0.015,1.267,0.598,1.252,1.302s-0.581,1.204-1.302,1.252c-1.666-0.032-3.341-0.007-5.019,0.07   C139.522,122.214,139.502,122.214,139.482,122.214z M162.574,115.783c-0.07,0-0.142-0.005-0.214-0.017   c-0.693-0.117-1.164-0.775-1.047-1.471c0.297-1.778,0.758-3.513,1.366-5.161c0.244-0.658,0.977-1,1.641-0.753   c0.661,0.244,0.997,0.977,0.753,1.641c-0.554,1.496-0.97,3.074-1.242,4.698C163.726,115.342,163.185,115.783,162.574,115.783z    M166.1,106.268c-0.227,0-0.456-0.06-0.666-0.187c-0.601-0.367-0.79-1.152-0.424-1.755c0.91-1.491,1.985-2.927,3.194-4.269   c0.471-0.519,1.279-0.566,1.803-0.092c0.524,0.471,0.566,1.279,0.092,1.803c-1.102,1.224-2.082,2.531-2.91,3.89   C166.95,106.051,166.529,106.268,166.1,106.268z M212.054,105.236c-0.706,0-1.302-0.571-1.302-1.277   c0-0.706,0.546-1.277,1.252-1.277h0.05c0.212-0.087,0.89-1.065,1.067-2.93c0.07-0.703,0.703-1.182,1.394-1.149   c0.701,0.067,1.217,0.691,1.149,1.394C215.362,103.132,213.914,105.236,212.054,105.236z M209.311,101.204   c-0.561,0-1.072-0.369-1.229-0.935c-0.401-1.439-0.726-3.192-0.962-5.209c-0.085-0.701,0.416-1.334,1.117-1.416   c0.678-0.112,1.334,0.416,1.416,1.117c0.224,1.888,0.524,3.511,0.888,4.825c0.189,0.678-0.209,1.384-0.888,1.571   C209.538,101.189,209.423,101.204,209.311,101.204z M172.872,98.701c-0.377,0-0.748-0.167-1-0.484   c-0.439-0.554-0.347-1.356,0.207-1.793c1.344-1.065,2.808-2.067,4.349-2.98c0.606-0.357,1.389-0.157,1.75,0.449   c0.359,0.608,0.157,1.391-0.449,1.75c-1.444,0.853-2.813,1.79-4.064,2.78C173.43,98.611,173.151,98.701,172.872,98.701z    M213.709,96.133c-0.514,0-1-0.314-1.194-0.823c-0.541-1.431-1.391-2.658-2.523-3.648c-0.531-0.464-0.586-1.269-0.12-1.8   c0.464-0.534,1.272-0.583,1.8-0.12c1.451,1.267,2.538,2.835,3.231,4.66c0.249,0.661-0.082,1.396-0.741,1.648   C214.013,96.105,213.859,96.133,213.709,96.133z M181.614,93.49c-0.486,0-0.952-0.282-1.164-0.756   c-0.289-0.643,0-1.399,0.643-1.686c1.252-0.561,2.573-1.09,3.97-1.586l0.888-0.312c0.663-0.229,1.394,0.125,1.623,0.79   c0.229,0.666-0.125,1.394-0.79,1.623l-0.863,0.302c-1.331,0.476-2.593,0.98-3.785,1.511   C181.965,93.455,181.788,93.49,181.614,93.49z M207.984,91.101c-0.681,0-1.247-0.536-1.277-1.222   c-0.002-0.115-0.007-0.229-0.012-0.342c-0.214,0.057-0.459,0.057-0.691-0.015c-1.389-0.424-2.967-0.661-4.69-0.706   c-0.706-0.02-1.262-0.606-1.244-1.309c0.017-0.703,0.656-1.229,1.309-1.244c1.92,0.05,3.698,0.317,5.284,0.79   c0.007-0.82,0.035-1.621,0.08-2.406c0.037-0.701,0.598-1.279,1.346-1.202c0.703,0.04,1.242,0.643,1.202,1.346   c-0.05,0.9-0.077,1.823-0.077,2.77c0,0.721,0.015,1.456,0.047,2.207c0.027,0.706-0.519,1.302-1.222,1.331   C208.019,91.101,208.002,91.101,207.984,91.101z M191.258,90.158c-0.569,0-1.087-0.381-1.237-0.957   c-0.175-0.683,0.234-1.379,0.918-1.556c1.793-0.461,3.523-0.813,5.139-1.042c0.676-0.085,1.344,0.384,1.444,1.085   c0.1,0.698-0.386,1.344-1.085,1.444c-1.523,0.217-3.159,0.549-4.86,0.987C191.47,90.146,191.363,90.158,191.258,90.158z    M208.598,80.935c-0.075,0-0.147-0.005-0.222-0.02c-0.696-0.12-1.159-0.783-1.037-1.476c0.307-1.763,0.728-3.486,1.252-5.117   c0.217-0.673,0.938-1.045,1.606-0.825c0.673,0.214,1.042,0.933,0.828,1.603c-0.489,1.521-0.883,3.129-1.172,4.777   C209.745,80.499,209.206,80.935,208.598,80.935z M211.727,71.271c-0.194,0-0.389-0.042-0.574-0.135   c-0.628-0.317-0.883-1.085-0.568-1.715c0.795-1.583,1.72-3.107,2.753-4.528c0.416-0.573,1.214-0.693,1.783-0.282   c0.571,0.414,0.696,1.212,0.282,1.783c-0.948,1.309-1.8,2.713-2.533,4.174C212.644,71.014,212.193,71.271,211.727,71.271z    M217.696,63.057c-0.329,0-0.658-0.127-0.91-0.381c-0.494-0.501-0.489-1.309,0.015-1.805c1.234-1.217,2.598-2.364,4.052-3.411   c0.566-0.419,1.366-0.287,1.78,0.289c0.414,0.571,0.284,1.369-0.289,1.78c-1.346,0.972-2.611,2.035-3.753,3.162   C218.344,62.935,218.02,63.057,217.696,63.057z M225.942,57.088c-0.459,0-0.9-0.247-1.13-0.681   c-0.329-0.626-0.09-1.396,0.534-1.725c1.516-0.798,3.134-1.521,4.81-2.152c0.656-0.257,1.396,0.082,1.643,0.746   c0.249,0.658-0.085,1.396-0.746,1.643c-1.576,0.593-3.094,1.274-4.516,2.022C226.346,57.041,226.144,57.088,225.942,57.088z    M235.492,53.485c-0.574,0-1.097-0.389-1.239-0.97c-0.17-0.686,0.249-1.376,0.933-1.546c3.102-0.765,5.174-0.928,5.261-0.935   c0.693-0.05,1.314,0.474,1.366,1.177c0.055,0.703-0.471,1.317-1.174,1.371c-0.02,0-1.965,0.157-4.84,0.865   C235.694,53.473,235.592,53.485,235.492,53.485z"/>
</g>















</svg>
