<?xml version="1.0" encoding="UTF-8"?>
<!-- Generator: Adobe Illustrator 25.2.3, SVG Export Plug-In . SVG Version: 6.00 Build 0)  -->
<svg xmlns="http://www.w3.org/2000/svg" xmlns:xlink="http://www.w3.org/1999/xlink" version="1.1" id="Capa_1" x="0px" y="0px" viewBox="0 0 512 512" style="enable-background:new 0 0 512 512;" xml:space="preserve" width="512" height="512">
<g>
	<g>
		<g>
			<g>
				<g>
					<path style="fill:#FBFCFF;" d="M144.829,341.39c0,0-110.621-64.049-113.222-68.65S4.589,227.278,8.121,226.555       c3.532-0.722,55.729,3.317,55.729,3.317l113.864,73.339L144.829,341.39z"/>
				</g>
				<g>
					<path style="fill:#241726;" d="M144.829,342.465c-0.185,0-0.371-0.047-0.538-0.145       c-11.349-6.571-110.952-64.332-113.619-69.051c-0.33-0.583-1.011-1.75-1.941-3.343c-19.43-33.301-22.794-41.504-21.867-43.577       c0.198-0.443,0.578-0.752,1.042-0.846c0.247-0.05,0.698-0.108,2.012-0.108c9.876,0,52.217,3.268,54.015,3.406       c0.177,0.014,0.35,0.071,0.499,0.168l113.864,73.339c0.262,0.169,0.438,0.442,0.482,0.749c0.045,0.309-0.046,0.62-0.249,0.855       l-32.885,38.179C145.434,342.336,145.134,342.465,144.829,342.465z M8.852,227.563c0.272,2.39,4.513,11.762,21.736,41.28       c0.937,1.606,1.623,2.782,1.954,3.368c2.474,3.561,68.067,42.324,112.054,67.802l31.497-36.567L63.497,230.923       c-3.72-0.285-44.19-3.379-53.578-3.379C9.433,227.544,9.091,227.552,8.852,227.563z"/>
				</g>
			</g>
			<g>
				<path style="fill:#241726;" d="M42.907,227.252l-21.149,30.392c0,0-18.433-30.279-17.448-32.021      C6.282,222.14,42.907,227.252,42.907,227.252z"/>
			</g>
			<g>
				<path style="fill:#995780;" d="M31.031,273.531l21.905-7.207l-2.623-17.03l12.79-2.16c0,0-3.21-15.517,1.476-18.072      c4.685-2.555,110.881,71.39,110.881,71.39s-28.575,45.056-32.664,42.471C138.707,340.338,26.185,276.576,31.031,273.531z"/>
			</g>
			<g>
				<path style="fill:#241726;" d="M160.559,332.305c-0.082,0-0.166-0.01-0.25-0.03c-3.122-0.763-97.216-58.458-107.934-65.034      c-0.507-0.311-0.665-0.972-0.355-1.478c0.31-0.507,0.971-0.665,1.478-0.355c28.749,17.638,104.079,63.66,107.358,64.788      c0.544,0.187,0.872,0.777,0.711,1.328C161.429,331.993,161.021,332.305,160.559,332.305z"/>
			</g>
			<g>
				<path style="fill:#241726;" d="M175.841,315.237c-0.188,0-0.379-0.049-0.552-0.153L62.555,247.343      c-0.509-0.307-0.674-0.967-0.368-1.475c0.305-0.511,0.966-0.676,1.475-0.368l112.733,67.741      c0.509,0.306,0.674,0.967,0.368,1.475C176.562,315.051,176.206,315.237,175.841,315.237z"/>
			</g>
		</g>
		<g>
			<g>
				<path style="fill:#FFFFFF;" d="M163.501,291.451c0,0-31.562,43.016-31.173,45.1s27.839,15.562,30.889,13.261      c3.05-2.3,26.704-38.05,21.833-42.401C180.179,303.06,163.501,291.451,163.501,291.451z"/>
			</g>
			<g>
				<path style="fill:#241726;" d="M162.08,351.15L162.08,351.15c-4.952,0-30.181-11.044-30.809-14.402      c-0.314-1.687,10.238-17.142,31.363-45.934c0.344-0.47,0.999-0.581,1.481-0.246c0.683,0.475,16.787,11.697,21.651,16.04      c0.728,0.651,1.069,1.686,1.011,3.076c-0.392,9.468-20.171,38.917-22.911,40.985C163.437,350.993,162.852,351.15,162.08,351.15z       M133.486,336.349c2.551,2.557,23.289,12.652,28.594,12.652l0,0c0.384,0,0.513-0.062,0.513-0.062      c2.571-1.941,21.674-30.612,22.036-39.342c0.028-0.686-0.079-1.191-0.295-1.383c-4.137-3.695-17.116-12.846-20.587-15.279      C152.401,308.418,135.036,332.684,133.486,336.349z"/>
			</g>
		</g>
		<g>
			<path style="fill:#995780;" d="M173.665,297.051c0,0-32.107,42.348-30.869,45.873c1.238,3.525,27.046,15.735,27.046,15.735     s26.552-45.462,25.049-47.3C193.388,309.519,173.665,297.051,173.665,297.051z"/>
		</g>
	</g>
	<g>
		<g>
			<g>
				<path style="fill:#FFFFFF;" d="M104.523,153.411c0,0,8.599,232.161,8.599,247.209s324.596,8.599,333.194,0      s15.047-260.107,0-260.107S98.074,144.813,104.523,153.411z"/>
			</g>
			<g>
				<path style="fill:#241726;" d="M244.78,410.722c-0.005,0,0.002,0-0.003,0c-37.702,0-69.585-0.713-92.203-2.059      c-40.528-2.414-40.528-6.216-40.528-8.042c0-14.641-8.268-238.267-8.589-246.928c-0.15-0.379-0.135-0.796,0.052-1.169      c0.872-1.744,2.914-5.829,167.865-9.961c81.272-2.036,166.756-3.123,174.941-3.123c2.122,0,3.237,2.691,3.603,3.575      c6.111,14.754,7.184,80.196,6.15,136.52c-0.848,46.212-3.942,116.795-8.993,121.846      C441.374,407.083,323.455,410.722,244.78,410.722z M105.598,153.43c0.176,4.757,8.598,232.376,8.598,247.191      c0.16,0.809,5.184,7.952,130.581,7.952c94.889,0,196.216-4.397,200.779-8.713c7.727-7.727,14.101-227.715,2.375-256.022      c-0.735-1.775-1.361-2.248-1.616-2.248C417.849,141.589,118.352,146.127,105.598,153.43z"/>
			</g>
		</g>
		<g>
			<g>
				<g>
					<path style="fill:#009E98;" d="M134.602,178.781c0,0,7.154,185.803,7.154,197.846c0,12.043,270.074,6.882,277.228,0       c7.154-6.882,12.52-208.168,0-208.168C406.464,168.459,129.236,171.9,134.602,178.781z"/>
				</g>
				<g>
					<path style="fill:#241726;" d="M251.299,384.925c-0.004,0,0.002,0-0.001,0c-110.617,0-110.617-6.246-110.617-8.298       c0-11.691-6.852-189.971-7.145-197.569c-0.13-0.346-0.115-0.724,0.052-1.067c0.76-1.556,2.341-4.793,139.754-8.105       c67.648-1.631,138.824-2.501,145.641-2.501c1.962,0,2.958,2.472,3.285,3.284c10.039,24.919,4.128,200.319-2.54,206.733       C414.883,382.063,318.363,384.925,251.299,384.925z M135.684,178.94c0.271,7.059,7.147,185.938,7.147,197.687       c1.494,2.787,30.813,6.149,108.468,6.149c78.461,0,162.716-3.498,166.95-6.932c6.146-6.024,11.323-181.606,2.005-204.427       c-0.628-1.537-1.139-1.883-1.269-1.883C395.462,169.534,147.912,173.139,135.684,178.94z"/>
				</g>
			</g>
			<g>
				<path style="fill:#241726;" d="M191.285,241.714c-16.738,0-18.436-1.352-18.782-2.857c-0.668-2.901-0.367-8.642-0.355-8.884      c0.029-0.544,0.462-0.98,1.006-1.015l7.302-0.465c0.882-6.685,1.713-13.822,2.045-17.976c-2.228,4.094-4.27,7.44-6.431,7.936      c-0.245,0.057-0.502,0.085-0.764,0.085c-3.16,0-6.762-4.255-7.162-4.74c-0.322-0.392-0.327-0.954-0.014-1.351l16.469-20.824      c0.233-0.297,0.593-0.448,0.979-0.4c2.341,0.299,10.079,1.321,11.344,1.93c1.064,0.513,1.219,1.135-0.218,17.749      c-0.559,6.458-1.317,15.215-1.04,16.935c0.946,0.671,2.109,0.752,3.335,0.835c1.825,0.126,4.098,0.282,5.032,2.954      c0.35,0.996,1.994,6.096,0.14,8.71c-0.62,0.875-1.547,1.337-2.681,1.337c-1.162-0.042-2.395-0.019-4.37,0.003      C195.437,241.694,193.42,241.714,191.285,241.714z M174.257,231.041c-0.056,1.729-0.109,5.379,0.341,7.333      c0.331,0.225,2.81,1.19,16.687,1.19c2.128,0,4.137-0.02,5.814-0.037c2.046-0.021,3.592-0.036,4.296-0.005      c0.003,0,0.006,0,0.008,0c0.636,0,0.864-0.217,1.014-0.429c0.744-1.049,0.566-3.954-0.415-6.756      c-0.448-1.279-1.29-1.39-3.152-1.519c-1.448-0.1-3.251-0.224-4.764-1.483c-0.871-0.725-0.927-2.409,0.475-18.617      c0.535-6.188,1.192-13.781,1.028-15.751c-1.412-0.359-5.681-1.012-9.682-1.532l-15.537,19.644      c1.471,1.589,3.924,3.576,5.217,3.28c1.502-0.345,4.099-5.153,5.347-7.463c0.822-1.523,1.307-2.407,1.699-2.879      c0.4-0.483,1.357-0.531,1.773-0.055c0.372,0.424,1.063,1.214-1.937,23.689c-0.068,0.509-0.485,0.898-0.997,0.931      L174.257,231.041z"/>
			</g>
			<g>
				<path style="fill:#241726;" d="M265.073,243.236c-16.745,0-18.443-1.352-18.789-2.857c-0.668-2.902-0.367-8.642-0.355-8.884      c0.029-0.544,0.462-0.98,1.006-1.015l7.339-0.469c0.969-5.541,2.117-12.662,2.6-16.657c-2.405,3.213-4.871,6.126-7.021,6.621      c-0.246,0.057-0.503,0.085-0.765,0.085c-3.161,0-6.763-4.255-7.163-4.74c-0.322-0.392-0.327-0.954-0.014-1.351l16.469-20.824      c0.232-0.297,0.599-0.449,0.979-0.4c2.341,0.299,10.079,1.32,11.344,1.93c1.064,0.512,1.22,1.135-0.218,17.749      c-0.558,6.458-1.316,15.215-1.039,16.935c0.946,0.671,2.108,0.75,3.334,0.834c1.826,0.126,4.099,0.282,5.033,2.954      c0.35,0.996,1.994,6.096,0.14,8.711c-0.62,0.875-1.547,1.337-2.681,1.337c-1.159-0.041-2.399-0.017-4.382,0.002      C269.21,243.215,267.2,243.236,265.073,243.236z M248.037,232.563c-0.056,1.728-0.109,5.378,0.341,7.333      c0.331,0.225,2.811,1.19,16.694,1.19c2.12,0,4.122-0.021,5.795-0.038c2.054-0.018,3.604-0.035,4.309-0.004      c0.592-0.08,0.87-0.216,1.021-0.429c0.745-1.05,0.567-3.955-0.414-6.758c-0.448-1.279-1.291-1.39-3.152-1.519      c-1.448-0.099-3.251-0.224-4.764-1.482c-0.872-0.725-0.927-2.409,0.475-18.616c0.535-6.189,1.192-13.782,1.027-15.752      c-1.412-0.359-5.681-1.013-9.682-1.532L244.151,214.6c1.472,1.591,3.936,3.586,5.218,3.28c1.845-0.424,5.232-5.051,6.679-7.026      c0.463-0.634,0.837-1.142,1.079-1.433c0.405-0.491,1.379-0.533,1.788-0.044c0.367,0.437,0.98,1.167-2.671,21.84      c-0.086,0.488-0.494,0.854-0.99,0.886L248.037,232.563z"/>
			</g>
			<g>
				<path style="fill:#241726;" d="M220.355,228.62c-2.722,0-3.638-0.259-3.924-1.112c-0.088-0.267-0.152-0.462,0.166-6.872      c-0.467,0.005-0.917,0.007-1.349,0.007c-4.782,0-5.364-0.273-5.708-0.996c-0.528-1.111-1.13-6.74-0.612-8.074      c0.107-0.275,0.437-0.644,0.711-0.756c0.265-0.107,0.46-0.186,7.499-0.278c0.238-4.221,0.438-7.589,0.438-7.589      c0.03-0.512,0.42-0.932,0.929-1.001c0.096-0.013,2.376-0.318,4.451-0.318c1.136,0,4.153,0,4.153,1.982      c0,0.538-0.023,3.34-0.091,6.834c4.038-0.027,7.2-0.041,7.2-0.041s0.003,0,0.004,0c0.512,0,0.953,0.361,1.054,0.864      c0.482,2.405,1.129,6.649,0.049,8.055c-0.293,0.382-0.706,0.608-1.165,0.637c-0.569,0.036-3.671,0.208-7.448,0.369      c-0.348,7.384-0.758,7.547-1.478,7.833C224.338,228.525,221.651,228.62,220.355,228.62z M218.51,226.393      c0.375,0.041,0.971,0.078,1.845,0.078c1.573,0,3.01-0.113,3.706-0.221c0.129-0.637,0.35-2.361,0.548-6.996      c0.024-0.558,0.471-1.004,1.03-1.028c3.688-0.151,6.906-0.322,8.042-0.387c0.192-0.783,0.044-2.997-0.351-5.278      c-1.377,0.006-4.191,0.021-7.402,0.044c-0.323,0.021-0.57-0.114-0.773-0.32c-0.204-0.207-0.316-0.487-0.31-0.778      c0.075-3.468,0.105-6.446,0.112-7.539c-0.261-0.077-0.835-0.186-2.003-0.186c-1.178,0-2.461,0.11-3.287,0.197      c-0.084,1.418-0.254,4.358-0.441,7.683c-0.031,0.565-0.494,1.008-1.06,1.015c-4.488,0.055-6.444,0.108-7.292,0.145      c-0.065,1.308,0.231,4.35,0.498,5.528c0.46,0.062,1.515,0.144,3.875,0.144c0.765,0,1.593-0.008,2.46-0.023      c0.334,0.037,0.585,0.113,0.791,0.327c0.207,0.214,0.316,0.505,0.301,0.802C218.592,223.727,218.526,225.571,218.51,226.393z"/>
			</g>
			<g>
				<g>
					<path style="fill:#241726;" d="M361.748,305.579c-0.002,0-0.003,0-0.005,0c-12.113,0-26.401-0.385-30.176-1.463       c-8.927-2.551-2.716-64.174-1.381-76.501c0.057-0.528,0.49-0.934,1.02-0.958c0.303-0.014,30.526-1.351,52.443-1.351       c19.611,0,22.007,1.088,22.794,1.446c8.067,3.667,6.184,73.382,6.089,74.051C411.937,304.957,380.462,305.579,361.748,305.579z        M332.224,228.764c-3.756,35.127-4.805,71.93-0.067,73.284c2.935,0.839,14.548,1.381,29.586,1.381       c27.565,0,46.504-1.616,48.687-3.143c0.818-7.082,0.626-69.077-4.878-71.578c-1.03-0.468-5.246-1.253-21.904-1.253       C363.933,227.455,337.466,228.54,332.224,228.764z"/>
				</g>
				<g>
					<path style="fill:#241726;" d="M331.972,339.001c-0.003,0-0.003,0-0.005,0c-12.113,0-26.401-0.385-30.177-1.463       c-8.926-2.551-2.716-64.174-1.381-76.501c0.057-0.528,0.49-0.934,1.02-0.958c0.303-0.014,30.526-1.352,52.444-1.352       c19.611,0,22.007,1.09,22.794,1.447c8.067,3.667,6.184,73.382,6.089,74.051C382.161,338.38,350.686,339.001,331.972,339.001z        M302.447,262.186c-3.755,35.127-4.805,71.93-0.067,73.284c2.935,0.839,14.549,1.381,29.587,1.381       c27.565,0,46.504-1.616,48.687-3.143c0.818-7.082,0.626-69.077-4.878-71.578c-1.03-0.468-5.246-1.254-21.904-1.254       C334.156,260.876,307.689,261.962,302.447,262.186z"/>
				</g>
				<g>
					<path style="fill:#241726;" d="M301.476,262.227c-0.238,0-0.478-0.079-0.677-0.24c-0.461-0.375-0.53-1.052-0.156-1.513       c0.972-1.196,23.865-29.334,29.995-33.625c0.485-0.339,1.157-0.223,1.497,0.264c0.34,0.486,0.223,1.157-0.264,1.497       c-5.885,4.12-29.322,32.929-29.559,33.22C302.098,262.092,301.789,262.227,301.476,262.227z"/>
				</g>
				<g>
					<path style="fill:#241726;" d="M381.691,335.148c-0.288,0-0.574-0.114-0.786-0.342c-0.405-0.435-0.381-1.115,0.054-1.519       c0.266-0.248,26.58-24.831,29.497-32.997c0.198-0.558,0.816-0.854,1.373-0.651c0.559,0.199,0.851,0.815,0.651,1.373       c-3.091,8.655-28.955,32.823-30.055,33.847C382.217,335.052,381.953,335.148,381.691,335.148z"/>
				</g>
				<g>
					<path style="fill:#241726;" d="M376.22,262.227c-0.24,0-0.484-0.081-0.684-0.247c-0.457-0.378-0.522-1.056-0.143-1.514       c2.689-3.252,26.383-31.828,30.123-33.698c0.532-0.262,1.176-0.049,1.442,0.481c0.266,0.531,0.05,1.177-0.481,1.442       c-2.508,1.254-19.381,20.997-29.428,33.146C376.837,262.094,376.53,262.227,376.22,262.227z"/>
				</g>
				<g>
					<path style="fill:#241726;" d="M302.082,337.553c-0.065,0-0.131-0.006-0.197-0.019c-0.571-0.111-0.955-0.632-0.86-1.206       c0.631-3.788,25.159-28.986,30.07-33.999c0.416-0.422,1.095-0.431,1.52-0.015c0.424,0.415,0.43,1.096,0.016,1.52       c-13.911,14.199-28.973,30.54-29.486,32.852C303.033,337.189,302.58,337.553,302.082,337.553z"/>
				</g>
			</g>
			<g>
				<g>
					<g>
						<path style="fill:#009E98;" d="M185.225,304.662c0,0-23.669,10.047-22.988,12.771c0.681,2.725,15.836,38.314,19.923,38.314        c4.087,0,24.265-12.26,24.265-12.26l-3.831-7.407l-16.603,7.918l-3.321-6.811l14.559-8.003l-4.342-7.663l-14.304,5.449        l-2.554-6.471l12.771-6.896L185.225,304.662z"/>
					</g>
					<g>
						<path style="fill:#241726;" d="M182.159,356.822c-5.586,0-20.868-38.737-20.965-39.128c-0.224-0.894-0.905-3.616,23.61-14.022        c0.267-0.113,0.567-0.113,0.833-0.002c0.267,0.11,0.478,0.324,0.585,0.593l3.576,8.94c0.203,0.507-0.007,1.085-0.487,1.345        l-11.932,6.444l1.814,4.595l13.311-5.071c0.494-0.188,1.057,0.012,1.318,0.474l4.342,7.663        c0.142,0.25,0.177,0.547,0.099,0.823c-0.079,0.277-0.265,0.51-0.516,0.649l-13.662,7.51l2.405,4.934l15.641-7.46        c0.525-0.251,1.15-0.038,1.418,0.477l3.831,7.407c0.259,0.502,0.086,1.119-0.397,1.412        C204.891,345.676,186.424,356.822,182.159,356.822z M163.325,317.346c1.399,4.97,15.567,36.276,18.873,37.326        c2.737-0.065,15.057-6.918,22.809-11.585l-2.891-5.59l-15.664,7.47c-0.533,0.258-1.17,0.03-1.43-0.499l-3.319-6.812        c-0.252-0.515-0.055-1.137,0.448-1.413l13.605-7.479l-3.35-5.913l-13.443,5.12c-0.546,0.213-1.166-0.062-1.381-0.61        l-2.554-6.47c-0.2-0.506,0.009-1.082,0.488-1.34l11.928-6.442l-2.811-7.029C174.875,310.279,164.349,315.584,163.325,317.346z        "/>
					</g>
				</g>
				<g>
					<g>
						<path style="fill:#009E98;" d="M201.593,313.643c0,0,13.754-7.298,14.315-6.456c0.561,0.842,1.965,5.333,1.965,5.333        s-13.754,7.017-14.596,6.736C202.435,318.977,201.593,313.643,201.593,313.643z"/>
					</g>
					<g>
						<path style="fill:#241726;" d="M203.342,320.341c-0.115,0-0.294-0.027-0.403-0.063c-0.475-0.16-1.463-0.489-2.407-6.467        c-0.072-0.453,0.152-0.903,0.557-1.118c2.94-1.559,12.681-6.647,14.614-6.647c0.639,0,0.964,0.342,1.099,0.546        c0.6,0.9,1.756,4.521,2.096,5.609c0.156,0.5-0.07,1.039-0.537,1.277C213.339,316.041,204.707,320.341,203.342,320.341z         M202.782,314.23c0.271,1.507,0.646,3.092,0.945,3.834c1.793-0.635,7.508-3.38,12.844-6.087        c-0.463-1.429-0.979-2.9-1.311-3.684C213.458,308.838,207.89,311.542,202.782,314.23z"/>
					</g>
				</g>
				<g>
					<g>
						<path style="fill:#009E98;" d="M208.049,324.31c0,0,13.754-7.298,14.315-6.456c0.561,0.842,1.965,5.333,1.965,5.333        s-13.754,7.017-14.596,6.736C208.891,329.643,208.049,324.31,208.049,324.31z"/>
					</g>
					<g>
						<path style="fill:#241726;" d="M209.797,331.006c-0.115,0-0.295-0.027-0.405-0.064c-0.473-0.157-1.46-0.486-2.404-6.465        c-0.072-0.453,0.152-0.903,0.557-1.118c2.939-1.559,12.678-6.648,14.613-6.648c0.64,0,0.965,0.343,1.1,0.547        c0.6,0.9,1.756,4.521,2.096,5.609c0.156,0.5-0.07,1.039-0.537,1.277C219.795,326.707,211.165,331.006,209.797,331.006z         M209.239,324.896c0.271,1.507,0.646,3.091,0.944,3.833c1.794-0.634,7.509-3.379,12.845-6.086        c-0.463-1.43-0.979-2.9-1.311-3.684C219.914,319.503,214.346,322.207,209.239,324.896z"/>
					</g>
				</g>
				<g>
					<g>
						<path style="fill:#009E98;" d="M237.129,324.698c0,0-15.827-23.351-15.048-25.167c0.778-1.816,4.411-2.854,4.411-2.854        s3.113,4.411,3.373,3.632c0.259-0.778-0.01-7.055,3.632-7.784c3.892-0.778,7.784,4.93,7.784,4.93s-1.038-7.524,4.93-9.859        c4.559-1.784,16.345,18.94,16.345,20.497c0,1.557-7.005,4.67-7.005,4.67s-8.821-14.529-8.821-12.713s0.519,5.189-1.038,7.265        c-0.997,1.329-8.562-3.632-9.081-1.816s9.859,12.973,7.784,15.048C242.318,322.622,237.129,324.698,237.129,324.698z"/>
					</g>
					<g>
						<path style="fill:#241726;" d="M237.129,325.773c-0.347,0-0.684-0.17-0.89-0.472c-16.156-23.837-15.396-25.61-15.146-26.192        c0.953-2.222,4.681-3.344,5.103-3.465c0.438-0.12,0.91,0.041,1.172,0.414c0.516,0.731,1.124,1.534,1.647,2.175        c0.273-2.377,1.049-6.115,4.27-6.76c2.665-0.532,5.251,1.361,6.931,3.055c0.357-2.934,1.782-6.437,5.602-7.932        c0.31-0.121,0.643-0.183,0.991-0.183c5.751,0,16.821,19.628,16.821,21.68c0,1.497-2.572,3.399-7.643,5.653        c-0.496,0.223-1.075,0.038-1.355-0.425c-2.38-3.918-5.055-8.117-6.744-10.525c0.001,1.731-0.213,3.665-1.337,5.163        c-0.226,0.301-0.667,0.659-1.484,0.659c-1.069,0.001-2.618-0.632-4.258-1.3c-0.996-0.406-2.184-0.891-2.963-1.075        c0.519,0.94,1.909,2.916,2.977,4.432c3.847,5.463,6.058,8.906,4.332,10.632c-2.205,2.206-7.405,4.301-7.626,4.39        C237.398,325.747,237.264,325.773,237.129,325.773z M223.146,299.806c0.425,2.063,7.471,13.327,14.378,23.558        c1.489-0.651,4.677-2.144,6.11-3.577c0.274-0.996-2.998-5.642-4.57-7.874c-2.848-4.044-3.814-5.562-3.487-6.71        c0.08-0.277,0.441-1.184,1.754-1.184c1.08,0,2.639,0.636,4.289,1.31c1.19,0.485,2.659,1.084,3.353,1.138        c0.891-1.406,0.792-3.61,0.719-5.239c-0.019-0.435-0.037-0.833-0.037-1.178c0-0.594,0.569-1.232,1.163-1.232        c0.664,0,1.489,0.001,9.154,12.571c2.639-1.246,5.016-2.695,5.479-3.354c-0.85-3.062-10.941-19.473-14.641-19.473        c-5.301,2.028-4.5,8.476-4.463,8.749c0.066,0.493-0.216,0.968-0.68,1.146c-0.465,0.183-0.991,0.016-1.273-0.395        c-0.925-1.351-4.004-5.027-6.685-4.483c-2.171,0.435-2.496,4.112-2.652,5.88c-0.051,0.576-0.082,0.925-0.17,1.189        c-0.147,0.44-0.674,0.828-1.137,0.828c-0.445,0-1.106,0-3.671-3.531C224.928,298.374,223.584,299.088,223.146,299.806z"/>
					</g>
				</g>
				<g>
					<g>
						<path style="fill:#009E98;" d="M265.622,277.996c0,0-9.081,2.595-7.784,10.897c1.297,8.302,7.524,14.27,13.491,12.194        c5.967-2.076,9.6-8.821,8.043-10.378c-1.557-1.557-4.67-2.595-5.708-1.557c-1.038,1.038-3.373,5.448-5.967,3.632        s-4.67-5.967-1.557-7.265c3.113-1.297,3.892-1.557,3.373-3.113C268.995,280.85,267.179,277.996,265.622,277.996z"/>
					</g>
					<g>
						<path style="fill:#241726;" d="M268.902,302.577c-5.708,0-10.92-5.811-12.125-13.517c-1.142-7.31,5.094-11.109,8.55-12.097        c0.096-0.027,0.195-0.041,0.295-0.041c2.439,0,4.454,3.771,4.912,5.145c0.816,2.451-0.775,3.112-3.661,4.313l-0.318,0.132        c-0.721,0.3-0.855,0.727-0.892,1.065c-0.134,1.245,1.079,3.227,2.651,4.327c0.231,0.162,0.446,0.239,0.66,0.239        c1.03,0,2.298-1.676,3.055-2.678c0.343-0.454,0.641-0.839,0.875-1.073c0.334-0.335,0.958-0.733,2.036-0.733        c1.682,0,3.865,0.963,5.191,2.289c0.45,0.449,0.909,1.322,0.543,2.92c-0.632,2.755-3.84,7.441-8.993,9.233        C270.777,302.417,269.841,302.577,268.902,302.577z M265.736,279.086c-1.23,0.404-7.887,2.916-6.835,9.642        c1.026,6.56,5.418,11.699,10.001,11.699c0.699,0,1.397-0.119,2.074-0.355c3.732-1.298,6.64-4.7,7.48-7.242        c0.294-0.888,0.194-1.305,0.151-1.368c-0.909-0.908-2.556-1.652-3.665-1.652c-0.339,0-0.488,0.075-0.516,0.103        c-0.185,0.185-0.411,0.493-0.681,0.849c-1.063,1.407-2.671,3.531-4.77,3.531c-0.66,0-1.297-0.211-1.892-0.628        c-1.911-1.337-3.807-4.006-3.556-6.319c0.139-1.284,0.922-2.285,2.202-2.818l0.319-0.133c1.166-0.485,2.372-0.987,2.548-1.248        l0,0c-0.007,0-0.005-0.112-0.102-0.4C267.983,281.213,266.503,279.276,265.736,279.086z"/>
					</g>
				</g>
				<g>
					<g>
						<path style="fill:#009E98;" d="M264.748,266.769c0,0,1.403-7.017,5.614-3.368s-1.403,13.192,0,12.912        c1.403-0.281,6.736-5.333,7.579-5.333"/>
					</g>
					<g>
						<path style="fill:#241726;" d="M270.382,277.384c-0.351,0-0.776-0.156-0.989-0.393c-0.598-0.662-0.334-1.517,0.248-3.387        c0.86-2.772,2.3-7.412,0.017-9.391c-0.754-0.652-1.372-0.903-1.858-0.739c-1.052,0.36-1.801,2.517-1.999,3.506        c-0.117,0.583-0.689,0.963-1.265,0.843c-0.581-0.117-0.959-0.682-0.843-1.265c0.087-0.434,0.921-4.266,3.41-5.118        c1.254-0.431,2.586-0.044,3.962,1.148c3.344,2.899,1.644,8.379,0.628,11.653c-0.004,0.012-0.007,0.022-0.01,0.033        c0.761-0.57,1.633-1.272,2.277-1.79c2.556-2.058,3.28-2.58,3.98-2.58c0.594,0,1.075,0.481,1.075,1.075        c0,0.532-0.386,0.973-0.893,1.059c-0.442,0.211-1.807,1.31-2.814,2.12c-2.539,2.045-3.834,3.028-4.735,3.208        C270.513,277.378,270.449,277.384,270.382,277.384z"/>
					</g>
				</g>
			</g>
		</g>
	</g>
	<g>
		<path style="fill:#241726;" d="M217.206,486.151c-0.788,0-1.535,0-3.599-8.215c-6.956-1.338-7.547-2.133-7.775-2.438    c-0.198-0.268-0.284-0.756-0.194-1.077c0.127-0.448,0.421-1.487,8.374-4.694c2.858-7.448,3.832-7.449,4.481-7.449    c0.339,0,0.804,0.242,1.007,0.514c0.514,0.69,0.978,2.474,1.68,5.332c0.218,0.887,0.482,1.958,0.634,2.434    c0.42,0.186,1.334,0.513,2.093,0.786c4.098,1.468,5.155,1.969,5.348,2.954c0.073,0.372-0.115,0.912-0.397,1.165    c-0.833,0.746-4.779,2.212-6.855,2.951c-3.369,7.664-4.094,7.702-4.735,7.737C217.249,486.151,217.225,486.151,217.206,486.151z     M208.581,474.573c1.395,0.399,3.908,0.969,6.1,1.377c0.415,0.078,0.745,0.39,0.846,0.8c0.562,2.273,1.294,4.863,1.825,6.358    c0.77-1.392,1.928-3.829,2.868-5.983c0.12-0.273,0.347-0.485,0.629-0.584c1.874-0.659,3.988-1.467,5.318-2.048    c-0.927-0.389-2.174-0.836-2.985-1.127c-2.338-0.838-2.778-1.019-3.082-1.426c-0.263-0.355-0.426-0.943-1.007-3.303    c-0.216-0.877-0.546-2.219-0.842-3.234c-0.692,1.327-1.651,3.554-2.397,5.527c-0.107,0.281-0.327,0.506-0.607,0.617    C212.812,472.519,210.048,473.757,208.581,474.573z"/>
	</g>
	<g>
		<path style="fill:#241726;" d="M302.929,41.693c-0.789,0-1.536,0-3.599-8.215c-6.956-1.338-7.548-2.133-7.776-2.438    c-0.198-0.268-0.284-0.757-0.193-1.078c0.126-0.447,0.42-1.486,8.374-4.693c2.857-7.448,3.831-7.449,4.481-7.449    c0.339,0,0.804,0.242,1.007,0.514c0.513,0.69,0.977,2.473,1.679,5.329c0.218,0.888,0.482,1.96,0.634,2.437    c0.42,0.186,1.334,0.513,2.093,0.786c4.098,1.468,5.155,1.969,5.348,2.954c0.073,0.372-0.115,0.912-0.397,1.165    c-0.831,0.746-4.779,2.212-6.855,2.951c-3.369,7.663-4.092,7.702-4.734,7.737C302.972,41.693,302.948,41.693,302.929,41.693z     M294.302,30.116c1.395,0.399,3.908,0.969,6.101,1.377c0.415,0.078,0.745,0.39,0.846,0.8c0.561,2.273,1.294,4.863,1.824,6.358    c0.77-1.393,1.928-3.829,2.868-5.983c0.12-0.273,0.347-0.485,0.629-0.584c1.874-0.659,3.989-1.467,5.32-2.048    c-0.928-0.388-2.175-0.836-2.986-1.127c-2.338-0.838-2.778-1.019-3.082-1.426c-0.265-0.355-0.426-0.944-1.008-3.306    c-0.215-0.876-0.545-2.216-0.84-3.231c-0.692,1.327-1.651,3.554-2.397,5.527c-0.107,0.281-0.327,0.506-0.607,0.617    C298.534,28.062,295.77,29.299,294.302,30.116z"/>
	</g>
	<g>
		<path style="fill:#241726;" d="M29.472,203.831c-0.789,0-1.536,0-3.599-8.215c-6.956-1.338-7.548-2.132-7.775-2.436    c-0.199-0.268-0.285-0.758-0.194-1.079c0.127-0.448,0.421-1.487,8.374-4.694c2.857-7.448,3.831-7.449,4.481-7.449    c0.339,0,0.804,0.242,1.007,0.514c0.513,0.689,0.976,2.472,1.678,5.326c0.219,0.89,0.483,1.964,0.636,2.441    c0.42,0.186,1.335,0.514,2.095,0.786c4.096,1.468,5.153,1.969,5.345,2.954c0.073,0.372-0.115,0.912-0.397,1.164    c-0.831,0.746-4.779,2.213-6.855,2.952c-3.369,7.664-4.094,7.702-4.735,7.736C29.514,203.831,29.491,203.831,29.472,203.831z     M20.845,192.253c1.395,0.399,3.908,0.969,6.101,1.377c0.415,0.078,0.745,0.39,0.846,0.8c0.561,2.273,1.294,4.864,1.824,6.358    c0.77-1.392,1.928-3.828,2.868-5.982c0.12-0.273,0.347-0.485,0.629-0.584c1.873-0.659,3.988-1.467,5.318-2.048    c-0.926-0.389-2.172-0.836-2.982-1.126c-2.341-0.839-2.782-1.02-3.085-1.429c-0.263-0.354-0.426-0.944-1.009-3.309    c-0.215-0.875-0.544-2.214-0.839-3.228c-0.692,1.327-1.651,3.554-2.397,5.527c-0.107,0.281-0.327,0.506-0.607,0.617    C25.077,190.199,22.312,191.438,20.845,192.253z"/>
	</g>
	<g>
		<path style="fill:#241726;" d="M476.597,248.256c-0.789,0-1.537,0-3.599-8.214c-6.956-1.338-7.548-2.133-7.775-2.438    c-0.199-0.268-0.285-0.757-0.194-1.078c0.126-0.447,0.42-1.486,8.374-4.693c2.857-7.449,3.831-7.45,4.481-7.45    c0.339,0,0.804,0.242,1.007,0.514c0.513,0.69,0.976,2.472,1.677,5.324c0.219,0.891,0.484,1.966,0.637,2.444    c0.42,0.186,1.335,0.514,2.095,0.786c4.097,1.468,5.154,1.969,5.345,2.954c0.073,0.372-0.115,0.912-0.397,1.165    c-0.831,0.745-4.779,2.212-6.855,2.951c-3.369,7.664-4.094,7.702-4.735,7.736C476.639,248.256,476.616,248.256,476.597,248.256z     M467.97,236.68c1.395,0.399,3.908,0.969,6.102,1.377c0.415,0.078,0.745,0.39,0.846,0.8c0.561,2.273,1.294,4.863,1.824,6.357    c0.77-1.392,1.928-3.828,2.868-5.982c0.12-0.273,0.347-0.485,0.629-0.584c1.874-0.659,3.988-1.467,5.318-2.049    c-0.926-0.388-2.172-0.834-2.982-1.125c-2.341-0.839-2.782-1.02-3.085-1.429c-0.263-0.353-0.426-0.943-1.009-3.311    c-0.215-0.875-0.545-2.213-0.84-3.226c-0.691,1.327-1.65,3.554-2.396,5.527c-0.107,0.281-0.327,0.506-0.607,0.617    C472.202,234.626,469.439,235.863,467.97,236.68z"/>
	</g>
	<g>
		<g>
			<path style="fill:#241726;" d="M385.099,79.127c-0.162,0-0.465-0.063-0.611-0.133c-0.779-0.376-2.847-1.374,2.36-19.71     c0.108-0.38,0.417-0.671,0.803-0.756c10.19-2.242,25.275-5.72,32.74-7.766c-11.018,0.006-36.333,1.367-36.588,1.381     c-0.285,0.024-0.591-0.093-0.807-0.303c-1.33-1.292-7.944-7.916-7.56-11.375c0.169-1.521,2.272-1.521,3.283-1.521     c7.992,0,43.079,7.213,47.299,10.11c0.039,0.024,0.073,0.049,0.108,0.075c0.055,0.04,0.106,0.086,0.152,0.138     c0.025,0.025,0.046,0.049,0.065,0.075c0,0,0.001,0,0.002,0.001c0.045,0.059,0.083,0.121,0.114,0.185     c0.003,0.006,0.006,0.013,0.009,0.019c0.004,0.007,0.007,0.014,0.01,0.021c0.048,0.089,0.085,0.186,0.107,0.289     c0.125,0.583-0.193,1.071-0.484,1.431C422.809,55.363,388.915,79.127,385.099,79.127z M388.741,60.489     c-1.856,6.65-3.467,14.229-3.197,16.353c4.331-1.646,27.325-17.301,35.855-24.15C416.577,54.103,407.173,56.429,388.741,60.489z      M377.6,41.156c0.387,1.972,3.903,6.17,6.56,8.815c3.344-0.176,23.483-1.222,34.355-1.347c-10.819-2.921-32.596-7.53-39.798-7.53     C378.177,41.094,377.824,41.124,377.6,41.156z"/>
		</g>
		<g>
			<path style="fill:#241726;" d="M379.349,68.539c-0.478,0-0.896-0.06-1.225-0.2c-0.57-0.242-0.828-0.644-0.945-0.938     c-0.668-1.687,2.615-9.843,5.485-16.389c0.238-0.544,0.869-0.791,1.416-0.553c0.544,0.238,0.791,0.872,0.553,1.416     c-2.543,5.799-5.203,12.69-5.417,14.536c1.02,0.049,3.985-0.736,6.755-1.867c0.547-0.227,0.917,0.094,1.143,0.643     c0.225,0.55-0.146,1.271-0.695,1.495C384.787,67.348,381.597,68.539,379.349,68.539z"/>
		</g>
	</g>
	<g>
		<path style="fill:#241726;" d="M37.789,379.141c-0.002,0-0.033,0-0.035,0c-1.989-0.008-3.856-0.791-5.258-2.204    c-1.4-1.413-2.166-3.286-2.158-5.276c0.017-4.088,3.358-7.416,7.446-7.416c2.024,0.008,3.891,0.791,5.291,2.204    c1.4,1.413,2.167,3.286,2.159,5.275C45.218,375.814,41.877,379.141,37.789,379.141z M37.81,366.394    c-2.934,0-5.309,2.367-5.322,5.275c-0.006,1.416,0.538,2.749,1.536,3.755c0.996,1.004,2.325,1.561,3.74,1.567l0.025,1.075v-1.075    c2.909,0,5.284-2.367,5.296-5.275c0.006-1.416-0.54-2.749-1.536-3.753C40.553,366.957,39.225,366.401,37.81,366.394z"/>
	</g>
	<g>
		<path style="fill:#241726;" d="M46.388,89.656c-0.002,0-0.033,0-0.035,0c-1.989-0.008-3.856-0.791-5.258-2.204    c-1.4-1.413-2.166-3.286-2.158-5.276c0.017-4.088,3.358-7.416,7.446-7.416c2.024,0.008,3.891,0.791,5.291,2.204    c1.4,1.412,2.167,3.286,2.159,5.275C53.817,86.329,50.476,89.656,46.388,89.656z M46.409,76.91c-2.934,0-5.309,2.367-5.322,5.275    c-0.006,1.416,0.538,2.749,1.536,3.753c0.996,1.006,2.325,1.562,3.74,1.568l0.025,1.075v-1.075c2.909,0,5.284-2.367,5.296-5.275    c0.006-1.416-0.54-2.749-1.536-3.755C49.152,77.472,47.824,76.916,46.409,76.91z"/>
	</g>
	<g>
		<path style="fill:#241726;" d="M464.851,82.49c-0.002,0-0.033,0-0.035,0c-1.989-0.008-3.856-0.791-5.258-2.204    c-1.4-1.413-2.166-3.286-2.158-5.276c0.017-4.088,3.358-7.416,7.446-7.416c2.024,0.008,3.891,0.791,5.292,2.204    c1.4,1.413,2.166,3.286,2.158,5.276C472.28,79.163,468.939,82.49,464.851,82.49z M464.872,69.744    c-2.934,0-5.309,2.367-5.322,5.275c-0.006,1.416,0.538,2.749,1.536,3.755c0.996,1.004,2.325,1.561,3.74,1.567l0.025,1.075v-1.075    c2.909,0,5.284-2.367,5.296-5.275c0.006-1.416-0.538-2.749-1.536-3.753C467.616,70.306,466.287,69.75,464.872,69.744z"/>
	</g>
	<g>
		<path style="fill:#241726;" d="M479.181,456.528c-0.002,0-0.033,0-0.035,0c-1.989-0.008-3.855-0.791-5.257-2.204    c-1.4-1.412-2.167-3.286-2.159-5.275c0.018-4.09,3.359-7.417,7.447-7.417c2.023,0.008,3.89,0.791,5.291,2.204    c1.4,1.413,2.167,3.286,2.159,5.275C486.611,453.202,483.27,456.528,479.181,456.528z M479.203,443.781    c-2.933,0-5.31,2.367-5.323,5.276c-0.006,1.415,0.54,2.748,1.537,3.753c0.996,1.004,2.324,1.561,3.739,1.567l0.025,1.075v-1.075    c2.907,0,5.285-2.367,5.297-5.276c0.006-1.415-0.54-2.747-1.537-3.752C481.946,444.344,480.618,443.788,479.203,443.781z"/>
	</g>
	<g>
		<g>
			<path style="fill:#FFFFFF;" d="M15.337,311.739c0,0-2.066-15.686,13.032-10.611c15.099,5.075,10.179,19.437,4.423,14.523     c-5.756-4.915,5.044-21.583,16.598-14.161c11.554,7.422,8.97,21.824,0.774,22.887c-8.195,1.063,4.961-16.769,15.285-5.756     c10.324,11.013-12.217,31.091-21.435,23.709c-9.218-7.382-2.004-19.297,0.207-12.035c2.211,7.261-3.752,14.382-20.102,14.101     s-8.908-25.435-3.193-18.113s-3.773,15.586-15.306,6.96S7.245,306.784,15.337,311.739z"/>
		</g>
		<g>
			<path style="fill:#241726;" d="M25.05,345.478l-0.948-0.008c-5.367-0.092-9.146-2.839-10.483-7.571     c-2.818-0.361-5.789-1.664-8.641-3.797c-4.53-3.388-6.064-8.529-4.209-14.107c1.9-5.712,6.962-10.186,11.525-10.186     c0.646,0,1.27,0.084,1.871,0.253c-0.016-2.193,0.331-5.888,2.537-8.404c2.481-2.83,6.563-3.379,12.009-1.549     c2.089,0.702,3.92,1.613,5.459,2.714c4.362-4.589,10.571-5.598,15.8-2.238c4.993,3.208,8.028,8.138,8.286,13.361     c2.927,0.089,5.61,1.414,7.977,3.939c3.222,3.436,3.816,8.055,1.673,13.002c-3.256,7.515-12.147,14.108-19.029,14.108     c-2.158,0-4.02-0.614-5.535-1.827c-0.715-0.572-1.362-1.191-1.933-1.848C37.794,344.044,32.174,345.477,25.05,345.478z      M15.9,337.981c0.937,2.622,3.15,5.252,8.24,5.339l0.91,0.008c8.191-0.001,12.674-1.916,15.085-3.74     c-2.294-3.727-2.115-7.798-0.833-10.322c0.745-1.466,1.828-2.308,2.974-2.308c0.767,0,2.175,0.393,2.976,3.023     c1.107,3.638,0.291,7.195-2.239,9.905c0.492,0.568,1.053,1.105,1.675,1.604c1.123,0.9,2.534,1.355,4.191,1.355     c6.022,0,14.151-6.107,17.056-12.813c1.261-2.91,2.064-7.123-1.269-10.678c-1.957-2.087-4.129-3.182-6.462-3.26     c-0.503,5.015-3.647,8.797-7.901,9.348c-2.795,0.367-3.723-1.1-3.778-2.454c-0.119-2.961,4.137-7.932,9.586-8.887     c-0.208-4.546-2.885-8.869-7.302-11.707c-4.341-2.791-9.313-1.971-12.978,1.801c3.558,3.4,4.218,7.577,3.222,10.367     c-0.698,1.955-2.195,3.171-3.907,3.172c0,0-0.001,0-0.002,0c-1.025,0-2.08-0.439-3.051-1.267     c-3.182-2.717-2.165-8.015,0.698-11.986c-1.338-0.937-2.937-1.721-4.765-2.335c-4.55-1.53-7.805-1.234-9.704,0.923     c-2.605,2.964-1.927,8.475-1.921,8.53c0.054,0.41-0.133,0.815-0.481,1.04c-0.348,0.225-0.794,0.231-1.146,0.015     c-0.755-0.462-1.589-0.696-2.481-0.696c-3.632,0-7.887,3.909-9.486,8.715c-0.731,2.196-1.856,7.734,3.456,11.707     c2.313,1.73,4.68,2.846,6.924,3.274c-0.397-3.671,0.541-7.702,2.426-10.041c0.918-1.14,1.992-1.742,3.104-1.742     c0.771,0,1.927,0.303,3.055,1.749c2.037,2.61,2.5,5.555,1.269,8.078C21.833,336.178,19.134,337.78,15.9,337.981z M42.275,329.108     c-0.187,0-0.638,0.308-1.057,1.133c-0.93,1.832-1.085,4.933,0.526,7.84c1.774-2.1,2.291-4.712,1.45-7.473     C42.821,329.384,42.395,329.108,42.275,329.108z M18.719,326.021c-0.432,0-0.94,0.334-1.431,0.942     c-1.389,1.725-2.408,5.406-1.908,8.887c2.632-0.048,4.819-1.225,5.731-3.095c0.858-1.756,0.482-3.874-1.031-5.812     C19.752,326.522,19.249,326.021,18.719,326.021z M56.014,316.311c-4.357,0.986-7.404,4.982-7.339,6.591     c0.007,0.199,0.018,0.447,0.827,0.447c0.161,0,0.336-0.013,0.525-0.037C53.146,322.907,55.488,320.102,56.014,316.311z      M34.453,305.852c-2.451,3.431-2.919,7.312-0.963,8.982c0.576,0.492,1.148,0.753,1.655,0.753c0.001,0,0.001,0,0.001,0     c0.789-0.001,1.494-0.653,1.883-1.745C37.779,311.746,37.225,308.564,34.453,305.852z"/>
		</g>
	</g>
	<g>
		<g>
			<path style="fill:#FFFFFF;" d="M91.725,42.017c0,0-2.066-15.686,13.032-10.611s10.179,19.437,4.423,14.523     c-5.756-4.915,5.044-21.583,16.598-14.161s8.97,21.824,0.774,22.887s4.961-16.769,15.285-5.756     c10.324,11.013-12.217,31.091-21.435,23.709s-2.004-19.297,0.207-12.035c2.211,7.261-3.752,14.382-20.102,14.101     s-8.908-25.435-3.193-18.113c5.715,7.322-3.773,15.586-15.306,6.96S83.633,37.062,91.725,42.017z"/>
		</g>
		<g>
			<path style="fill:#241726;" d="M101.438,75.757l-0.948-0.008c-5.366-0.092-9.144-2.839-10.482-7.571     c-2.82-0.361-5.79-1.664-8.642-3.797c-4.53-3.388-6.065-8.53-4.209-14.107c1.899-5.712,6.962-10.187,11.525-10.187     c0.646,0,1.27,0.085,1.871,0.253c-0.016-2.193,0.331-5.888,2.537-8.404c2.482-2.831,6.562-3.38,12.009-1.549     c2.089,0.702,3.92,1.613,5.458,2.714c4.366-4.59,10.576-5.595,15.801-2.238c4.993,3.208,8.028,8.138,8.285,13.361     c2.928,0.09,5.61,1.415,7.978,3.94c3.222,3.436,3.816,8.054,1.673,13.002c-3.256,7.515-12.148,14.108-19.029,14.108     c-2.159,0-4.021-0.614-5.536-1.827c-0.715-0.572-1.362-1.191-1.933-1.847C114.181,74.323,108.56,75.756,101.438,75.757z      M92.289,68.259c0.937,2.623,3.149,5.253,8.239,5.341l0.91,0.008c8.19-0.001,12.673-1.916,15.084-3.739     c-2.293-3.728-2.114-7.799-0.832-10.323c0.745-1.466,1.828-2.308,2.974-2.308c0.767,0,2.175,0.393,2.976,3.023     c1.108,3.639,0.291,7.196-2.239,9.905c0.491,0.568,1.052,1.105,1.674,1.604c1.124,0.9,2.534,1.355,4.191,1.355     c6.023,0,14.152-6.107,17.058-12.813c1.261-2.91,2.064-7.123-1.269-10.678c-1.957-2.087-4.129-3.182-6.463-3.26     c-0.503,5.015-3.647,8.796-7.901,9.348c-0.289,0.037-0.557,0.055-0.803,0.055c0,0,0,0-0.001,0c-2.117,0-2.924-1.296-2.974-2.509     c-0.12-2.96,4.137-7.931,9.586-8.887c-0.207-4.547-2.884-8.87-7.301-11.708c-4.341-2.788-9.313-1.97-12.978,1.801     c3.558,3.4,4.218,7.578,3.222,10.368c-0.698,1.955-2.196,3.171-3.908,3.172h-0.001c-1.027,0-2.081-0.439-3.052-1.267     c-3.182-2.719-2.165-8.017,0.699-11.988c-1.339-0.936-2.937-1.72-4.765-2.334c-4.549-1.529-7.805-1.234-9.704,0.923     c-2.605,2.964-1.927,8.475-1.921,8.53c0.054,0.409-0.133,0.815-0.481,1.04c-0.348,0.226-0.794,0.232-1.146,0.015     c-0.755-0.462-1.589-0.696-2.481-0.696c-3.632,0-7.887,3.91-9.485,8.715c-0.731,2.197-1.856,7.734,3.456,11.708     c2.312,1.73,4.68,2.846,6.924,3.274c-0.398-3.671,0.541-7.701,2.425-10.04c0.919-1.141,1.993-1.744,3.105-1.744     c0.771,0,1.927,0.304,3.055,1.75c2.037,2.61,2.499,5.554,1.268,8.077C98.22,66.456,95.522,68.058,92.289,68.259z M118.663,59.387     c-0.187,0-0.638,0.308-1.057,1.132c-0.93,1.833-1.086,4.934,0.525,7.841c1.775-2.1,2.292-4.711,1.451-7.473     C119.209,59.663,118.783,59.387,118.663,59.387z M95.107,56.299c-0.432,0-0.942,0.335-1.431,0.943     c-1.389,1.725-2.408,5.406-1.908,8.887c2.632-0.049,4.818-1.226,5.731-3.095c0.856-1.756,0.481-3.874-1.031-5.812     C96.14,56.801,95.637,56.299,95.107,56.299z M132.401,46.59c-4.357,0.987-7.404,4.983-7.339,6.591     c0.007,0.198,0.018,0.446,0.826,0.446c0.161,0,0.337-0.013,0.526-0.037C129.533,53.185,131.874,50.38,132.401,46.59z      M110.84,36.129c-2.451,3.431-2.92,7.312-0.963,8.983c0.576,0.492,1.148,0.753,1.656,0.753l0,0     c0.79-0.001,1.495-0.653,1.884-1.744C114.166,42.025,113.613,38.842,110.84,36.129z"/>
		</g>
	</g>
	<g>
		<g>
			<g>
				<path style="fill:#FFFFFF;" d="M207.73,61.188l-76.934,104.763l-13.711-12.258c0,0,13.82-14.744,12.047-25.915      S139.093,71.188,207.73,61.188z"/>
			</g>
			<g>
				<path style="fill:#241726;" d="M130.796,167.026c-0.263,0-0.519-0.097-0.716-0.274l-13.711-12.258      c-0.216-0.192-0.345-0.464-0.358-0.754c-0.013-0.289,0.091-0.571,0.29-0.782c0.134-0.144,13.438-14.493,11.77-25.012      c-0.885-5.578,1.375-18.733,11.225-32.118c9.685-13.161,29.393-30.039,68.279-35.704c0.432-0.073,0.854,0.139,1.077,0.51      c0.223,0.371,0.202,0.84-0.056,1.189l-76.934,104.762c-0.179,0.245-0.453,0.402-0.755,0.432      C130.87,167.023,130.832,167.026,130.796,167.026z M118.605,153.611l12.025,10.749l74.696-101.715      c-36.461,5.907-55.071,21.916-64.299,34.458c-9.393,12.763-11.63,25.485-10.834,30.506      C131.803,137.762,121.522,150.295,118.605,153.611z"/>
			</g>
		</g>
		<g>
			<path style="fill:#FCCE5C;" d="M132.643,166.317c0,0-13.378-15.942-16.829-13.977c-3.452,1.965-47.08,50.462-49.558,59.49     c-2.478,9.027,40.137,37.589,45.765,31.32c18.178-20.25,6.61-38.568,11.628-62.535     C124.342,177.311,132.643,166.317,132.643,166.317z"/>
		</g>
		<g>
			<g>
				<path style="fill:#FFFFFF;" d="M107.675,188.251c0,0-2.512,30.374-8.424,30.693c-5.912,0.319-17.719-9.717-15.825-13.08      S108.011,183.489,107.675,188.251z"/>
			</g>
			<g>
				<path style="fill:#241726;" d="M98.97,220.026c-5.015,0-13.227-5.969-15.932-10.597c-0.964-1.649-1.148-3.026-0.548-4.091      c1.71-3.038,20.167-18.922,24.515-18.922c0.677,0,1.084,0.284,1.307,0.523c0.226,0.242,0.485,0.681,0.435,1.389      c-0.608,7.358-3.084,31.348-9.437,31.69L98.97,220.026z M106.563,188.643c-3.99,1.147-20.508,14.742-22.201,17.748      c-0.145,0.257-0.081,0.906,0.531,1.953c2.302,3.937,9.97,9.532,14.077,9.532l0.224-0.006      C102.232,217.707,105.361,202.667,106.563,188.643z"/>
			</g>
		</g>
		<g>
			<g>
				<path style="fill:#FFFFFF;" d="M250.554,128.551l-137.349,3.609l2.559,18.213c0,0,19.94-3.283,28.237,4.404      C152.298,162.465,204.199,186.295,250.554,128.551z"/>
			</g>
			<g>
				<path style="fill:#241726;" d="M181.913,167.284c-0.002,0-0.003,0-0.005,0c-19.639-0.001-34.511-7.895-38.637-11.718      c-4.295-3.979-12.104-4.815-17.899-4.815c-5.216,0-9.391,0.676-9.433,0.682c-0.284,0.055-0.577-0.023-0.811-0.194      c-0.233-0.172-0.387-0.43-0.427-0.717l-2.559-18.213c-0.043-0.302,0.046-0.61,0.244-0.844c0.198-0.233,0.486-0.372,0.792-0.38      l137.348-3.61c0.427,0.013,0.805,0.223,0.991,0.597c0.187,0.375,0.137,0.824-0.124,1.15      C226.14,160.679,199.672,167.284,181.913,167.284z M125.371,148.601c6.179,0,14.554,0.935,19.36,5.388      c3.925,3.636,18.174,11.144,37.176,11.145h0.005c16.945,0.001,42.06-6.209,66.326-35.448l-133.802,3.517l2.241,15.953      C118.289,148.947,121.527,148.601,125.371,148.601z"/>
			</g>
		</g>
		<g>
			<path style="fill:#FCCE5C;" d="M116.188,128.396c0,0,5.635,21.281,2.42,23.612c-3.215,2.332-64.179,20.879-73.424,19.407     c-9.245-1.472-17.656-52.079-9.621-54.615c25.95-8.191,47.341,12.746,59.628,13.538     C101.755,130.761,116.188,128.396,116.188,128.396z"/>
		</g>
		<g>
			<g>
				<path style="fill:#FFFFFF;" d="M83.765,143.434c0,0-28.7-10.257-31.432-5.005c-2.732,5.252,1.531,20.15,5.376,19.814      S88.24,145.094,83.765,143.434z"/>
			</g>
			<g>
				<path style="fill:#241726;" d="M57.581,159.323L57.581,159.323c-1.312,0-2.565-0.971-3.727-2.884      c-2.624-4.323-4.819-13.999-2.474-18.507c0.726-1.396,2.492-2.075,5.398-2.075c8.88,0,26.599,6.296,27.349,6.564      c1.018,0.378,1.286,1.183,1.201,1.811c-0.556,4.125-24.27,14.798-27.525,15.082C57.771,159.317,57.612,159.323,57.581,159.323z       M56.778,138.006c-2.797,0-3.38,0.702-3.492,0.918c-1.794,3.449-0.166,12.162,2.406,16.398c0.828,1.366,1.536,1.85,1.889,1.85      v1.075l0.035-1.076c3.469-0.303,22.825-9.816,25.35-12.88C80.103,143.296,64.527,138.006,56.778,138.006z"/>
			</g>
		</g>
		<g>
			<g>
				<circle style="fill:#FFFFFF;" cx="138.295" cy="140.497" r="6.016"/>
			</g>
			<g>
				<path style="fill:#241726;" d="M138.293,147.587c-1.738,0-3.41-0.636-4.711-1.793c-2.921-2.598-3.185-7.089-0.586-10.01      c2.498-2.809,7.194-3.091,10.011-0.586c1.415,1.259,2.256,2.994,2.366,4.884c0.11,1.891-0.522,3.712-1.781,5.127      C142.249,146.72,140.317,147.587,138.293,147.587z M138.297,135.556c-1.411,0-2.757,0.604-3.695,1.657      c-1.811,2.035-1.627,5.165,0.408,6.976c1.96,1.742,5.237,1.548,6.976-0.407c0.877-0.987,1.318-2.256,1.241-3.573      c-0.077-1.318-0.662-2.526-1.648-3.404C140.674,135.998,139.508,135.556,138.297,135.556z"/>
			</g>
		</g>
	</g>
	<g>
		<g>
			<g>
				<path style="fill:#FFFFFF;" d="M370.574,113.022c0,0-11.5,77.169-2.363,80.158c9.137,2.989,96.518,12.339,101.949,5.013      c5.431-7.327,14.456-78.212,4.687-85.453C465.079,105.498,370.574,113.022,370.574,113.022z"/>
			</g>
			<g>
				<path style="fill:#241726;" d="M450.994,202.009c-0.002,0-0.003,0-0.005,0c-27.621-0.001-76.185-5.542-83.111-7.807      c-9.518-3.113-0.31-68.301,1.633-81.338c0.073-0.494,0.48-0.873,0.978-0.913c0.431-0.034,43.47-3.432,74.152-3.432      c17.708,0,27.799,1.099,30.848,3.358c6.221,4.612,5.042,29.329,3.786,43.652c-1.573,17.937-5.09,39.04-8.25,43.305      C470.014,200.196,466.838,202.009,450.994,202.009z M371.511,114.028c-4.666,31.626-8.622,76.281-2.966,78.131      c6.831,2.234,54.982,7.699,82.443,7.7h0.005c15.4,0,17.902-1.765,18.303-2.307c2.542-3.428,6.131-22.759,7.837-42.212      c2.01-22.917,0.889-38.91-2.925-41.736c-1.806-1.339-8.402-2.936-29.567-2.936C416.433,110.668,377.721,113.55,371.511,114.028z      "/>
			</g>
		</g>
		<g>
			<g>
				<g>
					<line style="fill:#FFFFFF;" x1="494.677" y1="133.371" x2="491.453" y2="187.112"/>
				</g>
				<g>
					<path style="fill:#241726;" d="M491.454,188.187c-0.021,0-0.042-0.001-0.065-0.002c-0.592-0.036-1.043-0.545-1.008-1.137       l3.224-53.741c0.034-0.593,0.477-1.049,1.138-1.009c0.592,0.036,1.043,0.545,1.008,1.137l-3.224,53.741       C492.493,187.747,492.018,188.187,491.454,188.187z"/>
				</g>
			</g>
			<g>
				<g>
					<path style="fill:#FFFFFF;" d="M487.345,193.209c0,0-3.009,9.43-2.608,11.035"/>
				</g>
				<g>
					<path style="fill:#241726;" d="M484.715,205.289c-0.475,0-0.9-0.302-1.02-0.784c-0.43-1.716,1.694-8.7,2.627-11.623       c0.179-0.567,0.781-0.886,1.351-0.697c0.565,0.179,0.878,0.785,0.697,1.35c-1.374,4.305-2.754,9.526-2.587,10.457       c0.102,0.57-0.26,1.149-0.827,1.271C484.876,205.28,484.795,205.289,484.715,205.289z"/>
				</g>
			</g>
			<g>
				<g>
					<path style="fill:#FFFFFF;" d="M491.805,193.666c0,0-1.362,9.804-0.694,11.318"/>
				</g>
				<g>
					<path style="fill:#241726;" d="M491.08,206.034c-0.401,0-0.777-0.223-0.951-0.616c-0.716-1.619,0.189-8.861,0.611-11.9       c0.082-0.588,0.657-1,1.211-0.916c0.59,0.082,0.999,0.625,0.917,1.212c-0.621,4.475-1.094,9.855-0.77,10.744       c0.197,0.545-0.061,1.177-0.598,1.393C491.361,206.007,491.221,206.034,491.08,206.034z"/>
				</g>
			</g>
			<g>
				<g>
					<path style="fill:#FFFFFF;" d="M496.939,204.981c0,0-0.117-9.898-1.003-11.294"/>
				</g>
				<g>
					<path style="fill:#241726;" d="M496.939,206.056c-0.588,0-1.069-0.473-1.075-1.062c-0.052-4.519-0.39-9.91-0.842-10.74       c-0.275-0.509-0.115-1.173,0.384-1.467c0.498-0.292,1.125-0.166,1.436,0.323c0.949,1.494,1.136,8.791,1.171,11.859       c0.006,0.594-0.468,1.08-1.062,1.087C496.947,206.056,496.943,206.056,496.939,206.056z"/>
				</g>
			</g>
			<g>
				<circle style="fill:#FCCE5C;" cx="491.859" cy="190.901" r="7.925"/>
			</g>
		</g>
		<g>
			<g>
				<path style="fill:#FFFFFF;" d="M436.432,77.099c0,0-98.895,31.847-92.19,40.228c6.705,8.381,68.723,60.343,77.104,58.666      c8.381-1.676,81.574-30.73,83.25-40.787S436.432,77.099,436.432,77.099z"/>
			</g>
			<g>
				<path style="fill:#241726;" d="M420.907,177.108L420.907,177.108c-10.559-0.002-71.211-51.242-77.505-59.109      c-0.548-0.686-0.699-1.508-0.438-2.38c3.092-10.278,83.93-36.579,93.138-39.544c0.316-0.105,0.664-0.051,0.938,0.137      c7.207,4.958,70.355,48.74,68.616,59.17c-1.902,11.402-77.363,40.316-84.101,41.664      C421.359,177.087,421.143,177.108,420.907,177.108z M436.258,78.285c-35.728,11.527-89.148,31.022-91.235,37.955      c-0.069,0.232-0.017,0.322,0.059,0.417c7.251,9.065,67.045,58.301,75.825,58.303c0.083,0,0.158-0.005,0.228-0.019      c9.637-1.927,80.897-30.887,82.402-39.909C504.668,128.232,463.06,96.756,436.258,78.285z"/>
			</g>
		</g>
	</g>
	<g>
		<path style="fill:#241726;" d="M393.283,494.18c-1.282,0-2.577-0.037-3.885-0.111c-0.593-0.034-1.046-0.542-1.012-1.134    c0.034-0.593,0.535-1.033,1.134-1.012c1.268,0.072,2.521,0.107,3.763,0.107l0.466-0.002c0.002,0,0.005,0,0.007,0    c0.59,0,1.071,0.477,1.075,1.067c0.004,0.594-0.474,1.078-1.067,1.082L393.283,494.18z M398.049,494.008    c-0.558,0-1.03-0.431-1.071-0.997c-0.043-0.592,0.402-1.106,0.994-1.149c1.422-0.104,2.825-0.253,4.204-0.445    c0.588-0.087,1.13,0.327,1.212,0.916c0.082,0.588-0.329,1.13-0.916,1.212c-1.439,0.2-2.901,0.355-4.344,0.46    C398.102,494.007,398.075,494.008,398.049,494.008z M385.181,493.688c-0.043,0-0.086-0.002-0.129-0.007    c-1.425-0.172-2.864-0.39-4.316-0.657c-0.584-0.107-0.97-0.668-0.863-1.251c0.107-0.584,0.663-0.975,1.251-0.863    c1.408,0.258,2.802,0.47,4.184,0.636c0.59,0.071,1.01,0.607,0.939,1.196C386.181,493.287,385.717,493.688,385.181,493.688z     M406.557,492.821c-0.499,0-0.946-0.348-1.052-0.856c-0.121-0.58,0.253-1.15,0.834-1.271c1.37-0.284,2.751-0.619,4.105-0.997    c0.567-0.156,1.164,0.173,1.324,0.746c0.16,0.572-0.174,1.164-0.746,1.324c-1.4,0.39-2.829,0.738-4.246,1.033    C406.703,492.814,406.63,492.821,406.557,492.821z M376.727,492.139c-0.085,0-0.171-0.009-0.257-0.03    c-1.39-0.341-2.791-0.728-4.202-1.163c-0.568-0.175-0.886-0.777-0.712-1.344c0.175-0.566,0.776-0.888,1.344-0.712    c1.371,0.422,2.732,0.799,4.082,1.129c0.576,0.142,0.929,0.724,0.788,1.301C377.65,491.81,377.21,492.139,376.727,492.139z     M414.834,490.512c-0.443,0-0.858-0.276-1.014-0.717c-0.197-0.561,0.097-1.175,0.656-1.372c1.326-0.467,2.65-0.986,3.935-1.54    c0.549-0.238,1.177,0.016,1.413,0.561c0.235,0.546-0.016,1.178-0.56,1.413c-1.331,0.574-2.701,1.111-4.072,1.594    C415.073,490.492,414.952,490.512,414.834,490.512z M368.513,489.616c-0.124,0-0.25-0.021-0.373-0.066    c-1.339-0.494-2.688-1.033-4.043-1.615c-0.546-0.235-0.798-0.867-0.564-1.412c0.235-0.547,0.871-0.796,1.412-0.564    c1.321,0.568,2.635,1.092,3.94,1.573c0.556,0.206,0.841,0.824,0.636,1.381C369.361,489.347,368.949,489.616,368.513,489.616z     M422.724,487.108c-0.389,0-0.765-0.212-0.956-0.583c-0.272-0.528-0.065-1.176,0.463-1.447c1.256-0.648,2.496-1.342,3.684-2.066    c0.51-0.306,1.169-0.146,1.477,0.36c0.309,0.507,0.147,1.168-0.36,1.477c-1.231,0.748-2.515,1.468-3.816,2.139    C423.058,487.07,422.89,487.108,422.724,487.108z M360.612,486.226c-0.156,0-0.316-0.035-0.466-0.107    c-1.333-0.643-2.623-1.282-3.871-1.915c-0.53-0.269-0.741-0.915-0.472-1.444c0.268-0.53,0.914-0.745,1.444-0.472    c1.235,0.627,2.513,1.259,3.833,1.896c0.534,0.258,0.759,0.901,0.501,1.435C361.396,486.003,361.012,486.226,360.612,486.226z     M430.065,482.642c-0.336,0-0.667-0.156-0.876-0.451c-0.344-0.483-0.232-1.155,0.252-1.499c1.147-0.818,2.271-1.684,3.34-2.576    c0.458-0.38,1.135-0.318,1.515,0.138c0.38,0.457,0.318,1.134-0.138,1.515c-1.112,0.926-2.279,1.825-3.47,2.674    C430.499,482.577,430.28,482.642,430.065,482.642z M294.24,482.518c-0.002,0-0.004,0-0.007,0    c-1.496-0.009-2.989-0.132-4.438-0.365c-0.587-0.094-0.986-0.646-0.891-1.231c0.094-0.588,0.637-0.985,1.231-0.891    c1.341,0.215,2.725,0.33,4.112,0.338c0.593,0.004,1.072,0.488,1.067,1.082C295.31,482.041,294.831,482.518,294.24,482.518z     M352.95,482.336c-0.171,0-0.345-0.041-0.507-0.127c-1.314-0.705-2.577-1.401-3.787-2.09c-0.516-0.294-0.697-0.95-0.403-1.465    c0.293-0.517,0.952-0.699,1.465-0.403c1.196,0.68,2.441,1.368,3.741,2.062c0.523,0.28,0.72,0.932,0.44,1.456    C353.704,482.131,353.333,482.336,352.95,482.336z M298.525,482.24c-0.53,0-0.992-0.392-1.064-0.932    c-0.079-0.588,0.334-1.129,0.923-1.208c1.339-0.179,2.713-0.453,4.084-0.813c0.575-0.149,1.162,0.192,1.312,0.766    c0.151,0.574-0.192,1.162-0.766,1.312c-1.456,0.383-2.917,0.674-4.344,0.866C298.621,482.237,298.573,482.24,298.525,482.24z     M285.794,481.156c-0.11,0-0.224-0.017-0.335-0.054c-1.396-0.458-2.78-1.032-4.116-1.709c-0.529-0.268-0.741-0.914-0.472-1.444    c0.268-0.531,0.912-0.744,1.444-0.472c1.237,0.627,2.52,1.159,3.813,1.583c0.564,0.185,0.871,0.791,0.686,1.356    C286.668,480.868,286.247,481.156,285.794,481.156z M306.835,480.105c-0.437,0-0.847-0.268-1.008-0.701    c-0.207-0.556,0.078-1.176,0.634-1.381c1.293-0.48,2.593-1.032,3.863-1.643c0.536-0.261,1.178-0.03,1.435,0.503    c0.257,0.535,0.031,1.178-0.503,1.435c-1.33,0.639-2.692,1.218-4.047,1.72C307.086,480.084,306.959,480.105,306.835,480.105z     M345.481,478.08c-0.191,0-0.384-0.05-0.558-0.157c-1.287-0.784-2.507-1.559-3.662-2.321c-0.495-0.327-0.632-0.994-0.305-1.489    c0.327-0.494,0.994-0.631,1.489-0.305c1.135,0.749,2.333,1.509,3.597,2.281c0.507,0.309,0.668,0.97,0.358,1.477    C346.196,477.897,345.843,478.08,345.481,478.08z M278.145,477.301c-0.212,0-0.426-0.063-0.613-0.193    c-1.185-0.825-2.352-1.754-3.468-2.759c-0.442-0.398-0.477-1.077-0.08-1.518c0.398-0.443,1.078-0.475,1.518-0.08    c1.051,0.947,2.146,1.819,3.258,2.594c0.487,0.339,0.607,1.009,0.268,1.496C278.819,477.141,278.485,477.301,278.145,477.301z     M436.656,477.131c-0.278,0-0.555-0.107-0.766-0.32c-0.416-0.423-0.411-1.104,0.012-1.521c1.018-1.001,1.98-2.037,2.858-3.079    c0.38-0.453,1.057-0.514,1.515-0.127c0.453,0.382,0.51,1.06,0.127,1.515c-0.921,1.091-1.927,2.175-2.99,3.223    C437.2,477.028,436.929,477.131,436.656,477.131z M314.576,476.386c-0.366,0-0.723-0.187-0.924-0.524    c-0.304-0.51-0.137-1.17,0.372-1.474c1.186-0.707,2.369-1.485,3.516-2.31c0.483-0.343,1.155-0.236,1.5,0.245    c0.346,0.482,0.237,1.154-0.245,1.5c-1.197,0.862-2.432,1.673-3.669,2.411C314.953,476.337,314.763,476.386,314.576,476.386z     M338.318,473.337c-0.218,0-0.44-0.066-0.63-0.205c-1.244-0.902-2.394-1.786-3.457-2.655c-0.461-0.375-0.529-1.052-0.153-1.511    c0.373-0.46,1.05-0.533,1.511-0.153c1.034,0.843,2.153,1.702,3.361,2.579c0.481,0.348,0.588,1.02,0.239,1.501    C338.979,473.183,338.651,473.337,338.318,473.337z M271.753,471.574c-0.296,0-0.59-0.122-0.803-0.36    c-0.96-1.078-1.891-2.233-2.766-3.433c-0.351-0.479-0.245-1.151,0.235-1.501c0.48-0.35,1.152-0.245,1.501,0.235    c0.834,1.143,1.721,2.243,2.636,3.27c0.395,0.443,0.355,1.122-0.088,1.518C272.263,471.484,272.008,471.574,271.753,471.574z     M321.55,471.374c-0.303,0-0.606-0.128-0.818-0.378c-0.385-0.451-0.332-1.129,0.121-1.515c1.06-0.904,2.1-1.866,3.092-2.86    c0.42-0.422,1.1-0.42,1.52-0.002c0.421,0.42,0.421,1.1,0.002,1.52c-1.033,1.035-2.116,2.037-3.22,2.978    C322.046,471.29,321.797,471.374,321.55,471.374z M442.181,470.558c-0.208,0-0.417-0.06-0.601-0.185    c-0.491-0.333-0.62-1.001-0.288-1.493c0.806-1.19,1.517-2.395,2.113-3.581c0.267-0.53,0.908-0.745,1.443-0.478    c0.53,0.267,0.744,0.913,0.478,1.443c-0.637,1.268-1.396,2.554-2.254,3.821C442.864,470.393,442.525,470.558,442.181,470.558z     M331.676,467.89c-0.266,0-0.531-0.098-0.739-0.294c-0.926-0.876-1.783-1.755-2.557-2.618c-0.39,0.39-1.024,0.422-1.455,0.058    c-0.452-0.385-0.508-1.063-0.123-1.516c0.913-1.076,1.785-2.193,2.59-3.319c0.346-0.484,1.018-0.596,1.499-0.25    c0.484,0.345,0.595,1.016,0.25,1.499c-0.443,0.619-0.905,1.236-1.381,1.844c0.79,0.898,1.681,1.819,2.655,2.74    c0.431,0.408,0.449,1.088,0.042,1.52C332.245,467.778,331.96,467.89,331.676,467.89z M266.68,464.63    c-0.366,0-0.723-0.187-0.925-0.525c-1.375-2.307-2.047-3.885-2.074-3.951c-0.231-0.547,0.024-1.177,0.571-1.409    c0.547-0.23,1.177,0.025,1.409,0.571c0.006,0.015,0.649,1.519,1.942,3.688c0.303,0.51,0.136,1.169-0.374,1.474    C267.056,464.582,266.866,464.63,266.68,464.63z M445.979,462.879c-0.104,0-0.209-0.015-0.314-0.047    c-0.568-0.173-0.888-0.774-0.714-1.341c0.419-1.371,0.668-2.703,0.741-3.96c0.034-0.593,0.537-1.032,1.135-1.011    c0.593,0.035,1.045,0.543,1.011,1.135c-0.083,1.429-0.362,2.931-0.831,4.464C446.866,462.581,446.44,462.879,445.979,462.879z     M326.142,461.35c-0.359,0-0.709-0.179-0.913-0.506c-0.868-1.391-1.528-2.77-1.961-4.1c-0.184-0.565,0.125-1.171,0.69-1.355    c0.562-0.183,1.17,0.126,1.355,0.69c0.378,1.164,0.964,2.385,1.74,3.628c0.314,0.503,0.161,1.166-0.343,1.481    C326.534,461.298,326.336,461.35,326.142,461.35z M332.605,458.292c-0.183,0-0.368-0.046-0.538-0.145    c-0.513-0.298-0.689-0.956-0.39-1.469c0.735-1.265,1.37-2.517,1.887-3.721c0.234-0.547,0.867-0.795,1.413-0.563    c0.545,0.235,0.797,0.867,0.563,1.413c-0.552,1.283-1.226,2.611-2.003,3.95C333.336,458.1,332.975,458.292,332.605,458.292z     M445.291,453.612l1.038-0.277l-1.042,0.264c-0.158-0.566,0.164-1.165,0.726-1.332c0.556-0.165,1.152,0.136,1.328,0.699    L445.291,453.612z M323.738,453.257c-0.029,0-0.06-0.001-0.089-0.003c-0.592-0.049-1.032-0.569-0.984-1.16    c0.136-1.64,0.664-3.16,1.572-4.523c0.326-0.494,0.993-0.628,1.49-0.298c0.493,0.329,0.628,0.996,0.298,1.49    c-0.703,1.055-1.113,2.235-1.218,3.507C324.761,452.832,324.291,453.257,323.738,453.257z M335.901,450.379    c-0.075,0-0.15-0.007-0.226-0.024c-0.58-0.124-0.951-0.695-0.826-1.275c0.164-0.768,0.247-1.466,0.247-2.077    c0-0.616-0.083-1.127-0.248-1.52c-0.23-0.547,0.027-1.177,0.575-1.406c0.543-0.232,1.178,0.027,1.406,0.575    c0.276,0.656,0.416,1.447,0.416,2.351c0,0.761-0.099,1.611-0.295,2.526C336.843,450.034,336.397,450.379,335.901,450.379z     M328.229,446.31c-0.36,0-0.712-0.181-0.915-0.509c-0.312-0.505-0.156-1.167,0.348-1.48c1.286-0.796,2.777-1.391,4.316-1.721    c0.58-0.13,1.151,0.245,1.276,0.825s-0.245,1.151-0.825,1.276c-1.299,0.28-2.557,0.781-3.636,1.448    C328.617,446.258,328.422,446.31,328.229,446.31z"/>
	</g>
	<g>
		<g>
			<g>
				<path style="fill:#FFFFFF;" d="M372.583,408.379c0,0-2.665,10.255-1.598,12.389s26.678,46.597,33.08,45.53      c6.403-1.067,72.919-44.463,77.543-66.872c0,0,18.141,10.671,19.919,9.96c1.779-0.711-1.423-16.007-1.423-16.007l-22.29-11.226      C477.815,382.154,388.441,413.188,372.583,408.379"/>
			</g>
			<g>
				<path style="fill:#241726;" d="M403.916,467.384c-8.129,0.003-33.656-45.664-33.893-46.135c-1.158-2.314,0.87-10.642,1.52-13.14      c0.15-0.575,0.738-0.926,1.311-0.769c0.574,0.149,0.918,0.736,0.769,1.311c-1.233,4.744-2.225,10.542-1.677,11.637      c3.487,6.974,27.053,45.719,31.942,44.95c5.927-0.988,72.204-44.4,76.667-66.029c0.07-0.339,0.3-0.625,0.617-0.765      c0.316-0.143,0.68-0.122,0.98,0.056c7.728,4.547,16.495,9.236,18.785,9.791c0.351-1.861-0.653-8.805-1.885-14.691      c-0.122-0.581,0.25-1.15,0.831-1.272c0.573-0.12,1.15,0.249,1.272,0.831c3.386,16.178,1.553,16.912,0.77,17.225      c-1.461,0.576-8.063-2.553-19.633-9.31c-7.112,23.39-72.056,65.286-78.053,66.284      C404.136,467.376,404.027,467.384,403.916,467.384z"/>
			</g>
		</g>
		<g>
			<g>
				<path style="fill:#FFFFFF;" d="M405.488,446.023c0,0-2.846,18.497-1.423,20.275"/>
			</g>
			<g>
				<path style="fill:#241726;" d="M404.101,467.39c-0.329,0-0.658-0.148-0.876-0.42c-1.494-1.868,0.111-14.028,1.201-21.11      c0.09-0.587,0.636-0.981,1.226-0.898c0.587,0.09,0.989,0.639,0.898,1.226c-1.285,8.35-2.265,18.176-1.61,19.493      c0.371,0.463,0.277,1.113-0.186,1.484C404.563,467.316,404.332,467.39,404.101,467.39z"/>
			</g>
		</g>
		<g>
			<g>
				<path style="fill:#FFFFFF;" d="M480.541,386.265c0,0-0.711,10.315,1.067,13.161"/>
			</g>
			<g>
				<path style="fill:#241726;" d="M481.609,400.501c-0.358,0-0.708-0.178-0.912-0.505c-1.909-3.053-1.304-12.713-1.229-13.804      c0.041-0.593,0.549-1.035,1.146-0.999c0.593,0.041,1.039,0.554,0.999,1.146c-0.266,3.854-0.254,10.661,0.906,12.517      c0.315,0.504,0.162,1.166-0.341,1.481C482.001,400.448,481.803,400.501,481.609,400.501z"/>
			</g>
		</g>
		<g>
			<path style="fill:#241726;" d="M447.105,378.092c-0.275,0-0.55-0.105-0.76-0.315c-0.404-0.404-1.451-1.433-2.836-2.793     c-8.49-8.342-13.506-13.323-14.016-14.09c-0.321-0.48-1.072-1.607,3.507-10.002c0.283-0.521,0.938-0.715,1.458-0.429     c0.522,0.284,0.714,0.937,0.429,1.458c-1.669,3.061-3.414,6.854-3.503,7.91c1.197,1.402,9.855,9.91,13.632,13.62     c1.392,1.368,2.444,2.4,2.849,2.807c0.42,0.42,0.42,1.101,0,1.52C447.655,377.987,447.38,378.092,447.105,378.092z"/>
		</g>
		<g>
			<path style="fill:#995780;" d="M372.583,407.896c0,0,26.537,49.072,32.12,48.141c5.583-0.931,50.497-24.772,75.268-65.741     l22.093,11.418c3.722-2.792-7.583-69.637-7.583-69.637l-61.823,18.455l15.297,19.697     C447.956,370.228,391.193,407.896,372.583,407.896z"/>
		</g>
		<g>
			<path style="fill:#241726;" d="M438.656,421.279c-0.523,0-0.98-0.382-1.061-0.914c-0.088-0.587,0.315-1.134,0.902-1.223     c0.062-0.009,6.181-0.986,7.331-4.719c0.175-0.565,0.776-0.886,1.344-0.712c0.568,0.175,0.886,0.777,0.712,1.344     c-1.548,5.029-8.759,6.167-9.066,6.213C438.763,421.275,438.709,421.279,438.656,421.279z"/>
		</g>
		<g>
			<path style="fill:#241726;" d="M444.122,408.642c-0.523,0-0.98-0.382-1.061-0.914c-0.088-0.587,0.315-1.134,0.902-1.223     c0.062-0.009,6.181-0.986,7.33-4.719c0.176-0.566,0.778-0.888,1.344-0.712c0.568,0.175,0.886,0.776,0.712,1.344     c-1.547,5.029-8.758,6.167-9.065,6.213C444.229,408.638,444.174,408.642,444.122,408.642z"/>
		</g>
		<g>
			<path style="fill:#241726;" d="M452.318,412.398c-0.523,0-0.98-0.382-1.061-0.914c-0.088-0.587,0.315-1.134,0.902-1.224     c0.062-0.008,6.182-0.983,7.331-4.717c0.176-0.566,0.779-0.888,1.344-0.712c0.568,0.175,0.886,0.776,0.712,1.344     c-1.547,5.029-8.759,6.166-9.066,6.212C452.424,412.394,452.371,412.398,452.318,412.398z"/>
		</g>
		<g>
			<path style="fill:#241726;" d="M429.093,418.546c-0.523,0-0.98-0.382-1.061-0.914c-0.088-0.587,0.315-1.134,0.902-1.223     c0.062-0.009,6.181-0.985,7.331-4.718c0.175-0.566,0.775-0.886,1.344-0.712c0.568,0.175,0.886,0.777,0.712,1.344     c-1.548,5.029-8.759,6.166-9.066,6.212C429.199,418.542,429.146,418.546,429.093,418.546z"/>
		</g>
		<g>
			<path style="fill:#241726;" d="M427.726,431.184c-0.523,0-0.98-0.382-1.061-0.914c-0.088-0.587,0.315-1.134,0.902-1.223     c0.062-0.009,6.181-0.985,7.331-4.718c0.175-0.565,0.775-0.885,1.344-0.712c0.568,0.175,0.886,0.777,0.712,1.344     c-1.548,5.029-8.759,6.166-9.066,6.212C427.832,431.18,427.779,431.184,427.726,431.184z"/>
		</g>
		<g>
			<path style="fill:#241726;" d="M416.456,432.209c-0.523,0-0.98-0.382-1.061-0.914c-0.088-0.587,0.315-1.134,0.902-1.223     c0.062-0.009,6.181-0.986,7.331-4.719c0.176-0.566,0.778-0.884,1.344-0.712c0.568,0.175,0.886,0.777,0.712,1.344     c-1.548,5.029-8.759,6.167-9.066,6.213C416.563,432.205,416.508,432.209,416.456,432.209z"/>
		</g>
	</g>
	<g>
		<path style="fill:#241726;" d="M295.474,117.782c-0.589,0-1.069-0.473-1.075-1.063c-0.006-0.594,0.47-1.08,1.063-1.086    c1.357-0.015,2.746-0.129,4.129-0.342c0.591-0.092,1.136,0.313,1.226,0.898c0.09,0.587-0.312,1.136-0.898,1.226    c-1.484,0.229-2.976,0.352-4.434,0.367C295.482,117.782,295.477,117.782,295.474,117.782z M291.193,117.507    c-0.049,0-0.1-0.003-0.15-0.01c-1.465-0.206-2.93-0.527-4.354-0.954c-0.568-0.171-0.89-0.77-0.72-1.339    c0.172-0.568,0.761-0.888,1.339-0.72c1.319,0.397,2.676,0.694,4.033,0.885c0.588,0.083,0.998,0.626,0.915,1.213    C292.18,117.119,291.721,117.507,291.193,117.507z M303.947,116.492c-0.466,0-0.894-0.304-1.032-0.774    c-0.166-0.57,0.161-1.167,0.731-1.333c0.566-0.165,1.136-0.346,1.711-0.546c0.765-0.265,1.509-0.546,2.235-0.841    c0.547-0.226,1.177,0.039,1.4,0.59c0.225,0.549-0.04,1.177-0.59,1.4c-0.759,0.31-1.539,0.604-2.342,0.882    c-0.609,0.211-1.212,0.403-1.812,0.578C304.147,116.479,304.046,116.492,303.947,116.492z M282.989,115.054    c-0.152,0-0.308-0.033-0.456-0.102c-1.32-0.619-2.627-1.348-3.882-2.164c-0.498-0.323-0.638-0.99-0.314-1.487    c0.323-0.495,0.986-0.638,1.487-0.314c1.171,0.762,2.389,1.442,3.621,2.019c0.537,0.252,0.768,0.892,0.516,1.43    C283.78,114.825,283.393,115.054,282.989,115.054z M311.882,113.258c-0.386,0-0.759-0.208-0.952-0.573    c-0.277-0.525-0.076-1.176,0.449-1.453c1.227-0.648,2.434-1.367,3.588-2.137c0.495-0.33,1.16-0.195,1.492,0.297    c0.33,0.494,0.196,1.162-0.297,1.492c-1.215,0.81-2.487,1.568-3.779,2.25C312.223,113.218,312.051,113.258,311.882,113.258z     M275.8,110.39c-0.247,0-0.494-0.084-0.697-0.256c-1.111-0.946-2.182-1.979-3.187-3.069c-0.402-0.437-0.375-1.117,0.062-1.519    c0.439-0.4,1.118-0.373,1.519,0.062c0.946,1.028,1.955,2,3,2.889c0.452,0.385,0.506,1.063,0.122,1.516    C276.406,110.262,276.103,110.39,275.8,110.39z M319.006,108.503c-0.31,0-0.617-0.133-0.83-0.39    c-0.378-0.458-0.313-1.136,0.145-1.514c1.057-0.872,2.098-1.821,3.097-2.819c0.42-0.42,1.1-0.42,1.52,0s0.42,1.1,0,1.52    c-1.046,1.046-2.139,2.042-3.249,2.958C319.489,108.423,319.246,108.503,319.006,108.503z M269.984,104.088    c-0.333,0-0.66-0.153-0.87-0.442c-0.867-1.192-1.672-2.444-2.393-3.721c-0.292-0.516-0.109-1.172,0.408-1.464    c0.517-0.292,1.172-0.109,1.464,0.408c0.68,1.205,1.44,2.387,2.259,3.511c0.35,0.481,0.244,1.152-0.236,1.502    C270.425,104.02,270.203,104.088,269.984,104.088z M325.082,102.452c-0.246,0-0.492-0.084-0.695-0.254    c-0.452-0.384-0.509-1.062-0.126-1.516c0.882-1.04,1.736-2.125,2.614-3.318c0.354-0.48,1.024-0.579,1.503-0.229    c0.478,0.353,0.58,1.025,0.229,1.503c-0.907,1.232-1.792,2.355-2.704,3.433C325.69,102.323,325.387,102.452,325.082,102.452z     M243.012,101.216c-0.002,0-0.004,0-0.006,0c-1.45-0.008-2.93-0.092-4.398-0.249c-0.591-0.063-1.018-0.592-0.955-1.182    c0.062-0.591,0.586-1.029,1.182-0.955c1.398,0.148,2.806,0.228,4.184,0.236c0.594,0.003,1.072,0.488,1.069,1.081    C244.083,100.739,243.603,101.216,243.012,101.216z M247.302,101.021c-0.547,0-1.014-0.415-1.069-0.97    c-0.058-0.591,0.374-1.117,0.965-1.175c1.387-0.135,2.777-0.347,4.134-0.629c0.577-0.12,1.149,0.254,1.271,0.834    c0.12,0.581-0.253,1.15-0.834,1.271c-1.432,0.296-2.899,0.52-4.361,0.662C247.373,101.019,247.337,101.021,247.302,101.021z     M234.474,100.315c-0.069,0-0.139-0.006-0.209-0.02c-1.486-0.294-2.898-0.602-4.239-0.923c-0.577-0.137-0.933-0.718-0.796-1.295    c0.139-0.577,0.724-0.927,1.295-0.796c1.314,0.314,2.699,0.616,4.155,0.904c0.583,0.115,0.961,0.681,0.847,1.263    C235.426,99.96,234.977,100.315,234.474,100.315z M255.705,99.279c-0.454,0-0.876-0.29-1.023-0.746    c-0.182-0.565,0.129-1.17,0.695-1.352c1.325-0.425,2.639-0.927,3.907-1.49c0.545-0.246,1.177,0.005,1.419,0.546    c0.24,0.543-0.003,1.178-0.546,1.419c-1.338,0.594-2.725,1.123-4.123,1.572C255.924,99.262,255.814,99.279,255.705,99.279z     M226.122,98.309c-0.099,0-0.199-0.014-0.299-0.042c-1.486-0.431-2.869-0.876-4.152-1.335c-0.559-0.199-0.85-0.815-0.651-1.373    c0.198-0.559,0.811-0.854,1.373-0.651c1.246,0.444,2.586,0.876,4.028,1.293c0.57,0.166,0.898,0.762,0.734,1.332    C227.018,98.004,226.589,98.309,226.122,98.309z M265.771,96.608c-0.421,0-0.821-0.25-0.993-0.663    c-0.078-0.188-0.154-0.377-0.229-0.565c-0.153,0.091-0.308,0.183-0.463,0.272c-0.511,0.301-1.169,0.124-1.468-0.392    c-0.298-0.513-0.123-1.171,0.392-1.468c0.269-0.156,0.537-0.316,0.803-0.479c-0.169-0.529-0.321-1.056-0.459-1.58    c-0.15-0.574,0.194-1.162,0.768-1.312c0.576-0.142,1.162,0.194,1.312,0.768c0.078,0.299,0.162,0.599,0.251,0.902    c0.278-0.193,0.552-0.389,0.823-0.589c0.479-0.354,1.151-0.25,1.503,0.229c0.352,0.479,0.249,1.151-0.229,1.503    c-0.451,0.332-0.912,0.656-1.381,0.971c0.115,0.305,0.237,0.611,0.363,0.916c0.228,0.548-0.033,1.177-0.582,1.404    C266.048,96.582,265.908,96.608,265.771,96.608z M330.197,95.549c-0.204,0-0.409-0.058-0.592-0.178    c-0.495-0.327-0.631-0.995-0.303-1.489c0.791-1.196,1.553-2.399,2.294-3.598c0.314-0.505,0.975-0.66,1.48-0.348    c0.505,0.313,0.66,0.975,0.348,1.48c-0.754,1.218-1.526,2.438-2.33,3.653C330.888,95.38,330.545,95.549,330.197,95.549z     M218.042,95.4c-0.147,0-0.296-0.03-0.439-0.094c-1.41-0.631-2.73-1.31-3.926-2.015c-0.511-0.302-0.68-0.961-0.379-1.473    c0.302-0.51,0.963-0.678,1.473-0.379c1.126,0.665,2.375,1.307,3.711,1.906c0.542,0.242,0.784,0.879,0.541,1.42    C218.845,95.164,218.453,95.4,218.042,95.4z M210.705,90.985c-0.242,0-0.487-0.082-0.689-0.25    c-1.25-1.045-2.302-2.159-3.127-3.308c-0.346-0.483-0.235-1.154,0.247-1.5c0.482-0.348,1.152-0.237,1.5,0.247    c0.719,1.002,1.648,1.983,2.759,2.912c0.456,0.381,0.515,1.059,0.135,1.515C211.318,90.854,211.013,90.985,210.705,90.985z     M270.457,90.703c-0.288,0-0.575-0.115-0.786-0.342c-0.405-0.435-0.381-1.115,0.054-1.519c1.042-0.971,2.003-1.988,2.854-3.023    c0.379-0.458,1.053-0.525,1.514-0.147c0.458,0.378,0.524,1.055,0.147,1.514c-0.912,1.107-1.938,2.194-3.049,3.229    C270.983,90.607,270.72,90.703,270.457,90.703z M263.653,88.305c-0.553,0-1.023-0.424-1.07-0.986    c-0.05-0.597-0.076-1.183-0.076-1.757c0-0.968,0.072-1.906,0.214-2.79c0.094-0.586,0.648-0.99,1.232-0.89    c0.586,0.094,0.985,0.646,0.89,1.232c-0.124,0.77-0.187,1.594-0.187,2.448c0,0.515,0.023,1.042,0.067,1.579    c0.049,0.592-0.389,1.111-0.981,1.16C263.712,88.304,263.682,88.305,263.653,88.305z M334.749,88.25    c-0.19,0-0.381-0.05-0.555-0.155c-0.508-0.308-0.671-0.968-0.363-1.476c0.755-1.247,1.501-2.478,2.255-3.682    c0.314-0.504,0.976-0.657,1.481-0.341c0.504,0.315,0.656,0.978,0.341,1.481c-0.747,1.196-1.489,2.418-2.238,3.655    C335.468,88.065,335.113,88.25,334.749,88.25z M275.853,84.046c-0.178,0-0.359-0.044-0.525-0.137    c-0.517-0.291-0.702-0.946-0.411-1.463c0.738-1.314,1.231-2.579,1.425-3.657c0.107-0.584,0.664-0.973,1.249-0.867    c0.585,0.106,0.972,0.665,0.867,1.249c-0.24,1.329-0.802,2.785-1.667,4.327C276.594,83.849,276.229,84.046,275.853,84.046z     M205.933,84.019c-0.484,0-0.924-0.33-1.043-0.821c-0.191-0.787-0.289-1.581-0.289-2.36c0-1.487,0.355-2.431,0.395-2.534    c0.218-0.553,0.845-0.822,1.394-0.607c0.55,0.216,0.822,0.836,0.61,1.386c-0.007,0.021-0.249,0.689-0.249,1.755    c0,0.608,0.077,1.23,0.228,1.852c0.141,0.576-0.213,1.158-0.79,1.298C206.103,84.009,206.017,84.019,205.933,84.019z     M339.337,80.976c-0.209,0-0.42-0.061-0.606-0.188c-0.49-0.335-0.615-1.003-0.28-1.494c0.898-1.313,1.746-2.467,2.592-3.527    c0.371-0.461,1.048-0.541,1.51-0.169c0.464,0.369,0.539,1.046,0.169,1.51c-0.811,1.017-1.629,2.13-2.497,3.399    C340.017,80.812,339.68,80.976,339.337,80.976z M265.176,79.981c-0.185,0-0.373-0.047-0.544-0.148    c-0.511-0.301-0.682-0.959-0.382-1.472c0.838-1.425,1.962-2.574,3.343-3.413c0.508-0.309,1.169-0.147,1.477,0.36    c0.309,0.507,0.147,1.168-0.36,1.477c-1.074,0.653-1.951,1.55-2.606,2.666C265.903,79.791,265.544,79.981,265.176,79.981z     M276.328,76.126c-0.225,0-0.452-0.07-0.646-0.216c-0.663-0.499-1.802-0.635-3.323-0.388c-0.579,0.112-1.138-0.3-1.234-0.886    s0.3-1.139,0.886-1.234c2.215-0.366,3.815-0.077,4.965,0.791c0.474,0.358,0.569,1.032,0.212,1.505    C276.975,75.978,276.654,76.126,276.328,76.126z M344.735,74.307c-0.276,0-0.551-0.105-0.761-0.316    c-0.419-0.421-0.418-1.101,0.002-1.52c1.09-1.086,2.224-2.063,3.374-2.902c0.479-0.351,1.151-0.245,1.502,0.234    c0.35,0.48,0.246,1.151-0.234,1.502c-1.061,0.775-2.112,1.679-3.124,2.688C345.284,74.202,345.01,74.307,344.735,74.307z     M351.647,69.302c-0.399,0-0.782-0.223-0.968-0.606c-0.259-0.533-0.037-1.177,0.498-1.436c1.326-0.644,2.733-1.175,4.182-1.575    c0.567-0.154,1.163,0.176,1.323,0.749c0.158,0.572-0.177,1.164-0.749,1.323c-1.323,0.366-2.606,0.85-3.816,1.437    C351.964,69.267,351.805,69.302,351.647,69.302z M359.844,66.995c-0.541,0-1.007-0.406-1.067-0.956    c-0.065-0.59,0.36-1.121,0.95-1.187c1.192-0.132,2.445-0.199,3.721-0.199l0.705,0.006c0.593,0.01,1.065,0.501,1.055,1.095    c-0.012,0.593-0.454,1.045-1.095,1.055l-0.665-0.006c-1.198,0-2.369,0.063-3.484,0.187    C359.923,66.993,359.884,66.995,359.844,66.995z"/>
	</g>
	<g>
		<g>
			<path style="fill:#FFFFFF;" d="M458.163,289.168c0,0-2.066-15.686,13.032-10.611c15.099,5.075,10.179,19.437,4.423,14.523     s5.044-21.583,16.598-14.161c11.554,7.422,8.97,21.824,0.774,22.887c-8.195,1.063,4.961-16.769,15.285-5.756     c10.324,11.013-12.217,31.091-21.435,23.709c-9.218-7.382-2.004-19.297,0.207-12.035s-3.752,14.382-20.102,14.101     c-16.349-0.281-8.908-25.435-3.193-18.113c5.715,7.322-3.773,15.586-15.306,6.96S450.072,284.213,458.163,289.168z"/>
		</g>
		<g>
			<path style="fill:#241726;" d="M467.876,322.907l-0.948-0.008c-5.367-0.092-9.146-2.839-10.483-7.571     c-2.818-0.361-5.789-1.664-8.641-3.797c-4.53-3.388-6.064-8.529-4.209-14.107c1.9-5.712,6.962-10.186,11.525-10.186     c0.646,0,1.27,0.084,1.871,0.253c-0.016-2.193,0.331-5.888,2.537-8.404c2.482-2.831,6.564-3.38,12.009-1.549     c2.089,0.702,3.92,1.613,5.459,2.714c4.363-4.588,10.571-5.593,15.8-2.238c4.992,3.208,8.028,8.138,8.284,13.361     c2.928,0.089,5.613,1.413,7.981,3.939c3.22,3.436,3.816,8.054,1.673,13.001c-3.256,7.516-12.148,14.109-19.03,14.109     c-2.16,0-4.022-0.614-5.536-1.827c-0.715-0.572-1.362-1.191-1.933-1.848C480.62,321.473,475,322.906,467.876,322.907z      M458.726,315.41c0.937,2.622,3.15,5.252,8.24,5.339l0.91,0.008c8.191-0.001,12.674-1.916,15.085-3.74     c-2.294-3.727-2.115-7.798-0.833-10.322c0.745-1.466,1.828-2.308,2.974-2.308c0.767,0,2.175,0.393,2.975,3.023     c1.108,3.638,0.292,7.195-2.238,9.905c0.492,0.568,1.053,1.105,1.675,1.604c1.123,0.9,2.534,1.355,4.192,1.355     c6.021,0,14.151-6.108,17.056-12.814c1.26-2.909,2.064-7.122-1.27-10.677c-1.957-2.087-4.129-3.182-6.464-3.26     c-0.502,5.015-3.646,8.797-7.9,9.348c-2.782,0.362-3.72-1.1-3.777-2.453c-0.12-2.959,4.136-7.931,9.585-8.887     c-0.208-4.547-2.884-8.87-7.303-11.708c-4.339-2.792-9.311-1.971-12.975,1.801c3.558,3.4,4.218,7.577,3.222,10.367     c-0.698,1.955-2.195,3.171-3.907,3.172c0,0-0.001,0-0.002,0c-1.025,0-2.08-0.439-3.051-1.267     c-3.182-2.717-2.165-8.015,0.698-11.986c-1.338-0.937-2.937-1.721-4.765-2.335c-4.55-1.531-7.806-1.234-9.704,0.923     c-2.605,2.964-1.927,8.475-1.921,8.53c0.054,0.41-0.133,0.815-0.481,1.04c-0.35,0.225-0.792,0.233-1.146,0.015     c-0.755-0.462-1.589-0.696-2.481-0.696c-3.632,0-7.887,3.909-9.486,8.715c-0.731,2.196-1.856,7.734,3.456,11.707     c2.313,1.73,4.68,2.846,6.924,3.274c-0.397-3.671,0.541-7.702,2.426-10.041c0.918-1.14,1.992-1.742,3.104-1.742     c0.771,0,1.927,0.303,3.055,1.749c2.037,2.61,2.5,5.555,1.269,8.078C464.659,313.606,461.96,315.209,458.726,315.41z      M485.101,306.537c-0.187,0-0.638,0.308-1.057,1.133c-0.93,1.832-1.085,4.933,0.526,7.84c1.774-2.1,2.291-4.712,1.45-7.473     C485.647,306.813,485.221,306.537,485.101,306.537z M461.546,303.45c-0.432,0-0.94,0.334-1.431,0.942     c-1.389,1.725-2.408,5.406-1.908,8.887c2.632-0.048,4.819-1.225,5.731-3.095c0.858-1.756,0.482-3.874-1.031-5.812     C462.578,303.951,462.076,303.45,461.546,303.45z M498.839,293.741c-4.356,0.988-7.404,4.983-7.339,6.591     c0.008,0.198,0.019,0.446,0.827,0.446c0.162,0,0.336-0.013,0.525-0.037C495.971,300.336,498.312,297.531,498.839,293.741z      M477.278,283.28c-2.45,3.431-2.918,7.312-0.961,8.982c0.576,0.492,1.148,0.753,1.655,0.753c0.001,0,0.001,0,0.001,0     c0.789-0.001,1.494-0.653,1.883-1.744C480.605,289.175,480.052,285.992,477.278,283.28z"/>
		</g>
	</g>
	<g>
		<g>
			<g>
				<path style="fill:#FFFFFF;" d="M263.574,420.391c0,0-2.124,24.427-4.286,26.227c-2.162,1.8-10.463-8.407-10.463-8.407      s-43.69-49.259-40.982-51.065S262.876,413.458,263.574,420.391z"/>
			</g>
			<g>
				<path style="fill:#241726;" d="M258.649,447.906c-3.085,0-8.938-6.902-10.657-9.017c-12.579-14.179-41.847-47.673-41.329-51.668      c0.052-0.408,0.26-0.753,0.586-0.969c0.266-0.177,0.589-0.263,0.988-0.263c5.627,0,55.646,26.724,56.408,34.294      c-0.65,7.68-2.406,25.278-4.669,27.162C259.614,447.747,259.155,447.906,258.649,447.906z M209.124,388.293      c3.009,5.959,25.859,32.691,40.505,49.206c3.248,3.99,7.599,8.258,9.019,8.258v1.075l0.023-1.076      c1.09-1.268,2.832-13.957,3.832-25.459c-0.203-1.823-8.112-8.285-25.322-18.156C224.17,394.677,212.77,389.258,209.124,388.293z      "/>
			</g>
		</g>
		<g>
			<g>
				<path style="fill:#FFFFFF;" d="M263.727,419.789c0,0-57.798-35.75-58.323-33.676c-0.525,2.075,45.902,42.51,45.902,42.51      s-6.479,28.527-10.111,28.345c-3.633-0.183-37.873-68.439-35.791-70.855s78.576,19.779,76.66,24.444      C280.148,415.223,263.727,419.789,263.727,419.789z"/>
			</g>
			<g>
				<path style="fill:#241726;" d="M241.23,458.044c-0.019,0-0.071-0.001-0.09-0.002c-4.159-0.209-27.374-47.379-33.533-61.767      c-4.109-9.597-3.554-10.241-3.017-10.864c0.071-0.083,0.152-0.152,0.241-0.208c0.007-0.005,0.014-0.01,0.021-0.015      c0.075-0.058,0.156-0.106,0.244-0.144c0.296-0.129,0.676-0.19,1.197-0.19c8.314,0,72.484,18.433,76.536,24.475      c0.486,0.725,0.352,1.336,0.229,1.635c-2.055,5.008-17.31,9.377-19.043,9.859c-0.289,0.082-0.597,0.037-0.853-0.122      c-17.778-10.997-45.332-27.635-54.634-32.333c6.895,7.136,28.979,26.809,43.485,39.443c0.298,0.259,0.429,0.662,0.342,1.049      C249.879,439.759,245.143,458.042,241.23,458.044z M207.381,390.141c5.261,14.246,29.722,62.179,33.916,65.673      c1.993-1.452,6.036-14.706,8.818-26.803C223.037,405.418,211.91,394.938,207.381,390.141z M211.981,387.865      c13.709,7.227,43.893,25.805,51.909,30.76c6.021-1.721,15.431-5.306,17.061-8.233c-1.408-1.725-12.711-6.535-34.92-13.345      C232.507,392.901,219.476,389.415,211.981,387.865z"/>
			</g>
		</g>
	</g>
	<g>
		<g>
			<path style="fill:#E35D81;" d="M77.949,327.763c0,0,123.868,131.216,114.421,133.316c-9.448,2.099-134.366,2.099-135.415-3.149     C55.904,452.681,73.75,322.514,77.949,327.763z"/>
		</g>
		<g>
			<g>
				<path style="fill:#FFFFFF;" d="M89.496,382.349c0,0-8.398,52.487-1.05,52.487c7.348,0,38.84,6.298,43.039,1.05      C135.684,430.637,90.545,373.951,89.496,382.349z"/>
			</g>
			<g>
				<path style="fill:#241726;" d="M122.005,439.049c-6.701,0-15.549-1.119-22.659-2.017c-4.757-0.601-8.864-1.121-10.899-1.121      c-0.545,0-1.342-0.174-2.052-1.008c-5.235-6.137,1.281-47.973,2.04-52.724c0.16-1.282,1.073-1.752,1.873-1.752      c6.344,0,34.682,36.359,40.898,49.294c1.711,3.557,2.055,5.666,1.12,6.836C130.965,438.257,127.686,439.049,122.005,439.049z       M90.547,382.608c-2.936,18.408-5.981,46.839-2.517,50.901c0.215,0.252,0.357,0.252,0.417,0.252      c2.171,0,6.141,0.502,11.169,1.138c7.05,0.891,15.824,2.001,22.39,2.001c6.345,0,8.138-1.056,8.641-1.686      c0.024-0.042,0.664-1.321-3.361-8.263C117.642,410.32,94.901,383.65,90.547,382.608z"/>
			</g>
		</g>
		<g>
			<path style="fill:#241726;" d="M80.312,348.908c-0.344,0-0.682-0.165-0.89-0.47c-0.334-0.491-0.206-1.16,0.284-1.494l9.449-6.426     c0.491-0.334,1.16-0.206,1.494,0.284c0.334,0.491,0.206,1.16-0.284,1.494l-9.449,6.426     C80.73,348.849,80.519,348.908,80.312,348.908z"/>
		</g>
		<g>
			<path style="fill:#241726;" d="M90.895,354.579c-0.342,0-0.678-0.163-0.887-0.466c-0.336-0.489-0.212-1.158,0.277-1.495     l6.048-4.159c0.489-0.335,1.159-0.212,1.495,0.277c0.336,0.489,0.212,1.158-0.277,1.495l-6.048,4.159     C91.317,354.518,91.105,354.579,90.895,354.579z"/>
		</g>
		<g>
			<path style="fill:#241726;" d="M96.943,366.673c-0.344,0-0.682-0.165-0.89-0.47c-0.334-0.491-0.206-1.16,0.284-1.494l9.449-6.426     c0.49-0.334,1.16-0.206,1.494,0.284c0.334,0.491,0.206,1.16-0.284,1.494l-9.449,6.426     C97.362,366.614,97.151,366.673,96.943,366.673z"/>
		</g>
		<g>
			<path style="fill:#241726;" d="M107.526,372.344c-0.342,0-0.678-0.163-0.887-0.466c-0.336-0.489-0.212-1.158,0.277-1.495     l6.047-4.159c0.489-0.336,1.158-0.211,1.495,0.277c0.336,0.489,0.212,1.158-0.277,1.495l-6.047,4.159     C107.948,372.283,107.736,372.344,107.526,372.344z"/>
		</g>
		<g>
			<path style="fill:#241726;" d="M112.44,383.305c-0.344,0-0.682-0.165-0.89-0.47c-0.334-0.491-0.206-1.16,0.284-1.494l9.45-6.426     c0.49-0.335,1.16-0.205,1.494,0.284c0.334,0.491,0.206,1.16-0.284,1.494l-9.45,6.426     C112.859,383.245,112.648,383.305,112.44,383.305z"/>
		</g>
		<g>
			<path style="fill:#241726;" d="M123.023,388.974c-0.342,0-0.678-0.163-0.887-0.466c-0.336-0.489-0.212-1.158,0.277-1.495     l6.048-4.158c0.491-0.335,1.159-0.212,1.495,0.277c0.336,0.489,0.212,1.158-0.277,1.495l-6.048,4.158     C123.445,388.913,123.233,388.974,123.023,388.974z"/>
		</g>
		<g>
			<path style="fill:#241726;" d="M130.205,401.448c-0.344,0-0.682-0.165-0.89-0.47c-0.334-0.491-0.206-1.16,0.284-1.494l9.45-6.426     c0.49-0.334,1.16-0.205,1.494,0.284c0.334,0.491,0.206,1.16-0.284,1.494l-9.45,6.426     C130.624,401.388,130.413,401.448,130.205,401.448z"/>
		</g>
		<g>
			<path style="fill:#241726;" d="M140.788,407.117c-0.342,0-0.678-0.163-0.887-0.466c-0.336-0.489-0.212-1.158,0.277-1.495     l6.048-4.158c0.49-0.336,1.158-0.211,1.495,0.277c0.336,0.489,0.212,1.158-0.277,1.495l-6.048,4.158     C141.21,407.056,140.998,407.117,140.788,407.117z"/>
		</g>
		<g>
			<path style="fill:#241726;" d="M145.557,419.97c-0.344,0-0.682-0.165-0.89-0.47c-0.334-0.491-0.206-1.16,0.284-1.494l9.45-6.426     c0.491-0.335,1.161-0.205,1.494,0.284c0.334,0.491,0.206,1.16-0.284,1.494l-9.45,6.426     C145.976,419.91,145.765,419.97,145.557,419.97z"/>
		</g>
		<g>
			<path style="fill:#241726;" d="M155.529,426.016c-0.342,0-0.678-0.163-0.887-0.466c-0.336-0.489-0.212-1.158,0.277-1.495     l6.048-4.158c0.49-0.334,1.158-0.212,1.495,0.277c0.336,0.489,0.212,1.158-0.277,1.495l-6.048,4.158     C155.951,425.956,155.739,426.016,155.529,426.016z"/>
		</g>
		<g>
			<path style="fill:#241726;" d="M161.199,439.246c-0.344,0-0.682-0.165-0.89-0.47c-0.334-0.491-0.206-1.16,0.284-1.494     l9.449-6.426c0.49-0.335,1.16-0.205,1.494,0.284c0.334,0.491,0.206,1.16-0.284,1.494l-9.449,6.426     C161.618,439.186,161.407,439.246,161.199,439.246z"/>
		</g>
		<g>
			<path style="fill:#241726;" d="M174.428,455.12c-0.344,0-0.682-0.165-0.89-0.47c-0.334-0.491-0.206-1.16,0.284-1.494l9.45-6.426     c0.491-0.335,1.159-0.205,1.494,0.284c0.334,0.491,0.206,1.16-0.284,1.494l-9.45,6.426     C174.847,455.061,174.636,455.12,174.428,455.12z"/>
		</g>
		<g>
			<path style="fill:#241726;" d="M171.783,444.915c-0.342,0-0.678-0.163-0.887-0.466c-0.336-0.489-0.212-1.158,0.277-1.495     l6.047-4.158c0.489-0.335,1.159-0.211,1.495,0.277c0.336,0.489,0.212,1.158-0.277,1.495l-6.047,4.158     C172.205,444.854,171.993,444.915,171.783,444.915z"/>
		</g>
	</g>
</g>















</svg>
