<?xml version="1.0" encoding="UTF-8"?>
<!-- Generator: Adobe Illustrator 25.2.1, SVG Export Plug-In . SVG Version: 6.00 Build 0)  -->
<svg xmlns="http://www.w3.org/2000/svg" xmlns:xlink="http://www.w3.org/1999/xlink" version="1.1" id="Capa_1" x="0px" y="0px" viewBox="0 0 512 512" style="enable-background:new 0 0 512 512;" xml:space="preserve" width="512" height="512">
<g>
	<g>
		<path style="fill:#FFFFFF;" d="M433.169,94.786c0,0-3.694-19.401,15.484-14.153s14.072,23.497,6.548,17.783    c-7.524-5.714,4.746-27.257,19.674-18.832c14.928,8.425,12.735,26.558,2.598,28.467s4.987-21.252,18.638-8.264    s-13.007,39.617-25.021,31.075s-3.874-23.905-0.6-15.013s-3.65,18.191-24.045,19.006s-12.915-31.062-5.271-22.345    c7.644,8.717-3.59,19.692-18.578,9.765S422.731,89.188,433.169,94.786z"/>
		<path style="fill:#2B2330;" d="M445.684,136.097c-8.278,0-11.477-5.105-12.702-8.7c-3.541-0.231-7.345-1.639-11.063-4.1    c-5.938-3.933-8.199-10.55-6.046-17.701c2.44-8.097,9.862-14.101,15.846-12.668c-0.196-2.747-0.067-7.605,2.696-10.944    c2.893-3.494,7.824-4.375,14.561-2.535c2.68,0.733,5.046,1.753,7.051,3.034c5.082-6.069,12.69-7.778,19.452-3.967    c6.453,3.642,10.573,9.582,11.229,16.077c3.642-0.146,7.118,1.327,10.248,4.304c4.378,4.166,5.355,10.051,2.747,16.574    c-3.888,9.732-14.698,18.27-23.132,18.272c0,0,0,0-0.002,0c-2.347,0-4.429-0.634-6.187-1.883    c-0.957-0.681-1.828-1.428-2.601-2.231c-4.479,3.846-11.798,6.07-21.287,6.449C446.22,136.091,445.949,136.097,445.684,136.097z     M435.575,127.348c1.335,3.266,4.362,6.556,10.822,6.284c11.042-0.441,16.825-3.301,19.818-5.888    c-3.23-4.579-3.208-9.853-1.725-12.994c0.842-1.784,2.117-2.807,3.498-2.807c1.081,0,2.591,0.604,3.651,3.482    c1.665,4.518,0.904,8.906-2.127,12.471c0.675,0.706,1.443,1.365,2.29,1.967c1.333,0.95,2.938,1.431,4.766,1.431    c0.002,0,0.002,0,0.002,0c7.417-0.001,17.358-7.976,20.859-16.73c1.562-3.912,2.455-9.496-2.163-13.89    c-2.639-2.511-5.517-3.723-8.477-3.632c-0.23,6.283-3.852,11.226-9.087,12.212c-0.49,0.092-0.931,0.134-1.326,0.134l0,0    c-1.991,0-3.304-1.123-3.429-2.931c-0.251-3.628,4.749-10.036,11.331-11.544c-0.553-5.728-4.23-11.002-10.006-14.261    c-5.697-3.217-11.927-1.803-16.265,3.284c4.835,4.053,5.905,9.289,4.742,12.865c-1.232,3.784-5.01,5.081-8.29,2.59    c-4.132-3.138-3.201-9.81,0.108-14.93c-1.766-1.108-3.859-1.995-6.238-2.646c-5.685-1.558-9.783-0.977-12.023,1.727    c-3.228,3.892-1.945,10.945-1.933,11.017c0.089,0.463-0.098,0.936-0.479,1.214c-0.385,0.28-0.89,0.313-1.304,0.092    c-0.885-0.474-1.84-0.714-2.838-0.714c-4.508,0-9.683,5.003-11.535,11.153c-0.876,2.908-2.137,10.188,5.053,14.95    c3.077,2.037,6.18,3.274,9.07,3.624c-0.806-4.645,0.134-9.96,2.4-12.945c1.354-1.784,2.773-2.158,3.725-2.158    c1.285,0,2.505,0.648,3.627,1.928c2.728,3.109,3.491,6.873,2.043,10.068C442.736,124.865,439.53,126.92,435.575,127.348z     M467.988,114.394c-0.249,0-0.797,0.373-1.282,1.403c-1.141,2.417-1.156,6.466,1.242,10.137c2.175-2.802,2.675-6.184,1.395-9.661    C468.794,114.786,468.217,114.394,467.988,114.394z M438.467,112.225c-0.72,0-1.361,0.647-1.773,1.189    c-1.713,2.254-2.79,7.052-1.847,11.534c3.352-0.245,5.979-1.803,7.058-4.187c1.055-2.328,0.452-5.041-1.653-7.442    C439.815,112.819,439.149,112.225,438.467,112.225z M484.315,97.432c-5.158,1.45-9.082,6.545-8.924,8.856    c0.022,0.304,0.045,0.65,0.983,0.65c0.002,0,0.002,0,0.002,0c0.258,0,0.55-0.031,0.871-0.091    C481.202,106.103,483.975,102.324,484.315,97.432z M456.544,85.91c-2.907,4.532-3.23,9.535-0.601,11.53    c1.938,1.475,3.747,0.855,4.477-1.397C461.283,93.384,460.386,89.21,456.544,85.91z"/>
	</g>
	<path style="fill:#2B2330;" d="M402.028,288.16c-0.936,0-1.823,0-4.369-10.152c-8.63-1.657-9.372-2.655-9.621-2.988   c-0.227-0.305-0.325-0.877-0.223-1.243c0.153-0.541,0.507-1.794,10.341-5.757c3.524-9.194,4.69-9.194,5.465-9.194   c0.388,0,0.931,0.284,1.163,0.595c0.624,0.836,1.194,3.035,2.06,6.558c0.278,1.128,0.612,2.493,0.802,3.066   c0.507,0.23,1.675,0.65,2.644,0.997c4.948,1.774,6.321,2.419,6.546,3.576c0.084,0.423-0.136,1.054-0.457,1.342   c-1.024,0.916-5.941,2.74-8.491,3.646c-4.161,9.468-5.063,9.514-5.79,9.552C402.078,288.16,402.05,288.16,402.028,288.16z    M391.094,273.965c1.694,0.508,4.953,1.253,7.79,1.781c0.471,0.089,0.849,0.445,0.964,0.912c0.723,2.933,1.675,6.278,2.34,8.094   c0.955-1.689,2.455-4.835,3.668-7.613c0.136-0.311,0.395-0.553,0.715-0.665c2.428-0.855,5.178-1.909,6.809-2.635   c-1.168-0.504-2.847-1.105-3.919-1.489c-2.869-1.029-3.409-1.25-3.766-1.731c-0.313-0.421-0.526-1.193-1.23-4.053   c-0.285-1.159-0.73-2.968-1.115-4.252c-0.866,1.614-2.122,4.515-3.094,7.08c-0.122,0.321-0.373,0.577-0.691,0.703   C396.425,271.35,392.857,272.954,391.094,273.965z"/>
	<path style="fill:#2B2330;" d="M119.458,123.192c-0.936,0-1.823,0-4.369-10.152c-8.63-1.658-9.374-2.655-9.623-2.988   c-0.227-0.305-0.325-0.877-0.223-1.244c0.153-0.541,0.507-1.794,10.343-5.757c3.524-9.192,4.735-9.192,5.465-9.192   c0.385,0,0.931,0.284,1.16,0.593c0.624,0.836,1.194,3.033,2.06,6.552c0.278,1.131,0.615,2.499,0.804,3.073   c0.505,0.23,1.675,0.648,2.644,0.995c4.948,1.774,6.319,2.419,6.546,3.576c0.081,0.425-0.139,1.055-0.459,1.343   c-1.019,0.915-5.941,2.74-8.491,3.646c-4.158,9.466-5.058,9.513-5.785,9.552C119.509,123.192,119.48,123.192,119.458,123.192z    M108.524,108.996c1.692,0.508,4.95,1.254,7.79,1.783c0.471,0.089,0.849,0.445,0.964,0.912c0.723,2.932,1.675,6.277,2.34,8.093   c0.955-1.689,2.452-4.834,3.665-7.611c0.136-0.312,0.395-0.554,0.715-0.666c2.431-0.855,5.18-1.91,6.812-2.635   c-1.168-0.504-2.847-1.107-3.919-1.491c-2.871-1.029-3.412-1.251-3.768-1.733c-0.311-0.418-0.526-1.19-1.23-4.057   c-0.285-1.158-0.73-2.963-1.113-4.244c-0.869,1.614-2.122,4.514-3.094,7.079c-0.122,0.321-0.373,0.577-0.691,0.703   C113.855,106.381,110.287,107.985,108.524,108.996z"/>
	<path style="fill:#2B2330;" d="M124.387,262.63c-0.002,0-0.038,0-0.041,0c-2.436-0.011-4.718-0.969-6.434-2.696   c-1.713-1.729-2.649-4.022-2.639-6.456c0.022-5.002,4.111-9.072,9.111-9.072c2.474,0.01,4.759,0.968,6.472,2.696   c1.713,1.729,2.651,4.021,2.641,6.455C133.477,258.56,129.388,262.63,124.387,262.63z M124.416,246.856   c-3.687,0-6.675,2.975-6.692,6.634c-0.017,3.673,2.96,6.675,6.632,6.691l0.031,1.225v-1.225c3.656,0,6.644-2.976,6.661-6.635   c0.007-1.779-0.677-3.455-1.931-4.718C127.864,247.563,126.194,246.863,124.416,246.856z"/>
	<path style="fill:#2B2330;" d="M282.541,37.262c-0.002,0-0.036,0-0.038,0c-5.024-0.022-9.094-4.127-9.073-9.153   c0.022-5.003,4.111-9.073,9.111-9.073c5.065,0.022,9.135,4.127,9.113,9.153C291.633,33.192,287.544,37.262,282.541,37.262z    M282.572,21.486c-3.687,0-6.675,2.976-6.692,6.635c-0.017,3.673,2.96,6.675,6.632,6.691l0.029,1.225v-1.225   c3.658,0,6.647-2.976,6.663-6.635C289.221,24.504,286.245,21.502,282.572,21.486z"/>
	<path style="fill:#2B2330;" d="M460.578,198.964c-0.002,0-0.036,0-0.038,0c-5.024-0.022-9.094-4.127-9.075-9.152   c0.022-5.004,4.111-9.074,9.111-9.074c5.065,0.022,9.135,4.127,9.116,9.152C469.67,194.894,465.581,198.964,460.578,198.964z    M460.606,183.188c-3.687,0-6.675,2.976-6.692,6.635c-0.014,3.673,2.962,6.675,6.635,6.691l0.029,1.225v-1.225   c3.658,0,6.647-2.976,6.663-6.635C467.255,186.207,464.279,183.204,460.606,183.188z"/>
	<g>
		<g>
			<path style="fill:#FFFFFF;" d="M41.859,298.11c0,0,1.92,16.574,12.356,14.808c10.437-1.766-2.214-23.192-4.599-16.112     c-1.029,3.055,14.831,5.635,16.628-1.832C68.042,287.506,40.629,281.747,41.859,298.11z"/>
			<path style="fill:#2B2330;" d="M52.697,314.275c-10.082,0-11.98-15.369-12.056-16.023c-0.256-3.421,0.581-6.174,2.491-8.233     c2.194-2.363,5.776-3.664,10.087-3.664c5.41,0,10.963,2.062,13.202,4.904c0.991,1.258,1.342,2.643,1.014,4.003     c-0.845,3.512-4.412,5.657-9.59,5.798c1.433,3.146,2.338,7.082,1.019,9.896c-0.804,1.719-2.342,2.815-4.445,3.171     C53.822,314.227,53.248,314.275,52.697,314.275z M53.219,288.804c-3.622,0-6.565,1.023-8.29,2.881     c-1.426,1.538-2.048,3.669-1.847,6.333c0.01,0.095,1.9,15.222,10.932,13.692c1.311-0.221,2.172-0.809,2.634-1.794     c0.909-1.938,0.251-5.564-1.593-8.976c-2.515-0.286-5.324-1.095-6.324-2.609c-0.392-0.596-0.49-1.275-0.275-1.915     c0.663-1.969,1.969-2.263,2.687-2.263c2.254,0,4.333,2.773,5.383,4.448c0.256,0.011,0.514,0.017,0.773,0.017l0,0     c1.598,0,6.879-0.284,7.754-3.93c0.151-0.621-0.034-1.247-0.557-1.912C62.713,290.511,57.865,288.804,53.219,288.804z      M51.142,296.602c-0.079,0-0.234,0.209-0.366,0.596c0.122,0.091,0.926,0.544,2.376,0.915     C52.262,297.083,51.513,296.602,51.142,296.602z"/>
		</g>
		<g>
			<path style="fill:#FFFFFF;" d="M32.005,296.914c0,0-14.356,8.502-19.267-0.875c-4.911-9.377,19.803-12.273,15.61-6.09     c-1.809,2.668-13.462-8.396-8.605-14.346C24.601,269.654,45.776,287.991,32.005,296.914z"/>
			<path style="fill:#2B2330;" d="M20.486,301.672c-4.044,0-7.096-1.75-8.834-5.064c-0.988-1.889-1.046-3.777-0.165-5.458     c1.443-2.751,5.123-4.413,8.494-5.176c-2.51-3.488-3.878-7.847-1.187-11.145c0.864-1.056,2.139-1.615,3.687-1.615     c4.96,0,12.786,5.976,14.849,12.95c1.402,4.74-0.251,8.923-4.658,11.778C32.374,298.119,26.309,301.672,20.486,301.672z      M21.768,288.122c-3.833,0.597-7.118,2.269-8.111,4.164c-0.505,0.965-0.45,2.006,0.167,3.185c1.321,2.524,3.5,3.75,6.661,3.75     c5.161,0,10.839-3.328,10.896-3.362c3.472-2.251,4.697-5.289,3.598-9.002c-1.704-5.765-8.487-11.194-12.499-11.194     c-0.811,0-1.395,0.234-1.787,0.715c-2.048,2.509-0.256,6.388,2.046,9.154c0.572-0.051,1.127-0.078,1.658-0.078     c1.957,0,4.479,0.352,5.367,2.028c0.349,0.656,0.56,1.735-0.402,3.155c-0.414,0.609-1.079,0.945-1.876,0.945     C25.704,291.583,23.445,289.875,21.768,288.122z M25.18,287.93c1.055,0.821,1.905,1.203,2.306,1.203     c0.127-0.282,0.127-0.481,0.115-0.502C27.491,288.425,26.764,288.03,25.18,287.93z"/>
		</g>
		<path style="fill:#ECD673;" d="M44.776,285.735c0,0,9.468-1.581,10.729-9.577c1.26-7.996-1.043-16.641-6.879-16.195    c-5.835,0.446-13.612,5.821-13.206,14.08C35.826,282.302,42.036,286.536,44.776,285.735z"/>
		<g>
			<path style="fill:#FFFFFF;" d="M52.325,282.047c0,0-13.806-5.476-16.42-4.811"/>
			<path style="fill:#2B2330;" d="M52.324,283.271c-0.151,0-0.304-0.028-0.452-0.086c-6.46-2.562-14.274-5.107-15.664-4.762     c-0.668,0.17-1.323-0.231-1.488-0.884c-0.167-0.656,0.23-1.323,0.885-1.489c2.775-0.712,13.846,3.539,17.172,4.858     c0.629,0.25,0.936,0.962,0.687,1.591C53.272,282.978,52.812,283.271,52.324,283.271z"/>
		</g>
		<g>
			<path style="fill:#FFFFFF;" d="M55.359,275.404c0,0-16.307-5.902-19.624-5.027"/>
			<path style="fill:#2B2330;" d="M55.358,276.629c-0.139,0-0.28-0.023-0.416-0.073c-6.623-2.396-16.839-5.528-18.897-4.996     c-0.646,0.171-1.326-0.219-1.495-0.872c-0.172-0.654,0.218-1.324,0.873-1.497c3.484-0.918,17.569,4.052,20.352,5.06     c0.636,0.231,0.967,0.933,0.735,1.57C56.329,276.319,55.858,276.629,55.358,276.629z"/>
		</g>
		<path style="fill:#2B2330;" d="M42.077,317.208c-0.292,0-0.584-0.103-0.816-0.311c-8.321-7.439-4.149-17.291-4.106-17.389    c0.268-0.617,0.979-0.903,1.61-0.632c0.617,0.269,0.902,0.989,0.636,1.61c-0.146,0.337-3.486,8.348,3.491,14.583    c0.505,0.451,0.548,1.226,0.098,1.73C42.749,317.07,42.414,317.208,42.077,317.208z"/>
		<g>
			<path style="fill:#FFFFFF;" d="M54.409,268.824c0,0-11.559-5.241-15.497-3.977"/>
			<path style="fill:#2B2330;" d="M54.408,270.05c-0.17,0-0.342-0.035-0.505-0.109c-4.304-1.951-12.09-4.746-14.616-3.927     c-0.66,0.205-1.337-0.148-1.541-0.792c-0.208-0.644,0.146-1.334,0.79-1.541c4.28-1.375,15.152,3.472,16.377,4.028     c0.617,0.28,0.89,1.006,0.61,1.622C55.32,269.783,54.872,270.05,54.408,270.05z"/>
		</g>
		<path style="fill:#2B2330;" d="M23.275,310.913c-0.065,0-0.1-0.001-0.108-0.001c-0.675-0.031-1.199-0.604-1.165-1.28    c0.031-0.672,0.648-1.202,1.273-1.168c0.378,0.008,8.379,0.188,11.336-10.367c0.182-0.65,0.857-1.032,1.51-0.849    c0.651,0.183,1.031,0.859,0.849,1.51C33.667,310.549,24.386,310.913,23.275,310.913z"/>
	</g>
	<g>
		<g>
			<path style="fill:#FFFFFF;" d="M392.925,177.981c0,0-15.871-5.733-19.024,4.384c-3.153,10.117,21.994,8.444,16.673,3.132     c-2.296-2.292-11.85,10.717-5.911,15.678S408.291,184.236,392.925,177.981z"/>
			<path style="fill:#2B2330;" d="M386.761,203.125c0,0,0,0-0.002,0c-1.11,0-2.079-0.34-2.881-1.01     c-3.278-2.738-2.661-7.378-0.878-11.176c-2.364-0.092-7.314-0.662-9.556-3.709c-1.077-1.462-1.323-3.271-0.713-5.23     c1.4-4.489,5.218-6.862,11.042-6.862c4.831,0,9.377,1.622,9.568,1.692c5.405,2.199,7.759,6.437,6.68,11.951     C398.657,195.753,391.84,203.125,386.761,203.125z M385.792,190.865c-1.778,3.138-2.847,7.278-0.345,9.369     c0.354,0.297,0.785,0.44,1.314,0.44c3.527,0.001,9.654-6.229,10.855-12.364c0.589-2.998,0.17-7.027-5.154-9.195l0,0     c-0.002,0-4.302-1.528-8.69-1.528c-4.711,0-7.64,1.73-8.702,5.142c-0.38,1.219-0.268,2.217,0.345,3.049     c1.28,1.738,4.9,2.858,8.958,2.717c1.495-2.263,3.632-4.492,5.525-4.492c0.598,0,1.132,0.217,1.543,0.626     c1.349,1.349,1.168,2.565,0.938,3.169C391.539,190.018,387.885,190.672,385.792,190.865z M389.708,186.364     c-0.148,0.06-0.933,0.569-1.94,1.707c1.543-0.38,2.285-0.908,2.323-1.148C390.094,186.887,390.036,186.691,389.708,186.364z"/>
		</g>
		<g>
			<path style="fill:#FFFFFF;" d="M398.492,169.716c0,0-1.159-16.645,9.561-16.819c10.72-0.173,2.092,23.206-1.595,16.682     c-1.591-2.816,13.725-8.253,16.898-1.24S400.299,186.027,398.492,169.716z"/>
			<path style="fill:#2B2330;" d="M408.459,179.529c-6.427,0-10.504-3.528-11.185-9.678c-0.033-0.461-0.651-10.169,3.977-15.211     c1.768-1.925,4.048-2.924,6.783-2.968c0,0,0.002,0,0.005,0c2.259,0,3.957,0.823,5.048,2.378c1.778,2.533,1.596,6.528,0.761,9.847     c0.928-0.145,1.845-0.219,2.713-0.219c3.888,0,6.699,1.475,7.91,4.156c0.457,1.007,0.727,2.632-0.572,4.648     C421.391,176.367,414.465,179.529,408.459,179.529z M408.17,154.12c-2.158,0.035-3.799,0.745-5.111,2.172     c-3.917,4.261-3.352,13.248-3.345,13.339c0.682,6.147,5.132,7.447,8.745,7.447c5.632,0,11.571-3.122,13.379-5.925     c0.565-0.874,0.699-1.651,0.402-2.31c-1.017-2.245-3.651-2.716-5.68-2.716c-1.127,0-2.35,0.147-3.572,0.428     c-0.73,1.812-2.493,5.398-4.998,5.398c-0.727,0-1.771-0.307-2.598-1.772c-0.333-0.589-0.361-1.274-0.086-1.931     c0.706-1.678,3.359-2.992,5.819-3.734c1.189-3.648,1.184-7.311-0.043-9.061C410.45,154.557,409.498,154.12,408.17,154.12z      M409.744,167.651c-1.383,0.65-2.098,1.298-2.182,1.558c0.189,0.166,0.373,0.295,0.428,0.295     C408.289,169.504,408.986,168.926,409.744,167.651z"/>
		</g>
		<path style="fill:#ECD673;" d="M402.795,186.148c0,0-2.879,9.169,3.783,13.888c6.662,4.719,15.533,6.546,17.785,1.133    c2.252-5.414,0.928-14.776-6.73-18.125C409.975,179.696,403.318,183.341,402.795,186.148z"/>
		<g>
			<path style="fill:#FFFFFF;" d="M402.696,194.549c0,0,11.239-9.872,11.827-12.506"/>
			<path style="fill:#2B2330;" d="M402.696,195.775c-0.34,0-0.677-0.141-0.921-0.416c-0.445-0.508-0.395-1.282,0.112-1.729     c5.261-4.621,11.133-10.468,11.441-11.853c0.151-0.659,0.799-1.077,1.464-0.928c0.66,0.147,1.074,0.802,0.928,1.462     c-0.627,2.807-9.511,10.782-12.217,13.159C403.272,195.674,402.983,195.775,402.696,195.775z"/>
		</g>
		<g>
			<path style="fill:#FFFFFF;" d="M407.326,200.245c0,0,12.763-11.915,13.481-15.272"/>
			<path style="fill:#2B2330;" d="M407.325,201.47c-0.328,0-0.653-0.13-0.895-0.389c-0.462-0.495-0.435-1.27,0.06-1.732     c5.182-4.838,12.681-12.577,13.119-14.632c0.144-0.664,0.809-1.08,1.455-0.941c0.663,0.141,1.084,0.792,0.943,1.454     c-0.761,3.553-11.666,13.878-13.846,15.912C407.926,201.361,407.624,201.47,407.325,201.47z"/>
		</g>
		<path style="fill:#2B2330;" d="M392.848,175.157c-0.347,0-0.694-0.147-0.935-0.433c-0.242-0.284-5.974-6.88-14.815-3.439    c-0.629,0.25-1.34-0.066-1.586-0.697c-0.246-0.63,0.067-1.34,0.696-1.585c10.506-4.09,17.509,4.06,17.579,4.143    c0.435,0.517,0.368,1.287-0.148,1.723C393.407,175.062,393.128,175.157,392.848,175.157z"/>
		<g>
			<path style="fill:#FFFFFF;" d="M413.712,202.353c0,0,10.004-7.971,10.653-12.056"/>
			<path style="fill:#2B2330;" d="M413.714,203.578c-0.359,0-0.715-0.158-0.957-0.462c-0.423-0.529-0.335-1.299,0.194-1.721     c3.723-2.968,9.788-8.659,10.204-11.291c0.105-0.67,0.744-1.126,1.402-1.017c0.67,0.105,1.125,0.733,1.019,1.402     c-0.703,4.426-10.037,11.976-11.099,12.822C414.252,203.491,413.982,203.578,413.714,203.578z"/>
		</g>
		<path style="fill:#2B2330;" d="M395.4,173.643c-0.292,0-0.586-0.104-0.818-0.315c-9.712-8.738-4.766-17.713-4.716-17.802    c0.337-0.589,1.086-0.79,1.672-0.458c0.586,0.335,0.79,1.079,0.459,1.666l0,0c-0.167,0.298-3.979,7.393,4.221,14.773    c0.505,0.452,0.546,1.227,0.093,1.73C396.07,173.507,395.735,173.643,395.4,173.643z"/>
	</g>
	<g>
		<path style="fill:#EDD674;" d="M234.872,246.915c0,0-47.761,9.055-63.722,80.204s39.254,107.367,39.254,107.367    s128.108,4.585,140.425-3.406c45.641-29.612,33.386-180.856-26.371-190.881S234.872,246.915,234.872,246.915z"/>
		<g>
			<path style="fill:#FFFFFF;" d="M291.725,106.58c0,0,30.685-15.869,27.761-51.018c-2.924-35.149,28.229-8.89,13.627,24.797     c0,0,33.044-17,28.93-50.999s44.293,10.098,2.652,51.525c0,0,38.288-50.843,48.503-31.952s-25.811,74.451-124.007,69.305"/>
			<path style="fill:#2B2330;" d="M301.699,119.795c-4.082,0-8.266-0.109-12.573-0.334c-0.675-0.036-1.194-0.613-1.158-1.288     c0.036-0.675,0.636-1.193,1.287-1.159c65.053,3.408,103.763-20.015,118.336-43.074c5.898-9.326,7.632-18.685,4.529-24.424     c-1.203-2.224-2.835-3.383-4.993-3.546c-8.64-0.583-22.785,13.597-32.114,24.275c-2.431,3.755-5.534,7.609-9.456,11.508     c-0.452,0.457-1.187,0.479-1.668,0.055c-0.486-0.422-0.562-1.147-0.175-1.66c0.409-0.544,4.101-5.417,9.365-11.439     c14.334-22.379,3.685-40.796,2.22-43.121c-3.512-5.577-7.513-7.725-9.652-6.97c-2.204,0.782-3.098,4.743-2.39,10.594     c4.168,34.446-29.247,52.061-29.587,52.235c-0.459,0.236-1.019,0.157-1.397-0.195c-0.378-0.354-0.493-0.907-0.287-1.382     c7.75-17.878,2.28-32.622-2.988-37.716c-1.857-1.796-3.709-2.449-5.096-1.797c-1.005,0.476-4.204,2.973-3.197,15.101     c2.957,35.552-28.106,52.045-28.419,52.208c-0.598,0.309-1.337,0.074-1.648-0.525c-0.311-0.601-0.077-1.34,0.524-1.651     c0.299-0.156,29.922-15.935,27.104-49.829c-0.792-9.519,0.837-15.741,4.589-17.519c2.354-1.114,5.214-0.297,7.848,2.25     c5.393,5.216,11.049,19.567,4.869,37.058c7.924-5.164,28.479-21.295,25.256-47.946c-1.189-9.824,1.995-12.486,4-13.198     c3.687-1.305,8.721,1.9,12.547,7.973c1.369,2.175,10.315,17.607,2.189,37.343c9.03-9.377,19.997-18.648,27.747-18.099     c3.012,0.226,5.355,1.849,6.962,4.824c3.579,6.616,1.854,16.671-4.611,26.899C395.692,97.352,360.241,119.792,301.699,119.795z"/>
		</g>
		<g>
			<path style="fill:#FFFFFF;" d="M251.632,93.005c0,0-30.139-16.882-26.045-51.915s-27.917-9.825-14.446,24.33     c0,0-32.459-18.091-27.215-51.934c5.244-33.843-44.604,8.617-4.367,51.408c0,0-36.573-52.09-47.412-33.551     s23.316,75.27,121.629,73.398"/>
			<path style="fill:#2B2330;" d="M249.09,106.012c-63.292,0.001-100.475-24.698-114.288-48.249     c-6.12-10.438-7.508-20.545-3.713-27.038c1.706-2.919,4.103-4.463,7.123-4.588c7.692-0.346,18.416,9.34,27.127,19.013     c-7.465-19.996,1.991-35.121,3.433-37.249c4.024-5.947,9.173-8.982,12.803-7.55c1.981,0.778,5.075,3.543,3.56,13.323     c-4.111,26.529,15.896,43.335,23.646,48.76c-5.596-17.689,0.536-31.842,6.101-36.876c2.716-2.456,5.603-3.179,7.92-1.987     c3.689,1.902,5.111,8.174,4.003,17.661c-3.948,33.782,25.132,50.539,25.426,50.704c0.589,0.331,0.799,1.078,0.467,1.668     c-0.33,0.586-1.07,0.804-1.665,0.469c-0.309-0.172-30.802-17.691-26.663-53.126c1.414-12.087-1.701-14.688-2.689-15.198     c-1.361-0.695-3.24-0.106-5.154,1.626c-5.436,4.916-11.394,19.47-4.247,37.595c0.191,0.482,0.057,1.031-0.333,1.372     c-0.385,0.341-0.947,0.401-1.402,0.147c-0.333-0.184-33.142-18.903-27.831-53.191c0.902-5.825,0.141-9.812-2.034-10.667     c-2.122-0.831-6.185,1.189-9.879,6.643c-1.541,2.274-12.8,20.325,0.78,43.17c5.06,6.196,8.587,11.188,8.979,11.747     c0.368,0.525,0.27,1.248-0.23,1.653c-0.495,0.408-1.225,0.359-1.665-0.111c-3.788-4.027-6.759-7.982-9.066-11.814     c-8.857-10.849-22.311-25.341-30.972-25.341c-0.108,0-0.211,0.002-0.313,0.007c-2.163,0.09-3.835,1.194-5.111,3.377     c-3.292,5.631-1.871,15.042,3.713,24.561c13.796,23.53,51.762,48.199,116.836,46.993c0.01,0,0.017,0,0.024,0     c0.665,0,1.213,0.534,1.225,1.202c0.012,0.676-0.526,1.235-1.201,1.248C252.217,105.997,250.64,106.011,249.09,106.012z"/>
		</g>
		<path style="fill:#EDD674;" d="M330.764,255.901c0,0-18.316-150.439-47.324-164.962s-179.821,46.066-174.304,66.049    s16.354,68.876,29.201,70.26c12.847,1.384,98.189-30.378,98.189-30.378s-8.259,74.335-1.299,77.961    C242.187,278.457,320.51,309.551,330.764,255.901z"/>
		<path style="fill:#EDD674;" d="M296.328,111.421c0,0,56.348-0.649,66.554,10.435c10.206,11.084-31.61,26.856-45.289,22.495    C303.913,139.99,286.975,111.099,296.328,111.421z"/>
		<path style="fill:#2B2330;" d="M200.802,140.25c-0.01,0-0.019,0-0.026,0c-0.416-0.007-1.024-0.144-1.555-0.756    c-2.302-2.645-1.034-14.685-0.589-18.311c0.084-0.672,0.713-1.158,1.364-1.067c0.672,0.081,1.151,0.693,1.067,1.364    c-0.928,7.607-0.962,14.84-0.1,16.264c1.503-0.758,5.517-7.677,8.917-15.495c0.27-0.621,0.998-0.903,1.613-0.635    c0.622,0.27,0.904,0.992,0.636,1.611C209.361,129.591,204.214,140.249,200.802,140.25z"/>
		<path style="fill:#2B2330;" d="M229.961,146.837c-0.01,0-0.019,0-0.029,0c-0.414-0.007-1.019-0.144-1.553-0.756    c-2.302-2.644-1.034-14.683-0.589-18.309c0.084-0.672,0.703-1.158,1.364-1.067c0.672,0.081,1.151,0.693,1.067,1.364    c-0.928,7.607-0.962,14.839-0.103,16.263c1.505-0.76,5.522-7.678,8.92-15.495c0.268-0.622,0.995-0.908,1.613-0.635    c0.62,0.269,0.904,0.992,0.636,1.611C238.519,136.178,233.373,146.836,229.961,146.837z"/>
		<path style="fill:#2B2330;" d="M331.829,139.131c-0.134,0-0.268-0.001-0.404-0.004c-15.229-0.264-28.63-15.218-29.192-15.853    c-0.45-0.507-0.402-1.281,0.105-1.73c0.5-0.447,1.275-0.402,1.727,0.105c0.132,0.148,13.265,14.788,27.41,15.028    c5.721,0.132,11.107-2.289,15.674-7.101c0.464-0.493,1.242-0.51,1.73-0.045c0.493,0.465,0.512,1.241,0.045,1.732    C343.971,136.485,338.222,139.131,331.829,139.131z"/>
		<path style="fill:#EDD674;" d="M363.699,397.639c0,0,44.014-30.46,47.214-25.481c3.201,4.979,4.979,46.052-34.398,44.575    C337.138,415.255,363.699,397.639,363.699,397.639z"/>
		<path style="fill:#EDD674;" d="M300.209,414.64c0,0-1.463,87.809,0.999,87.85s50.1-1.628,52.658-7.331s-3.433-89.532-6.689-91.228    C343.922,402.235,300.209,414.64,300.209,414.64z"/>
		<path style="fill:#EDD674;" d="M211.983,408.998c0,0-16.409,86.274-13.99,86.734c2.419,0.46,49.644,6.936,53.137,1.752    c3.492-5.184,11.878-88.807,8.959-91.033S211.983,408.998,211.983,408.998z"/>
		<path style="fill:#FFFFFF;" d="M258.794,436.934c0,0-87.645-109.815,5.128-159.984c55.647-30.092,68.004,106.204,34.303,158.178    C298.226,435.129,266.973,438.712,258.794,436.934z"/>
		<path style="opacity:0.2;fill:#ECD673;" d="M258.794,436.934c0,0-87.645-109.815,5.128-159.984    c55.647-30.092,68.004,106.204,34.303,158.178C298.226,435.129,266.973,438.712,258.794,436.934z"/>
		<path style="fill:#EDD674;" d="M337.931,269.154c0,0-44.985,39.473-98.955,27.082l-14.594,38.338c0,0,65.2,28.175,121.605-7.003    S337.931,269.154,337.931,269.154z"/>
		<path style="fill:#2B2330;" d="M262.584,300.984c-7.534,0-12.241-0.863-12.396-0.892c-0.663-0.129-1.096-0.772-0.967-1.436    c0.127-0.663,0.758-1.104,1.436-0.969c0.495,0.097,50.489,9.19,87.242-34.235c0.438-0.516,1.215-0.577,1.727-0.144    c0.517,0.438,0.579,1.211,0.144,1.727C313.348,296.253,280.223,300.984,262.584,300.984z"/>
		<path style="fill:#2B2330;" d="M283.197,345.418c-1.596,0-3.144-0.035-4.644-0.098c-23.778-1.012-40.086-9.076-40.77-9.42    c-0.603-0.304-0.847-1.04-0.546-1.644c0.304-0.604,1.036-0.851,1.646-0.546c0.651,0.324,65.854,32.012,122.954-24.79    c0.479-0.476,1.254-0.476,1.732,0.005c0.476,0.48,0.476,1.255-0.005,1.732C335.152,338.924,304.941,345.418,283.197,345.418z"/>
		<path style="fill:#2B2330;" d="M253.228,475.422l-52.535-0.054l-5.334,24.537c0,0,55.776,2.571,58.265,0.971    S253.228,475.422,253.228,475.422z"/>
		<path style="fill:#2B2330;" d="M299.936,480.305c0,0,51.782-4.062,53.369-0.752c1.587,3.31,1.258,23.005,1.258,23.005    s-48.459,1.655-53.355-0.068S299.936,480.305,299.936,480.305z"/>
		<path style="fill:#FFFFFF;" d="M131.865,178.009c0,0,75.951-21.234,91.468-11.842c15.517,9.392,13.317,33.275,13.317,33.275    s-74.324,34.755-94.498,28.482c-16.452-5.116-24.987-35.215-22.945-39.706C121.248,183.726,131.865,178.009,131.865,178.009z"/>
		<path style="opacity:0.2;fill:#ECD673;" d="M131.865,178.009c0,0,75.951-21.234,91.468-11.842    c15.517,9.392,13.317,33.275,13.317,33.275s-74.324,34.755-94.498,28.482c-16.452-5.116-24.987-35.215-22.945-39.706    C121.248,183.726,131.865,178.009,131.865,178.009z"/>
		<path style="fill:#2B2330;" d="M158.204,215.46c-7.094,0-13.494-17.043-14.731-20.533c-0.225-0.638,0.11-1.337,0.746-1.564    c0.641-0.226,1.337,0.106,1.565,0.745c2.876,8.125,8.757,19.39,12.65,18.888c1.641-0.194,5.711-3.078,8.077-25.609    c0.069-0.674,0.67-1.168,1.345-1.09c0.675,0.071,1.163,0.674,1.091,1.346c-1.928,18.36-5.178,27.19-10.226,27.787    C158.549,215.45,158.377,215.46,158.204,215.46z"/>
		<path style="fill:#2B2330;" d="M148.349,230.331c-2.728,0-5.127-0.286-7.073-0.934c-21.388-7.129-22.835-41.71-22.888-43.178    c-0.024-0.676,0.505-1.243,1.182-1.267c0.627-0.083,1.244,0.504,1.268,1.181c0.012,0.343,1.44,34.35,21.213,40.941    c20.533,6.836,105.543-30.381,109.129-39.704c0.242-0.63,0.947-0.941,1.584-0.703c0.632,0.243,0.945,0.952,0.703,1.584    c-2.366,6.148-26.816,18.486-49.747,27.497C194.144,219.509,165.126,230.331,148.349,230.331z"/>
		<path style="fill:#2B2330;" d="M133.498,133.908c0,0,35.525,57.167-13.067,64.926c0,0-14.7-33.484-13.884-44.101    C107.364,144.117,133.498,133.908,133.498,133.908z"/>
		<g>
			<path style="fill:#2B2330;" d="M310.247,200.672c-0.239,0-0.481-0.069-0.694-0.215c-0.557-0.384-0.699-1.146-0.316-1.704     c1.115-1.622-0.761-5.986-1.845-7.847c-0.342-0.584-0.144-1.334,0.44-1.675c0.581-0.341,1.333-0.144,1.675,0.439     c0.421,0.72,4.044,7.131,1.749,10.47C311.02,200.487,310.635,200.672,310.247,200.672z"/>
			<path style="fill:#2B2330;" d="M313.104,188.014c-0.239,0-0.483-0.069-0.694-0.215c-0.557-0.384-0.699-1.147-0.316-1.704     c1.117-1.623-0.758-5.988-1.842-7.847c-0.342-0.584-0.144-1.334,0.44-1.675c0.579-0.341,1.333-0.144,1.675,0.439     c0.421,0.72,4.044,7.13,1.747,10.47C313.877,187.829,313.492,188.014,313.104,188.014z"/>
			<path style="fill:#2B2330;" d="M318.413,215.782c-0.239,0-0.481-0.069-0.694-0.215c-0.557-0.383-0.699-1.146-0.316-1.704     c1.12-1.628-0.761-5.989-1.845-7.845c-0.342-0.585-0.144-1.335,0.44-1.676c0.579-0.341,1.333-0.147,1.675,0.439     c0.421,0.72,4.043,7.13,1.749,10.47C319.186,215.596,318.801,215.782,318.413,215.782z"/>
			<path style="fill:#2B2330;" d="M306.979,223.54c-0.239,0-0.483-0.069-0.694-0.215c-0.557-0.384-0.699-1.147-0.316-1.704     c1.117-1.623-0.758-5.988-1.842-7.847c-0.342-0.584-0.144-1.334,0.44-1.675c0.581-0.343,1.333-0.145,1.675,0.439     c0.421,0.72,4.044,7.13,1.747,10.47C307.752,223.354,307.367,223.54,306.979,223.54z"/>
			<path style="fill:#2B2330;" d="M318.004,232.115c-0.239,0-0.483-0.069-0.694-0.215c-0.557-0.384-0.699-1.147-0.316-1.704     c1.117-1.623-0.758-5.988-1.842-7.847c-0.342-0.584-0.144-1.334,0.44-1.675c0.581-0.341,1.333-0.144,1.675,0.439     c0.421,0.72,4.044,7.13,1.747,10.47C318.777,231.929,318.392,232.115,318.004,232.115z"/>
			<path style="fill:#2B2330;" d="M302.897,205.981c-0.239,0-0.481-0.069-0.694-0.215c-0.557-0.383-0.699-1.146-0.316-1.704     c1.12-1.628-0.761-5.989-1.845-7.845c-0.342-0.585-0.144-1.335,0.44-1.676c0.581-0.342,1.333-0.147,1.675,0.439     c0.421,0.72,4.043,7.13,1.749,10.47C303.67,205.796,303.285,205.981,302.897,205.981z"/>
			<path style="fill:#2B2330;" d="M302.897,186.381c-0.239,0-0.481-0.069-0.694-0.215c-0.557-0.383-0.699-1.146-0.316-1.704     c1.12-1.628-0.761-5.989-1.845-7.845c-0.342-0.585-0.144-1.335,0.44-1.676c0.581-0.341,1.333-0.147,1.675,0.439     c0.421,0.72,4.043,7.13,1.749,10.47C303.67,186.196,303.285,186.381,302.897,186.381z"/>
		</g>
		<g>
			<path style="fill:#2B2330;" d="M331.98,317.82c-0.452,0-0.897-0.066-1.323-0.212c-0.641-0.22-0.981-0.916-0.761-1.556     c0.22-0.64,0.916-0.98,1.555-0.762c1.859,0.642,5.56-2.341,7.063-3.883c0.469-0.486,1.244-0.498,1.732-0.025     c0.483,0.47,0.495,1.245,0.026,1.731C339.756,313.645,335.59,317.82,331.98,317.82z"/>
			<path style="fill:#2B2330;" d="M344.938,317.172c-0.452,0-0.895-0.065-1.321-0.211c-0.639-0.22-0.981-0.916-0.761-1.556     c0.218-0.64,0.914-0.98,1.555-0.762c1.833,0.633,5.56-2.341,7.063-3.884c0.471-0.486,1.244-0.499,1.732-0.025     c0.483,0.47,0.495,1.245,0.026,1.731C352.716,312.997,348.551,317.172,344.938,317.172z"/>
			<path style="fill:#2B2330;" d="M319.619,329.745c-0.452,0-0.897-0.066-1.323-0.212c-0.641-0.22-0.981-0.916-0.761-1.556     c0.22-0.64,0.914-0.979,1.555-0.762c1.883,0.648,5.568-2.339,7.063-3.883c0.474-0.481,1.249-0.499,1.732-0.026     c0.486,0.471,0.498,1.247,0.029,1.732C327.398,325.57,323.232,329.745,319.619,329.745z"/>
			<path style="fill:#2B2330;" d="M309.073,320.816c-0.452,0-0.895-0.065-1.321-0.211c-0.639-0.22-0.981-0.916-0.761-1.556     c0.218-0.639,0.912-0.975,1.555-0.762c1.84,0.639,5.563-2.342,7.063-3.884c0.469-0.484,1.244-0.499,1.732-0.025     c0.483,0.47,0.495,1.245,0.026,1.731C316.851,316.641,312.686,320.816,309.073,320.816z"/>
			<path style="fill:#2B2330;" d="M303.775,333.74c-0.452,0-0.895-0.065-1.321-0.211c-0.639-0.22-0.981-0.916-0.761-1.556     c0.215-0.639,0.916-0.975,1.555-0.762c1.833,0.636,5.56-2.341,7.063-3.884c0.469-0.486,1.247-0.498,1.732-0.025     c0.483,0.47,0.495,1.245,0.026,1.731C311.554,329.565,307.388,333.74,303.775,333.74z"/>
			<path style="fill:#2B2330;" d="M324.893,312.167c-0.452,0-0.897-0.066-1.323-0.212c-0.641-0.22-0.981-0.916-0.761-1.556     c0.22-0.639,0.916-0.975,1.555-0.762c1.861,0.638,5.56-2.34,7.063-3.883c0.471-0.486,1.244-0.498,1.732-0.025     c0.483,0.47,0.495,1.245,0.026,1.731C332.669,307.992,328.503,312.167,324.893,312.167z"/>
			<path style="fill:#2B2330;" d="M343.773,306.901c-0.452,0-0.897-0.066-1.323-0.212c-0.641-0.22-0.981-0.916-0.761-1.556     c0.22-0.64,0.916-0.979,1.555-0.762c1.864,0.636,5.56-2.34,7.063-3.883c0.469-0.486,1.244-0.498,1.732-0.025     c0.483,0.47,0.495,1.245,0.026,1.731C351.549,302.725,347.383,306.901,343.773,306.901z"/>
		</g>
		<g>
			<path style="fill:#2B2330;" d="M256.464,413.426c-0.321,0-0.639-0.124-0.878-0.372c-0.581-0.598-5.635-5.953-4.206-9.745     c0.237-0.633,0.938-0.956,1.579-0.714c0.632,0.238,0.952,0.945,0.713,1.578c-0.694,1.842,2.175,5.63,3.67,7.175     c0.471,0.486,0.459,1.261-0.026,1.732C257.079,413.311,256.77,413.426,256.464,413.426z"/>
			<path style="fill:#2B2330;" d="M256.72,426.401c-0.321,0-0.639-0.124-0.878-0.372c-0.581-0.598-5.632-5.954-4.204-9.745     c0.239-0.633,0.94-0.957,1.579-0.714c0.632,0.238,0.952,0.945,0.713,1.578c-0.694,1.842,2.173,5.63,3.67,7.175     c0.469,0.486,0.457,1.261-0.029,1.732C257.335,426.286,257.026,426.401,256.72,426.401z"/>
			<path style="fill:#2B2330;" d="M244.915,400.714c-0.321,0-0.639-0.124-0.878-0.372c-0.581-0.598-5.632-5.954-4.204-9.745     c0.237-0.632,0.936-0.956,1.579-0.714c0.632,0.238,0.952,0.945,0.713,1.578c-0.694,1.842,2.173,5.63,3.67,7.175     c0.469,0.486,0.457,1.261-0.029,1.732C245.53,400.599,245.221,400.714,244.915,400.714z"/>
			<path style="fill:#2B2330;" d="M254.158,390.442c-0.321,0-0.639-0.124-0.878-0.372c-0.581-0.598-5.632-5.954-4.204-9.745     c0.237-0.633,0.94-0.953,1.579-0.714c0.632,0.238,0.952,0.945,0.713,1.578c-0.694,1.842,2.172,5.63,3.67,7.175     c0.469,0.486,0.457,1.261-0.029,1.732C254.772,390.327,254.464,390.442,254.158,390.442z"/>
			<path style="fill:#2B2330;" d="M241.4,384.757c-0.321,0-0.639-0.124-0.878-0.372c-0.581-0.598-5.635-5.953-4.206-9.745     c0.237-0.633,0.94-0.955,1.579-0.714c0.632,0.238,0.952,0.945,0.713,1.578c-0.694,1.842,2.175,5.63,3.67,7.175     c0.471,0.486,0.459,1.261-0.026,1.732C242.015,384.642,241.706,384.757,241.4,384.757z"/>
			<path style="fill:#2B2330;" d="M262.328,406.512c-0.321,0-0.639-0.124-0.878-0.372c-0.581-0.598-5.635-5.954-4.206-9.746     c0.237-0.634,0.938-0.956,1.579-0.714c0.632,0.238,0.952,0.945,0.713,1.578c-0.694,1.842,2.175,5.631,3.673,7.177     c0.469,0.486,0.457,1.261-0.029,1.732C262.943,406.397,262.635,406.512,262.328,406.512z"/>
			<path style="fill:#2B2330;" d="M267.023,425.542c-0.321,0-0.639-0.124-0.878-0.372c-0.581-0.598-5.632-5.955-4.204-9.746     c0.237-0.633,0.938-0.953,1.579-0.714c0.632,0.238,0.952,0.945,0.713,1.578c-0.696,1.848,2.17,5.633,3.668,7.177     c0.471,0.486,0.462,1.261-0.024,1.732C267.637,425.427,267.331,425.542,267.023,425.542z"/>
		</g>
		<path style="fill:#9D7F95;" d="M133.088,291.153c0,0,52.617-28.812,57.31-25.353c4.693,3.459,43.053,82.425,43.134,92.14    c0.081,9.716-54.923,31.941-67.973,28.358C152.509,382.714,132.758,298.151,133.088,291.153z"/>
		<polygon style="fill:#9D7F95;" points="155.909,333.816 86.589,327.84 82.413,347.054 162.143,364.773   "/>
		<path style="fill:#9D7F95;" d="M192.213,294.636c0,0,33.222-23.252,46.927-8.248s-15.004,62.957-15.004,62.957l-13.718-14.183    c0,0,33.373-32.279,22.048-42.318c-11.325-10.039-32.265,15.059-32.265,15.059L192.213,294.636z"/>
		<polygon style="fill:#2B2330;" points="120.516,360.752 124.195,337.008 165.132,343.437 154.792,372.816   "/>
		<path style="fill:#2B2330;" d="M256.154,299.805c0,0-13.841,42.454-18.751,41.552s-28.558-10.326-28.558-10.326    s15.455-40.786,20.365-39.883C234.12,292.051,256.154,299.805,256.154,299.805z"/>
		<path style="fill:#9D7F95;" d="M95.931,327.053c0,0-4.295,22.05-18.612,26.134C63.003,357.27,91.159,306.636,95.931,327.053z"/>
		<path style="fill:#2B2330;" d="M137.582,292.752c-0.677,0-1.225-0.548-1.225-1.225c0-0.676,0.548-1.225,1.225-1.225    c0.347,0,34.865-0.231,43.811-18.904c0.294-0.614,1.029-0.871,1.634-0.575c0.61,0.292,0.869,1.023,0.577,1.633    C173.991,292.521,139.063,292.752,137.582,292.752z"/>
		<path style="fill:#2B2330;" d="M279.907,439.237c-20.069,0-36.365-6.412-36.614-6.513c-0.627-0.252-0.931-0.965-0.68-1.593    c0.251-0.628,0.964-0.931,1.593-0.68c0.368,0.15,37.43,14.711,68-0.774c0.603-0.301,1.34-0.065,1.646,0.54    c0.306,0.604,0.065,1.341-0.541,1.647C302.345,437.419,290.59,439.237,279.907,439.237z"/>
		<path style="fill:#2B2330;" d="M378.978,409.986c-0.038,0-0.074-0.001-0.105-0.002c-0.591-0.028-1.139-0.484-1.22-1.069    c-0.081-0.585,0.311-1.17,0.871-1.357c0.208-0.067,0.416-0.079,0.62-0.041c2.072-0.251,21.938-3.256,25.524-18.674    c0.153-0.658,0.811-1.074,1.471-0.915c0.658,0.153,1.07,0.811,0.916,1.47C403.172,406.092,381.822,409.985,378.978,409.986z"/>
		<path style="fill:#2B2330;" d="M251.143,125.463c-3.314,0-6.953-1.05-10.556-3.625c-4.424-3.159-6.245-6.767-6.517-9.994    c-2.692,0.319-5.737-0.093-8.245-1.663c-2.85-1.781-4.314-4.761-4.122-8.392c0.663-12.586,12.061-13.402,12.176-13.408    c0.658-0.026,1.249,0.474,1.292,1.147c0.043,0.674-0.471,1.254-1.144,1.298c-0.38,0.025-9.334,0.726-9.879,11.092    c-0.146,2.779,0.857,4.861,2.976,6.186c2.05,1.282,4.747,1.585,7.039,1.247c0.136-0.851,0.378-1.652,0.701-2.383    c1.103-2.524,2.986-4.059,4.615-3.712c0.548,0.115,1.821,0.626,1.821,2.885c0,1.777-1.065,3.345-2.996,4.416    c-0.543,0.3-1.16,0.561-1.83,0.774c0.086,2.328,1.239,5.443,5.539,8.514c5.907,4.221,11.858,3.74,15.746,1.317    c-3.445-2.314-4.046-5.022-4.111-6.372c-0.122-2.639,1.464-5.141,3.773-5.952c2.082-0.732,4.209,0.055,5.694,2.095    c2.072,2.848,1.656,6.578-1.012,9.702c0.811,0.306,1.727,0.595,2.768,0.855c9.829,2.456,19.275,0.729,21.967-4.021    c2.043-3.612-0.079-8.85-5.979-14.75c-0.479-0.479-0.479-1.254,0-1.732c0.479-0.479,1.254-0.479,1.732,0    c8.652,8.652,8.243,14.395,6.379,17.69c-3.266,5.767-13.652,7.953-24.692,5.19c-1.601-0.4-2.962-0.872-4.12-1.391    C257.806,124.28,254.658,125.463,251.143,125.463z M258.943,111.027c-0.234,0-0.471,0.041-0.711,0.124    c-1.096,0.385-2.218,1.751-2.137,3.526c0.048,1.005,0.565,3.071,3.682,4.871c1.749-1.788,3.139-4.722,1.357-7.174    C260.488,111.488,259.73,111.027,258.943,111.027z M238.821,105.737c-0.5,0.272-1.412,1.242-1.943,2.802    c0.081-0.041,0.16-0.083,0.239-0.126c0.79-0.438,1.732-1.188,1.732-2.272C238.85,105.964,238.838,105.832,238.821,105.737z"/>
	</g>
	<g>
		<path style="fill:#2B2330;" d="M74.336,478.907c-0.048,0-0.096-0.002-0.144-0.008c-0.672-0.079-1.153-0.687-1.077-1.359    c3.498-29.905-25.503-99.58-25.795-100.28c-0.261-0.624,0.031-1.342,0.656-1.603c0.627-0.263,1.342,0.031,1.603,0.656    c1.208,2.884,29.542,70.974,25.972,101.512C75.477,478.447,74.949,478.907,74.336,478.907z"/>
		<path style="fill:#2B2330;" d="M80.275,490.032c-0.548,0-1.048-0.37-1.187-0.925c-5.769-22.852,17.744-91.801,18.748-94.725    c0.22-0.639,0.914-0.977,1.555-0.762c0.641,0.22,0.981,0.918,0.761,1.556c-0.242,0.709-24.28,71.181-18.691,93.33    c0.167,0.657-0.232,1.322-0.888,1.488C80.473,490.02,80.373,490.032,80.275,490.032z"/>
		<path style="fill:#D17D92;" d="M26.504,370.294c0,0,5.063,27.038,25.865,28.61c20.802,1.572,20.322-43.156,11.248-50.045    c-3.81-2.893-8.155,11.503-8.155,11.503s-3.43-14.759-8.38-11.779c-4.95,2.98-7.002,15.811-7.002,15.811    s-7.155-11.758-11.473-9.993S26.504,370.294,26.504,370.294z"/>
		<path style="fill:#DF9C49;" d="M77.412,380.408c0,0-8.394,26.197,9.163,37.464s38.388-28.315,33.678-38.689    c-1.978-4.356-12.642,6.246-12.642,6.246s3.996-14.616-1.776-14.346c-5.772,0.27-13.674,10.584-13.674,10.584    s-0.708-13.746-5.346-14.244C82.176,366.925,77.412,380.408,77.412,380.408z"/>
		<path style="fill:#B4D5C9;" d="M68.164,436.488c0,0-8.575-22.05-35.525-27.767C32.638,408.721,38.355,454.046,68.164,436.488z"/>
		<path style="fill:#B4D5C9;" d="M85.878,441.008c0,0,8.575-22.05,35.525-27.767C121.404,413.241,115.687,458.566,85.878,441.008z"/>
		<path style="fill:#2B2330;" d="M66.122,437.508c-0.459,0-0.902-0.262-1.11-0.707c-1.455-3.118-12.044-10.178-18.806-14.163    c-0.584-0.343-0.778-1.095-0.433-1.677c0.342-0.585,1.093-0.773,1.677-0.433c1.79,1.054,17.543,10.438,19.782,15.237    c0.287,0.613,0.022,1.342-0.591,1.628C66.472,437.471,66.297,437.508,66.122,437.508z"/>
		<path style="fill:#2B2330;" d="M85.878,442.233c-0.144,0-0.29-0.025-0.433-0.079c-0.634-0.239-0.952-0.946-0.713-1.579    c1.768-4.675,18.028-12.962,21.27-14.576c0.601-0.299,1.34-0.056,1.641,0.552c0.301,0.605,0.055,1.341-0.55,1.643    c-7.173,3.571-18.964,10.325-20.069,13.248C86.837,441.931,86.373,442.233,85.878,442.233z"/>
		<path style="fill:#2B2330;" d="M108.694,409.639c-0.029,0-0.057-0.001-0.086-0.002c-3.938-0.272-6.056-2.335-6.951-4.716    c-1.4,0.495-3.153,0.815-5.257,0.736c-4.864-0.162-7.927-3.313-9.326-6.636c-1.649,0.658-3.455,0.843-5.197,0.11    c-5.312-2.237-5.807-8.064-5.324-10.833c0.115-0.666,0.751-1.115,1.412-0.997c0.665,0.114,1.113,0.746,1.003,1.413    c-0.043,0.249-0.971,6.123,3.862,8.158c1.203,0.508,2.472,0.25,3.527-0.207c-0.098-0.506-0.156-1.001-0.175-1.473    c-0.124-3.214,1.445-5.475,3.998-5.759c1.976-0.224,2.728,0.697,3.01,1.261c1.012,2.017-1.23,4.652-1.94,5.412    c-0.574,0.611-1.259,1.214-2.019,1.743c1.034,2.653,3.412,5.231,7.252,5.359c1.94,0.059,3.486-0.248,4.666-0.717    c-0.017-0.281-0.019-0.56-0.012-0.835c0.098-2.851,1.577-5.8,3.881-5.8c0.931,0,1.708,0.433,2.134,1.19    c0.589,1.047,0.409,2.547-0.481,4.014c-0.342,0.563-1.201,1.757-2.811,2.787c0.483,1.516,1.751,3.125,4.917,3.342    c0.675,0.047,1.184,0.632,1.139,1.306C109.869,409.145,109.33,409.639,108.694,409.639z M105.014,398.248    c-0.333,0.051-1.096,1.043-1.349,2.656c0.44-0.423,0.715-0.806,0.864-1.04C105.084,398.99,105.079,398.374,105.014,398.248z     M90.996,391.838c-0.057,0.017-0.232-0.004-0.543,0.031c-1.799,0.2-1.849,2.522-1.821,3.229c0,0.039,0.002,0.08,0.005,0.121    C90.249,393.838,91.003,392.343,90.996,391.838z"/>
		<path style="fill:#2B2330;" d="M42.129,387.972c-0.414,0-0.842-0.029-1.282-0.087c-10.133-1.351-10.25-6.802-10.25-7.033    c0-0.677,0.548-1.225,1.225-1.225c0.668,0,1.211,0.534,1.225,1.198c0.01,0.121,0.378,3.598,8.125,4.632    c2.536,0.342,4.022-0.671,4.89-1.956c-1.756-0.865-2.706-2.341-3.012-3.729c-0.531-2.421,0.651-4.821,2.747-5.583    c0.974-0.357,1.979-0.069,2.692,0.754c1.218,1.414,1.524,4.272,0.907,6.862c0.318,0.013,0.656,0.001,1.005-0.029    c1.921-0.16,3.56-1.023,4.807-2.168c-1.151-2.619-1.359-5.613-0.507-7.362c0.574-1.175,1.613-1.725,2.797-1.473    c1.854,0.397,2.921,1.983,2.783,4.14c-0.098,1.518-0.828,3.383-2.105,5.046c0.079,0.12,0.163,0.238,0.251,0.355    c2.704,3.596,6.618,1.905,9.424-0.145c0.543-0.402,1.309-0.282,1.711,0.264c0.4,0.547,0.282,1.312-0.266,1.712    c-5.922,4.334-9.736,2.528-11.482,1.069c-0.505-0.422-0.957-0.913-1.361-1.452c-1.541,1.302-3.512,2.259-5.845,2.452    c-0.766,0.067-1.464,0.055-2.105-0.022C47.158,386.659,44.924,387.972,42.129,387.972z M46.556,376.471    c-0.854,0.359-1.376,1.57-1.11,2.775c0.194,0.891,0.744,1.572,1.572,2.007C47.613,378.825,46.972,376.709,46.556,376.471z     M56.985,373.168c-0.378,0.293-0.553,2.144,0.012,4.181c0.498-0.891,0.787-1.798,0.837-2.592    C57.923,373.37,57.241,373.223,56.985,373.168z"/>
		<polygon style="fill:#DF9C49;" points="38.919,448.484 117.478,448.693 110.588,512 46.969,510.94   "/>
		<path style="fill:#2B2330;" d="M70.472,493.933c-4.759,0-8.604-2.638-11.063-6.064c-1.926,1.755-4.29,2.945-7.025,2.945    c-2.852,0-5.158-0.967-6.852-2.871c-3.883-4.367-3.022-12.121-2.981-12.45c0.079-0.672,0.703-1.14,1.357-1.073    c0.672,0.079,1.153,0.687,1.077,1.359c-0.01,0.069-0.77,7.002,2.383,10.541c1.225,1.376,2.866,2.044,5.017,2.044    c2.137,0,4.087-1.054,5.714-2.644c-0.309-0.603-0.579-1.217-0.804-1.833c-1.83-4.98-0.77-9.445,2.704-11.374    c2.098-1.166,3.381-0.683,4.091-0.075c2.211,1.899,0.706,6.574,0.194,7.961c-0.699,1.884-1.766,3.893-3.163,5.637    c2.378,3.56,6.455,6.234,11.544,5.224c3.67-0.735,6.147-3.088,7.75-5.411c-2.584-3.393-3.977-8.182-3.153-11.622    c0.498-2.083,1.766-3.463,3.572-3.888c1.469-0.339,2.804,0.026,3.744,1.05c1.766,1.92,1.976,6.007,0.541,10.414    c-0.445,1.365-1,2.643-1.656,3.816c0.165,0.16,0.337,0.313,0.512,0.462c2.328,1.962,4.934,2.356,7.735,1.151    c2.024-0.867,3.744-2.117,5.175-3.546c-0.211-1-0.347-2.07-0.402-3.197c-0.208-4.136,0.852-9.41,3.665-11.219    c1.57-1.011,2.67-0.778,3.316-0.396c0.737,0.433,1.582,1.47,1.426,3.949c-0.194,3.057-1.964,7.709-5.3,11.526    c0.725,2.388,1.995,4.167,3.654,5.011c2.606,1.329,6.36,0.489,10.85-2.44c0.569-0.366,1.328-0.209,1.696,0.358    c0.368,0.566,0.211,1.326-0.356,1.695c-5.345,3.484-9.824,4.345-13.303,2.571c-1.969-1.004-3.496-2.827-4.467-5.254    c-1.448,1.281-3.11,2.388-4.989,3.193c-3.618,1.555-7.271,1.007-10.281-1.529c-0.093-0.079-0.187-0.16-0.28-0.244    c-2.323,3.132-5.446,5.247-8.972,5.952C72.226,493.847,71.333,493.933,70.472,493.933z M62.32,474.258    c-0.211,0-0.591,0.097-1.132,0.397c-2.869,1.593-2.653,5.514-1.596,8.387c0.074,0.206,0.156,0.412,0.242,0.616    c0.897-1.274,1.625-2.693,2.149-4.109c1.129-3.049,0.89-4.925,0.51-5.251C62.464,474.273,62.407,474.258,62.32,474.258z     M81.885,472.662c-0.144,0-0.306,0.019-0.493,0.063c-0.883,0.207-1.471,0.904-1.751,2.072c-0.541,2.262,0.234,5.867,2.12,8.75    c0.519-1.047,0.847-1.948,1.029-2.503c1.247-3.826,0.921-6.976-0.017-7.995C82.6,472.859,82.347,472.662,81.885,472.662z     M102.215,470.985c-0.007,0.017-0.246,0.029-0.742,0.347c-1.428,0.918-2.768,4.548-2.546,9.037c0.014,0.282,0.033,0.56,0.06,0.834    c1.9-2.656,2.991-5.505,3.34-7.555C102.634,471.844,102.325,471.102,102.215,470.985z"/>
	</g>
	<g>
		<path style="fill:#2B2330;" d="M441.841,478.907c-0.048,0-0.096-0.002-0.144-0.008c-0.672-0.079-1.153-0.687-1.077-1.359    c3.498-29.905-25.503-99.58-25.795-100.28c-0.261-0.624,0.031-1.342,0.656-1.603c0.629-0.263,1.342,0.031,1.603,0.656    c1.208,2.884,29.542,70.974,25.972,101.512C442.982,478.447,442.454,478.907,441.841,478.907z"/>
		<path style="fill:#2B2330;" d="M447.78,490.032c-0.548,0-1.048-0.37-1.187-0.925c-5.769-22.852,17.744-91.801,18.749-94.725    c0.22-0.639,0.914-0.977,1.555-0.762c0.641,0.22,0.981,0.918,0.761,1.556c-0.242,0.709-24.28,71.181-18.691,93.33    c0.167,0.657-0.232,1.322-0.888,1.488C447.978,490.02,447.878,490.032,447.78,490.032z"/>
		<path style="fill:#D17D92;" d="M394.009,370.294c0,0,5.063,27.038,25.865,28.61c20.802,1.572,20.322-43.156,11.248-50.045    c-3.81-2.893-8.155,11.503-8.155,11.503s-3.43-14.759-8.38-11.779c-4.95,2.98-7.002,15.811-7.002,15.811    s-7.155-11.758-11.473-9.993C391.794,356.167,394.009,370.294,394.009,370.294z"/>
		<path style="fill:#DF9C49;" d="M444.917,380.408c0,0-8.394,26.197,9.163,37.464c17.556,11.268,38.388-28.315,33.678-38.689    c-1.978-4.356-12.642,6.246-12.642,6.246s3.996-14.616-1.776-14.346c-5.772,0.27-13.674,10.584-13.674,10.584    s-0.708-13.746-5.346-14.244C449.681,366.925,444.917,380.408,444.917,380.408z"/>
		<path style="fill:#B4D5C9;" d="M435.669,436.488c0,0-8.575-22.05-35.525-27.767C400.143,408.721,405.86,454.046,435.669,436.488z"/>
		<path style="fill:#B4D5C9;" d="M453.383,441.008c0,0,8.575-22.05,35.525-27.767C488.909,413.241,483.192,458.566,453.383,441.008z    "/>
		<path style="fill:#2B2330;" d="M433.627,437.508c-0.459,0-0.902-0.262-1.11-0.707c-1.455-3.118-12.044-10.178-18.806-14.163    c-0.584-0.343-0.778-1.095-0.433-1.677c0.342-0.585,1.096-0.773,1.677-0.433c1.79,1.054,17.543,10.438,19.782,15.237    c0.287,0.613,0.022,1.342-0.591,1.628C433.977,437.471,433.802,437.508,433.627,437.508z"/>
		<path style="fill:#2B2330;" d="M453.383,442.233c-0.144,0-0.29-0.025-0.433-0.079c-0.634-0.239-0.952-0.946-0.713-1.579    c1.768-4.675,18.028-12.962,21.27-14.576c0.601-0.299,1.34-0.056,1.641,0.552c0.301,0.605,0.055,1.341-0.55,1.643    c-7.173,3.571-18.964,10.325-20.069,13.248C454.342,441.931,453.878,442.233,453.383,442.233z"/>
		<path style="fill:#2B2330;" d="M476.199,409.639c-0.029,0-0.057-0.001-0.086-0.002c-3.938-0.272-6.056-2.335-6.951-4.716    c-1.4,0.495-3.161,0.815-5.257,0.736c-4.864-0.162-7.927-3.313-9.326-6.636c-1.648,0.658-3.455,0.843-5.197,0.11    c-5.312-2.237-5.807-8.064-5.324-10.833c0.115-0.666,0.754-1.115,1.412-0.997c0.665,0.114,1.113,0.746,1.003,1.413    c-0.043,0.249-0.971,6.123,3.862,8.158c1.203,0.508,2.469,0.25,3.527-0.207c-0.098-0.506-0.156-1.001-0.175-1.473    c-0.124-3.214,1.445-5.475,3.998-5.759c1.983-0.224,2.728,0.697,3.01,1.261c1.012,2.017-1.23,4.652-1.94,5.412    c-0.574,0.611-1.259,1.214-2.019,1.743c1.034,2.653,3.412,5.231,7.252,5.359c1.94,0.059,3.486-0.248,4.666-0.717    c-0.017-0.281-0.019-0.56-0.012-0.835c0.098-2.851,1.577-5.8,3.881-5.8c0.931,0,1.708,0.433,2.134,1.19    c0.589,1.047,0.409,2.547-0.481,4.014c-0.342,0.563-1.201,1.757-2.811,2.787c0.483,1.516,1.751,3.125,4.917,3.342    c0.675,0.047,1.184,0.632,1.139,1.306C477.374,409.145,476.835,409.639,476.199,409.639z M472.519,398.248    c-0.333,0.051-1.096,1.043-1.349,2.656c0.44-0.423,0.715-0.806,0.864-1.04C472.589,398.99,472.584,398.374,472.519,398.248z     M458.501,391.838c-0.057,0.017-0.232-0.004-0.543,0.031c-1.799,0.2-1.849,2.522-1.821,3.229c0,0.039,0.002,0.08,0.005,0.121    C457.754,393.838,458.508,392.343,458.501,391.838z"/>
		<path style="fill:#2B2330;" d="M409.634,387.972c-0.414,0-0.842-0.029-1.282-0.087c-10.133-1.351-10.25-6.802-10.25-7.033    c0-0.677,0.548-1.225,1.225-1.225c0.668,0,1.211,0.534,1.225,1.198c0.01,0.121,0.378,3.598,8.125,4.632    c2.543,0.342,4.022-0.671,4.89-1.956c-1.756-0.865-2.706-2.341-3.012-3.729c-0.531-2.421,0.651-4.821,2.747-5.583    c0.974-0.357,1.976-0.069,2.692,0.754c1.218,1.414,1.524,4.272,0.907,6.862c0.321,0.013,0.656,0.001,1.005-0.029    c1.921-0.16,3.56-1.023,4.807-2.168c-1.151-2.619-1.359-5.613-0.507-7.362c0.574-1.175,1.61-1.725,2.797-1.473    c1.854,0.397,2.921,1.983,2.783,4.14c-0.098,1.518-0.828,3.383-2.105,5.046c0.079,0.12,0.163,0.238,0.251,0.355    c2.704,3.596,6.616,1.905,9.424-0.145c0.541-0.402,1.311-0.282,1.711,0.264c0.4,0.547,0.282,1.312-0.266,1.712    c-5.922,4.334-9.736,2.528-11.482,1.069c-0.505-0.422-0.957-0.913-1.361-1.452c-1.541,1.302-3.512,2.259-5.845,2.452    c-0.763,0.067-1.467,0.055-2.105-0.022C414.663,386.659,412.429,387.972,409.634,387.972z M414.06,376.471    c-0.854,0.359-1.376,1.57-1.11,2.775c0.194,0.891,0.744,1.572,1.572,2.007C415.118,378.825,414.477,376.709,414.06,376.471z     M424.49,373.168c-0.378,0.293-0.553,2.144,0.012,4.181c0.498-0.891,0.787-1.798,0.837-2.592    C425.428,373.37,424.746,373.223,424.49,373.168z"/>
		<polygon style="fill:#DF9C49;" points="406.424,448.484 484.983,448.693 478.093,512 414.474,510.94   "/>
		<path style="fill:#2B2330;" d="M437.977,493.933c-4.759,0-8.604-2.638-11.063-6.064c-1.926,1.755-4.29,2.945-7.025,2.945    c-2.852,0-5.158-0.967-6.852-2.871c-3.883-4.367-3.022-12.121-2.981-12.45c0.079-0.672,0.703-1.14,1.357-1.073    c0.672,0.079,1.153,0.687,1.077,1.359c-0.01,0.069-0.77,7.002,2.383,10.541c1.225,1.376,2.866,2.044,5.017,2.044    c2.137,0,4.087-1.054,5.714-2.644c-0.309-0.603-0.579-1.217-0.804-1.833c-1.83-4.98-0.77-9.445,2.704-11.374    c2.098-1.166,3.378-0.683,4.091-0.075c2.211,1.899,0.706,6.574,0.194,7.961c-0.699,1.884-1.766,3.893-3.163,5.637    c2.376,3.56,6.458,6.234,11.544,5.224c3.67-0.735,6.147-3.088,7.75-5.411c-2.584-3.393-3.977-8.182-3.153-11.622    c0.498-2.083,1.766-3.463,3.572-3.888c1.471-0.339,2.807,0.026,3.744,1.05c1.766,1.92,1.976,6.007,0.541,10.414    c-0.445,1.365-1,2.643-1.656,3.816c0.165,0.16,0.337,0.313,0.512,0.462c2.328,1.962,4.934,2.356,7.735,1.151    c2.024-0.867,3.744-2.117,5.175-3.546c-0.211-1-0.347-2.07-0.402-3.197c-0.208-4.136,0.852-9.41,3.665-11.219    c1.57-1.011,2.668-0.778,3.316-0.396c0.737,0.433,1.582,1.47,1.426,3.949c-0.194,3.057-1.964,7.709-5.3,11.526    c0.725,2.388,1.995,4.167,3.654,5.011c2.606,1.329,6.36,0.489,10.85-2.44c0.569-0.366,1.326-0.209,1.696,0.358    c0.368,0.566,0.211,1.326-0.357,1.695c-5.343,3.484-9.826,4.345-13.303,2.571c-1.969-1.004-3.496-2.827-4.467-5.254    c-1.448,1.281-3.11,2.388-4.989,3.193c-3.615,1.555-7.271,1.007-10.281-1.529c-0.093-0.079-0.187-0.16-0.28-0.244    c-2.323,3.132-5.446,5.247-8.972,5.952C439.731,493.847,438.838,493.933,437.977,493.933z M429.825,474.258    c-0.211,0-0.591,0.097-1.132,0.397c-2.869,1.593-2.653,5.514-1.596,8.387c0.074,0.206,0.156,0.412,0.242,0.616    c0.897-1.274,1.625-2.693,2.149-4.109c1.129-3.049,0.89-4.925,0.51-5.251C429.969,474.273,429.911,474.258,429.825,474.258z     M449.39,472.662c-0.144,0-0.306,0.019-0.493,0.063c-0.883,0.207-1.471,0.904-1.751,2.072c-0.541,2.262,0.234,5.867,2.12,8.75    c0.519-1.047,0.847-1.948,1.029-2.503c1.247-3.826,0.921-6.976-0.017-7.995C450.105,472.859,449.852,472.662,449.39,472.662z     M469.72,470.985c-0.007,0.017-0.246,0.029-0.742,0.347c-1.428,0.918-2.768,4.548-2.546,9.037c0.014,0.282,0.034,0.56,0.06,0.834    c1.9-2.656,2.991-5.505,3.34-7.555C470.138,471.844,469.83,471.102,469.72,470.985z"/>
	</g>
	<path style="fill:#2B2330;" d="M483.075,343.762c-0.11,0-0.223-0.014-0.335-0.047c-0.651-0.185-1.029-0.864-0.842-1.513   c0.301-1.062,0.557-2.103,0.766-3.124c0.136-0.664,0.792-1.086,1.448-0.953c0.663,0.136,1.089,0.784,0.955,1.446   c-0.223,1.078-0.493,2.178-0.813,3.301C484.099,343.412,483.609,343.762,483.075,343.762z M484.549,335.702   c-0.031,0-0.062-0.001-0.093-0.004c-0.675-0.05-1.182-0.638-1.132-1.312c0.062-0.833,0.093-1.65,0.093-2.45   c-0.002-0.768-0.031-1.525-0.084-2.267c-0.048-0.675,0.459-1.261,1.134-1.309c0.653-0.057,1.261,0.458,1.311,1.134   c0.057,0.797,0.086,1.609,0.089,2.438c0,0.864-0.031,1.741-0.098,2.635C485.719,335.211,485.183,335.702,484.549,335.702z    M483.81,325.973c-0.555,0-1.058-0.378-1.192-0.94c-0.364-1.523-0.857-3.019-1.467-4.448c-0.266-0.622,0.024-1.342,0.646-1.608   c0.627-0.267,1.342,0.024,1.608,0.646c0.663,1.555,1.199,3.183,1.596,4.84c0.158,0.658-0.249,1.318-0.907,1.476   C483.999,325.963,483.903,325.973,483.81,325.973z M479.994,317.007c-0.402,0-0.799-0.2-1.031-0.565   c-0.833-1.302-1.79-2.561-2.842-3.747c-0.45-0.506-0.402-1.28,0.103-1.73c0.5-0.451,1.282-0.403,1.73,0.103   c1.137,1.28,2.17,2.644,3.072,4.053c0.366,0.569,0.199,1.328-0.371,1.693C480.451,316.945,480.221,317.007,479.994,317.007z    M452.412,310.707c-2.079,0-3.582-1.464-3.823-3.73c-0.072-0.672,0.414-1.276,1.086-1.348c0.66-0.067,1.278,0.414,1.349,1.087   c0.165,1.541,1.086,1.541,1.388,1.541c0.165,0,0.342-0.019,0.531-0.057c0.648-0.132,1.309,0.293,1.443,0.958   c0.134,0.664-0.297,1.31-0.959,1.444C453.07,310.674,452.73,310.707,452.412,310.707z M473.522,309.699   c-0.278,0-0.557-0.093-0.787-0.286c-1.201-1.006-2.491-1.939-3.828-2.774c-0.574-0.359-0.749-1.114-0.39-1.688   s1.12-0.744,1.687-0.391c1.433,0.895,2.816,1.896,4.106,2.975c0.517,0.434,0.586,1.206,0.153,1.725   C474.218,309.549,473.871,309.699,473.522,309.699z M457.405,308.239c-0.345,0-0.689-0.146-0.931-0.429   c-0.44-0.514-0.378-1.288,0.136-1.727c1.031-0.88,2.125-2.015,3.247-3.37c0.01-0.014,0.022-0.028,0.033-0.041   c-0.4-0.287-0.601-0.799-0.471-1.303c0.17-0.653,0.835-1.059,1.495-0.878c1.579,0.41,3.197,0.98,4.807,1.693   c0.62,0.274,0.9,0.997,0.624,1.615c-0.273,0.622-1.005,0.895-1.615,0.624c-0.907-0.401-1.814-0.752-2.713-1.05   c0.034,0.313-0.057,0.64-0.275,0.902c-1.211,1.464-2.402,2.699-3.543,3.671C457.97,308.142,457.687,308.239,457.405,308.239z    M451.148,303.503c-0.333,0-0.663-0.134-0.904-0.398c-0.457-0.5-0.421-1.274,0.079-1.731c1.156-1.058,3.015-1.617,5.369-1.617   c0.677,0,1.261,0.548,1.261,1.225c0,0.677-0.512,1.225-1.189,1.225c-1.78,0-3.101,0.347-3.79,0.976   C451.739,303.397,451.443,303.503,451.148,303.503z M463.726,300.795c-0.239,0-0.479-0.068-0.689-0.213   c-0.56-0.38-0.703-1.142-0.323-1.701c0.83-1.221,1.689-2.576,2.579-4.073c0.345-0.585,1.098-0.774,1.677-0.429   c0.581,0.345,0.775,1.097,0.428,1.678c-0.914,1.546-1.802,2.943-2.661,4.203C464.501,300.607,464.116,300.795,463.726,300.795z    M468.739,292.383c-0.196,0-0.392-0.045-0.574-0.144c-0.598-0.317-0.825-1.059-0.507-1.657c0.718-1.351,1.45-2.793,2.199-4.328   c0.297-0.609,1.038-0.857,1.637-0.566c0.608,0.297,0.861,1.029,0.565,1.638c-0.758,1.564-1.505,3.03-2.237,4.407   C469.6,292.148,469.177,292.383,468.739,292.383z M472.931,283.533c-0.141,0-0.282-0.024-0.421-0.075   c-0.636-0.233-0.962-0.937-0.73-1.572c0.567-1.543,0.983-3.06,1.237-4.508c0.115-0.67,0.754-1.113,1.416-0.997   c0.668,0.117,1.113,0.751,0.995,1.418c-0.278,1.592-0.732,3.25-1.347,4.931C473.9,283.226,473.431,283.533,472.931,283.533z    M474.5,273.934c-0.636,0-1.175-0.494-1.22-1.14c-0.108-1.541-0.433-3.021-0.971-4.399c-0.246-0.629,0.065-1.34,0.696-1.586   c0.632-0.249,1.34,0.065,1.586,0.696c0.627,1.608,1.01,3.331,1.134,5.119c0.045,0.675-0.462,1.26-1.139,1.308   C474.558,273.933,474.529,273.934,474.5,273.934z M443.504,266.487c-0.007,0-0.014,0-0.022,0c-2.555-0.045-4.431-0.986-5.283-2.646   c-0.311-0.602-0.072-1.341,0.529-1.65c0.603-0.305,1.342-0.072,1.648,0.53c0.569,1.107,2.218,1.299,3.149,1.316   c0.677,0.012,1.215,0.571,1.203,1.247C444.717,265.952,444.171,266.487,443.504,266.487z M448.32,265.684   c-0.522,0-1.005-0.334-1.168-0.858c-0.203-0.645,0.156-1.333,0.799-1.536c1.402-0.441,2.845-1.059,4.285-1.836   c0.589-0.319,1.335-0.1,1.66,0.496c0.321,0.595,0.098,1.339-0.498,1.659c-1.577,0.851-3.161,1.53-4.711,2.018   C448.567,265.666,448.442,265.684,448.32,265.684z M470.99,264.964c-0.357,0-0.711-0.156-0.952-0.455   c-0.924-1.141-2.041-2.195-3.323-3.134c-0.546-0.4-0.663-1.166-0.263-1.712c0.402-0.546,1.165-0.663,1.713-0.264   c1.45,1.064,2.723,2.265,3.778,3.57c0.426,0.526,0.345,1.298-0.182,1.723C471.533,264.874,471.261,264.964,470.99,264.964z    M456.926,261.09c-0.368,0-0.732-0.165-0.974-0.48c-0.409-0.538-0.309-1.306,0.23-1.718c0.629-0.482,1.242-0.991,1.833-1.522   c-0.49-0.262-0.756-0.835-0.608-1.396c0.175-0.653,0.823-1.04,1.5-0.87c0.409,0.11,0.816,0.226,1.218,0.351   c0.428-0.169,0.933-0.086,1.294,0.254c0.079,0.077,0.146,0.16,0.201,0.25c0.715,0.262,1.416,0.548,2.094,0.857   c0.615,0.281,0.885,1.008,0.605,1.623c-0.282,0.616-1.005,0.885-1.625,0.607c-0.648-0.297-1.321-0.571-2.01-0.819   c-0.95,0.93-1.96,1.805-3.015,2.612C457.448,261.008,457.187,261.09,456.926,261.09z M439.951,259.909   c-0.273,0-0.546-0.09-0.773-0.274c-0.524-0.427-0.605-1.199-0.177-1.724c1.026-1.262,2.606-2.245,4.692-2.923   c0.653-0.211,1.335,0.145,1.543,0.787c0.208,0.644-0.144,1.335-0.787,1.543c-1.608,0.522-2.835,1.261-3.548,2.138   C440.659,259.754,440.307,259.909,439.951,259.909z M453.78,256.626c-0.043,0-0.086-0.002-0.129-0.007   c-1.043-0.109-2.036-0.117-3.074-0.161c-0.546,0-1.086,0.018-1.613,0.053c-0.663,0.032-1.256-0.469-1.302-1.142   c-0.043-0.676,0.469-1.259,1.144-1.303c0.598-0.038,1.189-0.063,1.823-0.057c1.065,0,2.168,0.059,3.275,0.176   c0.675,0.071,1.163,0.672,1.091,1.346C454.931,256.158,454.397,256.626,453.78,256.626z M463.657,254.022   c-0.239,0-0.481-0.069-0.691-0.214c-0.56-0.383-0.701-1.145-0.318-1.704c0.888-1.297,1.663-2.668,2.306-4.075   c0.282-0.616,1.017-0.884,1.625-0.604c0.615,0.281,0.885,1.008,0.605,1.623c-0.703,1.534-1.548,3.028-2.517,4.441   C464.43,253.835,464.047,254.022,463.657,254.022z M467.703,245.154c-0.1,0-0.203-0.012-0.306-0.038   c-0.656-0.17-1.048-0.837-0.88-1.493c0.388-1.499,0.646-3.051,0.768-4.613c0.053-0.675,0.665-1.168,1.316-1.126   c0.675,0.053,1.177,0.642,1.125,1.317c-0.132,1.704-0.414,3.398-0.835,5.034C468.746,244.787,468.248,245.154,467.703,245.154z    M468.485,235.438c-0.629,0-1.165-0.482-1.218-1.122c-0.031-0.354-0.067-0.713-0.11-1.074c-0.144-1.238-0.342-2.454-0.591-3.613   c-0.141-0.662,0.282-1.312,0.943-1.454c0.651-0.14,1.311,0.278,1.455,0.941c0.263,1.235,0.474,2.527,0.629,3.843   c0.043,0.388,0.084,0.77,0.115,1.151c0.057,0.674-0.443,1.267-1.117,1.323C468.557,235.437,468.521,235.438,468.485,235.438z    M466.408,225.902c-0.495,0-0.962-0.303-1.146-0.794c-0.567-1.507-1.244-2.923-2.017-4.207c-0.349-0.579-0.16-1.333,0.419-1.681   c0.581-0.346,1.333-0.162,1.682,0.42c0.847,1.412,1.591,2.962,2.208,4.607c0.239,0.633-0.081,1.34-0.715,1.578   C466.698,225.877,466.552,225.902,466.408,225.902z M461.362,217.587c-0.328,0-0.656-0.132-0.897-0.39   c-1.046-1.125-2.223-2.141-3.496-3.022c-0.557-0.384-0.696-1.147-0.311-1.704c0.383-0.561,1.146-0.697,1.704-0.311   c1.419,0.981,2.73,2.114,3.898,3.366c0.459,0.495,0.433,1.27-0.062,1.731C461.961,217.478,461.661,217.587,461.362,217.587z    M453.378,212.04c-0.16,0-0.323-0.031-0.481-0.098c-1.4-0.597-2.9-1.081-4.455-1.442c-0.658-0.153-1.069-0.811-0.916-1.47   c0.153-0.658,0.806-1.072,1.471-0.918c1.694,0.392,3.328,0.922,4.862,1.576c0.622,0.266,0.912,0.985,0.646,1.607   C454.307,211.761,453.854,212.04,453.378,212.04z M438.975,209.826c-0.61,0-1.139-0.455-1.215-1.074   c-0.084-0.671,0.392-1.282,1.062-1.366c0.062-0.007,2.115-0.261,5.144-0.035c0.675,0.05,1.182,0.638,1.132,1.312   c-0.053,0.675-0.653,1.187-1.314,1.131c-2.735-0.205-4.603,0.016-4.658,0.023C439.075,209.823,439.025,209.826,438.975,209.826z"/>
	<path style="fill:#2B2330;" d="M57.526,254.34c-0.409,0-0.809-0.203-1.041-0.575c-0.359-0.573-0.184-1.329,0.388-1.688   c0.017-0.01,1.622-1.019,3.986-2.742c0.543-0.398,1.311-0.281,1.713,0.268c0.397,0.547,0.278,1.312-0.268,1.711   c-2.44,1.78-4.063,2.797-4.13,2.84C57.971,254.28,57.746,254.34,57.526,254.34z M65.481,248.563c-0.356,0-0.713-0.157-0.955-0.457   c-0.423-0.528-0.34-1.298,0.187-1.723c1.182-0.951,2.433-2.001,3.694-3.132c0.502-0.451,1.278-0.41,1.73,0.096   c0.452,0.504,0.409,1.279-0.093,1.73c-1.299,1.162-2.579,2.238-3.795,3.216C66.022,248.474,65.751,248.563,65.481,248.563z    M72.781,242.006c-0.311,0-0.62-0.117-0.859-0.352c-0.483-0.475-0.488-1.25-0.014-1.732c1.168-1.186,2.259-2.382,3.244-3.555   c0.433-0.517,1.208-0.583,1.725-0.15c0.519,0.435,0.586,1.208,0.151,1.726c-1.026,1.221-2.161,2.466-3.374,3.697   C73.415,241.884,73.097,242.006,72.781,242.006z M79.045,234.469c-0.237,0-0.474-0.067-0.682-0.208   c-0.562-0.377-0.713-1.138-0.335-1.699c0.928-1.387,1.715-2.762,2.335-4.091c0.287-0.615,1.022-0.871,1.629-0.591   c0.613,0.287,0.878,1.016,0.591,1.628c-0.675,1.443-1.522,2.929-2.522,4.418C79.825,234.279,79.437,234.469,79.045,234.469z    M83.062,225.594c-0.086,0-0.172-0.008-0.258-0.028c-0.66-0.141-1.084-0.792-0.943-1.454c0.225-1.046,0.337-2.082,0.337-3.077   c0-0.465-0.024-0.931-0.077-1.396c-0.074-0.672,0.409-1.278,1.081-1.354c0.653-0.081,1.278,0.408,1.354,1.081   c0.062,0.556,0.091,1.113,0.091,1.669c0,1.168-0.132,2.375-0.39,3.589C84.134,225.2,83.627,225.594,83.062,225.594z    M81.961,216.058c-0.45,0-0.883-0.249-1.096-0.678c-0.39-0.784-0.871-1.554-1.436-2.303c-0.081,0.093-0.182,0.175-0.294,0.242   c-1.665,0.982-3.357,1.596-5.029,1.822c-0.687,0.077-1.29-0.379-1.378-1.05c-0.091-0.67,0.378-1.287,1.048-1.378   c1.349-0.182,2.732-0.688,4.115-1.504c0.024-0.016,0.05-0.029,0.077-0.042c-0.117-0.426,0.002-0.901,0.347-1.223   c0.498-0.459,1.268-0.434,1.732,0.063c1.254,1.348,2.268,2.789,3.01,4.279c0.301,0.607,0.055,1.341-0.55,1.644   C82.332,216.017,82.146,216.058,81.961,216.058z M69.139,214.549c-0.156,0-0.313-0.029-0.464-0.092   c-1.68-0.688-3.192-1.81-4.376-3.248c-0.431-0.522-0.357-1.293,0.165-1.724c0.522-0.428,1.294-0.359,1.725,0.166   c0.928,1.126,2.11,2.004,3.414,2.54c0.627,0.256,0.926,0.971,0.67,1.597C70.08,214.264,69.62,214.549,69.139,214.549z    M82.359,210.475c-0.318,0-0.634-0.123-0.876-0.367c-0.474-0.483-0.464-1.26,0.019-1.733c1.036-1.014,2.074-2.211,3.086-3.557   c0.409-0.541,1.18-0.646,1.716-0.242c0.541,0.407,0.648,1.175,0.242,1.715c-1.086,1.443-2.206,2.734-3.331,3.834   C82.978,210.359,82.667,210.475,82.359,210.475z M75.473,208.844c-0.251,0-0.502-0.075-0.72-0.233   c-0.885-0.644-1.854-1.272-2.878-1.869c-0.392-0.23-0.768-0.437-1.127-0.627c-0.598-0.315-0.83-1.055-0.514-1.653   c0.313-0.602,1.058-0.829,1.653-0.514c0.392,0.205,0.802,0.431,1.225,0.678c1.091,0.636,2.129,1.311,3.082,2.001   c0.548,0.398,0.668,1.164,0.27,1.712C76.224,208.67,75.851,208.844,75.473,208.844z M63.376,207.22c-0.002,0-0.002,0-0.005,0   c-0.675-0.002-1.223-0.553-1.22-1.229c0.007-2.543,1.768-4.106,4.694-3.789c0.675,0.069,1.163,0.672,1.091,1.346   c-0.069,0.672-0.689,1.162-1.345,1.09c-1.376-0.148-1.988,0.258-1.991,1.36C64.598,206.674,64.05,207.22,63.376,207.22z    M88.295,202.712c-0.213,0-0.431-0.055-0.627-0.172c-0.581-0.346-0.773-1.097-0.426-1.678c0.833-1.402,1.562-2.821,2.165-4.216   c0.268-0.622,0.988-0.906,1.61-0.638c0.622,0.269,0.907,0.991,0.639,1.611c-0.646,1.491-1.421,3.003-2.309,4.493   C89.118,202.498,88.711,202.712,88.295,202.712z M92.156,193.738c-0.105,0-0.211-0.013-0.318-0.042   c-0.653-0.176-1.041-0.847-0.864-1.501c0.412-1.534,0.694-3.086,0.842-4.614c0.067-0.675,0.713-1.162,1.337-1.101   c0.675,0.065,1.168,0.664,1.103,1.337c-0.163,1.662-0.471,3.348-0.919,5.014C93.192,193.378,92.697,193.738,92.156,193.738z    M93.08,184.034c-0.632,0-1.168-0.486-1.218-1.127c-0.124-1.536-0.385-3.089-0.78-4.615c-0.167-0.656,0.225-1.323,0.881-1.493   c0.663-0.167,1.323,0.226,1.493,0.88c0.428,1.663,0.713,3.357,0.847,5.032c0.055,0.675-0.447,1.266-1.122,1.32   C93.147,184.033,93.113,184.034,93.08,184.034z M90.651,174.596c-0.469,0-0.919-0.272-1.12-0.73   c-0.62-1.401-1.366-2.799-2.223-4.157c-0.361-0.572-0.189-1.329,0.383-1.689c0.572-0.359,1.33-0.189,1.689,0.383   c0.919,1.458,1.725,2.963,2.39,4.473c0.275,0.62-0.005,1.342-0.624,1.616C90.986,174.563,90.816,174.596,90.651,174.596z    M85.474,166.319c-0.352,0-0.701-0.151-0.943-0.444c-0.991-1.195-2.082-2.369-3.242-3.486c-0.488-0.469-0.502-1.245-0.033-1.732   c0.474-0.487,1.249-0.5,1.732-0.034c1.227,1.182,2.383,2.424,3.429,3.689c0.433,0.522,0.359,1.293-0.163,1.725   C86.026,166.227,85.749,166.319,85.474,166.319z M46.249,163.203c-0.033,0-0.065-0.001-0.098-0.004   c-2.182-0.171-3.943-0.671-5.235-1.483c-0.572-0.361-0.744-1.117-0.383-1.689c0.361-0.574,1.12-0.741,1.689-0.385   c0.938,0.592,2.364,0.977,4.12,1.115c0.675,0.053,1.18,0.642,1.125,1.317C47.417,162.716,46.881,163.203,46.249,163.203z    M51.14,163.046c-0.608,0-1.134-0.452-1.213-1.072c-0.084-0.671,0.39-1.284,1.062-1.369c1.522-0.193,3.077-0.511,4.62-0.947   c0.651-0.188,1.328,0.195,1.512,0.845c0.184,0.651-0.196,1.328-0.847,1.512c-1.66,0.47-3.335,0.813-4.979,1.022   C51.243,163.042,51.192,163.046,51.14,163.046z M60.543,160.372c-0.464,0-0.907-0.264-1.113-0.714   c-0.282-0.615-0.014-1.342,0.601-1.625c1.493-0.684,2.852-1.465,4.041-2.321c0.543-0.394,1.309-0.272,1.711,0.279   c0.395,0.549,0.27,1.315-0.28,1.71c-1.316,0.947-2.814,1.809-4.448,2.56C60.887,160.336,60.715,160.372,60.543,160.372z    M78.43,159.528c-0.263,0-0.529-0.084-0.751-0.258c-1.251-0.973-2.567-1.896-3.914-2.746c-0.572-0.36-0.744-1.117-0.383-1.689   c0.361-0.574,1.122-0.741,1.689-0.383c1.414,0.891,2.799,1.863,4.111,2.884c0.536,0.415,0.632,1.186,0.215,1.719   C79.155,159.365,78.794,159.528,78.43,159.528z M39.95,157.685c-0.105,0-0.213-0.013-0.321-0.042   c-0.653-0.177-1.038-0.849-0.861-1.503c0.072-0.264,0.16-0.536,0.273-0.817c0.591-1.488,1.438-2.797,2.515-3.893   c0.474-0.482,1.249-0.489,1.732-0.014c0.483,0.474,0.488,1.249,0.014,1.732c-0.847,0.861-1.515,1.897-1.983,3.079   c-0.074,0.188-0.139,0.373-0.187,0.551C40.986,157.327,40.49,157.685,39.95,157.685z M68.338,154.583   c-0.263,0-0.529-0.084-0.754-0.258c-0.404-0.315-0.557-0.834-0.426-1.298c-0.641-0.279-1.282-0.54-1.924-0.784   c-0.632-0.24-0.95-0.947-0.711-1.58c0.242-0.634,0.957-0.947,1.582-0.709c0.785,0.298,1.574,0.623,2.359,0.97   c0.378-0.717,0.66-1.454,0.845-2.205c0.16-0.656,0.816-1.056,1.481-0.9c0.656,0.161,1.06,0.824,0.897,1.481   c-0.223,0.914-0.56,1.806-1.007,2.67c0.007,0.004,0.014,0.007,0.022,0.011c0.605,0.305,0.847,1.041,0.543,1.645   c-0.306,0.607-1.046,0.845-1.644,0.544c-0.084-0.042-0.165-0.083-0.246-0.123c-0.017,0.02-0.033,0.042-0.05,0.063   C69.063,154.421,68.701,154.583,68.338,154.583z M46.517,150.893c-0.49,0-0.955-0.297-1.141-0.782   c-0.246-0.632,0.067-1.341,0.699-1.585c1.524-0.59,3.244-0.965,5.115-1.117c0.665-0.045,1.266,0.449,1.318,1.122   c0.055,0.675-0.447,1.266-1.122,1.321c-1.634,0.133-3.125,0.455-4.426,0.959C46.814,150.867,46.666,150.893,46.517,150.893z    M60.997,150.837c-0.098,0-0.201-0.012-0.301-0.038c-1.591-0.404-3.156-0.693-4.651-0.858c-0.672-0.074-1.158-0.68-1.084-1.352   c0.074-0.674,0.689-1.168,1.352-1.084c1.608,0.177,3.285,0.487,4.986,0.92c0.656,0.166,1.053,0.833,0.885,1.488   C62.043,150.468,61.545,150.837,60.997,150.837z M70.534,145.38c-0.565,0-1.072-0.394-1.196-0.969   c-0.287-1.347-0.847-2.754-1.665-4.182c-0.337-0.586-0.134-1.335,0.452-1.671c0.586-0.336,1.335-0.138,1.672,0.453   c0.945,1.648,1.596,3.293,1.938,4.888c0.141,0.662-0.282,1.312-0.943,1.454C70.707,145.372,70.62,145.38,70.534,145.38z    M66.189,136.659c-0.416,0-0.823-0.214-1.053-0.598c-0.861-1.448-1.684-2.876-2.46-4.285c-0.328-0.592-0.112-1.337,0.481-1.664   c0.586-0.324,1.337-0.114,1.663,0.482c0.766,1.385,1.574,2.79,2.421,4.213c0.347,0.581,0.156,1.334-0.426,1.68   C66.62,136.604,66.405,136.659,66.189,136.659z M61.459,128.077c-0.447,0-0.88-0.248-1.096-0.676   c-0.763-1.524-1.467-3.022-2.113-4.49c-0.27-0.62,0.01-1.342,0.629-1.615c0.62-0.267,1.345,0.01,1.615,0.629   c0.627,1.432,1.316,2.891,2.06,4.377c0.301,0.605,0.057,1.341-0.548,1.645C61.832,128.035,61.643,128.077,61.459,128.077z    M57.562,119.093c-0.505,0-0.976-0.312-1.153-0.815c-0.591-1.657-1.084-3.271-1.469-4.795c-0.165-0.656,0.234-1.322,0.89-1.487   c0.658-0.167,1.321,0.233,1.488,0.889c0.364,1.45,0.835,2.987,1.397,4.572c0.227,0.638-0.105,1.337-0.742,1.565   C57.837,119.07,57.698,119.093,57.562,119.093z M55.233,109.596c-0.615,0-1.144-0.462-1.215-1.087   c-0.124-1.114-0.189-2.204-0.189-3.24c0-0.638,0.024-1.264,0.072-1.882c0.05-0.676,0.66-1.163,1.316-1.127   c0.675,0.053,1.177,0.641,1.125,1.316c-0.043,0.555-0.062,1.12-0.062,1.693c0,0.945,0.057,1.942,0.175,2.964   c0.077,0.672-0.409,1.279-1.081,1.355C55.327,109.594,55.281,109.596,55.233,109.596z M56.073,99.919   c-0.129,0-0.263-0.02-0.392-0.065c-0.641-0.217-0.986-0.912-0.768-1.553c0.56-1.656,1.349-3.224,2.345-4.662   c0.388-0.556,1.151-0.695,1.706-0.307c0.555,0.385,0.694,1.148,0.309,1.705c-0.866,1.248-1.553,2.61-2.039,4.049   C57.061,99.598,56.585,99.919,56.073,99.919z M61.538,91.946c-0.342,0-0.682-0.142-0.924-0.421c-0.445-0.511-0.39-1.284,0.12-1.729   c1.223-1.064,2.629-2.059,4.177-2.956c0.579-0.337,1.333-0.144,1.675,0.446c0.34,0.585,0.139,1.334-0.445,1.674   c-1.416,0.819-2.694,1.723-3.799,2.686C62.11,91.847,61.823,91.946,61.538,91.946z M69.922,86.979   c-0.481,0-0.938-0.286-1.132-0.758c-0.258-0.626,0.041-1.342,0.665-1.599c1.457-0.599,3.048-1.16,4.733-1.666   c0.644-0.188,1.33,0.172,1.524,0.821c0.196,0.648-0.172,1.331-0.821,1.526c-1.605,0.482-3.12,1.016-4.503,1.585   C70.235,86.949,70.077,86.979,69.922,86.979z M79.277,84.125c-0.562,0-1.069-0.388-1.196-0.959c-0.146-0.66,0.27-1.315,0.931-1.462   c1.543-0.343,3.168-0.654,4.876-0.934c0.658-0.106,1.297,0.343,1.407,1.012c0.11,0.668-0.342,1.297-1.01,1.407   c-1.66,0.27-3.242,0.574-4.742,0.908C79.454,84.115,79.363,84.125,79.277,84.125z M88.936,82.522c-0.61,0-1.141-0.458-1.213-1.08   c-0.081-0.672,0.4-1.281,1.072-1.361c1.577-0.187,3.216-0.352,4.917-0.492c0.622-0.065,1.263,0.445,1.321,1.121   c0.055,0.675-0.445,1.266-1.12,1.322c-1.672,0.138-3.283,0.298-4.831,0.482C89.034,82.519,88.984,82.522,88.936,82.522z    M98.7,81.71c-0.648,0-1.189-0.507-1.223-1.16c-0.036-0.676,0.483-1.253,1.158-1.288l1.45-0.071c0.675-0.061,1.251,0.49,1.28,1.166   c0.034,0.676-0.49,1.249-1.165,1.281l-1.436,0.071C98.743,81.71,98.722,81.71,98.7,81.71z"/>
</g>















</svg>
