<?xml version="1.0" encoding="UTF-8"?>
<!-- Generator: Adobe Illustrator 25.2.1, SVG Export Plug-In . SVG Version: 6.00 Build 0)  -->
<svg xmlns="http://www.w3.org/2000/svg" xmlns:xlink="http://www.w3.org/1999/xlink" version="1.1" id="Capa_1" x="0px" y="0px" viewBox="0 0 512 512" style="enable-background:new 0 0 512 512;" xml:space="preserve" width="512" height="512">
<g>
	<path style="fill:#2B2330;" d="M458.767,496.681c-0.573,0-1.075-0.417-1.165-1c-3.88-25.226,11.063-171.65,11.7-177.87   c0.067-0.649,0.657-1.11,1.294-1.055c0.649,0.067,1.12,0.647,1.055,1.294c-0.157,1.521-15.55,152.342-11.716,177.271   c0.099,0.644-0.342,1.247-0.987,1.346C458.887,496.676,458.827,496.681,458.767,496.681z"/>
	<g>
		<path style="fill:#FFFFFF;" d="M464.227,281.817c0,0-3.473-18.811,5.499-17.074c8.971,1.736,9.261,16.496,9.261,16.496    s8.103-16.785,13.602-12.155c5.499,4.63-0.289,18.811-0.289,18.811s12.155-4.92,15.917-0.868    c3.762,4.052-12.444,16.785-12.444,16.785s15.049,0.579,15.049,7.814c0,7.235-18.521,7.235-18.521,7.235s8.392,8.392,3.183,15.627    c-5.209,7.235-17.653-10.708-17.653-10.708s2.026,14.47-6.656,17.943c-8.682,3.473-10.997-16.351-10.997-16.351    s-8.103,7.958-18.232,3.039c-10.129-4.92,8.954-23.026,8.954-23.026s-16.478,1.61-18.504-6.493    c-2.026-8.103,19.679-7.524,19.679-7.524s-14.47-11.286-8.682-16.496C449.179,269.663,464.227,281.817,464.227,281.817z"/>
		<path style="fill:#2B2330;" d="M469.195,343.31c-6.509,0-9.071-10.887-9.887-15.713c-2.057,1.475-5.844,3.598-10.607,3.598    c-2.471,0-4.918-0.58-7.272-1.724c-2.042-0.992-3.236-2.519-3.55-4.541c-0.905-5.85,6.241-14.24,10.048-18.237    c-5.27,0.032-15.011-0.844-16.677-7.516c-0.391-1.559-0.093-3.029,0.86-4.249c2.882-3.691,11.495-4.548,16.775-4.715    c-3.087-2.79-7.886-7.8-8.037-12.1c-0.056-1.611,0.55-3.036,1.754-4.119c1.18-1.063,2.722-1.601,4.585-1.601    c5.191,0,11.96,4.276,15.465,6.768c-0.44-3.906-0.719-10.63,1.961-13.853c1.278-1.535,3.036-2.174,5.337-1.725    c6.758,1.308,9.048,8.898,9.823,13.69c2.372-4.076,6.609-10.179,10.72-10.179c1.04,0,2.001,0.365,2.856,1.086    c4.664,3.928,2.35,13.318,0.902,17.765c2.299-0.743,5.874-1.701,9.04-1.701c2.623,0,4.571,0.666,5.789,1.978    c0.65,0.7,0.951,1.62,0.869,2.661c-0.332,4.239-7.408,10.786-11.207,14.015c4.672,0.611,13.258,2.571,13.258,8.725    c0,6.671-11.761,8.058-17.195,8.343c2.807,3.739,5.448,9.914,1.634,15.209c-1.041,1.445-2.457,2.209-4.097,2.209h-0.001    c-4.521,0-10.014-5.923-13.117-9.79c-0.029,4.83-1.132,12.63-7.613,15.222c-0.816,0.326-1.628,0.492-2.413,0.492    C469.197,343.31,469.196,343.31,469.195,343.31z M460.176,324.193c0.133,0,0.265,0.022,0.394,0.068    c0.423,0.15,0.726,0.528,0.778,0.974c0.478,4.077,2.946,15.715,7.847,15.715c0.001,0,0.001,0,0.001,0    c0.484,0,1.001-0.108,1.539-0.324c7.733-3.093,5.944-16.546,5.926-16.682c-0.076-0.542,0.229-1.064,0.739-1.263    c0.513-0.195,1.09-0.022,1.399,0.426c2.301,3.316,9.219,11.919,13.543,11.919l0,0c0.886,0,1.58-0.39,2.183-1.227    c4.57-6.348-2.983-14.027-3.06-14.104c-0.338-0.338-0.438-0.845-0.256-1.286c0.182-0.44,0.613-0.728,1.09-0.728    c4.498-0.002,17.341-1.118,17.341-6.055c0-4.995-10.044-6.483-13.915-6.635c-0.494-0.02-0.924-0.345-1.076-0.815    c-0.152-0.47,0.005-0.987,0.393-1.292c4.715-3.705,12.292-10.833,12.554-14.183c0.039-0.496-0.111-0.726-0.244-0.87    c-0.754-0.812-2.121-1.224-4.06-1.224c-4.602,0-10.491,2.359-10.55,2.382c-0.437,0.18-0.943,0.075-1.278-0.26    c-0.334-0.337-0.436-0.84-0.257-1.279c1.518-3.725,4.587-14.122,0.621-17.462c-0.423-0.356-0.86-0.53-1.335-0.53    c-3.28,0-8.147,7.542-10.444,12.296c-0.236,0.491-0.78,0.756-1.314,0.64s-0.917-0.583-0.929-1.128    c-0.002-0.138-0.379-13.827-8.306-15.362c-1.352-0.262-2.323,0.02-3.072,0.919c-2.527,3.034-1.608,11.701-1.041,14.784    c0.09,0.486-0.133,0.976-0.557,1.229c-0.425,0.252-0.961,0.214-1.345-0.096c-0.099-0.081-9.963-7.982-16.299-7.982    c-1.278,0-2.262,0.325-3.006,0.995c-0.697,0.628-1.007,1.353-0.974,2.282c0.146,4.154,6.974,10.364,9.592,12.406    c0.401,0.312,0.557,0.849,0.385,1.329c-0.172,0.478-0.672,0.786-1.142,0.781c-0.009-0.001-0.335-0.009-0.897-0.009    c-6.539,0-14.96,1.006-17.175,3.842c-0.509,0.653-0.647,1.361-0.431,2.225c1.293,5.171,10.272,5.729,14.072,5.729    c1.865,0,3.16-0.123,3.173-0.124c0.496-0.055,0.978,0.226,1.187,0.685c0.21,0.459,0.105,0.999-0.26,1.346    c-3.477,3.3-12.319,13.026-11.498,18.329c0.19,1.227,0.925,2.137,2.247,2.779c2.032,0.987,4.132,1.487,6.242,1.487    c6.159,0,10.606-4.264,10.65-4.307C459.575,324.309,459.873,324.193,460.176,324.193z"/>
	</g>
	<path style="fill:#2B2330;" d="M436.013,125.644c-0.904,0-1.758,0-4.209-9.78c-8.315-1.597-9.031-2.558-9.27-2.88   c-0.218-0.294-0.315-0.844-0.214-1.196c0.146-0.521,0.489-1.729,9.964-5.546c3.393-8.857,4.515-8.857,5.263-8.857   c0.372,0,0.897,0.273,1.119,0.572c0.6,0.807,1.15,2.924,1.985,6.314c0.267,1.088,0.591,2.405,0.773,2.957   c0.488,0.221,1.613,0.626,2.545,0.96c4.768,1.709,6.09,2.33,6.309,3.446c0.08,0.407-0.133,1.015-0.441,1.293   c-0.985,0.883-5.723,2.639-8.18,3.513c-4.007,9.121-4.876,9.166-5.576,9.202C436.059,125.644,436.033,125.644,436.013,125.644z    M425.479,111.968c1.632,0.491,4.769,1.208,7.504,1.717c0.455,0.085,0.818,0.429,0.929,0.878c0.697,2.826,1.613,6.048,2.254,7.798   c0.92-1.627,2.364-4.658,3.531-7.334c0.131-0.3,0.381-0.532,0.69-0.641c2.341-0.824,4.99-1.84,6.562-2.539   c-1.126-0.485-2.745-1.066-3.778-1.437c-2.765-0.991-3.283-1.204-3.629-1.668c-0.301-0.403-0.506-1.148-1.185-3.907   c-0.274-1.116-0.702-2.856-1.073-4.091c-0.834,1.555-2.044,4.349-2.979,6.82c-0.118,0.309-0.36,0.555-0.666,0.678   C430.615,109.449,427.178,110.994,425.479,111.968z"/>
	<path style="fill:#2B2330;" d="M93.775,102.041c-0.904,0-1.758,0-4.209-9.78c-8.315-1.597-9.031-2.558-9.27-2.88   c-0.218-0.294-0.315-0.844-0.214-1.196c0.146-0.521,0.489-1.729,9.964-5.546c3.393-8.857,4.515-8.857,5.263-8.857   c0.372,0,0.897,0.273,1.119,0.572c0.6,0.807,1.15,2.924,1.985,6.314c0.267,1.088,0.591,2.405,0.773,2.957   c0.487,0.221,1.613,0.626,2.545,0.96c4.768,1.709,6.09,2.33,6.309,3.446c0.08,0.407-0.133,1.015-0.441,1.293   c-0.985,0.883-5.723,2.639-8.18,3.513c-4.007,9.121-4.876,9.166-5.576,9.202C93.821,102.041,93.795,102.041,93.775,102.041z    M83.241,88.365c1.632,0.491,4.769,1.208,7.504,1.717c0.455,0.085,0.818,0.429,0.929,0.878c0.697,2.826,1.613,6.048,2.254,7.798   c0.92-1.627,2.364-4.658,3.531-7.334c0.131-0.3,0.381-0.532,0.69-0.641c2.341-0.824,4.99-1.84,6.562-2.539   c-1.126-0.485-2.745-1.066-3.778-1.437c-2.765-0.991-3.283-1.204-3.629-1.668c-0.301-0.403-0.506-1.148-1.185-3.907   c-0.274-1.116-0.702-2.856-1.073-4.091c-0.834,1.555-2.044,4.349-2.979,6.82c-0.118,0.309-0.36,0.555-0.666,0.678   C88.377,85.847,84.94,87.391,83.241,88.365z"/>
	<path style="fill:#2B2330;" d="M34.817,433.471c-0.002,0-0.038,0-0.04,0c-2.344-0.009-4.545-0.932-6.196-2.598   c-1.651-1.665-2.555-3.873-2.545-6.219c0.02-4.82,3.958-8.74,8.776-8.74c2.384,0.009,4.586,0.932,6.236,2.598   c1.651,1.665,2.555,3.873,2.545,6.219C43.573,429.551,39.635,433.471,34.817,433.471z M34.842,418.275   c-3.553,0-6.431,2.867-6.446,6.39c-0.008,1.715,0.653,3.329,1.86,4.547c1.207,1.218,2.815,1.892,4.53,1.899l0.03,1.18v-1.18   c3.523,0,6.401-2.867,6.416-6.39c0.008-1.715-0.653-3.329-1.86-4.546C38.166,418.956,36.557,418.282,34.842,418.275z"/>
	<path style="fill:#2B2330;" d="M180.635,58.157c-0.002,0-0.038,0-0.04,0c-4.84-0.021-8.76-3.976-8.739-8.818   c0.02-4.82,3.958-8.74,8.778-8.74c4.878,0.021,8.799,3.976,8.778,8.818C189.391,54.237,185.453,58.157,180.635,58.157z    M180.66,42.96c-3.551,0-6.43,2.867-6.445,6.39c-0.008,1.715,0.653,3.329,1.86,4.547c1.207,1.218,2.815,1.892,4.53,1.9l0.029,1.18   v-1.18c3.523,0,6.402-2.867,6.417-6.392C187.066,45.868,184.2,42.975,180.66,42.96z"/>
	<g>
		<path style="fill:#2B2330;" d="M371.223,114.253c-2.215,0-7.823-6.954-12.44-13.242c-8.032,7.974-12.855,12.015-14.344,12.015    c-0.371,0-0.899-0.249-1.121-0.546c-0.847-1.128-2.312-8.555-3.255-13.746c-4.194,1.635-15.939,6.1-19.09,6.1    c-1.491,0-1.767-0.954-1.815-1.246c-0.288-1.728,2.593-12.099,4.178-17.597c-17.829-4.455-18.117-6.191-18.241-6.941    c-0.111-0.662-0.398-2.384,12.496-12.047c-5.379-3.211-14.593-9.283-13.993-12.878c0.599-3.592,10.342-6.448,15.86-7.786    c-8.972-16.937-7.851-17.78-7.027-18.399c0.339-0.254,0.777-0.362,1.465-0.362c2.976,0,12.437,2.224,16.067,3.105    c0.635-18.301,1.7-18.569,2.641-18.804c0.093-0.023,0.244-0.04,0.34-0.04c1.513,0,10.08,5.453,17.522,10.39    c4.805-16.084,6.343-16.085,7.181-16.085c0.151,0,0.378,0.044,0.517,0.099c0.476,0.191,1.896,0.758,7.659,15.576    c3.808-2.054,13.346-7.049,16.065-7.049c0.349,0,0.644,0.062,0.902,0.191c0.695,0.348,2.496,1.248-0.763,14.903    c3.35-0.463,10.728-1.407,15.146-1.407c1.692,0,4.523,0,4.523,1.923c0,1.968-4.247,10.447-6.346,14.514    c5.967,1.687,14.624,4.461,15.526,6.567c0.338,0.786,1.216,2.837-13.101,13.304c4.774,3.328,12.873,9.553,11.958,12.905    c-0.905,3.317-12.161,5.75-18.457,6.86c2.457,4.547,6.399,12.522,5.208,14.904c-0.517,1.034-1.823,1.475-4.366,1.475    c-4.306,0-11.23-1.305-13.852-1.832c-1.351,4.084-4.505,13.289-5.943,14.727C372.038,114.093,371.646,114.252,371.223,114.253z     M358.925,98.024c0.031,0,0.062,0.001,0.093,0.003c0.343,0.028,0.659,0.204,0.862,0.484c4.094,5.643,9.223,11.928,11.073,13.189    c1.063-1.866,3.465-8.418,5.402-14.357c0.188-0.575,0.768-0.917,1.37-0.788c0.092,0.02,9.365,1.994,14.397,1.994    c1.915,0,2.337-0.292,2.354-0.304c0.319-1.178-2.84-8.253-6.06-14.024c-0.188-0.335-0.199-0.742-0.032-1.088    s0.492-0.589,0.871-0.651c9.305-1.527,17.642-4.018,18.206-5.439c0.252-1.381-5.536-6.652-12.39-11.271    c-0.32-0.216-0.515-0.574-0.521-0.96c-0.006-0.386,0.177-0.75,0.491-0.976c6.012-4.33,12.689-9.831,13.543-11.577    c-1.294-1.135-8.766-3.697-15.26-5.48c-0.345-0.095-0.627-0.339-0.77-0.666s-0.129-0.702,0.037-1.018    c2.942-5.63,5.999-12.023,6.63-14.16c-0.362-0.059-0.988-0.118-2.046-0.118c-5.553,0-16.423,1.612-16.532,1.628    c-0.392,0.05-0.784-0.082-1.048-0.375c-0.265-0.292-0.366-0.696-0.271-1.079c1.391-5.569,2.55-12.194,2.223-13.9    c-2.048,0.324-10.36,4.468-15.772,7.44c-0.3,0.161-0.656,0.188-0.974,0.074c-0.319-0.118-0.574-0.366-0.696-0.685    c-2.305-5.994-5.101-12.546-6.452-14.828c-1.241,2.351-3.598,9.262-5.377,15.335c-0.106,0.361-0.377,0.649-0.73,0.777    c-0.352,0.133-0.745,0.082-1.058-0.127c-6.802-4.535-14.407-9.344-16.946-10.592c-0.527,2.563-1.041,10.529-1.27,17.727    c-0.01,0.356-0.183,0.688-0.468,0.904c-0.284,0.217-0.649,0.295-0.997,0.203c-3.578-0.894-13.134-3.145-16.45-3.364    c0.759,2.583,4.382,10.038,7.902,16.626c0.174,0.325,0.186,0.712,0.032,1.048c-0.152,0.334-0.453,0.579-0.812,0.66    c-8.036,1.82-15.305,4.729-15.555,6.224c-0.247,1.481,6.477,6.786,14.389,11.351c0.345,0.199,0.566,0.558,0.588,0.955    c0.023,0.398-0.157,0.779-0.476,1.015c-5.418,4.005-11.484,8.979-12.788,10.749c1.996,1.186,10.254,3.64,17.455,5.411    c0.311,0.076,0.58,0.278,0.74,0.555c0.16,0.279,0.201,0.611,0.111,0.92c-1.973,6.782-3.963,14.316-4.378,16.936    c3.392-0.505,12.919-3.991,18.969-6.393c0.331-0.129,0.701-0.105,1.011,0.067c0.309,0.172,0.524,0.475,0.587,0.824    c0.959,5.39,2.175,11.338,2.828,13.476c2.01-1.338,7.969-6.849,13.13-12.01C358.313,98.147,358.614,98.024,358.925,98.024z"/>
		<circle style="fill:#EDD674;" cx="356.98" cy="62.683" r="34.023"/>
		<g>
			<path style="fill:#FFFFFF;" d="M359.585,39.241c0,0,4.938,1.004,5.657,3.419"/>
			<path style="fill:#2B2330;" d="M365.241,43.84c-0.509,0-0.978-0.331-1.132-0.844c-0.352-1.184-3.048-2.251-4.76-2.6     c-0.638-0.129-1.051-0.753-0.921-1.391c0.129-0.638,0.757-1.046,1.391-0.921c0.576,0.116,5.659,1.232,6.553,4.239     c0.186,0.625-0.171,1.282-0.795,1.468C365.466,43.824,365.351,43.84,365.241,43.84z"/>
		</g>
		<g>
			<path style="fill:#FFFFFF;" d="M363.597,49.706c0,0,4.938,1.004,5.657,3.419"/>
			<path style="fill:#2B2330;" d="M369.254,54.305c-0.509,0-0.978-0.331-1.131-0.844c-0.352-1.178-3.049-2.247-4.763-2.599     c-0.638-0.13-1.05-0.754-0.92-1.392s0.755-1.045,1.391-0.92c0.576,0.116,5.658,1.231,6.553,4.238     c0.187,0.625-0.169,1.282-0.794,1.467C369.478,54.289,369.364,54.305,369.254,54.305z"/>
		</g>
		<g>
			<path style="fill:#FFFFFF;" d="M374.818,49.599c0,0,4.687,1.849,4.974,4.352"/>
			<path style="fill:#2B2330;" d="M379.791,55.131c-0.592,0-1.102-0.444-1.171-1.045c-0.141-1.229-2.61-2.747-4.235-3.388     c-0.606-0.24-0.904-0.925-0.665-1.532c0.24-0.606,0.923-0.901,1.532-0.665c0.546,0.217,5.356,2.199,5.713,5.315     c0.075,0.648-0.391,1.233-1.037,1.307C379.881,55.129,379.836,55.131,379.791,55.131z"/>
		</g>
		<g>
			<path style="fill:#FFFFFF;" d="M350.753,46.973c0,0,4.938,1.004,5.657,3.419"/>
			<path style="fill:#2B2330;" d="M356.409,51.572c-0.509,0-0.978-0.331-1.131-0.844c-0.353-1.184-3.049-2.251-4.761-2.6     c-0.638-0.129-1.051-0.753-0.921-1.391c0.129-0.638,0.758-1.048,1.391-0.921c0.576,0.116,5.658,1.232,6.552,4.239     c0.187,0.625-0.169,1.282-0.794,1.467C356.634,51.556,356.52,51.572,356.409,51.572z"/>
		</g>
		<g>
			<path style="fill:#FFFFFF;" d="M344.935,38.613c0,0,5.037-0.133,6.281,2.058"/>
			<path style="fill:#2B2330;" d="M351.216,41.851c-0.411,0-0.81-0.214-1.028-0.598c-0.611-1.074-3.495-1.527-5.223-1.46     c-0.597,0.031-1.194-0.497-1.211-1.149c-0.017-0.651,0.498-1.194,1.149-1.211c0.602-0.007,5.791-0.07,7.339,2.656     c0.322,0.566,0.122,1.286-0.445,1.609C351.614,41.802,351.413,41.851,351.216,41.851z"/>
		</g>
	</g>
	<g>
		<path style="fill:#FFFFFF;" d="M48.362,142.549c0,0-4.606-19.269,14.857-14.904c19.462,4.365,15.196,22.89,7.39,17.514    c-7.806-5.375,3.486-27.534,18.837-19.787s13.999,26.019,3.929,28.405c-10.069,2.385,4.006-21.528,18.291-9.15    s-11.187,40.305-23.625,32.305s-4.996-23.773-1.301-15.016c3.695,8.757-2.81,18.398-23.209,20.166    c-20.399,1.768-14.389-30.524-6.323-22.146c8.066,8.378-2.68,19.9-18.161,10.651C23.566,161.34,37.642,137.427,48.362,142.549z"/>
		<path style="fill:#2B2330;" d="M61.952,183.333c-5.872,0-10.183-2.883-12.227-8.143c-3.555-0.06-7.45-1.298-11.283-3.588    c-6.273-3.748-8.793-10.423-6.742-17.856c2.225-8.067,9.265-14.109,15.175-12.927c-0.335-2.768-0.453-7.796,2.308-11.295    c2.756-3.493,7.591-4.53,14.293-3.029c2.731,0.612,5.157,1.528,7.228,2.727c4.805-6.346,12.319-8.41,19.272-4.901    c6.638,3.349,11.041,9.115,11.983,15.596c3.668-0.317,7.208,0.987,10.479,3.82c4.7,4.073,5.88,10.093,3.323,16.953    c-3.743,10.036-14.342,18.841-22.683,18.842c-2.11,0-4.02-0.541-5.676-1.605c-1.002-0.644-1.919-1.361-2.736-2.139    c-4.295,4.073-11.528,6.649-21.034,7.471C63.054,183.309,62.492,183.333,61.952,183.333z M52.22,175.028    c1.475,3.22,4.666,6.435,11.21,5.879c11.097-0.961,16.77-4.121,19.646-6.866c-3.546-4.523-3.716-9.87-2.282-13.097    c0.785-1.766,2.018-2.779,3.385-2.779c1.03,0,2.5,0.572,3.648,3.293c1.877,4.447,1.313,8.876-1.572,12.583    c0.72,0.689,1.533,1.326,2.425,1.9c1.269,0.816,2.749,1.23,4.399,1.23c7.337-0.001,17.093-8.249,20.471-17.307    c1.548-4.152,2.344-10.01-2.658-14.344c-2.782-2.411-5.722-3.516-8.746-3.252c0.08,6.304-3.309,11.428-8.499,12.658    c-2.766,0.656-4.64-0.44-4.843-2.632c-0.34-3.68,4.314-10.182,10.831-11.963c-0.809-5.747-4.754-10.893-10.721-13.905    c-5.911-2.979-12.107-1.263-16.237,4.103c5.12,3.893,6.385,9.276,5.322,12.821c-1.112,3.709-4.738,5.073-8.06,2.781    c-4.276-2.943-3.637-9.673-0.55-14.944c-1.834-1.041-3.991-1.843-6.428-2.39c-5.707-1.282-9.767-0.543-11.923,2.189    c-3.206,4.062-1.544,11.218-1.527,11.29c0.106,0.443-0.052,0.906-0.406,1.192c-0.354,0.289-0.839,0.342-1.252,0.148    c-0.827-0.395-1.705-0.596-2.609-0.596c-4.484,0-9.539,5.094-11.268,11.355c-0.841,3.048-1.972,10.633,5.677,15.202    c3.198,1.911,6.407,3.013,9.344,3.22c-1.073-4.722-0.342-10.18,1.889-13.263c1.294-1.791,2.701-2.167,3.654-2.167    c1.215,0,2.398,0.59,3.518,1.753c2.874,2.986,3.807,6.714,2.493,9.973C59.28,172.248,56.163,174.434,52.22,175.028z     M54.54,159.727c-0.73,0-1.351,0.648-1.743,1.189c-1.648,2.278-2.568,7.31-1.383,11.838c3.329-0.372,5.948-2.064,6.948-4.544    c0.969-2.406,0.239-5.123-2.005-7.454C55.906,160.287,55.224,159.727,54.54,159.727z M84.18,160.526    c-0.297,0-0.807,0.431-1.227,1.377c-0.935,2.103-1.142,6.412,1.71,10.323c2.094-2.935,2.452-6.386,0.991-9.85    C85.037,160.915,84.437,160.526,84.18,160.526z M99.785,142.75c-5.158,1.666-8.852,6.936-8.631,9.326    c0.036,0.392,0.128,0.69,0.932,0.69c0.292,0,0.633-0.046,1.016-0.136C97.071,151.69,99.695,147.723,99.785,142.75z     M71.357,132.492c-2.742,4.712-2.836,9.798-0.08,11.696c2.005,1.38,3.788,0.733,4.461-1.516    C76.563,139.923,75.495,135.693,71.357,132.492z"/>
	</g>
	<g>
		<path style="fill:#FFFFFF;" d="M430.724,175.593c0,0-4.606-19.269,14.857-14.904s15.196,22.89,7.39,17.514    c-7.806-5.375,3.486-27.534,18.837-19.787s13.999,26.019,3.929,28.405c-10.069,2.385,4.007-21.528,18.291-9.15    s-11.187,40.305-23.625,32.305c-12.437-8-4.996-23.773-1.301-15.016s-2.81,18.398-23.209,20.166    c-20.399,1.768-14.389-30.524-6.323-22.146c8.066,8.378-2.68,19.9-18.161,10.651C405.929,194.384,420.004,170.47,430.724,175.593z    "/>
		<path style="fill:#2B2330;" d="M444.314,216.377c-5.872,0-10.183-2.883-12.227-8.143c-3.555-0.06-7.45-1.298-11.283-3.588    c-6.273-3.748-8.793-10.423-6.742-17.856c2.227-8.067,9.255-14.106,15.175-12.927c-0.335-2.768-0.453-7.796,2.308-11.295    c2.757-3.491,7.591-4.53,14.293-3.029c2.731,0.612,5.157,1.528,7.228,2.727c4.805-6.347,12.32-8.408,19.272-4.901    c6.638,3.349,11.041,9.115,11.983,15.596c3.671-0.315,7.208,0.987,10.479,3.82c4.7,4.073,5.88,10.093,3.323,16.953    c-3.743,10.036-14.342,18.841-22.683,18.842c-2.11,0-4.02-0.541-5.676-1.605c-1.001-0.644-1.919-1.361-2.736-2.139    c-4.295,4.073-11.528,6.649-21.034,7.471C445.416,216.353,444.855,216.377,444.314,216.377z M434.583,208.072    c1.474,3.22,4.659,6.44,11.21,5.879c11.097-0.961,16.77-4.121,19.646-6.866c-3.546-4.523-3.716-9.87-2.282-13.097    c0.785-1.766,2.018-2.779,3.385-2.779c1.03,0,2.5,0.572,3.648,3.293c1.877,4.447,1.313,8.876-1.572,12.583    c0.72,0.689,1.533,1.326,2.425,1.9c1.269,0.816,2.749,1.23,4.399,1.23c7.337-0.001,17.093-8.249,20.471-17.307    c1.548-4.152,2.344-10.01-2.658-14.344c-2.782-2.412-5.725-3.512-8.746-3.252c0.08,6.304-3.309,11.428-8.499,12.658    c-2.766,0.656-4.64-0.44-4.843-2.632c-0.34-3.68,4.314-10.182,10.831-11.963c-0.809-5.747-4.754-10.893-10.721-13.905    c-5.91-2.983-12.107-1.262-16.237,4.103c5.12,3.893,6.385,9.276,5.322,12.821c-1.111,3.709-4.736,5.072-8.06,2.781    c-4.276-2.943-3.637-9.673-0.55-14.944c-1.834-1.041-3.991-1.843-6.428-2.39c-5.708-1.279-9.768-0.544-11.923,2.189    c-3.206,4.062-1.544,11.218-1.527,11.29c0.106,0.443-0.052,0.906-0.406,1.192c-0.354,0.289-0.839,0.342-1.252,0.148    c-0.827-0.395-1.704-0.596-2.609-0.596c-4.484,0-9.539,5.094-11.268,11.355c-0.841,3.048-1.972,10.633,5.677,15.202    c3.198,1.911,6.407,3.013,9.344,3.22c-1.073-4.722-0.342-10.18,1.889-13.263c1.294-1.791,2.701-2.167,3.654-2.167    c1.215,0,2.398,0.59,3.519,1.753c2.874,2.986,3.807,6.714,2.493,9.973C441.643,205.291,438.525,207.477,434.583,208.072z     M436.903,192.771c-0.729,0-1.351,0.648-1.743,1.189c-1.648,2.278-2.568,7.31-1.383,11.838c3.329-0.372,5.948-2.064,6.948-4.544    c0.969-2.406,0.239-5.123-2.005-7.454C438.268,193.331,437.586,192.771,436.903,192.771z M466.542,193.569    c-0.297,0-0.807,0.431-1.227,1.377c-0.935,2.103-1.142,6.412,1.71,10.323c2.094-2.935,2.452-6.386,0.991-9.85    C467.399,193.959,466.799,193.569,466.542,193.569z M482.148,175.794c-5.158,1.666-8.852,6.936-8.631,9.326    c0.036,0.392,0.128,0.69,0.932,0.69c0.292,0,0.633-0.046,1.016-0.136C479.433,184.733,482.058,180.767,482.148,175.794z     M453.72,165.536c-2.742,4.712-2.836,9.798-0.079,11.696c2.006,1.382,3.787,0.734,4.461-1.516    C458.925,172.967,457.857,168.737,453.72,165.536z"/>
	</g>
	<path style="fill:#2B2330;" d="M441.693,492.153c-0.103,0-0.207-0.013-0.311-0.041c-0.629-0.172-1-0.819-0.829-1.449   c12.918-47.448-22.984-127.951-23.348-128.759c-0.267-0.595-0.002-1.293,0.591-1.56c0.597-0.272,1.294-0.003,1.56,0.59   c0.368,0.816,36.612,82.093,23.474,130.349C442.688,491.808,442.212,492.153,441.693,492.153z"/>
	<g>
		<path style="fill:#FFFFFF;" d="M407.639,337.43c0,0-3.473-18.811,5.499-17.074c8.971,1.736,9.261,16.496,9.261,16.496    s8.103-16.785,13.602-12.155c5.499,4.63-0.289,18.811-0.289,18.811s12.155-4.92,15.917-0.868    c3.762,4.052-12.444,16.785-12.444,16.785s15.049,0.579,15.049,7.814c0,7.235-18.521,7.235-18.521,7.235s8.392,8.392,3.183,15.627    c-5.209,7.235-17.653-10.708-17.653-10.708s2.026,14.47-6.656,17.943s-10.997-16.351-10.997-16.351s-8.103,7.958-18.232,3.039    c-10.129-4.92,8.954-23.026,8.954-23.026s-16.478,1.61-18.504-6.493c-2.026-8.103,19.679-7.524,19.679-7.524    s-14.47-11.286-8.682-16.496C392.59,325.275,407.639,337.43,407.639,337.43z"/>
		<path style="fill:#2B2330;" d="M412.606,398.922c-6.509,0-9.071-10.887-9.887-15.713c-2.057,1.475-5.844,3.598-10.607,3.598    c-2.471,0-4.918-0.58-7.272-1.724c-2.013-0.977-3.241-2.547-3.548-4.541c-0.906-5.849,6.239-14.24,10.047-18.237    c-5.359,0.063-15.01-0.846-16.677-7.516c-0.391-1.559-0.093-3.029,0.86-4.249c2.881-3.691,11.496-4.546,16.775-4.714    c-3.086-2.79-7.885-7.801-8.036-12.101c-0.058-1.611,0.549-3.036,1.753-4.119c1.18-1.063,2.723-1.601,4.585-1.601    c5.191,0,11.96,4.276,15.466,6.768c-0.44-3.906-0.72-10.629,1.96-13.85c1.278-1.539,3.043-2.174,5.338-1.726    c6.757,1.307,9.047,8.897,9.821,13.689c2.372-4.077,6.609-10.179,10.72-10.179c1.04,0,2.001,0.365,2.856,1.086    c4.664,3.928,2.35,13.318,0.902,17.765c2.299-0.743,5.874-1.701,9.04-1.701c2.623,0,4.571,0.666,5.789,1.978    c0.65,0.7,0.951,1.62,0.869,2.661c-0.332,4.239-7.407,10.786-11.205,14.015c4.672,0.611,13.257,2.571,13.257,8.725    c0,6.671-11.761,8.058-17.195,8.343c2.807,3.739,5.448,9.914,1.634,15.209c-1.041,1.445-2.457,2.209-4.097,2.209h-0.001    c-4.521,0-10.013-5.923-13.117-9.79c-0.028,4.83-1.132,12.63-7.613,15.222C414.205,398.758,413.339,398.857,412.606,398.922z     M403.587,379.805c0.133,0,0.265,0.022,0.394,0.068c0.423,0.15,0.726,0.528,0.778,0.974c0.478,4.077,2.946,15.715,7.847,15.715    c0.001,0,0.001,0,0.001,0c0.484,0,1.001-0.108,1.539-0.324c7.734-3.093,5.944-16.546,5.926-16.682    c-0.076-0.542,0.229-1.064,0.739-1.263c0.513-0.192,1.088-0.023,1.399,0.426c2.301,3.316,9.219,11.919,13.543,11.919    c0,0,0,0,0.001,0c0.885,0,1.579-0.39,2.182-1.227c4.57-6.348-2.983-14.027-3.06-14.104c-0.338-0.338-0.438-0.845-0.256-1.286    c0.182-0.44,0.613-0.728,1.09-0.728c4.498-0.002,17.341-1.118,17.341-6.055c0-5.934-13.774-6.629-13.913-6.635    c-0.494-0.018-0.924-0.345-1.078-0.815c-0.152-0.47,0.005-0.987,0.393-1.292c4.715-3.705,12.291-10.833,12.553-14.183    c0.039-0.496-0.111-0.725-0.244-0.87c-0.754-0.812-2.119-1.224-4.06-1.224c-4.601,0-10.491,2.359-10.55,2.382    c-0.437,0.183-0.943,0.075-1.278-0.26c-0.334-0.337-0.436-0.84-0.257-1.279c1.518-3.725,4.587-14.122,0.621-17.462    c-0.423-0.356-0.86-0.53-1.335-0.53c-3.285,0-8.149,7.542-10.444,12.296c-0.236,0.49-0.779,0.761-1.314,0.64    c-0.534-0.116-0.917-0.583-0.929-1.128c-0.002-0.138-0.379-13.827-8.305-15.361c-1.354-0.263-2.326,0.02-3.074,0.919    c-2.527,3.034-1.608,11.7-1.04,14.783c0.09,0.486-0.133,0.976-0.557,1.229c-0.425,0.252-0.96,0.214-1.345-0.096    c-0.099-0.081-9.964-7.982-16.301-7.982c-1.278,0-2.262,0.325-3.006,0.995c-0.697,0.627-1.006,1.352-0.974,2.281    c0.145,4.148,6.974,10.363,9.592,12.409c0.401,0.313,0.557,0.849,0.385,1.329c-0.174,0.478-0.651,0.783-1.142,0.781    c-0.009-0.001-0.337-0.009-0.9-0.009c-6.538,0-14.958,1.006-17.172,3.841c-0.509,0.653-0.647,1.361-0.431,2.225    c1.293,5.171,10.272,5.729,14.073,5.729c1.864,0,3.159-0.123,3.172-0.124c0.489-0.051,0.978,0.226,1.187,0.685    c0.21,0.459,0.105,0.999-0.26,1.346c-3.476,3.301-12.319,13.028-11.497,18.33c0.19,1.227,0.924,2.136,2.246,2.777    c2.032,0.987,4.132,1.487,6.242,1.487c6.159,0,10.606-4.264,10.65-4.307C402.987,379.922,403.284,379.805,403.587,379.805z"/>
	</g>
	<circle style="fill:#DF9C49;" cx="471.816" cy="302.418" r="17.952"/>
	<circle style="fill:#DF9C49;" cx="414.74" cy="359.982" r="17.952"/>
	<g>
		<path style="fill:#DF9C49;" d="M352.037,429.817c0,0-6.884,55.068-3.963,59.449c2.92,4.38,8.344,6.466,0.834,11.055    s-42.136,8.344-48.602,0c-6.466-8.344-15.227-57.989-10.638-62.369C294.258,433.572,342.651,420.848,352.037,429.817z"/>
		<path style="fill:#2B2330;" d="M351.41,499.207c-0.625,0-1.146-0.49-1.178-1.121c-0.124-2.507-6.08-4.995-8.945-5.807    c-0.627-0.177-0.991-0.83-0.814-1.457c0.179-0.626,0.825-0.991,1.457-0.814c1.065,0.301,10.416,3.083,10.66,7.96    c0.032,0.651-0.469,1.204-1.12,1.238C351.45,499.207,351.43,499.207,351.41,499.207z"/>
		<path style="fill:#2B2330;" d="M345.57,502.962c-0.583,0-1.089-0.431-1.169-1.025c-0.19-1.429-5.909-4.493-10.922-6.35    c-0.611-0.226-0.923-0.905-0.696-1.517c0.226-0.611,0.905-0.923,1.517-0.696c2.798,1.036,11.967,4.695,12.441,8.252    c0.086,0.645-0.368,1.239-1.014,1.325C345.674,502.958,345.622,502.962,345.57,502.962z"/>
		<path style="fill:#DF9C49;" d="M196.445,429.817c0,0,6.884,55.068,3.963,59.449c-2.92,4.38-8.344,6.466-0.834,11.055    s42.136,8.344,48.602,0c6.466-8.344,15.227-57.989,10.638-62.369S205.832,420.848,196.445,429.817z"/>
		<path style="fill:#2B2330;" d="M197.072,499.207c-0.02,0-0.04,0-0.06-0.001c-0.651-0.033-1.152-0.587-1.12-1.238    c0.244-4.877,9.597-7.659,10.663-7.96c0.628-0.177,1.278,0.188,1.456,0.814c0.177,0.627-0.187,1.279-0.814,1.457    c-2.865,0.812-8.822,3.301-8.947,5.807C198.218,498.717,197.697,499.207,197.072,499.207z"/>
		<path style="fill:#2B2330;" d="M202.913,502.962c-0.052,0-0.104-0.003-0.157-0.01c-0.647-0.086-1.101-0.68-1.014-1.325    c0.474-3.557,9.643-7.216,12.441-8.252c0.614-0.229,1.291,0.085,1.517,0.696c0.227,0.612-0.085,1.291-0.696,1.517    c-5.013,1.858-10.732,4.923-10.922,6.35C204.002,502.531,203.496,502.962,202.913,502.962z"/>
		<path style="fill:#DF9C49;" d="M204.155,403.97c0,0-6.584,51.286-81.927,39.228C42.22,430.394,42.277,272.03,16.468,265.895    c0,0,48.101-28.709,104.551,7.252c71.447,45.514,22.899,182.51,70.183,114.809L204.155,403.97z"/>
		<path style="fill:#FFFFFF;" d="M42.2,332.289c0.232,5.737,7.34,30.005,27.456,20.275c9.672-4.678,3.004-32.742,3.004-32.742    s23.381,14.923,30.524,10.209c7.143-4.713-3.562-29.64-3.562-29.64s28.548,6.592,32.406-6.208    c1.471-4.88-1.317-18.886-16.944-29.174c-25.359-16.694-73.851-26.005-113.21,11.389C1.875,276.398,27.544,284.136,42.2,332.289z"/>
		<path style="opacity:0.2;fill:#ECD673;" d="M42.2,332.289c0.232,5.737,7.34,30.005,27.456,20.275    c9.672-4.678,3.004-32.742,3.004-32.742s23.381,14.923,30.524,10.209c7.143-4.713-3.562-29.64-3.562-29.64    s28.548,6.592,32.406-6.208c1.471-4.88-1.317-18.886-16.944-29.174c-25.359-16.694-73.851-26.005-113.21,11.389    C1.875,276.398,27.544,284.136,42.2,332.289z"/>
		<path style="fill:#2B2330;" d="M44.541,343.656c-0.546,0-1.036-0.38-1.154-0.937c-12.235-57.974-42.145-64.745-42.446-64.807    c-0.43-0.088-0.776-0.408-0.897-0.831c-0.121-0.422,0.002-0.877,0.32-1.18c54.848-52.217,117.353-11.885,117.98-11.472    c0.544,0.36,0.693,1.091,0.333,1.635c-0.361,0.54-1.095,0.691-1.635,0.333c-0.602-0.399-60.446-38.954-113.551,9.811    c7.274,2.56,31.385,14.756,42.205,66.024c0.135,0.637-0.273,1.263-0.912,1.398C44.704,343.648,44.622,343.656,44.541,343.656z"/>
		<path style="fill:#2B2330;" d="M204.876,136.032c0,0-64.338-28.317-56.643-3.034c5.358,17.606,14.544,61.238,32.915,48.99    S217.124,139.094,204.876,136.032z"/>
		<path style="fill:#2B2330;" d="M272.515,125.123c0,0-30.892-63.142-41.323-38.859c-7.264,16.909-28.393,56.174-6.454,58.667    S279.898,135.364,272.515,125.123z"/>
		<path style="fill:#DF9C49;" d="M166.492,214.187c0,0,1.669-61.487,53.696-92.671c24.78-14.853,81.415,18.915,98.482,26.685    c77.577,35.318,72.517,91.38-18.873,107.273S161.782,260.559,166.492,214.187z"/>
		<path style="fill:#DF9C49;" d="M226.659,212.59c0,0-89.908,198.276-20.25,225.833c42.232,16.707,99.512,16.84,136.255,0.765    c64.021-28.009-28.912-195.982-55.114-208.21C261.348,218.751,226.659,212.59,226.659,212.59z"/>
		<path style="fill:#DF9C49;" d="M310.978,281.408c0,0,43.056-19.489,89.027-23.641c13.116-1.184,7.22,45.235-54.957,63.009    C297.578,334.347,310.978,281.408,310.978,281.408z"/>
		<path style="fill:#FFFFFF;" d="M221.889,266.013c0,0,0-92.347,35.518-85.688c35.518,6.66,102.772,37.763,108.987,14.676    c6.216-23.087,20.668,47.46-38.187,57.999C287.865,260.224,225.44,270.897,221.889,266.013z"/>
		<path style="opacity:0.2;fill:#ECD673;" d="M221.889,266.013c0,0,0-92.347,35.518-85.688    c35.518,6.66,102.772,37.763,108.987,14.676c6.216-23.087,20.668,47.46-38.187,57.999    C287.865,260.224,225.44,270.897,221.889,266.013z"/>
		<path style="fill:#2B2330;" d="M338.071,200.36c0,0-4.593-24.495,19.902-31.385c8.165-2.297,37.508,38.274,9.186,57.411    C358.209,232.434,335.408,207.019,338.071,200.36z"/>
		<path style="fill:#2B2330;" d="M250.267,173.686c-5.208,0-13.999-13.072-16.715-17.317c-0.35-0.55-0.19-1.279,0.358-1.631    c0.551-0.349,1.279-0.189,1.631,0.358c5.47,8.548,12.738,17.111,14.858,16.21c0.285-0.119,2.66-1.685-1.479-19.529    c-0.146-0.635,0.249-1.269,0.884-1.416c0.629-0.141,1.269,0.249,1.416,0.884c4.171,17.988,2.242,21.333,0.093,22.237    C250.985,173.62,250.634,173.686,250.267,173.686z"/>
		<path style="fill:#2B2330;" d="M282.413,165.932c-3.469,0.001-7.977-5.078-14.376-16.108c-0.327-0.564-0.135-1.286,0.429-1.613    c0.568-0.326,1.287-0.133,1.613,0.429c8.616,14.855,11.877,15.14,12.677,14.877c2.477-0.833,2.82-10.927,1.718-19.799    c-0.081-0.647,0.379-1.235,1.026-1.316c0.648-0.075,1.237,0.378,1.316,1.026c0.423,3.4,2.251,20.456-3.306,22.327    C283.156,165.872,282.791,165.932,282.413,165.932z"/>
		<path style="fill:#2B2330;" d="M307.295,244.257c-0.097,0-0.191-0.005-0.286-0.013c-6.638-0.568-8.664-26.427-9.128-34.339    c-0.038-0.651,0.459-1.209,1.109-1.247c0.668-0.016,1.209,0.459,1.247,1.109c0.893,15.239,3.812,31.855,6.974,32.126    c0.708,0.051,4.53-1.05,11.012-28.823c0.149-0.634,0.774-1.03,1.418-0.88c0.634,0.148,1.029,0.783,0.88,1.418    C314.282,240.342,310.185,244.257,307.295,244.257z"/>
		<path style="fill:#FFFFFF;" d="M245.127,260.966c0,0-21.112,71.821,47.781,84.068c34.238,6.087,22.26-86.87,13.855-90.372    C298.359,251.161,243.026,255.363,245.127,260.966z"/>
		<path style="opacity:0.2;fill:#ECD673;" d="M245.127,260.966c0,0-21.112,71.821,47.781,84.068    c34.238,6.087,22.26-86.87,13.855-90.372C298.359,251.161,243.026,255.363,245.127,260.966z"/>
		<path style="fill:#2B2330;" d="M288.316,257.42c-0.648,0-1.176-0.522-1.18-1.171c-0.005-0.652,0.519-1.185,1.171-1.189    c38.208-0.298,64.087-8.498,74.84-23.713c8.905-12.601,4.474-25.874,4.429-26.007c-0.213-0.615,0.113-1.288,0.728-1.502    c0.615-0.209,1.287,0.112,1.501,0.726c0.204,0.585,4.886,14.496-4.702,28.104c-11.355,16.115-37.187,24.443-76.778,24.752    C288.321,257.42,288.319,257.42,288.316,257.42z"/>
		<path style="fill:#2B2330;" d="M382.884,267.603c-0.41,0-0.809-0.213-1.026-0.596c-0.324-0.566-0.127-1.286,0.44-1.609    c2.915-1.664,17.69-9.846,22.208-7.527c0.58,0.296,0.809,1.008,0.512,1.588c-0.296,0.58-1.005,0.814-1.588,0.512    c-2.495-1.276-13.174,3.603-19.963,7.476C383.283,267.553,383.082,267.603,382.884,267.603z"/>
		<path style="fill:#2B2330;" d="M389.775,274.764c-0.319,0-0.637-0.129-0.87-0.383c-0.44-0.482-0.408-1.227,0.074-1.668    c1.081-0.99,10.68-9.693,14.661-10.377c0.651-0.107,1.254,0.322,1.362,0.963c0.111,0.642-0.32,1.253-0.963,1.362    c-2.486,0.426-9.579,6.233-13.465,9.791C390.345,274.662,390.059,274.764,389.775,274.764z"/>
		<path style="fill:#ECD673;" d="M154.355,299.461c0,0,70.424-59.707,82.671-50.521c12.248,9.186,33.683,108.343,18.374,111.405    C240.09,363.406,157.417,328.549,154.355,299.461z"/>
		<path style="fill:#DF9C49;" d="M177.13,316.903c0,0,59.304-34.347,65.448-18.371c5.741,14.927-6.315,54.157-38.465,57.219    C171.963,358.813,157.228,336.806,177.13,316.903z"/>
		<path style="fill:#2B2330;" d="M219.422,308.706c-0.289,0-0.58-0.106-0.807-0.319c-0.476-0.446-0.5-1.193-0.054-1.668    c0.488-0.522,12.074-12.741,21.074-10.282c0.629,0.172,1,0.821,0.829,1.449c-0.172,0.63-0.83,1.004-1.449,0.829    c-7.626-2.085-18.623,9.501-18.732,9.62C220.05,308.58,219.737,308.706,219.422,308.706z"/>
		<path style="fill:#2B2330;" d="M224.016,314.83c-0.289,0-0.58-0.106-0.807-0.319c-0.476-0.446-0.5-1.193-0.054-1.668    c0.489-0.52,12.08-12.73,21.073-10.284c0.629,0.172,1,0.821,0.829,1.449c-0.172,0.632-0.824,1-1.449,0.829    c-7.621-2.08-18.622,9.503-18.731,9.621C224.644,314.704,224.33,314.83,224.016,314.83z"/>
		<path style="fill:#2B2330;" d="M193.029,357.803c-3.869,0-7.788-0.64-11.407-2.325c-7.111-3.31-11.779-10.091-13.876-20.154    c-0.134-0.638,0.277-1.263,0.914-1.396c0.64-0.139,1.263,0.275,1.396,0.914c1.937,9.295,6.163,15.518,12.562,18.497    c13.671,6.361,32.988-3.882,33.184-3.986c0.574-0.309,1.291-0.093,1.598,0.481c0.309,0.573,0.093,1.288-0.481,1.598    C216.292,351.77,204.908,357.803,193.029,357.803z"/>
		<path style="fill:#2B2330;" d="M282.031,453.157c-16.941,0-28.442-5.142-28.656-5.241c-0.591-0.273-0.849-0.974-0.577-1.565    c0.274-0.591,0.974-0.848,1.566-0.579c0.391,0.18,39.663,17.671,79.92-13.638c0.515-0.4,1.256-0.305,1.656,0.206    c0.401,0.515,0.308,1.256-0.206,1.656C316.284,449.124,297.026,453.157,282.031,453.157z"/>
		<path style="fill:#FFFFFF;" d="M169.666,165.562c-0.501,0-0.966-0.32-1.125-0.823c-1.421-4.483-8.336-27.081-4.885-31.796    c0.539-0.736,1.294-1.126,2.183-1.126c6.266,0,24.152,6.68,24.911,6.964c0.61,0.229,0.919,0.909,0.69,1.52    c-0.23,0.612-0.909,0.915-1.52,0.69c-0.181-0.068-18.24-6.815-24.081-6.815c-0.1,0-0.168,0.01-0.278,0.16    c-2.013,2.75,1.846,19.016,5.23,29.687c0.197,0.622-0.146,1.285-0.768,1.482C169.905,165.545,169.784,165.562,169.666,165.562z"/>
		<path style="fill:#FFFFFF;" d="M255.401,116.572c-0.393,0-0.778-0.196-1.001-0.554c-5.169-8.27-11.299-17.226-13.018-18.543    c-1.445,0.904-5.16,7.324-7.879,13.064c-0.279,0.591-0.982,0.847-1.571,0.561c-0.589-0.279-0.841-0.982-0.561-1.571    c7.335-15.488,9.804-14.671,10.625-14.393c2.436,0.811,10.886,13.998,14.406,19.63c0.346,0.553,0.177,1.282-0.375,1.626    C255.831,116.514,255.614,116.572,255.401,116.572z"/>
		<g>
			<path style="fill:#B4D5C9;" d="M203.73,226.769c0,0-8.42-24.878,14.161-35.977S227.46,249.35,203.73,226.769z"/>
			<path style="fill:#2B2330;" d="M207.174,235.986c-0.587,0-1.095-0.437-1.17-1.034c-0.794-6.35,8.113-29.085,8.493-30.05     c0.24-0.606,0.924-0.9,1.53-0.666c0.606,0.239,0.905,0.924,0.666,1.53c-2.524,6.416-8.944,24.114-8.347,28.892     c0.081,0.647-0.378,1.237-1.025,1.317C207.272,235.983,207.222,235.986,207.174,235.986z"/>
		</g>
		<g>
			<path style="fill:#B4D5C9;" d="M138.483,230.896c0,0-16.676-20.291,0.519-38.661S168.666,243.623,138.483,230.896z"/>
			<path style="fill:#2B2330;" d="M144.549,238.375c-0.424,0-0.833-0.228-1.044-0.629c-2.99-5.657-2.7-30.074-2.686-31.111     c0.009-0.645,0.536-1.164,1.18-1.164c0.005,0,0.01,0,0.016,0c0.651,0.009,1.172,0.544,1.164,1.196     c-0.091,6.894,0.164,25.72,2.412,29.977c0.305,0.576,0.084,1.29-0.492,1.594C144.924,238.331,144.735,238.375,144.549,238.375z"/>
		</g>
		<g>
			<path style="fill:#B4D5C9;" d="M138.467,270.621c0,0-24.237-10.118-36.87,11.642S159.355,295.854,138.467,270.621z"/>
			<path style="fill:#2B2330;" d="M116.266,282.158c-0.501,0-0.967-0.322-1.126-0.825c-0.196-0.621,0.149-1.284,0.771-1.481     c0.988-0.312,24.27-7.635,30.564-6.397c0.64,0.126,1.057,0.746,0.931,1.385c-0.126,0.638-0.744,1.052-1.385,0.931     c-4.714-0.928-22.824,4.257-29.4,6.333C116.503,282.14,116.383,282.158,116.266,282.158z"/>
		</g>
		<g>
			<path style="fill:#9D7F95;" d="M146.198,237.716c0,0,2.421-15.947-11.377-12.806c-13.798,3.141-7.661,19.767-5.262,17.332     c2.399-2.435,0.894-13.023-13.966-2.684c-14.86,10.338,2.319,28.122,5.863,21.401c3.544-6.721-2.735-17.582-11.101-0.846     s29.294,21.721,26.416,9.904c-2.878-11.817-9.059,6.948,1.517,12.199c10.576,5.251,16.065-14.934,9.547-16.187     c-6.517-1.253-2.637,12.044,10.338,6.492c12.974-5.552,0.558-24.672-7.08-18.417c-7.639,6.255,11.448,5.74,13.511-8.345     c2.063-14.085-7.724-13.392-14.91-12.842c-7.186,0.55-12.138,9.574-8.593,11.221     C144.648,245.785,146.198,237.716,146.198,237.716z"/>
			<path style="fill:#2B2330;" d="M139.965,272.392c-0.847,0-1.711-0.216-2.569-0.642c-1.513-0.751-2.668-1.956-3.387-3.518     c-4.066,0.819-11.14-0.557-13.741-4.764c-0.833-1.348-1.521-3.568-0.063-6.484c0.216-0.432,0.43-0.834,0.641-1.209     c-1.808-3.311-2.056-8.067,2.865-11.492c2.245-1.56,4.207-2.49,5.85-2.773c0.437-3.149,2.586-5.361,6.03-6.144     c2.739-0.627,4.903-0.174,6.365,1.306c1.192,1.203,1.693,2.864,1.873,4.389c0.478-0.128,0.959-0.211,1.438-0.248l0.935-0.078     c0.898-0.08,1.812-0.159,2.683-0.159c1.409,0,3.437,0.179,4.776,1.728c1.22,1.413,1.588,3.644,1.122,6.819     c-0.363,2.48-1.488,4.215-2.616,5.374c1.589,1.892,2.425,4.475,2.08,6.666c-0.34,2.159-1.762,3.877-4.003,4.835     c-1.497,0.641-2.949,0.936-4.246,0.905C145.107,269.709,142.99,272.392,139.965,272.392z M136.247,267.432     c0.41,0.806,1.086,1.651,2.198,2.204c2.395,1.19,4.377-0.748,5.23-3.223c-2.103-0.883-3.228-2.801-3.078-4.364     c0.146-1.551,1.37-2.517,3.241-2.169c0.787,0.152,1.445,0.596,1.905,1.286c0.554,0.832,0.799,2.02,0.71,3.373     c0.875-0.035,1.837-0.273,2.863-0.712c1.51-0.647,2.384-1.666,2.6-3.033c0.242-1.536-0.408-3.44-1.586-4.816     c-1.64,1.029-3.304,1.413-4.414,1.413c-1.822,0-2.359-0.953-2.505-1.363c-0.342-0.958,0.128-1.972,1.399-3.013     c1.582-1.293,3.718-1.318,5.596-0.097c0.874-0.876,1.76-2.208,2.042-4.137c0.355-2.424,0.161-4.083-0.574-4.935     c-0.544-0.629-1.466-0.91-2.99-0.91c-0.803,0-1.647,0.076-2.476,0.15l-0.962,0.081c-0.515,0.039-1.038,0.157-1.56,0.35     c-0.033,0.504-0.082,0.814-0.082,0.814c-0.229,1.201-1.148,4.967-3.649,4.967l0,0c-0.354,0-0.709-0.082-1.053-0.242     c-0.823-0.383-1.299-1.125-1.308-2.038c-0.016-1.647,1.554-3.697,3.747-4.988c-0.059-1.167-0.326-2.751-1.262-3.697     c-0.877-0.885-2.265-1.096-4.165-0.666c-2.863,0.652-3.888,2.352-4.178,3.95c1.019,0.324,1.797,1.029,2.208,2.039     c0.564,1.382,0.31,3.113-0.59,4.027c-0.561,0.569-1.353,1.051-2.522-0.137c-0.731-0.742-1.278-2.127-1.474-3.621     c-1.019,0.251-2.465,0.883-4.499,2.298c-3.491,2.428-3.332,5.328-2.671,7.227c1.28-1.6,2.582-2.408,3.882-2.408     c1.073,0,2.043,0.589,2.662,1.616c0.977,1.62,0.975,4.051-0.006,5.911c-1.128,2.139-4.243,1.798-6.543-0.66     c-0.022,0.044-0.045,0.088-0.067,0.133c-0.791,1.581-0.803,2.951-0.04,4.187c1.854,2.999,7.679,4.308,11.049,3.732     c-0.323-1.977-0.032-4.043,0.789-5.153c0.55-0.745,1.2-0.856,1.539-0.856c1.733,0,2.318,2.401,2.51,3.19     C138.603,264.945,137.894,266.487,136.247,267.432z M135.689,263.054c-0.111,0.509-0.174,1.194-0.109,1.955     c0.485-0.507,0.357-1.035,0.289-1.313C135.808,263.444,135.747,263.232,135.689,263.054z M143.124,262.169     c-0.187,0.058-0.219,0.316-0.051,0.694c0.091,0.203,0.375,0.724,1.037,1.134c0-0.649-0.113-1.194-0.332-1.524     c-0.137-0.204-0.272-0.254-0.387-0.275C143.296,262.179,143.206,262.169,143.124,262.169z M123.636,255.736     c0.976,1.252,2.138,1.981,2.811,1.981c0.175,0,0.278-0.038,0.391-0.252c0.679-1.286,0.544-2.81,0.074-3.59     c-0.19-0.315-0.407-0.475-0.642-0.475C125.734,253.4,124.786,254.028,123.636,255.736z M147.556,254.366     c-0.453,0-0.862,0.156-1.252,0.474c-0.081,0.067-0.152,0.128-0.214,0.184c0.546-0.03,1.291-0.197,2.093-0.565     C147.968,254.398,147.758,254.366,147.556,254.366z M141.056,245.423c-0.633,0.694-0.946,1.336-0.901,1.593     C140.398,246.884,140.759,246.229,141.056,245.423z"/>
			<circle style="fill:#ECD673;" cx="136.096" cy="254.279" r="7.111"/>
		</g>
		<g>
			<path style="fill:#9D7F95;" d="M191.456,210.815c0,0,7.59-14.232-6.466-15.862c-14.057-1.63-13.803,16.091-10.73,14.593     s5.177-11.983-12.277-7.179c-17.453,4.804-7.172,27.29-1.593,22.132c5.579-5.158,3.272-17.49-10.187-4.492     s20.396,30.231,21.615,18.131c1.218-12.101-10.855,3.537-2.629,12.008c8.226,8.471,20.119-8.737,14.39-12.087     c-5.729-3.35-6.494,10.48,7.588,9.562c14.082-0.918,8.737-23.08-0.548-19.723c-9.285,3.357,8.885,9.223,15.518-3.373     c6.633-12.596-2.827-15.199-9.786-17.072c-6.959-1.873-14.632,4.989-11.837,7.722     C187.308,217.908,191.456,210.815,191.456,210.815z"/>
			<path style="fill:#2B2330;" d="M175.684,241.721c-1.415,0-2.749-0.602-3.855-1.741c-1.177-1.212-1.866-2.733-2.023-4.446     c-4.089-0.585-9.413-3.879-11.03-7.956c-1.026-2.586-0.402-5.158,1.758-7.244c0.347-0.335,0.682-0.643,1.005-0.925     c-0.604-3.725,0.746-8.293,6.526-9.884c2.638-0.725,4.795-0.953,6.442-0.67c1.453-2.787,4.115-4.2,7.728-3.787     c2.529,0.293,4.309,1.249,5.293,2.843c1.01,1.638,0.961,3.585,0.58,5.269c0.496,0.038,0.977,0.12,1.438,0.244l0.907,0.236     c2.517,0.645,5.371,1.377,6.438,3.782c0.783,1.763,0.411,4.047-1.135,6.984c-1.167,2.217-2.806,3.479-4.256,4.196     c0.869,2.313,0.798,5.027-0.256,6.977c-1.04,1.923-2.951,3.07-5.383,3.229c-1.684,0.112-3.084-0.084-4.308-0.561     C180.23,240.014,178.108,241.721,175.684,241.721z M172.182,235.526c0.119,0.895,0.475,1.918,1.34,2.81     c1.88,1.934,4.446,0.656,6.002-1.3c-1.526-1.381-2.001-3.271-1.627-4.649c0.469-1.736,2.243-2.459,3.956-1.457     c0.691,0.405,1.164,1.042,1.368,1.845c0.247,0.969,0.081,2.172-0.452,3.419c0.827,0.255,1.798,0.352,2.936,0.279     c1.639-0.107,2.803-0.778,3.461-1.995c0.74-1.369,0.759-3.381,0.106-5.071c-0.717,0.16-1.452,0.243-2.169,0.243     c-2.405,0-4.111-0.864-4.346-2.202c-0.113-0.647,0.035-1.852,2.297-2.67c1.93-0.696,3.932-0.008,5.308,1.772     c1.116-0.535,2.395-1.497,3.304-3.223c1.171-2.224,1.529-3.883,1.066-4.927c-0.604-1.361-2.771-1.917-4.867-2.454l-0.934-0.243     c-0.496-0.133-1.036-0.212-1.589-0.189c-0.198,0.464-0.347,0.741-0.347,0.741c-0.511,0.875-2.263,3.598-4.325,3.598l0,0     c-0.626,0-1.208-0.245-1.683-0.71c-0.648-0.634-0.851-1.492-0.554-2.356c0.532-1.558,2.696-2.97,5.193-3.456     c0.364-1.222,0.649-2.955-0.108-4.181c-0.585-0.948-1.782-1.533-3.557-1.739c-2.877-0.333-4.459,0.945-5.255,2.334     c0.854,0.643,1.352,1.567,1.404,2.655c0.073,1.491-0.742,3.04-1.895,3.603c-0.161,0.08-0.552,0.174-0.732,0.174     c-0.551,0-1.045-0.275-1.391-0.774c-0.619-0.89-0.751-2.585-0.395-4.277c-1.245-0.115-2.957,0.108-5.007,0.673     c-4.103,1.129-4.916,3.917-4.924,5.928c2.947-1.828,5.405-1.359,6.249,0.796c0.746,1.905-0.023,4.572-1.787,6.204     c-0.544,0.504-1.195,0.769-1.884,0.769c-1.721,0-3.189-1.611-4.058-3.574c-0.038,0.036-0.076,0.073-0.114,0.108     c-1.488,1.437-1.881,2.966-1.203,4.676c1.244,3.134,5.641,5.905,8.95,6.458c0.456-2.52,1.932-4.99,3.63-4.99     c0.485,0,0.936,0.203,1.269,0.57c0.576,0.637,0.766,1.708,0.599,3.369C175.232,233.96,174.048,235.182,172.182,235.526z      M180.259,232.816c-0.036,0.029-0.152,0.262-0.118,0.674c0.017,0.22,0.112,0.806,0.599,1.413     c0.217-0.611,0.292-1.163,0.194-1.547c-0.06-0.237-0.171-0.33-0.272-0.388C180.471,232.856,180.328,232.816,180.259,232.816z      M173.115,231.133c-0.254,0.439-0.553,1.09-0.754,1.873c0.627-0.318,0.68-0.849,0.708-1.128     C173.099,231.581,173.111,231.336,173.115,231.133z M185.594,227.101c0.475,0.137,1.283,0.239,2.156,0.161     c-0.504-0.357-1.167-0.524-1.892-0.264C185.76,227.034,185.672,227.068,185.594,227.101z M164.182,220.3     c0.584,1.753,1.611,2.836,2.162,2.836c0.039,0,0.129,0,0.282-0.142c1.127-1.042,1.533-2.739,1.192-3.611     c-0.129-0.33-0.324-0.458-0.694-0.458C166.694,218.926,165.77,219.116,164.182,220.3z M184.039,216.372     c-0.826,0.444-1.335,0.944-1.377,1.201C182.938,217.524,183.494,217.028,184.039,216.372z"/>
			<circle style="fill:#ECD673;" cx="176.418" cy="223.072" r="7.111"/>
		</g>
		<g>
			<path style="fill:#D17D92;" d="M128.689,302.939c0,0,31.632,23.314,47.087-5.911c8.324-15.741-29.152-38.626-33.184-31.939     c-4.032,6.687,7.494,18.715,8.103,15.089s-22.493-12.233-20.83,1.684c1.663,13.917,19.563,21.014,14.633,14.641     C139.569,290.129,121.014,287.467,128.689,302.939z"/>
			<path style="fill:#2B2330;" d="M138.611,307.325c-0.673,0-1.111-0.199-1.297-0.305c-0.566-0.324-0.763-1.044-0.439-1.61     c0.308-0.543,0.978-0.745,1.536-0.478c0.584,0.18,2.805-0.431,6.169-5.343c0.666-0.974,1.132-1.967,1.441-2.941     c-0.751-0.354-1.401-0.814-1.927-1.321c-1.998-1.925-2.598-4.689-1.528-7.044c0.696-1.53,1.731-1.796,2.286-1.816     c1.127-0.028,2.119,0.7,2.886,2.089c0.883,1.597,1.359,3.914,1.051,6.434c1.114,0.092,2.31-0.167,3.509-0.768     c2.334-1.167,3.136-5.082,2.946-8.596c-2.335-0.672-4.147-2.169-4.632-3.897c-0.352-1.25,0.029-2.492,1.042-3.403     c1.155-1.041,2.223-0.811,2.76-0.582c1.69,0.724,2.613,3.279,2.998,5.879c2.056,0.136,5.843-0.391,9.397-5.127     c0.391-0.521,1.131-0.627,1.652-0.236c0.522,0.391,0.628,1.131,0.236,1.651c-4.012,5.349-8.423,6.182-11.075,6.086     c0.001,0.002,0.001,0.003,0.001,0.006c0.151,5.057-1.445,8.919-4.269,10.331c-1.842,0.922-3.561,1.163-5.065,0.972     c-0.379,1.212-0.953,2.435-1.761,3.615C142.84,306.31,140.129,307.325,138.611,307.325z M144.926,288.827     c0.032,0.023-0.083,0.15-0.212,0.433c-0.65,1.431-0.25,3.145,1.018,4.367c0.236,0.228,0.49,0.429,0.757,0.6     c0.111-1.502-0.118-2.848-0.5-3.845C145.552,289.245,145.054,288.874,144.926,288.827z M153.477,279.911     c0.001,0.003-0.085,0.028-0.243,0.169c-0.447,0.402-0.421,0.751-0.348,1.011c0.174,0.62,0.895,1.367,2.012,1.892     C154.456,280.959,153.761,279.984,153.477,279.911z"/>
		</g>
		<g>
			<path style="fill:#D17D92;" d="M153.867,263.526c0,0,18.028,34.916,44.832,15.564c14.437-10.423-9.02-47.544-15.598-43.336     c-6.578,4.208-1.574,20.098,0.579,17.117c2.152-2.98-14.744-20.933-19.42-7.72c-4.675,13.213,8.227,27.507,6.632,19.609     C169.296,256.863,153.841,246.255,153.867,263.526z"/>
			<path style="fill:#2B2330;" d="M162.927,272.288c-2.097,0-2.92-0.961-3.136-1.282c-0.364-0.541-0.221-1.275,0.319-1.638     c0.52-0.35,1.212-0.234,1.589,0.251c0.447,0.424,2.703,0.861,7.899-2.057c1.027-0.577,1.885-1.261,2.593-1.997     c-0.516-0.65-0.895-1.35-1.142-2.038c-0.938-2.61-0.251-5.356,1.751-6.992c1.303-1.064,2.349-0.844,2.855-0.615     c0.999,0.446,1.589,1.565,1.662,3.152c0.084,1.823-0.516,4.111-1.908,6.234c0.955,0.568,2.186,0.891,3.485,0.867     c2.609-0.012,5.064-3.167,6.45-6.402c-1.796-1.637-2.756-3.78-2.426-5.543c0.24-1.278,1.129-2.223,2.442-2.592     c1.495-0.418,2.352,0.26,2.731,0.702c1.195,1.397,0.891,4.097,0.084,6.599c1.785,1.046,5.412,2.24,10.696-0.434     c0.581-0.297,1.288-0.061,1.586,0.521c0.294,0.581,0.061,1.291-0.521,1.586c-5.969,3.015-10.293,1.806-12.625,0.549     c-0.001,0.002-0.002,0.006-0.003,0.008c-2.106,4.6-5.246,7.354-8.403,7.368c-0.018,0-0.037,0-0.054,0     c-2.036,0-3.666-0.546-4.916-1.373c-0.877,0.919-1.934,1.76-3.181,2.461C167.101,271.672,164.606,272.288,162.927,272.288z      M174.675,258.069c0.02,0.036-0.141,0.098-0.381,0.295c-1.217,0.995-1.619,2.708-1.023,4.367c0.112,0.309,0.25,0.6,0.413,0.874     c0.766-1.298,1.157-2.606,1.256-3.669C175.051,258.722,174.768,258.168,174.675,258.069z M186.263,253.864     c-0.04,0-0.126,0.005-0.265,0.044c-0.58,0.162-0.711,0.487-0.761,0.753c-0.118,0.633,0.197,1.622,0.966,2.588     c0.502-2.012,0.31-3.195,0.088-3.385C186.289,253.862,186.279,253.863,186.263,253.864z"/>
		</g>
		<g>
			<path style="fill:#D17D92;" d="M193.665,235.978c0,0,4.781,39.004,36.637,30.164c17.158-4.761,8.052-47.718,0.422-46.056     s-8.455,18.301-5.402,16.253c3.053-2.047-6.558-24.75-15.53-13.983c-8.973,10.767-1.837,28.652-0.59,20.691     S199.638,219.773,193.665,235.978z"/>
			<path style="fill:#2B2330;" d="M217.431,249.714c-0.71,0-1.389-0.114-2.025-0.346c-1.936-0.706-3.29-1.794-4.185-3.014     c-1.141,0.557-2.424,0.978-3.837,1.202c-9.3,1.468-10.598-1.83-10.762-2.508c-0.153-0.633,0.235-1.271,0.869-1.424     c0.605-0.148,1.216,0.202,1.403,0.788c0.272,0.553,2.231,1.744,8.121,0.814c1.164-0.184,2.207-0.529,3.126-0.973     c-0.258-0.789-0.37-1.578-0.363-2.308c0.027-2.774,1.624-5.109,4.069-5.948c1.59-0.544,2.495,0.025,2.892,0.415     c0.781,0.764,0.946,2.019,0.463,3.532c-0.554,1.739-1.912,3.675-3.955,5.183c0.698,0.864,1.707,1.564,2.968,2.024     c2.45,0.891,5.85-1.212,8.272-3.764c-1.116-2.159-1.271-4.503-0.349-6.042c0.667-1.114,1.823-1.68,3.189-1.581     c1.548,0.126,2.116,1.061,2.318,1.608c0.635,1.724-0.588,4.15-2.213,6.216c1.312,1.601,4.295,3.973,10.181,3.308     c0.651-0.096,1.232,0.391,1.306,1.038c0.075,0.648-0.391,1.232-1.038,1.306c-6.643,0.757-10.278-1.88-12.029-3.869     c-0.001,0.001-0.003,0.003-0.006,0.006C223.04,248.19,220.031,249.714,217.431,249.714z M215.074,238.087     c0.006,0.039-0.166,0.043-0.461,0.144c-1.486,0.509-2.457,1.976-2.474,3.737c-0.003,0.33,0.025,0.651,0.083,0.963     c1.169-0.951,1.99-2.042,2.451-3.004C215.199,238.829,215.127,238.212,215.074,238.087z M226.995,238.111     c-0.497,0-0.705,0.235-0.832,0.447c-0.331,0.551-0.379,1.588,0.007,2.762c1.169-1.713,1.399-2.888,1.256-3.144l0,0     c-0.007,0-0.085-0.044-0.29-0.06C227.086,238.112,227.039,238.111,226.995,238.111z"/>
		</g>
		<g>
			<path style="fill:#2B2330;" d="M297.683,295.192c-0.335,0-0.667-0.142-0.901-0.417c-0.422-0.497-0.361-1.241,0.137-1.663     c1.273-1.081,0.91-5.047,0.245-7.518c-0.169-0.629,0.204-1.277,0.832-1.446c0.633-0.172,1.277,0.202,1.447,0.831     c0.204,0.756,1.913,7.462-0.999,9.933C298.223,295.1,297.953,295.192,297.683,295.192z"/>
			<path style="fill:#2B2330;" d="M303.374,284.442c-0.334,0-0.666-0.142-0.9-0.416c-0.422-0.498-0.361-1.242,0.136-1.664     c1.4-1.188,0.771-5.578,0.247-7.518c-0.169-0.629,0.203-1.277,0.832-1.447c0.625-0.165,1.276,0.203,1.448,0.832     c0.204,0.756,1.912,7.462-0.998,9.933C303.916,284.35,303.645,284.442,303.374,284.442z"/>
			<path style="fill:#2B2330;" d="M301.365,310.862c-0.335,0-0.667-0.142-0.901-0.417c-0.422-0.497-0.361-1.241,0.137-1.663     c1.399-1.187,0.77-5.577,0.245-7.516c-0.169-0.629,0.203-1.277,0.832-1.448c0.621-0.168,1.277,0.202,1.448,0.832     c0.204,0.756,1.912,7.462-0.999,9.932C301.906,310.77,301.635,310.862,301.365,310.862z"/>
			<path style="fill:#2B2330;" d="M289.118,315.077c-0.335,0-0.667-0.142-0.901-0.417c-0.422-0.497-0.361-1.241,0.137-1.663     c1.273-1.081,0.91-5.047,0.245-7.518c-0.169-0.629,0.204-1.277,0.832-1.446c0.635-0.172,1.277,0.202,1.448,0.831     c0.204,0.756,1.913,7.462-0.999,9.933C289.658,314.985,289.387,315.077,289.118,315.077z"/>
			<path style="fill:#2B2330;" d="M296.988,325.539c-0.335,0-0.667-0.142-0.901-0.417c-0.422-0.497-0.361-1.241,0.137-1.663     c1.273-1.081,0.91-5.047,0.245-7.518c-0.169-0.629,0.204-1.277,0.832-1.446c0.636-0.173,1.277,0.202,1.448,0.831     c0.204,0.756,1.913,7.462-0.999,9.933C297.529,325.447,297.258,325.539,296.988,325.539z"/>
			<path style="fill:#2B2330;" d="M289.732,298.191c-0.335,0-0.667-0.142-0.901-0.417c-0.422-0.497-0.361-1.241,0.137-1.663     c1.273-1.081,0.91-5.047,0.245-7.518c-0.169-0.629,0.204-1.277,0.832-1.446c0.635-0.171,1.277,0.201,1.447,0.831     c0.204,0.756,1.913,7.462-0.999,9.933C290.273,298.099,290.002,298.191,289.732,298.191z"/>
			<path style="fill:#2B2330;" d="M294.54,280.46c-0.335,0-0.667-0.142-0.901-0.417c-0.422-0.497-0.361-1.241,0.137-1.663     c1.273-1.081,0.91-5.047,0.245-7.518c-0.169-0.629,0.204-1.277,0.832-1.446c0.634-0.172,1.277,0.202,1.448,0.831     c0.204,0.756,1.913,7.462-0.999,9.933C295.081,280.368,294.81,280.46,294.54,280.46z"/>
		</g>
		<g>
			<path style="fill:#2B2330;" d="M348.022,378.365c-0.237,0-0.478-0.071-0.687-0.221c-0.529-0.379-0.651-1.117-0.271-1.647     c0.974-1.358-0.34-5.117-1.585-7.353c-0.316-0.569-0.112-1.287,0.458-1.604c0.569-0.319,1.287-0.115,1.604,0.455     c0.383,0.685,3.666,6.774,1.441,9.878C348.751,378.194,348.389,378.365,348.022,378.365z"/>
			<path style="fill:#2B2330;" d="M350.938,366.555c-0.239,0-0.478-0.071-0.687-0.221c-0.529-0.38-0.651-1.117-0.271-1.647     c1.071-1.491-0.605-5.598-1.583-7.352c-0.318-0.569-0.114-1.288,0.455-1.605c0.568-0.317,1.288-0.113,1.605,0.455     c0.383,0.685,3.666,6.777,1.441,9.878C351.667,366.385,351.305,366.555,350.938,366.555z"/>
			<path style="fill:#2B2330;" d="M355.392,392.676c-0.237,0-0.478-0.071-0.687-0.221c-0.529-0.379-0.651-1.117-0.271-1.647     c1.071-1.492-0.604-5.599-1.582-7.353c-0.318-0.569-0.114-1.288,0.455-1.605c0.57-0.318,1.29-0.115,1.605,0.455     c0.381,0.685,3.665,6.775,1.439,9.879C356.121,392.506,355.759,392.676,355.392,392.676z"/>
			<path style="fill:#2B2330;" d="M344.532,399.733c-0.237,0-0.478-0.071-0.687-0.221c-0.529-0.379-0.651-1.117-0.271-1.647     c1.071-1.492-0.604-5.599-1.582-7.353c-0.318-0.569-0.114-1.288,0.455-1.605c0.57-0.317,1.287-0.115,1.605,0.455     c0.381,0.685,3.665,6.775,1.439,9.879C345.262,399.562,344.9,399.733,344.532,399.733z"/>
			<path style="fill:#2B2330;" d="M354.704,407.975c-0.237,0-0.478-0.071-0.687-0.221c-0.529-0.379-0.651-1.117-0.271-1.647     c0.974-1.358-0.34-5.117-1.585-7.354c-0.316-0.569-0.112-1.287,0.458-1.604c0.572-0.318,1.288-0.114,1.604,0.455     c0.383,0.685,3.666,6.775,1.441,9.879C355.433,407.805,355.071,407.975,354.704,407.975z"/>
			<path style="fill:#2B2330;" d="M341.034,383.202c-0.239,0-0.478-0.071-0.687-0.221c-0.529-0.38-0.651-1.117-0.271-1.647     c1.071-1.491-0.605-5.598-1.583-7.352c-0.318-0.569-0.114-1.288,0.455-1.605c0.569-0.318,1.287-0.115,1.605,0.455     c0.383,0.685,3.666,6.777,1.441,9.878C341.764,383.031,341.402,383.202,341.034,383.202z"/>
			<path style="fill:#2B2330;" d="M341.401,364.834c-0.239,0-0.478-0.071-0.687-0.221c-0.529-0.38-0.651-1.117-0.271-1.647     c1.071-1.491-0.604-5.598-1.582-7.352c-0.318-0.569-0.114-1.288,0.455-1.605c0.569-0.317,1.288-0.114,1.605,0.455     c0.383,0.685,3.665,6.777,1.439,9.878C342.13,364.663,341.768,364.834,341.401,364.834z"/>
		</g>
		<g>
			<path style="fill:#2B2330;" d="M144.309,349.14c-0.163,0-0.328-0.033-0.488-0.106c-0.594-0.27-0.855-0.969-0.585-1.563     c0.691-1.52-1.329-4.953-2.984-6.904c-0.422-0.497-0.362-1.241,0.135-1.663c0.5-0.421,1.245-0.36,1.663,0.135     c0.508,0.597,4.915,5.933,3.334,9.41C145.187,348.883,144.758,349.14,144.309,349.14z"/>
			<path style="fill:#2B2330;" d="M144.871,336.99c-0.163,0-0.328-0.033-0.486-0.106c-0.594-0.27-0.856-0.969-0.587-1.562     c0.69-1.521-1.33-4.954-2.985-6.906c-0.421-0.497-0.36-1.241,0.136-1.663c0.5-0.423,1.245-0.36,1.663,0.135     c0.508,0.597,4.914,5.933,3.334,9.409C145.749,336.733,145.321,336.99,144.871,336.99z"/>
			<path style="fill:#2B2330;" d="M154.324,361.744c-0.162,0-0.328-0.033-0.486-0.106c-0.594-0.27-0.856-0.969-0.587-1.562     c0.69-1.521-1.33-4.953-2.984-6.904c-0.422-0.497-0.362-1.241,0.135-1.663c0.499-0.421,1.244-0.361,1.663,0.135     c0.508,0.597,4.914,5.932,3.334,9.408C155.202,361.487,154.773,361.744,154.324,361.744z"/>
			<path style="fill:#2B2330;" d="M145.044,370.779c-0.163,0-0.328-0.033-0.488-0.106c-0.594-0.27-0.855-0.969-0.585-1.563     c0.691-1.52-1.329-4.953-2.984-6.904c-0.422-0.497-0.362-1.241,0.135-1.663c0.5-0.423,1.242-0.36,1.663,0.135     c0.508,0.597,4.915,5.933,3.334,9.41C145.922,370.522,145.493,370.779,145.044,370.779z"/>
			<path style="fill:#2B2330;" d="M156.625,376.884c-0.162,0-0.328-0.033-0.487-0.106c-0.594-0.27-0.855-0.969-0.585-1.563     c0.759-1.671-1.683-5.373-2.984-6.903c-0.422-0.497-0.362-1.241,0.135-1.663c0.493-0.422,1.241-0.363,1.663,0.135     c0.508,0.597,4.914,5.933,3.334,9.409C157.503,376.627,157.075,376.884,156.625,376.884z"/>
			<path style="fill:#2B2330;" d="M138.396,355.244c-0.162,0-0.328-0.033-0.487-0.106c-0.594-0.27-0.855-0.969-0.585-1.563     c0.759-1.671-1.683-5.373-2.984-6.903c-0.422-0.497-0.362-1.241,0.135-1.663c0.492-0.422,1.242-0.363,1.663,0.135     c0.508,0.597,4.914,5.933,3.334,9.409C139.275,354.987,138.846,355.244,138.396,355.244z"/>
			<path style="fill:#2B2330;" d="M135.182,337.156c-0.163,0-0.328-0.033-0.488-0.106c-0.594-0.27-0.855-0.969-0.585-1.563     c0.759-1.671-1.683-5.373-2.984-6.903c-0.422-0.497-0.362-1.241,0.135-1.663c0.494-0.423,1.24-0.365,1.663,0.135     c0.508,0.597,4.914,5.933,3.334,9.409C136.06,336.899,135.632,337.156,135.182,337.156z"/>
		</g>
		<path style="fill:#2B2330;" d="M219.476,153.864c-3.757,0-6.66-1.217-8.745-2.6c-1.405,1.27-3.252,2.084-5.453,2.084    c-4.996,0-9.435-2.353-11.309-5.995c-1.681-3.267-1.126-7.14,1.564-10.905c0.38-0.53,1.117-0.652,1.646-0.274    c0.53,0.378,0.653,1.116,0.274,1.646c-2.18,3.054-2.66,5.977-1.385,8.452c1.474,2.865,5.089,4.716,9.211,4.716    c1.445,0,2.625-0.471,3.551-1.201c-0.833-0.754-1.421-1.444-1.772-1.897c-2.187-2.825-2.966-6.031-1.94-7.979    c0.371-0.704,1.286-1.884,3.436-1.74c3.236,0.19,5.338,2.749,5.232,6.369c-0.05,1.706-0.58,3.434-1.519,4.904    c2.444,1.541,6.138,2.768,11.169,1.577c3.274-0.776,5.52-2.176,6.551-4.037c-3.139,0.199-5.678-0.471-7.042-1.868    c-0.738-0.755-2.193-2.858,0.219-6.074c1.375-1.832,3.297-2.47,5.277-1.741c2.523,0.925,4.413,3.845,4.541,6.862    c2.736-0.67,5.829-2.001,8.868-4.171c0.408-0.292,0.787-0.576,1.139-0.854c-1.679-0.67-2.905-1.775-3.349-3.085    c-0.413-1.215-0.122-2.458,0.817-3.501c1.532-1.7,3.963-2.435,6.045-1.834c1.443,0.417,2.44,1.46,2.667,2.79    c0.161,0.942-0.015,2.236-1.142,3.869c2.185-0.282,5.183-1.382,8.023-4.792c1.715-2.057,2.326-4.043,1.867-6.074    c-1.179-5.231-8.987-8.889-9.065-8.925c-0.592-0.273-0.851-0.975-0.577-1.566c0.273-0.591,0.976-0.847,1.566-0.577    c0.365,0.168,8.947,4.195,10.379,10.55c0.621,2.756-0.171,5.481-2.356,8.104c-3.323,3.986-7.718,6.06-12.002,5.698    c-0.726,0.667-1.597,1.373-2.64,2.117c-3.527,2.519-7.235,4.047-10.553,4.714c-0.673,2.208-2.707,5.275-8.688,6.691    C222.361,153.7,220.86,153.864,219.476,153.864z M208.244,140.522c-0.781,0-0.967,0.353-1.041,0.491    c-0.489,0.927-0.052,3.145,1.719,5.432c0.289,0.375,0.77,0.938,1.447,1.556c0.678-1.139,1.022-2.426,1.055-3.53    c0.027-0.883-0.114-3.773-3.011-3.944C208.355,140.523,208.298,140.522,208.244,140.522z M226.874,139.374    c-0.672,0-1.284,0.362-1.824,1.082c-0.967,1.291-1.109,2.304-0.418,3.009c0.967,0.99,3.172,1.45,5.995,1.124    c0.05-2.367-1.481-4.517-3-5.073C227.368,139.422,227.117,139.374,226.874,139.374z M245.032,132.877    c-0.935,0-2.038,0.38-2.824,1.253c-0.476,0.529-0.419,0.919-0.337,1.165c0.24,0.706,1.331,1.62,3.169,2.001    c1.445-1.513,1.919-2.682,1.798-3.391c-0.093-0.55-0.594-0.804-0.996-0.921C245.599,132.914,245.324,132.877,245.032,132.877z"/>
	</g>
	<g>
		<path style="fill:#86B98A;" d="M391.193,501.118c0,0,104.689,2.852,108.651-2.754s-6.525-40.179-14.294-34.677    c-7.769,5.503-11.991,20.627-11.991,20.627s-16.353-29.018-20.315-23.412s-13.843,18.671-13.843,18.671    s-3.185-22.945-11.006-15.539c-7.821,7.406-13.739,14.864-13.739,14.864s-8.895-23.1-12.909-15.59    C397.733,470.819,391.193,501.118,391.193,501.118z"/>
		<path style="fill:#2B2330;" d="M484.733,498.875c-0.252,0-0.507-0.081-0.723-0.248c-0.515-0.4-0.608-1.141-0.209-1.656    c2.263-2.917,2.482-13.78,2.375-17.72c-0.017-0.651,0.497-1.194,1.148-1.212c0.643,0.007,1.194,0.496,1.212,1.148    c0.042,1.536,0.317,15.125-2.871,19.232C485.433,498.718,485.085,498.875,484.733,498.875z"/>
		<path style="fill:#2B2330;" d="M456.125,498.626c-0.381,0-0.756-0.184-0.983-0.526c-0.362-0.543-0.214-1.276,0.327-1.637    c2.771-1.845,3.144-14.693,2.525-23.227c-0.047-0.65,0.441-1.215,1.091-1.262c0.638-0.044,1.216,0.441,1.262,1.091    c0.266,3.661,1.343,22.091-3.569,25.361C456.577,498.562,456.349,498.626,456.125,498.626z"/>
		<path style="fill:#2B2330;" d="M426.477,497.553c-0.07,0-0.141-0.006-0.212-0.02c-0.642-0.116-1.067-0.731-0.95-1.371    c0.024-0.136,2.462-13.636,2.106-19.265c-0.042-0.651,0.453-1.211,1.103-1.253c0.621-0.048,1.211,0.453,1.253,1.103    c0.375,5.916-2.036,19.27-2.14,19.836C427.534,497.155,427.038,497.553,426.477,497.553z"/>
		<path style="fill:#2B2330;" d="M405.566,496.719c-0.462,0-0.902-0.274-1.09-0.728c-0.219-0.529-5.346-13.056-3.197-21.497    c0.16-0.632,0.801-1.021,1.435-0.852c0.632,0.16,1.013,0.803,0.852,1.435c-1.955,7.677,3.04,19.888,3.091,20.01    c0.249,0.603-0.037,1.293-0.638,1.542C405.87,496.69,405.717,496.719,405.566,496.719z"/>
	</g>
	<g>
		<path style="fill:#86B98A;" d="M56.983,505.132c0,0,104.689,2.852,108.651-2.754c3.962-5.607-6.525-40.179-14.294-34.677    c-7.769,5.503-11.991,20.627-11.991,20.627s-16.353-29.018-20.315-23.412c-3.962,5.607-13.843,18.671-13.843,18.671    s-3.185-22.945-11.006-15.539s-13.739,14.864-13.739,14.864s-8.895-23.1-12.909-15.59    C63.523,474.832,56.983,505.132,56.983,505.132z"/>
		<path style="fill:#2B2330;" d="M150.523,502.889c-0.252,0-0.507-0.081-0.723-0.248c-0.515-0.4-0.609-1.141-0.209-1.656    c2.263-2.917,2.482-13.78,2.375-17.72c-0.017-0.651,0.497-1.194,1.148-1.212c0.645,0.009,1.193,0.496,1.212,1.148    c0.041,1.536,0.317,15.125-2.871,19.232C151.223,502.733,150.875,502.889,150.523,502.889z"/>
		<path style="fill:#2B2330;" d="M121.915,502.639c-0.381,0-0.756-0.184-0.983-0.527c-0.362-0.542-0.214-1.275,0.328-1.635    c2.767-1.843,3.142-14.692,2.524-23.227c-0.047-0.65,0.441-1.215,1.091-1.262c0.636-0.052,1.216,0.441,1.262,1.091    c0.266,3.661,1.343,22.092-3.57,25.361C122.367,502.576,122.14,502.639,121.915,502.639z"/>
		<path style="fill:#2B2330;" d="M92.268,501.567c-0.07,0-0.141-0.006-0.212-0.02c-0.642-0.116-1.067-0.731-0.95-1.371    c0.024-0.136,2.462-13.636,2.106-19.265c-0.041-0.651,0.453-1.211,1.103-1.253c0.635-0.029,1.211,0.452,1.253,1.103    c0.375,5.916-2.036,19.27-2.14,19.836C93.324,501.169,92.828,501.567,92.268,501.567z"/>
		<path style="fill:#2B2330;" d="M71.356,500.732c-0.462,0-0.902-0.274-1.09-0.728c-0.219-0.529-5.346-13.055-3.197-21.497    c0.161-0.632,0.799-1.019,1.435-0.852c0.632,0.16,1.013,0.803,0.852,1.435c-1.955,7.678,3.04,19.888,3.091,20.01    c0.249,0.603-0.037,1.293-0.638,1.542C71.66,500.703,71.507,500.732,71.356,500.732z"/>
	</g>
</g>















</svg>
