<?xml version="1.0" encoding="UTF-8"?>
<!-- Generator: Adobe Illustrator 25.2.1, SVG Export Plug-In . SVG Version: 6.00 Build 0)  -->
<svg xmlns="http://www.w3.org/2000/svg" xmlns:xlink="http://www.w3.org/1999/xlink" version="1.1" id="Capa_1" x="0px" y="0px" viewBox="0 0 512 512" style="enable-background:new 0 0 512 512;" xml:space="preserve" width="512" height="512">
<g>
	<g>
		<g>
			<path style="fill:#FFFFFF;" d="M402.241,134.754c0,0-14.446,2.462-12.497,11.456c1.949,8.994,20.232-3.035,13.938-4.771     c-2.716-0.749-4.366,13.17,2.246,14.376S416.528,132.901,402.241,134.754z"/>
			<path style="fill:#2B2330;" d="M406.407,156.997L406.407,156.997c-0.225,0-0.453-0.02-0.682-0.062     c-3.653-0.666-5.196-4.397-5.5-8.024c-2.151,1.106-4.376,1.739-6.205,1.739c-2.887,0-4.8-1.49-5.387-4.2     c-0.494-2.283-0.104-4.391,1.16-6.261c3.372-4.993,11.896-6.496,12.257-6.558c0.625-0.082,1.177-0.118,1.703-0.118     c3.372,0,6.009,1.479,7.622,4.273c2.702,4.682,1.869,11.92-0.454,15.942C409.705,155.836,408.101,156.997,406.407,156.997z      M402.44,147.578c0.007,3.096,0.961,6.62,3.692,7.118c1.256,0.249,2.324-1.248,2.821-2.105c2.014-3.491,2.677-9.814,0.453-13.667     c-1.405-2.434-3.739-3.469-7.018-3.043c-0.033,0.007-7.889,1.399-10.712,5.586c-0.915,1.355-1.183,2.827-0.819,4.504     c0.355,1.641,1.36,2.405,3.164,2.405c1.737,0,4.068-0.78,6.19-2.059c0.205-2.916,1.154-6.045,3.261-6.045     c0.102,0,0.414,0.042,0.513,0.069c1.639,0.453,2.032,1.481,2.121,2.052C406.422,144.456,403.955,146.521,402.44,147.578z      M403.538,142.584c-0.197,0.215-0.497,0.813-0.735,1.766c0.825-0.828,1.084-1.428,1.054-1.608l0,0     C403.85,142.741,403.775,142.666,403.538,142.584z"/>
		</g>
		<g>
			<path style="fill:#FFFFFF;" d="M402.909,126.125c0,0-8.001-12.08,0.024-16.801s11.515,16.638,5.936,13.287     c-2.407-1.446,6.837-12.111,12.237-8.171C426.505,118.381,411.257,137.676,402.909,126.125z"/>
			<path style="fill:#2B2330;" d="M409.285,130.899c-2.832,0-5.355-1.421-7.298-4.109c-0.224-0.338-4.864-7.431-3.519-13.252     c0.515-2.232,1.823-3.98,3.889-5.195c0.949-0.56,1.908-0.842,2.849-0.842c3.388,0,5.761,3.533,6.863,7.524     c1.556-1.217,3.859-2.592,6.32-2.592c1.259,0,2.4,0.366,3.388,1.086c1.619,1.182,2.027,3.318,1.147,6.016     C421.375,124.281,415.439,130.899,409.285,130.899z M405.206,109.777c-0.531,0-1.102,0.178-1.697,0.526     c-1.527,0.899-2.451,2.125-2.826,3.747c-1.127,4.879,3.13,11.382,3.174,11.446c1.492,2.063,3.327,3.129,5.428,3.129     c4.665,0,10-5.264,11.475-9.794c0.319-0.975,0.7-2.725-0.325-3.471c-1.909-1.397-4.989-0.415-7.846,2.199     c0.209,1.568,0.352,4.282-0.842,5.694c-0.829,0.982-2.125,1.137-3.462,0.333c-0.523-0.313-0.852-0.837-0.927-1.475     c-0.187-1.586,1.249-3.722,2.791-5.343C409.427,113.281,407.525,109.777,405.206,109.777z M409.616,121.725     c0.205,0.102,0.313,0.109,0.336,0.107c0.181-0.093,0.439-0.713,0.494-1.843C409.903,120.788,409.648,121.412,409.616,121.725z"/>
		</g>
		<path style="fill:#ECD673;" d="M413.195,136.699c0,0,1.75,8.16,8.803,8.874c7.054,0.714,14.538-1.703,13.923-6.758    c-0.616-5.054-5.624-11.561-12.844-10.813C415.857,128.749,412.388,134.354,413.195,136.699z"/>
		<g>
			<path style="fill:#FFFFFF;" d="M416.717,143.088c0,0,4.266-12.27,3.582-14.512"/>
			<path style="fill:#2B2330;" d="M416.716,144.225c-0.124,0-0.25-0.02-0.373-0.062c-0.593-0.207-0.907-0.855-0.701-1.448     c1.984-5.71,3.913-12.61,3.569-13.807c-0.172-0.6,0.169-1.235,0.767-1.412c0.601-0.178,1.227,0.153,1.409,0.751     c0.733,2.407-2.568,12.255-3.598,15.215C417.627,143.932,417.187,144.225,416.716,144.225z"/>
		</g>
		<g>
			<path style="fill:#FFFFFF;" d="M422.653,145.41c0,0,4.542-14.466,3.648-17.31"/>
			<path style="fill:#2B2330;" d="M422.652,146.546c-0.112,0-0.228-0.016-0.341-0.053c-0.599-0.187-0.932-0.826-0.744-1.424     c1.842-5.865,4.192-14.902,3.649-16.63c-0.188-0.597,0.145-1.237,0.744-1.424c0.603-0.193,1.237,0.144,1.426,0.744     c0.953,3.032-2.873,15.517-3.649,17.989C423.585,146.235,423.137,146.546,422.652,146.546z"/>
		</g>
		<path style="fill:#2B2330;" d="M386.59,136.934c-0.252,0-0.506-0.084-0.717-0.255c-0.487-0.398-0.56-1.115-0.162-1.601    c6.217-7.618,15.049-4.448,15.135-4.415c0.587,0.22,0.886,0.871,0.668,1.459c-0.217,0.589-0.867,0.895-1.459,0.673    c-0.3-0.109-7.411-2.616-12.584,3.722C387.247,136.791,386.919,136.934,386.59,136.934z"/>
		<g>
			<path style="fill:#FFFFFF;" d="M428.38,144.269c0,0,4.146-10.305,2.888-13.67"/>
			<path style="fill:#2B2330;" d="M428.38,145.406c-0.142,0-0.285-0.027-0.424-0.082c-0.583-0.235-0.865-0.897-0.631-1.479     c1.539-3.827,3.681-10.698,2.877-12.848c-0.22-0.586,0.078-1.241,0.666-1.464c0.587-0.218,1.244,0.08,1.464,0.668     c1.375,3.671-2.456,13.394-2.897,14.491C429.256,145.138,428.83,145.406,428.38,145.406z"/>
		</g>
		<path style="fill:#2B2330;" d="M401.731,130.628c-0.081,0-0.163-0.009-0.247-0.027c-11.133-2.459-11.24-11.415-11.24-11.504    c0.001-0.629,0.511-1.135,1.137-1.135h0.003c0.625,0.002,1.133,0.509,1.134,1.135l0,0c0.002,0.293,0.162,7.231,9.457,9.283    c0.613,0.135,1.001,0.742,0.865,1.355C402.722,130.266,402.252,130.628,401.731,130.628z"/>
	</g>
	<g>
		<g>
			<path style="fill:#FFFFFF;" d="M144.229,431.109c0,0,12.805-7.126,7.976-14.96c-4.829-7.834-18.072,9.591-11.558,9.135     c2.811-0.197-0.262-13.872-6.898-12.811S131.371,437.607,144.229,431.109z"/>
			<path style="fill:#2B2330;" d="M140.022,433.356c-0.001,0-0.001,0-0.001,0c-6.169,0-9.927-6.692-10.452-13.303     c-0.384-4.837,1.186-8.253,4-8.704c3.666-0.582,6.362,2.392,7.855,5.734c2.052-2.176,4.79-4.1,7.438-4.1     c1.245,0,3.003,0.446,4.312,2.567c1.226,1.99,1.558,4.109,0.987,6.294c-1.521,5.828-9.059,10.078-9.379,10.256     C143.122,432.943,141.534,433.356,140.022,433.356z M134.478,413.552c-0.179,0-0.362,0.013-0.549,0.044     c-1.507,0.24-2.367,2.821-2.093,6.276c0.432,5.435,3.447,11.209,8.185,11.209h0.001c1.153,0,2.395-0.331,3.694-0.988     c0.03-0.018,6.974-3.942,8.246-8.828c0.412-1.581,0.174-3.06-0.725-4.52c-1.952-3.171-6.293-0.422-8.938,2.783     c0.584,2.132,0.836,4.673-0.069,5.996c-0.363,0.533-0.897,0.851-1.505,0.893l-0.323,0.011c-1.521,0-2.153-0.822-2.394-1.313     c-0.905-1.839,0.708-4.559,1.767-6.036C138.827,416.417,136.951,413.552,134.478,413.552z M140.05,424.11     c0.011,0,0.11,0.044,0.352,0.044c0.113-0.269,0.199-0.933,0.107-1.908c-0.501,1.053-0.546,1.703-0.46,1.863H140.05z"/>
		</g>
		<g>
			<path style="fill:#FFFFFF;" d="M146.469,439.468c0,0,11.563,8.732,5.564,15.852s-16.392-11.862-10.017-10.557     c2.751,0.563-2.421,13.695-8.823,11.775C126.79,454.618,134.755,431.351,146.469,439.468z"/>
			<path style="fill:#2B2330;" d="M148.926,458.061c-2.856,0-5.568-2.472-7.403-5.088c-1.327,2.077-3.739,4.895-7.042,4.895     c-0.541,0-1.084-0.08-1.613-0.24c-2.427-0.726-3.521-3.576-2.928-7.618c0.793-5.401,5.035-13.392,11.622-13.392     c1.852,0,3.722,0.644,5.556,1.914c0.324,0.244,7.059,5.392,7.726,11.329c0.255,2.276-0.396,4.36-1.94,6.192     c-1.106,1.313-2.481,2.008-3.975,2.008H148.926z M142.754,450.701c1.532,2.536,4.008,5.086,6.172,5.086h0.001     c0.825,0,1.557-0.393,2.236-1.199c1.14-1.355,1.605-2.816,1.419-4.471c-0.56-4.977-6.737-9.694-6.799-9.741     c-1.409-0.975-2.842-1.484-4.223-1.484c-5.018,0-8.667,6.647-9.372,11.449c-0.402,2.741,0.121,4.746,1.331,5.11     c2.608,0.766,5.235-2.03,6.669-4.686c-0.79-1.546-1.921-4.331-0.911-6.047c0.554-0.944,1.618-1.341,2.965-1.068     c0.597,0.124,1.083,0.509,1.365,1.084C144.312,446.166,143.668,448.658,142.754,450.701z M141.431,445.837     c-0.249,0.162-0.328,0.831-0.026,1.908c0.242-0.926,0.274-1.595,0.201-1.897C141.543,445.842,141.485,445.837,141.431,445.837z"/>
		</g>
		<path style="fill:#ECD673;" d="M133.252,432.916c0,0-4.364-7.114-11.253-5.442s-13.145,6.441-10.883,11.003    c2.261,4.562,9.149,9.033,15.708,5.927C133.384,441.299,134.793,434.859,133.252,432.916z"/>
		<g>
			<path style="fill:#FFFFFF;" d="M127.806,428.062c0,0,0.057,12.991,1.447,14.878"/>
			<path style="fill:#2B2330;" d="M129.244,444.072c-0.345,0-0.685-0.158-0.907-0.457c-1.494-2.03-1.655-12.413-1.668-15.548     c-0.002-0.629,0.504-1.139,1.133-1.142c0.001,0,0.003,0,0.003,0c0.627,0,1.136,0.506,1.138,1.133     c0.027,6.043,0.503,13.194,1.226,14.209c0.362,0.509,0.252,1.219-0.254,1.586C129.712,444,129.476,444.072,129.244,444.072z"/>
		</g>
		<g>
			<path style="fill:#FFFFFF;" d="M121.436,427.847c0,0,0.527,15.153,2.315,17.538"/>
			<path style="fill:#2B2330;" d="M123.752,446.521c-0.345,0-0.687-0.158-0.911-0.455c-1.907-2.538-2.452-15.591-2.542-18.18     c-0.022-0.629,0.469-1.155,1.096-1.177c0.681-0.036,1.154,0.471,1.176,1.097c0.214,6.145,1.003,15.451,2.089,16.897     c0.376,0.502,0.275,1.215-0.227,1.59C124.229,446.448,123.989,446.521,123.752,446.521z"/>
		</g>
		<path style="fill:#2B2330;" d="M146.922,434.502c-0.01,0-0.016,0-0.018,0c-0.627-0.011-1.125-0.526-1.115-1.155    c0.009-0.626,0.514-1.019,1.152-1.119c0.359,0.009,7.86,0.011,10.629-7.691c0.213-0.591,0.862-0.893,1.456-0.686    c0.591,0.213,0.897,0.864,0.685,1.455C156.45,434.368,147.387,434.502,146.922,434.502z"/>
		<g>
			<path style="fill:#FFFFFF;" d="M116.413,430.827c0,0-0.484,11.097,1.822,13.852"/>
			<path style="fill:#2B2330;" d="M118.237,445.817c-0.325,0-0.648-0.138-0.873-0.406c-2.517-3.009-2.139-13.452-2.088-14.633     c0.028-0.629,0.583-1.144,1.185-1.086c0.627,0.027,1.115,0.557,1.087,1.184c-0.179,4.122,0.087,11.315,1.559,13.074     c0.403,0.482,0.34,1.199-0.142,1.603C118.753,445.73,118.494,445.817,118.237,445.817z"/>
		</g>
		<path style="fill:#2B2330;" d="M159.677,443.396c-0.469,0-0.906-0.291-1.072-0.757c-0.101-0.28-2.564-6.747-12.006-5.608    c-0.633,0.082-1.191-0.366-1.266-0.991c-0.077-0.622,0.366-1.19,0.991-1.266c11.322-1.395,14.398,7.022,14.427,7.109    c0.207,0.593-0.105,1.241-0.698,1.448C159.928,443.376,159.801,443.396,159.677,443.396z"/>
	</g>
	<g>
		<path style="fill:#FFFFFF;" d="M119.224,100.49c0,0,4.152-17.369-13.392-13.435c-17.544,3.935-13.698,20.633-6.661,15.788    c7.036-4.845-3.142-24.82-16.981-17.837c-13.838,6.983-12.619,23.454-3.542,25.605c9.077,2.15-3.612-19.406-16.488-8.248    s10.085,36.332,21.296,29.121c11.211-7.211,4.504-21.43,1.173-13.536c-3.331,7.894,2.533,16.585,20.921,18.178    c18.388,1.593,12.971-27.515,5.7-19.963s2.415,17.938,16.371,9.601S128.887,95.872,119.224,100.49z"/>
		<path style="fill:#2B2330;" d="M106.973,137.327c-0.489,0-0.997-0.02-1.521-0.067c-8.547-0.742-15.062-3.054-18.953-6.707    c-0.728,0.686-1.541,1.319-2.427,1.89c-1.505,0.966-3.239,1.457-5.157,1.457c-7.544,0-17.131-7.957-20.514-17.032    c-2.318-6.214-1.247-11.671,3.015-15.364c2.944-2.55,6.125-3.744,9.432-3.467c0.874-5.839,4.849-11.027,10.831-14.045    c6.283-3.174,13.074-1.321,17.424,4.388c1.862-1.07,4.036-1.888,6.481-2.436c6.075-1.357,10.455-0.411,12.958,2.758    c2.472,3.131,2.402,7.611,2.109,10.136c5.355-1.002,11.661,4.462,13.664,11.724c1.859,6.734-0.425,12.781-6.11,16.179    c-3.448,2.059-6.954,3.178-10.157,3.242C116.185,134.728,112.283,137.327,106.973,137.327z M88.03,128.872    c2.6,2.454,7.696,5.264,17.617,6.123c5.794,0.511,8.655-2.321,9.993-5.17c-3.535-0.56-6.326-2.538-7.472-5.379    c-1.196-2.965-0.35-6.356,2.262-9.07c1.024-1.064,2.109-1.601,3.225-1.601c0.875,0,2.169,0.344,3.355,1.983    c2.007,2.774,2.676,7.664,1.737,11.917c2.61-0.204,5.453-1.19,8.292-2.887c6.851-4.093,5.838-10.889,5.084-13.621    c-1.549-5.612-6.073-10.181-10.085-10.181c-0.804,0-1.585,0.178-2.321,0.531c-0.399,0.184-0.866,0.131-1.205-0.142    c-0.341-0.273-0.493-0.722-0.392-1.146c0.016-0.067,1.495-6.505-1.368-10.123c-1.924-2.434-5.563-3.087-10.67-1.941    c-2.161,0.484-4.076,1.193-5.711,2.11c2.769,4.773,3.319,10.838-0.553,13.505c-3.038,2.092-6.361,0.844-7.378-2.547    c-0.962-3.207,0.171-8.066,4.765-11.593c-3.706-4.764-9.224-6.283-14.501-3.618c-5.336,2.692-8.869,7.282-9.615,12.415    c5.874,1.639,10.063,7.511,9.755,10.842c-0.189,2.023-1.911,3.043-4.456,2.439c-4.695-1.11-7.766-5.728-7.719-11.413    c-2.696-0.238-5.291,0.777-7.762,2.918c-4.477,3.88-3.762,9.13-2.374,12.85c3.036,8.14,11.798,15.553,18.383,15.553    c1.475,0,2.795-0.369,3.927-1.097c0.782-0.502,1.495-1.057,2.128-1.659c-2.542-3.325-3.055-7.411-1.387-11.362    c1.05-2.49,2.404-3.014,3.356-3.014c1.261,0,2.397,0.928,3.117,2.547C91.35,119.959,91.206,124.781,88.03,128.872z     M113.655,116.048c-0.591,0-1.188,0.491-1.586,0.904c-2.002,2.081-2.655,4.502-1.792,6.643c0.885,2.194,3.197,3.696,6.141,4.042    c1.039-4.044,0.218-8.517-1.25-10.547C114.823,116.615,114.281,116.048,113.655,116.048z M86.937,116.768    c-0.199,0-0.72,0.34-1.261,1.623c-1.293,3.065-0.993,6.119,0.826,8.724c2.492-3.478,2.303-7.285,1.475-9.15    C87.586,117.088,87.142,116.768,86.937,116.768z M72.945,100.771c0.115,4.402,2.449,7.902,5.965,8.735    c0.34,0.08,0.643,0.12,0.899,0.12c0.716,0,0.742-0.269,0.767-0.555C80.773,106.949,77.513,102.294,72.945,100.771z M98.474,91.532    c-3.648,2.858-4.588,6.607-3.857,9.048c0.594,1.985,2.151,2.543,3.909,1.326C100.965,100.227,100.887,95.727,98.474,91.532z"/>
	</g>
	<g>
		<path style="fill:#FFFFFF;" d="M449.694,323.054c0,0,1.856-17.762-15.027-11.577s-10.896,22.241-4.55,16.521    c6.346-5.72-6.346-24.2-19.158-15.475c-12.812,8.725-9.459,24.897-0.179,25.848c9.28,0.951-6.107-18.771-17.422-6.031    c-11.315,12.739,14.728,34.71,24.905,26.101c10.177-8.609,1.676-21.834-0.599-13.574c-2.275,8.26,4.67,16.114,23.109,15.301    c18.439-0.813,9.279-28.97,3.053-20.535s4.73,17.471,17.481,7.389C474.06,336.939,458.674,317.217,449.694,323.054z"/>
		<path style="fill:#2B2330;" d="M412.514,361.525c-7.785,0-17.878-7.267-21.6-15.551c-2.423-5.395-1.857-10.505,1.595-14.391    c2.565-2.887,5.631-4.491,8.9-4.666c0.107-5.901,3.374-11.564,8.911-15.335c2.434-1.659,5.006-2.499,7.642-2.499    c3.621,0,7.288,1.657,10.204,4.582c1.707-1.301,3.758-2.396,6.111-3.258c6.114-2.236,10.739-1.715,13.593,1.45    c2.516,2.794,2.985,6.949,3.022,9.372c0.763-0.249,1.566-0.373,2.401-0.373c5.139,0,10.892,4.973,13.099,11.322    c2.126,6.119,0.531,11.853-4.377,15.735c-3.159,2.499-6.478,4.055-9.65,4.537c-1.344,5.375-5.506,8.586-11.54,8.85    c-8.676,0.402-15.344-1.077-19.664-4.182c-0.633,0.775-1.357,1.508-2.162,2.19C417.26,360.779,415.078,361.525,412.514,361.525z     M401.525,329.189c-2.678,0.14-5.137,1.45-7.316,3.904c-3.617,4.071-2.661,8.744-1.221,11.948    c3.341,7.436,12.648,14.209,19.526,14.209c2.011,0,3.699-0.564,5.016-1.679c0.71-0.6,1.344-1.244,1.894-1.923    c-2.954-2.967-3.994-6.951-2.855-11.084c0.825-2.998,2.397-3.445,3.261-3.445c1.264,0,2.48,0.935,3.336,2.565    c1.469,2.798,1.753,7.353-0.708,11.566c3.883,2.814,10.103,4.155,18.266,3.778c5.844-0.258,8.27-3.38,9.234-6.423    c-3.759-0.093-6.836-1.823-8.271-4.666c-1.396-2.765-0.948-6.039,1.225-8.983c1.243-1.683,2.548-2.037,3.426-2.037    c1.228,0,2.43,0.666,3.476,1.93c1.87,2.259,3.356,6.676,2.947,11.218c2.56-0.54,5.242-1.883,7.842-3.94    c5.617-4.44,4.692-10.178,3.64-13.203c-1.878-5.401-6.79-9.794-10.951-9.794c-1.082,0-2.084,0.295-2.978,0.875    c-0.365,0.24-0.836,0.244-1.213,0.018c-0.373-0.229-0.583-0.651-0.539-1.088c0.007-0.062,0.6-6.252-2.387-9.561    c-2.225-2.463-5.954-2.721-11.117-0.831c-2.08,0.762-3.888,1.715-5.388,2.836c3.366,4.371,4.701,10.314,1.207,13.461    c-1.09,0.984-2.29,1.506-3.466,1.506c-1.883,0-3.553-1.344-4.357-3.505c-1.154-3.094-0.496-7.789,3.392-11.677    c-2.471-2.432-5.512-3.807-8.485-3.807c-2.171,0-4.312,0.706-6.363,2.103c-4.94,3.365-7.846,8.377-7.917,13.563    c6.131,0.888,11.173,6.452,11.086,9.714c-0.04,1.481-1.059,3.067-4.102,2.763C405.865,339.01,402.219,334.833,401.525,329.189z     M419.831,343.394c-0.233,0-0.711,0.473-1.069,1.775c-0.883,3.205-0.188,6.194,1.954,8.542c1.788-3.342,1.563-6.823,0.438-8.968    C420.634,343.754,420.077,343.394,419.831,343.394z M446.338,339.194c-0.64,0-1.221,0.604-1.596,1.113    c-1.646,2.23-2.019,4.637-1.025,6.607c1.082,2.143,3.535,3.422,6.563,3.422h0.001c0.054,0,0.109,0,0.163,0    c0.502-4.053-0.794-8.117-2.383-10.036C447.471,339.588,446.859,339.194,446.338,339.194z M403.845,329.354    c0.686,4.351,3.456,7.518,7.051,7.886c0.179,0.018,0.346,0.027,0.503,0.027c1.078,0,1.088-0.369,1.095-0.589    C412.542,334.877,408.843,330.313,403.845,329.354z M427.954,316.875c-3.088,3.151-3.652,6.8-2.768,9.174    c0.783,2.097,2.489,2.621,4.17,1.104C431.556,325.17,430.892,320.719,427.954,316.875z"/>
	</g>
	<path style="fill:#2B2330;" d="M364.665,81.109c-0.841,0-1.637,0-3.853-8.828c-7.481-1.439-8.136-2.319-8.355-2.614   c-0.211-0.284-0.302-0.804-0.207-1.144c0.137-0.48,0.45-1.59,8.997-5.035c3.067-8.002,4.108-8,4.8-8   c0.36,0,0.854,0.255,1.068,0.544c0.55,0.737,1.047,2.652,1.8,5.717c0.237,0.962,0.522,2.121,0.687,2.632   c0.448,0.2,1.434,0.553,2.252,0.846c4.4,1.577,5.533,2.114,5.74,3.165c0.078,0.393-0.122,0.966-0.421,1.235   c-0.893,0.8-5.14,2.379-7.368,3.171c-3.618,8.231-4.391,8.273-5.075,8.308C364.712,81.109,364.685,81.109,364.665,81.109z    M355.35,68.688c1.494,0.431,4.22,1.05,6.598,1.495c0.439,0.08,0.788,0.411,0.895,0.844c0.609,2.465,1.404,5.272,1.975,6.874   c0.828-1.49,2.084-4.131,3.101-6.465c0.127-0.289,0.368-0.513,0.665-0.617c2.032-0.715,4.327-1.595,5.757-2.219   c-1.003-0.422-2.369-0.913-3.254-1.23c-2.503-0.897-2.975-1.09-3.297-1.524c-0.283-0.38-0.459-1.011-1.083-3.553   c-0.235-0.953-0.595-2.416-0.915-3.511c-0.745,1.421-1.787,3.84-2.597,5.981c-0.113,0.3-0.346,0.535-0.643,0.655   C359.915,66.469,356.919,67.811,355.35,68.688z"/>
	<path style="fill:#2B2330;" d="M57.262,183.386c-0.841,0-1.637,0-3.853-8.826c-7.481-1.439-8.136-2.319-8.355-2.614   c-0.211-0.284-0.302-0.804-0.207-1.144c0.135-0.48,0.45-1.59,8.997-5.037c3.069-8,4.109-8,4.802-8c0.359,0,0.853,0.255,1.067,0.544   c0.551,0.74,1.048,2.656,1.803,5.723c0.235,0.959,0.52,2.117,0.684,2.627c0.45,0.2,1.44,0.555,2.262,0.851   c4.393,1.575,5.526,2.11,5.73,3.158c0.077,0.395-0.123,0.968-0.422,1.235c-0.891,0.8-5.139,2.376-7.367,3.171   c-3.618,8.231-4.391,8.273-5.075,8.308C57.308,183.386,57.282,183.386,57.262,183.386z M47.945,170.967   c1.495,0.431,4.221,1.05,6.599,1.495c0.439,0.08,0.788,0.411,0.895,0.844c0.609,2.465,1.404,5.27,1.975,6.871   c0.828-1.49,2.084-4.131,3.101-6.465c0.127-0.289,0.368-0.513,0.665-0.617c2.032-0.715,4.326-1.592,5.754-2.219   c-0.999-0.42-2.36-0.908-3.241-1.224c-2.513-0.902-2.986-1.097-3.309-1.53c-0.281-0.38-0.455-1.01-1.078-3.545   c-0.235-0.955-0.595-2.423-0.917-3.518c-0.745,1.421-1.787,3.84-2.597,5.979c-0.113,0.3-0.346,0.535-0.642,0.655   C52.511,168.746,49.514,170.089,47.945,170.967z"/>
	<path style="fill:#2B2330;" d="M420.967,410.396c-0.002,0-0.032,0-0.033,0c-4.404-0.02-7.971-3.62-7.952-8.022   c0.018-4.386,3.601-7.953,7.987-7.953c4.437,0.02,8.004,3.62,7.985,8.022C428.936,406.829,425.353,410.396,420.967,410.396z    M420.992,396.695c-3.16,0-5.723,2.552-5.737,5.688c-0.013,3.149,2.537,5.723,5.688,5.739l0.023,1.137v-1.137   c3.137,0,5.7-2.552,5.713-5.688C426.693,399.285,424.143,396.711,420.992,396.695z"/>
	<path style="fill:#2B2330;" d="M115.327,65.254c-0.002,0-0.032,0-0.033,0c-2.133-0.009-4.135-0.848-5.638-2.363   c-1.501-1.515-2.323-3.525-2.314-5.657c0.018-4.386,3.599-7.953,7.982-7.953c2.171,0.009,4.174,0.848,5.675,2.363   c1.502,1.515,2.324,3.525,2.315,5.657C123.295,61.688,119.712,65.254,115.327,65.254z M115.352,51.556   c-3.163,0-5.723,2.552-5.737,5.688c-0.007,1.526,0.581,2.963,1.656,4.046c1.074,1.084,2.506,1.683,4.031,1.69l0.024,1.137V62.98   c3.136,0,5.7-2.552,5.713-5.688c0.007-1.526-0.581-2.963-1.656-4.046C118.311,52.162,116.878,51.563,115.352,51.556z"/>
	<path style="fill:#2B2330;" d="M333.762,52.489c-0.002,0-0.032,0-0.033,0c-2.133-0.009-4.135-0.848-5.638-2.363   c-1.501-1.515-2.323-3.525-2.314-5.657c0.018-4.386,3.599-7.953,7.982-7.953c2.171,0.009,4.174,0.848,5.675,2.363   c1.502,1.515,2.324,3.525,2.315,5.657C341.731,48.922,338.148,52.489,333.762,52.489z M333.788,38.79   c-3.163,0-5.723,2.552-5.737,5.688c-0.007,1.526,0.581,2.963,1.656,4.046c1.074,1.084,2.506,1.683,4.031,1.69l0.024,1.137v-1.137   c3.136,0,5.7-2.552,5.713-5.688c0.007-1.526-0.581-2.963-1.656-4.046C336.746,39.397,335.314,38.797,333.788,38.79z"/>
	<g>
		<path style="fill:#DF9C49;" d="M360.232,229.459c0,0,52.804-7.921,64.245,26.402c11.441,34.323-51.044,42.243-68.646,19.362    S341.75,228.579,360.232,229.459z"/>
		<path style="fill:#DF9C49;" d="M312.687,192.888c0,0,121.893,196.598,15.512,223.193    c-47.258,11.815-122.408,23.328-146.148-11.289c-55.943-81.574,33.68-229.426,63.048-221.878    C257.843,186.19,312.687,192.888,312.687,192.888z"/>
		<path style="fill:#DF9C49;" d="M181.639,202.3c0,0-59.573-68.084,22.013-123.765c39.183-26.741,167.828-34.691,168.604,87.157    c0.088,13.784-24.555,38.849-57.431,45.014c-32.876,6.164-24.872-45.869-24.872-45.869s18.072,55.227,7.798,61.391    C287.476,232.392,218.872,241.661,181.639,202.3z"/>
		<path style="fill:#DF9C49;" d="M203.665,86.927c0,0-29.534-49.671-37.589-44.973c-8.055,4.699-12.082,46.986,4.699,71.822    S214.404,103.707,203.665,86.927z"/>
		<path style="fill:#DF9C49;" d="M219.103,76.858c0,0,4.155-43.789,14.895-49.83s42.861,48.577,35.478,52.605    C262.092,83.66,216.418,108.406,219.103,76.858z"/>
		<path style="fill:#2B2330;" d="M278.332,329.658c-0.219,0-0.44-0.062-0.634-0.193c-0.521-0.351-0.659-1.057-0.308-1.579    c0.602-0.895,61.067-89.477,124.567-87.745c0.629,0.018,1.123,0.542,1.105,1.17c-0.019,0.626-0.537,1.086-1.169,1.104    c-62.329-1.726-122.02,85.855-122.618,86.741C279.058,329.482,278.698,329.658,278.332,329.658z"/>
		<path style="fill:#DF9C49;" d="M75.64,215.2c0,0-58.79,45.346-34.611,126.949s144.926,54.39,144.926,54.39l3.022-13.6    c0,0-71.024-24.179-54.402-52.891s90.669-96.714-39.29-178.317C95.285,151.731,102.031,183.802,75.64,215.2z"/>
		<path style="fill:#2B2330;" d="M222.194,112.852c-0.605,0-1.228-0.036-1.872-0.113c-7.922-0.931-12.943-9.217-13.645-16.543    c-0.627-6.545,1.96-14.578,11.106-17.487c0.594-0.184,1.237,0.14,1.428,0.74c0.19,0.597-0.141,1.237-0.74,1.428    c-6.67,2.123-10.234,7.769-9.531,15.102c0.617,6.441,4.909,13.712,11.647,14.502c4.099,0.495,7.236-0.944,9.313-3.138    c-1.456-1.115-2.366-2.332-2.883-3.178c-1.987-3.254-2.174-7.353-0.436-9.534c1.044-1.313,2.623-1.735,4.323-1.17    c3.334,1.113,4.906,4.855,3.911,9.314c-0.3,1.344-0.831,2.687-1.582,3.935c2.721,1.233,6.246,1.488,10.282,0.684    c7.185-1.437,11.599-4.97,12.429-9.95c0.179-1.075,0.188-2.19,0.044-3.309c-5.832,0.371-10.31-3.973-12.037-8.111    c-0.993-2.381-0.882-4.42,0.298-5.452c0.825-0.722,2.449-1.208,5.494,0.566c3.918,2.285,6.843,6.272,8.031,10.494    c4.417-0.835,8.128-3.624,9.711-7.418c1.743-4.182,0.721-8.797-2.879-12.994c-8.795-10.254-19.278-6.803-19.719-6.652    c-0.594,0.207-1.241-0.111-1.445-0.704c-0.205-0.591,0.105-1.237,0.698-1.444c0.123-0.042,12.36-4.144,22.191,7.32    c4.129,4.81,5.314,10.405,3.253,15.349c-1.871,4.486-6.206,7.784-11.35,8.77c0.175,1.335,0.168,2.672-0.047,3.958    c-0.577,3.462-3.194,9.599-14.226,11.806c-5.512,1.099-9.401,0.311-12.091-1.046C229.682,111.076,226.419,112.852,222.194,112.852    z M229.465,95.487c-0.576,0-0.898,0.3-1.105,0.56c-0.989,1.241-1.042,4.246,0.599,6.934c0.614,1.006,1.393,1.863,2.314,2.565    c0.631-1.035,1.074-2.15,1.323-3.267c0.605-2.714,0.094-5.825-2.411-6.66C229.908,95.525,229.67,95.487,229.465,95.487z     M246.139,82.191c-0.213,0-0.34,0.047-0.393,0.093c-0.271,0.238-0.356,1.281,0.303,2.865c1.158,2.776,4.574,6.727,9.39,6.727    c0.019,0,0.037-0.002,0.056-0.002c-1.084-3.525-3.582-6.838-6.898-8.773C247.352,82.375,246.57,82.191,246.139,82.191z"/>
		<path style="fill:#2B2330;" d="M344.978,160.044c-0.147,0-0.294-0.029-0.434-0.087c-3.5-1.448-85.807-35.645-94.436-52.902    c-0.281-0.562-0.053-1.244,0.509-1.526c0.562-0.282,1.244-0.051,1.526,0.509c7.853,15.706,84.46,48.129,92.581,51.529    c1.668-1.688,6.878-7.5,6.878-14.183c0-5.106-42.88-31.288-83.226-53.328c-0.551-0.3-0.754-0.991-0.453-1.541    c0.302-0.555,0.991-0.757,1.544-0.453c14.095,7.7,84.409,46.554,84.409,55.322c0,8.941-7.805,16.068-8.137,16.368    C345.525,159.944,345.253,160.044,344.978,160.044z"/>
		<path style="fill:#2B2330;" d="M320.919,148.819c0,0,7.525,16.248,22.992,22.683c21.929,9.122,34.233-21.479,23.493-36.247    C356.665,120.488,326.96,146.134,320.919,148.819z"/>
		<path style="fill:#2B2330;" d="M260.405,224.294c-7.65,0-13.722-2.41-17.948-7.202c-1.132-1.284-1.997-2.536-2.644-3.742    c-3.268,0.375-7.28,0.278-12.212-0.546c-10.04-1.672-13.801-7.08-15.189-11.32c-0.847-2.587-1.047-5.437-0.761-8.304    c-1.95,0.482-4.046,0.831-6.281,1.008c-8.361,0.68-15.721-4.435-19.183-13.325c-4.2-10.778-1.822-26.824,12.96-38.373    c0.493-0.393,1.208-0.3,1.596,0.195c0.386,0.495,0.299,1.208-0.197,1.595c-14.809,11.573-15.849,26.495-12.24,35.759    c3.085,7.915,9.555,12.47,16.882,11.884c2.455-0.198,4.735-0.613,6.821-1.193c1.095-5.697,3.937-11.202,7.253-14.602    c2.341-2.401,4.601-3.367,6.522-2.787c2.547,0.764,3.902,2.781,3.624,5.397c-0.477,4.491-5.938,10.725-15.392,13.77    c-0.399,2.818-0.296,5.668,0.555,8.271c1.735,5.299,6.244,8.59,13.401,9.783c4.383,0.731,7.959,0.868,10.876,0.611    c-1.174-3.371-0.741-6.292,0.044-8.437c2.052-5.603,7.624-9.248,10.858-9.725c1.726-0.253,2.586,0.36,3.004,0.917    c1.411,1.881,2.443,7.691-0.522,12.566c-1.579,2.596-4.527,5.295-10.023,6.467c0.516,0.853,1.159,1.73,1.951,2.627    c16.141,18.316,56.697-8.18,57.105-8.448c0.522-0.351,1.228-0.204,1.576,0.322c0.346,0.522,0.203,1.228-0.321,1.575    c-0.105,0.069-10.658,7.009-23.166,11.475C272.285,223.037,265.933,224.294,260.405,224.294z M250.536,195.203    c-1.093,0-3.962,0.984-6.699,3.887c-1.743,1.85-4.847,6.167-2.668,11.766c5.098-0.946,7.749-3.285,9.123-5.546    c2.411-3.964,1.546-8.821,0.646-10.021C250.866,195.234,250.728,195.203,250.536,195.203z M224.683,175.455    c-1.003,0-2.376,0.811-3.79,2.261c-2.525,2.587-5.139,7.207-6.372,12.21c7.72-2.825,12.249-7.875,12.627-11.431    c0.162-1.526-0.516-2.527-2.015-2.978C224.993,175.477,224.842,175.455,224.683,175.455z"/>
		<path style="fill:#2B2330;" d="M330.012,189.813c-7.504,0-14.054-14.065-14.787-15.693c-0.258-0.573-0.002-1.246,0.571-1.504    c0.572-0.262,1.245-0.004,1.504,0.571c1.844,4.093,7.728,14.645,12.931,14.345c2.803-0.167,5.38-3.742,7.453-10.34    c0.188-0.597,0.818-0.948,1.426-0.742c0.6,0.187,0.932,0.826,0.744,1.426c-2.45,7.793-5.553,11.695-9.49,11.928    C330.247,189.811,330.129,189.813,330.012,189.813z"/>
		<path style="fill:#2B2330;" d="M259.493,147.796c-7.351,0-18.93-5.757-21.736-7.209c-0.557-0.289-0.775-0.975-0.486-1.532    c0.288-0.56,0.973-0.777,1.532-0.489c7.811,4.046,21.248,9.241,24.057,5.961c0.898-1.05,1.883-5.004-8.368-18.958    c-0.372-0.506-0.263-1.217,0.243-1.59c0.504-0.373,1.219-0.262,1.589,0.244c8.478,11.54,11.104,18.462,8.264,21.782    C263.49,147.287,261.678,147.796,259.493,147.796z"/>
		<path style="fill:#2B2330;" d="M315.904,101.042c-6.423,0-19.22-8.146-23.555-11.036c-0.523-0.349-0.664-1.055-0.315-1.577    c0.348-0.524,1.05-0.664,1.577-0.315c9.825,6.549,21.617,12.39,23.531,10.369c0.37-0.386,1.686-3.04-8.78-17.287    c-0.372-0.506-0.263-1.217,0.243-1.59c0.504-0.373,1.218-0.262,1.589,0.244c10.748,14.629,10.238,18.482,8.593,20.206    C318.129,100.744,317.132,101.042,315.904,101.042z"/>
		<path style="fill:#DF9C49;" d="M364.405,358.738c0,0,35.138,68.998,39.736,77.912c4.598,8.914-11.278,30.645-28.258,28.795    c-16.979-1.85-50.886-29.954-59.079-53.715S358.959,360.869,364.405,358.738z"/>
		<path style="fill:#DF9C49;" d="M257.006,375.99c0,0-12.358,84.654-13.902,95.628c-1.545,10.974-29.349,20.38-43.252,7.838    c-13.902-12.541-26.26-59.572-18.536-86.222C189.039,366.584,250.827,374.422,257.006,375.99z"/>
		<path style="fill:#DF9C49;" d="M255.992,243.9c0,0,86.021,30.655,91.676,43.663c5.655,13.008-101.746,96.821-122.352-18.881    C225.316,268.682,236.017,242.067,255.992,243.9z"/>
		<path style="fill:#2B2330;" d="M177.11,102.79c-0.512,0-0.977-0.349-1.104-0.868c-2.256-9.277-9.294-39.816-5.109-43.278    c0.384-0.32,1.208-0.771,2.403-0.231c7.029,3.194,16.667,23.544,17.074,24.408c0.267,0.569,0.023,1.246-0.545,1.512    c-0.572,0.264-1.246,0.022-1.514-0.544c-2.673-5.681-10.751-20.941-15.957-23.306c-2.102,1.732,1.407,22.606,5.858,40.902    c0.149,0.611-0.225,1.226-0.836,1.373C177.29,102.779,177.199,102.79,177.11,102.79z"/>
		<path style="fill:#2B2330;" d="M228.493,63.642c-0.087,0-0.175-0.009-0.263-0.031c-0.611-0.144-0.989-0.757-0.844-1.368    c0.945-3.993,5.933-23.983,11.23-25.309c1.791-0.446,6.615,0.939,12.387,23.455c0.155,0.609-0.211,1.228-0.82,1.384    c-0.61,0.158-1.226-0.211-1.384-0.82c-3.109-12.124-7.582-22.358-9.633-21.811c-2.642,0.66-6.939,12.53-9.569,23.626    C229.475,63.289,229.009,63.642,228.493,63.642z"/>
		<path style="fill:#2B2330;" d="M300.993,292.711c-16.154,0-70.82-31.519-77.354-35.319c-0.543-0.318-0.727-1.013-0.411-1.555    c0.316-0.544,1.01-0.728,1.555-0.413c18.586,10.814,68.804,38.122,77.942,34.784c0.589-0.224,1.241,0.082,1.46,0.673    c0.217,0.589-0.084,1.244-0.674,1.459C302.831,292.591,301.984,292.711,300.993,292.711z"/>
		<path style="fill:#2B2330;" d="M246.132,346.774c-8.262,0.002-17.223-1.739-26.682-6.145c-18.812-8.761-30.41-19.328-34.47-31.406    c-3.083-9.168-0.467-15.666-0.355-15.937c0.24-0.58,0.902-0.848,1.482-0.615c0.58,0.238,0.856,0.902,0.62,1.484    c-0.402,0.986-9.349,24.37,33.683,44.413c9.118,4.246,17.767,5.925,25.737,5.925c29.931,0.004,50.341-23.675,50.597-23.979    c0.403-0.48,1.12-0.542,1.602-0.135c0.481,0.404,0.541,1.122,0.137,1.601C298.217,322.296,277.109,346.772,246.132,346.774z"/>
		<g>
			<path style="fill:#86B98A;" d="M374.369,272.26c0,0,30.713-7.313,41.926,17.063C416.295,289.323,390.457,316.136,374.369,272.26z     "/>
			<path style="fill:#2B2330;" d="M404.593,286.559c-0.185,0-0.373-0.044-0.546-0.14c-0.193-0.107-19.384-10.605-28.759-11.076     c-0.627-0.031-1.11-0.564-1.079-1.193c0.032-0.626,0.549-1.168,1.193-1.077c9.897,0.495,28.936,10.909,29.741,11.351     c0.551,0.304,0.752,0.995,0.449,1.546C405.384,286.346,404.994,286.559,404.593,286.559z"/>
		</g>
		<g>
			<path style="fill:#86B98A;" d="M385.049,236.279c0,0-9.173-30.21,14.473-42.889C399.521,193.39,427.861,217.544,385.049,236.279z     "/>
			<path style="fill:#2B2330;" d="M386.935,236.325c-0.622,0-1.13-0.502-1.137-1.124c-0.109-9.912,9.123-29.551,9.517-30.382     c0.269-0.566,0.943-0.806,1.515-0.542c0.567,0.269,0.81,0.946,0.542,1.515c-0.094,0.198-9.402,19.995-9.299,29.382     c0.007,0.629-0.496,1.144-1.125,1.15C386.943,236.325,386.939,236.325,386.935,236.325z"/>
		</g>
		<g>
			<path style="fill:#86B98A;" d="M337.741,232.379c0,0,9.173-30.21-14.473-42.889C323.269,189.49,294.929,213.644,337.741,232.379z     "/>
			<path style="fill:#2B2330;" d="M335.855,232.425c-0.004,0-0.008,0-0.012,0c-0.629-0.007-1.132-0.522-1.125-1.15     c0.103-9.388-9.203-29.185-9.298-29.382c-0.268-0.569-0.026-1.246,0.542-1.515c0.574-0.267,1.247-0.027,1.515,0.542     c0.393,0.831,9.624,20.47,9.515,30.382C336.985,231.923,336.476,232.425,335.855,232.425z"/>
		</g>
		<g>
			<path style="fill:#86B98A;" d="M298.671,262.777c0,0-25.52-18.587-45.263-0.418C253.408,262.358,266.912,297.06,298.671,262.777z     "/>
			<path style="fill:#2B2330;" d="M297.019,265.337c-0.128,0-0.258-0.022-0.385-0.067c-8.832-3.183-30.586-0.891-30.806-0.868     c-0.627,0.073-1.184-0.386-1.251-1.008c-0.068-0.624,0.384-1.186,1.009-1.253c0.914-0.098,22.493-2.367,31.819,0.988     c0.591,0.213,0.897,0.864,0.684,1.455C297.922,265.048,297.485,265.337,297.019,265.337z"/>
		</g>
		<g>
			<path style="fill:#B4D5C9;" d="M386.095,223.026c0,0,10.672-20.012-9.092-22.304s-19.407,22.625-15.087,20.519     c4.32-2.106,7.279-16.849-17.262-10.094c-24.54,6.755-10.084,38.372-2.24,31.12c7.844-7.252,4.6-24.592-14.323-6.316     s28.678,42.507,30.391,25.493c1.713-17.015-15.262,4.974-3.696,16.885c11.566,11.911,28.288-12.285,20.233-16.995     c-8.055-4.71-9.132,14.736,10.669,13.445c19.801-1.29,12.285-32.452-0.77-27.732c-13.055,4.72,12.493,12.967,21.819-4.743     s-3.976-21.371-13.76-24.004c-9.785-2.633-20.574,7.015-16.644,10.857C380.263,232.999,386.095,223.026,386.095,223.026z"/>
			<path style="fill:#2B2330;" d="M363.918,265.961c-1.872,0-3.57-0.771-5.046-2.29c-1.663-1.715-2.596-3.893-2.728-6.356     c-5.562-0.635-13.29-5.303-15.515-10.916c-0.961-2.423-1.333-6.056,2.35-9.612c0.561-0.542,1.099-1.033,1.617-1.477     c-0.928-5.066,0.812-11.411,8.748-13.596c3.841-1.055,6.937-1.344,9.21-0.855c1.679-3.505,4.869-5.492,8.898-5.492     c0.515,0,1.055,0.031,1.619,0.096c3.389,0.393,5.763,1.657,7.058,3.756c1.454,2.354,1.239,5.232,0.603,7.622     c0.882,0.02,1.737,0.142,2.544,0.36l1.28,0.333c3.425,0.877,7.307,1.872,8.705,5.024c1.03,2.325,0.513,5.388-1.581,9.368     c-1.697,3.223-4.128,4.953-6.189,5.881c1.357,3.205,1.329,7.082-0.153,9.825c-0.972,1.797-2.999,3.995-7.143,4.266     c-2.45,0.153-4.478-0.155-6.201-0.906C370.235,263.449,367.286,265.961,363.918,265.961z M358.424,257.332     c0.105,1.459,0.601,3.229,2.08,4.753c1.031,1.062,2.18,1.601,3.414,1.601c2.314,0,4.616-1.826,6.116-3.869     c-2.279-1.819-3.008-4.446-2.5-6.323c0.574-2.117,2.692-2.967,4.795-1.735c0.848,0.497,1.43,1.284,1.682,2.274     c0.351,1.381,0.044,3.154-0.843,4.981c1.34,0.526,2.949,0.728,4.877,0.611c2.494-0.162,4.274-1.199,5.29-3.078     c1.17-2.165,1.146-5.397,0.002-7.991c-1.104,0.284-2.249,0.433-3.362,0.433c-2.553,0-5.272-0.824-5.596-2.665     c-0.16-0.913,0.212-2.205,2.893-3.174c2.617-0.948,5.31,0.082,7.117,2.652c1.734-0.748,3.825-2.185,5.277-4.941     c1.725-3.276,2.234-5.759,1.515-7.382c-0.952-2.145-4.123-2.958-7.191-3.744l-1.306-0.342c-0.847-0.229-1.782-0.322-2.723-0.271     c-0.321,0.788-0.583,1.281-0.597,1.308c-0.484,0.831-2.932,4.784-5.619,4.784c0,0,0,0-0.001,0c-0.74,0-1.431-0.295-2-0.851     c-0.762-0.744-0.999-1.755-0.651-2.772c0.702-2.052,3.793-3.98,7.213-4.571c0.58-1.819,1.118-4.613-0.114-6.609     c-0.911-1.477-2.723-2.381-5.385-2.689c-4.639-0.544-7.01,1.719-8.131,3.967c1.299,0.817,2.061,2.081,2.134,3.596     c0.091,1.901-0.928,3.864-2.373,4.566c-0.259,0.127-0.527,0.191-0.8,0.191c-0.346,0-1.005-0.111-1.528-0.864     c-0.861-1.239-0.974-3.738-0.344-6.156c-1.869-0.32-4.544-0.016-7.82,0.886c-6.786,1.868-7.511,6.8-7.273,9.783     c4.193-2.898,7.651-2.545,8.788,0.364c0.959,2.45-0.087,6.03-2.381,8.151c-0.666,0.617-1.46,0.942-2.294,0.942     c-2.389,0-4.42-2.505-5.513-5.399c-0.234,0.213-0.473,0.438-0.716,0.673c-2.229,2.152-2.839,4.555-1.814,7.14     c1.871,4.719,8.645,8.877,13.5,9.479c0.511-3.727,2.645-7.082,4.674-7.082c0.533,0,1.029,0.224,1.397,0.631     c0.705,0.78,0.931,2.156,0.712,4.333C362.77,255.451,361.113,257.019,358.424,257.332z M370.35,253.439     c-0.295,0-0.504,0.22-0.621,0.651c-0.229,0.844,0.032,2.456,1.479,3.749c0.576-1.255,0.803-2.439,0.599-3.245     c-0.102-0.404-0.302-0.682-0.626-0.871C370.779,253.488,370.507,253.439,370.35,253.439z M360.715,250.346     c-0.621,0.482-1.76,2.31-2.165,4.657c2.021-0.409,2.161-1.799,2.212-2.307C360.897,251.345,360.802,250.663,360.715,250.346z      M376.716,245.979c0.352,0.271,1.417,0.737,3.26,0.737c0.687,0,1.39-0.069,2.083-0.202c-1.157-1.299-2.563-1.755-4.013-1.224     C377.287,245.564,376.891,245.822,376.716,245.979z M347.138,236.17c0.841,2.805,2.529,4.704,3.649,4.704     c0.165,0,0.423-0.036,0.751-0.338c1.766-1.632,2.36-4.24,1.807-5.65c-0.261-0.666-0.725-0.977-1.46-0.977     C351.186,233.909,349.675,234.215,347.138,236.17z M377.194,229.627c-2.143,0.682-3.669,1.883-3.95,2.703     c-0.07,0.204-0.037,0.284,0.09,0.409c0.181,0.178,0.31,0.202,0.411,0.202C374.667,232.94,376.263,231.106,377.194,229.627z      M363.885,223.932c-0.362,1.615-0.254,2.998-0.051,3.64c0.318-0.4,0.75-1.268,0.705-2.179     C364.512,224.808,364.292,224.319,363.885,223.932z"/>
			<circle style="fill:#ECD673;" cx="364.95" cy="240.26" r="9.998"/>
		</g>
		<g>
			<path style="fill:#9D7F95;" d="M376.514,284.126c0,0,19.101-12.228,2.986-23.9c-16.114-11.672-27.997,10.233-23.199,10.51     s14.593-11.131-10.113-17.25c-24.706-6.119-27.573,28.528-17.184,26.042c10.39-2.486,16.047-19.194-9.399-12.518     c-25.446,6.677,4.206,51.104,14.027,37.105c9.821-13.999-15.744-3.132-11.487,12.915c4.257,16.048,30.681,3.132,25.962-4.918     s-15.175,8.381,2.724,16.947c17.899,8.565,26.595-22.288,12.901-24.561s4.548,17.422,21.349,6.542     c16.801-10.88,6.992-20.582-0.252-27.667c-7.244-7.085-21.375-3.952-19.828,1.323     C366.547,289.969,376.514,284.126,376.514,284.126z"/>
			<path style="fill:#2B2330;" d="M354.721,315.16c-1.34,0-2.727-0.34-4.121-1.006c-2.16-1.035-3.824-2.316-4.963-3.822     c-1.803,0.851-3.777,1.326-5.55,1.326c-3.666,0-6.292-1.972-7.205-5.412c-0.612-2.308-0.359-4.666,0.731-6.876     c-4.538-3.276-8.993-11.124-8.188-17.11c0.348-2.583,1.801-5.936,6.754-7.236c0.755-0.198,1.465-0.362,2.132-0.497     c1.376-4.004,4.818-8.04,10.668-8.04c1.149,0,2.366,0.158,3.616,0.466c3.875,0.959,6.71,2.223,8.449,3.76     c3.571-2.512,7.878-2.405,11.813,0.442c2.763,2.001,4.215,4.266,4.319,6.729c0.114,2.765-1.48,5.168-3.205,6.94     c0.756,0.449,1.44,0.971,2.042,1.559l0.954,0.917c2.556,2.443,5.454,5.212,5.131,8.644c-0.239,2.532-2.189,4.948-5.962,7.393     c-2.538,1.643-5.348,2.356-8.275,2.099c-0.298,2.701-1.526,5.379-3.357,7.216C358.87,314.292,356.87,315.16,354.721,315.16z      M347.629,309.184c0.914,1.119,2.239,2.099,3.953,2.918c1.085,0.52,2.141,0.784,3.139,0.784c1.934,0,3.337-0.999,4.172-1.839     c1.488-1.492,2.507-3.776,2.722-6.008c-3.814-1.024-7.024-3.7-6.824-5.848c0.049-0.535,0.401-2.459,4.181-1.832     c2.766,0.46,4.588,2.643,4.909,5.794c2.47,0.262,4.857-0.324,7.018-1.726c3.108-2.012,4.768-3.929,4.935-5.697     c0.22-2.336-2.149-4.597-4.438-6.785l-0.973-0.937c-0.631-0.617-1.382-1.144-2.241-1.57c-0.666,0.531-1.136,0.833-1.16,0.848     c-0.354,0.209-3.193,1.834-5.492,1.834l0,0c-1.559,0-2.682-0.777-3.079-2.132c-0.242-0.826-0.102-1.646,0.393-2.307     c0.786-1.048,2.456-1.65,4.583-1.65c1.42,0,2.937,0.269,4.341,0.766c1.397-1.304,3.234-3.476,3.136-5.821     c-0.072-1.732-1.209-3.407-3.38-4.979c-1.671-1.213-3.35-1.826-4.987-1.826c-1.648,0-3.026,0.62-4.044,1.308     c0.706,1.304,0.774,2.732,0.163,4.049c-0.781,1.686-2.585,2.954-4.196,2.954c-0.928-0.047-1.525-0.504-1.766-1.224     c-0.491-1.468,0.647-4.011,2.606-6.045c-1.175-0.948-3.324-2.081-7.25-3.054c-1.072-0.267-2.104-0.4-3.069-0.4     c-4.715,0-7.017,3.143-8.056,5.372c0.564-0.053,1.098-0.08,1.599-0.08c4.934,0,5.767,2.55,5.895,3.647     c0.339,2.872-2.503,6.139-6.08,6.994c-1.407,0.335-2.698-0.129-3.573-1.293c-1.082-1.432-1.455-3.833-1.058-6.414     c-0.308,0.071-0.624,0.151-0.949,0.235c-2.998,0.786-4.707,2.585-5.078,5.341c-0.676,5.03,3.197,11.971,7.135,14.871     c1.964-2.596,4.728-4.164,6.405-4.164c0.849,0,1.532,0.378,1.874,1.035c0.552,1.059,0.13,2.523-1.328,4.599     c-1.431,2.039-3.694,2.63-6.169,1.595c-0.623,1.324-1.058,3.111-0.514,5.164c0.655,2.47,2.339,3.72,5.006,3.72     c1.395,0,2.957-0.369,4.413-1.03c-0.945-2.314-0.556-4.46,0.212-5.801c0.701-1.224,1.801-1.954,2.942-1.954     c0.639,0,1.849,0.24,2.793,1.85c0.497,0.848,0.62,1.817,0.354,2.805C350.431,306.63,349.296,308.024,347.629,309.184z      M347.654,302.872c-0.251,0-0.647,0.251-0.968,0.811c-0.438,0.764-0.682,2.061-0.188,3.513c1.115-0.811,1.891-1.732,2.108-2.534     c0.108-0.402,0.07-0.74-0.12-1.064C348.215,303.136,347.912,302.872,347.654,302.872z M357.094,299.554     c0.26,0.673,1.807,2.225,4.404,3.085c-0.279-1.273-1.014-2.723-2.899-3.036C357.896,299.487,357.318,299.505,357.094,299.554z      M336.836,298.537c1.316,0.435,2.306,0.147,3.067-0.937c0.738-1.053,1.002-1.683,1.094-2.019     C340.034,295.765,338.265,296.769,336.836,298.537z M363.426,285.307c-1.517,0-2.495,0.384-2.762,0.74     c-0.041,0.056-0.087,0.115-0.031,0.304c0.061,0.209,0.145,0.497,0.896,0.497c1.254,0,3.078-0.835,3.985-1.321     C364.813,285.382,364.105,285.307,363.426,285.307z M336.108,276.521c-0.555,2.476-0.211,4.606,0.472,5.512     c0.5,0.664,0.855,0.542,1.229,0.449c2.557-0.611,4.53-2.994,4.35-4.515c-0.173-1.479-2.601-1.639-3.637-1.639     C337.801,276.328,336.992,276.392,336.108,276.521z M356.702,274.045c-1.064,1.186-1.645,2.396-1.809,3.074     c0.599-0.209,1.334-0.76,1.698-1.544C356.824,275.068,356.862,274.558,356.702,274.045z"/>
			<circle style="fill:#ECD673;" cx="349.64" cy="288.806" r="9.998"/>
		</g>
		<g>
			<path style="fill:#D17D92;" d="M338.671,246.075c0,0,19.101-12.228,2.986-23.9c-16.114-11.672-27.997,10.233-23.199,10.51     c4.798,0.277,14.593-11.131-10.113-17.25c-24.706-6.119-27.573,28.528-17.183,26.042c10.39-2.486,16.047-19.194-9.399-12.518     c-25.446,6.677,4.206,51.104,14.027,37.105c9.821-13.999-15.744-3.132-11.487,12.915c4.257,16.048,30.681,3.132,25.962-4.919     s-15.175,8.381,2.724,16.947c17.899,8.565,26.595-22.288,12.901-24.561c-13.695-2.273,4.548,17.422,21.349,6.542     s6.992-20.582-0.252-27.667c-7.244-7.085-21.375-3.952-19.828,1.323C328.704,251.918,338.671,246.075,338.671,246.075z"/>
			<path style="fill:#2B2330;" d="M316.877,277.109c-1.34,0-2.726-0.338-4.12-1.004c-2.161-1.035-3.826-2.319-4.964-3.824     c-1.802,0.851-3.777,1.326-5.549,1.326c-3.666,0-6.292-1.972-7.205-5.412c-0.612-2.307-0.359-4.666,0.731-6.876     c-4.538-3.276-8.995-11.124-8.19-17.107c0.349-2.585,1.802-5.939,6.755-7.238c0.755-0.198,1.465-0.362,2.132-0.497     c1.376-4.004,4.818-8.04,10.668-8.04c1.149,0,2.366,0.158,3.616,0.466c3.875,0.959,6.71,2.223,8.449,3.76     c3.571-2.512,7.876-2.405,11.813,0.442c2.763,2.001,4.215,4.266,4.319,6.729c0.114,2.765-1.48,5.168-3.205,6.94     c0.756,0.449,1.44,0.971,2.042,1.559l0.954,0.917c2.556,2.443,5.454,5.212,5.131,8.644c-0.239,2.532-2.189,4.948-5.962,7.393     c-2.538,1.643-5.352,2.356-8.275,2.099c-0.298,2.703-1.526,5.379-3.358,7.218C321.026,276.243,319.026,277.109,316.877,277.109z      M309.785,271.135c0.915,1.119,2.24,2.099,3.954,2.918c1.085,0.52,2.14,0.782,3.138,0.782c1.934,0,3.337-0.999,4.173-1.837     c1.488-1.495,2.507-3.778,2.722-6.01c-3.814-1.024-7.024-3.7-6.824-5.848c0.048-0.535,0.401-2.463,4.181-1.832     c2.767,0.46,4.588,2.643,4.909,5.794c2.472,0.26,4.857-0.324,7.018-1.726c3.108-2.012,4.768-3.929,4.935-5.697     c0.22-2.336-2.149-4.597-4.438-6.785l-0.973-0.937c-0.631-0.617-1.383-1.144-2.241-1.57c-0.666,0.531-1.136,0.833-1.16,0.848     c-0.354,0.209-3.193,1.834-5.492,1.834l0,0c-1.559,0-2.682-0.777-3.079-2.132c-0.242-0.826-0.102-1.646,0.393-2.308     c0.786-1.048,2.456-1.65,4.583-1.65c1.42,0,2.937,0.269,4.341,0.766c1.397-1.304,3.234-3.476,3.136-5.821     c-0.072-1.732-1.209-3.407-3.38-4.979c-1.671-1.213-3.35-1.826-4.987-1.826c-1.648,0-3.026,0.62-4.044,1.308     c0.706,1.304,0.774,2.732,0.163,4.049c-0.781,1.686-2.585,2.954-4.196,2.954c-0.928-0.047-1.525-0.504-1.766-1.224     c-0.491-1.468,0.647-4.011,2.606-6.045c-1.175-0.948-3.324-2.081-7.25-3.054c-1.072-0.267-2.104-0.4-3.069-0.4     c-4.715,0-7.017,3.143-8.056,5.372c0.564-0.053,1.098-0.08,1.599-0.08c4.933,0,5.767,2.55,5.895,3.647     c0.339,2.869-2.503,6.139-6.08,6.994c-1.406,0.34-2.698-0.129-3.573-1.293c-1.082-1.432-1.455-3.833-1.058-6.414     c-0.308,0.071-0.624,0.151-0.949,0.235c-2.998,0.786-4.707,2.585-5.078,5.341c-0.676,5.03,3.197,11.971,7.135,14.869     c1.964-2.594,4.727-4.162,6.404-4.162c0.851,0,1.534,0.378,1.876,1.035c0.552,1.059,0.13,2.523-1.328,4.599     c-1.43,2.039-3.693,2.627-6.169,1.595c-0.624,1.324-1.059,3.111-0.514,5.164c0.655,2.47,2.339,3.72,5.006,3.72     c1.395,0,2.957-0.369,4.412-1.03c-0.944-2.314-0.555-4.46,0.212-5.801c0.702-1.224,1.802-1.954,2.943-1.954     c0.639,0,1.849,0.24,2.793,1.85c0.497,0.848,0.621,1.817,0.355,2.805C312.589,268.579,311.454,269.974,309.785,271.135z      M309.811,264.821c-0.251,0-0.647,0.251-0.969,0.811c-0.436,0.764-0.681,2.061-0.187,3.513c1.115-0.811,1.891-1.73,2.108-2.534     c0.108-0.402,0.07-0.74-0.12-1.064C310.372,265.086,310.069,264.821,309.811,264.821z M319.251,261.503     c0.259,0.673,1.807,2.225,4.404,3.085c-0.278-1.273-1.014-2.723-2.899-3.036C320.053,261.439,319.474,261.454,319.251,261.503z      M298.993,260.486c1.315,0.435,2.305,0.149,3.067-0.937c0.737-1.053,1.001-1.683,1.094-2.019     C302.191,257.714,300.422,258.718,298.993,260.486z M325.583,247.256c-1.517,0-2.495,0.384-2.762,0.74     c-0.041,0.053-0.087,0.115-0.031,0.304c0.061,0.209,0.145,0.497,0.896,0.497c1.26,0,3.081-0.835,3.987-1.321     C326.971,247.332,326.263,247.256,325.583,247.256z M298.265,238.47c-0.555,2.476-0.211,4.606,0.472,5.512     c0.501,0.666,0.853,0.542,1.229,0.449c2.557-0.611,4.53-2.994,4.35-4.515c-0.174-1.479-2.602-1.639-3.637-1.639     C299.958,238.277,299.149,238.342,298.265,238.47z M318.859,235.994c-1.064,1.186-1.645,2.396-1.809,3.074     c0.599-0.209,1.334-0.76,1.698-1.544C318.981,237.018,319.019,236.507,318.859,235.994z"/>
			<circle style="fill:#ECD673;" cx="311.797" cy="250.756" r="9.998"/>
		</g>
		<path style="fill:#2B2330;" d="M117.285,258.378c-8.907,0.002-15.234-6.609-18.578-13.427c-6.386,2.916-15.078,4.262-20.826,2.987    c-7.349-1.635-11.465-10.192-10.7-17.161c0.76-6.916,5.822-11.044,13.542-11.044c0.629,0,1.137,0.509,1.137,1.137    s-0.509,1.137-1.137,1.137c-6.541,0-10.652,3.287-11.281,9.019c-0.644,5.865,2.866,13.343,8.932,14.691    c5.548,1.233,13.651-0.224,19.405-2.849c-0.141-0.351-0.274-0.7-0.399-1.046c-1.752-4.877-2.334-10.656,0.315-12.577    c1.032-0.748,2.87-1.159,5.789,1.11c4.13,3.214,3.874,6.272,2.933,8.273c-0.943,2.003-3.006,3.804-5.681,5.299    c3.148,6.443,9.178,12.644,17.552,12.146c6.7-0.418,11.788-2.583,14.583-6.092c-3.694-2.827-6.266-6.576-7.691-10.154    c-1.852-4.651-1.761-8.797,0.225-10.318c0.778-0.593,2.504-1.273,5.316,0.833c5.484,4.113,8.001,10.787,6.261,16.606    c-0.26,0.866-0.6,1.69-1.018,2.47c3.531,2.148,8.004,3.338,13.424,2.767c7.283-0.766,11.792-2.963,13.4-6.527    c2.427-5.379-2.477-12.375-2.527-12.446c-0.363-0.511-0.244-1.221,0.267-1.586c0.509-0.364,1.218-0.242,1.585,0.264    c0.235,0.329,5.712,8.12,2.754,14.693c-1.962,4.36-7.089,7.005-15.24,7.862c-5.986,0.633-10.952-0.753-14.872-3.169    c-3.174,4.091-8.869,6.6-16.324,7.067C118.044,258.367,117.661,258.378,117.285,258.378z M127.245,231.181    c-0.185,0-0.34,0.044-0.458,0.133c-0.788,0.604-1.173,3.458,0.505,7.671c1.318,3.309,3.573,6.629,6.783,9.128    c0.294-0.58,0.537-1.186,0.727-1.817c1.468-4.91-0.721-10.591-5.446-14.134C128.502,231.521,127.757,231.181,127.245,231.181z     M99.559,230.935c-0.21,0-0.389,0.049-0.527,0.151c-1.18,0.855-1.328,4.908,0.489,9.967c0.093,0.258,0.191,0.52,0.294,0.78    c2.198-1.248,3.843-2.681,4.545-4.173c0.319-0.677,1.289-2.741-2.272-5.51C101.069,231.359,100.175,230.935,99.559,230.935z"/>
		<g>
			<path style="fill:#2B2330;" d="M252.023,329.465c-1.441,0-2.844-0.302-3.77-1.224c-0.444-0.444-0.446-1.164-0.002-1.608     c0.444-0.446,1.164-0.446,1.608-0.004c1.193,1.193,5.172,0.269,6.914-0.36c0.592-0.213,1.241,0.089,1.456,0.682     c0.213,0.591-0.092,1.241-0.683,1.455C257.112,328.563,254.511,329.465,252.023,329.465z"/>
			<path style="fill:#2B2330;" d="M262.384,333.889c-1.44,0-2.843-0.3-3.768-1.221c-0.444-0.444-0.446-1.164-0.002-1.608     c0.444-0.446,1.164-0.444,1.608-0.004c1.188,1.186,5.171,0.269,6.914-0.362c0.589-0.215,1.243,0.091,1.457,0.682     c0.213,0.591-0.092,1.241-0.682,1.455C267.477,332.987,264.874,333.889,262.384,333.889z"/>
			<path style="fill:#2B2330;" d="M237.836,334.071c-1.44,0-2.843-0.3-3.768-1.221c-0.444-0.444-0.446-1.164-0.002-1.608     c0.443-0.446,1.163-0.446,1.608-0.004c1.084,1.079,4.695,0.435,6.914-0.364c0.591-0.209,1.241,0.095,1.456,0.684     c0.213,0.591-0.092,1.241-0.682,1.455C242.927,333.169,240.325,334.071,237.836,334.071z"/>
			<path style="fill:#2B2330;" d="M233.003,323.091c-1.441,0-2.844-0.302-3.77-1.224c-0.444-0.444-0.446-1.164-0.002-1.608     c0.444-0.446,1.164-0.444,1.608-0.004c1.194,1.195,5.171,0.269,6.914-0.36c0.591-0.215,1.241,0.089,1.456,0.682     c0.213,0.591-0.092,1.241-0.683,1.455C238.092,322.189,235.491,323.091,233.003,323.091z"/>
			<path style="fill:#2B2330;" d="M223.951,331.164c-1.441,0-2.844-0.302-3.77-1.224c-0.444-0.444-0.446-1.164-0.002-1.608     c0.443-0.446,1.163-0.446,1.608-0.004c1.192,1.193,5.172,0.269,6.914-0.36c0.589-0.215,1.243,0.089,1.456,0.682     c0.213,0.591-0.092,1.241-0.683,1.455C229.04,330.262,226.439,331.164,223.951,331.164z"/>
			<path style="fill:#2B2330;" d="M248.638,322.353c-1.44,0-2.843-0.3-3.768-1.221c-0.444-0.444-0.446-1.164-0.002-1.608     c0.443-0.446,1.163-0.446,1.608-0.004c1.188,1.186,5.171,0.266,6.914-0.362c0.589-0.215,1.244,0.089,1.457,0.682     c0.213,0.591-0.092,1.241-0.682,1.455C253.73,321.452,251.128,322.353,248.638,322.353z"/>
			<path style="fill:#2B2330;" d="M265.382,325.427c-1.441,0-2.845-0.302-3.77-1.224c-0.444-0.444-0.445-1.164-0.002-1.608     c0.445-0.446,1.165-0.444,1.608-0.004c1.19,1.193,5.174,0.269,6.914-0.36c0.589-0.215,1.243,0.089,1.456,0.682     c0.213,0.591-0.092,1.241-0.683,1.455C270.47,324.525,267.871,325.427,265.382,325.427z"/>
		</g>
		<path style="fill:#2B2330;" d="M402.901,445.893c-0.399,0-0.785-0.209-0.993-0.582c-1.618-2.887-6.714-5.284-8.542-5.963    c-0.589-0.22-0.888-0.873-0.67-1.464c0.22-0.589,0.874-0.886,1.462-0.668c0.3,0.111,7.38,2.783,9.732,6.985    c0.308,0.549,0.112,1.241-0.436,1.548C403.28,445.846,403.089,445.893,402.901,445.893z"/>
		<path style="fill:#2B2330;" d="M395.668,455.56c-0.399,0-0.785-0.209-0.993-0.582c-1.944-3.469-8.475-5.939-8.542-5.963    c-0.587-0.22-0.887-0.875-0.667-1.464c0.218-0.589,0.875-0.886,1.461-0.668c0.3,0.111,7.379,2.783,9.731,6.985    c0.308,0.549,0.112,1.241-0.436,1.548C396.046,455.514,395.855,455.56,395.668,455.56z"/>
		<path style="fill:#2B2330;" d="M230.282,483.108c-0.108,0-0.218-0.016-0.326-0.049c-0.602-0.18-0.943-0.813-0.763-1.415    c0.949-3.169-0.874-8.497-1.657-10.283c-0.252-0.575,0.01-1.246,0.585-1.499c0.581-0.249,1.246,0.011,1.498,0.584    c0.129,0.295,3.134,7.24,1.752,11.851C231.224,482.79,230.772,483.108,230.282,483.108z"/>
		<path style="fill:#2B2330;" d="M218.306,484.638c-0.108,0-0.218-0.016-0.326-0.049c-0.602-0.18-0.943-0.813-0.763-1.415    c0.949-3.169-0.875-8.497-1.658-10.283c-0.252-0.575,0.01-1.246,0.585-1.499c0.579-0.249,1.246,0.011,1.498,0.584    c0.129,0.295,3.135,7.24,1.753,11.851C219.248,484.321,218.796,484.638,218.306,484.638z"/>
		<path style="fill:#2B2330;" d="M264.341,426.4c-5.732,0-11.692-0.209-17.886-0.629c-0.627-0.042-1.1-0.586-1.058-1.213    c0.043-0.624,0.597-1.104,1.212-1.057c43.461,2.945,75.348-4.528,94.771-22.218c17.175-15.644,17.838-33.937,17.843-34.122    c0.017-0.624,0.583-1.155,1.165-1.108c0.627,0.016,1.124,0.537,1.109,1.164c-0.019,0.784-0.655,19.382-18.532,35.699    C325.862,418.527,299.461,426.4,264.341,426.4z"/>
		<g>
			<path style="fill:#2B2330;" d="M193.838,447.683c-0.408,0-0.801-0.22-1.005-0.604c-0.342-0.644-3.279-6.372-1.143-9.226     c0.376-0.502,1.088-0.606,1.592-0.229c0.502,0.378,0.605,1.088,0.229,1.592c-1.007,1.346,0.461,5.159,1.329,6.796     c0.295,0.555,0.084,1.244-0.471,1.537C194.2,447.64,194.017,447.683,193.838,447.683z"/>
			<path style="fill:#2B2330;" d="M190.914,458.565c-0.408,0-0.801-0.22-1.005-0.604c-0.342-0.642-3.28-6.37-1.144-9.223     c0.375-0.5,1.09-0.606,1.592-0.229c0.502,0.378,0.605,1.088,0.229,1.592c-1.007,1.346,0.462,5.157,1.33,6.794     c0.295,0.553,0.084,1.241-0.47,1.537C191.276,458.523,191.094,458.565,190.914,458.565z"/>
			<path style="fill:#2B2330;" d="M187.283,434.286c-0.408,0-0.801-0.22-1.005-0.604c-0.342-0.644-3.28-6.372-1.143-9.223     c0.376-0.502,1.088-0.606,1.591-0.229c0.503,0.378,0.605,1.09,0.228,1.592c-1.006,1.344,0.463,5.157,1.331,6.794     c0.295,0.555,0.084,1.241-0.471,1.537C187.645,434.244,187.462,434.286,187.283,434.286z"/>
			<path style="fill:#2B2330;" d="M197.475,427.954c-0.408,0-0.801-0.22-1.005-0.604c-0.342-0.642-3.28-6.37-1.143-9.223     c0.379-0.5,1.088-0.606,1.592-0.229c0.503,0.378,0.605,1.09,0.229,1.592c-0.917,1.224,0.225,4.711,1.33,6.794     c0.293,0.555,0.082,1.244-0.472,1.537C197.837,427.912,197.654,427.954,197.475,427.954z"/>
			<path style="fill:#2B2330;" d="M188.21,420.128c-0.408,0-0.801-0.22-1.005-0.604c-0.342-0.644-3.279-6.372-1.142-9.223     c0.375-0.5,1.087-0.609,1.591-0.229c0.503,0.378,0.605,1.09,0.228,1.592c-1.006,1.344,0.462,5.157,1.33,6.794     c0.295,0.555,0.084,1.244-0.471,1.537C188.572,420.086,188.39,420.128,188.21,420.128z"/>
			<path style="fill:#2B2330;" d="M200.402,443.334c-0.408,0-0.801-0.22-1.005-0.604c-0.342-0.644-3.28-6.372-1.143-9.223     c0.375-0.502,1.087-0.606,1.591-0.229c0.503,0.378,0.605,1.09,0.228,1.592c-1.006,1.344,0.463,5.157,1.331,6.794     c0.295,0.555,0.084,1.241-0.471,1.537C200.764,443.292,200.582,443.334,200.402,443.334z"/>
			<path style="fill:#2B2330;" d="M199.714,460.342c-0.408,0-0.801-0.22-1.005-0.604c-0.342-0.644-3.28-6.372-1.144-9.226     c0.375-0.502,1.089-0.606,1.592-0.229c0.502,0.378,0.605,1.088,0.229,1.592c-1.007,1.346,0.462,5.159,1.33,6.796     c0.295,0.555,0.084,1.241-0.471,1.537C200.076,460.3,199.894,460.342,199.714,460.342z"/>
		</g>
		<g>
			<path style="fill:#2B2330;" d="M53.415,316.835c-0.408,0-0.801-0.22-1.005-0.604c-0.342-0.644-3.28-6.372-1.143-9.226     c0.379-0.5,1.088-0.606,1.592-0.229c0.503,0.378,0.605,1.09,0.229,1.592c-1.008,1.346,0.461,5.159,1.329,6.796     c0.295,0.555,0.084,1.241-0.471,1.537C53.777,316.792,53.595,316.835,53.415,316.835z"/>
			<path style="fill:#2B2330;" d="M50.49,327.717c-0.408,0-0.801-0.22-1.005-0.604c-0.342-0.644-3.279-6.372-1.142-9.223     c0.376-0.502,1.089-0.606,1.591-0.229c0.503,0.378,0.605,1.09,0.228,1.592c-1.006,1.344,0.462,5.157,1.33,6.794     c0.295,0.555,0.084,1.244-0.471,1.537C50.852,327.675,50.67,327.717,50.49,327.717z"/>
			<path style="fill:#2B2330;" d="M46.859,303.438c-0.408,0-0.801-0.22-1.005-0.604c-0.342-0.644-3.279-6.372-1.143-9.226     c0.375-0.5,1.089-0.606,1.592-0.229c0.502,0.378,0.605,1.088,0.229,1.592c-1.007,1.346,0.461,5.159,1.329,6.796     c0.295,0.555,0.084,1.244-0.471,1.537C47.221,303.396,47.039,303.438,46.859,303.438z"/>
			<path style="fill:#2B2330;" d="M57.053,297.106c-0.408,0-0.801-0.22-1.005-0.604c-0.342-0.642-3.28-6.37-1.144-9.223     c0.375-0.502,1.089-0.606,1.592-0.229c0.502,0.378,0.605,1.088,0.229,1.592c-1.007,1.346,0.462,5.157,1.33,6.794     c0.295,0.553,0.084,1.241-0.47,1.537C57.415,297.064,57.233,297.106,57.053,297.106z"/>
			<path style="fill:#2B2330;" d="M47.787,289.28c-0.408,0-0.801-0.22-1.005-0.604c-0.342-0.644-3.28-6.372-1.144-9.226     c0.375-0.502,1.089-0.606,1.592-0.229c0.502,0.378,0.605,1.088,0.229,1.592c-1.007,1.346,0.462,5.159,1.33,6.796     c0.295,0.555,0.084,1.241-0.471,1.537C48.149,289.238,47.967,289.28,47.787,289.28z"/>
			<path style="fill:#2B2330;" d="M59.979,312.486c-0.408,0-0.801-0.22-1.005-0.604c-0.342-0.644-3.279-6.372-1.142-9.223     c0.375-0.5,1.087-0.606,1.591-0.229c0.503,0.378,0.605,1.09,0.228,1.592c-1.006,1.344,0.462,5.157,1.33,6.794     c0.295,0.555,0.084,1.244-0.471,1.537C60.341,312.444,60.159,312.486,59.979,312.486z"/>
			<path style="fill:#2B2330;" d="M59.292,329.494c-0.408,0-0.801-0.22-1.005-0.604c-0.342-0.644-3.28-6.372-1.144-9.226     c0.375-0.502,1.089-0.606,1.592-0.229c0.502,0.378,0.605,1.088,0.229,1.592c-1.007,1.346,0.462,5.159,1.33,6.796     c0.295,0.555,0.084,1.241-0.471,1.537C59.654,329.451,59.472,329.494,59.292,329.494z"/>
		</g>
		<path style="fill:#2B2330;" d="M402.163,279.861c-2.319,0-4.656-0.189-6.907-0.44c-0.824-0.091-2.754-0.306-2.876-1.803    c-0.066-0.804-0.211-2.587,13.341-6.716c-4.191-0.837-10.143-2.239-13.717-4.026c-1.405-0.702-1.571-1.577-1.464-2.188    c0.344-1.952,5.844-3.671,16.367-5.119c-3.166-1.361-7.259-3.536-9.544-6.392c-1.004-1.257-0.702-2.21-0.432-2.665    c1.658-2.796,13.048-1.277,19.688-0.12c0.619,0.107,1.033,0.695,0.925,1.315c-0.108,0.62-0.698,1.046-1.315,0.924    c-8.046-1.399-15.683-1.846-17.206-1.033c0.029,0.042,0.067,0.096,0.117,0.158c3.557,4.448,12.737,7.247,12.83,7.276    c0.516,0.155,0.853,0.651,0.805,1.188c-0.048,0.537-0.466,0.968-1.003,1.03c-7.61,0.877-16.294,2.459-18.581,3.676    c5.589,2.71,17.545,4.573,17.667,4.591c0.529,0.082,0.929,0.522,0.962,1.055c0.032,0.535-0.313,1.019-0.828,1.164    c-6.093,1.706-12.97,4.038-15.498,5.423c0.004,0.002,0.01,0.002,0.014,0.002c6.666,0.742,14.129,0.951,18.916-3.094    c2.835-2.401,4.414-6.147,4.692-11.14c0.034-0.629,0.545-1.148,1.198-1.073c0.627,0.033,1.107,0.571,1.072,1.197    c-0.313,5.643-2.161,9.932-5.492,12.75C412.162,278.957,407.21,279.861,402.163,279.861z"/>
		<path style="fill:#2B2330;" d="M310.716,320.155c-7.226,0-13.443-3.8-13.811-4.029c-0.533-0.333-0.696-1.033-0.364-1.566    c0.332-0.535,1.032-0.695,1.566-0.366c0.116,0.071,11.751,7.16,20.81,1.393c1.361-0.866,1.763-1.532,1.686-1.866    c-0.258-1.099-3.115-2.283-6.964-3.262c-5.416-0.557-9.952-1.723-10.303-1.817c-0.576-0.149-0.938-0.72-0.831-1.304    c0.107-0.589,0.648-0.997,1.24-0.926c2.061,0.222,6.428,0.775,10.47,1.812c4.473,0.442,9.442,0.435,12.809-1.03    c0.032-0.016,0.062-0.029,0.091-0.042c-2.869-1.421-15.185-3.14-26.032-4.018c-0.573-0.047-1.021-0.513-1.044-1.088    c-0.023-0.573,0.386-1.075,0.954-1.166c6.465-1.048,17.372-3.7,19.121-6.358c0.205-0.313,0.163-0.482,0.144-0.555    c-0.032-0.129-0.118-0.324-0.478-0.533c-2.796-1.61-13.081,0.395-18.908,2.043c-0.6,0.169-1.234-0.18-1.404-0.786    c-0.171-0.604,0.18-1.233,0.784-1.404c1.636-0.462,16.123-4.444,20.664-1.821c0.807,0.466,1.343,1.139,1.546,1.945    c0.2,0.791,0.044,1.608-0.45,2.359c-1.68,2.556-7.858,4.539-13.052,5.805c13.474,1.408,20.472,3.198,20.829,5.339    c0.161,0.962-0.464,1.757-1.858,2.363c-2.062,0.899-4.597,1.317-7.248,1.437c1.132,0.72,1.91,1.546,2.131,2.49    c0.351,1.499-0.55,2.945-2.678,4.302C317.066,319.462,313.799,320.155,310.716,320.155z"/>
	</g>
	<path style="fill:#2B2330;" d="M460.696,368.31c-0.975,0-1.921-0.056-2.812-0.167c-0.623-0.078-1.066-0.644-0.988-1.268   c0.077-0.622,0.65-1.066,1.268-0.988c1.329,0.164,2.803,0.191,4.32,0.084c0.63-0.053,1.17,0.429,1.214,1.055   c0.044,0.626-0.428,1.17-1.054,1.215C461.982,368.288,461.333,368.31,460.696,368.31z M467.062,367.589   c-0.525,0-0.996-0.364-1.11-0.899c-0.132-0.613,0.26-1.219,0.874-1.35c1.391-0.298,2.827-0.691,4.264-1.17   c0.603-0.202,1.24,0.127,1.439,0.72c0.198,0.595-0.124,1.239-0.72,1.439c-1.518,0.504-3.034,0.922-4.508,1.237   C467.221,367.58,467.141,367.589,467.062,367.589z M453.633,367.031c-0.148,0-0.296-0.029-0.441-0.089   c-1.471-0.617-2.779-1.446-3.887-2.459c-0.463-0.424-0.494-1.144-0.07-1.608c0.425-0.464,1.142-0.495,1.607-0.071   c0.913,0.837,2,1.524,3.231,2.041c0.579,0.242,0.851,0.911,0.607,1.488C454.499,366.769,454.077,367.031,453.633,367.031z    M475.696,364.748c-0.438,0-0.855-0.253-1.043-0.68c-0.252-0.575,0.009-1.246,0.584-1.499c1.335-0.586,2.684-1.244,4.008-1.957   c0.553-0.293,1.244-0.089,1.54,0.462c0.298,0.553,0.09,1.244-0.463,1.541c-1.377,0.74-2.779,1.426-4.17,2.037   C476.004,364.717,475.848,364.748,475.696,364.748z M483.708,360.444c-0.375,0-0.743-0.184-0.959-0.524   c-0.338-0.531-0.183-1.233,0.346-1.572c1.249-0.797,2.486-1.65,3.677-2.538c0.504-0.375,1.215-0.269,1.591,0.233   c0.375,0.504,0.271,1.217-0.232,1.592c-1.235,0.919-2.517,1.803-3.812,2.632C484.129,360.386,483.918,360.444,483.708,360.444z    M491.001,355.016c-0.32,0-0.637-0.135-0.864-0.398c-0.409-0.475-0.353-1.193,0.124-1.603c1.128-0.968,2.234-1.988,3.287-3.029   c0.449-0.444,1.166-0.435,1.608,0.009c0.442,0.446,0.438,1.166-0.009,1.608c-1.09,1.079-2.236,2.134-3.407,3.14   C491.528,354.925,491.263,355.016,491.001,355.016z M497.466,348.618c-0.267,0-0.533-0.093-0.748-0.282   c-0.473-0.413-0.522-1.13-0.107-1.603c0.973-1.115,1.921-2.281,2.814-3.469c0.375-0.497,1.088-0.604,1.592-0.224   c0.502,0.378,0.602,1.09,0.224,1.592c-0.926,1.233-1.908,2.443-2.92,3.598C498.097,348.487,497.782,348.618,497.466,348.618z    M502.923,341.344c-0.209,0-0.42-0.058-0.609-0.178c-0.531-0.335-0.688-1.039-0.351-1.568c0.802-1.266,1.552-2.563,2.23-3.858   c0.293-0.557,0.986-0.762,1.537-0.48c0.555,0.293,0.771,0.979,0.48,1.537c-0.708,1.348-1.49,2.701-2.327,4.018   C503.667,341.158,503.298,341.344,502.923,341.344z M507.141,333.289c-0.147,0-0.295-0.029-0.438-0.089   c-0.58-0.242-0.853-0.906-0.611-1.486c0.573-1.375,1.086-2.776,1.521-4.171c0.191-0.6,0.831-0.931,1.426-0.746   c0.6,0.189,0.933,0.826,0.746,1.426c-0.46,1.461-0.995,2.929-1.597,4.366C508.007,333.027,507.585,333.289,507.141,333.289z    M509.855,324.63c-0.08,0-0.158-0.009-0.238-0.024c-0.613-0.129-1.006-0.733-0.877-1.348c0.309-1.459,0.546-2.932,0.706-4.377   c0.069-0.622,0.6-1.068,1.257-1.004c0.624,0.069,1.073,0.631,1.004,1.257c-0.169,1.517-0.418,3.063-0.742,4.595   C510.852,324.263,510.379,324.63,509.855,324.63z M510.858,315.611c-0.004,0-0.009,0-0.013,0c-0.629-0.007-1.13-0.522-1.124-1.15   l0.004-0.573c0-1.275-0.056-2.574-0.164-3.862c-0.053-0.624,0.411-1.175,1.037-1.228c0.571-0.044,1.175,0.409,1.228,1.037   c0.115,1.35,0.173,2.714,0.173,4.053l-0.004,0.6C511.989,315.111,511.48,315.611,510.858,315.611z M510.09,306.558   c-0.54,0-1.017-0.386-1.117-0.935c-0.258-1.428-0.591-2.885-0.991-4.331c-0.169-0.606,0.187-1.233,0.791-1.399   c0.617-0.169,1.233,0.189,1.399,0.791c0.42,1.512,0.768,3.038,1.039,4.535c0.111,0.617-0.3,1.21-0.917,1.321   C510.225,306.552,510.159,306.558,510.09,306.558z M507.68,297.799c-0.462,0-0.897-0.284-1.066-0.744   c-0.506-1.368-1.082-2.754-1.708-4.118c-0.262-0.571-0.013-1.246,0.557-1.508c0.564-0.262,1.246-0.016,1.508,0.557   c0.651,1.417,1.248,2.856,1.774,4.28c0.218,0.591-0.082,1.244-0.673,1.461C507.945,297.777,507.811,297.799,507.68,297.799z    M503.931,289.52c-0.413,0-0.811-0.227-1.013-0.62c-0.708-1.384-1.417-2.71-2.123-3.973c-0.306-0.549-0.109-1.241,0.438-1.548   c0.546-0.304,1.241-0.109,1.548,0.438c0.72,1.29,1.441,2.638,2.163,4.049c0.286,0.557,0.064,1.244-0.495,1.53   C504.285,289.48,504.107,289.52,503.931,289.52z M499.499,281.585c-0.382,0-0.755-0.193-0.971-0.544   c-0.815-1.333-1.628-2.59-2.434-3.776c-0.353-0.517-0.22-1.226,0.3-1.579c0.515-0.349,1.224-0.222,1.579,0.3   c0.828,1.213,1.659,2.501,2.496,3.869c0.326,0.535,0.158,1.235-0.378,1.564C499.907,281.531,499.703,281.585,499.499,281.585z    M468.927,279.255c-1.62,0-3.116-0.249-4.445-0.74c-0.59-0.215-0.891-0.871-0.674-1.459c0.219-0.589,0.876-0.893,1.46-0.673   c1.077,0.395,2.308,0.597,3.659,0.597l0.385-0.007c0.634-0.029,1.153,0.473,1.172,1.102c0.02,0.629-0.473,1.153-1.1,1.173   L468.927,279.255z M473.824,278.522c-0.495,0-0.951-0.324-1.093-0.824c-0.173-0.604,0.175-1.233,0.78-1.406   c1.337-0.384,2.686-0.924,4.011-1.603c0.559-0.295,1.244-0.069,1.531,0.491c0.286,0.557,0.067,1.244-0.492,1.53   c-1.456,0.751-2.945,1.344-4.424,1.768C474.033,278.509,473.927,278.522,473.824,278.522z M461.283,275.919   c-0.356,0-0.707-0.167-0.929-0.48c-0.775-1.097-1.271-2.385-1.477-3.831c-0.049-0.346-0.074-0.704-0.074-1.073   c0-0.629,0.509-1.15,1.137-1.15s1.137,0.495,1.137,1.124c0,0.284,0.017,0.535,0.052,0.78c0.153,1.084,0.517,2.039,1.082,2.836   c0.363,0.513,0.241,1.224-0.272,1.586C461.739,275.852,461.509,275.919,461.283,275.919z M481.89,274.418   c-0.346,0-0.688-0.158-0.912-0.455c-0.376-0.504-0.273-1.217,0.23-1.592c1.145-0.857,2.246-1.828,3.272-2.885   c0.439-0.451,1.158-0.462,1.608-0.022c0.451,0.438,0.462,1.157,0.024,1.608c-1.11,1.142-2.302,2.192-3.543,3.12   C482.366,274.344,482.127,274.418,481.89,274.418z M494.366,274.08c-0.342,0-0.68-0.153-0.904-0.446   c-0.917-1.199-1.874-2.354-2.841-3.434c-0.42-0.469-0.38-1.188,0.087-1.606c0.466-0.42,1.186-0.382,1.606,0.087   c1.008,1.124,2.001,2.325,2.956,3.571c0.38,0.497,0.286,1.213-0.213,1.595C494.85,274.005,494.608,274.08,494.366,274.08z    M488.211,267.933c-0.231,0-0.463-0.069-0.664-0.215c-0.354-0.255-0.517-0.677-0.461-1.082c-0.992-0.891-1.989-1.697-2.972-2.401   c-0.511-0.364-0.629-1.075-0.263-1.586c0.365-0.513,1.076-0.631,1.587-0.262c0.945,0.675,1.9,1.437,2.848,2.272   c0.465-0.728,0.903-1.481,1.309-2.256c0.293-0.555,0.975-0.764,1.537-0.475c0.555,0.293,0.768,0.979,0.475,1.537   c-0.737,1.399-1.57,2.745-2.474,3.998C488.912,267.768,488.564,267.933,488.211,267.933z M461.123,267.298   c-0.179,0-0.36-0.042-0.529-0.131c-0.555-0.293-0.77-0.979-0.476-1.535c0.744-1.417,1.788-2.758,3.018-3.884   c0.462-0.424,1.183-0.393,1.607,0.071c0.423,0.464,0.391,1.184-0.072,1.608c-1.038,0.948-1.917,2.079-2.541,3.262   C461.927,267.078,461.531,267.298,461.123,267.298z M480.885,262.107c-0.167,0-0.336-0.038-0.496-0.115   c-1.351-0.657-2.705-1.142-4.023-1.444c-0.613-0.14-0.996-0.748-0.856-1.361c0.14-0.611,0.751-0.997,1.36-0.855   c1.489,0.338,3.007,0.882,4.514,1.617c0.565,0.273,0.799,0.955,0.525,1.519C481.711,261.872,481.307,262.107,480.885,262.107z    M467.707,261.27c-0.44,0-0.859-0.258-1.045-0.688c-0.248-0.577,0.019-1.246,0.596-1.492c1.5-0.646,3.104-1.035,4.765-1.155   c0.627-0.056,1.17,0.426,1.216,1.053c0.046,0.626-0.425,1.17-1.052,1.217c-1.408,0.102-2.764,0.429-4.032,0.973   C468.01,261.241,467.856,261.27,467.707,261.27z M492.452,259.922c-0.131,0-0.264-0.022-0.395-0.071   c-0.589-0.218-0.888-0.871-0.671-1.461c0.497-1.346,0.926-2.765,1.27-4.217c0.144-0.613,0.746-0.999,1.368-0.844   c0.611,0.144,0.988,0.757,0.844,1.368c-0.364,1.541-0.82,3.049-1.35,4.484C493.349,259.638,492.914,259.922,492.452,259.922z    M494.564,251.096c-0.047,0-0.096-0.002-0.142-0.009c-0.624-0.078-1.066-0.644-0.988-1.268c0.178-1.437,0.286-2.925,0.322-4.417   c0.016-0.629,0.535-1.088,1.164-1.11c0.629,0.016,1.126,0.537,1.11,1.164c-0.038,1.57-0.153,3.131-0.34,4.644   C495.619,250.674,495.128,251.096,494.564,251.096z M494.799,242.019c-0.595,0-1.097-0.462-1.135-1.064   c-0.091-1.446-0.247-2.938-0.462-4.433c-0.089-0.622,0.344-1.199,0.964-1.288c0.637-0.078,1.199,0.344,1.288,0.964   c0.222,1.557,0.384,3.107,0.48,4.611c0.04,0.629-0.435,1.168-1.062,1.208C494.848,242.019,494.821,242.019,494.799,242.019z    M493.518,233.023c-0.524,0-0.995-0.362-1.11-0.895c-0.324-1.481-0.7-2.932-1.122-4.306c-0.182-0.602,0.155-1.237,0.755-1.421   c0.609-0.18,1.237,0.158,1.421,0.755c0.438,1.437,0.831,2.945,1.166,4.488c0.133,0.613-0.255,1.219-0.868,1.353   C493.678,233.014,493.598,233.023,493.518,233.023z M490.859,224.341c-0.449,0-0.873-0.267-1.053-0.708   c-0.562-1.379-1.19-2.732-1.869-4.015c-0.294-0.555-0.081-1.244,0.474-1.537c0.549-0.289,1.241-0.082,1.537,0.475   c0.713,1.35,1.375,2.769,1.963,4.22c0.238,0.582-0.042,1.246-0.624,1.481C491.148,224.314,491.001,224.341,490.859,224.341z    M486.604,216.33c-0.364,0-0.722-0.175-0.943-0.5c-0.834-1.23-1.737-2.407-2.682-3.5c-0.411-0.475-0.36-1.193,0.115-1.603   c0.471-0.411,1.193-0.36,1.603,0.115c1.004,1.159,1.961,2.41,2.846,3.713c0.352,0.52,0.217,1.226-0.303,1.579   C487.046,216.266,486.824,216.33,486.604,216.33z M447.546,210.858c-0.024,0-0.048,0-0.072-0.002   c-2.159-0.135-3.894-0.899-4.889-2.152c-0.391-0.491-0.309-1.206,0.183-1.597c0.493-0.393,1.207-0.311,1.598,0.184   c0.58,0.731,1.764,1.202,3.25,1.295c0.626,0.04,1.103,0.58,1.064,1.206C448.642,210.394,448.142,210.858,447.546,210.858z    M452.034,210.274c-0.489,0-0.941-0.318-1.088-0.808c-0.182-0.602,0.159-1.237,0.76-1.417c1.315-0.398,2.616-0.986,3.867-1.752   c0.535-0.333,1.234-0.162,1.564,0.373c0.329,0.535,0.16,1.237-0.375,1.564c-1.417,0.871-2.896,1.539-4.397,1.992   C452.252,210.258,452.141,210.274,452.034,210.274z M480.663,209.472c-0.273,0-0.546-0.098-0.764-0.295   c-1.08-0.979-2.238-1.901-3.44-2.745c-0.515-0.36-0.64-1.068-0.28-1.583c0.36-0.513,1.07-0.64,1.583-0.278   c1.28,0.895,2.513,1.879,3.664,2.923c0.465,0.422,0.501,1.139,0.079,1.606C481.282,209.346,480.973,209.472,480.663,209.472z    M459.739,205.601c-0.295,0-0.591-0.113-0.813-0.342c-0.44-0.449-0.431-1.17,0.018-1.608c0.969-0.946,1.863-2.017,2.661-3.183   c-0.487-0.076-0.976-0.14-1.465-0.193c-0.624-0.069-1.075-0.631-1.006-1.255s0.612-1.086,1.255-1.006   c1.552,0.171,3.108,0.444,4.624,0.815c0.61,0.149,0.984,0.764,0.835,1.373c-0.15,0.611-0.764,0.979-1.375,0.835   c-0.233-0.056-0.469-0.111-0.704-0.162c0.022,0.249-0.038,0.509-0.19,0.733c-0.905,1.344-1.93,2.578-3.045,3.669   C460.313,205.492,460.026,205.601,459.739,205.601z M443.443,204.862c-0.199,0-0.401-0.051-0.583-0.162   c-0.539-0.322-0.714-1.022-0.391-1.559c0.782-1.306,2.102-2.419,3.923-3.307c0.569-0.271,1.247-0.04,1.52,0.524   c0.275,0.564,0.041,1.244-0.523,1.519c-1.398,0.682-2.425,1.524-2.97,2.432C444.206,204.664,443.83,204.862,443.443,204.862z    M473.231,204.271c-0.178,0-0.359-0.042-0.527-0.131c-1.3-0.682-2.653-1.29-4.019-1.806c-0.587-0.222-0.884-0.877-0.662-1.466   c0.222-0.589,0.879-0.877,1.466-0.662c1.452,0.549,2.889,1.195,4.272,1.921c0.556,0.291,0.771,0.977,0.479,1.535   C474.036,204.049,473.641,204.271,473.231,204.271z M451.206,200.593c-0.531,0-1.005-0.373-1.114-0.913   c-0.123-0.615,0.275-1.215,0.891-1.339c1.475-0.298,3.058-0.471,4.707-0.52c0.615-0.002,1.152,0.477,1.17,1.104   c0.018,0.629-0.476,1.153-1.104,1.17c-1.521,0.044-2.976,0.204-4.325,0.475C451.356,200.587,451.281,200.593,451.206,200.593z    M464.814,198.128c-0.152,0-0.306-0.031-0.455-0.095c-0.575-0.253-0.837-0.924-0.585-1.499c0.566-1.29,1.046-2.678,1.427-4.122   c0.16-0.609,0.783-0.971,1.389-0.811c0.607,0.16,0.969,0.782,0.81,1.388c-0.41,1.559-0.929,3.058-1.542,4.46   C465.669,197.875,465.252,198.128,464.814,198.128z M467.161,189.375c-0.048,0-0.097-0.002-0.145-0.009   c-0.623-0.08-1.064-0.651-0.984-1.273c0.181-1.408,0.286-2.892,0.315-4.408c0.012-0.626,0.534-1.102,1.158-1.115   c0.629,0.011,1.127,0.531,1.116,1.159c-0.03,1.599-0.142,3.165-0.333,4.653C468.214,188.956,467.725,189.375,467.161,189.375z    M467.358,180.301c-0.591,0-1.089-0.458-1.133-1.055c-0.063-0.875-0.15-1.774-0.26-2.696c-0.07-0.593-0.148-1.175-0.23-1.741   c-0.091-0.622,0.339-1.199,0.961-1.29c0.622-0.076,1.198,0.34,1.289,0.962c0.087,0.589,0.167,1.188,0.239,1.801   c0.114,0.955,0.203,1.89,0.269,2.801c0.046,0.626-0.425,1.17-1.052,1.217C467.413,180.301,467.386,180.301,467.358,180.301z    M466.039,171.313c-0.521,0-0.991-0.36-1.108-0.891c-0.332-1.488-0.723-2.929-1.16-4.28c-0.193-0.597,0.134-1.239,0.732-1.432   c0.599-0.193,1.239,0.138,1.431,0.731c0.46,1.419,0.869,2.929,1.216,4.488c0.138,0.613-0.249,1.219-0.862,1.357   C466.204,171.304,466.121,171.313,466.039,171.313z M463.211,162.694c-0.431,0-0.842-0.244-1.034-0.66   c-0.635-1.377-1.345-2.665-2.108-3.829c-0.344-0.524-0.199-1.23,0.326-1.575c0.524-0.344,1.23-0.2,1.575,0.326   c0.825,1.257,1.589,2.645,2.272,4.122c0.263,0.571,0.014,1.246-0.556,1.51C463.532,162.66,463.37,162.694,463.211,162.694z    M458.204,155.158c-0.299,0-0.597-0.118-0.821-0.351c-1.008-1.05-2.111-1.985-3.278-2.774c-0.52-0.351-0.656-1.057-0.304-1.579   c0.351-0.52,1.056-0.66,1.579-0.304c1.299,0.879,2.526,1.917,3.644,3.085c0.435,0.453,0.42,1.173-0.034,1.608   C458.771,155.054,458.488,155.158,458.204,155.158z M450.727,150.121c-0.139,0-0.28-0.024-0.416-0.08   c-1.309-0.513-2.705-0.895-4.149-1.135c-0.62-0.102-1.039-0.688-0.936-1.308c0.101-0.617,0.678-1.05,1.307-0.935   c1.601,0.264,3.153,0.688,4.611,1.264c0.584,0.229,0.872,0.888,0.642,1.472C451.608,149.848,451.18,150.121,450.727,150.121z    M437.308,149.184c-0.5,0-0.957-0.331-1.096-0.835c-0.168-0.604,0.187-1.23,0.791-1.397c0.079-0.022,1.96-0.537,4.78-0.611   c0.6,0.004,1.15,0.477,1.167,1.108c0.016,0.626-0.48,1.148-1.107,1.166c-2.522,0.067-4.217,0.522-4.234,0.529   C437.509,149.171,437.408,149.184,437.308,149.184z"/>
	<path style="fill:#2B2330;" d="M76.456,452.56c-0.018,0-0.034,0-0.052-0.002c-1.689-0.073-3.284-0.32-4.742-0.728   c-0.604-0.169-0.957-0.797-0.787-1.401c0.171-0.604,0.801-0.953,1.402-0.788c1.289,0.362,2.713,0.58,4.229,0.648   c0.627,0.027,1.113,0.557,1.085,1.186C77.564,452.082,77.06,452.56,76.456,452.56z M80.995,452.382   c-0.57,0-1.062-0.426-1.128-1.006c-0.072-0.624,0.375-1.188,0.999-1.261c1.376-0.158,2.842-0.415,4.355-0.764   c0.621-0.14,1.223,0.242,1.364,0.853c0.141,0.613-0.241,1.224-0.853,1.364c-1.597,0.366-3.146,0.64-4.606,0.808   C81.083,452.38,81.039,452.382,80.995,452.382z M89.862,450.379c-0.48,0-0.925-0.304-1.082-0.786   c-0.194-0.597,0.133-1.239,0.73-1.432c1.486-0.482,2.903-1.002,4.212-1.526c0.577-0.224,1.244,0.053,1.477,0.635   c0.233,0.584-0.051,1.246-0.635,1.479c-1.351,0.537-2.815,1.075-4.35,1.575C90.096,450.361,89.979,450.379,89.862,450.379z    M67.842,450.012c-0.215,0-0.433-0.062-0.627-0.189c-1.358-0.899-2.56-2.03-3.569-3.358c-0.38-0.5-0.283-1.213,0.217-1.595   c0.499-0.378,1.214-0.28,1.593,0.218c0.855,1.124,1.87,2.079,3.015,2.838c0.524,0.346,0.667,1.053,0.321,1.577   C68.573,449.832,68.211,450.012,67.842,450.012z M98.319,447.012c-0.426,0-0.836-0.24-1.029-0.653   c-0.268-0.569-0.024-1.246,0.544-1.512c2.427-1.144,3.96-2.025,3.975-2.034c0.54-0.318,1.238-0.129,1.554,0.415   c0.313,0.544,0.128,1.239-0.416,1.552c-0.064,0.038-1.622,0.935-4.144,2.123C98.646,446.976,98.481,447.012,98.319,447.012z    M62.353,442.954c-0.452,0-0.881-0.271-1.057-0.717c-0.547-1.381-0.985-2.92-1.299-4.573c-0.118-0.617,0.288-1.213,0.904-1.33   c0.63-0.111,1.213,0.289,1.33,0.904c0.288,1.512,0.685,2.912,1.179,4.16c0.231,0.584-0.054,1.246-0.639,1.477   C62.634,442.93,62.493,442.954,62.353,442.954z M60.572,434.08c-0.597,0-1.098-0.466-1.134-1.07   c-0.047-0.791-0.073-1.61-0.078-2.461v-0.273c0-0.662,0.014-1.304,0.043-1.926c0.029-0.629,0.573-1.146,1.188-1.084   c0.627,0.027,1.113,0.56,1.084,1.186c-0.027,0.591-0.041,1.197-0.041,1.823v0.267c0.004,0.804,0.029,1.583,0.073,2.334   c0.038,0.626-0.441,1.164-1.068,1.202C60.617,434.08,60.594,434.08,60.572,434.08z M61.051,425.023c-0.07,0-0.141-0.007-0.213-0.02   c-0.617-0.118-1.022-0.713-0.905-1.328c0.313-1.652,0.761-3.191,1.33-4.577c0.239-0.582,0.906-0.857,1.484-0.622   c0.581,0.24,0.858,0.904,0.62,1.484c-0.046,0.111-0.09,0.224-0.133,0.335c1.52-0.233,2.996-0.502,4.41-0.795   c0.607-0.149,1.216,0.264,1.345,0.882c0.128,0.615-0.268,1.217-0.883,1.344c-1.454,0.302-2.972,0.58-4.535,0.82   c-0.374,0.051-0.726-0.071-0.972-0.313c-0.164,0.6-0.309,1.224-0.431,1.866C62.063,424.643,61.586,425.023,61.051,425.023z    M54.343,423.433c-0.61,0-1.114-0.484-1.135-1.097c-0.022-0.629,0.469-1.155,1.096-1.177c1.502-0.051,2.996-0.155,4.468-0.3   c0.634-0.042,1.18,0.398,1.243,1.022c0.061,0.624-0.395,1.182-1.021,1.244c-1.519,0.149-3.061,0.253-4.611,0.309   C54.371,423.433,54.357,423.433,54.343,423.433z M49.796,423.431c-0.014,0-0.03,0-0.044,0c-1.6-0.062-3.16-0.189-4.637-0.38   c-0.622-0.082-1.062-0.651-0.982-1.275c0.08-0.624,0.639-1.068,1.275-0.982c1.407,0.182,2.898,0.304,4.431,0.362   c0.627,0.024,1.117,0.553,1.093,1.179C50.908,422.949,50.404,423.431,49.796,423.431z M40.792,422.236   c-0.09,0-0.181-0.011-0.272-0.033c-1.575-0.386-3.083-0.866-4.482-1.43c-0.583-0.235-0.865-0.897-0.631-1.479   c0.237-0.584,0.901-0.862,1.479-0.631c1.3,0.524,2.705,0.971,4.175,1.333c0.61,0.149,0.983,0.764,0.834,1.375   C41.768,421.889,41.302,422.236,40.792,422.236z M72.303,420.71c-0.503,0-0.964-0.338-1.098-0.846   c-0.16-0.609,0.202-1.23,0.808-1.39c1.581-0.418,3.026-0.848,4.296-1.27c0.594-0.198,1.239,0.127,1.438,0.722   c0.198,0.595-0.124,1.239-0.721,1.437c-1.31,0.435-2.802,0.879-4.432,1.31C72.497,420.699,72.399,420.71,72.303,420.71z    M32.413,418.793c-0.208,0-0.419-0.058-0.607-0.175c-1.371-0.868-2.631-1.868-3.743-2.969c-0.446-0.442-0.451-1.162-0.009-1.608   c0.441-0.444,1.163-0.453,1.608-0.009c0.997,0.986,2.128,1.883,3.361,2.663c0.531,0.338,0.688,1.039,0.352,1.57   C33.158,418.607,32.79,418.793,32.413,418.793z M80.86,417.681c-0.362,0-0.718-0.173-0.938-0.493   c-0.355-0.517-0.224-1.226,0.294-1.581c0.259-0.178,0.694-0.531,0.694-0.884c0-0.282-0.262-0.666-0.701-1.028   c-0.484-0.4-0.553-1.117-0.153-1.601c0.401-0.486,1.116-0.555,1.601-0.153c0.998,0.824,1.527,1.788,1.527,2.783   c0,0.733-0.292,1.806-1.681,2.758C81.305,417.616,81.082,417.681,80.86,417.681z M64.588,416.755c-0.25,0-0.502-0.082-0.712-0.251   c-0.49-0.393-0.566-1.11-0.173-1.599c1.063-1.319,2.312-2.41,3.714-3.238c0.545-0.315,1.238-0.14,1.558,0.402   c0.319,0.54,0.14,1.237-0.401,1.557c-1.167,0.688-2.21,1.599-3.099,2.705C65.25,416.61,64.922,416.755,64.588,416.755z    M26.03,412.437c-0.379,0-0.748-0.189-0.965-0.533c-0.826-1.319-1.528-2.763-2.083-4.293c-0.215-0.591,0.09-1.244,0.68-1.457   c0.592-0.215,1.243,0.089,1.457,0.68c0.502,1.379,1.133,2.678,1.874,3.862c0.333,0.533,0.172,1.235-0.36,1.568   C26.446,412.382,26.237,412.437,26.03,412.437z M76.772,412.235c-0.066,0-0.132-0.004-0.199-0.018   c-1.329-0.233-2.775-0.24-4.138-0.002c-0.622,0.111-1.206-0.311-1.313-0.931c-0.107-0.617,0.31-1.206,0.928-1.313   c1.62-0.278,3.332-0.275,4.917,0.007c0.619,0.109,1.032,0.7,0.922,1.317C77.794,411.846,77.314,412.235,76.772,412.235z    M22.899,403.971c-0.543,0-1.023-0.389-1.119-0.942c-0.257-1.477-0.415-3.049-0.47-4.675c-0.022-0.626,0.47-1.153,1.097-1.175   c0.619,0.007,1.154,0.471,1.175,1.099c0.052,1.519,0.2,2.987,0.439,4.36c0.108,0.62-0.306,1.208-0.925,1.315   C23.029,403.967,22.963,403.971,22.899,403.971z M22.503,394.91c-0.019,0-0.038,0-0.058-0.002c-0.627-0.031-1.11-0.564-1.079-1.19   c0.078-1.566,0.214-3.118,0.405-4.615c0.08-0.62,0.654-1.062,1.273-0.984c0.623,0.08,1.063,0.648,0.984,1.273   c-0.184,1.439-0.315,2.932-0.39,4.437C23.607,394.437,23.104,394.91,22.503,394.91z M23.666,385.902   c-0.08,0-0.161-0.009-0.242-0.027c-0.613-0.131-1.003-0.737-0.871-1.35c0.333-1.537,0.736-3.052,1.199-4.5   c0.191-0.595,0.824-0.922,1.429-0.737c0.597,0.191,0.928,0.831,0.736,1.43c-0.44,1.379-0.825,2.821-1.142,4.286   C24.661,385.538,24.19,385.902,23.666,385.902z M26.446,377.263c-0.153,0-0.31-0.031-0.46-0.098   c-0.574-0.253-0.833-0.926-0.579-1.499c0.636-1.437,1.356-2.836,2.14-4.162c0.32-0.537,1.018-0.713,1.557-0.4   c0.541,0.32,0.72,1.017,0.4,1.559c-0.737,1.248-1.417,2.567-2.018,3.922C27.299,377.012,26.882,377.263,26.446,377.263z    M39.821,373.181c-0.793,0-1.626-0.047-2.495-0.142c-0.624-0.069-1.075-0.631-1.006-1.255c0.069-0.624,0.61-1.077,1.255-1.006   c1.565,0.173,3.004,0.173,4.26,0c0.632-0.084,1.196,0.349,1.281,0.971c0.087,0.622-0.349,1.197-0.971,1.281   C41.419,373.13,40.637,373.181,39.821,373.181z M32.984,372.201c-0.097,0-0.193-0.011-0.291-0.038   c-1.456-0.382-2.952-0.871-4.446-1.45c-0.585-0.227-0.876-0.884-0.65-1.47c0.227-0.586,0.886-0.879,1.471-0.648   c0.368,0.142,0.736,0.278,1.104,0.409c-0.29-0.402-0.292-0.962,0.03-1.368c0.992-1.257,2.063-2.425,3.184-3.476   c0.461-0.426,1.178-0.404,1.607,0.053c0.43,0.457,0.406,1.177-0.052,1.608c-1.038,0.971-2.032,2.057-2.953,3.223   c-0.15,0.189-0.346,0.318-0.561,0.384c0.621,0.198,1.237,0.378,1.846,0.537c0.606,0.16,0.969,0.782,0.81,1.388   C33.948,371.864,33.488,372.201,32.984,372.201z M46.154,371.375c-0.315,0-0.63-0.131-0.855-0.386   c-0.414-0.473-0.368-1.19,0.104-1.606c0.184-0.16,0.349-0.34,0.49-0.531c0.747-1.01,1.347-1.972,1.783-2.861   c0.275-0.564,0.958-0.793,1.521-0.522c0.564,0.278,0.796,0.959,0.52,1.521c-0.496,1.013-1.167,2.094-1.995,3.214   c-0.237,0.32-0.512,0.62-0.817,0.888C46.688,371.282,46.42,371.375,46.154,371.375z M24.502,368.934   c-0.172,0-0.348-0.04-0.513-0.122c-1.371-0.695-2.734-1.468-4.05-2.296c-0.531-0.333-0.691-1.037-0.355-1.568   c0.333-0.529,1.038-0.691,1.568-0.355c1.255,0.791,2.555,1.528,3.865,2.19c0.56,0.284,0.784,0.968,0.501,1.528   C25.318,368.706,24.918,368.934,24.502,368.934z M16.814,364.086c-0.242,0-0.486-0.078-0.693-0.238   c-1.236-0.953-2.43-1.968-3.548-3.02c-0.458-0.431-0.48-1.15-0.05-1.608c0.43-0.46,1.153-0.48,1.607-0.049   c1.066,1.002,2.203,1.97,3.379,2.878c0.497,0.382,0.59,1.097,0.207,1.595C17.491,363.933,17.155,364.086,16.814,364.086z    M37.735,363.313c-0.372,0-0.737-0.182-0.955-0.517c-0.342-0.529-0.192-1.233,0.335-1.575c1.435-0.931,2.883-1.652,4.303-2.148   c0.594-0.2,1.241,0.107,1.448,0.702c0.207,0.593-0.107,1.241-0.7,1.448c-1.249,0.433-2.533,1.075-3.814,1.908   C38.161,363.253,37.947,363.313,37.735,363.313z M49.573,363.249c-0.524,0-0.995-0.364-1.11-0.897   c-0.215-0.997-1.001-1.579-2.335-1.73c-0.624-0.071-1.073-0.635-1.002-1.259c0.07-0.624,0.63-1.077,1.257-1.002   c2.31,0.262,3.878,1.541,4.303,3.511c0.132,0.613-0.258,1.219-0.872,1.35C49.733,363.24,49.653,363.249,49.573,363.249z    M10.206,357.857c-0.319,0-0.637-0.133-0.862-0.395c-1.027-1.193-1.985-2.441-2.849-3.704c-0.354-0.52-0.22-1.228,0.299-1.581   c0.519-0.349,1.226-0.218,1.58,0.298c0.816,1.197,1.722,2.376,2.694,3.505c0.41,0.475,0.356,1.195-0.12,1.603   C10.733,357.766,10.469,357.857,10.206,357.857z M5.102,350.357c-0.411,0-0.807-0.224-1.011-0.613   c-0.723-1.395-1.36-2.838-1.892-4.291c-0.215-0.591,0.088-1.244,0.677-1.459c0.589-0.215,1.244,0.089,1.459,0.677   c0.499,1.364,1.095,2.716,1.774,4.024c0.289,0.557,0.072,1.244-0.485,1.532C5.457,350.317,5.278,350.357,5.102,350.357z    M1.982,341.842c-0.52,0-0.989-0.358-1.108-0.886c-0.342-1.519-0.589-3.076-0.732-4.633c-0.058-0.626,0.403-1.179,1.028-1.237   c0.635-0.036,1.179,0.402,1.237,1.028c0.134,1.459,0.364,2.918,0.685,4.34c0.138,0.613-0.247,1.221-0.859,1.359   C2.148,341.833,2.065,341.842,1.982,341.842z M1.139,332.816c-0.012,0-0.024,0-0.037,0c-0.627-0.02-1.12-0.544-1.102-1.173   c0.048-1.532,0.187-3.098,0.413-4.655c0.09-0.62,0.662-1.039,1.288-0.962c0.622,0.091,1.053,0.668,0.962,1.29   c-0.213,1.47-0.344,2.949-0.389,4.397C2.255,332.33,1.749,332.816,1.139,332.816z M2.43,323.833c-0.092,0-0.185-0.011-0.28-0.036   c-0.609-0.153-0.977-0.771-0.824-1.379c0.369-1.459,0.821-2.956,1.346-4.451c0.209-0.591,0.856-0.911,1.449-0.695   c0.593,0.209,0.905,0.857,0.696,1.45c-0.502,1.428-0.935,2.858-1.286,4.251C3.402,323.488,2.939,323.833,2.43,323.833z    M5.426,315.258c-0.154,0-0.311-0.031-0.461-0.098c-0.574-0.255-0.832-0.928-0.577-1.501c0.61-1.373,1.293-2.769,2.028-4.158   c0.294-0.555,0.984-0.766,1.538-0.471c0.554,0.293,0.766,0.982,0.472,1.537c-0.712,1.341-1.37,2.692-1.959,4.015   C6.278,315.007,5.863,315.258,5.426,315.258z M9.672,307.225c-0.202,0-0.406-0.053-0.592-0.167   c-0.536-0.329-0.705-1.028-0.378-1.564c0.777-1.27,1.613-2.558,2.508-3.864c0.355-0.517,1.063-0.655,1.581-0.295   c0.517,0.353,0.65,1.062,0.295,1.579c-0.873,1.275-1.687,2.527-2.444,3.767C10.43,307.032,10.056,307.225,9.672,307.225z    M14.815,299.727c-0.239,0-0.481-0.076-0.686-0.231c-0.501-0.38-0.599-1.093-0.219-1.595c0.902-1.186,1.852-2.385,2.854-3.6   c0.399-0.486,1.116-0.557,1.601-0.153c0.484,0.4,0.553,1.117,0.153,1.601c-0.982,1.188-1.914,2.365-2.796,3.529   C15.498,299.572,15.159,299.727,14.815,299.727z M20.625,292.611c-0.261,0-0.515-0.082-0.714-0.26   c-0.466-0.418-0.572-1.062-0.157-1.53c0.002-0.002,0.133-0.149,0.137-0.153c0.422-0.464,1.139-0.497,1.606-0.08   c0.465,0.422,0.502,1.142,0.08,1.608C21.335,292.462,20.976,292.611,20.625,292.611z"/>
</g>















</svg>
