<?xml version="1.0" encoding="UTF-8" standalone="no"?>
<!DOCTYPE svg PUBLIC "-//W3C//DTD SVG 1.1//EN" "http://www.w3.org/Graphics/SVG/1.1/DTD/svg11.dtd">
<svg width="100%" height="100%" viewBox="0 0 512 512" version="1.1" xmlns="http://www.w3.org/2000/svg" xmlns:xlink="http://www.w3.org/1999/xlink" xml:space="preserve" xmlns:serif="http://www.serif.com/" style="fill-rule:evenodd;clip-rule:evenodd;stroke-linejoin:round;stroke-miterlimit:2;">
    <g>
        <g transform="matrix(1,0,0,1,273.417,-306.048)">
            <path d="M206.47,456.175L206.468,456.175C205.651,456.175 205.053,456.175 203.749,449.572C198.421,448.246 197.978,447.583 197.785,447.293C197.601,447.018 197.544,446.557 197.652,446.243C197.8,445.806 198.074,445.001 204.428,442.809C206.962,437.131 207.76,437.13 208.345,437.13C208.703,437.13 209.154,437.378 209.352,437.676C209.718,438.225 209.984,439.397 210.48,441.989C210.597,442.6 210.748,443.388 210.847,443.801C211.195,443.968 211.839,444.238 212.34,444.447C215.401,445.727 216.402,446.22 216.534,447.15C216.587,447.522 216.387,448.016 216.094,448.253C215.414,448.802 212.558,449.717 210.638,450.292C207.674,456.173 207.115,456.174 206.47,456.175ZM200.766,446.525C201.852,446.859 203.479,447.312 204.917,447.657C205.324,447.756 205.637,448.083 205.716,448.495C206.013,450.048 206.406,451.807 206.733,453.01C207.371,451.933 208.224,450.34 208.934,448.919C209.067,448.654 209.303,448.456 209.588,448.372C210.844,448.002 212.252,447.552 213.293,447.182C212.683,446.906 211.996,446.618 211.515,446.417C209.758,445.681 209.333,445.494 209.067,445.096C208.85,444.769 208.75,444.324 208.379,442.388C208.278,441.855 208.133,441.098 207.986,440.415C207.434,441.422 206.747,442.834 206.192,444.098C206.072,444.372 205.841,444.583 205.559,444.68C203.883,445.25 201.992,445.975 200.766,446.525Z" style="fill:rgb(36,23,38);fill-rule:nonzero;"/>
        </g>
        <g transform="matrix(1,0,0,1,0,23)">
            <path d="M323.301,376.386C322.485,376.386 321.887,376.386 320.582,369.783C315.254,368.457 314.811,367.794 314.618,367.504C314.434,367.228 314.377,366.768 314.484,366.454C314.632,366.017 314.906,365.212 321.26,363.021C323.794,357.342 324.592,357.341 325.178,357.341C325.536,357.341 325.987,357.589 326.185,357.887C326.551,358.436 326.817,359.608 327.314,362.199C327.431,362.811 327.582,363.6 327.681,364.013C328.029,364.18 328.676,364.45 329.178,364.66C332.236,365.939 333.235,366.431 333.368,367.361C333.421,367.733 333.221,368.228 332.929,368.464C332.248,369.014 329.392,369.929 327.473,370.503C324.506,376.386 323.947,376.386 323.301,376.386ZM317.6,366.737C318.686,367.071 320.312,367.524 321.75,367.869C322.157,367.968 322.47,368.295 322.549,368.707C322.848,370.26 323.24,372.019 323.567,373.223C324.206,372.146 325.059,370.552 325.769,369.132C325.901,368.867 326.138,368.669 326.423,368.585C327.679,368.215 329.087,367.765 330.128,367.395C329.519,367.12 328.832,366.833 328.352,366.631C326.592,365.895 326.166,365.705 325.9,365.306C325.685,364.982 325.585,364.537 325.214,362.602C325.112,362.068 324.967,361.311 324.821,360.628C324.268,361.635 323.582,363.048 323.026,364.312C322.906,364.587 322.675,364.797 322.392,364.894C320.716,365.462 318.826,366.186 317.6,366.737Z" style="fill:rgb(36,23,38);fill-rule:nonzero;"/>
        </g>
        <g transform="matrix(1,0,0,1,0,23)">
            <path d="M157.074,89.301C156.257,89.301 155.659,89.301 154.355,82.698C149.027,81.372 148.584,80.709 148.391,80.419C148.207,80.143 148.15,79.683 148.258,79.369C148.406,78.932 148.68,78.127 155.034,75.936C157.568,70.257 158.366,70.256 158.952,70.256C159.31,70.256 159.761,70.504 159.959,70.802C160.342,71.376 160.609,72.615 161.086,75.109C161.204,75.723 161.355,76.515 161.455,76.928C161.801,77.094 162.45,77.365 162.952,77.575C166.01,78.854 167.009,79.346 167.142,80.276C167.195,80.649 166.995,81.143 166.703,81.379C166.022,81.929 163.165,82.844 161.246,83.418C158.28,89.301 157.72,89.301 157.074,89.301ZM151.373,79.651C152.459,79.985 154.085,80.438 155.523,80.783C155.93,80.882 156.243,81.209 156.322,81.621C156.619,83.174 157.013,84.933 157.339,86.136C157.977,85.06 158.83,83.466 159.54,82.045C159.672,81.78 159.909,81.582 160.194,81.498C161.451,81.127 162.859,80.678 163.9,80.308C163.291,80.033 162.604,79.746 162.124,79.544C160.363,78.808 159.938,78.618 159.672,78.219C159.457,77.897 159.357,77.45 158.985,75.509C158.883,74.978 158.739,74.223 158.592,73.541C158.04,74.548 157.354,75.961 156.798,77.225C156.678,77.499 156.447,77.71 156.165,77.807C154.49,78.377 152.6,79.1 151.373,79.651Z" style="fill:rgb(36,23,38);fill-rule:nonzero;"/>
        </g>
        <g transform="matrix(1,0,0,1,0,23)">
            <g>
                <path d="M348.801,59.275C348.801,59.275 337.42,39.322 328.533,53.309C323.816,60.733 340.957,67.992 342.208,65.761C343.459,63.531 332.964,66.263 335.123,74.557C337.282,82.85 355.724,71.508 348.801,59.275Z" style="fill:rgb(65,180,172);fill-rule:nonzero;"/>
            </g>
            <g>
                <path d="M351.282,58.559C351.282,58.559 355.631,36.004 368.549,46.384C375.406,51.893 361.515,64.285 359.613,62.577C357.71,60.868 368.526,60.076 369.153,68.622C369.779,77.169 348.667,72.37 351.282,58.559Z" style="fill:rgb(65,180,172);fill-rule:nonzero;"/>
            </g>
            <g>
                <path d="M349.904,55.784C349.434,55.784 349.003,55.471 348.874,54.995C348.808,54.753 347.289,48.998 349.941,44.628C351.288,42.408 353.446,40.961 356.355,40.327C356.928,40.196 357.501,40.568 357.627,41.144C357.752,41.721 357.387,42.29 356.81,42.416C354.497,42.92 352.8,44.038 351.769,45.738C349.587,49.331 350.924,54.385 350.937,54.436C351.091,55.005 350.755,55.592 350.186,55.747C350.092,55.773 349.997,55.784 349.904,55.784Z" style="fill:rgb(36,23,38);fill-rule:nonzero;"/>
            </g>
            <g>
                <path d="M347.738,56.106C347.205,56.106 346.744,55.707 346.678,55.165C346.113,50.466 344.646,47.308 342.437,46.034C340.169,44.728 337.723,45.748 337.698,45.761C337.162,45.997 336.529,45.745 336.294,45.206C336.06,44.667 336.302,44.04 336.841,43.803C336.98,43.741 340.259,42.333 343.473,44.165C346.348,45.803 348.14,49.418 348.8,54.91C348.87,55.495 348.452,56.028 347.866,56.099C347.823,56.104 347.78,56.106 347.738,56.106Z" style="fill:rgb(36,23,38);fill-rule:nonzero;"/>
            </g>
        </g>
        <g transform="matrix(1,0,0,1,0,23)">
            <g>
                <path d="M72.199,333.145C72.199,333.145 53.782,319.417 51.238,335.791C49.887,344.483 68.5,344.273 68.754,341.728C69.008,339.183 60.484,345.889 65.783,352.624C71.082,359.36 83.441,341.584 72.199,333.145Z" style="fill:rgb(65,180,172);fill-rule:nonzero;"/>
            </g>
            <g>
                <path d="M74.187,331.496C74.187,331.496 69.143,309.086 85.136,313.427C93.625,315.731 85.857,332.647 83.429,331.843C81.001,331.039 90.595,325.983 94.591,333.564C98.587,341.145 77.32,345.199 74.187,331.496Z" style="fill:rgb(65,180,172);fill-rule:nonzero;"/>
            </g>
            <g>
                <path d="M71.387,329.594C71.074,329.594 70.764,329.457 70.553,329.195C70.395,328.999 66.699,324.333 67.381,319.267C67.726,316.694 69.125,314.503 71.537,312.757C72.014,312.413 72.683,312.519 73.029,312.997C73.374,313.475 73.268,314.143 72.789,314.488C70.871,315.877 69.764,317.581 69.499,319.551C68.94,323.718 72.187,327.814 72.22,327.855C72.589,328.315 72.516,328.988 72.057,329.358C71.858,329.517 71.622,329.594 71.387,329.594Z" style="fill:rgb(36,23,38);fill-rule:nonzero;"/>
            </g>
            <g>
                <path d="M69.531,330.756C69.165,330.756 68.808,330.568 68.608,330.229C66.2,326.134 63.584,323.827 61.041,323.555C58.432,323.286 56.635,325.18 56.617,325.2C56.22,325.637 55.54,325.663 55.108,325.264C54.673,324.864 54.646,324.188 55.044,323.754C55.147,323.643 57.582,321.042 61.267,321.431C64.557,321.782 67.646,324.377 70.45,329.146C70.748,329.655 70.579,330.31 70.07,330.609C69.901,330.709 69.714,330.756 69.531,330.756Z" style="fill:rgb(36,23,38);fill-rule:nonzero;"/>
            </g>
        </g>
        <g transform="matrix(1,0,0,1,0,23)">
            <path d="M194.052,145.427C193.685,145.427 193.346,145.302 193.07,145.064C192.858,144.882 192.727,144.624 192.704,144.345C192.704,144.345 192.275,139.282 191.889,133.127C184.352,131.908 182.877,130.628 182.449,129.529C182.303,129.152 182.155,128.401 182.807,127.592C184.191,125.875 188.524,123.273 191.34,121.685C191.073,111.95 191.811,111.189 192.254,110.731C192.614,110.362 193.243,110.229 193.695,110.403C194.981,110.9 199.406,114.828 201.384,116.616C204.483,115.237 208.326,113.732 210.316,113.732C211.151,113.732 211.751,113.99 212.099,114.498C212.324,114.828 212.527,115.395 212.207,116.224C211.698,117.542 210.37,120.324 208.698,123.587C216.882,131.828 216.399,133.125 216.109,133.908C215.898,134.478 215.391,134.833 214.719,134.882C214.402,134.906 213.943,134.918 213.364,134.918C210.892,134.918 206.813,134.711 202.815,134.387C196.399,145.426 194.876,145.427 194.052,145.427ZM194.051,133.451C194.299,137.366 194.561,140.789 194.711,142.658C195.588,141.736 197.315,139.516 200.459,134.182C198.161,133.967 195.988,133.719 194.051,133.451ZM203.988,132.337C208.664,132.693 212.212,132.795 213.825,132.778C213.242,131.742 211.525,129.513 207.663,125.582C206.456,127.883 205.193,130.206 203.988,132.337ZM193.916,131.273C196.197,131.599 198.837,131.897 201.64,132.144C203.077,129.629 204.629,126.782 206.08,123.996C204.482,122.417 202.741,120.76 200.983,119.145C198.563,120.263 195.955,121.582 193.514,122.921C193.598,125.357 193.732,128.16 193.916,131.273ZM184.54,128.851C184.894,129.156 186.326,130.023 191.756,130.939C191.611,128.447 191.498,126.158 191.419,124.101C187.954,126.103 185.397,127.863 184.54,128.851ZM203.106,118.196C204.478,119.468 205.832,120.758 207.105,122.006C208.434,119.394 209.501,117.169 210.039,115.883C208.767,115.998 206.267,116.833 203.106,118.196ZM193.664,112.878C193.514,113.826 193.353,115.923 193.448,120.524C195.369,119.493 197.362,118.487 199.268,117.587C196.499,115.102 194.643,113.592 193.664,112.878Z" style="fill:rgb(36,23,38);fill-rule:nonzero;"/>
        </g>
        <g transform="matrix(1,0,0,1,-28.9449,-50.8332)">
            <path d="M289.594,471.699C289.313,471.699 288.777,471.61 288.335,471.02C287.413,469.789 284.952,465.652 282.337,460.725C280.421,460.806 278.575,460.854 276.899,460.854C270.523,460.854 269.074,460.196 268.46,459.486C268.159,459.141 268.029,458.709 268.092,458.271C268.132,457.994 268.279,457.745 268.5,457.575C268.5,457.575 272.534,454.485 277.511,450.842C274.528,443.96 274.758,442.018 275.394,441.039C275.749,440.494 276.32,440.194 277.003,440.194C277.042,440.194 277.239,440.205 277.277,440.21C279.468,440.451 283.997,442.697 286.852,444.213C293.537,439.673 295.352,439.049 296.237,439.049C296.949,439.049 297.493,439.468 297.626,440.119C297.899,441.469 296.977,447.314 296.536,449.944C304.616,455.269 304.329,456.777 304.189,457.512C304.128,457.835 303.859,458.613 302.699,458.849C301.315,459.13 298.257,459.512 294.606,459.861C291.962,471.697 290.542,471.699 289.597,471.7L289.594,471.7L289.594,471.699ZM284.697,460.609C286.724,464.378 288.623,467.615 289.626,469.133C290.184,468.083 291.137,465.437 292.366,460.063C289.779,460.288 287.141,460.476 284.697,460.609ZM271.004,458.355C271.914,458.53 273.645,458.717 276.898,458.717C278.25,458.717 279.716,458.685 281.239,458.629C280.184,456.58 279.222,454.615 278.403,452.837C275.24,455.158 272.5,457.222 271.004,458.355ZM280.164,451.551C281.12,453.651 282.292,456.034 283.593,458.527C286.486,458.382 289.721,458.155 292.848,457.876C293.318,455.678 293.776,453.318 294.188,450.969C291.942,449.533 289.425,448.046 286.982,446.712C284.977,448.093 282.689,449.718 280.164,451.551ZM296.133,452.244C295.8,454.086 295.444,455.92 295.078,457.666C298,457.378 300.453,457.076 301.824,456.836C301.239,456.093 299.62,454.601 296.133,452.244ZM277.151,442.348C277.085,442.811 277.128,444.486 279.282,449.552C281.303,448.086 283.17,446.757 284.86,445.582C281.305,443.743 278.445,442.539 277.151,442.348ZM288.966,445.365C290.87,446.426 292.792,447.564 294.576,448.685C295.177,445.011 295.449,442.633 295.524,441.424C294.648,441.808 292.794,442.802 288.966,445.365Z" style="fill:rgb(36,23,38);fill-rule:nonzero;"/>
        </g>
        <g transform="matrix(1,0,0,1,0,23)">
            <path d="M157.355,419.999C157.347,419.999 157.194,419.997 157.186,419.997C153.291,419.903 150.198,416.66 150.29,412.766C150.382,408.963 153.548,405.869 157.35,405.869C159.408,405.916 161.164,406.692 162.467,408.058C163.769,409.424 164.461,411.215 164.416,413.101C164.326,416.905 161.159,419.999 157.355,419.999ZM157.468,408.009C154.697,408.009 152.491,410.166 152.428,412.818C152.363,415.533 154.521,417.796 157.238,417.86L157.356,418.931L157.356,417.862C160.009,417.862 162.217,415.704 162.28,413.051C162.311,411.735 161.829,410.486 160.92,409.533C160.012,408.581 158.787,408.04 157.472,408.008C157.471,408.009 157.469,408.009 157.468,408.009Z" style="fill:rgb(36,23,38);fill-rule:nonzero;"/>
        </g>
        <g transform="matrix(1,0,0,1,22.2457,-3.21115)">
            <path d="M410.968,126.491C410.96,126.491 410.807,126.489 410.799,126.489C408.912,126.444 407.156,125.668 405.854,124.302C404.552,122.937 403.86,121.145 403.904,119.259C403.996,115.455 407.163,112.361 410.966,112.361C413.022,112.408 414.778,113.184 416.08,114.55C417.382,115.916 418.074,117.707 418.029,119.595C417.939,123.397 414.772,126.491 410.968,126.491ZM411.081,114.501C408.311,114.501 406.104,116.658 406.041,119.311C405.976,122.026 408.134,124.289 410.85,124.352L410.969,125.423L410.969,124.354C413.622,124.354 415.83,122.196 415.893,119.544C415.924,118.227 415.442,116.978 414.533,116.025C413.625,115.073 412.4,114.532 411.085,114.5L411.081,114.5L411.081,114.501Z" style="fill:rgb(36,23,38);fill-rule:nonzero;"/>
        </g>
        <g transform="matrix(1,0,0,1,0,23)">
            <path d="M36.542,306.158C36.534,306.158 36.381,306.156 36.373,306.156C32.478,306.062 29.385,302.819 29.477,298.925C29.569,295.122 32.735,292.028 36.537,292.028C38.595,292.075 40.351,292.851 41.654,294.217C42.956,295.583 43.648,297.374 43.603,299.261C43.513,303.064 40.346,306.158 36.542,306.158ZM36.655,294.168C33.884,294.168 31.678,296.325 31.615,298.977C31.55,301.692 33.708,303.955 36.425,304.02L36.543,305.091L36.543,304.022C39.196,304.022 41.404,301.864 41.467,299.211C41.498,297.895 41.016,296.646 40.107,295.693C39.199,294.741 37.974,294.2 36.659,294.168L36.655,294.168Z" style="fill:rgb(36,23,38);fill-rule:nonzero;"/>
        </g>
        <g transform="matrix(1,0,0,1,0,23)">
            <path d="M197.546,56.818C197.538,56.818 197.383,56.816 197.374,56.816C195.488,56.771 193.732,55.995 192.43,54.629C191.128,53.264 190.436,51.472 190.48,49.587C190.57,45.783 193.738,42.689 197.542,42.689C201.604,42.785 204.698,46.028 204.606,49.922C204.515,53.724 201.348,56.818 197.546,56.818ZM197.657,44.828C194.886,44.828 192.679,46.985 192.617,49.637C192.586,50.953 193.069,52.202 193.977,53.155C194.885,54.107 196.11,54.648 197.426,54.68L197.547,55.751L197.547,54.682C200.199,54.682 202.406,52.524 202.468,49.872C202.533,47.156 200.376,44.893 197.659,44.829L197.657,44.829L197.657,44.828Z" style="fill:rgb(36,23,38);fill-rule:nonzero;"/>
        </g>
        <g transform="matrix(1,0,0,1,21.7978,25.4399)">
            <path d="M435.192,401.476C435.184,401.476 435.029,401.474 435.02,401.474C433.134,401.429 431.378,400.653 430.076,399.287C428.774,397.922 428.082,396.13 428.126,394.245C428.216,390.441 431.384,387.347 435.188,387.347C439.25,387.443 442.344,390.686 442.252,394.58C442.161,398.382 438.994,401.476 435.192,401.476ZM435.303,389.486C432.532,389.486 430.325,391.643 430.263,394.295C430.232,395.611 430.715,396.86 431.623,397.813C432.531,398.765 433.756,399.306 435.072,399.338L435.193,400.409L435.193,399.34C437.845,399.34 440.052,397.182 440.114,394.53C440.179,391.814 438.022,389.551 435.305,389.487C435.305,389.486 435.304,389.486 435.303,389.486Z" style="fill:rgb(36,23,38);fill-rule:nonzero;"/>
        </g>
        <g transform="matrix(1,0,0,1,-22.4449,10.0438)">
            <g>
                <path d="M94.486,106.243C93.921,106.243 93.45,105.801 93.42,105.23L92.465,86.854C92.435,86.264 92.888,85.762 93.477,85.731C94.043,85.696 94.568,86.154 94.6,86.743L95.555,105.119C95.585,105.709 95.132,106.211 94.543,106.242C94.524,106.243 94.505,106.243 94.486,106.243Z" style="fill:rgb(36,23,38);fill-rule:nonzero;"/>
            </g>
            <g>
                <path d="M86.851,102.664C86.534,102.664 86.221,102.524 86.01,102.256C85.646,101.793 85.725,101.121 86.189,100.755L100.748,89.3C101.212,88.937 101.884,89.016 102.249,89.479C102.613,89.942 102.534,90.614 102.069,90.98L87.51,102.435C87.315,102.589 87.081,102.664 86.851,102.664Z" style="fill:rgb(36,23,38);fill-rule:nonzero;"/>
            </g>
            <g>
                <path d="M100.214,102.664C99.951,102.664 99.688,102.568 99.481,102.374L87.311,90.919C86.881,90.514 86.861,89.838 87.265,89.408C87.671,88.978 88.345,88.959 88.776,89.362L100.947,100.817C101.377,101.222 101.397,101.898 100.993,102.328C100.782,102.551 100.498,102.664 100.214,102.664Z" style="fill:rgb(36,23,38);fill-rule:nonzero;"/>
            </g>
            <g>
                <path d="M84.462,97.414C83.905,97.414 83.435,96.982 83.397,96.417C83.357,95.828 83.803,95.318 84.391,95.279L102.052,94.085C102.655,94.06 103.151,94.492 103.191,95.079C103.231,95.668 102.785,96.178 102.197,96.218L84.536,97.412C84.511,97.413 84.486,97.414 84.462,97.414Z" style="fill:rgb(36,23,38);fill-rule:nonzero;"/>
            </g>
        </g>
        <g transform="matrix(1,0,0,1,34.3332,23.7173)">
            <g>
                <path d="M341.934,401.528C341.934,401.528 340.376,385.371 355.676,391.115C370.975,396.859 365.417,411.408 359.691,406.163C353.965,400.918 365.635,384.214 377.215,392.237C388.796,400.26 385.631,414.934 377.19,415.731C368.749,416.528 382.876,398.715 393.068,410.376C403.259,422.036 379.43,441.816 370.243,433.918C361.055,426.02 368.878,414.061 370.886,421.586C372.894,429.11 366.525,436.198 349.772,435.325C333.019,434.452 341.549,408.928 347.146,416.639C352.744,424.35 342.72,432.484 331.204,423.228C319.688,413.971 333.815,396.158 341.934,401.528Z" style="fill:white;fill-rule:nonzero;"/>
            </g>
            <g>
                <path d="M375.542,436.8C373.162,436.8 371.145,436.103 369.546,434.73C368.827,434.11 368.18,433.445 367.614,432.744C363.659,435.522 357.602,436.804 349.716,436.392C344.225,436.106 340.458,433.156 339.266,428.259C336.387,427.793 333.384,426.352 330.535,424.061C326.109,420.504 324.689,415.288 326.638,409.751C328.668,403.987 333.93,399.471 338.62,399.471C339.388,399.471 340.126,399.586 340.826,399.814C340.881,397.607 341.346,393.877 343.626,391.367C346.249,388.476 350.482,388.026 356.052,390.115C358.176,390.913 360.026,391.917 361.566,393.107C364.215,390.502 367.527,389.027 370.787,389.027C373.222,389.027 375.589,389.812 377.825,391.36C382.83,394.828 385.761,399.994 385.827,405.358C388.796,405.55 391.566,407.032 393.874,409.673C396.978,413.223 397.468,417.863 395.255,422.735C391.853,430.226 382.641,436.799 375.542,436.8ZM369.256,431.375C369.745,431.985 370.309,432.566 370.94,433.108C372.139,434.139 373.688,434.662 375.542,434.662C381.908,434.661 390.209,428.675 393.308,421.85C394.614,418.975 395.492,414.773 392.263,411.078C390.315,408.849 388.11,407.644 385.699,407.489C385.015,412.614 381.664,416.381 377.29,416.793C374.518,417.06 373.574,415.593 373.544,414.231C373.476,411.253 378.092,406.218 383.69,405.438C383.651,400.747 381.054,396.195 376.607,393.115C374.736,391.818 372.777,391.161 370.786,391.161C368.128,391.161 365.4,392.376 363.169,394.524C366.65,398.08 367.218,402.344 366.161,405.148C365.417,407.122 363.885,408.35 362.162,408.35L362.161,408.35C361.074,408.35 359.97,407.866 358.969,406.949C355.81,404.055 357.054,398.662 360.139,394.703C358.792,393.684 357.169,392.815 355.3,392.114C350.623,390.358 347.234,390.568 345.208,392.802C342.491,395.794 342.993,401.367 342.998,401.424C343.038,401.834 342.838,402.23 342.486,402.442C342.132,402.653 341.689,402.646 341.345,402.417C340.531,401.878 339.614,401.605 338.62,401.605C334.843,401.605 330.373,405.577 328.654,410.457C327.696,413.179 326.84,418.346 331.873,422.392C334.2,424.263 336.608,425.498 338.912,426.012C338.589,421.905 339.962,417.922 341.665,415.883C342.628,414.728 343.733,414.118 344.859,414.118C345.671,414.118 346.876,414.446 348.01,416.008C349.965,418.702 350.353,421.685 349.073,424.194C347.755,426.779 344.946,428.346 341.526,428.418C342.387,431.165 344.565,433.98 349.825,434.254C357.221,434.647 362.863,433.484 366.406,430.977C364.219,427.141 364.505,423.011 365.848,420.479C366.64,418.984 367.762,418.127 368.925,418.127C369.725,418.127 371.178,418.54 371.916,421.308C372.924,425.078 371.954,428.694 369.256,431.375ZM368.927,420.267C368.716,420.267 368.207,420.597 367.737,421.483C366.719,423.406 366.494,426.527 368.056,429.542C369.986,427.437 370.624,424.753 369.853,421.862C369.544,420.699 369.12,420.267 368.927,420.267ZM341.085,426.285C343.912,426.325 346.17,425.188 347.17,423.226C348.072,421.458 347.747,419.287 346.281,417.267C345.947,416.806 345.429,416.258 344.86,416.258C344.395,416.258 343.843,416.612 343.306,417.255C341.865,418.98 340.673,422.633 341.085,426.285ZM383.517,407.63C378.997,408.482 375.645,412.562 375.681,414.184C375.685,414.373 375.693,414.689 376.665,414.689C376.799,414.689 376.941,414.682 377.091,414.668C380.331,414.362 382.851,411.537 383.517,407.63ZM361.74,396.123C359.074,399.574 358.448,403.574 360.414,405.375C361.921,406.756 363.45,406.287 364.163,404.397C364.965,402.267 364.479,398.982 361.74,396.123Z" style="fill:rgb(36,23,38);fill-rule:nonzero;"/>
            </g>
        </g>
        <g transform="matrix(1,0,0,1,-16.8913,22.0574)">
            <g>
                <path d="M67.074,405.13C67.074,405.13 65.516,388.973 80.816,394.717C96.115,400.461 90.557,415.01 84.831,409.765C79.105,404.52 90.775,387.816 102.355,395.839C113.936,403.862 110.771,418.536 102.33,419.333C93.889,420.13 108.016,402.317 118.208,413.978C128.399,425.639 104.57,445.419 95.383,437.52C86.196,429.621 94.018,417.663 96.026,425.188C98.034,432.712 91.665,439.8 74.912,438.927C58.159,438.054 66.689,412.53 72.286,420.241C77.884,427.952 67.861,436.086 56.344,426.83C44.827,417.573 58.954,399.76 67.074,405.13Z" style="fill:white;fill-rule:nonzero;"/>
            </g>
            <g>
                <path d="M100.682,440.401C98.302,440.401 96.284,439.704 94.686,438.33C93.967,437.712 93.32,437.047 92.754,436.346C88.799,439.124 82.747,440.404 74.856,439.994C69.365,439.707 65.598,436.758 64.406,431.861C61.527,431.394 58.526,429.954 55.673,427.663C51.247,424.106 49.828,418.89 51.777,413.352C53.807,407.589 59.069,403.073 63.758,403.073C64.526,403.073 65.264,403.188 65.964,403.416C66.02,401.209 66.485,397.478 68.765,394.968C71.39,392.076 75.62,391.627 81.191,393.716C83.315,394.514 85.165,395.518 86.705,396.708C89.355,394.103 92.666,392.628 95.926,392.628C98.359,392.628 100.727,393.413 102.963,394.961C107.969,398.429 110.9,403.595 110.966,408.96C113.934,409.152 116.704,410.634 119.013,413.275C122.115,416.825 122.607,421.464 120.395,426.336C116.993,433.828 107.781,440.4 100.682,440.401ZM94.397,434.978C94.886,435.587 95.45,436.168 96.08,436.71C97.279,437.741 98.828,438.264 100.682,438.264C107.048,438.263 115.35,432.276 118.448,425.452C119.753,422.577 120.631,418.375 117.403,414.681C115.455,412.452 113.249,411.247 110.838,411.092C110.156,416.216 106.804,419.984 102.43,420.396C102.21,420.417 102,420.427 101.805,420.427L101.804,420.427C99.547,420.427 98.712,419.087 98.683,417.834C98.615,414.856 103.231,409.82 108.828,409.041C108.791,404.349 106.192,399.797 101.746,396.717C99.875,395.421 97.917,394.763 95.926,394.763C93.268,394.763 90.54,395.978 88.309,398.127C91.79,401.683 92.357,405.946 91.3,408.751C90.556,410.725 89.024,411.952 87.3,411.953L87.299,411.953C86.213,411.953 85.109,411.469 84.108,410.551C80.949,407.657 82.194,402.263 85.279,398.305C83.932,397.285 82.309,396.416 80.44,395.715C75.765,393.96 72.375,394.172 70.348,396.403C67.629,399.395 68.132,404.969 68.137,405.026C68.177,405.436 67.977,405.832 67.625,406.045C67.27,406.256 66.827,406.247 66.484,406.02C65.67,405.482 64.753,405.208 63.759,405.208C59.982,405.208 55.513,409.179 53.794,414.061C52.836,416.781 51.98,421.95 57.013,425.996C59.34,427.867 61.748,429.102 64.052,429.616C63.73,425.509 65.103,421.525 66.805,419.485C67.768,418.331 68.873,417.721 69.999,417.721C70.811,417.721 72.016,418.049 73.15,419.611C75.105,422.304 75.492,425.288 74.213,427.797C72.895,430.382 70.086,431.95 66.666,432.022C67.527,434.769 69.705,437.584 74.965,437.858C82.364,438.249 88.003,437.089 91.546,434.581C89.359,430.745 89.644,426.616 90.987,424.083C91.779,422.588 92.901,421.73 94.064,421.73C94.864,421.73 96.318,422.143 97.056,424.912C98.064,428.681 97.094,432.296 94.397,434.978ZM94.066,423.868C93.855,423.868 93.347,424.199 92.876,425.085C91.857,427.007 91.634,430.13 93.196,433.143C95.126,431.038 95.764,428.354 94.993,425.463C94.683,424.301 94.26,423.868 94.066,423.868ZM66.225,429.886C69.013,429.996 71.309,428.79 72.31,426.827C73.212,425.059 72.887,422.888 71.421,420.868C71.087,420.407 70.569,419.859 70,419.859C69.535,419.859 68.983,420.213 68.446,420.856C67.005,422.581 65.813,426.235 66.225,429.886ZM108.657,411.233C104.136,412.083 100.783,416.164 100.821,417.786C100.825,417.975 100.833,418.291 101.805,418.291L101.806,418.291C101.939,418.291 102.081,418.284 102.231,418.27C105.471,417.963 107.991,415.14 108.657,411.233ZM86.88,399.724C84.214,403.176 83.587,407.176 85.553,408.977C87.06,410.358 88.589,409.887 89.301,407.999C90.103,405.869 89.618,402.584 86.88,399.724Z" style="fill:rgb(36,23,38);fill-rule:nonzero;"/>
            </g>
        </g>
        <g transform="matrix(1,0,0,1,-7.10206,15.7539)">
            <g>
                <path d="M241.61,58.67C241.61,58.67 240.052,42.513 255.352,48.257C270.652,54.001 265.093,68.55 259.367,63.305C253.641,58.06 265.311,41.356 276.891,49.379C288.472,57.402 285.307,72.076 276.866,72.873C268.425,73.67 282.553,55.857 292.744,67.518C302.935,79.178 279.106,98.959 269.919,91.06C260.731,83.161 268.554,71.203 270.562,78.727C272.57,86.251 266.201,93.339 249.448,92.466C232.695,91.593 241.225,66.069 246.822,73.78C252.42,81.491 242.397,89.625 230.88,80.369C219.363,71.113 233.491,53.3 241.61,58.67Z" style="fill:white;fill-rule:nonzero;"/>
            </g>
            <g>
                <path d="M275.217,93.941C272.838,93.942 270.82,93.245 269.223,91.872C268.503,91.252 267.856,90.587 267.29,89.886C263.335,92.664 257.281,93.943 249.392,93.534C243.901,93.247 240.134,90.298 238.942,85.401C236.063,84.936 233.062,83.494 230.21,81.203C225.785,77.646 224.365,72.431 226.314,66.894C228.343,61.129 233.606,56.613 238.296,56.613C239.064,56.613 239.802,56.728 240.502,56.956C240.557,54.749 241.022,51.019 243.302,48.51C245.926,45.619 250.157,45.167 255.727,47.258C257.851,48.055 259.701,49.06 261.24,50.25C263.89,47.644 267.201,46.169 270.462,46.169C272.896,46.169 275.263,46.954 277.499,48.502C282.504,51.97 285.436,57.137 285.502,62.501C288.47,62.693 291.24,64.175 293.549,66.816C296.651,70.366 297.142,75.005 294.931,79.877C291.529,87.367 282.317,93.941 275.217,93.941ZM268.932,88.517C269.421,89.127 269.985,89.708 270.616,90.25C271.815,91.281 273.364,91.803 275.217,91.803C281.584,91.803 289.886,85.816 292.984,78.991C294.29,76.116 295.167,71.914 291.939,68.22C289.991,65.991 287.785,64.786 285.374,64.631C284.691,69.755 281.34,73.523 276.966,73.935C276.746,73.956 276.536,73.966 276.341,73.966L276.34,73.966C274.083,73.966 273.248,72.626 273.219,71.373C273.151,68.395 277.767,63.36 283.364,62.58C283.326,57.888 280.728,53.336 276.281,50.256C274.41,48.96 272.452,48.302 270.461,48.302C267.803,48.302 265.074,49.518 262.843,51.666C266.325,55.222 266.892,59.486 265.835,62.29C265.091,64.264 263.559,65.492 261.836,65.492L261.835,65.492C260.748,65.492 259.644,65.008 258.643,64.091C255.485,61.198 256.729,55.804 259.814,51.846C258.467,50.826 256.844,49.957 254.975,49.256C250.299,47.499 246.91,47.712 244.883,49.944C242.166,52.936 242.668,58.509 242.673,58.566C242.713,58.976 242.513,59.372 242.161,59.585C241.807,59.795 241.364,59.786 241.02,59.56C240.206,59.021 239.289,58.748 238.295,58.748C234.518,58.748 230.047,62.72 228.328,67.602C227.37,70.322 226.515,75.491 231.547,79.536C233.876,81.407 236.283,82.642 238.587,83.156C238.265,79.049 239.638,75.065 241.34,73.026C242.304,71.872 243.408,71.261 244.534,71.261C245.346,71.261 246.551,71.589 247.686,73.151C249.641,75.844 250.029,78.829 248.749,81.338C247.431,83.923 244.622,85.49 241.202,85.562C242.063,88.309 244.241,91.124 249.501,91.397C256.892,91.787 262.539,90.628 266.082,88.12C263.895,84.284 264.181,80.155 265.523,77.622C266.316,76.127 267.438,75.27 268.6,75.27C269.401,75.27 270.854,75.683 271.592,78.451C272.6,82.221 271.63,85.836 268.932,88.517ZM268.602,77.409C268.392,77.409 267.883,77.739 267.413,78.625C266.393,80.547 266.17,83.669 267.732,86.684C269.662,84.579 270.3,81.895 269.529,79.004C269.219,77.841 268.796,77.409 268.602,77.409ZM240.761,83.427C243.578,83.462 245.846,82.33 246.846,80.368C247.748,78.6 247.423,76.428 245.957,74.408C245.623,73.948 245.105,73.399 244.536,73.399C244.071,73.399 243.52,73.753 242.982,74.396C241.542,76.122 240.349,79.774 240.761,83.427ZM283.193,64.772C278.672,65.623 275.319,69.703 275.357,71.326C275.361,71.515 275.368,71.831 276.341,71.831L276.342,71.831C276.474,71.831 276.616,71.824 276.767,71.81C280.007,71.503 282.527,68.679 283.193,64.772ZM261.416,53.265C258.751,56.717 258.124,60.717 260.089,62.517C261.596,63.898 263.125,63.429 263.837,61.539C264.64,59.41 264.154,56.124 261.416,53.265Z" style="fill:rgb(36,23,38);fill-rule:nonzero;"/>
            </g>
        </g>
        <g transform="matrix(1,0,0,1,-0.260679,6.29308)">
            <g>
                <path d="M406.171,166.213C406.171,166.213 426.734,145.606 429.158,147.805C431.582,150.004 434.577,171.247 434.577,171.247C434.577,171.247 457.906,163.516 460.443,168.027C462.98,172.538 458.268,192.908 458.268,192.908C458.268,192.908 480.938,186.279 483.145,191.34C485.352,196.401 474.252,213.696 474.252,213.696C474.252,213.696 500.894,215.429 502.658,218.73C504.423,222.031 486.722,242.855 486.722,242.855C486.722,242.855 513.372,252.074 511.944,255.708C510.517,259.342 487.525,274.008 487.525,274.008C487.525,274.008 510.11,291.267 507.143,296.224C504.176,301.181 482.162,302.966 482.162,302.966C482.162,302.966 497.157,325.407 491.987,329.045C486.817,332.683 465.012,324.12 465.012,324.12C465.012,324.12 472.409,344.257 466.029,348.667C459.649,353.077 440.593,342.419 440.593,342.419C440.593,342.419 444.139,363.991 438.635,364.437C433.131,364.883 412.749,348.943 412.749,348.943C412.749,348.943 405.73,373.168 397.914,373.727C390.099,374.286 378.847,351.841 378.847,351.841C378.847,351.841 364.443,367.158 359.49,367.933C354.537,368.709 348.121,339.434 348.121,339.434C348.121,339.434 324.02,345.955 320.824,342.545C317.628,339.136 324.523,316.668 324.523,316.668C324.523,316.668 298.636,320.548 297.476,317.236C296.805,315.32 308.112,293.792 308.112,293.792C308.112,293.792 278.281,287.778 278.27,284.907C278.247,278.496 297.623,265.072 297.623,265.072C297.623,265.072 274.821,250.675 275.476,245.831C276.131,240.987 300.007,229.843 300.007,229.843C300.007,229.843 286.765,199.475 291.167,198.369C295.569,197.264 320.229,198.558 320.229,198.558C320.229,198.558 313.871,166.735 322.897,165.404C331.922,164.073 349.648,176.703 349.648,176.703C349.648,176.703 353.975,152.178 358.047,151.623C362.12,151.068 376.885,165.143 376.885,165.143C376.885,165.143 386.22,144.548 392.166,145.862C398.115,147.177 406.171,166.213 406.171,166.213Z" style="fill:rgb(240,133,46);fill-rule:nonzero;"/>
            </g>
            <g transform="matrix(0.7071,-0.7071,0.7071,0.7071,-65.9372,354.434)">
                <circle cx="394.871" cy="256.81" r="86.65" style="fill:rgb(252,206,96);"/>
            </g>
            <g>
                <path d="M342.385,262.605C342.189,269.021 336.83,274.063 330.414,273.868C323.998,273.672 318.956,268.313 319.151,261.897C319.347,255.481 324.706,250.439 331.122,250.634C337.538,250.829 342.581,256.189 342.385,262.605Z" style="fill:rgb(227,128,152);fill-rule:nonzero;"/>
            </g>
            <g>
                <path d="M446.064,283.976C445.868,290.392 440.509,295.435 434.093,295.239C427.677,295.043 422.634,289.684 422.83,283.268C423.026,276.852 428.385,271.809 434.801,272.005C441.217,272.201 446.26,277.56 446.064,283.976Z" style="fill:rgb(227,128,152);fill-rule:nonzero;"/>
            </g>
            <g>
                <path d="M343.709,201.107C343.709,201.107 458.977,228.759 472.419,238.325C485.861,247.89 477.695,256.381 476.485,255.096C475.276,253.811 437.833,239.768 437.833,239.768C437.833,239.768 436.58,267.197 428.957,271.542C421.333,275.887 386.963,270.262 385.944,262.74C384.925,255.218 390.333,241.649 388.292,240.338C386.251,239.027 376.688,238.736 376.688,238.736C376.688,238.736 371.607,255.228 367.802,257.193C363.997,259.158 335.031,253.697 327.801,245.153C320.569,236.608 334.095,202.478 343.709,201.107Z" style="fill:rgb(36,23,38);fill-rule:nonzero;"/>
            </g>
            <g>
                <path d="M337.73,236.833C337.408,236.833 337.09,236.689 336.879,236.414C336.521,235.944 336.611,235.274 337.079,234.915C337.941,234.257 358.285,218.774 366.129,218.303C366.715,218.275 367.225,218.716 367.26,219.305C367.295,219.895 366.847,220.401 366.258,220.436C359.059,220.869 338.582,236.457 338.376,236.614C338.184,236.761 337.956,236.833 337.73,236.833Z" style="fill:rgb(253,255,255);fill-rule:nonzero;"/>
            </g>
            <g>
                <path d="M348.281,241.431C347.96,241.431 347.641,241.286 347.431,241.012C347.073,240.542 347.163,239.872 347.631,239.513C349.009,238.461 361.232,229.223 366.227,228.922C366.828,228.895 367.323,229.335 367.358,229.924C367.393,230.514 366.945,231.02 366.356,231.055C362.674,231.277 352.528,238.462 348.929,241.212C348.735,241.359 348.508,241.431 348.281,241.431Z" style="fill:rgb(253,255,255);fill-rule:nonzero;"/>
            </g>
            <g>
                <path d="M389.891,254.212C389.57,254.212 389.251,254.068 389.041,253.793C388.683,253.323 388.773,252.653 389.241,252.294C390.103,251.635 410.447,236.153 418.291,235.682C418.874,235.66 419.387,236.095 419.422,236.684C419.458,237.274 419.009,237.78 418.42,237.815C411.221,238.248 390.744,253.836 390.538,253.993C390.345,254.14 390.117,254.212 389.891,254.212Z" style="fill:rgb(253,255,255);fill-rule:nonzero;"/>
            </g>
            <g>
                <path d="M405.535,257.075C405.214,257.075 404.895,256.93 404.684,256.656C404.326,256.186 404.416,255.516 404.884,255.157C406.262,254.105 418.485,244.867 423.48,244.566C424.059,244.562 424.576,244.979 424.611,245.568C424.647,246.158 424.198,246.664 423.609,246.699C419.927,246.921 409.781,254.106 406.182,256.856C405.989,257.003 405.761,257.075 405.535,257.075Z" style="fill:rgb(253,255,255);fill-rule:nonzero;"/>
            </g>
        </g>
        <g transform="matrix(1,0,0,1,0,23)">
            <g>
                <g>
                    <path d="M108.218,137.817C108.218,137.817 115.8,124.356 133.717,128.751C163.749,136.117 157.516,168.983 151.85,167.849C146.183,166.716 162.616,138.384 180.749,162.183C198.881,185.982 180.749,208.648 173.949,204.115C167.149,199.582 200.015,198.449 200.015,229.047C200.015,259.645 155.817,272.112 155.817,261.912C155.817,251.712 177.349,265.312 152.417,281.178C127.485,297.044 104.404,267.22 110.485,264.179C122.951,257.946 113.885,301.577 78.753,294.778C43.621,287.978 49.288,246.047 57.22,251.713C65.153,257.379 20.575,284.952 6.222,256.246C-11.911,219.981 23.696,194.084 26.621,204.115C30.587,217.714 -2.844,202.982 10.755,172.383C24.354,141.784 67.419,156.517 59.486,164.45C51.553,172.383 34.356,133.976 71.385,123.085C109.917,111.752 115.583,145.751 111.05,146.317C100.683,147.613 108.218,137.817 108.218,137.817Z" style="fill:white;fill-rule:nonzero;"/>
                </g>
                <g>
                    <path d="M85.999,296.568C83.598,296.568 81.091,296.319 78.548,295.826C56.81,291.618 50.581,274.298 50.205,263.361C44.484,266.815 35.967,270.156 27.427,270.157L27.424,270.157C17.321,270.157 9.66,265.512 5.265,256.723C-7.128,231.937 5.074,212.757 14.029,205.3C7.438,198.853 3.089,186.997 9.778,171.948C15.19,159.772 26.304,152.789 40.27,152.789C42.828,152.789 45.355,153.026 47.809,153.494C45.976,142.319 50.961,127.977 71.085,122.059C76.398,120.496 81.395,119.704 85.939,119.704C101.006,119.704 107.902,128.298 110.613,133.219C113.521,130.435 118.838,126.8 126.775,126.8C129.081,126.8 131.502,127.107 133.971,127.713C153.614,132.53 157.05,147.331 157.556,154.228C160.117,152.519 162.903,151.624 165.711,151.624C171.243,151.624 176.588,154.958 181.598,161.534C193.944,177.74 190.122,194.163 183.097,201.79C188.982,203.722 201.082,210.015 201.082,229.047C201.082,251.539 178.436,264.062 165.512,266.152C165.347,270.095 162.868,275.793 152.989,282.08C147.996,285.258 142.733,286.869 137.349,286.869C129.47,286.87 121.202,283.225 114.923,277.046C111.051,286.39 101.466,296.567 85.999,296.568ZM52.326,261.99C52.137,274.343 58.965,289.859 78.955,293.729C81.363,294.194 83.733,294.431 85.999,294.431C100.9,294.43 109.943,284.283 113.3,275.34C109.891,271.512 108.058,267.705 108.494,265.309C108.669,264.351 109.191,263.629 110.005,263.222C112.422,262.013 114.514,262.361 115.732,264.077C117.225,266.181 117.22,270.262 115.741,274.831C118.489,277.666 126.438,284.732 137.349,284.731C142.32,284.731 147.196,283.232 151.841,280.276C160.963,274.472 163.073,269.426 163.349,266.412C162.801,266.455 162.273,266.476 161.768,266.476L161.766,266.476C159.736,266.476 158.105,266.139 156.916,265.473C155.497,264.679 154.746,263.447 154.746,261.911C154.746,258.517 156.824,257.313 158.604,257.313C161.407,257.313 164.649,260.014 165.373,264.018C189.079,260.441 198.944,239.604 198.944,229.046C198.944,210.059 186.077,204.781 181.311,203.484C178.443,205.828 175.447,206.399 173.355,205.002C171.913,204.04 171.835,203.094 172.024,202.469C172.48,200.963 174.712,200.647 176.504,200.647C177.799,200.647 179.251,200.817 180.732,201.142C186.334,195.77 193.041,180.081 179.896,162.829C175.312,156.812 170.539,153.761 165.71,153.761C162.26,153.761 159.464,155.357 157.629,156.818C157.515,163.657 155.143,168.944 152.136,168.945L152.135,168.945C151.969,168.945 151.804,168.929 151.638,168.896C150.697,168.708 150.012,168.035 149.759,167.05C149.049,164.292 151.652,159.244 155.491,155.826C155.383,150.36 153.288,134.652 133.461,129.789C131.158,129.223 128.909,128.937 126.774,128.937C119.398,128.937 114.511,132.251 111.606,135.239C113.475,139.532 113.998,144.04 112.832,146.158C112.447,146.858 111.86,147.291 111.182,147.376C110.49,147.463 109.87,147.502 109.32,147.502C107.036,147.502 105.536,146.808 104.861,145.438C103.4,142.47 106.95,137.708 107.368,137.166L107.367,137.167C107.358,137.168 107.924,136.188 109.064,134.857C106.458,129.719 100.144,121.842 85.938,121.842C81.598,121.842 76.804,122.605 71.687,124.11C52.399,129.783 47.869,143.143 50.07,153.999C56.138,155.552 60.542,158.384 61.372,161.302C61.652,162.287 61.683,163.764 60.242,165.205C59.337,166.11 58.251,166.588 57.101,166.589L57.099,166.589C53.545,166.589 49.901,162.081 48.285,155.774C45.693,155.213 42.999,154.928 40.269,154.928C32.58,154.928 18.649,157.252 11.731,172.818C5.414,187.029 9.557,198.105 15.742,203.985C18.584,201.972 21.306,200.872 23.476,200.872C25.58,200.872 27.1,201.946 27.646,203.817C28.409,206.432 27.845,207.946 27.238,208.755C25.329,211.304 20.146,210.374 15.644,206.74C7.156,213.629 -4.738,231.941 7.177,255.769C12.239,265.895 20.981,268.021 27.424,268.021L27.427,268.021C36.113,268.02 44.801,264.36 50.223,260.829C50.54,254.4 52.735,250.12 55.757,250.12C56.467,250.12 57.168,250.363 57.84,250.844C58.762,251.501 59.24,252.427 59.225,253.521C59.18,256.79 54.701,260.337 52.326,261.99ZM112.698,264.635C112.208,264.635 111.623,264.803 110.962,265.134C110.819,265.205 110.664,265.327 110.598,265.692C110.361,266.99 111.493,269.785 114.072,272.95C115.08,269.196 114.807,266.463 113.991,265.313C113.662,264.851 113.251,264.635 112.698,264.635ZM158.605,259.451C157.183,259.451 156.884,260.789 156.884,261.912C156.884,262.659 157.226,263.198 157.96,263.609C159.061,264.225 160.941,264.464 163.249,264.277C162.662,261.263 160.285,259.451 158.605,259.451ZM55.758,252.256C54.622,252.256 53.027,254.661 52.5,259.214C55.633,256.783 57.073,254.654 57.089,253.489C57.095,253.102 56.948,252.831 56.6,252.581C56.296,252.365 56.014,252.256 55.758,252.256ZM17.425,205.418C19.654,207.112 22.009,208.129 23.782,208.129C24.354,208.129 25.121,208.015 25.529,207.471C25.974,206.878 25.996,205.793 25.595,204.414C25.419,203.81 25.008,203.007 23.477,203.007C21.873,203.007 19.713,203.875 17.425,205.418ZM174.319,203.065C174.38,203.113 174.453,203.166 174.541,203.226C175.498,203.863 176.886,203.721 178.38,202.907C177.726,202.828 177.095,202.787 176.505,202.787C175.379,202.786 174.687,202.933 174.319,203.065ZM155.37,158.971C152.759,161.921 151.497,165.225 151.83,166.519C151.894,166.768 151.974,166.785 152.059,166.802L152.062,166.802C153.142,166.801 154.887,163.887 155.37,158.971ZM50.677,156.381C52.239,161.41 55.089,164.452 57.099,164.452L57.1,164.452C57.688,164.451 58.222,164.204 58.731,163.694C59.498,162.927 59.432,162.296 59.316,161.887C58.85,160.245 55.965,157.926 50.677,156.381ZM110.04,137.047C109.445,137.823 109.151,138.336 109.147,138.343C107.736,140.2 106.149,143.215 106.78,144.496C107.135,145.215 108.358,145.366 109.321,145.366C109.793,145.366 110.324,145.331 110.918,145.256C111.396,144.881 111.783,141.567 110.04,137.047Z" style="fill:rgb(36,23,38);fill-rule:nonzero;"/>
                </g>
            </g>
            <g>
                <g>
                    <path d="M147.887,203.403C144.837,209.63 137.317,212.205 131.09,209.155C124.863,206.105 122.288,198.585 125.338,192.358C128.388,186.131 135.908,183.556 142.135,186.606C148.362,189.656 150.937,197.176 147.887,203.403Z" style="fill:rgb(36,23,38);fill-rule:nonzero;"/>
                </g>
                <g>
                    <path d="M130.905,195.569C130.905,195.569 136.096,195.078 136.411,194.705C136.726,194.332 138.491,189.92 139.503,190.547C140.515,191.174 139.541,194.492 140.715,195.595C141.89,196.698 145.261,197.431 145.111,198.545C144.961,199.659 141.116,199.911 140.375,200.076C139.635,200.241 138.406,205.443 137.133,205.347C135.861,205.251 135.385,198.951 134.693,198.48C134,198.009 129.165,196.695 130.905,195.569Z" style="fill:rgb(251,252,255);fill-rule:nonzero;"/>
                </g>
            </g>
            <g>
                <g>
                    <path d="M50.91,212.489C53.96,218.716 61.48,221.291 67.707,218.241C73.934,215.191 76.509,207.671 73.459,201.444C70.409,195.217 62.889,192.642 56.662,195.692C50.435,198.742 47.86,206.262 50.91,212.489Z" style="fill:rgb(36,23,38);fill-rule:nonzero;"/>
                </g>
                <g>
                    <path d="M67.893,204.655C67.893,204.655 62.702,204.164 62.388,203.791C62.074,203.418 60.308,199.006 59.296,199.633C58.284,200.261 59.258,203.578 58.083,204.681C56.909,205.784 53.537,206.517 53.687,207.631C53.837,208.745 57.682,208.997 58.423,209.162C59.163,209.327 60.392,214.529 61.665,214.433C62.937,214.337 63.413,208.037 64.105,207.566C64.797,207.095 69.632,205.782 67.893,204.655Z" style="fill:rgb(251,252,255);fill-rule:nonzero;"/>
                </g>
            </g>
            <g>
                <g>
                    <path d="M102.551,157.083C102.551,157.083 98.018,172.949 105.951,175.216C113.884,177.483 111.617,162.75 111.617,162.75" style="fill:white;fill-rule:nonzero;"/>
                </g>
                <g>
                    <path d="M107.488,176.518C106.944,176.518 106.336,176.437 105.658,176.244C103.029,175.493 99.951,172.979 100.209,165.264C100.353,160.933 101.477,156.957 101.524,156.79C101.688,156.222 102.279,155.903 102.845,156.055C103.413,156.218 103.741,156.808 103.58,157.376C103.537,157.524 99.537,172.272 106.245,174.188C107.477,174.543 108.408,174.42 109.093,173.816C111.366,171.812 110.924,165.266 110.562,162.913C110.472,162.33 110.872,161.784 111.455,161.694C112.042,161.603 112.584,162.005 112.674,162.587C112.825,163.571 114.052,172.293 110.507,175.418C109.882,175.968 108.903,176.518 107.488,176.518Z" style="fill:rgb(36,23,38);fill-rule:nonzero;"/>
                </g>
            </g>
            <g>
                <g>
                    <path d="M169.982,223.38C169.982,223.38 165.449,239.246 173.382,241.513C181.315,243.78 179.048,229.613 179.048,229.613" style="fill:white;fill-rule:nonzero;"/>
                </g>
                <g>
                    <path d="M174.97,242.824C174.413,242.824 173.787,242.741 173.088,242.541C170.459,241.79 167.381,239.276 167.639,231.561C167.783,227.23 168.907,223.254 168.954,223.087C169.117,222.52 169.71,222.199 170.275,222.352C170.843,222.515 171.171,223.105 171.01,223.673C170.967,223.821 166.967,238.569 173.675,240.485C174.951,240.851 175.906,240.728 176.6,240.115C178.783,238.18 178.346,232 177.993,229.782C177.9,229.2 178.297,228.652 178.88,228.559C179.468,228.466 180.01,228.864 180.103,229.445C180.252,230.379 181.464,238.657 178.018,241.714C177.392,242.269 176.406,242.824 174.97,242.824Z" style="fill:rgb(36,23,38);fill-rule:nonzero;"/>
                </g>
            </g>
            <g transform="matrix(1,0,0,1,65.3912,-3.35636)">
                <g>
                    <path d="M33.987,226.214C33.987,226.214 31.154,240.38 39.653,242.08C48.153,243.78 41.92,223.947 41.92,223.947" style="fill:white;fill-rule:nonzero;"/>
                </g>
                <g>
                    <path d="M40.622,243.251C40.262,243.251 39.87,243.214 39.444,243.128C30.005,241.24 32.815,226.625 32.94,226.004C33.055,225.426 33.621,225.049 34.196,225.166C34.775,225.282 35.15,225.844 35.035,226.422C35.009,226.554 32.512,239.561 39.863,241.032C41.186,241.297 41.744,240.874 42.049,240.535C44.186,238.157 42.479,229.294 40.9,224.267C40.724,223.704 41.037,223.105 41.599,222.927C42.166,222.749 42.76,223.065 42.939,223.626C43.394,225.075 47.284,237.905 43.639,241.963C43.079,242.589 42.128,243.251 40.622,243.251Z" style="fill:rgb(36,23,38);fill-rule:nonzero;"/>
                </g>
            </g>
            <path d="M369.441,282.17C368.299,282.17 367.147,281.919 365.991,281.417C356.054,277.104 360.068,261.43 360.243,260.764C360.393,260.194 360.983,259.86 361.549,260.004C362.12,260.154 362.46,260.739 362.31,261.31C362.272,261.455 358.587,275.873 366.843,279.457C368.57,280.206 370.206,280.224 371.842,279.513C376.991,277.278 380.075,268.754 380.105,268.668C380.302,268.11 380.916,267.823 381.47,268.019C382.026,268.217 382.316,268.829 382.119,269.384C381.981,269.77 378.684,278.872 372.694,281.474C371.624,281.938 370.538,282.17 369.441,282.17Z" style="fill:rgb(36,23,38);fill-rule:nonzero;"/>
        </g>
        <g transform="matrix(0.693236,0.135943,-0.135943,0.693236,-47.0204,21.7877)">
            <g>
                <path d="M310.157,199.454C310.157,199.454 292.8,202.344 281.736,215.728" style="fill:white;fill-rule:nonzero;"/>
            </g>
            <g>
                <path d="M281.736,216.934C281.465,216.934 281.192,216.843 280.968,216.657C280.455,216.233 280.382,215.474 280.805,214.96C292.025,201.384 309.229,198.385 309.957,198.263C310.593,198.146 311.233,198.596 311.344,199.253C311.452,199.91 311.01,200.53 310.353,200.641C310.184,200.669 293.297,203.63 282.666,216.495C282.426,216.784 282.082,216.934 281.736,216.934Z" style="fill:rgb(36,23,38);fill-rule:nonzero;"/>
            </g>
        </g>
        <g transform="matrix(1,0,0,1,0,23)">
            <path d="M285.597,154.118C285.555,154.118 285.514,154.116 285.471,154.111C284.355,153.98 283.285,153.719 282.29,153.337C281.883,153.18 281.484,153.021 281.094,152.859C280.549,152.632 280.291,152.007 280.517,151.462C280.745,150.917 281.367,150.661 281.914,150.885C282.288,151.04 282.668,151.193 283.058,151.342C283.886,151.661 284.782,151.878 285.721,151.989C286.306,152.058 286.726,152.589 286.657,153.175C286.594,153.718 286.132,154.118 285.597,154.118ZM289.853,154.011C289.333,154.011 288.877,153.632 288.798,153.103C288.709,152.519 289.11,151.974 289.693,151.886C290.951,151.695 292.279,151.358 293.641,150.885C294.2,150.689 294.807,150.986 295.001,151.544C295.195,152.101 294.9,152.711 294.342,152.904C292.857,153.421 291.4,153.789 290.014,153.999C289.96,154.006 289.906,154.011 289.853,154.011ZM297.927,151.289C297.536,151.289 297.158,151.073 296.971,150.699C296.706,150.172 296.919,149.529 297.447,149.265C298.645,148.664 299.863,147.97 301.068,147.202C301.562,146.885 302.225,147.03 302.544,147.53C302.861,148.028 302.714,148.688 302.216,149.006C300.95,149.812 299.668,150.542 298.405,151.175C298.251,151.253 298.087,151.289 297.927,151.289ZM277.649,151.101C277.476,151.101 277.301,151.059 277.138,150.971C275.806,150.244 274.553,149.45 273.413,148.61C272.937,148.26 272.835,147.592 273.185,147.117C273.531,146.642 274.203,146.538 274.678,146.888C275.744,147.67 276.915,148.413 278.164,149.094C278.682,149.378 278.872,150.027 278.59,150.545C278.395,150.9 278.027,151.101 277.649,151.101ZM305.146,146.721C304.825,146.721 304.506,146.577 304.297,146.301C303.938,145.832 304.028,145.162 304.496,144.804C305.595,143.963 306.68,143.062 307.722,142.126C308.159,141.731 308.835,141.765 309.232,142.205C309.627,142.644 309.59,143.32 309.152,143.715C308.068,144.689 306.939,145.626 305.795,146.5C305.6,146.649 305.372,146.721 305.146,146.721ZM270.82,146.024C270.543,146.024 270.264,145.917 270.055,145.701C268.995,144.614 268.051,143.441 267.252,142.216C266.928,141.721 267.068,141.06 267.562,140.737C268.057,140.413 268.718,140.552 269.041,141.047C269.766,142.156 270.622,143.221 271.585,144.209C271.997,144.632 271.989,145.308 271.566,145.72C271.359,145.923 271.09,146.024 270.82,146.024ZM311.501,141.006C311.237,141.006 310.973,140.909 310.766,140.713C310.337,140.308 310.319,139.631 310.725,139.203C311.68,138.194 312.575,137.164 313.386,136.139C312.448,135.58 311.587,134.965 310.815,134.302C310.367,133.918 310.316,133.243 310.7,132.795C311.086,132.346 311.762,132.297 312.207,132.68C313.167,133.504 314.293,134.25 315.552,134.894C316.077,135.162 316.285,135.806 316.015,136.332C315.875,136.606 315.632,136.794 315.356,136.873C315.329,137.047 315.258,137.216 315.141,137.365C314.27,138.472 313.305,139.585 312.275,140.672C312.067,140.894 311.784,141.006 311.501,141.006ZM330.009,139.973C329.101,139.973 328.224,139.949 327.376,139.903C326.786,139.872 326.335,139.368 326.366,138.779C326.398,138.189 326.893,137.724 327.491,137.769C328.808,137.842 330.201,137.853 331.674,137.809C332.213,137.803 332.755,138.255 332.775,138.845C332.793,139.435 332.329,139.927 331.739,139.946C331.15,139.963 330.573,139.973 330.009,139.973ZM335.967,139.651C335.425,139.651 334.961,139.242 334.905,138.692C334.845,138.104 335.272,137.579 335.859,137.519C336.249,137.479 336.643,137.436 337.042,137.386C338.067,137.261 339.054,137.112 340.006,136.938C340.59,136.832 341.145,137.218 341.249,137.797C341.355,138.377 340.97,138.935 340.39,139.04C339.399,139.222 338.37,139.377 337.302,139.507C336.889,139.558 336.481,139.604 336.078,139.646C336.04,139.649 336.004,139.651 335.967,139.651ZM323.188,139.455C323.131,139.455 323.073,139.451 323.015,139.441C321.505,139.195 320.059,138.861 318.716,138.451C318.151,138.279 317.833,137.682 318.006,137.117C318.177,136.553 318.771,136.231 319.34,136.407C320.592,136.789 321.945,137.1 323.36,137.331C323.942,137.426 324.338,137.976 324.243,138.558C324.156,139.083 323.702,139.455 323.188,139.455ZM266.202,138.906C265.773,138.906 265.369,138.646 265.205,138.222C264.673,136.848 264.276,135.393 264.025,133.898C263.927,133.316 264.319,132.765 264.902,132.667C265.486,132.571 266.034,132.961 266.133,133.544C266.36,134.896 266.718,136.211 267.198,137.452C267.411,138.002 267.137,138.621 266.586,138.834C266.461,138.883 266.33,138.906 266.202,138.906ZM344.359,138.105C343.894,138.105 343.465,137.798 343.332,137.327C343.171,136.759 343.501,136.169 344.07,136.009C345.441,135.621 346.758,135.167 347.985,134.659C348.528,134.435 349.157,134.692 349.381,135.237C349.606,135.783 349.348,136.408 348.803,136.633C347.5,137.174 346.102,137.655 344.65,138.065C344.553,138.092 344.456,138.105 344.359,138.105ZM352.214,134.812C351.849,134.812 351.493,134.625 351.294,134.288C350.993,133.78 351.161,133.124 351.669,132.824C352.865,132.116 353.988,131.321 355.007,130.462C355.459,130.082 356.132,130.141 356.513,130.59C356.893,131.042 356.836,131.716 356.385,132.096C355.276,133.031 354.055,133.894 352.759,134.662C352.587,134.764 352.399,134.812 352.214,134.812ZM316.753,134.268C316.564,134.268 316.372,134.218 316.199,134.112C315.695,133.805 315.534,133.148 315.841,132.644C316.623,131.359 317.227,130.134 317.636,129.003C317.837,128.448 318.453,128.159 319.005,128.362C319.559,128.563 319.846,129.176 319.646,129.731C319.188,130.995 318.522,132.348 317.668,133.754C317.466,134.085 317.115,134.268 316.753,134.268ZM308.752,131.325C308.386,131.325 308.03,131.137 307.83,130.799C306.958,129.318 306.471,127.747 306.425,126.252C306.406,125.662 306.87,125.169 307.459,125.151C308.04,125.09 308.541,125.595 308.56,126.185C308.596,127.321 308.98,128.541 309.67,129.713C309.969,130.221 309.8,130.877 309.292,131.176C309.123,131.277 308.936,131.325 308.752,131.325ZM264.763,130.533L264.748,130.533C264.158,130.525 263.687,130.041 263.694,129.45C263.713,128.012 263.851,126.527 264.102,125.035C264.201,124.453 264.753,124.062 265.333,124.158C265.915,124.256 266.308,124.808 266.21,125.389C265.976,126.774 265.849,128.149 265.831,129.479C265.823,130.063 265.346,130.533 264.763,130.533ZM358.699,129.322C358.459,129.322 358.218,129.242 358.019,129.077C357.564,128.7 357.501,128.027 357.877,127.572C358.736,126.535 359.51,125.404 360.179,124.213C360.466,123.697 361.121,123.515 361.634,123.804C362.149,124.093 362.332,124.744 362.043,125.259C361.311,126.562 360.464,127.8 359.524,128.935C359.312,129.191 359.007,129.322 358.699,129.322ZM319.279,126.253C318.749,126.253 318.289,125.859 318.22,125.319C318.072,124.152 317.492,123.317 316.446,122.762C315.924,122.485 315.725,121.84 316.001,121.318C316.276,120.795 316.923,120.597 317.445,120.873C319.103,121.751 320.104,123.195 320.34,125.049C320.414,125.634 320,126.169 319.414,126.244C319.369,126.25 319.324,126.253 319.279,126.253ZM308.915,123.387C308.641,123.387 308.366,123.282 308.156,123.072C307.741,122.652 307.743,121.976 308.161,121.56C309.317,120.412 310.925,119.803 312.812,119.796L312.815,119.796C313.404,119.796 313.881,120.272 313.884,120.861C313.887,121.45 313.409,121.931 312.818,121.933C311.506,121.937 310.416,122.333 309.668,123.077C309.46,123.283 309.188,123.387 308.915,123.387ZM266.153,122.125C266.048,122.125 265.941,122.109 265.835,122.077C265.273,121.901 264.957,121.302 265.133,120.738C265.918,118.22 266.733,116.646 266.767,116.58C267.042,116.056 267.688,115.856 268.208,116.127C268.731,116.399 268.934,117.044 268.662,117.568C268.655,117.583 267.896,119.053 267.174,121.374C267.03,121.832 266.609,122.125 266.153,122.125ZM362.884,121.922C362.763,121.922 362.64,121.901 362.52,121.858C361.965,121.657 361.679,121.044 361.879,120.489C362.334,119.236 362.71,117.902 362.996,116.524C363.116,115.946 363.676,115.572 364.261,115.696C364.838,115.817 365.21,116.383 365.089,116.961C364.781,118.437 364.377,119.869 363.889,121.218C363.731,121.652 363.321,121.922 362.884,121.922ZM364.663,113.586C364.632,113.586 364.6,113.585 364.568,113.582C363.981,113.53 363.545,113.011 363.597,112.424C363.702,111.229 363.756,109.982 363.756,108.716L363.754,108.251C363.75,107.66 364.226,107.179 364.815,107.175L364.822,107.175C365.41,107.175 365.886,107.649 365.891,108.236L365.893,108.716C365.893,110.044 365.837,111.355 365.726,112.612C365.677,113.167 365.211,113.586 364.663,113.586ZM364.599,105.043C364.053,105.043 363.587,104.627 363.536,104.073C363.412,102.721 363.232,101.318 363.002,99.905C362.907,99.323 363.303,98.774 363.886,98.679C364.472,98.588 365.017,98.981 365.112,99.563C365.35,101.024 365.536,102.476 365.665,103.877C365.719,104.465 365.286,104.985 364.699,105.04C364.665,105.042 364.632,105.043 364.599,105.043ZM363.237,96.603C362.749,96.603 362.308,96.266 362.195,95.77C361.864,94.305 361.505,92.933 361.149,91.683C360.987,91.115 361.316,90.524 361.884,90.362C362.453,90.201 363.043,90.53 363.205,91.097C363.571,92.382 363.939,93.792 364.28,95.298C364.41,95.874 364.048,96.446 363.473,96.576C363.395,96.594 363.316,96.603 363.237,96.603ZM360.889,88.381C360.446,88.381 360.032,88.105 359.879,87.662C359.206,85.719 358.706,84.545 358.644,84.398C358.46,84.003 358.532,83.519 358.858,83.194C359.275,82.777 359.952,82.777 360.369,83.194C360.687,83.511 361.621,86.159 361.9,86.963C362.093,87.52 361.798,88.129 361.239,88.323C361.123,88.362 361.005,88.381 360.889,88.381Z" style="fill:rgb(36,23,38);fill-rule:nonzero;"/>
        </g>
        <g transform="matrix(1,0,0,1,0,23)">
            <path d="M119.748,383.868C118.773,383.867 117.791,383.813 116.827,383.706C116.241,383.641 115.817,383.113 115.882,382.527C115.948,381.941 116.482,381.521 117.061,381.582C118.415,381.733 119.803,381.769 121.151,381.692C121.718,381.642 122.245,382.11 122.277,382.699C122.31,383.288 121.86,383.793 121.27,383.825C120.765,383.852 120.258,383.868 119.748,383.868ZM125.433,383.225C124.946,383.225 124.504,382.889 124.392,382.393C124.262,381.817 124.623,381.245 125.198,381.114C126.507,380.817 127.827,380.407 129.12,379.894C129.669,379.679 130.289,379.945 130.507,380.494C130.724,381.043 130.456,381.664 129.907,381.881C128.513,382.433 127.087,382.877 125.672,383.199C125.591,383.216 125.511,383.225 125.433,383.225ZM112.74,382.959C112.663,382.959 112.583,382.951 112.505,382.933C111.051,382.607 109.635,382.234 108.296,381.823C107.733,381.65 107.415,381.052 107.589,380.487C107.762,379.925 108.358,379.609 108.925,379.779C110.211,380.175 111.572,380.533 112.973,380.848C113.549,380.976 113.911,381.548 113.782,382.124C113.67,382.62 113.23,382.959 112.74,382.959ZM104.59,380.435C104.454,380.435 104.317,380.409 104.184,380.355C102.8,379.786 101.468,379.153 100.223,378.471C99.704,378.188 99.514,377.539 99.798,377.021C100.082,376.501 100.729,376.311 101.248,376.596C102.425,377.239 103.686,377.839 104.996,378.377C105.542,378.601 105.803,379.225 105.578,379.771C105.408,380.186 105.009,380.435 104.59,380.435ZM133.362,380.1C132.991,380.1 132.629,379.906 132.432,379.561C132.14,379.048 132.319,378.395 132.832,378.103C134.007,377.435 135.169,376.67 136.288,375.829C136.761,375.476 137.431,375.571 137.785,376.042C138.139,376.514 138.044,377.184 137.572,377.538C136.381,378.432 135.143,379.247 133.89,379.96C133.723,380.055 133.541,380.1 133.362,380.1ZM97.128,376.324C96.91,376.324 96.69,376.257 96.5,376.118C95.29,375.237 94.155,374.274 93.124,373.257C92.703,372.843 92.699,372.166 93.114,371.746C93.53,371.325 94.206,371.321 94.625,371.736C95.581,372.679 96.635,373.573 97.759,374.393C98.236,374.741 98.341,375.408 97.993,375.885C97.783,376.171 97.457,376.324 97.128,376.324ZM140.192,374.991C139.909,374.991 139.628,374.879 139.418,374.658C139.011,374.23 139.029,373.554 139.457,373.148C140.454,372.2 141.412,371.182 142.306,370.121C142.686,369.672 143.361,369.613 143.812,369.993C144.263,370.373 144.321,371.047 143.94,371.499C142.996,372.62 141.982,373.697 140.928,374.698C140.721,374.894 140.456,374.991 140.192,374.991ZM91.09,370.334C90.759,370.334 90.435,370.182 90.225,369.895C89.353,368.696 88.577,367.418 87.919,366.093C87.656,365.564 87.872,364.923 88.4,364.66C88.931,364.397 89.571,364.613 89.833,365.141C90.438,366.359 91.151,367.535 91.953,368.636C92.3,369.114 92.195,369.782 91.718,370.129C91.528,370.267 91.308,370.334 91.09,370.334ZM145.686,368.459C145.483,368.459 145.277,368.402 145.095,368.281C144.604,367.954 144.47,367.291 144.797,366.799C145.582,365.618 146.279,364.414 146.867,363.218C147.129,362.69 147.77,362.476 148.299,362.732C148.394,362.779 148.479,362.838 148.553,362.907C148.492,362.373 148.842,361.868 149.377,361.746C150.645,361.457 151.937,361.019 153.218,360.445C153.757,360.204 154.388,360.443 154.63,360.982C154.872,361.521 154.631,362.153 154.093,362.394C152.683,363.026 151.257,363.509 149.853,363.829C149.495,363.916 149.138,363.802 148.889,363.571C148.911,363.767 148.88,363.973 148.786,364.164C148.156,365.441 147.414,366.726 146.578,367.983C146.372,368.293 146.032,368.459 145.686,368.459ZM145.376,364.304L145.352,364.304C143.756,364.268 142.237,364.008 140.836,363.53C140.277,363.34 139.978,362.733 140.169,362.174C140.359,361.615 140.969,361.316 141.525,361.507C142.72,361.914 144.024,362.136 145.401,362.167C145.991,362.181 146.458,362.669 146.446,363.26C146.431,363.841 145.955,364.304 145.376,364.304ZM87.295,362.717C86.838,362.717 86.414,362.422 86.273,361.963C85.844,360.566 85.517,359.11 85.304,357.634C85.218,357.051 85.623,356.508 86.208,356.423C86.789,356.327 87.333,356.742 87.419,357.327C87.618,358.694 87.92,360.042 88.317,361.334C88.49,361.898 88.173,362.497 87.61,362.67C87.505,362.702 87.399,362.717 87.295,362.717ZM137.503,361.469C137.244,361.469 136.985,361.376 136.78,361.187C135.428,359.943 134.577,358.415 134.388,356.886C134.315,356.301 134.731,355.766 135.317,355.694C135.909,355.606 136.436,356.037 136.509,356.623C136.636,357.651 137.247,358.713 138.227,359.614C138.661,360.014 138.69,360.69 138.291,361.124C138.079,361.353 137.791,361.469 137.503,361.469ZM149.402,360.786C149.303,360.786 149.201,360.772 149.101,360.742C148.534,360.575 148.211,359.981 148.378,359.416C148.784,358.036 148.991,356.77 148.992,355.65C148.992,355.065 149.464,354.519 150.049,354.513C150.576,354.595 151.115,354.901 151.128,355.487C151.128,356.976 150.892,358.445 150.428,360.02C150.29,360.485 149.864,360.786 149.402,360.786ZM157.397,360.427C157.048,360.427 156.707,360.257 156.502,359.944C156.18,359.45 156.317,358.788 156.811,358.464C157.917,357.74 159.029,356.903 160.116,355.977C160.565,355.593 161.241,355.646 161.622,356.097C162.005,356.546 161.952,357.221 161.502,357.603C160.347,358.588 159.162,359.479 157.982,360.253C157.801,360.371 157.597,360.427 157.397,360.427ZM163.908,354.919C163.643,354.919 163.378,354.821 163.171,354.625C162.743,354.218 162.726,353.542 163.133,353.114C164.105,352.093 165.009,351.03 165.822,349.954C166.178,349.482 166.846,349.389 167.319,349.746C167.79,350.102 167.883,350.773 167.527,351.243C166.665,352.383 165.707,353.508 164.681,354.587C164.472,354.808 164.189,354.919 163.908,354.919ZM86.055,354.285C85.463,354.284 84.985,353.805 84.986,353.215C84.989,350.539 85.346,348.812 85.362,348.74C85.482,348.163 86.039,347.798 86.627,347.914C87.204,348.035 87.574,348.601 87.453,349.179C87.45,349.195 87.126,350.781 87.123,353.217C87.123,353.807 86.645,354.285 86.055,354.285ZM136.909,353.979C136.629,353.979 136.351,353.871 136.141,353.653C135.731,353.228 135.742,352.552 136.166,352.142C137.175,351.166 138.564,350.394 140.293,349.844C140.86,349.666 141.456,349.978 141.635,350.539C141.813,351.101 141.502,351.703 140.94,351.881C139.527,352.33 138.421,352.934 137.652,353.678C137.444,353.879 137.176,353.979 136.909,353.979ZM148.707,352.629C148.423,352.629 148.14,352.516 147.931,352.294C147.244,351.569 146.197,351.2 144.816,351.2C144.225,351.2 143.747,350.722 143.747,350.131C143.747,349.54 144.225,349.062 144.816,349.062C146.808,349.062 148.379,349.656 149.484,350.826C149.89,351.255 149.87,351.931 149.441,352.336C149.234,352.532 148.971,352.629 148.707,352.629ZM169.029,348.104C168.85,348.104 168.668,348.059 168.501,347.964C167.989,347.672 167.809,347.019 168.101,346.506C168.792,345.293 169.389,344.045 169.876,342.795C170.091,342.244 170.713,341.974 171.26,342.188C171.81,342.402 172.081,343.022 171.867,343.572C171.342,344.918 170.7,346.261 169.958,347.565C169.762,347.91 169.401,348.104 169.029,348.104ZM172.103,340.164C172.029,340.164 171.954,340.157 171.879,340.14C171.302,340.017 170.933,339.449 171.058,338.872C171.344,337.531 171.516,336.166 171.568,334.817C171.591,334.227 172.098,333.743 172.677,333.791C173.267,333.814 173.726,334.311 173.703,334.9C173.647,336.37 173.459,337.857 173.147,339.318C173.04,339.82 172.596,340.164 172.103,340.164ZM172.422,331.663C171.897,331.663 171.439,331.277 171.365,330.743C171.177,329.398 170.867,328.061 170.445,326.77C170.261,326.209 170.567,325.605 171.127,325.422C171.692,325.236 172.293,325.546 172.475,326.104C172.937,327.516 173.275,328.977 173.481,330.446C173.562,331.03 173.155,331.571 172.571,331.652C172.521,331.66 172.471,331.663 172.422,331.663ZM169.787,323.58C169.404,323.58 169.035,323.374 168.843,323.013C168.21,321.821 167.464,320.666 166.63,319.577C166.27,319.11 166.359,318.439 166.827,318.08C167.295,317.721 167.968,317.81 168.325,318.277C169.233,319.458 170.042,320.715 170.73,322.01C171.008,322.532 170.809,323.179 170.289,323.455C170.128,323.541 169.956,323.58 169.787,323.58ZM164.614,316.828C164.35,316.828 164.086,316.731 163.879,316.536C162.898,315.607 161.823,314.737 160.688,313.95C160.203,313.613 160.082,312.948 160.418,312.463C160.753,311.978 161.418,311.857 161.905,312.193C163.13,313.042 164.288,313.981 165.349,314.983C165.778,315.389 165.797,316.065 165.391,316.494C165.181,316.716 164.897,316.828 164.614,316.828ZM157.616,311.973C157.456,311.973 157.295,311.938 157.142,311.861C155.925,311.258 154.644,310.73 153.331,310.291C152.771,310.104 152.469,309.499 152.656,308.94C152.843,308.381 153.449,308.076 154.007,308.265C155.414,308.735 156.787,309.301 158.092,309.948C158.621,310.21 158.837,310.852 158.574,311.38C158.387,311.756 158.009,311.973 157.616,311.973ZM149.54,309.265C149.473,309.265 149.404,309.259 149.336,309.245C148.007,308.988 146.626,308.81 145.233,308.716C144.644,308.676 144.199,308.166 144.238,307.578C144.278,306.989 144.778,306.567 145.377,306.583C146.858,306.683 148.327,306.873 149.743,307.148C150.322,307.26 150.701,307.82 150.588,308.4C150.49,308.91 150.042,309.265 149.54,309.265Z" style="fill:rgb(36,23,38);fill-rule:nonzero;"/>
        </g>
        <g transform="matrix(0.666944,-0.35418,0.35418,0.666944,-146.156,144.622)">
            <g>
                <path d="M188.941,198.298C188.941,198.298 205.616,203.916 214.406,218.893" style="fill:white;fill-rule:nonzero;"/>
            </g>
            <g>
                <path d="M214.406,220.098C213.994,220.098 213.591,219.885 213.365,219.502C204.902,205.081 188.72,199.495 188.558,199.439C187.927,199.227 187.588,198.543 187.8,197.912C188.012,197.283 188.695,196.942 189.326,197.155C190.025,197.389 206.53,203.091 215.448,218.282C215.785,218.855 215.592,219.595 215.017,219.932C214.825,220.046 214.616,220.098 214.406,220.098Z" style="fill:rgb(36,23,38);fill-rule:nonzero;"/>
            </g>
        </g>
    </g>
</svg>
