<?xml version="1.0" encoding="UTF-8" standalone="no"?><!DOCTYPE svg PUBLIC "-//W3C//DTD SVG 1.1//EN" "http://www.w3.org/Graphics/SVG/1.1/DTD/svg11.dtd"><svg width="100%" height="100%" viewBox="0 0 512 512" version="1.1" xmlns="http://www.w3.org/2000/svg" xmlns:xlink="http://www.w3.org/1999/xlink" xml:space="preserve" xmlns:serif="http://www.serif.com/" style="fill-rule:evenodd;clip-rule:evenodd;stroke-linejoin:round;stroke-miterlimit:2;"><g><path d="M147.867,75.402c-1.058,-0 -1.577,-0.746 -1.609,-1.439c-0.005,-0.106 0.002,-0.212 0.024,-0.316c0.01,-0.054 1.075,-5.109 2.547,-11.056c-7.384,-5.012 -7.233,-6.878 -7.174,-7.595c0.063,-0.765 0.541,-1.404 1.309,-1.749c1.55,-0.697 4.544,-1.283 8.905,-1.743c2.508,-8.043 3.993,-9.69 5.553,-9.69c0.324,-0 0.636,0.084 0.924,0.251c1.677,0.975 4.195,5.102 6.138,8.653c1.492,-0.04 2.923,-0.06 4.237,-0.06c3.988,-0 6.487,0.168 7.425,0.499c0.763,0.269 1.27,0.845 1.392,1.578c0.129,0.791 0.429,2.614 -7.696,9.096c1.979,4.743 2.833,7.898 2.535,9.384c-0.071,0.362 -0.449,1.543 -2.25,1.544l-0.002,-0c-2.426,-0 -7.213,-2.194 -10.246,-3.719c-3.312,2.196 -9.877,6.362 -12.012,6.362Zm3.176,-11.361c-0.858,3.514 -1.558,6.631 -1.958,8.448c1.502,-0.664 4.244,-2.159 8.259,-4.768c-2.162,-1.166 -4.319,-2.425 -6.301,-3.68Zm11.216,3.391c4.037,1.949 6.55,2.739 7.676,2.823c-0.08,-0.948 -0.602,-3.063 -2.135,-6.832c-1.731,1.317 -3.608,2.674 -5.541,4.009Zm-10.577,-5.947c2.469,1.598 5.27,3.226 8.027,4.665c2.496,-1.688 4.917,-3.432 7.084,-5.1c-1.121,-2.546 -2.435,-5.259 -3.774,-7.79c-3.218,0.113 -6.445,0.31 -9.246,0.566c-0.663,2.223 -1.362,4.792 -2.091,7.659Zm-7.416,-6.076c0.312,0.54 1.414,1.943 5.217,4.6c0.553,-2.149 1.09,-4.125 1.606,-5.908c-4.068,0.475 -5.96,0.98 -6.823,1.308Zm21.53,-2.226c1.065,2.064 2.099,4.211 3.02,6.271c4.461,-3.61 5.741,-5.347 6.107,-6.029c-0.797,-0.127 -2.662,-0.272 -6.202,-0.272c-0.923,0.001 -1.906,0.011 -2.925,0.03Zm-8.364,-8.685c-0.417,0.523 -1.353,2.099 -2.862,6.753c2.221,-0.185 4.654,-0.334 7.113,-0.436c-2.144,-3.8 -3.546,-5.639 -4.251,-6.317Z" style="fill:#241726;fill-rule:nonzero;"/><path d="M16.113,252.458c-1.06,-0 -1.58,-0.746 -1.611,-1.439c-0.005,-0.106 0.002,-0.212 0.024,-0.317c0.01,-0.052 1.075,-5.108 2.55,-11.055c-7.386,-5.013 -7.233,-6.878 -7.174,-7.595c0.061,-0.765 0.539,-1.403 1.307,-1.749c1.553,-0.697 4.546,-1.283 8.907,-1.743c2.508,-8.043 3.993,-9.69 5.551,-9.69c0.324,-0 0.636,0.084 0.924,0.252c1.677,0.974 4.198,5.101 6.141,8.651c1.492,-0.039 2.923,-0.06 4.237,-0.06c3.986,-0 6.484,0.168 7.423,0.499c0.763,0.269 1.27,0.845 1.392,1.578c0.129,0.791 0.429,2.613 -7.693,9.095c1.977,4.744 2.83,7.899 2.533,9.386c-0.071,0.361 -0.449,1.542 -2.25,1.543l-0.002,-0c-2.426,-0 -7.213,-2.194 -10.246,-3.719c-3.315,2.197 -9.88,6.363 -12.013,6.363Zm3.176,-11.361c-0.861,3.515 -1.56,6.632 -1.96,8.448c1.502,-0.664 4.244,-2.159 8.259,-4.768c-2.162,-1.166 -4.317,-2.425 -6.299,-3.68Zm11.214,3.391c4.037,1.949 6.55,2.739 7.676,2.823c-0.08,-0.948 -0.602,-3.063 -2.135,-6.832c-1.731,1.317 -3.605,2.674 -5.541,4.009Zm-10.577,-5.947c2.472,1.598 5.273,3.226 8.027,4.665c2.496,-1.688 4.917,-3.432 7.084,-5.101c-1.119,-2.546 -2.433,-5.258 -3.774,-7.789c-3.218,0.113 -6.443,0.311 -9.246,0.566c-0.66,2.224 -1.362,4.793 -2.091,7.659Zm-7.416,-6.076c0.314,0.54 1.414,1.943 5.217,4.6c0.553,-2.149 1.092,-4.125 1.609,-5.907c-4.069,0.474 -5.963,0.979 -6.826,1.307Zm21.533,-2.225c1.063,2.062 2.099,4.21 3.018,6.269c4.461,-3.61 5.741,-5.346 6.107,-6.027c-0.797,-0.127 -2.662,-0.272 -6.199,-0.272c-0.925,-0 -1.907,0.011 -2.926,0.03Zm-8.367,-8.687c-0.414,0.523 -1.351,2.1 -2.862,6.753c2.221,-0.184 4.654,-0.334 7.113,-0.436c-2.142,-3.8 -3.546,-5.638 -4.251,-6.317Z" style="fill:#241726;fill-rule:nonzero;"/><path d="M375.954,168.224c-0.739,-0 -2.657,-0.061 -8.008,-9.146c-0.68,0.01 -1.348,0.015 -2.001,0.015c-11.111,-0 -11.769,-1.142 -12.125,-1.756c-0.222,-0.386 -0.217,-1.104 0.007,-1.489c0.051,-0.093 0.117,-0.177 0.193,-0.252c0.037,-0.039 3.669,-3.715 8.125,-7.919c-3.41,-8.003 -2.404,-9.545 -2.018,-10.137c0.39,-0.596 1.009,-0.925 1.743,-0.925c0.063,-0 0.334,0.022 0.395,0.03c1.682,0.254 4.517,1.381 8.435,3.353c5.763,-4.821 7.732,-5.454 8.8,-5.454c0.783,-0 1.419,0.372 1.753,1.02c0.882,1.727 0.768,6.561 0.48,10.599c2.335,1.419 8.415,5.189 9.57,6.677c0.497,0.639 0.612,1.397 0.317,2.079c-0.319,0.736 -1.053,2.43 -11.394,3.488c-0.902,5.06 -1.892,8.174 -2.945,9.263c-0.35,0.361 -0.803,0.556 -1.327,0.554Zm-5.137,-9.212c2.594,4.239 4.212,5.987 4.927,6.533c0.444,-0.84 1.151,-2.9 1.901,-6.906c-2.167,0.172 -4.478,0.298 -6.828,0.373Zm-13.812,-2.876c1.602,0.25 4.79,0.505 9.522,0.46c-1.187,-2.149 -2.318,-4.375 -3.306,-6.503c-2.625,2.489 -4.9,4.73 -6.216,6.043Zm8.135,-7.849c1.214,2.683 2.689,5.568 4.227,8.268c3.013,-0.069 5.994,-0.227 8.715,-0.457c0.436,-2.746 0.8,-5.738 1.041,-8.592c-2.767,-1.647 -5.587,-3.226 -8.081,-4.528c-1.761,1.513 -3.74,3.293 -5.902,5.309Zm16.359,0.657c-0.219,2.311 -0.512,4.677 -0.853,6.907c5.716,-0.625 7.73,-1.394 8.403,-1.769c-0.924,-0.834 -3.6,-2.707 -7.55,-5.138Zm-19.309,-9.777c-0.029,0.624 0.139,2.4 1.899,6.69c1.626,-1.508 3.147,-2.878 4.546,-4.098c-3.676,-1.801 -5.543,-2.401 -6.445,-2.592Zm10.914,2.077c1.967,1.047 4.095,2.238 6.219,3.482c0.254,-4.362 0.066,-6.667 -0.158,-7.617c-0.642,0.212 -2.27,1.033 -6.061,4.135Z" style="fill:#241726;fill-rule:nonzero;"/><path d="M445.925,153.435c-0.936,-0 -1.821,-0.001 -4.366,-9.964c-8.481,-1.593 -9.222,-2.579 -9.471,-2.909c-0.232,-0.31 -0.334,-0.884 -0.232,-1.257c0.149,-0.539 0.495,-1.786 10.151,-5.724c3.43,-9.071 4.595,-9.071 5.37,-9.071c0.392,-0 0.939,0.283 1.173,0.597c0.622,0.828 1.192,2.987 2.06,6.449c0.275,1.097 0.607,2.422 0.795,2.992c0.505,0.224 1.641,0.627 2.582,0.959c4.966,1.755 6.245,2.352 6.479,3.52c0.085,0.43 -0.134,1.068 -0.461,1.363c-1.002,0.907 -5.814,2.716 -8.325,3.621c-4.049,9.329 -4.914,9.378 -5.677,9.421c-0.024,0.002 -0.053,0.003 -0.078,0.003Zm-10.692,-13.961c1.682,0.488 4.824,1.188 7.564,1.687c0.48,0.087 0.868,0.449 0.987,0.924c0.709,2.829 1.638,6.054 2.296,7.851c0.931,-1.68 2.365,-4.722 3.523,-7.409c0.137,-0.318 0.4,-0.566 0.726,-0.681c2.338,-0.834 4.978,-1.859 6.587,-2.577c-1.141,-0.48 -2.738,-1.045 -3.764,-1.408c-2.833,-1.002 -3.367,-1.219 -3.73,-1.698c-0.317,-0.423 -0.517,-1.136 -1.233,-4c-0.278,-1.106 -0.707,-2.814 -1.082,-4.064c-0.839,1.604 -2.031,4.399 -2.955,6.871c-0.124,0.327 -0.378,0.589 -0.702,0.719c-3.027,1.223 -6.464,2.784 -8.217,3.785Z" style="fill:#241726;fill-rule:nonzero;"/><path d="M421.95,433.836c-1.289,0 -2.508,0.002 -6.015,-12.914c-11.674,-2.064 -12.694,-3.34 -13.037,-3.768c-0.322,-0.403 -0.463,-1.15 -0.32,-1.636c0.205,-0.697 0.685,-2.312 13.974,-7.415c4.726,-11.757 6.331,-11.757 7.399,-11.757c0.539,0 1.293,0.367 1.615,0.774c0.856,1.07 1.641,3.871 2.836,8.359c0.379,1.421 0.836,3.139 1.095,3.878c0.695,0.29 2.256,0.81 3.549,1.24c6.838,2.276 8.603,3.051 8.925,4.564c0.117,0.558 -0.184,1.384 -0.635,1.766c-1.375,1.177 -8.003,3.522 -11.459,4.695c-5.579,12.09 -6.766,12.155 -7.817,12.211c-0.036,0.002 -0.077,0.003 -0.11,0.003Zm-14.73,-18.093c2.316,0.628 6.647,1.538 10.42,2.185c0.661,0.113 1.195,0.582 1.359,1.196c0.976,3.667 2.26,7.847 3.166,10.176c1.282,-2.178 3.252,-6.12 4.851,-9.603c0.188,-0.412 0.551,-0.731 0.999,-0.881c3.22,-1.081 6.855,-2.41 9.071,-3.34c-1.574,-0.624 -3.773,-1.356 -5.186,-1.827c-3.901,-1.298 -4.635,-1.58 -5.132,-2.202c-0.437,-0.546 -0.712,-1.47 -1.698,-5.18c-0.383,-1.435 -0.973,-3.652 -1.49,-5.269c-1.158,2.077 -2.799,5.7 -4.072,8.905c-0.17,0.426 -0.52,0.764 -0.966,0.932c-4.171,1.586 -8.908,3.61 -11.322,4.908Z" style="fill:#241726;fill-rule:nonzero;"/><path d="M88.03,108.584c-0.936,0 -1.821,0.001 -4.368,-9.964c-8.478,-1.594 -9.219,-2.577 -9.468,-2.907c-0.234,-0.31 -0.336,-0.887 -0.232,-1.262c0.149,-0.538 0.497,-1.784 10.151,-5.721c3.432,-9.071 4.595,-9.071 5.37,-9.071c0.392,0 0.939,0.283 1.173,0.597c0.622,0.826 1.192,2.987 2.06,6.449c0.275,1.097 0.607,2.422 0.795,2.992c0.505,0.224 1.638,0.625 2.577,0.957c4.968,1.756 6.248,2.354 6.484,3.521c0.085,0.43 -0.134,1.067 -0.458,1.363c-1.004,0.908 -5.816,2.717 -8.327,3.622c-4.052,9.328 -4.914,9.378 -5.677,9.421c-0.027,0.002 -0.056,0.003 -0.08,0.003Zm-10.695,-13.96c1.682,0.485 4.824,1.186 7.564,1.686c0.48,0.088 0.868,0.449 0.987,0.923c0.709,2.829 1.641,6.054 2.299,7.851c0.931,-1.68 2.362,-4.722 3.523,-7.409c0.137,-0.317 0.4,-0.564 0.726,-0.68c2.338,-0.835 4.978,-1.86 6.587,-2.577c-1.143,-0.481 -2.74,-1.046 -3.766,-1.409c-2.833,-1.002 -3.367,-1.219 -3.727,-1.699c-0.317,-0.421 -0.517,-1.134 -1.233,-3.997c-0.278,-1.107 -0.707,-2.816 -1.08,-4.065c-0.841,1.604 -2.033,4.398 -2.957,6.87c-0.124,0.328 -0.378,0.59 -0.702,0.72c-3.031,1.223 -6.468,2.785 -8.221,3.786Z" style="fill:#241726;fill-rule:nonzero;"/><path d="M415.668,113.708c-5.158,0 -9.356,-4.197 -9.356,-9.356c-0,-5.159 4.198,-9.356 9.356,-9.356c5.158,0 9.356,4.197 9.356,9.356c-0,5.159 -4.198,9.356 -9.356,9.356Zm-0,-16.216c-3.783,0 -6.86,3.078 -6.86,6.86c-0,3.782 3.076,6.86 6.86,6.86c3.784,0 6.86,-3.078 6.86,-6.86c-0,-3.782 -3.077,-6.86 -6.86,-6.86Z" style="fill:#241726;fill-rule:nonzero;"/><path d="M108.57,458.314c-6.996,-0 -12.691,-5.212 -12.691,-11.618c0,-6.406 5.695,-11.618 12.691,-11.618c6.996,0 12.69,5.212 12.69,11.618c0,6.406 -5.693,11.618 -12.69,11.618Zm-0,-20.136c-5.131,-0 -9.305,3.822 -9.305,8.518c-0,4.696 4.172,8.518 9.305,8.518c5.132,0 9.305,-3.822 9.305,-8.518c-0,-4.696 -4.173,-8.518 -9.305,-8.518Z" style="fill:#241726;fill-rule:nonzero;"/><path d="M454.385,318.559c-5.158,-0 -9.356,-4.197 -9.356,-9.356c-0,-5.159 4.198,-9.356 9.356,-9.356c5.158,-0 9.356,4.197 9.356,9.356c-0,5.159 -4.198,9.356 -9.356,9.356Zm-0,-16.216c-3.783,-0 -6.86,3.078 -6.86,6.86c-0,3.782 3.076,6.86 6.86,6.86c3.784,-0 6.86,-3.078 6.86,-6.86c-0,-3.782 -3.077,-6.86 -6.86,-6.86Z" style="fill:#241726;fill-rule:nonzero;"/><g><g><path d="M217.493,130.439l-161.846,72.747c3.184,6.613 6.627,13.48 10.034,19.999l154.661,-84.326l-2.849,-8.42Z" style="fill:#a8d5cb;fill-rule:nonzero;"/><path d="M214.424,123.882l-168.804,57.118c2.545,6.204 6.078,13.983 10.026,22.186l161.846,-72.747l-3.068,-6.557Z" style="fill:#f7d76f;fill-rule:nonzero;"/><path d="M211.662,117.979c0,-0 -172.073,38.803 -170.025,51.365c0.366,2.246 1.822,6.387 3.983,11.656l168.804,-57.118l-2.762,-5.903Z" style="fill:#ec7e96;fill-rule:nonzero;"/><path d="M76.445,242.711c4.372,7.385 7.897,12.457 9.555,13.148c6.564,2.733 141.905,-103.161 141.905,-103.161l-3.535,-7.555l-147.925,97.568Z" style="fill:#ec7e96;fill-rule:nonzero;"/><path d="M220.708,138.658l-155.027,84.527c3.78,7.233 7.507,14.022 10.764,19.526l147.925,-97.569l-3.662,-6.484Z" style="fill:#648f9f;fill-rule:nonzero;"/></g><path d="M45.576,182.248c-0.505,-0.018 -0.969,-0.343 -1.139,-0.85c-0.22,-0.653 0.132,-1.361 0.786,-1.581l160.511,-53.853c0.647,-0.216 1.361,0.134 1.579,0.787c0.221,0.653 -0.132,1.361 -0.786,1.581l-160.511,53.853c-0.144,0.048 -0.294,0.068 -0.44,0.063Z" style="fill:#241726;fill-rule:nonzero;"/><path d="M57.226,204.872c-0.453,-0.016 -0.882,-0.281 -1.087,-0.722c-0.292,-0.625 -0.019,-1.368 0.606,-1.657l153.67,-71.309c0.623,-0.286 1.37,-0.018 1.657,0.606c0.292,0.625 0.019,1.368 -0.606,1.658l-153.67,71.31c-0.184,0.084 -0.38,0.121 -0.57,0.114Z" style="fill:#241726;fill-rule:nonzero;"/><path d="M65.636,224.433c-0.424,-0.016 -0.831,-0.247 -1.051,-0.646c-0.331,-0.605 -0.109,-1.364 0.495,-1.695l152.499,-83.741c0.597,-0.33 1.36,-0.114 1.694,0.491c0.332,0.605 0.11,1.364 -0.495,1.695l-152.497,83.742c-0.204,0.112 -0.425,0.162 -0.645,0.154Z" style="fill:#241726;fill-rule:nonzero;"/><path d="M76.4,243.958c-0.39,-0.014 -0.766,-0.209 -0.998,-0.56c-0.38,-0.576 -0.22,-1.35 0.355,-1.729l147.927,-97.569c0.575,-0.379 1.35,-0.223 1.729,0.355c0.38,0.576 0.22,1.349 -0.355,1.729l-147.927,97.568c-0.224,0.148 -0.481,0.215 -0.731,0.206Z" style="fill:#241726;fill-rule:nonzero;"/><g><path d="M240.158,146.431c0,0 -17.5,9.629 -18.332,8.188c-0.832,-1.441 -19.258,-35 -19.258,-35l16.003,-9.725l21.587,36.537Z" style="fill:#648f9f;fill-rule:nonzero;"/><path d="M258.784,68.887c0,-0 -30.554,-12.139 -42.306,-9.194c-11.752,2.944 -45.537,39.277 -37.98,44.042c7.556,4.763 25.08,-10.645 34.951,-7.698c9.87,2.947 16.138,7.974 16.138,7.974l29.197,-35.124Z" style="fill:#ec7e96;fill-rule:nonzero;"/><path d="M296.624,134.392c-0,-0 -4.75,32.533 -13.172,41.241c-8.423,8.709 -56.775,19.824 -57.127,10.898c-0.352,-8.926 21.752,-16.408 24.13,-26.431c2.378,-10.022 1.154,-17.963 1.154,-17.963l45.015,-7.745Z" style="fill:#ec7e96;fill-rule:nonzero;"/><g><path d="M242.006,155.453l-27.694,-51.267c0,-0 25.924,-39.96 50.677,-43.689c24.752,-3.728 84.904,-7.725 84.662,6.827c-0.241,14.553 -35.075,58.219 -44.522,68.481c-9.447,10.262 -63.123,19.648 -63.123,19.648Z" style="fill:#fff;fill-rule:nonzero;"/><path d="M241.962,156.7c-0.436,-0.015 -0.839,-0.259 -1.052,-0.654l-27.695,-51.267c-0.218,-0.402 -0.198,-0.89 0.05,-1.273c1.072,-1.651 26.52,-40.475 51.54,-44.242c13.795,-2.079 36.929,-4.019 55.117,-3.368c20.669,0.74 31.093,4.592 30.979,11.45c-0.259,15.5 -36.998,60.771 -44.853,69.305c-9.621,10.454 -61.617,19.645 -63.826,20.033c-0.087,0.015 -0.175,0.019 -0.26,0.016Zm-26.197,-52.447l26.911,49.812c6.99,-1.273 53.128,-9.973 61.534,-19.103c10.216,-11.098 43.965,-53.885 44.194,-67.656c0.084,-5.086 -10.062,-8.252 -28.571,-8.915c-18.028,-0.645 -40.97,1.281 -54.658,3.342c-22.259,3.352 -46.025,37.499 -49.41,42.52Z" style="fill:#241726;fill-rule:nonzero;"/></g><path d="M296.186,55.449c-0,-0 28.334,55.703 31.896,56.046c4.161,0.402 33.986,-48.46 26.693,-51.935c-19.845,-9.456 -53.434,-5.168 -58.589,-4.111Z" style="fill:#ec7e96;fill-rule:nonzero;"/><path d="M283.059,77.671c12.735,0.455 22.705,11.165 22.249,23.901c-0.456,12.735 -11.165,22.705 -23.901,22.249c-12.735,-0.456 -22.705,-11.165 -22.249,-23.901c0.455,-12.736 11.165,-22.705 23.901,-22.249Z" style="fill:#648f9f;"/><g><path d="M282.071,87.18c7.595,0.272 13.541,6.659 13.269,14.254c-0.272,7.595 -6.659,13.54 -14.254,13.269c-7.595,-0.272 -13.54,-6.659 -13.269,-14.254c0.272,-7.595 6.659,-13.541 14.254,-13.269Z" style="fill:#fff;"/><path d="M281.056,115.952c-5.21,-0.186 -9.877,-2.989 -12.482,-7.497c-2.005,-3.475 -2.54,-7.522 -1.504,-11.396c1.039,-3.875 3.524,-7.114 6.996,-9.122c2.448,-1.412 5.227,-2.107 8.039,-2.006c5.208,0.186 9.874,2.99 12.48,7.498c4.141,7.17 1.677,16.375 -5.494,20.517c-2.447,1.414 -5.226,2.107 -8.035,2.006Zm0.958,-27.527c-2.343,-0.084 -4.659,0.496 -6.699,1.674c-2.896,1.672 -4.966,4.373 -5.831,7.604c-0.867,3.231 -0.42,6.606 1.253,9.502c2.171,3.76 6.062,6.096 10.409,6.252c2.341,0.084 4.654,-0.495 6.695,-1.673c5.98,-3.454 8.033,-11.128 4.58,-17.106c-2.17,-3.759 -6.063,-6.098 -10.407,-6.253Z" style="fill:#241726;fill-rule:nonzero;"/></g><path d="M257.396,113.892c-0,-0 -9.525,-6.509 -42.66,3.502c-4.157,1.257 -25.21,27.056 -24.986,30.771c0.224,3.714 33.862,2.06 41.844,-1.59c7.979,-3.65 32.028,-29.218 25.802,-32.683Z" style="fill:#ec7e96;fill-rule:nonzero;"/><g><path d="M341.461,81.832c0,-0 -1.707,4.135 -2.889,5.05" style="fill:#fff;fill-rule:nonzero;"/><path d="M338.529,88.129c-0.358,-0.013 -0.706,-0.179 -0.943,-0.484c-0.42,-0.545 -0.321,-1.328 0.224,-1.751c0.549,-0.426 1.735,-2.69 2.499,-4.54c0.264,-0.636 0.99,-0.94 1.629,-0.677c0.637,0.263 0.94,0.992 0.678,1.63c-0.43,1.043 -1.938,4.524 -3.277,5.561c-0.242,0.186 -0.528,0.271 -0.81,0.261Z" style="fill:#241726;fill-rule:nonzero;"/></g><g><path d="M333.523,92.02c-0,0 -1.707,4.136 -2.89,5.05" style="fill:#fff;fill-rule:nonzero;"/><path d="M330.59,98.318c-0.358,-0.013 -0.706,-0.18 -0.944,-0.484c-0.419,-0.546 -0.32,-1.329 0.224,-1.752c0.55,-0.425 1.735,-2.689 2.499,-4.539c0.264,-0.635 1.003,-0.944 1.629,-0.677c0.637,0.263 0.941,0.992 0.679,1.63c-0.43,1.042 -1.938,4.524 -3.277,5.56c-0.241,0.187 -0.527,0.272 -0.81,0.262Z" style="fill:#241726;fill-rule:nonzero;"/></g><g><path d="M339.21,73.72c-0,0 -1.707,4.136 -2.889,5.05" style="fill:#fff;fill-rule:nonzero;"/><path d="M336.277,80.017c-0.358,-0.013 -0.706,-0.179 -0.943,-0.484c-0.42,-0.545 -0.321,-1.328 0.223,-1.751c0.55,-0.426 1.736,-2.69 2.499,-4.539c0.264,-0.636 0.998,-0.94 1.63,-0.678c0.637,0.263 0.94,0.993 0.678,1.631c-0.43,1.042 -1.938,4.523 -3.277,5.56c-0.241,0.187 -0.527,0.271 -0.81,0.261Z" style="fill:#241726;fill-rule:nonzero;"/></g><g><path d="M347.712,70.682c0,0 -1.707,4.136 -2.889,5.05" style="fill:#fff;fill-rule:nonzero;"/><path d="M344.78,76.979c-0.356,-0.012 -0.706,-0.177 -0.941,-0.483c-0.422,-0.545 -0.324,-1.33 0.22,-1.752c0.55,-0.424 1.736,-2.69 2.499,-4.54c0.264,-0.635 0.999,-0.936 1.63,-0.677c0.637,0.262 0.94,0.992 0.678,1.63c-0.43,1.042 -1.938,4.522 -3.277,5.561c-0.241,0.187 -0.527,0.271 -0.809,0.261Z" style="fill:#241726;fill-rule:nonzero;"/></g><g><path d="M331.538,83.477c0,-0 -1.707,4.136 -2.889,5.05" style="fill:#fff;fill-rule:nonzero;"/><path d="M328.605,89.774c-0.358,-0.013 -0.706,-0.179 -0.943,-0.484c-0.42,-0.545 -0.321,-1.328 0.223,-1.751c0.55,-0.426 1.736,-2.69 2.499,-4.54c0.264,-0.635 0.991,-0.943 1.63,-0.677c0.637,0.263 0.94,0.993 0.678,1.631c-0.43,1.042 -1.938,4.523 -3.277,5.56c-0.241,0.186 -0.527,0.271 -0.81,0.261Z" style="fill:#241726;fill-rule:nonzero;"/></g></g></g><g><g><g><path d="M281.748,487.452c-4.678,0 -9.1,-3.841 -12.159,-10.739c-0.31,-0.697 -0.597,-1.414 -0.863,-2.143c-0.719,1.391 -1.502,2.669 -2.301,3.722c-4.037,5.323 -7.693,4.58 -9.517,3.66c-9.758,-4.921 -7.608,-33.925 -7.33,-37.216c0.056,-0.687 0.687,-1.204 1.348,-1.138c0.687,0.057 1.197,0.661 1.138,1.348c-0.712,8.476 -1.029,31.248 5.97,34.778c0.607,0.305 2.467,1.243 5.222,-1.564c1.76,-1.792 3.259,-4.446 4.393,-7.14c-1.26,-5.158 -1.136,-10.118 1.385,-11.691c1.202,-0.752 2.199,-0.394 2.725,0.186c1.465,1.604 0.48,6.794 -1.492,11.691c0.392,1.437 0.921,2.952 1.604,4.494c1.138,2.563 5.353,10.802 11.63,9.004c3.676,-1.045 5.875,-4.388 6.987,-8.136c-1.416,-0.798 -2.564,-1.873 -3.371,-3.065c-2.187,-3.229 -1.967,-7.163 0.558,-10.024c1.433,-1.624 2.74,-1.413 3.384,-1.149c2.394,0.984 3.003,5.599 2.796,9.254c-0.066,1.152 -0.21,2.34 -0.444,3.526c1.801,0.538 3.976,0.542 6.37,-0.308c5.98,-2.133 0.553,-29.354 -5.209,-48.001c-0.205,-0.658 0.166,-1.357 0.824,-1.56c0.656,-0.204 1.358,0.166 1.56,0.824c2.435,7.88 14.061,47.38 3.664,51.087c-2.913,1.04 -5.578,1.032 -7.82,0.385c-1.358,4.362 -4.066,8.276 -8.615,9.569c-0.818,0.231 -1.63,0.346 -2.437,0.346Zm8.366,-22.81c0.002,0.012 -0.205,0.079 -0.568,0.49c-2.121,2.402 -1.58,5.177 -0.363,6.971c0.478,0.706 1.116,1.357 1.894,1.894c0.141,-0.837 0.232,-1.672 0.28,-2.488c0.259,-4.337 -0.779,-6.661 -1.243,-6.867Zm-20.099,-2.773c-0.473,0.765 -0.707,2.193 -0.629,4.039c0.444,-1.707 0.666,-3.155 0.629,-4.039Z" style="fill:#241726;fill-rule:nonzero;"/><path d="M320.638,427.736c-0,0 -77.979,10.012 -89.557,4.827c-11.577,-5.185 -1.391,-37.712 -13.55,-39.151c-59.806,-7.077 -111.854,-119.815 13.039,-155.384c131.761,-37.525 154.012,69.934 117.611,117.789c-14.584,19.173 -29.493,31.631 -29.493,31.631l1.95,40.288Z" style="fill:#f7d76f;fill-rule:nonzero;"/><path d="M224.659,414.469c2.03,-0.276 97.216,-11.728 97.727,-8.959c0.512,2.769 4.777,44.092 0.687,43.837c-4.09,-0.255 -96.577,12.452 -96.236,6.999c0.34,-5.452 -9.08,-40.939 -2.178,-41.877Z" style="fill:#ec7e96;fill-rule:nonzero;"/><path d="M223.294,426.582c-0.644,0 -1.19,-0.496 -1.241,-1.151c-0.056,-0.686 0.458,-1.287 1.146,-1.342l101.775,-8.023c0.646,-0.049 1.287,0.458 1.341,1.147c0.056,0.686 -0.458,1.287 -1.146,1.342l-101.775,8.023c-0.032,0.002 -0.066,0.004 -0.1,0.004Z" style="fill:#241726;fill-rule:nonzero;"/><path d="M227.004,443.92c-0.629,0 -1.17,-0.477 -1.238,-1.118c-0.073,-0.685 0.424,-1.299 1.109,-1.371l97.811,-10.323c0.707,-0.087 1.299,0.424 1.372,1.11c0.073,0.685 -0.424,1.299 -1.109,1.371l-97.811,10.324c-0.046,0.005 -0.09,0.007 -0.134,0.007Z" style="fill:#241726;fill-rule:nonzero;"/><path d="M256.571,412.715c-0.405,0 -0.804,-0.199 -1.043,-0.564c-1.389,-2.121 -33.955,-52.149 -26.525,-70.001c1.377,-3.306 3.986,-5.373 7.75,-6.142c7.891,-1.611 14.48,1.205 18.79,7.817c0.943,-2.262 2.089,-4.416 3.418,-6.339c5,-7.224 11.794,-10.247 19.141,-8.503c3.744,0.887 6.857,2.789 9.202,5.554c0.617,-0.397 1.255,-0.736 1.911,-1.008c2.979,-1.232 7.647,-1.649 12.935,3.386c16.635,15.842 -10.721,69.311 -11.894,71.579c-0.317,0.614 -1.077,0.848 -1.682,0.536c-0.612,-0.317 -0.853,-1.07 -0.536,-1.682c0.278,-0.539 27.678,-54.066 12.391,-68.625c-3.464,-3.299 -6.923,-4.266 -10.258,-2.887c-0.473,0.196 -0.936,0.435 -1.39,0.715c1.258,1.989 2.199,4.31 2.784,6.927c1.731,7.714 -0.098,16.304 -4.164,19.554c-1.799,1.436 -3.93,1.686 -5.985,0.711c-2.806,-1.33 -4.283,-4.613 -4.166,-9.245c0.158,-6.244 3.286,-14.066 8.062,-18.419c-1.765,-2.056 -4.259,-3.831 -7.786,-4.668c-8.049,-1.903 -13.42,3.022 -16.511,7.495c-1.641,2.368 -2.937,5.005 -3.908,7.697c0.534,1.093 1.017,2.263 1.446,3.508c2.54,7.362 2.891,17.727 -0.319,19.329c-0.707,0.355 -2.106,0.609 -3.601,-1.605c-2.979,-4.414 -2.818,-13.027 -0.21,-20.996c-2.781,-5.194 -7.937,-10.281 -17.169,-8.385c-2.947,0.603 -4.893,2.126 -5.946,4.656c-6.928,16.644 25.974,67.166 26.306,67.674c0.378,0.577 0.217,1.351 -0.358,1.727c-0.212,0.138 -0.448,0.204 -0.685,0.204Zm-0.59,-62.395c-1.65,6.642 -1.348,13.052 0.719,16.117c0.236,0.347 0.414,0.538 0.529,0.637c0.998,-1.365 1.617,-9.05 -1.248,-16.754Zm30.801,-12.214c-4.122,3.887 -6.899,10.965 -7.038,16.456c-0.051,2.077 0.234,5.737 2.74,6.927c1.207,0.57 2.306,0.435 3.357,-0.406c2.913,-2.329 4.929,-9.739 3.288,-17.058c-0.367,-1.647 -1.06,-3.819 -2.347,-5.919Z" style="fill:#241726;fill-rule:nonzero;"/><path d="M337.67,273.992c-0.536,0 -1.034,-0.349 -1.194,-0.89c-1.502,-5.006 -6.616,-8.143 -6.667,-8.175c-0.59,-0.356 -0.78,-1.123 -0.424,-1.713c0.353,-0.586 1.116,-0.784 1.709,-0.427c0.244,0.146 5.99,3.649 7.771,9.597c0.2,0.661 -0.176,1.355 -0.836,1.554c-0.12,0.037 -0.242,0.054 -0.359,0.054Z" style="fill:#241726;fill-rule:nonzero;"/><path d="M353.542,292.147c-0.575,0 -1.092,-0.399 -1.219,-0.984c-1.112,-5.107 -5.968,-8.628 -6.016,-8.664c-0.561,-0.401 -0.692,-1.18 -0.293,-1.741c0.397,-0.558 1.182,-0.694 1.738,-0.294c0.234,0.165 5.69,4.1 7.008,10.169c0.146,0.673 -0.28,1.338 -0.953,1.485c-0.09,0.02 -0.177,0.029 -0.265,0.029Z" style="fill:#241726;fill-rule:nonzero;"/><path d="M350.521,308.649c-0.022,0 -0.044,0 -0.066,-0.001c-0.687,-0.037 -1.216,-0.624 -1.18,-1.313c0.273,-5.22 -3.481,-9.9 -3.52,-9.947c-0.434,-0.534 -0.353,-1.32 0.18,-1.755c0.531,-0.433 1.316,-0.36 1.753,0.176c0.18,0.221 4.405,5.458 4.078,11.658c-0.033,0.665 -0.584,1.182 -1.245,1.182Z" style="fill:#241726;fill-rule:nonzero;"/><path d="M321.861,274.409c-0.536,0 -1.034,-0.349 -1.194,-0.89c-1.502,-5.007 -6.618,-8.144 -6.67,-8.176c-0.59,-0.356 -0.78,-1.123 -0.424,-1.713c0.353,-0.587 1.116,-0.785 1.709,-0.427c0.244,0.146 5.992,3.649 7.774,9.599c0.2,0.661 -0.176,1.355 -0.836,1.554c-0.12,0.036 -0.242,0.053 -0.359,0.053Z" style="fill:#241726;fill-rule:nonzero;"/><path d="M321.861,257.351c-0.536,0 -1.034,-0.349 -1.194,-0.89c-1.502,-5.007 -6.618,-8.144 -6.67,-8.176c-0.59,-0.356 -0.78,-1.123 -0.424,-1.713c0.353,-0.587 1.116,-0.785 1.709,-0.427c0.244,0.146 5.992,3.649 7.774,9.599c0.2,0.661 -0.176,1.355 -0.836,1.554c-0.12,0.036 -0.242,0.053 -0.359,0.053Z" style="fill:#241726;fill-rule:nonzero;"/><path d="M301.233,244.263c-0.285,0 -0.573,-0.098 -0.807,-0.296c-4.008,-3.393 -10.002,-3.221 -10.043,-3.218c-0.017,0.001 -0.032,0.001 -0.046,0.001c-0.67,0 -1.224,-0.529 -1.248,-1.203c-0.024,-0.689 0.514,-1.268 1.204,-1.292c0.273,-0.01 7.006,-0.206 11.747,3.808c0.527,0.445 0.59,1.232 0.146,1.759c-0.249,0.291 -0.6,0.441 -0.953,0.441Z" style="fill:#241726;fill-rule:nonzero;"/><path d="M340.166,291.883c-0.536,0 -1.034,-0.349 -1.194,-0.89c-1.509,-5.033 -6.614,-8.144 -6.665,-8.175c-0.592,-0.355 -0.785,-1.121 -0.429,-1.713c0.356,-0.591 1.129,-0.778 1.711,-0.428c0.244,0.146 5.99,3.649 7.771,9.599c0.2,0.661 -0.176,1.355 -0.836,1.554c-0.119,0.035 -0.241,0.053 -0.358,0.053Z" style="fill:#241726;fill-rule:nonzero;"/><path d="M306.723,259.205c-0.461,0 -0.904,-0.257 -1.121,-0.701c-2.304,-4.722 -7.845,-6.967 -7.901,-6.989c-0.641,-0.255 -0.953,-0.981 -0.7,-1.621c0.254,-0.642 0.98,-0.952 1.621,-0.7c0.263,0.105 6.499,2.634 9.222,8.215c0.302,0.619 0.046,1.366 -0.573,1.669c-0.178,0.087 -0.363,0.127 -0.548,0.127Z" style="fill:#241726;fill-rule:nonzero;"/></g><path d="M252.781,226.214c-0.636,0 -1.182,-0.488 -1.241,-1.135l-1.663,-18.306c-0.061,-0.687 0.444,-1.294 1.131,-1.357c0.636,-0.069 1.294,0.442 1.355,1.13l1.663,18.306c0.061,0.687 -0.444,1.294 -1.131,1.357c-0.036,0.004 -0.075,0.005 -0.114,0.005Z" style="fill:#241726;fill-rule:nonzero;"/><path d="M286.068,222.053c-0.124,0 -0.254,-0.018 -0.378,-0.059c-0.658,-0.21 -1.021,-0.912 -0.812,-1.567l5.824,-18.305c0.21,-0.657 0.912,-1.021 1.567,-0.812c0.658,0.21 1.021,0.912 0.812,1.567l-5.824,18.305c-0.168,0.532 -0.66,0.871 -1.189,0.871Z" style="fill:#241726;fill-rule:nonzero;"/><path d="M327.67,230.374c-0.244,0 -0.49,-0.071 -0.704,-0.218c-0.57,-0.389 -0.714,-1.166 -0.327,-1.734l10.819,-15.81c0.395,-0.569 1.173,-0.712 1.736,-0.325c0.57,0.389 0.714,1.166 0.327,1.734l-10.819,15.81c-0.245,0.353 -0.635,0.543 -1.032,0.543Z" style="fill:#241726;fill-rule:nonzero;"/><path d="M358.459,252.008c-0.395,0 -0.787,-0.189 -1.029,-0.541c-0.39,-0.568 -0.246,-1.344 0.322,-1.736l13.312,-9.152c0.57,-0.386 1.348,-0.247 1.736,0.322c0.39,0.568 0.246,1.344 -0.322,1.736l-13.312,9.152c-0.217,0.148 -0.464,0.219 -0.707,0.219Z" style="fill:#241726;fill-rule:nonzero;"/><path d="M366.776,295.276c-0.629,0 -1.173,-0.477 -1.238,-1.118c-0.073,-0.685 0.424,-1.299 1.109,-1.371l15.809,-1.664c0.702,-0.08 1.302,0.424 1.372,1.11c0.073,0.685 -0.424,1.299 -1.109,1.371l-15.809,1.664c-0.046,0.006 -0.09,0.008 -0.134,0.008Z" style="fill:#241726;fill-rule:nonzero;"/><path d="M385.083,326.064c-0.151,0 -0.305,-0.027 -0.453,-0.085l-14.977,-5.825c-0.641,-0.25 -0.96,-0.973 -0.709,-1.615c0.251,-0.644 0.975,-0.967 1.616,-0.711l14.977,5.825c0.641,0.25 0.96,0.973 0.709,1.615c-0.192,0.493 -0.663,0.796 -1.163,0.796Z" style="fill:#241726;fill-rule:nonzero;"/><path d="M373.436,356.85c-0.227,0 -0.456,-0.061 -0.661,-0.19l-13.315,-8.32c-0.585,-0.364 -0.763,-1.135 -0.397,-1.72c0.366,-0.584 1.141,-0.761 1.719,-0.396l13.315,8.32c0.585,0.364 0.763,1.135 0.397,1.72c-0.236,0.377 -0.644,0.586 -1.058,0.586Z" style="fill:#241726;fill-rule:nonzero;"/><path d="M353.466,390.133c-0.346,0 -0.692,-0.144 -0.939,-0.427l-11.65,-13.314c-0.456,-0.518 -0.402,-1.307 0.117,-1.761c0.514,-0.452 1.304,-0.403 1.76,0.118l11.65,13.314c0.456,0.518 0.402,1.307 -0.117,1.761c-0.236,0.208 -0.528,0.309 -0.821,0.309Z" style="fill:#241726;fill-rule:nonzero;"/><path d="M190.377,416.759c-0.239,0 -0.48,-0.068 -0.692,-0.21c-0.573,-0.383 -0.729,-1.157 -0.346,-1.731l11.65,-17.474c0.385,-0.574 1.163,-0.724 1.731,-0.346c0.573,0.383 0.729,1.157 0.346,1.731l-11.65,17.474c-0.242,0.361 -0.637,0.556 -1.039,0.556Z" style="fill:#241726;fill-rule:nonzero;"/><path d="M155.43,390.966c-0.48,0 -0.941,-0.28 -1.146,-0.751c-0.273,-0.631 0.017,-1.368 0.648,-1.642l19.139,-8.321c0.629,-0.275 1.368,0.015 1.643,0.647c0.273,0.631 -0.017,1.368 -0.648,1.642l-19.139,8.321c-0.161,0.071 -0.331,0.104 -0.497,0.104Z" style="fill:#241726;fill-rule:nonzero;"/><path d="M130.468,356.85c-0.539,0 -1.036,-0.351 -1.197,-0.893c-0.195,-0.661 0.18,-1.355 0.843,-1.552l22.466,-6.656c0.658,-0.197 1.353,0.183 1.55,0.842c0.195,0.661 -0.18,1.355 -0.843,1.552l-22.466,6.656c-0.117,0.035 -0.236,0.051 -0.353,0.051Z" style="fill:#241726;fill-rule:nonzero;"/><path d="M152.934,284.459c-0.183,0 -0.366,-0.039 -0.541,-0.123l-22.466,-10.816c-0.622,-0.3 -0.882,-1.046 -0.583,-1.666c0.297,-0.624 1.046,-0.882 1.665,-0.584l22.466,10.816c0.622,0.3 0.882,1.046 0.583,1.666c-0.215,0.447 -0.661,0.707 -1.124,0.707Z" style="fill:#241726;fill-rule:nonzero;"/><path d="M178.73,254.504c-0.319,0 -0.639,-0.122 -0.882,-0.366l-12.482,-12.481c-0.488,-0.488 -0.488,-1.277 -0,-1.765c0.488,-0.488 1.277,-0.488 1.765,0l12.481,12.481c0.488,0.488 0.488,1.277 -0,1.765c-0.244,0.244 -0.563,0.366 -0.882,0.366Z" style="fill:#241726;fill-rule:nonzero;"/><path d="M208.682,234.534c-0.583,0 -1.102,-0.41 -1.221,-1.003l-3.33,-16.641c-0.137,-0.676 0.302,-1.333 0.98,-1.469c0.646,-0.14 1.331,0.301 1.468,0.979l3.33,16.641c0.137,0.676 -0.302,1.333 -0.98,1.469c-0.081,0.017 -0.164,0.024 -0.247,0.024Z" style="fill:#241726;fill-rule:nonzero;"/></g><path d="M147.112,316.079c-0.083,0 -0.166,-0.007 -0.246,-0.024l-20.801,-4.161c-0.678,-0.135 -1.116,-0.792 -0.98,-1.469c0.137,-0.678 0.824,-1.12 1.468,-0.979l20.801,4.161c0.678,0.135 1.116,0.792 0.98,1.469c-0.12,0.593 -0.639,1.003 -1.222,1.003Z" style="fill:#241726;fill-rule:nonzero;"/></g><g><path d="M462.696,278.857c-2.34,0 -8.271,-7.355 -13.156,-14.005c-8.493,8.433 -13.595,12.707 -15.17,12.707c-0.392,0 -0.951,-0.263 -1.185,-0.577c-0.897,-1.196 -2.445,-9.05 -3.445,-14.539c-4.434,1.728 -16.857,6.45 -20.189,6.451c-1.575,0 -1.867,-1.009 -1.918,-1.318c-0.305,-1.827 2.745,-12.797 4.42,-18.612c-18.858,-4.711 -19.161,-6.547 -19.292,-7.341c-0.117,-0.698 -0.419,-2.521 13.217,-12.74c-5.69,-3.396 -15.433,-9.819 -14.802,-13.62c0.634,-3.799 10.938,-6.821 16.776,-8.236c-9.493,-17.911 -8.305,-18.803 -7.43,-19.459c0.358,-0.267 0.819,-0.382 1.548,-0.382c3.145,0 13.154,2.352 16.991,3.284c0.67,-19.356 1.797,-19.638 2.794,-19.887c0.098,-0.026 0.258,-0.044 0.361,-0.044c1.597,0 10.658,5.769 18.529,10.988c5.083,-17.009 6.709,-17.01 7.596,-17.01c0.158,0 0.4,0.046 0.546,0.105c0.502,0.201 2.004,0.801 8.101,16.474c4.027,-2.173 14.114,-7.456 16.991,-7.456c0.371,0 0.683,0.066 0.956,0.202c0.734,0.368 2.64,1.319 -0.807,15.76c3.542,-0.489 11.345,-1.488 16.016,-1.488c1.789,0 4.785,0 4.785,2.036c-0,2.081 -4.493,11.048 -6.711,15.35c6.311,1.784 15.467,4.717 16.421,6.943c0.358,0.834 1.285,3.003 -13.856,14.072c5.051,3.52 13.615,10.103 12.647,13.651c-0.956,3.507 -12.861,6.078 -19.519,7.252c2.599,4.808 6.765,13.244 5.507,15.762c-0.546,1.093 -1.928,1.56 -4.617,1.56c-4.554,0 -11.877,-1.379 -14.648,-1.937c-1.429,4.318 -4.766,14.053 -6.287,15.576c-0.307,0.309 -0.724,0.477 -1.17,0.478Zm-13.005,-17.164c0.032,0 0.066,0.001 0.098,0.004c0.366,0.029 0.697,0.216 0.912,0.512c4.329,5.968 9.753,12.614 11.711,13.949c1.124,-1.976 3.666,-8.904 5.714,-15.186c0.197,-0.605 0.814,-0.968 1.448,-0.832c0.1,0.021 9.905,2.107 15.226,2.107c2.026,0 2.472,-0.308 2.491,-0.321c0.336,-1.248 -3.003,-8.731 -6.409,-14.834c-0.197,-0.355 -0.212,-0.785 -0.034,-1.151c0.176,-0.367 0.522,-0.624 0.921,-0.69c9.841,-1.613 18.658,-4.247 19.253,-5.749c0.268,-1.459 -5.853,-7.035 -13.103,-11.922c-0.339,-0.228 -0.544,-0.607 -0.551,-1.015c-0.007,-0.408 0.188,-0.793 0.519,-1.032c6.36,-4.579 13.422,-10.398 14.322,-12.243c-1.365,-1.199 -9.271,-3.909 -16.14,-5.794c-0.363,-0.1 -0.663,-0.358 -0.812,-0.704c-0.151,-0.346 -0.137,-0.742 0.037,-1.076c3.113,-5.955 6.345,-12.716 7.013,-14.976c-0.383,-0.063 -1.046,-0.126 -2.165,-0.126c-5.87,0 -17.366,1.706 -17.481,1.723c-0.419,0.059 -0.829,-0.085 -1.109,-0.396c-0.28,-0.308 -0.388,-0.736 -0.288,-1.141c1.472,-5.89 2.699,-12.897 2.352,-14.701c-2.165,0.342 -10.955,4.726 -16.681,7.869c-0.314,0.172 -0.687,0.199 -1.029,0.078c-0.339,-0.124 -0.607,-0.388 -0.736,-0.724c-2.438,-6.339 -5.395,-13.27 -6.823,-15.683c-1.314,2.486 -3.808,9.797 -5.69,16.218c-0.11,0.382 -0.397,0.686 -0.77,0.822c-0.373,0.138 -0.79,0.088 -1.119,-0.134c-7.194,-4.795 -15.236,-9.881 -17.922,-11.201c-0.556,2.711 -1.099,11.136 -1.341,18.749c-0.012,0.377 -0.195,0.728 -0.495,0.956c-0.302,0.227 -0.687,0.305 -1.056,0.215c-3.786,-0.946 -13.893,-3.326 -17.398,-3.558c0.802,2.73 4.634,10.615 8.359,17.582c0.183,0.344 0.195,0.753 0.034,1.108c-0.163,0.353 -0.48,0.612 -0.861,0.698c-8.5,1.926 -16.189,5.002 -16.452,6.584c-0.261,1.566 6.85,7.177 15.219,12.005c0.363,0.211 0.597,0.59 0.622,1.01c0.024,0.421 -0.166,0.824 -0.505,1.074c-5.729,4.236 -12.145,9.496 -13.525,11.368c2.114,1.254 10.845,3.849 18.461,5.721c0.332,0.08 0.614,0.294 0.783,0.587c0.171,0.295 0.215,0.646 0.119,0.973c-2.089,7.173 -4.193,15.142 -4.632,17.912c3.586,-0.535 13.663,-4.222 20.06,-6.762c0.346,-0.135 0.741,-0.111 1.068,0.071c0.329,0.182 0.556,0.502 0.622,0.871c1.014,5.701 2.301,11.992 2.991,14.252c2.128,-1.414 8.43,-7.242 13.888,-12.701c0.236,-0.235 0.555,-0.366 0.884,-0.366Z" style="fill:#241726;fill-rule:nonzero;"/><circle cx="447.633" cy="224.316" r="35.983" style="fill:#f7d76f;"/><g><path d="M450.388,199.524c-0,0 5.222,1.062 5.983,3.616" style="fill:#fff;fill-rule:nonzero;"/><path d="M456.37,204.389c-0.539,0 -1.036,-0.35 -1.197,-0.892c-0.373,-1.253 -3.225,-2.382 -5.034,-2.75c-0.675,-0.137 -1.112,-0.796 -0.975,-1.471c0.139,-0.675 0.804,-1.114 1.472,-0.974c0.609,0.123 5.982,1.302 6.93,4.483c0.195,0.661 -0.18,1.355 -0.841,1.552c-0.118,0.034 -0.238,0.052 -0.355,0.052Z" style="fill:#241726;fill-rule:nonzero;"/></g><g><path d="M454.631,210.592c-0,0 5.222,1.062 5.983,3.616" style="fill:#fff;fill-rule:nonzero;"/><path d="M460.615,215.456c-0.539,0 -1.034,-0.35 -1.197,-0.892c-0.373,-1.252 -3.225,-2.38 -5.036,-2.75c-0.675,-0.137 -1.112,-0.796 -0.975,-1.471c0.139,-0.675 0.814,-1.114 1.472,-0.974c0.609,0.123 5.985,1.303 6.933,4.483c0.195,0.661 -0.18,1.355 -0.841,1.552c-0.12,0.035 -0.239,0.052 -0.356,0.052Z" style="fill:#241726;fill-rule:nonzero;"/></g><g><path d="M466.499,210.478c-0,0 4.957,1.956 5.261,4.603" style="fill:#fff;fill-rule:nonzero;"/><path d="M471.757,216.33c-0.624,0 -1.165,-0.469 -1.238,-1.107c-0.146,-1.298 -2.759,-2.906 -4.478,-3.583c-0.641,-0.254 -0.956,-0.979 -0.702,-1.62c0.251,-0.642 0.978,-0.953 1.619,-0.703c0.578,0.229 5.665,2.327 6.043,5.624c0.078,0.685 -0.414,1.303 -1.099,1.381c-0.05,0.005 -0.096,0.008 -0.145,0.008Z" style="fill:#241726;fill-rule:nonzero;"/></g><g><path d="M441.047,207.701c-0,0 5.222,1.062 5.983,3.616" style="fill:#fff;fill-rule:nonzero;"/><path d="M447.029,212.566c-0.539,0 -1.036,-0.35 -1.197,-0.892c-0.373,-1.253 -3.225,-2.382 -5.034,-2.75c-0.675,-0.137 -1.112,-0.796 -0.975,-1.471c0.139,-0.675 0.804,-1.11 1.472,-0.974c0.609,0.123 5.982,1.302 6.93,4.483c0.195,0.661 -0.18,1.355 -0.841,1.552c-0.118,0.035 -0.238,0.052 -0.355,0.052Z" style="fill:#241726;fill-rule:nonzero;"/></g><g><path d="M434.894,198.859c-0,0 5.327,-0.14 6.643,2.177" style="fill:#fff;fill-rule:nonzero;"/><path d="M441.537,202.284c-0.434,0 -0.856,-0.227 -1.085,-0.631c-0.641,-1.131 -3.63,-1.615 -5.526,-1.546c-0.605,0.035 -1.263,-0.528 -1.28,-1.216c-0.017,-0.689 0.527,-1.262 1.216,-1.28c0.612,-0.02 6.119,-0.078 7.759,2.808c0.341,0.6 0.132,1.361 -0.468,1.702c-0.194,0.11 -0.406,0.163 -0.616,0.163Z" style="fill:#241726;fill-rule:nonzero;"/></g></g><g><circle cx="55.955" cy="349.038" r="40.712" style="fill:#a8d5cb;"/><g><path d="M79.184,314.82c-0,0 30.472,-16.985 29.973,1.999c-0.382,14.481 -75.431,75.93 -95.413,75.431c-19.981,-0.5 1.999,-30.972 1.999,-30.972l3.996,5.995c0,0 -9.491,12.989 -0.999,13.988c8.492,0.999 73.081,-53.923 76.43,-58.945c7.993,-11.989 -9.491,-1.499 -9.491,-1.499l-6.495,-5.997Z" style="fill:#fff;fill-rule:nonzero;"/><path d="M13.988,393.573c-0.01,0 -0.269,-0.002 -0.279,-0.002c-4.415,-0.111 -7.367,-1.611 -8.781,-4.457c-4.314,-8.699 8.291,-26.598 9.743,-28.61c0.253,-0.352 0.663,-0.563 1.095,-0.549c0.435,0.007 0.838,0.229 1.078,0.589l3.996,5.995c0.308,0.461 0.295,1.066 -0.033,1.514c-2.117,2.9 -5.095,8.369 -4.079,10.695c0.108,0.246 0.434,0.993 2.167,1.198c8.075,0.004 71.04,-52.164 75.173,-58.367c1.504,-2.256 1.806,-3.295 1.86,-3.688c-0.023,-0.001 -0.052,-0.002 -0.081,-0.002c-1.981,0 -6.871,2.491 -9.491,4.06c-0.496,0.302 -1.141,0.238 -1.576,-0.163l-6.494,-5.995c-0.312,-0.287 -0.467,-0.707 -0.415,-1.128c0.049,-0.42 0.297,-0.792 0.669,-0.998c0.524,-0.294 12.944,-7.158 22.043,-7.158c3.247,0 5.751,0.88 7.441,2.615c1.718,1.762 2.542,4.363 2.454,7.731c-0.434,16.486 -76.182,76.717 -96.49,76.72Zm1.732,-29.945c-4.077,6.067 -11.207,18.695 -8.422,24.309c0.956,1.926 3.074,2.904 6.479,2.988l0.212,1.326l0,-1.323c8.639,-0.001 30.437,-12.87 54.243,-32.017c22.788,-18.332 39.441,-36.048 39.601,-42.128c0.07,-2.627 -0.503,-4.584 -1.705,-5.817c-1.17,-1.204 -3.038,-1.813 -5.544,-1.813c-6.58,-0 -15.497,4.136 -19.125,5.967l4.397,4.059c2.093,-1.192 7.205,-3.936 9.992,-3.936c1.54,-0 2.191,0.792 2.444,1.263c0.731,1.363 0.124,3.318 -2.023,6.54c-2.534,3.804 -66.733,59.548 -77.287,59.548c-0.052,0 -0.347,-0.016 -0.398,-0.022c-2.679,-0.315 -3.807,-1.68 -4.283,-2.768c-1.675,-3.839 2.281,-10.26 3.836,-12.552l-2.417,-3.624Z" style="fill:#241726;fill-rule:nonzero;"/></g><g><path d="M51.709,314.07c-0,-0 4.495,-1 5.995,0.749" style="fill:#fff;fill-rule:nonzero;"/><path d="M57.705,316.142c-0.372,-0 -0.742,-0.156 -1.003,-0.461c-0.641,-0.743 -3.144,-0.662 -4.709,-0.319c-0.719,0.158 -1.418,-0.294 -1.576,-1.007c-0.158,-0.713 0.291,-1.418 1.005,-1.577c0.883,-0.195 5.368,-1.055 7.284,1.179c0.478,0.555 0.414,1.389 -0.14,1.866c-0.25,0.214 -0.557,0.319 -0.861,0.319Z" style="fill:#241726;fill-rule:nonzero;"/></g><g><path d="M58.952,321.313c0,0 4.496,-0.999 5.995,0.749" style="fill:#fff;fill-rule:nonzero;"/><path d="M64.946,323.386c-0.372,0 -0.742,-0.156 -1.004,-0.461c-0.636,-0.743 -3.142,-0.663 -4.705,-0.319c-0.718,0.159 -1.418,-0.294 -1.576,-1.006c-0.157,-0.713 0.292,-1.418 1.005,-1.577c0.884,-0.195 5.366,-1.054 7.285,1.18c0.476,0.555 0.411,1.389 -0.145,1.865c-0.248,0.213 -0.556,0.318 -0.86,0.318Z" style="fill:#241726;fill-rule:nonzero;"/></g><g><path d="M68.28,317.049c0,-0 4.602,-0.201 5.773,1.782" style="fill:#fff;fill-rule:nonzero;"/><path d="M74.053,320.154c-0.453,-0 -0.892,-0.232 -1.14,-0.651c-0.498,-0.848 -2.952,-1.187 -4.575,-1.133c-0.744,0.047 -1.348,-0.537 -1.379,-1.263c-0.031,-0.73 0.535,-1.347 1.265,-1.38c0.897,-0.04 5.469,-0.104 6.968,2.431c0.372,0.631 0.163,1.44 -0.468,1.812c-0.209,0.124 -0.441,0.184 -0.671,0.184Z" style="fill:#241726;fill-rule:nonzero;"/></g><g><path d="M47.213,323.811c0,-0 4.496,-0.999 5.995,0.749" style="fill:#fff;fill-rule:nonzero;"/><path d="M53.207,325.884c-0.372,-0 -0.744,-0.156 -1.004,-0.462c-0.638,-0.743 -3.145,-0.661 -4.702,-0.318c-0.698,0.152 -1.418,-0.292 -1.578,-1.006c-0.158,-0.713 0.291,-1.418 1.004,-1.577c0.876,-0.194 5.366,-1.058 7.285,1.181c0.476,0.554 0.411,1.389 -0.145,1.865c-0.248,0.212 -0.556,0.317 -0.86,0.317Z" style="fill:#241726;fill-rule:nonzero;"/></g><g><path d="M39.245,318.997c0,-0 4.155,-1.985 6.01,-0.619" style="fill:#fff;fill-rule:nonzero;"/><path d="M39.249,320.319c-0.496,0 -0.968,-0.279 -1.196,-0.754c-0.313,-0.66 -0.036,-1.447 0.622,-1.763c0.811,-0.39 4.991,-2.241 7.365,-0.489c0.586,0.432 0.713,1.261 0.279,1.848c-0.431,0.591 -1.261,0.714 -1.849,0.28c-0.783,-0.577 -3.209,0.062 -4.656,0.748c-0.183,0.089 -0.376,0.13 -0.565,0.13Z" style="fill:#241726;fill-rule:nonzero;"/></g></g></g></svg>