<?xml version="1.0" encoding="UTF-8" standalone="no"?>
<!DOCTYPE svg PUBLIC "-//W3C//DTD SVG 1.1//EN" "http://www.w3.org/Graphics/SVG/1.1/DTD/svg11.dtd">
<svg width="100%" height="100%" viewBox="0 0 571 163" version="1.1" xmlns="http://www.w3.org/2000/svg" xmlns:xlink="http://www.w3.org/1999/xlink" xml:space="preserve" xmlns:serif="http://www.serif.com/" style="fill-rule:evenodd;clip-rule:evenodd;stroke-linejoin:round;stroke-miterlimit:2;">
    <g transform="matrix(1,0,0,1,-114.862,-218.854)">
        <g transform="matrix(2.13474,-5.2286e-16,5.2286e-16,2.13474,-611.884,-343.715)">
            <g id="Logo">
                <g>
                    <g id="text" transform="matrix(0.453609,0,0,0.453609,9.99656,37.4229)">
                        <g transform="matrix(232.776,0,0,232.776,714.506,663.735)">
                            <path d="M0.617,-0.347C0.616,-0.384 0.611,-0.42 0.601,-0.453C0.59,-0.486 0.575,-0.516 0.556,-0.541C0.536,-0.566 0.512,-0.585 0.484,-0.6C0.456,-0.615 0.424,-0.622 0.389,-0.622C0.354,-0.622 0.322,-0.615 0.294,-0.6C0.266,-0.585 0.242,-0.566 0.223,-0.541C0.203,-0.516 0.188,-0.486 0.178,-0.453C0.167,-0.42 0.162,-0.384 0.161,-0.347C0.162,-0.309 0.167,-0.274 0.178,-0.241C0.188,-0.208 0.203,-0.18 0.223,-0.156C0.242,-0.132 0.266,-0.113 0.294,-0.099C0.322,-0.085 0.354,-0.078 0.389,-0.078C0.424,-0.078 0.456,-0.085 0.484,-0.099C0.512,-0.113 0.536,-0.132 0.556,-0.156C0.575,-0.18 0.59,-0.208 0.601,-0.241C0.611,-0.274 0.616,-0.309 0.617,-0.347ZM0.06,-0.347C0.061,-0.402 0.069,-0.452 0.085,-0.497C0.101,-0.542 0.123,-0.58 0.152,-0.612C0.181,-0.643 0.215,-0.668 0.255,-0.685C0.295,-0.701 0.34,-0.71 0.389,-0.71C0.438,-0.71 0.482,-0.701 0.523,-0.685C0.563,-0.668 0.597,-0.643 0.626,-0.612C0.655,-0.58 0.677,-0.542 0.693,-0.497C0.709,-0.452 0.717,-0.402 0.718,-0.347C0.717,-0.292 0.709,-0.242 0.694,-0.198C0.678,-0.154 0.656,-0.117 0.627,-0.086C0.598,-0.055 0.564,-0.032 0.524,-0.015C0.483,0.002 0.438,0.01 0.389,0.01C0.34,0.01 0.295,0.002 0.255,-0.015C0.214,-0.032 0.18,-0.055 0.151,-0.086C0.122,-0.117 0.1,-0.154 0.085,-0.198C0.069,-0.242 0.061,-0.292 0.06,-0.347Z" style="fill:rgb(16,185,129);fill-rule:nonzero;"/>
                        </g>
                        <g transform="matrix(232.776,0,0,232.776,895.606,663.735)">
                            <path d="M0.065,-0.48L0.238,-0.48C0.312,-0.48 0.365,-0.469 0.397,-0.447C0.426,-0.428 0.444,-0.405 0.452,-0.378C0.459,-0.351 0.463,-0.315 0.463,-0.271L0.463,-0L0.375,-0L0.375,-0.27C0.375,-0.282 0.375,-0.292 0.374,-0.301C0.373,-0.309 0.371,-0.32 0.367,-0.333C0.363,-0.345 0.357,-0.356 0.35,-0.365C0.343,-0.373 0.332,-0.38 0.318,-0.387C0.304,-0.393 0.287,-0.396 0.267,-0.396L0.153,-0.396L0.153,-0L0.065,-0L0.065,-0.48Z" style="fill:rgb(16,185,129);fill-rule:nonzero;"/>
                        </g>
                        <g transform="matrix(232.776,0,0,232.776,1017.35,663.735)">
                            <path d="M0.06,-0.7L0.15,-0.7L0.15,-0.24C0.15,-0.187 0.164,-0.147 0.191,-0.118C0.218,-0.089 0.255,-0.074 0.302,-0.074C0.351,-0.074 0.39,-0.088 0.418,-0.117C0.446,-0.145 0.46,-0.186 0.46,-0.24C0.46,-0.291 0.445,-0.332 0.415,-0.362C0.384,-0.391 0.344,-0.406 0.295,-0.406C0.253,-0.406 0.217,-0.394 0.186,-0.37L0.186,-0.46C0.223,-0.48 0.262,-0.49 0.305,-0.49C0.376,-0.49 0.434,-0.467 0.481,-0.422C0.527,-0.376 0.55,-0.315 0.55,-0.24C0.55,-0.161 0.526,-0.099 0.478,-0.056C0.429,-0.012 0.368,0.01 0.295,0.01C0.225,0.01 0.168,-0.013 0.125,-0.058C0.082,-0.103 0.06,-0.164 0.06,-0.24L0.06,-0.7Z" style="fill:rgb(16,185,129);fill-rule:nonzero;"/>
                        </g>
                        <g transform="matrix(232.776,0,0,232.776,1155.85,663.735)">
                            <path d="M0.327,-0.282L0.327,-0.192C0.302,-0.211 0.271,-0.221 0.234,-0.221C0.203,-0.221 0.178,-0.215 0.161,-0.203C0.144,-0.19 0.135,-0.173 0.135,-0.15C0.135,-0.106 0.168,-0.084 0.233,-0.084L0.365,-0.084L0.365,-0.275C0.365,-0.356 0.326,-0.396 0.247,-0.396L0.087,-0.396L0.087,-0.48L0.252,-0.48C0.317,-0.48 0.366,-0.464 0.401,-0.432C0.436,-0.4 0.453,-0.354 0.453,-0.294L0.453,-0L0.23,-0C0.173,-0 0.128,-0.013 0.095,-0.038C0.062,-0.063 0.045,-0.1 0.045,-0.149C0.045,-0.198 0.063,-0.235 0.098,-0.26C0.133,-0.285 0.178,-0.298 0.231,-0.298C0.261,-0.298 0.293,-0.293 0.327,-0.282Z" style="fill:rgb(16,185,129);fill-rule:nonzero;"/>
                        </g>
                        <g transform="matrix(232.776,0,0,232.776,1272.94,663.735)">
                            <path d="M0.19,-0L0.102,-0L0.102,-0.396L0.02,-0.396L0.06,-0.48L0.19,-0.48L0.19,-0ZM0.098,-0.58C0.089,-0.591 0.085,-0.604 0.085,-0.617C0.085,-0.63 0.089,-0.643 0.098,-0.654C0.107,-0.665 0.12,-0.67 0.138,-0.67C0.156,-0.67 0.169,-0.665 0.178,-0.654C0.187,-0.643 0.191,-0.63 0.191,-0.617C0.191,-0.604 0.187,-0.592 0.178,-0.581C0.169,-0.57 0.156,-0.564 0.138,-0.564C0.12,-0.564 0.107,-0.569 0.098,-0.58Z" style="fill:rgb(16,185,129);fill-rule:nonzero;"/>
                        </g>
                    </g>
                    <g id="Smile" transform="matrix(0.140831,-0.132792,0.132792,0.140831,304.53,320.838)">
                        <g transform="matrix(0.7071,-0.7071,0.7071,0.7071,14.9518,237.309)">
                            <ellipse cx="293.934" cy="100.606" rx="24.405" ry="30.646" style="fill:rgb(242,139,116);"/>
                        </g>
                        <g transform="matrix(-0.7071,0.7071,-0.7071,-0.7071,856.5,81.3777)">
                            <ellipse cx="411.396" cy="218.076" rx="24.405" ry="30.646" style="fill:rgb(242,139,116);"/>
                        </g>
                        <path d="M335.657,112.271C333.738,112.271 331.818,111.539 330.354,110.075C327.425,107.145 327.425,102.397 330.354,99.468C331.692,98.13 332.429,96.351 332.429,94.458C332.429,92.564 331.692,90.785 330.354,89.447C329.015,88.107 327.236,87.371 325.343,87.371C323.45,87.371 321.671,88.107 320.332,89.446C317.403,92.376 312.655,92.375 309.725,89.447C306.796,86.518 306.796,81.769 309.725,78.84C313.897,74.667 319.444,72.37 325.343,72.37C331.243,72.37 336.79,74.667 340.961,78.84C345.132,83.011 347.429,88.558 347.429,94.457C347.429,100.355 345.132,105.902 340.96,110.074C339.496,111.539 337.577,112.271 335.657,112.271Z" style="fill:rgb(73,80,89);fill-rule:nonzero;"/>
                        <path d="M427.857,204.472C425.938,204.472 424.018,203.74 422.554,202.276C419.625,199.346 419.625,194.598 422.554,191.669C423.892,190.331 424.629,188.551 424.629,186.658C424.629,184.765 423.892,182.985 422.554,181.647C419.79,178.882 415.295,178.882 412.532,181.647C409.603,184.575 404.854,184.575 401.925,181.647C398.996,178.717 398.996,173.969 401.925,171.04C410.536,162.429 424.548,162.429 433.16,171.04C437.331,175.212 439.629,180.759 439.629,186.658C439.629,192.557 437.332,198.104 433.16,202.276C431.696,203.739 429.776,204.472 427.857,204.472Z" style="fill:rgb(73,80,89);fill-rule:nonzero;"/>
                        <path d="M368.914,171.102C361.503,171.102 354.371,168.17 349.1,162.9C343.374,157.174 340.409,149.25 340.964,141.158C341.248,137.025 344.834,133.901 348.96,134.189C353.092,134.472 356.212,138.052 355.929,142.185C355.671,145.95 357.048,149.634 359.706,152.292C362.366,154.952 366.048,156.322 369.814,156.07C373.944,155.801 377.527,158.906 377.811,163.038C378.095,167.171 374.975,170.751 370.843,171.035C370.198,171.08 369.555,171.102 368.914,171.102Z" style="fill:rgb(73,80,89);fill-rule:nonzero;"/>
                    </g>
                </g>
            </g>
        </g>
    </g>
</svg>
