<?xml version="1.0" encoding="UTF-8"?>
<!-- Generator: Adobe Illustrator 25.2.0, SVG Export Plug-In . SVG Version: 6.00 Build 0)  -->
<svg xmlns="http://www.w3.org/2000/svg" xmlns:xlink="http://www.w3.org/1999/xlink" version="1.1" id="Capa_1" x="0px" y="0px" viewBox="0 0 512 512" style="enable-background:new 0 0 512 512;" xml:space="preserve" width="512" height="512">
<g>
	<path style="fill:#241726;" d="M41.778,438.501c-0.856,0-1.741,0-4.247-10.002c-8.529-1.633-9.25-2.603-9.492-2.929   c-0.209-0.281-0.304-0.822-0.208-1.159c0.135-0.479,0.491-1.737,10.187-5.64c3.465-9.05,4.629-9.05,5.33-9.05   c0.358,0,0.873,0.268,1.087,0.556c0.607,0.813,1.169,2.977,2.02,6.442c0.279,1.134,0.617,2.506,0.802,3.059   c0.487,0.224,1.665,0.647,2.638,0.995c4.85,1.739,6.195,2.368,6.411,3.474c0.078,0.392-0.132,0.988-0.43,1.254   c-1.016,0.913-6.189,2.813-8.377,3.593c-4.095,9.324-4.959,9.369-5.656,9.404C41.824,438.501,41.798,438.501,41.778,438.501z    M30.818,424.593c1.638,0.512,4.957,1.274,7.845,1.812c0.439,0.08,0.788,0.41,0.894,0.842c0.734,2.98,1.705,6.38,2.364,8.139   c0.94-1.635,2.467-4.832,3.697-7.652c0.126-0.288,0.367-0.512,0.663-0.616c2.478-0.871,5.285-1.952,6.874-2.669   c-1.159-0.512-2.919-1.143-4.026-1.54c-2.767-0.992-3.339-1.225-3.677-1.679c-0.3-0.403-0.508-1.161-1.198-3.968   c-0.295-1.196-0.761-3.09-1.152-4.366c-0.86,1.562-2.148,4.526-3.139,7.144c-0.113,0.299-0.346,0.534-0.641,0.654   C36.133,421.965,32.511,423.598,30.818,424.593z"/>
	<path style="fill:#241726;" d="M32.731,223.644c-0.856,0-1.741,0-4.247-10.002c-8.529-1.633-9.25-2.603-9.492-2.929   c-0.209-0.281-0.304-0.822-0.208-1.159c0.135-0.479,0.491-1.737,10.187-5.64c3.465-9.05,4.629-9.05,5.33-9.05   c0.358,0,0.873,0.268,1.087,0.556c0.607,0.813,1.169,2.977,2.02,6.442c0.279,1.134,0.617,2.506,0.802,3.059   c0.487,0.224,1.665,0.647,2.638,0.995c4.85,1.739,6.195,2.368,6.411,3.474c0.078,0.392-0.132,0.988-0.43,1.254   c-1.016,0.913-6.189,2.813-8.377,3.593c-4.094,9.324-4.959,9.369-5.657,9.404C32.778,223.644,32.751,223.644,32.731,223.644z    M21.772,209.736c1.638,0.512,4.957,1.274,7.845,1.812c0.439,0.08,0.788,0.41,0.894,0.842c0.734,2.98,1.706,6.38,2.365,8.139   c0.939-1.633,2.467-4.829,3.696-7.652c0.126-0.288,0.367-0.512,0.663-0.616c2.478-0.871,5.285-1.952,6.874-2.669   c-1.159-0.512-2.919-1.143-4.026-1.54c-2.767-0.992-3.339-1.225-3.677-1.679c-0.3-0.403-0.508-1.161-1.199-3.968   c-0.295-1.196-0.761-3.09-1.152-4.366c-0.86,1.562-2.148,4.526-3.139,7.144c-0.113,0.299-0.346,0.534-0.641,0.654   C27.087,207.109,23.465,208.741,21.772,209.736z"/>
	<path style="fill:#241726;" d="M258.448,61.446c-0.856,0-1.741,0-4.247-10.002c-8.529-1.633-9.25-2.603-9.492-2.929   c-0.209-0.281-0.303-0.822-0.208-1.159c0.135-0.479,0.491-1.737,10.187-5.64c3.465-9.05,4.629-9.05,5.33-9.05   c0.358,0,0.873,0.268,1.087,0.556c0.607,0.813,1.169,2.977,2.02,6.442c0.279,1.134,0.617,2.506,0.802,3.059   c0.487,0.224,1.665,0.647,2.638,0.995c4.85,1.739,6.195,2.368,6.411,3.474c0.078,0.392-0.132,0.988-0.43,1.254   c-1.016,0.913-6.189,2.813-8.377,3.593c-4.094,9.324-4.959,9.369-5.657,9.404C258.494,61.446,258.468,61.446,258.448,61.446z    M247.488,47.538c1.638,0.512,4.957,1.274,7.845,1.812c0.439,0.08,0.788,0.41,0.894,0.842c0.734,2.98,1.706,6.38,2.365,8.139   c0.939-1.633,2.467-4.829,3.696-7.652c0.126-0.288,0.367-0.512,0.663-0.616c2.478-0.871,5.285-1.952,6.874-2.669   c-1.159-0.512-2.919-1.143-4.026-1.54c-2.767-0.992-3.339-1.225-3.677-1.679c-0.3-0.403-0.508-1.161-1.199-3.968   c-0.295-1.196-0.761-3.09-1.152-4.366c-0.86,1.562-2.148,4.526-3.139,7.144c-0.113,0.299-0.346,0.534-0.641,0.654   C252.803,44.91,249.181,46.543,247.488,47.538z"/>
	<path style="fill:#241726;" d="M481.571,399.105c-0.856,0-1.742,0-4.247-10.002c-8.528-1.635-9.249-2.603-9.491-2.926   c-0.21-0.284-0.305-0.822-0.209-1.163c0.135-0.476,0.492-1.735,10.187-5.64c3.465-9.05,4.629-9.05,5.33-9.05   c0.358,0,0.873,0.268,1.087,0.556c0.607,0.815,1.169,2.977,2.02,6.444c0.279,1.132,0.617,2.506,0.802,3.059   c0.487,0.224,1.665,0.647,2.638,0.995c4.85,1.739,6.195,2.368,6.411,3.474c0.078,0.392-0.132,0.988-0.43,1.254   c-1.016,0.913-6.189,2.813-8.377,3.593c-4.094,9.324-4.959,9.369-5.657,9.404C481.618,399.105,481.591,399.105,481.571,399.105z    M470.612,385.197c1.638,0.512,4.957,1.274,7.846,1.812c0.438,0.08,0.786,0.41,0.893,0.842c0.734,2.98,1.706,6.38,2.365,8.139   c0.939-1.633,2.467-4.829,3.696-7.652c0.126-0.288,0.367-0.512,0.663-0.616c2.477-0.871,5.282-1.952,6.873-2.669   c-1.159-0.512-2.918-1.143-4.025-1.54c-2.767-0.992-3.339-1.225-3.677-1.679c-0.3-0.403-0.508-1.161-1.2-3.97   c-0.294-1.196-0.76-3.09-1.152-4.366c-0.86,1.562-2.147,4.526-3.138,7.144c-0.113,0.299-0.346,0.534-0.64,0.654   C475.927,382.568,472.306,384.203,470.612,385.197z"/>
	<path style="fill:#241726;" d="M277.702,479.334c-0.856,0-1.741,0-4.247-10.002c-8.529-1.633-9.25-2.603-9.492-2.929   c-0.209-0.281-0.303-0.822-0.208-1.159c0.135-0.479,0.491-1.737,10.187-5.64c3.465-9.05,4.629-9.05,5.33-9.05   c0.358,0,0.873,0.268,1.087,0.556c0.607,0.813,1.169,2.977,2.02,6.442c0.279,1.134,0.617,2.506,0.802,3.059   c0.487,0.224,1.665,0.647,2.638,0.995c4.85,1.739,6.195,2.368,6.411,3.474c0.078,0.392-0.132,0.988-0.43,1.254   c-1.016,0.913-6.189,2.813-8.377,3.593c-4.095,9.324-4.959,9.369-5.656,9.404C277.749,479.334,277.722,479.334,277.702,479.334z    M266.743,465.426c1.638,0.512,4.957,1.274,7.845,1.812c0.439,0.08,0.788,0.41,0.894,0.842c0.734,2.98,1.705,6.38,2.364,8.139   c0.94-1.635,2.467-4.832,3.697-7.652c0.126-0.288,0.367-0.512,0.663-0.616c2.478-0.871,5.285-1.952,6.874-2.669   c-1.159-0.512-2.919-1.143-4.026-1.54c-2.767-0.992-3.339-1.225-3.677-1.679c-0.3-0.403-0.508-1.161-1.198-3.968   c-0.295-1.196-0.761-3.09-1.152-4.366c-0.86,1.562-2.148,4.526-3.139,7.144c-0.113,0.299-0.346,0.534-0.641,0.654   C272.058,462.799,268.436,464.431,266.743,465.426z"/>
	<path style="fill:#241726;" d="M67.005,151.614c-0.002,0-0.037,0-0.038,0c-2.339-0.009-4.534-0.93-6.181-2.592   c-1.647-1.659-2.548-3.864-2.538-6.201c0.02-4.807,3.949-8.72,8.756-8.72c4.866,0.02,8.776,3.965,8.756,8.793   C75.741,147.702,71.812,151.614,67.005,151.614z M67.034,136.371c-3.591,0-6.501,2.898-6.516,6.46   c-0.008,1.732,0.66,3.365,1.88,4.597c1.221,1.23,2.847,1.912,4.579,1.918l0.029,1.134v-1.134c3.562,0,6.472-2.898,6.488-6.46   c0.008-1.732-0.66-3.365-1.881-4.597C70.392,137.06,68.766,136.377,67.034,136.371z"/>
	<path style="fill:#241726;" d="M308.589,59.744c-0.002,0-0.037,0-0.038,0c-2.339-0.009-4.534-0.93-6.181-2.592   c-1.647-1.659-2.548-3.864-2.538-6.201c0.02-4.807,3.949-8.72,8.756-8.72c2.377,0.009,4.571,0.93,6.218,2.592   c1.646,1.659,2.548,3.861,2.538,6.201C317.325,55.832,313.396,59.744,308.589,59.744z M308.617,44.5   c-3.591,0-6.501,2.898-6.516,6.46c-0.008,1.732,0.66,3.365,1.88,4.597c1.221,1.23,2.847,1.912,4.579,1.918l0.029,1.134v-1.134   c3.562,0,6.472-2.898,6.488-6.46c0.008-1.732-0.66-3.365-1.881-4.597C311.976,45.189,310.35,44.507,308.617,44.5z"/>
	<path style="fill:#241726;" d="M471.917,182.237c-0.001,0-0.04,0-0.042,0c-2.338-0.009-4.533-0.93-6.18-2.592   c-1.647-1.659-2.548-3.864-2.538-6.201c0.02-4.807,3.948-8.72,8.755-8.72c4.866,0.02,8.777,3.965,8.757,8.795   C480.649,178.327,476.722,182.237,471.917,182.237z M471.941,166.993c-3.59,0-6.5,2.898-6.515,6.46   c-0.008,1.732,0.66,3.365,1.88,4.597c1.221,1.23,2.847,1.912,4.579,1.918l0.032,1.134v-1.134c3.56,0,6.469-2.898,6.484-6.458   C478.417,169.933,475.518,167.009,471.941,166.993z"/>
	<path style="fill:#241726;" d="M152.981,456.531c-0.002,0-0.037,0-0.038,0c-4.828-0.022-8.738-3.968-8.718-8.795   c0.02-4.807,3.949-8.72,8.756-8.72c4.866,0.022,8.776,3.968,8.756,8.795C161.717,452.619,157.788,456.531,152.981,456.531z    M153.009,441.285c-3.59,0-6.5,2.898-6.515,6.46c-0.016,3.578,2.883,6.5,6.46,6.518l0.028,1.134v-1.134   c3.562,0,6.472-2.898,6.488-6.46C159.484,444.225,156.585,441.303,153.009,441.285z"/>
	<path style="fill:#241726;" d="M393.657,447.639c0,0-0.04,0-0.042,0c-4.827-0.02-8.737-3.965-8.717-8.793   c0.02-4.807,3.949-8.72,8.756-8.72c2.377,0.009,4.571,0.93,6.218,2.592s2.548,3.864,2.538,6.203   C402.389,443.729,398.463,447.639,393.657,447.639z M393.682,432.395c-3.591,0-6.501,2.898-6.516,6.46   c-0.008,1.732,0.66,3.365,1.881,4.597c1.22,1.229,2.846,1.912,4.578,1.918l0.032,1.134v-1.134c3.56,0,6.469-2.898,6.484-6.458   c0.008-1.735-0.66-3.367-1.88-4.597C397.04,433.084,395.414,432.402,393.682,432.395z"/>
	<path style="fill:#F5D66E;" d="M160.833,334.452l198.043-6.938c0,0-13.932-79.737-86.41-96.138S160.833,334.452,160.833,334.452z"/>
	<path style="fill:#EA7E94;" d="M245.563,221.499c0,0,22.469-0.36,26.103-1.026c3.634-0.666-11.039-34.237-16.881-31.433   C248.943,191.844,243.402,220.739,245.563,221.499z"/>
	<path style="fill:#EA7E94;" d="M286.465,216.559c0,0,19.492,11.182,22.956,12.469s8.024-35.066,1.57-35.644   C304.536,192.805,284.996,214.801,286.465,216.559z"/>
	<path style="fill:#EA7E94;" d="M323.699,236.555c0,0,14.06,17.531,16.813,19.993c2.754,2.463,20.28-29.71,14.484-32.607   C349.199,221.044,322.974,234.381,323.699,236.555z"/>
	<path style="fill:#EA7E94;" d="M350.184,272.51c0,0,14.06,17.531,16.813,19.993s20.28-29.71,14.484-32.607   C375.684,257,349.458,270.337,350.184,272.51z"/>
	<path style="fill:#EA7E94;" d="M370.607,302.469c0,0,4.809,21.952,6.182,25.381c1.373,3.43,31.368-17.609,27.461-22.779   S370.923,300.199,370.607,302.469z"/>
	<path style="fill:#EA7E94;" d="M233.616,218.42c0,0-19.064,11.898-22.477,13.312c-3.413,1.414-9.32-34.744-2.892-35.562   C214.676,195.353,235.019,216.609,233.616,218.42z"/>
	<path style="fill:#EA7E94;" d="M197.149,239.784c0,0-13.399,18.04-16.06,20.604c-2.66,2.563-21.369-28.937-15.684-32.047   C171.091,225.231,197.793,237.585,197.149,239.784z"/>
	<path style="fill:#EA7E94;" d="M172.018,276.698c0,0-13.399,18.04-16.06,20.604c-2.66,2.563-21.369-28.937-15.684-32.047   C145.96,262.145,172.662,274.499,172.018,276.698z"/>
	<path style="fill:#EA7E94;" d="M152.72,307.394c0,0-3.991,22.115-5.236,25.593c-1.245,3.478-32-16.432-28.287-21.744   C122.909,305.931,152.32,305.138,152.72,307.394z"/>
	<path style="fill:#241726;" d="M244.445,289.905c-5.173,0-9.815-13.706-11.127-17.953c-0.185-0.598,0.15-1.234,0.749-1.418   c0.597-0.193,1.233,0.151,1.418,0.749c2.448,7.913,6.539,16.354,8.937,16.354c0.023,0,0.045,0,0.068-0.002   c0.072-0.004,0.263-0.018,0.528-0.33c2-2.357,1.844-12.559,1.276-18.436c-0.061-0.622,0.395-1.176,1.019-1.238   c0.636-0.035,1.179,0.397,1.238,1.021c0.161,1.653,1.469,16.267-1.804,20.122c-0.732,0.862-1.55,1.088-2.107,1.125   C244.575,289.902,244.509,289.905,244.445,289.905z"/>
	<path style="fill:#241726;" d="M281.023,285.775c-3.797,0-7.831-11.606-9.916-18.598c-0.179-0.6,0.162-1.232,0.762-1.411   c0.6-0.173,1.233,0.162,1.411,0.764c2.64,8.844,6.247,16.779,7.723,16.978c1.262-0.569,2.276-8.644,2.125-17.271   c-0.011-0.627,0.488-1.143,1.114-1.154c0.661-0.097,1.143,0.487,1.154,1.114c0.125,7.153-0.254,19.209-4.207,19.57   C281.134,285.773,281.079,285.775,281.023,285.775z"/>
	<path style="fill:#241726;" d="M270.912,313.239c-4.145,0-7.894-11.285-9.334-16.214c-0.175-0.603,0.169-1.232,0.771-1.407   c0.601-0.177,1.231,0.171,1.407,0.769c2.252,7.707,5.61,14.588,7.106,14.588c0.018,0,0.034-0.002,0.052-0.004   c0.097-0.011,2.396-0.452,3.324-16.236c0.037-0.625,0.587-1.143,1.198-1.066c0.626,0.035,1.102,0.574,1.066,1.199   c-0.926,15.749-3.216,18.119-5.333,18.358C271.083,313.234,270.998,313.239,270.912,313.239z"/>
	<circle style="fill:#EA7E94;" cx="222.333" cy="296.389" r="13.021"/>
	<circle style="fill:#EA7E94;" cx="303.635" cy="284.956" r="13.021"/>
	<path style="fill:#A5D5C9;" d="M390.83,365.281c0,0-240.985,4.388-246.611,6.144c-5.626,1.755,15.941-30.719,21.567-26.331   s15.003,14.043,21.567,14.921c6.564,0.878,12.19-16.676,22.504-13.165c10.315,3.511,15.941,13.165,23.442,12.288   c7.501-0.878,25.317-16.676,33.757-14.921c8.439,1.755,22.504,11.41,28.13,11.41s24.38-14.921,29.068-14.043   c4.688,0.878,6.564,12.288,18.754,12.288c12.19,0,19.691-11.41,25.317-11.41S395.519,359.137,390.83,365.281z"/>
	<path style="fill:#A5D5C9;" d="M262.681,410.562c0,0-173.764,4.909-177.82,6.873c-4.057,1.964,11.494-34.363,15.551-29.454   c4.057,4.909,10.818,15.709,15.551,16.691c4.733,0.982,8.79-18.654,16.227-14.727c7.437,3.927,11.494,14.727,16.903,13.745   c5.409-0.982,18.255-18.654,24.34-16.691s16.227,12.763,20.284,12.763c4.057,0,17.579-16.691,20.96-15.709   s4.733,13.745,13.522,13.745c8.79,0,14.199-12.763,18.255-12.763C250.511,385.035,266.061,403.69,262.681,410.562z"/>
	<path style="fill:#A5D5C9;" d="M448.095,404.858c0,0-173.764,4.909-177.82,6.873s11.494-34.363,15.551-29.454   c4.057,4.909,10.818,15.709,15.551,16.691c4.733,0.982,8.79-18.654,16.227-14.727s11.494,14.727,16.903,13.745   c5.409-0.982,18.255-18.654,24.34-16.691s16.227,12.763,20.284,12.763c4.057,0,17.579-16.691,20.96-15.709   c3.381,0.982,4.733,13.745,13.522,13.745c8.79,0,14.199-12.763,18.255-12.763S451.475,397.985,448.095,404.858z"/>
	<g>
		<g>
			<path style="fill:#BE7995;" d="M251.55,142.974C163.775,160.531,106.502,250.186,90.519,278.23     c9.96,5.71,18.14,8.819,18.14,8.819s32.511-98.879,139.334-122.342c106.823-23.463,153.267,90.5,153.267,90.5     s5.568-2.65,13.186-6.756C394.696,213.799,335.654,126.15,251.55,142.974z"/>
			<path style="fill:#EA7E94;" d="M266.295,95.087c94.624-8.271,161.692,94.169,182.55,130.855     c6.558-5.864,10.413-11.571,8.148-15.986c-7.741-15.083-54.185-132.398-188.875-129.046     C133.43,84.263,65.311,189.846,56.022,226.716c-3.162,12.549,1.935,23.541,10.024,32.588     C75.773,219.78,116.359,108.193,266.295,95.087z"/>
			<path style="fill:#F5D66E;" d="M266.295,95.087C116.359,108.193,75.773,219.78,66.046,259.303     c3.724,4.165,8.078,7.917,12.562,11.217c11.884-29.126,61.993-133.649,174.076-148.42     c102.124-13.459,159.746,76.189,179.953,115.747c5.963-3.8,11.716-7.887,16.208-11.904     C427.987,189.256,360.919,86.816,266.295,95.087z"/>
			<path style="fill:#A5D5C9;" d="M252.684,122.1C140.601,136.871,90.492,241.394,78.608,270.52     c3.997,2.941,8.081,5.514,11.911,7.71c15.983-28.044,73.256-117.699,161.031-135.256     c84.104-16.824,143.147,70.825,162.896,105.477c5.439-2.931,11.912-6.602,18.191-10.604     C412.431,198.289,354.808,108.641,252.684,122.1z"/>
		</g>
		<g>
			<path style="fill:#FFFFFF;" d="M469.687,221.144c0,0,4.842-25.427-20.294-18.549c-25.135,6.878-18.442,30.795-8.581,23.306     c9.861-7.489-6.221-35.723-25.785-24.681c-19.565,11.042-16.691,34.807-3.404,37.309c13.286,2.502-6.535-27.852-24.427-10.831     c-17.892,17.022,17.047,51.922,32.793,40.727c15.746-11.195,5.078-31.33,0.787-19.676c-4.291,11.653,4.783,23.841,31.513,24.91     c26.73,1.069,16.927-40.71,6.908-29.286c-10.018,11.424,4.705,25.808,24.348,12.799     C503.188,244.162,483.367,213.807,469.687,221.144z"/>
			<path style="fill:#241726;" d="M453.285,274.814c-0.341,0-0.688-0.007-1.041-0.02c-12.574-0.505-22.198-3.483-27.947-8.635     c-1.067,1.154-2.291,2.224-3.651,3.19c-2.222,1.582-4.86,2.381-7.84,2.381c-10.882,0-24.844-11.048-29.879-23.644     c-3.341-8.358-2.102-15.891,3.487-21.21c4.133-3.932,8.692-5.82,13.535-5.49c0.696-8.533,6.051-16.374,14.522-21.154     c3.146-1.774,6.376-2.676,9.598-2.676c5.768,0,11.388,2.935,15.567,8.09c2.658-1.761,5.835-3.155,9.46-4.147     c8.623-2.357,14.929-1.265,18.599,3.17c3.757,4.539,3.69,11.318,3.375,14.672c0.997-0.306,2.033-0.461,3.097-0.461     c7.149,0,14.941,7.277,17.739,16.569c2.759,9.16-0.132,17.634-7.734,22.67c-4.915,3.254-9.937,5.082-14.584,5.315     C468.101,268.024,464.076,274.814,453.285,274.814z M425.745,264.408c3.892,3.518,11.584,7.517,26.59,8.117     c9.178,0.381,13.187-4.513,14.868-9.127c-5.37-0.423-9.637-3.057-11.461-7.082c-1.846-4.074-0.897-8.7,2.602-12.692     c2.838-3.237,6.354-3.082,8.906,0.275c3.001,3.952,4.177,11.112,2.942,17.22c4.041-0.357,8.409-2.031,12.728-4.891     c9.687-6.416,7.992-16.21,6.813-20.124c-2.525-8.385-9.363-14.954-15.567-14.954c-1.387,0-2.714,0.335-3.942,0.992     c-0.385,0.208-0.854,0.171-1.206-0.084c-0.352-0.259-0.525-0.698-0.444-1.125c0.018-0.095,1.74-9.548-2.632-14.823     c-3.067-3.702-8.601-4.519-16.248-2.421c-3.345,0.915-6.268,2.187-8.705,3.784c4.428,6.573,5.813,15.306,0.511,19.333     c-1.455,1.105-2.929,1.666-4.38,1.666c-2.576,0-4.78-1.852-5.749-4.832c-1.503-4.621-0.048-11.442,6.43-16.653     c-3.736-4.566-8.689-7.162-13.732-7.162c-2.827,0-5.681,0.802-8.484,2.384c-7.845,4.428-12.787,11.653-13.384,19.475     c8.604,1.748,15.207,10.058,14.885,14.723c-0.176,2.585-2.302,3.87-5.672,3.237c-6.759-1.272-11.398-7.774-11.539-15.99     c-4.127-0.261-8.211,1.36-11.896,4.867c-6.245,5.942-5.048,13.46-2.944,18.724c4.648,11.628,17.886,22.218,27.773,22.218     c2.499,0,4.695-0.66,6.526-1.961c1.258-0.895,2.385-1.885,3.36-2.949c-4.086-4.597-5.148-10.308-2.981-16.196     c1.295-3.518,3.077-4.256,4.343-4.256c1.619,0,3.135,1.243,4.157,3.407C430.135,251.582,430.118,258.484,425.745,264.408z      M424.054,246.369c-0.748,0-1.575,1.037-2.214,2.771c-1.815,4.931-0.995,9.719,2.301,13.618c3.602-5.102,3.629-10.875,2.02-14.28     C425.556,247.197,424.729,246.369,424.054,246.369z M462.744,243.527c-0.861,0-1.768,0.536-2.695,1.595     c-2.887,3.292-3.704,7.029-2.242,10.257c1.546,3.412,5.359,5.594,10.052,5.795c1.417-6.123-0.057-12.796-2.417-15.902     C464.838,244.475,463.88,243.527,462.744,243.527z M402.152,223.994c0.251,6.941,4.106,12.37,9.68,13.421     c0.455,0.086,0.864,0.128,1.229,0.128c1.473,0,1.716-0.654,1.76-1.292C415.052,232.908,409.547,225.709,402.152,223.994z      M439.152,208.81c-5.543,4.517-6.838,10.401-5.626,14.127c1.061,3.263,3.78,4.2,6.601,2.06     C444.273,221.849,442.869,214.386,439.152,208.81z"/>
		</g>
		<g>
			<path style="fill:#FFFFFF;" d="M100.942,253.808c0,0,4.842-25.427-20.294-18.549c-25.135,6.878-18.442,30.795-8.581,23.306     c9.861-7.489-6.221-35.723-25.785-24.681s-16.691,34.807-3.404,37.309c13.286,2.502-6.535-27.852-24.427-10.831     s17.047,51.922,32.793,40.727s5.078-31.33,0.787-19.676s4.783,23.841,31.513,24.91c26.73,1.069,16.927-40.71,6.908-29.286     c-10.018,11.424,4.705,25.808,24.348,12.799S114.622,246.472,100.942,253.808z"/>
			<path style="fill:#241726;" d="M84.541,307.477c-0.341,0-0.69-0.007-1.043-0.02c-12.573-0.503-22.197-3.483-27.945-8.635     c-1.068,1.156-2.292,2.226-3.652,3.192c-2.222,1.58-4.859,2.382-7.839,2.382c-10.883,0-24.845-11.05-29.88-23.647     c-3.34-8.358-2.101-15.891,3.488-21.207c4.133-3.932,8.679-5.784,13.535-5.492c0.696-8.533,6.051-16.371,14.522-21.152     c3.146-1.777,6.376-2.676,9.599-2.676c5.768,0,11.387,2.933,15.566,8.09c2.658-1.761,5.835-3.155,9.46-4.147     c8.628-2.357,14.93-1.263,18.597,3.168c3.758,4.539,3.692,11.32,3.377,14.674c0.997-0.306,2.033-0.461,3.097-0.461     c7.149,0,14.941,7.277,17.739,16.569c2.758,9.16-0.134,17.634-7.735,22.667c-4.914,3.254-9.935,5.082-14.582,5.315     C99.356,300.687,95.331,307.477,84.541,307.477z M57,297.073c3.892,3.518,11.584,7.517,26.589,8.115     c9.172,0.37,13.187-4.513,14.869-9.127c-5.372-0.421-9.638-3.053-11.462-7.08c-1.845-4.074-0.897-8.7,2.603-12.692     c2.836-3.23,6.356-3.086,8.906,0.277c3.001,3.95,4.177,11.11,2.942,17.215c4.042-0.357,8.409-2.031,12.727-4.891     c9.687-6.416,7.992-16.207,6.814-20.122c-2.525-8.385-9.363-14.954-15.567-14.954c-1.387,0-2.714,0.335-3.942,0.992     c-0.388,0.208-0.855,0.171-1.206-0.084c-0.352-0.259-0.525-0.698-0.444-1.125c0.018-0.095,1.739-9.55-2.634-14.825     c-3.067-3.7-8.598-4.517-16.246-2.419c-3.345,0.915-6.268,2.187-8.705,3.784c4.428,6.573,5.812,15.306,0.511,19.333     c-1.455,1.105-2.93,1.666-4.381,1.666c-2.576,0-4.778-1.852-5.749-4.832c-1.502-4.621-0.047-11.442,6.431-16.655     c-3.736-4.564-8.687-7.16-13.731-7.16c-2.828,0-5.682,0.802-8.485,2.384c-7.845,4.426-12.788,11.65-13.384,19.475     c8.604,1.748,15.207,10.058,14.885,14.723c-0.178,2.583-2.309,3.872-5.672,3.237c-6.76-1.274-11.399-7.776-11.539-15.99     c-4.111-0.266-8.212,1.36-11.896,4.867c-6.244,5.939-5.049,13.458-2.945,18.722c4.648,11.628,17.886,22.22,27.774,22.22     c2.499,0,4.694-0.66,6.525-1.961c1.258-0.895,2.386-1.885,3.361-2.951c-4.086-4.595-5.148-10.308-2.982-16.194     c1.295-3.518,3.077-4.256,4.343-4.256c1.619,0,3.136,1.243,4.158,3.409C61.391,284.247,61.372,291.15,57,297.073z      M55.309,279.034c-0.748,0-1.575,1.037-2.214,2.771c-1.815,4.929-0.994,9.719,2.302,13.615c3.602-5.1,3.629-10.873,2.02-14.278     C56.811,279.863,55.983,279.034,55.309,279.034z M94,276.192c-0.861,0-1.768,0.536-2.695,1.595     c-2.888,3.292-3.705,7.031-2.243,10.259c1.546,3.409,5.36,5.592,10.053,5.793c1.417-6.121-0.056-12.794-2.417-15.902     C96.093,277.14,95.134,276.192,94,276.192z M33.408,256.659c0.251,6.941,4.106,12.37,9.68,13.421     c0.453,0.084,0.863,0.128,1.227,0.128c1.474,0,1.718-0.654,1.762-1.294C46.308,265.574,40.803,258.374,33.408,256.659z      M70.409,241.475c-5.544,4.517-6.839,10.401-5.627,14.127c1.061,3.265,3.784,4.2,6.601,2.06     C75.528,254.515,74.125,247.051,70.409,241.475z"/>
		</g>
	</g>
	<path style="fill:#241726;" d="M73.192,237.849c-0.126,0-0.255-0.02-0.381-0.066c-0.59-0.21-0.897-0.86-0.688-1.449   c0.407-1.141,42.05-114.296,163.677-137.728c63.663-12.273,113.422,14.807,143.962,39.677   c33.038,26.903,51.309,57.123,51.49,57.424c0.321,0.538,0.146,1.234-0.391,1.555c-0.537,0.326-1.234,0.146-1.556-0.39   c-0.178-0.299-18.282-30.224-51.031-56.877C348.119,115.453,299,88.73,236.23,100.834   C115.861,124.022,74.663,235.968,74.261,237.095C74.095,237.558,73.659,237.849,73.192,237.849z"/>
	<path style="fill:#241726;" d="M94.527,236.725c-0.213,0-0.429-0.06-0.62-0.186c-0.524-0.343-0.67-1.046-0.328-1.568   c0.62-0.948,63.026-94.947,151.155-116.141c88.43-21.258,163.259,80.257,164.005,81.285c0.368,0.507,0.255,1.216-0.253,1.584   c-0.506,0.37-1.217,0.257-1.584-0.25c-0.737-1.019-74.691-101.338-161.639-80.412C158.001,142.022,96.092,235.272,95.477,236.211   C95.259,236.546,94.897,236.725,94.527,236.725z"/>
	<path style="fill:#241726;" d="M108.002,251.325c-0.212,0-0.426-0.06-0.617-0.184c-0.525-0.341-0.675-1.043-0.333-1.568   c0.587-0.902,59.63-90.432,144.272-107.71c84.949-17.346,144.522,78.693,145.115,79.666c0.326,0.534,0.156,1.232-0.379,1.557   c-0.537,0.332-1.233,0.157-1.56-0.379c-0.584-0.959-59.346-95.654-142.722-78.62c-83.7,17.085-142.241,105.827-142.823,106.722   C108.736,251.143,108.373,251.325,108.002,251.325z"/>
	<g>
		<path style="fill:#F5D66E;" d="M50.599,332.006c0,0,18.918,122.423,22.494,128.338c0,0,29.443-4.42,31.598-7.97    c2.155-3.549-35.979-121.474-41.026-122.867S50.599,332.006,50.599,332.006z"/>
		<path style="fill:#BE7995;" d="M53.989,321.793c0,0-21.154-15.089-35.498-5.662C7.459,323.381,0,350.583,0,350.583l41.101-16.394    c0,0-31.053,10.485-20.468,44.656l32.004-41.172c0,0-23.693,46.036,5.875,51.243l6.319-45.968l27.776,41.805    c0,0,12.88-28.083,1.285-42.689c-11.595-14.606-26.365-12.08-26.365-12.08s37.282-4.163,46.242,7.124    c0,0,5.304-19.904-14.785-28.849s-35.876,9.363-35.876,9.363s8.867-26.344,23.775-30.061c0,0-26.071-19.889-38.295-8.021    C36.363,291.411,53.989,321.793,53.989,321.793z"/>
		<path style="fill:#241726;" d="M87.702,358.055c-0.372,0-0.737-0.182-0.954-0.518c-8.134-12.572-21.563-20.126-21.697-20.199    c-0.548-0.306-0.745-0.995-0.441-1.544c0.305-0.545,0.994-0.738,1.542-0.441c0.57,0.317,14.062,7.909,22.501,20.953    c0.34,0.525,0.189,1.227-0.337,1.568C88.126,357.995,87.913,358.055,87.702,358.055z"/>
		<path style="fill:#241726;" d="M64.076,328.715c-0.188,0-0.379-0.047-0.555-0.146c-0.546-0.306-0.74-0.999-0.432-1.544    c3.615-6.429,25.797-8.715,28.314-8.957c0.631-0.038,1.176,0.399,1.236,1.021c0.06,0.625-0.398,1.179-1.021,1.238    c-6.513,0.62-23.979,3.234-26.553,7.809C64.858,328.507,64.473,328.715,64.076,328.715z"/>
		<path style="fill:#241726;" d="M59.886,325.286c-0.488,0-0.939-0.317-1.087-0.809c-7.076-23.587,8.137-29.898,8.291-29.958    c0.578-0.235,1.236,0.053,1.468,0.636c0.231,0.58-0.051,1.238-0.631,1.473c-0.551,0.222-13.408,5.682-6.954,27.198    c0.179,0.6-0.161,1.232-0.761,1.411C60.103,325.27,59.993,325.286,59.886,325.286z"/>
		<path style="fill:#241726;" d="M24.069,334.812c-0.272,0-0.546-0.097-0.763-0.295c-0.463-0.421-0.497-1.139-0.076-1.602    c7.959-8.759,27.292-5.084,28.11-4.922c0.615,0.12,1.015,0.716,0.895,1.329c-0.121,0.616-0.714,1.019-1.331,0.895    c-0.188-0.031-18.897-3.584-25.995,4.222C24.685,334.688,24.377,334.812,24.069,334.812z"/>
		<path style="fill:#241726;" d="M56.074,356.912c-0.562,0-1.048-0.416-1.123-0.986c-0.081-0.616-1.91-15.146,4.569-20.815    c0.47-0.412,1.185-0.368,1.601,0.106c0.412,0.472,0.364,1.187-0.107,1.599c-5.566,4.872-3.831,18.675-3.814,18.813    c0.082,0.623-0.356,1.192-0.977,1.274C56.173,356.91,56.123,356.912,56.074,356.912z"/>
		<path style="fill:#241726;" d="M36.641,350.053c-0.207,0-0.418-0.058-0.606-0.175c-0.529-0.337-0.687-1.037-0.351-1.566    c0.304-0.481,7.56-11.801,17.339-15.321c0.591-0.208,1.238,0.095,1.451,0.685c0.213,0.589-0.093,1.238-0.682,1.451    c-9.055,3.259-16.121,14.289-16.192,14.4C37.385,349.867,37.017,350.053,36.641,350.053z"/>
		<path style="fill:#241726;" d="M60.267,376.345c-0.487,0-0.938-0.317-1.086-0.806c-0.182-0.6,0.158-1.232,0.758-1.413    l20.195-6.097c0.604-0.182,1.234,0.16,1.413,0.758c0.182,0.6-0.158,1.232-0.758,1.413l-20.195,6.097    C60.485,376.329,60.375,376.345,60.267,376.345z"/>
		<path style="fill:#241726;" d="M61.028,396.159c-0.493,0-0.947-0.323-1.09-0.822c-0.172-0.603,0.177-1.232,0.78-1.402    l24.004-6.859c0.606-0.182,1.23,0.175,1.402,0.778c0.172,0.603-0.177,1.232-0.78,1.402l-24.004,6.859    C61.236,396.146,61.132,396.159,61.028,396.159z"/>
		<path style="fill:#241726;" d="M64.076,417.114c-0.503,0-0.961-0.337-1.095-0.846c-0.16-0.605,0.202-1.225,0.807-1.385    l28.958-7.621c0.605-0.162,1.226,0.202,1.386,0.809c0.16,0.605-0.202,1.225-0.807,1.385l-28.958,7.621    C64.269,417.103,64.172,417.114,64.076,417.114z"/>
		<path style="fill:#241726;" d="M69.412,439.595c-0.484,0-0.932-0.31-1.083-0.798c-0.186-0.598,0.147-1.234,0.745-1.42    l29.339-9.145c0.603-0.188,1.234,0.146,1.421,0.747c0.186,0.598-0.147,1.234-0.745,1.42l-29.339,9.145    C69.637,439.58,69.524,439.595,69.412,439.595z"/>
	</g>
	<g>
		<path style="fill:#F5D66E;" d="M450.851,305.069c0,0-30.407,120.086-29.426,126.928c0,0,28.83,7.432,32.2,5.007    c3.37-2.425,14.331-125.878,10.229-129.131C459.752,304.619,450.851,305.069,450.851,305.069z"/>
		<path style="fill:#BE7995;" d="M457.961,296.992c0,0-13.58-22.153-30.466-19.079c-12.987,2.365-30.479,24.492-30.479,24.492    l44.239,0.964c0,0-32.682-2.478-36.286,33.113l45.544-25.399c0,0-39.794,33.123-14.609,49.467l23.774-39.847l9.239,49.334    c0,0,22.827-20.821,17.859-38.795s-19.552-21.419-19.552-21.419s35.946,10.731,39.785,24.621c0,0,12.658-16.251-2.341-32.333    s-36.683-5.395-36.683-5.395s18.453-20.787,33.628-18.385c0,0-16.231-28.493-32.12-22.342    C453.604,262.138,457.961,296.992,457.961,296.992z"/>
		<path style="fill:#241726;" d="M475.272,343.631c-0.541,0-1.02-0.388-1.117-0.939c-2.578-14.75-11.988-26.95-12.084-27.071    c-0.384-0.494-0.297-1.207,0.197-1.593s1.206-0.297,1.593,0.197c0.401,0.514,9.854,12.774,12.529,28.077    c0.107,0.616-0.306,1.205-0.923,1.311C475.403,343.627,475.336,343.631,475.272,343.631z"/>
		<path style="fill:#241726;" d="M493.516,310.394c-0.113,0-0.228-0.018-0.342-0.053c-6.237-1.974-23.339-6.387-27.493-3.183    c-0.5,0.385-1.21,0.29-1.592-0.204c-0.382-0.496-0.29-1.21,0.205-1.591c5.844-4.515,27.155,2.051,29.565,2.816    c0.597,0.188,0.928,0.826,0.739,1.422C494.445,310.086,493.998,310.394,493.516,310.394z"/>
		<path style="fill:#241726;" d="M462.469,302.601c-0.041,0-0.083-0.002-0.125-0.007c-0.622-0.069-1.072-0.629-1.004-1.252    c2.701-24.491,19.17-24.362,19.334-24.34c0.625,0.016,1.117,0.534,1.103,1.159c-0.013,0.618-0.521,1.11-1.135,1.11    c-0.023-0.002-0.04-0.002-0.076,0c-1.123,0-14.56,0.467-16.971,22.32C463.532,302.171,463.04,302.601,462.469,302.601z"/>
		<path style="fill:#241726;" d="M452.465,303.737c-0.218,0-0.44-0.062-0.635-0.195c-0.158-0.109-15.995-10.689-25.581-6.267    c-0.568,0.264-1.242,0.013-1.504-0.556c-0.263-0.569-0.013-1.243,0.556-1.504c10.742-4.954,27.11,5.981,27.8,6.449    c0.518,0.35,0.655,1.057,0.304,1.575C453.186,303.562,452.828,303.737,452.465,303.737z"/>
		<path style="fill:#241726;" d="M446.608,330.226c-0.101,0-0.203-0.013-0.305-0.042c-0.604-0.166-0.957-0.791-0.79-1.396    c0.166-0.598,4.159-14.69,12.337-17.375c0.601-0.199,1.236,0.128,1.432,0.722c0.195,0.596-0.129,1.236-0.723,1.431    c-7.038,2.313-10.822,15.693-10.86,15.829C447.56,329.898,447.104,330.226,446.608,330.226z"/>
		<path style="fill:#241726;" d="M431.398,316.32c-0.36,0-0.714-0.171-0.934-0.49c-0.357-0.516-0.227-1.221,0.288-1.577    c0.466-0.326,11.56-7.94,21.946-7.328c0.626,0.035,1.104,0.569,1.069,1.196c-0.035,0.622-0.578,1.117-1.195,1.068    c-9.62-0.507-20.423,6.856-20.531,6.93C431.845,316.256,431.621,316.32,431.398,316.32z"/>
		<path style="fill:#241726;" d="M463.847,352.027c-0.041,0-0.082-0.002-0.123-0.007l-20.973-2.275    c-0.624-0.066-1.073-0.627-1.006-1.249c0.066-0.625,0.634-1.074,1.249-1.006l20.973,2.275c0.624,0.066,1.073,0.627,1.006,1.249    C464.911,351.597,464.419,352.027,463.847,352.027z"/>
		<path style="fill:#241726;" d="M460.614,371.352c-0.047,0-0.093-0.002-0.141-0.009l-24.777-3.064    c-0.621-0.078-1.063-0.642-0.986-1.265c0.078-0.62,0.645-1.063,1.265-0.986l24.777,3.064c0.621,0.078,1.063,0.642,0.986,1.265    C461.667,370.931,461.179,371.352,460.614,371.352z"/>
		<path style="fill:#241726;" d="M460.091,393.069c-0.054,0-0.109-0.004-0.164-0.011l-29.635-4.298    c-0.62-0.091-1.05-0.667-0.959-1.285c0.089-0.62,0.661-1.043,1.285-0.961l29.635,4.298c0.62,0.091,1.05,0.667,0.959,1.285    C461.13,392.661,460.646,393.069,460.091,393.069z"/>
		<path style="fill:#241726;" d="M457.166,414.593c-0.038,0-0.075-0.002-0.113-0.007l-30.581-3.044    c-0.624-0.062-1.079-0.616-1.017-1.241c0.062-0.622,0.638-1.083,1.241-1.015l30.581,3.044c0.624,0.062,1.079,0.616,1.017,1.241    C458.235,414.156,457.742,414.593,457.166,414.593z"/>
	</g>
</g>















</svg>
