<svg id="Layer_1" enable-background="new 0 0 510 510" height="512" viewBox="0 0 510 510" width="512" xmlns="http://www.w3.org/2000/svg"><g><path d="m150 145v315h-44.82l-15.18-176.38 15.18-138.62z" fill="#ffb555"/><path d="m105.18 145v315h-45.18v-225h-60v-90z" fill="#fd5"/><path d="m410 50v65.15l-42.66 54.85h-17.34l-12.842-60 12.842-60z" fill="#df6666"/><path d="m350 50v120h-17.34l-42.66-54.85v-65.15z" fill="#e69768"/><path d="m350 215 19.28-45.365-19.28-29.635c-88.22 0-160 71.78-160 160s71.78 160 160 160l19.28-37.085-19.28-37.915c-46.94 0-85-38.06-85-85s38.06-85 85-85z" fill="#fd5"/><path d="m510 300c0 88.22-71.78 160-160 160v-75c46.94 0 85-38.06 85-85s-38.06-85-85-85v-75c88.22 0 160 71.78 160 160z" fill="#ffb555"/></g></svg>