<?xml version="1.0" encoding="UTF-8"?>
<!-- Generator: Adobe Illustrator 25.2.3, SVG Export Plug-In . SVG Version: 6.00 Build 0)  -->
<svg xmlns="http://www.w3.org/2000/svg" xmlns:xlink="http://www.w3.org/1999/xlink" version="1.1" id="Capa_1" x="0px" y="0px" viewBox="0 0 512 512" style="enable-background:new 0 0 512 512;" xml:space="preserve" width="512" height="512">
<g>
	<g>
		<g>
			<g>
				<g>
					<path style="fill:#FBFCFF;" d="M103.408,254.468c0,0,52.605-145.888,57.537-149.987c4.932-4.098,48.45-42.064,50.074-38.003       s8.062,67.251,8.062,67.251l-62.997,151.764L103.408,254.468z"/>
				</g>
				<g>
					<path style="fill:#241726;" d="M156.085,286.636c-0.202,0-0.401-0.053-0.579-0.158l-52.676-31.027       c-0.472-0.279-0.68-0.854-0.494-1.371c5.394-14.961,52.855-146.3,57.882-150.477c0.623-0.517,1.863-1.578,3.558-3.027       c29.164-24.912,43.127-35.543,46.686-35.543c0.758,0,1.362,0.381,1.618,1.021c1.637,4.092,7.478,61.076,8.139,67.559       c0.019,0.189-0.009,0.379-0.081,0.553l-62.997,151.765c-0.127,0.305-0.379,0.542-0.692,0.646       C156.329,286.615,156.206,286.636,156.085,286.636z M104.802,253.963l50.731,29.882l62.385-150.287       c-2.488-24.397-6.501-60.951-7.818-66.191c-2.611,0.637-12.735,7.517-44.842,34.945c-1.707,1.458-2.956,2.525-3.584,3.047       C158.015,108.86,125.785,195.8,104.802,253.963z"/>
				</g>
			</g>
			<g>
				<path style="fill:#241726;" d="M217.23,108.428l-40.386-18.962c0,0,32.174-28.54,34.466-27.739      C215.893,63.33,217.23,108.428,217.23,108.428z"/>
			</g>
			<g>
				<path style="fill:#FFCE59;" d="M160.001,103.831l13.205,24.732l19.766-6.806l5.337,14.804c0,0,17.765-7.437,21.826-2.394      c4.061,5.042-61.245,148.04-61.245,148.04s-59.958-24.396-57.753-29.836C103.343,246.931,155.321,98.702,160.001,103.831z"/>
			</g>
			<g>
				<path style="fill:#241726;" d="M119.536,270.249c-0.037,0-0.074,0-0.11-0.004c-0.61-0.062-1.064-0.564-1.026-1.174      c0.237-3.867,48.813-128.631,54.351-142.846c0.23-0.586,0.891-0.88,1.478-0.649c0.587,0.23,0.877,0.889,0.649,1.478      c-14.882,38.195-53.63,138.194-54.203,142.188C120.592,269.81,120.1,270.249,119.536,270.249z"/>
			</g>
			<g>
				<path style="fill:#241726;" d="M142.511,285.877c-0.135,0-0.271-0.025-0.405-0.074c-0.589-0.223-0.886-0.883-0.663-1.471      L198,135.126c0.225-0.591,0.884-0.88,1.472-0.664c0.589,0.223,0.886,0.883,0.663,1.471l-56.557,149.206      C143.404,285.596,142.971,285.877,142.511,285.877z"/>
			</g>
		</g>
		<g>
			<g>
				<path style="fill:#FFFFFF;" d="M164.643,265.963c0,0-55.75-28.378-58.154-27.463s-12.574,36.594-9.17,39.739      s47.269,26.422,51.413,19.668S164.643,265.963,164.643,265.963z"/>
			</g>
			<g>
				<path style="fill:#241726;" d="M145.448,300.27h-0.001c-11.488,0-45.707-18.242-48.903-21.194      c-0.622-0.575-2.077-1.919,0.082-13.069c1.517-7.827,6.707-27.531,9.456-28.576c0.129-0.049,0.421-0.096,0.559-0.096      c4.073,0,49.462,23,58.519,27.611c0.547,0.279,0.776,0.943,0.516,1.5c-0.481,1.03-11.841,25.326-15.972,32.057      C148.985,299.675,147.553,300.27,145.448,300.27z M106.824,239.64c-2.409,2.808-11.084,35.041-8.724,37.767      c2.62,2.42,36.32,20.582,47.348,20.582h0.001c1.222,0,2.043-0.241,2.311-0.68c3.597-5.859,13.151-26.086,15.381-30.829      C142.796,256.139,110.752,240.331,106.824,239.64z"/>
			</g>
		</g>
		<g>
			<path style="fill:#E45D81;" d="M162.566,279.33c0,0-57.486-29.197-61.427-26.959s-10.97,33.765-10.97,33.765     s58.023,23.814,59.894,21.623C151.934,305.568,162.566,279.33,162.566,279.33z"/>
		</g>
	</g>
	<g>
		<path style="fill:#241726;" d="M262.131,101.18c-0.837,0-1.629,0-3.82-8.721c-7.385-1.422-8.013-2.264-8.255-2.587    c-0.211-0.285-0.302-0.805-0.205-1.146c0.134-0.475,0.446-1.58,8.889-4.983c3.034-7.907,4.068-7.907,4.758-7.907    c0.36,0,0.854,0.256,1.069,0.546c0.545,0.731,1.037,2.625,1.783,5.659c0.232,0.943,0.511,2.079,0.674,2.585    c0.445,0.198,1.415,0.546,2.221,0.836c4.35,1.56,5.472,2.09,5.677,3.136c0.078,0.394-0.123,0.969-0.421,1.237    c-0.885,0.791-5.075,2.347-7.278,3.133c-3.577,8.137-4.347,8.175-5.028,8.21C262.175,101.18,262.151,101.18,262.131,101.18z     M252.972,88.889c1.481,0.423,4.15,1.03,6.479,1.464c0.44,0.08,0.791,0.412,0.898,0.847c0.595,2.414,1.373,5.164,1.937,6.751    c0.818-1.478,2.047-4.065,3.044-6.352c0.127-0.29,0.369-0.515,0.667-0.62c1.988-0.7,4.233-1.558,5.646-2.175    c-0.984-0.412-2.308-0.887-3.169-1.195c-2.482-0.891-2.95-1.083-3.272-1.515c-0.281-0.377-0.452-1.003-1.07-3.51    c-0.228-0.929-0.578-2.353-0.893-3.43c-0.734,1.409-1.752,3.773-2.545,5.866c-0.114,0.301-0.348,0.537-0.644,0.657    C257.465,86.71,254.53,88.022,252.972,88.889z"/>
	</g>
	<g>
		<path style="fill:#241726;" d="M25.398,276.553c-0.838,0-1.63,0-3.821-8.721c-7.385-1.422-8.013-2.264-8.254-2.587    c-0.212-0.285-0.303-0.805-0.206-1.146c0.134-0.475,0.446-1.58,8.889-4.983c3.034-7.907,4.068-7.907,4.758-7.907    c0.36,0,0.854,0.256,1.069,0.546c0.545,0.731,1.037,2.625,1.783,5.659c0.232,0.943,0.511,2.079,0.674,2.585    c0.445,0.198,1.415,0.546,2.221,0.836c4.35,1.56,5.472,2.09,5.678,3.136c0.078,0.394-0.123,0.969-0.421,1.237    c-0.885,0.791-5.075,2.347-7.278,3.133c-3.577,8.137-4.346,8.175-5.027,8.21C25.443,276.553,25.419,276.553,25.398,276.553z     M16.239,264.262c1.481,0.423,4.15,1.03,6.479,1.464c0.44,0.08,0.791,0.412,0.898,0.847c0.595,2.414,1.374,5.164,1.937,6.751    c0.818-1.478,2.047-4.065,3.044-6.352c0.127-0.29,0.369-0.515,0.667-0.62c1.988-0.7,4.233-1.558,5.646-2.175    c-0.984-0.412-2.308-0.887-3.169-1.195c-2.482-0.891-2.95-1.083-3.272-1.515c-0.281-0.377-0.452-1.003-1.07-3.51    c-0.228-0.929-0.578-2.353-0.893-3.43c-0.734,1.409-1.753,3.773-2.545,5.866c-0.114,0.301-0.348,0.537-0.644,0.657    C20.732,262.082,17.797,263.395,16.239,264.262z"/>
	</g>
	<g>
		<path style="fill:#241726;" d="M441.152,378.824c-0.838,0-1.63,0-3.821-8.721c-7.385-1.422-8.013-2.264-8.255-2.587    c-0.211-0.285-0.302-0.805-0.205-1.146c0.135-0.477,0.447-1.58,8.89-4.983c3.033-7.907,4.067-7.907,4.757-7.907    c0.36,0,0.854,0.256,1.069,0.546c0.545,0.731,1.036,2.623,1.782,5.652c0.233,0.945,0.513,2.086,0.675,2.592    c0.446,0.198,1.416,0.546,2.223,0.836c4.349,1.56,5.47,2.09,5.675,3.136c0.078,0.394-0.123,0.969-0.421,1.237    c-0.884,0.791-5.074,2.347-7.278,3.133c-3.577,8.137-4.346,8.175-5.027,8.21C441.196,378.824,441.172,378.824,441.152,378.824z     M431.992,366.533c1.481,0.423,4.15,1.03,6.479,1.464c0.44,0.08,0.791,0.412,0.898,0.847c0.595,2.414,1.374,5.164,1.937,6.751    c0.818-1.478,2.047-4.065,3.044-6.352c0.127-0.29,0.369-0.515,0.668-0.62c1.989-0.7,4.233-1.558,5.646-2.175    c-0.984-0.412-2.307-0.887-3.168-1.195c-2.483-0.891-2.951-1.083-3.273-1.515c-0.28-0.377-0.452-1.003-1.071-3.515    c-0.228-0.929-0.577-2.349-0.89-3.425c-0.734,1.409-1.753,3.773-2.545,5.866c-0.114,0.301-0.348,0.537-0.644,0.657    C436.485,364.353,433.55,365.668,431.992,366.533z"/>
	</g>
	<g>
		<path style="fill:#241726;" d="M176.582,507.774c-0.838,0-1.631,0-3.821-8.721c-7.386-1.422-8.013-2.264-8.255-2.587    c-0.211-0.285-0.302-0.805-0.205-1.146c0.135-0.477,0.447-1.578,8.89-4.981c3.033-7.909,4.067-7.909,4.757-7.909    c0.36,0,0.854,0.256,1.069,0.546c0.545,0.731,1.036,2.625,1.782,5.656c0.233,0.943,0.513,2.082,0.674,2.587    c0.446,0.198,1.416,0.546,2.222,0.836c4.35,1.56,5.472,2.09,5.678,3.136c0.078,0.394-0.123,0.969-0.421,1.237    c-0.884,0.791-5.074,2.347-7.278,3.133c-3.577,8.137-4.346,8.175-5.027,8.21C176.626,507.774,176.602,507.774,176.582,507.774z     M167.423,495.483c1.481,0.423,4.149,1.03,6.478,1.464c0.44,0.08,0.791,0.412,0.898,0.847c0.595,2.414,1.373,5.164,1.937,6.751    c0.818-1.478,2.047-4.065,3.044-6.352c0.127-0.29,0.369-0.515,0.667-0.62c1.989-0.7,4.233-1.558,5.646-2.175    c-0.984-0.412-2.308-0.887-3.169-1.195c-2.482-0.891-2.95-1.083-3.272-1.516c-0.28-0.377-0.452-1.001-1.07-3.51    c-0.23-0.932-0.578-2.351-0.891-3.43c-0.734,1.409-1.753,3.775-2.545,5.868c-0.114,0.301-0.348,0.537-0.645,0.657    C171.916,493.303,168.981,494.618,167.423,495.483z"/>
	</g>
	<g>
		<path style="fill:#241726;" d="M31.4,323.667c-0.002,0-0.032,0-0.032,0c-2.113-0.009-4.095-0.84-5.583-2.34    c-1.487-1.5-2.301-3.49-2.292-5.601c0.019-4.341,3.566-7.874,7.904-7.874c2.151,0.009,4.132,0.84,5.62,2.34    c1.487,1.5,2.301,3.488,2.292,5.601C39.29,320.134,35.742,323.667,31.4,323.667z M31.426,310.134    c-3.115,0-5.637,2.512-5.651,5.601c-0.007,1.502,0.573,2.917,1.631,3.985c1.057,1.068,2.467,1.658,3.969,1.665H31.4l0,0    c3.089,0,5.613-2.512,5.626-5.601c0.007-1.502-0.573-2.917-1.631-3.985C34.338,310.732,32.928,310.141,31.426,310.134z"/>
	</g>
	<g>
		<path style="fill:#241726;" d="M420.445,212.6c-0.002,0-0.032,0-0.033,0c-2.113-0.009-4.095-0.84-5.582-2.34    c-1.487-1.5-2.301-3.49-2.292-5.601c0.019-4.341,3.565-7.874,7.903-7.874c2.151,0.009,4.133,0.84,5.621,2.34    c1.487,1.5,2.3,3.488,2.291,5.601C428.335,209.067,424.787,212.6,420.445,212.6z M420.47,199.067c-3.115,0-5.636,2.512-5.65,5.601    c-0.007,1.502,0.573,2.917,1.63,3.985c1.059,1.068,2.468,1.658,3.97,1.665l0.025-0.002v0.002c3.089,0,5.612-2.512,5.625-5.601    c0.007-1.504-0.572-2.92-1.63-3.985C423.383,199.665,421.972,199.074,420.47,199.067z"/>
	</g>
	<g>
		<path style="fill:#241726;" d="M413.776,497.179c-0.002,0-0.032,0-0.032,0c-2.114-0.009-4.096-0.84-5.584-2.34    c-1.487-1.5-2.301-3.488-2.292-5.601c0.019-4.341,3.567-7.874,7.908-7.874c2.146,0.009,4.129,0.84,5.615,2.34    c1.487,1.5,2.301,3.488,2.292,5.601C421.665,493.646,418.116,497.179,413.776,497.179z M413.801,483.646    c-3.113,0-5.637,2.512-5.651,5.601c-0.007,1.502,0.573,2.917,1.631,3.985c1.057,1.068,2.468,1.658,3.97,1.665l0.025-0.001v0.001    c3.088,0,5.612-2.512,5.625-5.601c0.007-1.504-0.573-2.92-1.63-3.985C416.714,484.244,415.303,483.653,413.801,483.646z"/>
	</g>
	<g>
		<path style="fill:#241726;" d="M415.999,390.462c-0.002,0-0.032,0-0.032,0c-2.114-0.009-4.096-0.84-5.584-2.34    c-1.487-1.5-2.3-3.49-2.291-5.601c0.018-4.341,3.564-7.874,7.903-7.874c2.151,0.009,4.133,0.84,5.621,2.34    c1.487,1.5,2.3,3.488,2.291,5.601C423.889,386.929,420.341,390.462,415.999,390.462z M416.024,376.93    c-3.116,0-5.636,2.512-5.65,5.601c-0.007,1.502,0.572,2.917,1.63,3.985c1.057,1.068,2.468,1.658,3.97,1.665l0.025,0v0    c3.089,0,5.612-2.512,5.625-5.601c0.007-1.504-0.572-2.92-1.63-3.985C418.937,377.527,417.526,376.936,416.024,376.93z"/>
	</g>
	<g>
		<g>
			<path style="fill:#FFFFFF;" d="M248.66,421.076c0,0-2.194-16.653,13.836-11.265s10.806,20.636,4.695,15.418     c-6.111-5.218,5.355-22.914,17.621-15.034s9.523,23.17,0.822,24.298s5.267-17.803,16.227-6.111     c10.96,11.692-12.97,33.007-22.756,25.17c-9.787-7.837-2.128-20.486,0.22-12.777c2.348,7.709-3.983,15.269-21.341,14.97     c-17.357-0.299-9.457-27.003-3.39-19.23c6.067,7.773-4.005,16.546-16.249,7.389C226.101,434.746,240.069,415.815,248.66,421.076z     "/>
		</g>
		<g>
			<path style="fill:#241726;" d="M258.972,456.896l-1.007-0.009c-5.696-0.098-9.708-3.015-11.127-8.041     c-2.993-0.381-6.148-1.765-9.175-4.029c-4.809-3.595-6.437-9.053-4.47-14.974c2.017-6.064,7.392-10.816,12.236-10.816     c0.685,0,1.348,0.089,1.987,0.267c-0.017-2.327,0.35-6.249,2.693-8.921c2.634-3.002,6.966-3.59,12.749-1.643     c2.218,0.744,4.162,1.712,5.796,2.882c4.632-4.874,11.221-5.942,16.774-2.378c5.301,3.405,8.523,8.641,8.796,14.185     c3.108,0.096,5.956,1.502,8.469,4.183c3.421,3.648,4.052,8.551,1.776,13.802c-3.456,7.979-12.896,14.979-20.202,14.979     c-2.291,0-4.268-0.653-5.876-1.939c-0.759-0.608-1.446-1.266-2.053-1.963C272.502,455.374,266.533,456.896,258.972,456.896z      M249.258,448.933c0.995,2.786,3.344,5.578,8.746,5.672l0.966,0.009c8.697,0,13.456-2.033,16.015-3.969     c-2.436-3.958-2.245-8.282-0.885-10.961c0.791-1.558,1.941-2.452,3.157-2.452c0.815,0,2.309,0.417,3.159,3.209     c1.176,3.865,0.309,7.64-2.377,10.517c0.523,0.604,1.118,1.174,1.778,1.703c1.192,0.956,2.69,1.44,4.449,1.44     c6.393,0,15.024-6.485,18.108-13.604c1.338-3.089,2.19-7.562-1.347-11.335c-2.077-2.215-4.384-3.379-6.86-3.461     c-0.534,5.322-3.872,9.338-8.388,9.924c-2.964,0.383-3.953-1.17-4.01-2.608c-0.126-3.142,4.393-8.42,10.176-9.434     c-0.22-4.827-3.062-9.416-7.751-12.429c-4.609-2.962-9.887-2.09-13.778,1.914c3.778,3.608,4.478,8.043,3.421,11.005     c-0.741,2.077-2.33,3.368-4.148,3.368c-0.001,0-0.001,0-0.001,0c-1.09,0-2.21-0.466-3.24-1.346     c-3.379-2.884-2.299-8.509,0.741-12.723c-1.421-0.996-3.118-1.827-5.059-2.48c-4.827-1.622-8.286-1.31-10.302,0.981     c-2.766,3.147-2.046,8.995-2.039,9.055c0.057,0.435-0.142,0.865-0.51,1.103c-0.371,0.241-0.844,0.245-1.217,0.018     c-0.801-0.49-1.687-0.74-2.634-0.74c-3.856,0-8.374,4.152-10.07,9.253c-0.776,2.331-1.97,8.21,3.669,12.427     c2.456,1.836,4.97,3.022,7.352,3.474c-0.422-3.896,0.574-8.175,2.574-10.657c0.975-1.21,2.115-1.85,3.296-1.85     c0.818,0,2.045,0.321,3.243,1.856c2.163,2.77,2.654,5.897,1.347,8.576C255.556,447.021,252.69,448.721,249.258,448.933z      M277.258,439.515c-0.198,0-0.678,0.328-1.122,1.201c-0.987,1.946-1.152,5.24,0.558,8.326c1.883-2.231,2.433-5.003,1.539-7.936     C277.837,439.807,277.385,439.515,277.258,439.515z M252.251,436.238c-0.46,0-1,0.354-1.52,1.001     c-1.474,1.83-2.555,5.737-2.025,9.434c2.794-0.053,5.115-1.302,6.083-3.285c0.91-1.865,0.511-4.114-1.094-6.171     C253.346,436.771,252.813,436.238,252.251,436.238z M291.843,425.931c-4.624,1.045-7.86,5.289-7.791,6.996     c0.008,0.212,0.019,0.475,0.878,0.475c0.17,0,0.357-0.013,0.557-0.04C288.799,432.931,291.285,429.954,291.843,425.931z      M268.953,414.826c-2.602,3.642-3.099,7.762-1.021,9.536c1.563,1.333,3.078,0.849,3.758-1.054     C272.484,421.084,271.897,417.705,268.953,414.826z"/>
		</g>
	</g>
	<g>
		<g>
			<path style="fill:#FFFFFF;" d="M27.393,154.919c0,0-3.441-16.441,12.948-12.274c16.39,4.166,12.329,19.764,5.843,15.021     c-6.487-4.743,3.615-23.252,16.439-16.318c12.824,6.934,11.24,22.387,2.649,24.167s3.912-18.149,15.721-7.315     s-10.448,33.89-20.797,26.812s-3.664-20.268-0.743-12.758s-2.823,15.525-20.153,16.534s-11.463-26.214-4.828-18.92     c6.635,7.294-2.748,16.801-15.647,8.591S18.431,150.32,27.393,154.919z"/>
		</g>
		<g>
			<path style="fill:#241726;" d="M38.377,189.956c-6.846,0-9.612-4.208-10.713-7.212c-3.084-0.178-6.298-1.317-9.451-3.323     c-5.202-3.312-7.225-9.002-5.415-15.219c1.998-6.858,8.129-11.981,13.22-10.963c-0.197-2.387-0.116-6.488,2.204-9.343     c2.443-3.006,6.644-3.824,12.399-2.358c2.268,0.575,4.278,1.393,5.995,2.436c4.261-5.228,10.727-6.782,16.549-3.63     c5.543,2.995,9.15,7.972,9.838,13.481c3.073-0.12,6.061,1.059,8.76,3.535c3.863,3.541,4.769,8.632,2.553,14.328     c-3.272,8.411-12.437,15.788-19.613,15.79c0,0-0.001,0-0.002,0c-1.938,0-3.669-0.513-5.149-1.524     c-0.802-0.55-1.537-1.152-2.194-1.803c-3.772,3.318-9.955,5.309-17.991,5.777C39.029,189.948,38.699,189.956,38.377,189.956z      M30.086,182.653c1.192,2.674,3.779,5.273,9.149,4.997c9.272-0.542,14.123-3.009,16.636-5.228     c-2.816-3.893-2.848-8.4-1.599-11.108c0.715-1.551,1.823-2.443,3.038-2.443c0.936,0,2.254,0.515,3.208,2.969     c1.464,3.764,0.884,7.597-1.577,10.666c0.565,0.562,1.201,1.085,1.9,1.562c1.093,0.749,2.392,1.128,3.861,1.128     c0.001,0,0.001,0,0.001,0c6.235-0.002,14.57-6.833,17.488-14.335c1.309-3.367,2.031-8.15-1.969-11.821     c-2.234-2.05-4.678-3.035-7.102-2.935c-0.131,5.349-3.159,9.603-7.616,10.526c-2.436,0.508-4.056-0.497-4.208-2.425     c-0.246-3.167,3.824-8.62,9.451-10.045c-0.582-4.796-3.763-9.16-8.666-11.812c-4.832-2.612-10.01-1.357-13.594,2.944     c4.178,3.419,5.138,7.885,4.166,10.969c-1.027,3.258-4.276,4.422-7.143,2.322c-3.587-2.621-2.934-8.313-0.218-12.743     c-1.492-0.885-3.247-1.587-5.232-2.093c-4.786-1.217-8.22-0.689-10.067,1.587c-2.704,3.327-1.497,9.289-1.484,9.349     c0.09,0.43-0.075,0.876-0.425,1.141c-0.351,0.27-0.822,0.305-1.214,0.109c-0.717-0.37-1.484-0.555-2.283-0.555     c-3.773,0-8.079,4.243-9.598,9.458c-0.727,2.492-1.746,8.714,4.448,12.657c2.585,1.645,5.183,2.639,7.593,2.913     c-0.729-3.967,0.014-8.484,1.922-11.043c1.159-1.556,2.397-1.883,3.232-1.883c1.102,0,2.156,0.544,3.132,1.616     c2.402,2.643,3.112,5.884,1.898,8.665C36.064,180.404,33.405,182.196,30.086,182.653z M57.309,171.153     c-0.147,0-0.577,0.274-0.966,1.117c-0.784,1.7-1.031,5.179,1.109,8.427c1.712-2.365,2.05-5.17,0.939-8.028     C57.91,171.432,57.437,171.153,57.309,171.153z M32.186,169.765c-0.565,0-1.074,0.524-1.402,0.965     c-1.386,1.859-2.245,5.966-1.419,9.71c2.721-0.259,4.886-1.589,5.759-3.588c0.857-1.963,0.312-4.23-1.495-6.216     C33.268,170.237,32.725,169.765,32.186,169.765z M70.82,156.509c-4.493,1.377-7.384,5.777-7.248,7.519     c0.02,0.245,0.036,0.459,0.702,0.459c0.222,0,0.479-0.031,0.767-0.089C68.31,163.721,70.564,160.565,70.82,156.509z      M47.158,147.16c-2.32,3.827-2.506,7.972-0.301,9.585c1.598,1.168,3.041,0.671,3.62-1.168     C51.18,153.349,50.393,149.885,47.158,147.16z"/>
		</g>
	</g>
	<g>
		<g>
			<path style="fill:#241726;" d="M402.242,456.343c-0.818,0-3.308,0-7.752-19.568c-0.092-0.408,0.047-0.836,0.363-1.112     c8.422-7.335,20.839-18.373,26.695-24.038c-7.45,4.127-23.11,13.601-33.529,20.047c-0.271,0.169-0.598,0.218-0.906,0.129     c-1.897-0.526-11.431-3.33-12.834-6.746c-0.114-0.279-0.241-0.84,0.192-1.484c2.702-4.029,45.284-16.32,50.794-16.32     c0.405,0,0.71,0.051,0.962,0.16c0,0,0.001,0,0.002,0c0.071,0.033,0.138,0.071,0.199,0.114c0.007,0.004,0.012,0.009,0.019,0.013     c0.007,0.004,0.014,0.009,0.021,0.013c0.089,0.058,0.172,0.129,0.244,0.212c0.001,0.002,0.002,0.002,0.003,0.004     c0.555,0.644,0.759,1.357-1.921,7.618c-2.02,4.718-19.046,40.784-22.473,40.956C402.303,456.343,402.262,456.343,402.242,456.343     z M396.867,436.936c1.656,7.138,4.012,15.021,5.344,16.864c3.197-3.737,16.654-30.029,21.114-40.751     C419.552,416.818,411.975,423.769,396.867,436.936z M376.628,424.574c1.326,1.654,6.683,3.753,10.618,4.894     c7.817-4.834,22.478-13.815,31.329-18.727C405.665,413.816,379.98,421.754,376.628,424.574z"/>
		</g>
		<g>
			<path style="fill:#241726;" d="M390.761,449.664c-0.54,0-0.918-0.214-1.148-0.406c-1.48-1.232-2.574-10.501-3.232-18.061     c-0.055-0.626,0.41-1.181,1.037-1.235c0.616-0.04,1.181,0.41,1.236,1.039c0.583,6.697,1.612,14.468,2.352,16.298     c0.996-0.457,3.34-2.712,5.345-5.177c0.397-0.486,0.858-0.304,1.345,0.091c0.489,0.397,0.437,1.267,0.039,1.755     c-1.432,1.763-4.613,5.476-6.767,5.685C390.898,449.659,390.829,449.664,390.761,449.664z"/>
		</g>
	</g>
	<g>
		<g>
			<path style="fill:#9C5680;" d="M209.396,187.795c0,0,157.005-60.13,163.686-45.097c14.674,33.016,51.148,201.428,25.054,209.619     c-26.093,8.191-143.643,30.9-146.149,32.57c-9.884,6.59-148.281,46.413-148.281,46.413S49.618,224.488,54.896,212.014     S209.396,187.795,209.396,187.795z"/>
		</g>
		<g>
			<g>
				<path style="fill:#FFFFFF;" d="M216.912,220.365c0,0,55.159-71.352,146.869-55.789c0,0,39.891,169.11,31.015,172.708      c-8.876,3.598-149.194,27.207-149.194,27.207s-118.068,59.78-129.397,35.753S74.755,227.94,74.755,227.94      C150.346,193.479,216.912,220.365,216.912,220.365z"/>
			</g>
			<g>
				<path style="fill:#241726;" d="M129.807,407.079c-7.723,0-12.646-2.135-14.632-6.349      c-11.259-23.873-40.307-166.503-41.539-172.563c-0.105-0.521,0.163-1.045,0.645-1.266c25.71-11.721,53.126-17.664,81.486-17.664      c32.63,0,56.232,8.088,60.778,9.768c5.332-6.465,49.945-57.789,121.259-57.789c8.619,0,17.424,0.751,26.168,2.235      c0.452,0.078,0.815,0.417,0.92,0.862c0.099,0.423,10.078,42.783,18.842,85.037c17.921,86.385,13.578,88.146,11.491,88.992      c-8.815,3.57-141.453,25.93-149.262,27.245C240.85,368.169,163.217,407.079,129.807,407.079z M76.055,228.604      c2.531,12.385,30.497,148.491,41.183,171.154c1.577,3.343,5.806,5.039,12.568,5.039c33.281,0,114.465-40.909,115.281-41.324      c0.104-0.051,0.213-0.087,0.326-0.107c1.402-0.236,140.294-23.63,148.953-27.141c5.159-4.901-16.514-106.949-31.522-170.648      c-8.374-1.38-16.794-2.079-25.041-2.079c-74.576,0-119.543,56.989-119.989,57.564c-0.312,0.403-0.857,0.553-1.329,0.361      c-0.246-0.1-24.964-9.904-60.719-9.904C128.04,211.519,101.225,217.266,76.055,228.604z"/>
			</g>
		</g>
		<g>
			<path style="fill:#241726;" d="M249.483,354.293c-0.452,0-0.881-0.272-1.06-0.718c-3.33-8.324-29.821-111.823-30.946-116.224     c-0.156-0.611,0.212-1.232,0.822-1.388c0.611-0.154,1.234,0.214,1.388,0.822c0.275,1.076,27.58,107.755,30.855,115.944     c0.234,0.584-0.051,1.248-0.636,1.482C249.768,354.266,249.625,354.293,249.483,354.293z"/>
		</g>
		<g>
			<g>
				<path style="fill:#FFFFFF;" d="M94.394,253.137c0,0,30.069-11.763,52.618-12.599c22.549-0.835,42.612,2.088,52.634,2.088"/>
			</g>
			<g>
				<path style="fill:#241726;" d="M94.393,254.278c-0.456,0-0.887-0.274-1.063-0.724c-0.23-0.588,0.06-1.25,0.647-1.48      c0.302-0.118,30.509-11.843,52.992-12.677c14.641-0.537,27.984,0.472,38.704,1.29c5.62,0.428,10.474,0.798,13.973,0.798      c0.631,0,1.141,0.51,1.141,1.141s-0.51,1.141-1.141,1.141c-3.586,0-8.48-0.372-14.145-0.805      c-10.665-0.811-23.936-1.825-38.447-1.284c-22.093,0.818-51.947,12.402-52.245,12.521      C94.673,254.253,94.531,254.278,94.393,254.278z"/>
			</g>
		</g>
		<g>
			<g>
				<path style="fill:#FFFFFF;" d="M100.541,274.356c0,0,50.943-20.043,110.238-12.527"/>
			</g>
			<g>
				<path style="fill:#241726;" d="M100.541,275.497c-0.455,0-0.885-0.274-1.062-0.724c-0.231-0.586,0.058-1.248,0.644-1.478      c0.511-0.205,51.896-20.058,110.8-12.599c0.625,0.08,1.068,0.651,0.988,1.275c-0.079,0.626-0.645,1.088-1.276,0.99      c-58.325-7.397-109.168,12.258-109.677,12.456C100.822,275.472,100.68,275.497,100.541,275.497z"/>
			</g>
		</g>
		<g>
			<g>
				<path style="fill:#FFFFFF;" d="M127.743,350.591c0,0,47.43-22.974,94.86-19.814"/>
			</g>
			<g>
				<path style="fill:#241726;" d="M127.744,351.732c-0.423,0-0.831-0.236-1.029-0.644c-0.274-0.566-0.037-1.25,0.53-1.524      c0.476-0.232,48.241-23.087,95.433-19.926c0.628,0.042,1.104,0.586,1.063,1.215c-0.041,0.631-0.575,1.134-1.215,1.063      c-46.588-3.127-93.816,19.474-94.288,19.704C128.08,351.697,127.91,351.732,127.744,351.732z"/>
			</g>
		</g>
		<g>
			<g>
				<path style="fill:#FFFFFF;" d="M135.39,372.153c0,0,44.971-19.339,95.179-24.314"/>
			</g>
			<g>
				<path style="fill:#241726;" d="M135.389,373.295c-0.441,0-0.863-0.259-1.049-0.691c-0.249-0.577,0.019-1.25,0.597-1.498      c0.451-0.194,45.71-19.467,95.518-24.404c0.632-0.029,1.187,0.397,1.248,1.025c0.062,0.626-0.396,1.186-1.023,1.248      c-49.461,4.899-94.392,24.034-94.84,24.225C135.694,373.266,135.54,373.295,135.389,373.295z"/>
			</g>
		</g>
		<g>
			<g>
				<path style="fill:#FFFFFF;" d="M111.216,299.557c0,0,48.782-19.944,95.919-13.806"/>
			</g>
			<g>
				<path style="fill:#241726;" d="M111.216,300.698c-0.449,0-0.876-0.267-1.056-0.709c-0.238-0.584,0.041-1.25,0.624-1.489      c0.491-0.201,49.607-19.989,96.497-13.882c0.625,0.082,1.065,0.655,0.984,1.279s-0.655,1.061-1.278,0.985      c-46.299-6.022-94.853,13.535-95.339,13.731C111.507,300.672,111.36,300.698,111.216,300.698z"/>
			</g>
		</g>
		<g>
			<g>
				<path style="fill:#FFFFFF;" d="M117.491,321.557c0,0,46.099-16.471,96.52-18.278"/>
			</g>
			<g>
				<path style="fill:#241726;" d="M117.491,322.697c-0.469,0-0.908-0.29-1.074-0.758c-0.213-0.593,0.097-1.246,0.69-1.458      c0.464-0.165,46.844-16.55,96.863-18.344c0.625,0.013,1.159,0.468,1.181,1.101c0.023,0.629-0.469,1.159-1.099,1.181      c-49.656,1.778-95.717,18.048-96.178,18.21C117.748,322.675,117.618,322.697,117.491,322.697z"/>
			</g>
		</g>
		<g>
			<g>
				<path style="fill:#FFFFFF;" d="M343.867,199.384c0,0-32.285-0.479-53.696,6.642c-21.411,7.121-39.178,16.89-48.564,20.403"/>
			</g>
			<g>
				<path style="fill:#241726;" d="M241.608,227.57c-0.462,0-0.897-0.283-1.069-0.742c-0.221-0.588,0.078-1.246,0.669-1.469      c3.277-1.226,7.694-3.272,12.808-5.643c9.754-4.522,21.892-10.149,35.796-14.774c21.347-7.098,53.754-6.69,54.073-6.699      c0.631,0.009,1.133,0.528,1.124,1.159c-0.01,0.628-0.599,1.056-1.158,1.123c-0.323,0.004-32.342-0.392-53.319,6.583      c-13.78,4.582-25.855,10.18-35.556,14.678c-5.156,2.389-9.609,4.455-12.967,5.712      C241.877,227.547,241.741,227.57,241.608,227.57z"/>
			</g>
		</g>
		<g>
			<g>
				<path style="fill:#FFFFFF;" d="M350.977,222.345c0,0-54.737-0.917-107.636,26.904"/>
			</g>
			<g>
				<path style="fill:#241726;" d="M243.343,250.389c-0.41,0-0.807-0.221-1.011-0.611c-0.294-0.557-0.079-1.248,0.478-1.54      c52.547-27.638,107.636-27.054,108.186-27.034c0.631,0.011,1.132,0.53,1.122,1.161c-0.011,0.631-0.495,1.168-1.16,1.121      c-0.553,0.013-55.072-0.582-107.085,26.771C243.704,250.346,243.523,250.389,243.343,250.389z"/>
			</g>
		</g>
		<g>
			<g>
				<path style="fill:#FFFFFF;" d="M360.001,298.831c0,0-52.473-4.893-95.787,14.69"/>
			</g>
			<g>
				<path style="fill:#241726;" d="M264.214,314.661c-0.435,0-0.85-0.25-1.041-0.671c-0.26-0.575-0.004-1.25,0.569-1.511      c43.09-19.478,95.837-14.834,96.364-14.785c0.627,0.058,1.089,0.615,1.031,1.241c-0.06,0.628-0.63,1.076-1.242,1.032      c-0.519-0.049-52.685-4.638-95.211,14.593C264.531,314.627,264.372,314.661,264.214,314.661z"/>
			</g>
		</g>
		<g>
			<g>
				<path style="fill:#FFFFFF;" d="M362.62,325.041c0,0-48.896-2.351-97.664,10.586"/>
			</g>
			<g>
				<path style="fill:#241726;" d="M264.956,336.767c-0.505,0-0.966-0.337-1.102-0.849c-0.162-0.608,0.202-1.232,0.81-1.395      c48.38-12.83,97.519-10.648,98.011-10.622c0.63,0.029,1.115,0.564,1.085,1.195s-0.557,1.161-1.195,1.083      c-0.485-0.016-49.293-2.189-97.315,10.55C265.152,336.756,265.052,336.767,264.956,336.767z"/>
			</g>
		</g>
		<g>
			<g>
				<path style="fill:#FFFFFF;" d="M349.812,249.688c0,0-52.677-1.582-94.673,20.687"/>
			</g>
			<g>
				<path style="fill:#241726;" d="M255.139,271.516c-0.409,0-0.805-0.221-1.01-0.606c-0.295-0.557-0.082-1.248,0.474-1.542      c41.785-22.155,94.709-20.842,95.243-20.82c0.63,0.02,1.124,0.546,1.105,1.174c-0.018,0.631-0.497,1.092-1.174,1.108      c-0.53-0.02-52.868-1.313-94.104,20.553C255.503,271.474,255.32,271.516,255.139,271.516z"/>
			</g>
		</g>
		<g>
			<g>
				<path style="fill:#FFFFFF;" d="M351.646,272.493c0,0-48.947,0.73-96.804,16.71"/>
			</g>
			<g>
				<path style="fill:#241726;" d="M254.842,290.344c-0.478,0-0.923-0.301-1.082-0.78c-0.199-0.597,0.123-1.244,0.721-1.444      c47.475-15.85,96.657-16.762,97.148-16.768c0.585,0.011,1.147,0.495,1.158,1.123c0.009,0.631-0.494,1.15-1.124,1.159      c-0.487,0.007-49.329,0.916-96.46,16.652C255.084,290.326,254.961,290.344,254.842,290.344z"/>
			</g>
		</g>
	</g>
	<g>
		<g>
			<path style="fill:#241726;" d="M83.922,109.103c-0.135,0-0.446-0.056-0.573-0.103c-3.272-1.208-8.644-40.455-9.182-45.765     c-0.69-6.811-0.281-7.433,0.443-7.883c0.04-0.025,0.081-0.047,0.124-0.067c0.234-0.12,0.524-0.156,0.773-0.116     c0.136,0.025,0.263,0.074,0.376,0.14c6.307,2.077,41.24,25.133,43.713,30.406c0.437,0.929,0.109,1.542-0.126,1.823     c-1.444,1.738-5.745,2.619-12.784,2.619c-0.91,0-1.48-0.018-1.48-0.018c-0.319-0.011-0.618-0.154-0.827-0.394     c-7.936-9.18-19.889-22.732-25.909-29.01C82.4,67.94,90.865,82.056,96.664,91.506c0.22,0.359,0.225,0.809,0.013,1.172     C92.315,100.171,86.561,109.101,83.922,109.103z M76.263,61.408c1.049,11.567,6.02,40.677,7.953,45.202     c1.822-1.359,6.43-8.175,10.145-14.493C83.886,75.034,78.737,66.132,76.263,61.408z M105.775,87.868     c0.234,0.004,0.544,0.007,0.912,0.007c6.177,0,9.475-0.744,10.656-1.487c-2.44-3.127-25.056-19.672-36.345-26.265     C87.089,66.453,97.055,77.788,105.775,87.868z"/>
		</g>
		<g>
			<path style="fill:#241726;" d="M96.937,106.177c-0.224,0-0.478-0.042-0.754-0.16c-1.994-0.845-3.93-5.268-4.769-7.378     c-0.234-0.584-0.162-1.589,0.423-1.823c0.587-0.227,1.233-0.179,1.464,0.407c1.19,2.984,2.774,5.868,3.577,6.561     c1.119-1.315,4.493-8.554,7.095-14.872c0.241-0.582,0.908-0.865,1.49-0.62c0.583,0.238,0.86,0.905,0.621,1.489     c-2.889,7.016-6.707,15.534-8.488,16.267C97.428,106.117,97.204,106.177,96.937,106.177z"/>
		</g>
	</g>
	<g>
		<path style="fill:#FFCE59;" d="M30.591,360.743c0,0,45.685-41.199,96.835-11.78c55.293,31.802,26.773,85.265,32.444,92.785    c5.671,7.52,23.974-5.939,24.816-1.306c2.612,14.367-41.52,55.564-106.069,51.96C8.039,488.462-30.861,409.813,30.591,360.743z"/>
	</g>
	<g>
		<path style="fill:#241726;" d="M248.697,509.258c-0.656,0-1.323-0.009-1.999-0.027c-0.631-0.018-1.128-0.542-1.111-1.172    c0.017-0.628,0.549-1.148,1.171-1.11c1.547,0.04,3.042,0.033,4.486-0.022c0.576-0.025,1.159,0.466,1.185,1.096    c0.026,0.628-0.466,1.159-1.095,1.186C250.473,509.243,249.595,509.258,248.697,509.258z M242.173,508.975    c-0.032,0-0.065-0.002-0.098-0.004c-1.488-0.127-3.019-0.292-4.593-0.506c-0.624-0.082-1.062-0.657-0.978-1.281    s0.643-1.09,1.284-0.978c1.537,0.205,3.03,0.37,4.482,0.493c0.627,0.053,1.093,0.606,1.04,1.232    C243.258,508.525,242.759,508.975,242.173,508.975z M255.836,508.87c-0.573,0-1.066-0.43-1.132-1.012    c-0.071-0.626,0.379-1.192,1.004-1.264c1.494-0.169,2.98-0.399,4.413-0.684c0.623-0.134,1.218,0.279,1.342,0.896    c0.124,0.62-0.279,1.219-0.896,1.342c-1.497,0.299-3.043,0.537-4.6,0.715C255.922,508.868,255.878,508.87,255.836,508.87z     M233.129,507.758c-0.069,0-0.139-0.007-0.209-0.02c-1.571-0.292-3.079-0.62-4.524-0.978c-0.612-0.152-0.984-0.771-0.832-1.384    s0.772-0.981,1.383-0.831c1.403,0.35,2.866,0.669,4.39,0.952c0.62,0.114,1.029,0.709,0.914,1.328    C234.148,507.375,233.669,507.758,233.129,507.758z M264.764,507.061c-0.489,0-0.942-0.316-1.092-0.809    c-0.183-0.602,0.157-1.239,0.76-1.424c1.445-0.439,2.846-0.952,4.162-1.52c0.574-0.254,1.25,0.018,1.5,0.595    c0.25,0.579-0.017,1.25-0.595,1.5c-1.394,0.602-2.876,1.143-4.403,1.609C264.986,507.045,264.873,507.061,264.764,507.061z     M224.287,505.539c-0.118,0-0.237-0.018-0.355-0.058c-1.519-0.497-2.985-1.043-4.36-1.622c-0.581-0.245-0.852-0.914-0.608-1.495    c0.245-0.579,0.915-0.849,1.495-0.608c1.317,0.555,2.725,1.081,4.184,1.56c0.6,0.196,0.925,0.84,0.729,1.44    C225.213,505.233,224.767,505.539,224.287,505.539z M273.117,503.444c-0.391,0-0.772-0.201-0.985-0.564    c-0.319-0.542-0.137-1.241,0.406-1.56c1.279-0.753,2.503-1.589,3.635-2.485c0.498-0.39,1.214-0.303,1.602,0.187    c0.391,0.495,0.308,1.212-0.187,1.605c-1.214,0.961-2.524,1.854-3.893,2.659C273.512,503.392,273.313,503.444,273.117,503.444z     M317.577,502.122c-0.63,0-1.14-0.51-1.141-1.139c-0.001-0.631,0.509-1.143,1.14-1.143c1.464-0.002,2.945-0.096,4.402-0.276    c0.635-0.089,1.196,0.368,1.274,0.992s-0.366,1.195-0.991,1.273c-1.549,0.194-3.125,0.292-4.682,0.294H317.577z M215.903,501.977    c-0.184,0-0.37-0.045-0.544-0.138c-1.402-0.762-2.743-1.591-3.988-2.465c-0.515-0.363-0.64-1.074-0.277-1.589    c0.362-0.515,1.074-0.642,1.59-0.279c1.173,0.825,2.439,1.607,3.765,2.327c0.554,0.301,0.759,0.994,0.458,1.547    C216.7,501.761,216.307,501.977,215.903,501.977z M313.025,501.857c-0.045,0-0.089-0.002-0.135-0.009    c-1.523-0.178-3.078-0.452-4.62-0.816c-0.613-0.143-0.994-0.758-0.85-1.371c0.145-0.613,0.758-1.003,1.372-0.849    c1.459,0.341,2.927,0.599,4.366,0.771c0.625,0.074,1.073,0.64,1,1.266C314.09,501.429,313.596,501.857,313.025,501.857z     M326.596,501.01c-0.513,0-0.978-0.348-1.107-0.867c-0.152-0.613,0.223-1.23,0.835-1.382c1.406-0.348,2.83-0.784,4.233-1.302    c0.583-0.221,1.246,0.085,1.465,0.675c0.217,0.591-0.085,1.246-0.676,1.464c-1.482,0.548-2.988,1.012-4.476,1.377    C326.778,500.999,326.686,501.01,326.596,501.01z M304.112,499.931c-0.098,0-0.197-0.013-0.296-0.038    c-1.539-0.412-3.011-0.822-4.419-1.232c-0.605-0.176-0.953-0.811-0.777-1.415c0.175-0.606,0.805-0.954,1.414-0.778    c1.393,0.406,2.849,0.811,4.373,1.219c0.608,0.165,0.969,0.789,0.807,1.397C305.077,499.595,304.616,499.931,304.112,499.931z     M335.145,497.874c-0.422,0-0.828-0.234-1.026-0.64c-0.276-0.566-0.042-1.25,0.524-1.527c1.304-0.637,2.618-1.359,3.905-2.146    c0.538-0.328,1.241-0.158,1.569,0.379c0.329,0.537,0.158,1.241-0.379,1.569c-1.348,0.822-2.725,1.58-4.092,2.249    C335.484,497.836,335.313,497.874,335.145,497.874z M280.234,497.787c-0.28,0-0.559-0.103-0.78-0.308    c-0.46-0.43-0.484-1.152-0.053-1.614c1.006-1.074,1.923-2.226,2.727-3.423c0.035-0.049,0.072-0.098,0.113-0.14    c-0.042-0.022-0.084-0.042-0.126-0.065c-0.563-0.283-0.79-0.967-0.507-1.531c0.282-0.564,0.966-0.796,1.532-0.506    c1.238,0.622,2.61,1.246,4.076,1.854c0.582,0.243,0.858,0.909,0.616,1.491c-0.243,0.582-0.908,0.86-1.492,0.617    c-0.735-0.305-1.449-0.615-2.134-0.927c-0.023,0.167-0.084,0.332-0.184,0.481c-0.871,1.297-1.865,2.545-2.954,3.708    C280.842,497.667,280.538,497.787,280.234,497.787z M295.351,497.37c-0.116,0-0.234-0.018-0.35-0.056    c-1.542-0.497-2.993-0.99-4.358-1.482c-0.592-0.214-0.899-0.869-0.685-1.462c0.213-0.591,0.868-0.894,1.461-0.686    c1.341,0.484,2.767,0.972,4.282,1.46c0.6,0.192,0.929,0.836,0.737,1.435C296.281,497.063,295.834,497.37,295.351,497.37z     M208.472,496.729c-0.276,0-0.553-0.1-0.772-0.301c-1.167-1.072-2.258-2.224-3.242-3.428c-0.4-0.486-0.328-1.206,0.159-1.605    c0.486-0.403,1.206-0.328,1.606,0.16c0.916,1.119,1.932,2.191,3.021,3.191c0.464,0.426,0.495,1.148,0.068,1.611    C209.088,496.604,208.78,496.729,208.472,496.729z M342.941,493.143c-0.353,0-0.701-0.163-0.925-0.47    c-0.37-0.51-0.256-1.224,0.253-1.594c1.186-0.862,2.374-1.794,3.53-2.768c0.484-0.408,1.201-0.345,1.608,0.136    c0.406,0.481,0.345,1.201-0.137,1.607c-1.198,1.012-2.429,1.977-3.659,2.871C343.408,493.071,343.172,493.143,342.941,493.143z     M285.285,490.237c-0.155,0-0.312-0.031-0.464-0.098c-0.575-0.256-0.835-0.932-0.577-1.507c0.603-1.357,1.069-2.739,1.384-4.112    c0.142-0.617,0.756-1.005,1.367-0.858c0.614,0.14,0.997,0.753,0.857,1.366c-0.348,1.518-0.86,3.042-1.524,4.531    C286.14,489.985,285.722,490.237,285.285,490.237z M278.664,490.101c-0.216,0-0.433-0.06-0.627-0.189    c-1.528-1.007-2.781-2.037-3.726-3.062c-0.428-0.464-0.399-1.183,0.064-1.611c0.462-0.428,1.187-0.403,1.612,0.065    c0.821,0.889,1.933,1.799,3.307,2.706c0.526,0.345,0.671,1.054,0.324,1.58C279.398,489.92,279.035,490.101,278.664,490.101z     M202.721,489.691c-0.388,0-0.767-0.198-0.981-0.555c-0.8-1.339-1.515-2.757-2.125-4.214c-0.243-0.582,0.031-1.25,0.613-1.493    c0.579-0.241,1.251,0.029,1.493,0.611c0.567,1.359,1.234,2.679,1.978,3.925c0.323,0.542,0.147,1.241-0.394,1.565    C203.123,489.639,202.921,489.691,202.721,489.691z M349.933,487.268c-0.3,0-0.6-0.118-0.825-0.352    c-0.436-0.455-0.42-1.177,0.036-1.614c1.092-1.045,2.148-2.117,3.165-3.207c0.429-0.457,1.154-0.481,1.612-0.053    c0.46,0.43,0.485,1.152,0.055,1.614c-1.045,1.117-2.131,2.22-3.254,3.296C350.501,487.163,350.217,487.268,349.933,487.268z     M273.128,483.232c-0.589,0-1.089-0.455-1.137-1.052c-0.012-0.156-0.019-0.312-0.019-0.466c0.001-1.578,0.652-3.096,1.933-4.511    c0.423-0.468,1.143-0.504,1.611-0.082c0.467,0.423,0.504,1.146,0.08,1.611c-0.89,0.985-1.342,1.988-1.343,2.982l0.012,0.288    c0.049,0.628-0.42,1.177-1.047,1.226C273.188,483.23,273.158,483.232,273.128,483.232z M287.224,481.389    c-0.616,0-1.124-0.49-1.141-1.11c-0.041-1.556-0.344-2.906-0.876-3.905c-0.296-0.557-0.085-1.248,0.471-1.544    c0.554-0.299,1.247-0.085,1.543,0.47c0.696,1.31,1.092,3.011,1.143,4.916c0.017,0.631-0.48,1.154-1.111,1.172    C287.244,481.389,287.234,481.389,287.224,481.389z M199.198,481.309c-0.503,0-0.963-0.334-1.1-0.842    c-0.399-1.475-0.72-3.022-0.952-4.598c-0.092-0.624,0.339-1.203,0.963-1.297c0.626-0.076,1.203,0.341,1.295,0.963    c0.22,1.489,0.521,2.946,0.896,4.335c0.165,0.608-0.195,1.235-0.803,1.4C199.397,481.295,199.297,481.309,199.198,481.309z     M356.175,480.602c-0.26,0-0.52-0.089-0.735-0.27c-0.481-0.406-0.542-1.125-0.135-1.607c0.988-1.17,1.933-2.347,2.836-3.519    c0.383-0.499,1.099-0.591,1.6-0.21c0.499,0.386,0.592,1.101,0.207,1.6c-0.923,1.199-1.89,2.402-2.901,3.599    C356.823,480.464,356.501,480.602,356.175,480.602z M278.365,476.352c-0.398,0-0.784-0.207-0.994-0.579    c-0.311-0.548-0.117-1.246,0.431-1.556c0.763-0.43,1.594-0.847,2.483-1.241c0.759-0.337,1.508-0.526,2.228-0.566    c0.613-0.067,1.167,0.446,1.201,1.076c0.036,0.628-0.447,1.168-1.076,1.201c-0.442,0.025-0.923,0.152-1.427,0.374    c-0.818,0.363-1.581,0.744-2.284,1.143C278.749,476.305,278.556,476.352,278.365,476.352z M361.757,473.361    c-0.227,0-0.457-0.067-0.656-0.209c-0.515-0.363-0.638-1.074-0.275-1.589c0.901-1.279,1.748-2.534,2.538-3.753    c0.342-0.528,1.052-0.675,1.578-0.337c0.529,0.343,0.68,1.05,0.337,1.58c-0.806,1.241-1.668,2.523-2.587,3.824    C362.468,473.194,362.116,473.361,361.757,473.361z M197.844,472.3c-0.606,0-1.111-0.477-1.139-1.09    c-0.035-0.764-0.05-1.527-0.05-2.291c-0.001-0.791,0.017-1.585,0.051-2.374c0.028-0.631,0.561-1.07,1.189-1.092    c0.63,0.029,1.118,0.562,1.091,1.19c-0.032,0.758-0.05,1.516-0.049,2.273c0,0.731,0.016,1.462,0.048,2.191    c0.028,0.631-0.459,1.163-1.089,1.19C197.879,472.3,197.862,472.3,197.844,472.3z M366.737,465.692    c-0.199,0-0.401-0.051-0.584-0.163c-0.542-0.323-0.718-1.023-0.394-1.565c0.845-1.413,1.597-2.735,2.253-3.934    c0.302-0.553,0.996-0.758,1.549-0.452c0.553,0.303,0.755,0.996,0.452,1.549c-0.67,1.221-1.435,2.57-2.296,4.009    C367.504,465.494,367.125,465.692,366.737,465.692z M198.218,463.187c-0.045,0-0.09-0.002-0.136-0.009    c-0.626-0.074-1.073-0.642-0.998-1.268c0.185-1.549,0.422-3.082,0.701-4.584c0.114-0.622,0.701-1.036,1.331-0.914    c0.62,0.114,1.029,0.709,0.914,1.328c-0.27,1.458-0.5,2.942-0.679,4.442C199.282,462.762,198.789,463.187,198.218,463.187z     M371.134,457.665c-0.171,0-0.343-0.038-0.506-0.118c-0.565-0.281-0.796-0.965-0.515-1.529c0.705-1.426,1.1-2.309,1.167-2.46    c0.168-0.419,0.579-0.715,1.059-0.715c0.631,0,1.141,0.51,1.141,1.141c0,0.245,0,0.381-1.323,3.047    C371.959,457.433,371.554,457.665,371.134,457.665z M199.871,454.208c-0.09,0-0.182-0.011-0.273-0.033    c-0.612-0.149-0.986-0.767-0.836-1.38c0.377-1.536,0.788-3.027,1.218-4.46c0.182-0.604,0.815-0.952,1.422-0.764    c0.604,0.181,0.946,0.818,0.764,1.42c-0.421,1.397-0.821,2.853-1.189,4.348C200.85,453.86,200.384,454.208,199.871,454.208z     M202.49,445.463c-0.126,0-0.254-0.02-0.38-0.065c-0.594-0.21-0.906-0.862-0.696-1.458c0.548-1.549,1.1-2.998,1.632-4.319    c0.236-0.586,0.9-0.865,1.485-0.633c0.584,0.236,0.867,0.9,0.632,1.484c-0.521,1.295-1.062,2.712-1.597,4.23    C203.4,445.171,202.96,445.463,202.49,445.463z M205.905,436.987c-0.158,0-0.32-0.033-0.474-0.103    c-0.573-0.263-0.825-0.94-0.563-1.513c1.19-2.605,2.021-4.119,2.056-4.183c0.303-0.55,1.001-0.753,1.549-0.45    c0.553,0.305,0.754,0.998,0.45,1.551c-0.008,0.013-0.828,1.511-1.98,4.032C206.752,436.74,206.339,436.987,205.905,436.987z"/>
	</g>
	<g>
		<path style="fill:#241726;" d="M191.053,176.199l-0.975-0.004c-0.631-0.004-1.141-0.519-1.137-1.148    c0.004-0.628,0.511-1.134,1.138-1.134c0.002,0,0.006,0,0.008,0l0.966,0.004c1.205,0,2.387-0.022,3.547-0.065    c0.615,0.002,1.158,0.468,1.181,1.101c0.023,0.628-0.469,1.157-1.099,1.181C193.496,176.177,192.287,176.199,191.053,176.199z     M185.518,176.056c-0.02,0-0.039,0-0.059-0.002c-1.562-0.078-3.094-0.187-4.597-0.323c-0.627-0.058-1.09-0.613-1.033-1.241    c0.058-0.626,0.594-1.061,1.24-1.032c1.473,0.136,2.974,0.241,4.505,0.319c0.628,0.031,1.113,0.566,1.082,1.197    C186.626,175.582,186.122,176.056,185.518,176.056z M199.192,175.856c-0.585,0-1.083-0.448-1.135-1.041    c-0.055-0.628,0.409-1.181,1.037-1.237c1.533-0.134,3.022-0.305,4.468-0.513c0.621-0.08,1.202,0.343,1.292,0.969    c0.089,0.624-0.344,1.201-0.968,1.29c-1.487,0.212-3.018,0.388-4.593,0.526C199.259,175.854,199.226,175.856,199.192,175.856z     M176.436,175.227c-0.05,0-0.101-0.002-0.153-0.011c-1.551-0.207-3.069-0.444-4.553-0.709c-0.621-0.111-1.034-0.704-0.923-1.324    c0.111-0.622,0.699-1.032,1.324-0.923c1.453,0.261,2.937,0.493,4.455,0.695c0.624,0.082,1.063,0.657,0.979,1.281    C177.489,174.811,176.999,175.227,176.436,175.227z M208.216,174.55c-0.53,0-1.005-0.37-1.117-0.909    c-0.127-0.617,0.27-1.221,0.887-1.348c1.493-0.31,2.959-0.666,4.354-1.059c0.602-0.163,1.238,0.183,1.407,0.789    c0.17,0.606-0.183,1.237-0.79,1.409c-1.445,0.408-2.963,0.776-4.51,1.094C208.37,174.543,208.293,174.55,208.216,174.55z     M167.464,173.618c-0.085,0-0.169-0.009-0.255-0.029c-1.529-0.35-3.019-0.729-4.473-1.137c-0.606-0.172-0.961-0.8-0.79-1.406    c0.171-0.606,0.806-0.956,1.407-0.791c1.419,0.399,2.873,0.769,4.364,1.11c0.615,0.14,0.998,0.753,0.858,1.366    C168.455,173.259,167.984,173.618,167.464,173.618z M216.992,172.083c-0.467,0-0.905-0.287-1.073-0.753    c-0.214-0.591,0.091-1.246,0.684-1.46c1.403-0.508,2.792-1.079,4.131-1.694c0.575-0.265,1.25-0.013,1.513,0.559    c0.264,0.573,0.013,1.25-0.559,1.513c-1.396,0.642-2.845,1.237-4.307,1.765C217.252,172.06,217.121,172.083,216.992,172.083z     M158.69,171.151c-0.121,0-0.245-0.02-0.367-0.06c-1.485-0.504-2.93-1.036-4.334-1.596c-0.586-0.234-0.871-0.898-0.637-1.484    s0.901-0.865,1.482-0.637c1.368,0.546,2.775,1.065,4.222,1.556c0.596,0.203,0.916,0.851,0.714,1.446    C159.609,170.852,159.166,171.151,158.69,171.151z M225.262,168.261c-0.394,0-0.778-0.205-0.99-0.571    c-0.315-0.546-0.128-1.244,0.418-1.558c1.288-0.744,2.545-1.556,3.736-2.411c0.51-0.37,1.224-0.252,1.592,0.261    c0.368,0.513,0.251,1.226-0.262,1.593c-1.251,0.898-2.572,1.749-3.926,2.532C225.652,168.212,225.456,168.261,225.262,168.261z     M150.225,167.77c-0.162,0-0.325-0.033-0.481-0.107c-1.423-0.664-2.8-1.357-4.134-2.073c-0.555-0.299-0.763-0.99-0.465-1.544    c0.299-0.555,0.985-0.762,1.546-0.466c1.296,0.698,2.635,1.368,4.018,2.015c0.572,0.267,0.818,0.945,0.552,1.518    C151.067,167.527,150.656,167.77,150.225,167.77z M142.2,163.451c-0.204,0-0.411-0.053-0.597-0.169    c-1.337-0.825-2.625-1.674-3.866-2.545c-0.516-0.361-0.641-1.074-0.279-1.589c0.361-0.515,1.074-0.642,1.589-0.279    c1.205,0.845,2.455,1.671,3.752,2.469c0.537,0.33,0.703,1.034,0.373,1.571C142.957,163.259,142.583,163.451,142.2,163.451z     M232.643,162.925c-0.312,0-0.622-0.127-0.847-0.377c-0.422-0.468-0.386-1.19,0.082-1.611c1.11-1.001,2.156-2.059,3.11-3.149    c0.417-0.472,1.139-0.519,1.61-0.105c0.474,0.417,0.522,1.137,0.106,1.611c-1.013,1.154-2.122,2.278-3.297,3.336    C233.189,162.827,232.916,162.925,232.643,162.925z M134.737,158.212c-0.249,0-0.5-0.08-0.71-0.25    c-1.229-0.978-2.407-1.977-3.534-2.989c-0.469-0.421-0.508-1.143-0.087-1.611c0.423-0.47,1.147-0.506,1.611-0.087    c1.095,0.985,2.238,1.952,3.431,2.904c0.493,0.392,0.574,1.11,0.182,1.602C135.406,158.064,135.073,158.212,134.737,158.212z     M238.635,156.074c-0.22,0-0.442-0.062-0.639-0.196c-0.521-0.352-0.659-1.063-0.305-1.585c0.83-1.228,1.58-2.507,2.225-3.804    c0.283-0.564,0.967-0.796,1.531-0.513c0.564,0.281,0.793,0.965,0.511,1.529c-0.691,1.388-1.491,2.755-2.378,4.067    C239.361,155.898,239.002,156.074,238.635,156.074z M127.956,152.114c-0.294,0-0.588-0.114-0.811-0.339    c-1.108-1.119-2.158-2.253-3.156-3.39c-0.416-0.475-0.368-1.197,0.106-1.611c0.474-0.415,1.196-0.368,1.61,0.105    c0.968,1.105,1.988,2.204,3.062,3.292c0.443,0.448,0.439,1.17-0.009,1.614C128.535,152.005,128.245,152.114,127.956,152.114z     M242.687,147.929c-0.12,0-0.242-0.018-0.362-0.06c-0.598-0.198-0.92-0.847-0.72-1.444c0.469-1.4,0.836-2.833,1.089-4.257    c0.11-0.62,0.688-1.032,1.323-0.923c0.621,0.109,1.034,0.702,0.924,1.324c-0.272,1.533-0.666,3.073-1.171,4.582    C243.608,147.628,243.164,147.929,242.687,147.929z M121.937,145.254c-0.34,0-0.675-0.152-0.9-0.439    c-0.974-1.248-1.888-2.496-2.743-3.729c-0.359-0.519-0.23-1.23,0.289-1.589c0.516-0.357,1.229-0.23,1.588,0.287    c0.831,1.201,1.718,2.414,2.665,3.626c0.388,0.497,0.3,1.215-0.197,1.602C122.43,145.176,122.182,145.254,121.937,145.254z     M244.265,138.976c-0.007,0-0.013,0-0.021,0c-0.63-0.011-1.131-0.533-1.12-1.161l0.006-0.524c0-1.297-0.096-2.587-0.284-3.833    c-0.095-0.624,0.333-1.206,0.957-1.299c0.627-0.091,1.205,0.334,1.298,0.956c0.206,1.359,0.311,2.766,0.311,4.176l-0.006,0.564    C245.393,138.479,244.885,138.976,244.265,138.976z M116.739,137.75c-0.383,0-0.759-0.194-0.974-0.544    c-0.839-1.371-1.608-2.712-2.31-4.016c-0.3-0.555-0.092-1.248,0.462-1.547c0.556-0.296,1.246-0.091,1.546,0.464    c0.684,1.268,1.431,2.574,2.248,3.905c0.33,0.537,0.16,1.241-0.377,1.571C117.148,137.697,116.942,137.75,116.739,137.75z     M242.878,130.003c-0.47,0-0.912-0.294-1.076-0.762c-0.487-1.384-1.108-2.699-1.843-3.909c-0.329-0.537-0.158-1.239,0.38-1.567    c0.54-0.328,1.24-0.16,1.568,0.381c0.819,1.344,1.509,2.804,2.048,4.337c0.209,0.595-0.104,1.246-0.698,1.455    C243.131,129.983,243.004,130.003,242.878,130.003z M112.403,129.709c-0.429,0-0.839-0.243-1.034-0.655    c-0.71-1.511-1.324-2.937-1.853-4.252c-0.235-0.584,0.048-1.25,0.633-1.484c0.581-0.234,1.248,0.047,1.484,0.633    c0.514,1.279,1.112,2.665,1.802,4.132c0.267,0.571,0.022,1.25-0.547,1.518C112.731,129.674,112.566,129.709,112.403,129.709z     M238.133,122.292c-0.294,0-0.587-0.114-0.81-0.339c-1.006-1.014-2.135-1.903-3.355-2.641c-0.54-0.325-0.713-1.027-0.387-1.567    c0.324-0.537,1.024-0.713,1.566-0.386c1.382,0.834,2.659,1.839,3.797,2.989c0.443,0.448,0.44,1.17-0.007,1.614    C238.713,122.183,238.422,122.292,238.133,122.292z M108.996,121.223c-0.479,0-0.925-0.303-1.083-0.782    c-0.925-2.79-1.283-4.471-1.297-4.54c-0.13-0.617,0.264-1.221,0.88-1.353c0.623-0.125,1.222,0.263,1.353,0.88    c0.003,0.016,0.351,1.64,1.23,4.295c0.198,0.597-0.126,1.244-0.724,1.442C109.236,121.205,109.116,121.223,108.996,121.223z     M230.4,117.623c-0.111,0-0.224-0.016-0.337-0.051c-1.234-0.381-2.535-0.64-3.868-0.771c-0.627-0.062-1.085-0.622-1.023-1.248    c0.062-0.628,0.628-1.056,1.248-1.025c1.484,0.147,2.936,0.439,4.316,0.865c0.602,0.185,0.939,0.825,0.753,1.426    C231.34,117.309,230.888,117.623,230.4,117.623z"/>
	</g>
	<g>
		<g>
			<path style="fill:#241726;" d="M84.666,468.269c-14.198,0-25.319-22.964-25.319-52.278s11.121-52.275,25.319-52.275     s25.32,22.962,25.32,52.275S98.864,468.269,84.666,468.269z M84.666,365.998c-12.702,0-23.036,22.427-23.036,49.993     c0,27.568,10.334,49.995,23.036,49.995c12.703,0,23.038-22.427,23.038-49.995C107.704,388.425,97.37,365.998,84.666,365.998z"/>
		</g>
		<g>
			<path style="fill:#241726;" d="M109.131,447.756c-11.057,0-24.233-3.006-37.099-8.462     c-28.411-12.048-46.325-31.725-40.782-44.796c2.813-6.632,11.141-10.285,23.452-10.285c11.059,0,24.234,3.006,37.1,8.462     c28.411,12.048,46.324,31.723,40.782,44.794C129.772,444.101,121.442,447.756,109.131,447.756z M54.702,386.495     c-11.172,0-18.954,3.243-21.351,8.895c-4.96,11.696,12.792,30.448,39.572,41.805c12.59,5.338,25.449,8.279,36.208,8.279     c11.172,0,18.955-3.243,21.352-8.897c4.959-11.694-12.792-30.446-39.572-41.803C78.32,389.437,65.461,386.495,54.702,386.495z"/>
		</g>
		<g>
			<path style="fill:#241726;" d="M57.321,449.067c-9.754,0-16.714-3-19.597-8.444c-3.244-6.129-1.092-14.558,6.061-23.731     c6.957-8.924,17.872-17.589,30.733-24.397c14.184-7.508,29.088-11.816,40.889-11.816c9.754,0,16.714,3,19.597,8.444     c3.244,6.129,1.092,14.558-6.061,23.731c-6.957,8.924-17.872,17.589-30.733,24.397C84.025,444.759,69.121,449.067,57.321,449.067     z M115.407,382.96c-11.441,0-25.955,4.212-39.822,11.551c-12.583,6.661-23.237,15.108-30.001,23.782     c-6.567,8.424-8.642,15.973-5.844,21.259c2.468,4.662,8.712,7.232,17.58,7.232c11.441,0,25.955-4.212,39.822-11.551     c12.583-6.661,23.237-15.108,30.001-23.782c6.567-8.424,8.642-15.973,5.844-21.259C130.519,385.53,124.275,382.96,115.407,382.96     z"/>
		</g>
		<g>
			<circle style="fill:#E45D81;" cx="82.258" cy="417.196" r="11.394"/>
		</g>
		<g>
			<circle style="fill:#9C5680;" cx="42.795" cy="386.904" r="7.781"/>
		</g>
		<g>
			<circle style="fill:#00A09A;" cx="75.218" cy="465.46" r="7.781"/>
		</g>
		<g>
			<circle style="fill:#00A09A;" cx="131.17" cy="386.904" r="7.781"/>
		</g>
	</g>
	<g>
		<g>
			<g>
				<g>
					<path style="fill:#FBFCFF;" d="M483.356,277.473c0,0-112.334,106.92-118.578,108.378c-6.245,1.458-62.152,15.934-61.787,11.575       c0.365-4.359,22.888-63.749,22.888-63.749l124.256-107.524L483.356,277.473z"/>
				</g>
				<g>
					<path style="fill:#241726;" d="M305.467,399.381c-1.7,0-2.657-0.25-3.195-0.834c-0.308-0.334-0.456-0.767-0.418-1.217       c0.367-4.39,20.646-57.963,22.957-64.058c0.067-0.176,0.177-0.334,0.32-0.457l124.256-107.524       c0.25-0.216,0.584-0.312,0.907-0.267c0.328,0.047,0.618,0.232,0.798,0.51l33.221,51.319c0.298,0.459,0.226,1.068-0.172,1.446       c-11.521,10.965-112.743,107.176-119.106,108.663c-0.789,0.183-2.372,0.575-4.536,1.112       C346.849,391.458,314.88,399.381,305.467,399.381z M304.216,397.019c0.243,0.042,0.636,0.08,1.251,0.08       c9.134,0,42.081-8.166,54.484-11.239c2.178-0.539,3.773-0.934,4.566-1.121c4.841-1.493,72.572-64.816,117.367-107.439       l-31.995-49.425L326.843,334.353C318.161,357.248,305.416,391.665,304.216,397.019z"/>
				</g>
			</g>
			<g>
				<path style="fill:#241726;" d="M315.851,357.155l27.99,35.008c0,0-41.545,11.123-43.236,9.381      C297.223,398.06,315.851,357.155,315.851,357.155z"/>
			</g>
			<g>
				<path style="fill:#00A09A;" d="M365.272,386.883l-0.681-28.054l-20.722-2.76l1.852-15.627c0,0-19.382-1.116-20.757-7.443      c-1.375-6.327,121.19-105.162,121.19-105.162s42.7,48.65,38.293,52.528C480.041,284.242,367.161,393.564,365.272,386.883z"/>
			</g>
			<g>
				<path style="fill:#241726;" d="M363.761,361.422c-0.311,0-0.621-0.127-0.846-0.377c-0.423-0.466-0.387-1.188,0.08-1.611      c30.402-27.495,109.806-99.581,112.105-102.895c0.348-0.504,1.049-0.669,1.566-0.339c0.517,0.328,0.699,0.981,0.392,1.511      c-1.942,3.352-101.218,93.185-112.531,103.416C364.308,361.324,364.034,361.422,363.761,361.422z"/>
			</g>
			<g>
				<path style="fill:#241726;" d="M344.445,342.165c-0.308,0-0.614-0.125-0.839-0.368c-0.427-0.464-0.398-1.186,0.066-1.614      l117.353-108.119c0.466-0.421,1.187-0.392,1.612,0.067c0.427,0.464,0.398,1.186-0.066,1.614L345.219,341.864      C344.999,342.064,344.722,342.165,344.445,342.165z"/>
			</g>
		</g>
		<g>
			<g>
				<path style="fill:#FFFFFF;" d="M431.591,238.685c0,0,39.304,51.431,41.864,51.689c2.56,0.259,27.622-27.098,25.985-31.434      c-1.637-4.336-35.181-44.08-41.91-39.894S431.591,238.685,431.591,238.685z"/>
			</g>
			<g>
				<path style="fill:#241726;" d="M473.493,291.519L473.493,291.519c-0.039,0-0.115-0.004-0.153-0.009      c-2.522-0.254-24.589-28.489-42.656-52.13c-0.376-0.493-0.291-1.195,0.192-1.582c0.787-0.633,19.341-15.545,26.051-19.719      c0.513-0.319,1.119-0.479,1.803-0.479c9.776,0,40.253,36.9,41.778,40.938c0.374,0.992,0.329,2.819-3.38,8.181      C491.314,275.125,476.479,291.519,473.493,291.519z M433.176,238.88c14.278,18.661,36.921,47.568,40.422,50.274      c3.988-1.955,25.653-26.367,24.771-29.819c-1.526-4.041-31.704-39.454-39.64-39.454c-0.255,0-0.45,0.045-0.597,0.136      C452.35,223.614,436.995,235.824,433.176,238.88z"/>
			</g>
		</g>
		<g>
			<path style="fill:#E45D81;" d="M441.774,229.192c0,0,39.235,51.924,43.762,51.686c4.526-0.238,26.464-26.63,26.464-26.63     s-43.862-46.434-46.516-45.312S441.774,229.192,441.774,229.192z"/>
		</g>
	</g>
	<g>
		<g>
			<path style="fill:#E45D81;" d="M395.08,3.079c0,0-73.557-8.215-102.91,56.426c-31.73,69.877,39.567,96.845,39.299,108.173     c-0.267,11.329-21.751,17.863-21.884,23.527c-0.134,5.664,84.711,19.252,145.272-29.558     C521.074,108.28,489.569,7.925,395.08,3.079z"/>
		</g>
		<g>
			<g>
				<path style="fill:#FFCE59;" d="M437.914,84.264c7.729,30.955-23.619,40.124-27.414,48.748      c-3.796,8.625,0.923,13.789-4.795,13.551s-39.911-3.249-39.34-7.808c0.572-4.558-3.227-12.092-5.467-13.331      s-43.167-14.159-27.112-47.365C360.234,23.361,427.917,44.225,437.914,84.264z"/>
			</g>
			<g>
				<g>
					<path style="fill:#FFFFFF;" d="M378.357,145.301c0,0-1.84,18.786,1.416,21.037c3.256,2.251,16.463,2.003,17.335-2.016       c0.872-4.018-0.39-19.667-2.839-20.122C391.82,143.746,378.005,141.056,378.357,145.301z"/>
				</g>
				<g>
					<path style="fill:#241726;" d="M387.215,168.9C387.214,168.9,387.215,168.9,387.215,168.9c-3.597,0-6.621-0.608-8.091-1.625       c-3.532-2.443-2.349-17.522-1.902-22.086c-0.067-0.582,0.174-1.295,0.694-1.861c0.959-1.043,2.781-1.527,5.733-1.527       c3.99,0,8.98,0.932,10.62,1.237c0.768,0.143,1.259,0.508,1.668,1.125c2.25,3.383,3.05,16.884,2.287,20.401       C397.529,167.761,392.081,168.9,387.215,168.9z M383.649,144.084c-3.087,0-3.883,0.604-4.055,0.791       c-0.074,0.08-0.114,0.16-0.099,0.332c-0.855,8.919-0.742,19.037,0.927,20.192c1.054,0.729,3.783,1.219,6.793,1.219       c5.149,0,8.507-1.29,8.778-2.538c0.922-4.241-0.563-17.606-2.088-18.819C392.262,144.987,387.428,144.084,383.649,144.084z"/>
				</g>
			</g>
			<g>
				<path style="fill:#241726;" d="M376.506,141.904c-0.433,0-0.848-0.247-1.04-0.669c-0.05-0.109-4.996-11.016-8.685-22.338      c-5.206-15.977-5.454-24.812-0.754-27.005c2.453-1.143,5.071-0.751,7.565,1.05c0.466-1.616,1.148-3.118,2.054-4.379      c1.523-2.119,5.946-6.445,14.081-0.744c1.255,0.878,2.368,1.781,3.35,2.69c2.129-2.168,4.765-3.501,7.211-3.443      c2.108,0.018,5.079,0.976,7.261,5.438c3.701,7.569,0.358,17.285-2.875,26.681c-2.584,7.511-5.025,14.602-3.907,20.203      c0.124,0.617-0.277,1.219-0.896,1.342c-0.612,0.125-1.219-0.276-1.342-0.896c-1.239-6.205,1.299-13.581,3.986-21.391      c3.082-8.957,6.268-18.219,2.983-24.936c-0.922-1.885-2.577-4.136-5.231-4.159c-1.872-0.042-3.881,1.043-5.581,2.784      c4.218,4.642,5.251,9.316,4.641,12.391c-0.422,2.133-1.657,3.626-3.303,3.996c-1.085,0.238-3.237,0.178-5.546-2.949      c-2.177-2.951-2.243-7.132-0.176-11.183c0.384-0.753,0.82-1.464,1.297-2.126c-0.933-0.874-1.991-1.738-3.184-2.574      c-3.265-2.289-7.814-4.114-10.917,0.209c-0.938,1.304-1.593,2.964-1.977,4.751c0.684,0.718,1.352,1.547,1.997,2.483      c2.687,3.9,5.388,10.689,3.246,12.766c-0.633,0.611-1.795,1.03-3.772-0.426c-3.349-2.467-4.75-8.536-3.937-14.036      c-1.659-1.466-3.795-2.538-6.064-1.473c-6.326,2.953,3.115,29.984,10.552,46.329c0.261,0.573,0.008,1.25-0.566,1.511      C376.825,141.871,376.664,141.904,376.506,141.904z M375.132,97.717c-0.186,4.11,0.924,8.23,3.215,9.918      c0.438,0.323,0.719,0.45,0.871,0.501C379.595,106.91,378.248,101.818,375.132,97.717z M393.218,93.933      c-0.32,0.47-0.616,0.969-0.883,1.491c-1.666,3.265-1.674,6.552-0.02,8.792c1.108,1.502,2.306,2.291,3.212,2.075      c0.737-0.165,1.322-0.992,1.562-2.211C397.61,101.457,396.502,97.675,393.218,93.933z"/>
			</g>
			<g>
				<g>
					<path style="fill:#FFFFFF;" d="M367.772,134.583c0,0,42.272,0.878,42.544,2.829s1.035,21.726-0.916,21.998       s-43.534-0.225-44.076-4.126C364.781,151.382,364.062,134.781,367.772,134.583z"/>
				</g>
				<g>
					<path style="fill:#241726;" d="M406.397,160.612c-6.928,0-41.519-0.25-42.203-5.17c-0.269-1.93-1.436-17.245,1.644-20.981       c0.653-0.793,1.38-0.99,1.873-1.016c43.331,0.896,43.575,2.65,43.735,3.811c0.117,0.834,1.205,19.926-0.85,22.643       c-0.347,0.459-0.757,0.602-1.04,0.64C409.212,160.587,408.148,160.612,406.397,160.612z M367.749,135.724       c0.035,0-0.058,0.076-0.15,0.187c-1.998,2.425-1.774,14.687-1.144,19.213c1.756,1.906,24.467,3.205,39.943,3.205       c1.304,0,2.077-0.016,2.487-0.031c0.976-2.498,0.715-16.497,0.358-20.232C405.983,137.037,385.832,136.099,367.749,135.724z"/>
				</g>
			</g>
			<g>
				<g>
					<path style="fill:#FFFFFF;" d="M366.064,141.74c0,0,41.202,1.186,43.614,2.521"/>
				</g>
				<g>
					<path style="fill:#241726;" d="M409.678,145.401c-0.187,0-0.377-0.047-0.552-0.143c-2.076-0.885-27.539-1.93-43.094-2.378       c-0.631-0.018-1.127-0.544-1.109-1.175c0.018-0.628,0.525-1.088,1.173-1.108c9.731,0.281,41.671,1.299,44.135,2.663       c0.552,0.305,0.751,0.998,0.446,1.551C410.469,145.189,410.08,145.401,409.678,145.401z"/>
				</g>
			</g>
			<g>
				<g>
					<path style="fill:#FFFFFF;" d="M364.701,149.087c0,0,41.239,0.306,46.064,2.975"/>
				</g>
				<g>
					<path style="fill:#241726;" d="M410.763,153.204c-0.187,0-0.377-0.047-0.552-0.143c-3.353-1.856-28.64-2.707-45.1-2.829       c-0.63-0.004-1.095-0.514-1.091-1.145c0.004-0.626,0.054-1.141,0.68-1.141c0,0,0.006,0,0.009,0       c4.25,0.031,41.232,0.299,46.169,3.031c0.552,0.305,0.719,0.933,0.414,1.486C411.085,152.84,411.164,153.204,410.763,153.204z"/>
				</g>
			</g>
		</g>
		<g>
			<path style="fill:#241726;" d="M379.154,36.431c-0.177,0-0.352-0.042-0.51-0.12c-0.27-0.136-0.622-0.423-0.764-1.027     c-0.585-2.48,3.354-13.775,4.965-15.924c0.348-0.464,0.847-0.72,1.405-0.72c3.454,0,9.33,12.904,9.555,14.477     c0.066,0.461-0.076,0.923-0.398,1.295C391.884,36.168,383.823,36.431,379.154,36.431z M384.445,21.069     c-1.417,2.367-4.083,10.464-4.344,13.076c4.748-0.051,9.955-0.477,11.351-1.103C390.713,30.55,386.241,22.388,384.445,21.069z"/>
		</g>
		<g>
			<path style="fill:#FDFFFF;" d="M403.568,38.934c0,0,12.685,5.458,13.216,3.494c0.532-1.964-0.467-17.113-2.962-15.681     S402.738,37.95,403.568,38.934z"/>
		</g>
		<g>
			<path style="fill:#241726;" d="M436.629,61.236L436.629,61.236c-2.314,0-7.553-6.254-10.469-9.98     c-0.11-0.14-0.185-0.303-0.221-0.477c-0.059-0.296-0.049-0.751,0.34-1.237c1.592-1.988,12.916-5.848,15.601-5.904h0.001     c0.778,0,1.394,0.412,1.687,1.101c1.306,3.064-4.552,14.745-5.767,16.011C437.499,61.064,437.083,61.236,436.629,61.236z      M428.544,50.592c2.966,3.706,6.512,7.546,7.865,8.259c1.505-2.115,5.178-10.671,5.109-12.899     C438.789,46.293,430.762,49.188,428.544,50.592z"/>
		</g>
		<g>
			<path style="fill:#FDFFFF;" d="M442.527,66.713c0,0,2.685,13.545,4.605,12.872c1.919-0.674,13.84-10.076,11.247-11.322     C455.785,67.018,442.868,65.472,442.527,66.713z"/>
		</g>
		<g>
			<path style="fill:#241726;" d="M452.896,104.396c0,0-0.001,0-0.002,0c-1.212,0-4.144-0.038-5.197-0.388     c-0.445-0.149-0.793-0.484-0.981-0.938c-0.888-2.153,2.489-9.474,4.583-13.648c0.079-0.158,0.195-0.296,0.337-0.401     c0.197-0.147,0.6-0.274,0.846-0.274c2.397,0,11.22,9.213,12.425,11.631c0.282,0.566,0.257,1.195-0.068,1.721     C463.662,103.999,457.695,104.396,452.896,104.396z M448.817,101.922c0.656,0.094,2.016,0.192,4.076,0.192h0.001     c5.333,0,8.722-0.595,9.758-1.083c-1.489-2.333-7.52-8.333-9.735-9.735C450.842,95.548,448.894,100.376,448.817,101.922z"/>
		</g>
		<g>
			<path style="fill:#FDFFFF;" d="M447.871,112.41c0,0-11.77,7.222-10.471,8.788c1.298,1.566,14.255,9.479,14.523,6.615     C452.19,124.949,449.153,112.299,447.871,112.41z"/>
		</g>
		<g>
			<path style="fill:#241726;" d="M433.405,146.495L433.405,146.495c-3.382,0-13.205-6.091-14.496-7.647     c-0.299-0.361-0.419-0.827-0.339-1.313c0.381-2.298,7.114-6.735,11.093-9.175c0.149-0.094,0.32-0.149,0.496-0.165     c0.39-0.02,0.842,0.091,1.257,0.546c1.793,1.968,4.282,13.394,4.031,16.1C435.375,145.604,434.798,146.495,433.405,146.495z      M420.959,137.672c1.774,1.502,9.575,6.26,12.229,6.528c-0.038-2.775-1.996-11.041-3.136-13.394     C426.04,133.324,421.834,136.402,420.959,137.672z"/>
		</g>
		<g>
			<path style="fill:#FDFFFF;" d="M369.003,36.873c0,0-12.487,5.897-13.086,3.953c-0.6-1.944-0.131-17.119,2.413-15.775     S369.797,35.862,369.003,36.873z"/>
		</g>
		<g>
			<path style="fill:#241726;" d="M336.678,60.318c-0.429,0-0.828-0.158-1.125-0.448c-1.267-1.23-7.544-12.728-6.315-15.817     c0.279-0.702,0.893-1.128,1.641-1.139c2.923,0,14.184,3.45,15.807,5.367c0.397,0.468,0.421,0.916,0.372,1.21     c-0.029,0.176-0.098,0.341-0.203,0.484C343.422,54.693,338.869,60.318,336.678,60.318z M331.32,45.214     c0.009,2.229,3.979,10.649,5.556,12.71c1.327-0.758,4.734-4.716,7.569-8.525C342.222,48.123,334.246,45.453,331.32,45.214z"/>
		</g>
		<g>
			<path style="fill:#FDFFFF;" d="M331.037,65.996c0,0-2.211,13.631-4.153,13.025c-1.942-0.606-14.183-9.587-11.635-10.922     C317.797,66.763,330.653,64.768,331.037,65.996z"/>
		</g>
		<g>
			<path style="fill:#241726;" d="M319.696,104.057c-8.487,0-9.396-1.415-9.739-1.948c-0.328-0.508-0.367-1.125-0.109-1.689     c0.979-2.153,9.544-12.057,12.066-12.057c0.233,0,0.608,0.111,0.8,0.243c0.146,0.103,0.266,0.236,0.351,0.392     c2.236,4.096,5.868,11.297,5.056,13.479c-0.172,0.461-0.508,0.807-0.946,0.972C326.05,103.868,322.509,104.057,319.696,104.057z      M312.122,100.993c0.837,0.361,3.238,0.782,7.574,0.782c2.947,0,5.31-0.194,6.284-0.37c-0.129-1.547-2.261-6.334-4.493-10.524     C319.499,92.237,313.547,98.577,312.122,100.993z"/>
		</g>
		<g>
			<path style="fill:#FDFFFF;" d="M327.291,111.851c0,0,12.015,6.807,10.772,8.417c-1.243,1.61-13.916,9.971-14.283,7.118     S326.006,111.785,327.291,111.851z"/>
		</g>
		<g>
			<path style="fill:#241726;" d="M342.822,145.412c-1.312,0-1.883-0.818-1.982-1.585c-0.335-2.601,1.784-14.317,3.492-16.26     c0.683-0.771,1.286-0.657,1.714-0.412c4.062,2.3,10.945,6.503,11.404,8.783c0.097,0.484-0.007,0.954-0.293,1.324     C355.88,138.918,346.164,145.412,342.822,145.412z M345.742,129.611c-1.059,2.396-2.727,10.727-2.667,13.501     c2.54-0.339,10.206-5.248,11.997-6.947C354.164,134.931,349.845,131.994,345.742,129.611z"/>
		</g>
		<g>
			<path style="fill:#241726;" d="M431.693,97.556c-0.016,0-0.03,0-0.045,0c-0.63-0.025-1.121-0.555-1.097-1.186     c0.556-14.482-4.451-25.538-14.884-32.864c-7.803-5.478-15.832-6.699-15.913-6.71c-0.623-0.091-1.055-0.671-0.964-1.295     c0.09-0.624,0.662-1.043,1.294-0.965c0.341,0.051,34.151,5.404,32.747,41.923C432.809,97.075,432.303,97.556,431.693,97.556z"/>
		</g>
	</g>
</g>















</svg>
